<?xml version="1.0" encoding="utf-8"?>
<!-- Generator: Adobe Illustrator 21.0.0, SVG Export Plug-In . SVG Version: 6.00 Build 0)  -->
<!DOCTYPE svg PUBLIC "-//W3C//DTD SVG 1.1//EN" "http://www.w3.org/Graphics/SVG/1.1/DTD/svg11.dtd">
<svg version="1.1" id="Icons" xmlns="http://www.w3.org/2000/svg" xmlns:xlink="http://www.w3.org/1999/xlink" x="0px"
     y="0px"
     viewBox="0 0 288 288" style="enable-background:new 0 0 288 288;" xml:space="preserve">
<style type="text/css">
	.st0{fill:#F80000;}
</style>
    <g transform="translate(-140, -140) scale(2, 2)">
		<path class="st0"
              d="M202.9,176.3c-2.6,0-5.2,0-7.8,0c0-0.3,0-0.7,0-1c0-17.9-0.1-35.8,0-53.6c0-4.7-3.6-9.6-9.6-9.6c-17.6,0-35.3,0-52.9,0c-0.7,0-1.1-0.2-1.5-0.9c-1.4-2.6-2.9-5.1-4.2-7.6c-0.3-0.5-0.6-0.6-1.1-0.6c-8,0-16.1,0-24.1,0c-0.3,0-0.6,0-0.9,0c0-2.9,0-5.7,0-8.6c0.3,0,0.5,0,0.8,0c10.7,0,21.4,0,32,0c0.6,0,0.9,0.2,1.1,0.7c1.4,2.6,2.9,5.1,4.2,7.6c0.3,0.6,0.6,0.8,1.3,0.8c17.7,0,35.4,0,53,0c4.9,0,8.7,3.2,9.5,8c0.1,0.4,0.1,0.9,0.1,1.3c0,20.9,0,41.8,0,62.7C202.9,175.7,202.9,176,202.9,176.3z"/>
        <path class="st0"
              d="M177.7,120.8c-17.7,0.1-35.4,0-53,0.1c-0.6,0-1-0.2-1.3-0.7c-1.4-2.6-2.9-5.2-4.3-7.8c-0.3-0.5-0.6-0.7-1.1-0.7c-10.7,0-21.3,0-32,0c-0.2,0-0.5,0-0.8,0c0,27.4,0,54.6,0,81.9c34.1,0,68.1,0,102.1,0c0-0.3,0-0.6,0-0.8c0-20.8,0-41.5,0-62.3C187.3,124.6,182.6,120.7,177.7,120.8z M108,129.3c-1.8,0-3.5,0-5.3,0c0,1.8,0,3.5,0,5.3c-1.3,0-2.7,0-4,0c0-1.8,0-3.5,0-5.3c-1.8,0-3.5,0-5.3,0c0-1.3,0-2.7,0-4c1.8,0,3.5,0,5.3,0c0-1.8,0-3.5,0-5.3c1.3,0,2.7,0,4,0c0,1.8,0,3.5,0,5.3c1.8,0,3.5,0,5.3,0C108,126.7,108,128,108,129.3z M140.6,134.2l6.2,12.4h-12.4L140.6,134.2z M132.5,170.2c-3,0-5.4-2.4-5.4-5.4c0-3,2.4-5.4,5.4-5.4c3,0,5.4,2.4,5.4,5.4C137.9,167.8,135.5,170.2,132.5,170.2z M145.1,154.8l6.4-2.8l6.4,2.8v9.2l-6.4,2.8l-6.4-2.8V154.8z M153.5,183.9c-3,0-5.4-2.4-5.4-5.4c0-3,2.4-5.4,5.4-5.4c3,0,5.4,2.4,5.4,5.4C159,181.5,156.5,183.9,153.5,183.9zM157.7,140.4c0-3.8,3.1-6.9,6.9-6.9c3.8,0,6.9,3.1,6.9,6.9c0,3.8-3.1,6.9-6.9,6.9C160.8,147.3,157.7,144.2,157.7,140.4zM167.6,167.8l5.5-11l5.5,11H167.6z"/>
	</g>
</svg>
