<?xml version="1.0" encoding="utf-8"?>
<!-- Generator: Adobe Illustrator 21.0.0, SVG Export Plug-In . SVG Version: 6.00 Build 0)  -->
<!DOCTYPE svg PUBLIC "-//W3C//DTD SVG 1.1//EN" "http://www.w3.org/Graphics/SVG/1.1/DTD/svg11.dtd">
<svg version="1.1" id="Icons" xmlns="http://www.w3.org/2000/svg" xmlns:xlink="http://www.w3.org/1999/xlink" x="0px" y="0px"
	 viewBox="0 0 288 288" style="enable-background:new 0 0 288 288;" xml:space="preserve">
<style type="text/css">
	.st0{fill:#F80000;}
</style>
<g>
	<g>
		<polygon class="st0" points="145.8,120 150.6,120 144.3,109.1 137.9,120 142.7,120 142.7,142.9 137.9,142.9 144.3,153.8 
			150.6,142.9 145.8,142.9 		"/>
		<polygon class="st0" points="140.1,131.4 129.2,125.1 129.2,129.9 121.5,129.9 121.5,133 129.2,133 129.2,137.8 		"/>
		<polygon class="st0" points="159.4,125.1 148.5,131.4 159.4,137.8 159.4,133 167.1,133 167.1,129.9 159.4,129.9 		"/>
		<path class="st0" d="M145.2,177.3c-0.5-0.3-1-0.3-2-0.3h-2v3.9h2.4c0.3,0,1,0,1.5-0.4c0.2-0.2,0.8-0.6,0.8-1.6
			C145.9,177.9,145.4,177.5,145.2,177.3z"/>
		<path class="st0" d="M130.2,177.2c-0.6-0.2-1.4-0.3-3.1-0.2v9.3c0.3,0,0.8,0,1.2,0c1.3,0,2.4-0.1,3.2-1c1.2-1.2,1.2-3.2,1.2-3.9
			C132.8,179.6,132.1,177.8,130.2,177.2z"/>
		<path class="st0" d="M190.2,87.2H97.8c-3.2,0-5.7,2.6-5.7,5.7v102.2c0,3.2,2.6,5.7,5.7,5.7h92.5c3.2,0,5.7-2.6,5.7-5.7V92.9
			C196,89.7,193.4,87.2,190.2,87.2z M130.9,188.5c-0.5,0.1-1.1,0.2-2.5,0.2h-4.3v-13.8l4.6,0c0.8,0,3.1,0,4.8,1.2
			c1.7,1.3,2.4,3.5,2.4,5.4C135.8,185.8,133.5,188,130.9,188.5z M146.2,188.6c-0.1-0.8-0.6-4.3-0.7-4.8c-0.3-0.8-1-0.8-1.5-0.8h-2.6
			v5.6h-3v-13.8h5.3c1.5,0,3.1,0,4.2,0.9c0.9,0.7,1.2,1.8,1.2,2.7c0,2.6-2.2,3.2-2.9,3.4c2.1,0.2,2.2,1.4,2.5,3.2
			c0.2,1.6,0.3,2.3,0.4,2.7c0.2,0.6,0.3,0.8,0.4,1H146.2z M155.2,185.5c0.7,0.8,1.6,1.2,3.3,1.2c1.4,0,1.9-0.2,2.3-0.3v-2.9H158
			v-2.3h5.6v6.9c-0.9,0.3-2.3,0.8-5,0.8c-3.2,0-4.8-0.8-5.9-1.8c-1.5-1.5-1.8-3.7-1.8-5.2c0-4.9,3.1-7.5,7.2-7.5
			c1.8,0,3.6,0.5,4.7,1.7c0.9,1.1,1,2.1,1,2.9h-3.1c0-0.4,0-0.9-0.4-1.4c-0.6-0.9-1.7-1.1-2.3-1.1c-3.4,0-4,3.1-4,5.3
			C154.1,182.8,154.2,184.4,155.2,185.5z M144,161.9c-16.8,0-30.4-13.6-30.4-30.4c0-16.8,13.6-30.4,30.4-30.4
			c16.8,0,30.4,13.6,30.4,30.4C174.4,148.3,160.8,161.9,144,161.9z"/>
	</g>
</g>
</svg>
