<?xml version="1.0" encoding="utf-8"?>
<!-- Generator: Adobe Illustrator 21.0.0, SVG Export Plug-In . SVG Version: 6.00 Build 0)  -->
<!DOCTYPE svg PUBLIC "-//W3C//DTD SVG 1.1//EN" "http://www.w3.org/Graphics/SVG/1.1/DTD/svg11.dtd">
<svg version="1.1" id="Icons" xmlns="http://www.w3.org/2000/svg" xmlns:xlink="http://www.w3.org/1999/xlink" x="0px" y="0px"
	 viewBox="0 0 288 288" style="enable-background:new 0 0 288 288;" xml:space="preserve">
<style type="text/css">
	.st0{fill:#F80000;}
</style>
<g transform="translate(-140, -140) scale(2, 2)">
	<g>
		<g>
			<rect x="99.6" y="100.3" class="st0" width="22.1" height="22.9"/>
			<path class="st0" d="M188.4,123.3v-22.9h-59.6v22.9H188.4z M171.1,109.2h3.2l1.8,3.1l1.8-3.1h2.8l-3,4.6l3.1,4.8h-3.2l-1.9-3.4l-1.9,3.4H171l3.1-5L171.1,109.2z M166.1,116.1h2.3v2.5h-2.3V116.1z M153.8,109.2h3.2l1.8,3.1l1.8-3.1h2.8l-3,4.6l3.1,4.8h-3.2l-1.9-3.4l-1.9,3.4h-2.9l3.1-5L153.8,109.2z M148.8,116.1h2.3v2.5h-2.3V116.1z M139.8,109.2l1.8,3.1l1.8-3.1h2.8l-3,4.6l3.1,4.8h-3.2l-1.9-3.4l-1.9,3.4h-2.9l3.1-5l-3-4.3H139.8z"/>
			<rect x="99.6" y="132.5" class="st0" width="22.1" height="22.9"/>
			<path class="st0" d="M188.4,155.5v-22.9h-59.6v22.9H188.4z M171.1,140.2h3.2l1.8,3.1l1.8-3.1h2.8l-3,4.6l3.1,4.8h-3.2l-1.9-3.4l-1.9,3.4H171l3.1-5L171.1,140.2z M166.1,147.1h2.3v2.5h-2.3V147.1z M153.8,140.2h3.2l1.8,3.1l1.8-3.1h2.8l-3,4.6l3.1,4.8h-3.2l-1.9-3.4l-1.9,3.4h-2.9l3.1-5L153.8,140.2z M148.8,147.1h2.3v2.5h-2.3V147.1z M139.8,140.2l1.8,3.1l1.8-3.1h2.8l-3,4.6l3.1,4.8h-3.2l-1.9-3.4l-1.9,3.4h-2.9l3.1-5l-3-4.3H139.8z"/>
			<path class="st0" d="M188.4,187.7v-22.9h-59.6v22.9H188.4z M171.1,171.2h3.2l1.8,3.1l1.8-3.1h2.8l-3,4.6l3.1,4.8h-3.2l-1.9-3.4l-1.9,3.4H171l3.1-5L171.1,171.2z M166.1,178.1h2.3v2.5h-2.3V178.1z M153.8,171.2h3.2l1.8,3.1l1.8-3.1h2.8l-3,4.6l3.1,4.8h-3.2l-1.9-3.4l-1.9,3.4h-2.9l3.1-5L153.8,171.2z M148.8,178.1h2.3v2.5h-2.3V178.1z M139.8,171.2l1.8,3.1l1.8-3.1h2.8l-3,4.6l3.1,4.8h-3.2l-1.9-3.4l-1.9,3.4h-2.9l3.1-5l-3-4.3H139.8z"/>
			<rect x="99.6" y="164.7" class="st0" width="22.1" height="22.9"/>
		</g>
	</g>
</g>
</svg>
