<?xml version="1.0" encoding="utf-8"?>
<!-- Generator: Adobe Illustrator 22.0.1, SVG Export Plug-In . SVG Version: 6.00 Build 0)  -->
<svg version="1.1" id="Icons" xmlns="http://www.w3.org/2000/svg" xmlns:xlink="http://www.w3.org/1999/xlink" x="0px" y="0px"
	 viewBox="0 0 288 288" style="enable-background:new 0 0 288 288;" xml:space="preserve">
<style type="text/css">
	.st0{fill:#F80000;}
</style>
<g transform="translate(-140, -140) scale(2, 2)">
	<path class="st0" d="M142.7,138v-13.5h-8.4v-20.8h20.8v20.8h-8.4V138h52.8c-3-27.4-26.2-48.8-54.4-48.8c-28.2,0-51.4,21.3-54.4,48.8H142.7z"/>
	<path class="st0" d="M170,142v14.6h8.4v20.8h-20.8v-20.8h8.4V142h-41.5v14.6h8.4v20.8H112v-20.8h8.4V142H90.5c0,0.7-0.1,1.3-0.1,2c0,30.2,24.5,54.7,54.7,54.7c30.2,0,54.7-24.5,54.7-54.7c0-0.7-0.1-1.3-0.1-2H170z"/>
</g>
</svg>
