<?xml version="1.0" encoding="utf-8"?>
<!-- Generator: Adobe Illustrator 21.0.0, SVG Export Plug-In . SVG Version: 6.00 Build 0)  -->
<!DOCTYPE svg PUBLIC "-//W3C//DTD SVG 1.1//EN" "http://www.w3.org/Graphics/SVG/1.1/DTD/svg11.dtd">
<svg version="1.1" id="Icons" xmlns="http://www.w3.org/2000/svg" xmlns:xlink="http://www.w3.org/1999/xlink" x="0px" y="0px"
	 viewBox="0 0 288 288" style="enable-background:new 0 0 288 288;" xml:space="preserve">
<style type="text/css">
	.st0{fill:#F80000;}
</style>
<g>
	<path class="st0" d="M143.4,154.1c-0.4,0.8-0.9,1.5-1.5,2l6,15.2c0.1,0,0.2,0,0.3,0c0.9,0,1.8,0.3,2.6,0.7l14.7-14.3c-0.2-0.4-0.4-0.8-0.5-1.3L143.4,154.1z"/>
	<path class="st0" d="M138.2,157.5c-2.2,0-4-1.2-5-3l-10.2,1.7c0,0.3-0.1,0.5-0.2,0.8l21.6,15.2l-5.8-14.7C138.4,157.4,138.3,157.5,138.2,157.5z"/>
	<path class="st0" d="M134.4,147.7l-8.6-18.7c-0.1,0-0.1,0-0.2,0l-5.2,21.4c0.9,0.5,1.6,1.3,2,2.2l10.2-1.7C132.9,149.7,133.5,148.5,134.4,147.7z"/>
	<path class="st0" d="M138.2,146.2c0.9,0,1.8,0.2,2.5,0.6l19.9-20c-0.1-0.3-0.3-0.6-0.4-0.9l-29.9-0.6c-0.3,0.9-0.8,1.6-1.5,2.3l8.6,18.7C137.8,146.2,138,146.2,138.2,146.2z"/>
	<path class="st0" d="M163.2,129.3l-19.9,20c0.2,0.4,0.4,0.9,0.5,1.4l21.7,2.3c0.5-1.2,1.4-2.1,2.6-2.7l-3.2-20.4C164.2,129.7,163.7,129.5,163.2,129.3z"/>
	<path class="st0" d="M144,87.8c-31,0-56.2,25.2-56.2,56.2c0,31,25.2,56.2,56.2,56.2s56.2-25.2,56.2-56.2C200.2,113,175,87.8,144,87.8z M170.6,160.9c-0.9,0-1.8-0.3-2.6-0.7l-14.7,14.3c0.4,0.7,0.6,1.6,0.6,2.5c0,3.1-2.5,5.6-5.6,5.6s-5.6-2.5-5.6-5.6c0-0.6,0.1-1.1,0.3-1.7l-22-15.5c-0.9,0.7-2.1,1.1-3.4,1.1c-3.1,0-5.6-2.5-5.6-5.6c0-3,2.3-5.4,5.2-5.6l5.2-21.4c-1.6-1-2.7-2.8-2.7-4.8c0-3.1,2.5-5.6,5.6-5.6c2.5,0,4.7,1.7,5.4,4l29.9,0.6c0.8-2.2,2.8-3.8,5.3-3.8c3.1,0,5.6,2.5,5.6,5.6c0,2.2-1.3,4.1-3.1,5l3.2,20.4c2.7,0.4,4.7,2.7,4.7,5.6C176.2,158.4,173.7,160.9,170.6,160.9z"/>
</g>
</svg>
