<?xml version="1.0" encoding="utf-8"?>
<!-- Generator: Adobe Illustrator 24.1.0, SVG Export Plug-In . SVG Version: 6.00 Build 0)  -->
<svg version="1.1" id="BM_Compute_New_copy_2" xmlns="http://www.w3.org/2000/svg" xmlns:xlink="http://www.w3.org/1999/xlink"
	 x="0px" y="0px" viewBox="0 0 161.9 162" enable-background="new 0 0 161.9 162" xml:space="preserve">
	<g>
<path fill="#312D2A" d="M124.8,126.2c0,3.9-3.1,7-7,7s-7-3.1-7-7c0-3.9,3.1-7,7-7S124.8,122.4,124.8,126.2z M117.8,74.3
	c-3.9,0-7,3.1-7,7s3.1,7,7,7s7-3.1,7-7S121.6,74.3,117.8,74.3z M117.8,28.8c-3.9,0-7,3.1-7,7s3.1,7,7,7s7-3.1,7-7
	S121.6,28.8,117.8,28.8z M152.3,9.3v143.5H9V9.3H152.3z M18,18.3v35.5h125.3V18.3H18z M18,62.8v37h125.3v-37H18z M143.3,143.8v-35
	H18v35H143.3z"/>
	</g>
</svg>
