<?xml version="1.0" encoding="utf-8"?>
<!-- Generator: Adobe Illustrator 24.1.0, SVG Export Plug-In . SVG Version: 6.00 Build 0)  -->
<svg version="1.1" id="Big_Data_Service" xmlns="http://www.w3.org/2000/svg" xmlns:xlink="http://www.w3.org/1999/xlink" x="0px"
	 y="0px" viewBox="0 0 161.9 162" enable-background="new 0 0 161.9 162" xml:space="preserve">
	<g>
<path fill="#312D2A" d="M150.5,98.8c-0.8-7.1-7.2-12.2-14.2-11.4c-3.4,0.4-6.5,2-8.6,4.7l-7.5-3.9c0.7-3.1,1-6.2,1-9.5
	c0-12.5-5.2-23.7-13.6-31.8l4.6-4.7c1.9,1.2,4.1,1.9,6.4,1.9c6.6,0,11.9-5.3,11.9-11.9s-5.3-11.9-11.9-11.9s-11.9,5.3-11.9,11.9
	c0,2.3,0.7,4.5,1.8,6.3l-5,5c-7.4-5.5-16.5-8.8-26.4-8.8c-12.1,0-23.1,4.9-31,12.9l-6.1-6.1c2.4-2.8,3.8-6.5,3.8-10.4
	c0-8.9-7.3-16.2-16.2-16.2S11.6,22.1,11.6,31s7.3,16.2,16.2,16.2c3.1,0,6-0.9,8.4-2.4l6.6,6.6c-3,3.8-5.4,8.1-7,12.7l-7.4-2.7
	c0-0.1,0-0.2,0-0.3c0-4.4-3.6-8-8-8s-8,3.6-8,8s3.6,8,8,8c2.4,0,4.6-1.1,6.1-2.8l7.8,2.9c-0.7,3.1-1,6.2-1,9.5
	c0,7.4,1.9,14.4,5.1,20.6l-5.7,4.6c-1.9-1.5-4.2-2.4-6.8-2.4c-6,0-10.9,4.9-10.9,10.9c0,6,4.9,10.9,10.9,10.9s10.9-4.9,10.9-10.9
	c0-1.5-0.3-3-0.9-4.3l5.3-4.2c7.9,11.4,21.2,18.9,36.1,18.9c2.8,0,5.6-0.3,8.2-0.8l3,9c-2.9,1.9-4.9,5.3-4.9,9
	c0,6,4.9,10.9,10.9,10.9s10.9-4.9,10.9-10.9c0-6-4.9-10.9-10.9-10.9c-0.4,0-0.8,0-1.2,0.1l-2.8-8.5c13.2-4.2,23.6-14.4,28.2-27.3
	l6.6,3.4c-0.5,1.6-0.6,3.3-0.4,5c0.4,3.4,2.1,6.5,4.7,8.7c2.3,1.9,5.1,2.9,8.1,2.9c0.5,0,0.9,0,1.4-0.1
	C146.2,112.3,151.3,105.9,150.5,98.8z M118.7,26.3c3.2,0,5.9,2.6,5.9,5.9s-2.6,5.9-5.9,5.9c-3.2,0-5.9-2.6-5.9-5.9
	S115.4,26.3,118.7,26.3z M18.6,31c0-5.1,4.1-9.2,9.2-9.2s9.2,4.1,9.2,9.2s-4.1,9.2-9.2,9.2S18.6,36.1,18.6,31z M20.5,64.1
	c-1.6,0-3-1.3-3-3s1.3-3,3-3s3,1.3,3,3S22.1,64.1,20.5,64.1z M26,117.1c-2.7,0-4.9-2.2-4.9-4.9s2.2-4.9,4.9-4.9s4.9,2.2,4.9,4.9
	S28.6,117.1,26,117.1z M99.3,139.8c0,2.7-2.2,4.9-4.9,4.9s-4.9-2.2-4.9-4.9s2.2-4.9,4.9-4.9S99.3,137.1,99.3,139.8z M112.1,75.6
	H96.6c-0.7-14.1-6.5-24.8-10.8-30.9C100,48.3,110.8,60.6,112.1,75.6z M64.8,75.6C65.6,58,75,46,76.9,43.7c0.1,0,0.2,0,0.4,0
	c1.8,1.9,12.4,14,13.3,31.9H64.8z M90.5,81.6c-0.5,5.1-2.7,17.9-13.5,30.8c-9.8-12.9-11.8-25.8-12.3-30.8H90.5z M68.7,44.8
	c-3.9,6-9.3,16.8-9.9,30.8H42.5C43.8,60.7,54.5,48.4,68.7,44.8z M42.5,81.6h16.3c0.3,5.1,2.1,17.8,11.1,31.1
	C55.1,109.6,43.8,97,42.5,81.6z M84.4,112.8c9.9-13.4,11.8-26.1,12.2-31.2h15.5C110.8,97.1,99.3,109.7,84.4,112.8z M142.9,104.4
	c-1.1,1.4-2.7,2.2-4.5,2.4c-1.8,0.2-3.5-0.3-4.9-1.4c-1.4-1.1-2.2-2.7-2.4-4.5c-0.2-1.8,0.3-3.5,1.4-4.9c1.1-1.4,2.7-2.2,4.5-2.4
	c0.2,0,0.5,0,0.7,0c3.3,0,6.2,2.5,6.6,5.9C144.5,101.3,144,103,142.9,104.4z"/>
	</g>
</svg>
