<?xml version="1.0" encoding="utf-8"?>
<!-- Generator: Adobe Illustrator 24.1.0, SVG Export Plug-In . SVG Version: 6.00 Build 0)  -->
<svg version="1.1" id="Customer_Data_Center_ALT" xmlns="http://www.w3.org/2000/svg" xmlns:xlink="http://www.w3.org/1999/xlink"
	 x="0px" y="0px" viewBox="0 0 161.9 162" enable-background="new 0 0 161.9 162" xml:space="preserve">
<g>
	<path fill="#312D2A" d="M114.6,33.9V19.3H30.9v26.9v8v10c2.5-1.2,5.2-2,8-2.4v-7.7h67.6v18.2H62.8c1.8,2.6,3.1,5.5,3.9,8.6h39.9
		v18.2H64c-1.8,3.2-4.2,5.9-7.2,8h57.7V92.5h37.5V75.3v-6.4V57.6v-6V33.9H114.6z M106.6,46.1H38.9V27.3h67.6V46.1z M146.1,86.5
		h-31.5V81v-5.7h31.5V86.5z M146.1,68.9h-31.5V57.6h31.5V68.9z M146.1,51.6h-31.5v-5.5v-6.2h31.5V51.6z"/>
	<path fill="#312D2A" d="M97.9,90.4c0-1.8-1.5-3.3-3.3-3.3s-3.3,1.5-3.3,3.3s1.5,3.3,3.3,3.3S97.9,92.2,97.9,90.4z"/>
	<path fill="#312D2A" d="M97.9,63.5c0-1.8-1.5-3.3-3.3-3.3s-3.3,1.5-3.3,3.3c0,1.8,1.5,3.3,3.3,3.3S97.9,65.4,97.9,63.5z"/>
	<path fill="#312D2A" d="M94.6,40.5c1.8,0,3.3-1.5,3.3-3.3s-1.5-3.3-3.3-3.3s-3.3,1.5-3.3,3.3S92.8,40.5,94.6,40.5z"/>
	<path fill="#312D2A" d="M138.6,83.3c1.2,0,2.2-1,2.2-2.2c0-1.2-1-2.2-2.2-2.2s-2.2,1-2.2,2.2C136.4,82.3,137.4,83.3,138.6,83.3z"/>
	<circle fill="#312D2A" cx="138.6" cy="63.4" r="2.2"/>
	<circle fill="#312D2A" cx="138.6" cy="46.1" r="2.2"/>
	<path fill="#312D2A" d="M42.1,107.2c11.5,0,20.8-9.3,20.8-20.8s-9.3-20.8-20.8-20.8c-11.5,0-20.8,9.3-20.8,20.8
		S30.6,107.2,42.1,107.2z M42.1,74.5c6.5,0,11.8,5.3,11.8,11.8c0,6.5-5.3,11.8-11.8,11.8s-11.8-5.3-11.8-11.8
		C30.3,79.8,35.6,74.5,42.1,74.5z"/>
	<path fill="#312D2A" d="M45,110.8h-5.8c-16.5,0-30,13.4-30,30v5.8h9v-5.8c0-11.6,9.4-21,21-21H45c11.6,0,21,9.4,21,21v5.8h9v-5.8
		C75,124.3,61.5,110.8,45,110.8z"/>
</g>
</svg>
