<?xml version="1.0" encoding="utf-8"?>
<!-- Generator: Adobe Illustrator 24.1.0, SVG Export Plug-In . SVG Version: 6.00 Build 0)  -->
<svg version="1.1" id="Db_Home" xmlns="http://www.w3.org/2000/svg" xmlns:xlink="http://www.w3.org/1999/xlink" x="0px"
     y="0px" viewBox="0 0 161.9 162" enable-background="new 0 0 161.9 162" xml:space="preserve">
<g>
<path fill="#312D2A" d="M71.6,113.8h19.2h9h28.4V76.4h-14.1V48H85.5h-8.8H48.1v28.4h-14v37.4h28.2H71.6z M90.8,104.8H71.6V85.4h5.1
	h8.8h5.3V104.8z M119.2,85.4v19.4H99.8V85.4h14.3H119.2z M85.7,57h19.4v19.4h-5.3h-9h-5.1V57z M57.1,57h19.4v19.4h-5h-9.2h-5.3V57z
	 M43.2,104.8V85.4h5h14.3v19.4H43.2z M9,9.2v143.6h143.8V9.2H9z M143.8,143.9H18V18.2h125.8V143.9z"/>
</g>
</svg>
