<?xml version="1.0" encoding="utf-8"?>
<!-- Generator: Adobe Illustrator 24.1.0, SVG Export Plug-In . SVG Version: 6.00 Build 0)  -->
<svg version="1.1" id="Encryption" xmlns="http://www.w3.org/2000/svg" xmlns:xlink="http://www.w3.org/1999/xlink" x="0px" y="0px"
	 viewBox="0 0 161.9 162" enable-background="new 0 0 161.9 162" xml:space="preserve">
<g>
	<path fill="#312D2A" d="M80.9,62c-9.4,0-17.1,7.7-17.1,17.1c0,5.3,2.4,10.1,6.5,13.3l-4.4,23.9H96l-4.4-24c4-3.2,6.4-8,6.5-13.1
		l0-0.1C98.1,69.6,90.4,62,80.9,62z M85.9,87.7L83.9,89l3.7,20.3H74.3L78,89l-2.1-1.2c-3.2-1.8-5.1-5.1-5.1-8.7
		c0-5.6,4.5-10.1,10.1-10.1c5.5,0,10.1,4.6,10.1,10.1C91,82.6,89.1,85.9,85.9,87.7z"/>
	<path fill="#312D2A" d="M132,94.1V49.7L110.2,41v-5c0-15.1-13.1-27.5-29.2-27.5C64.8,8.5,51.7,20.8,51.7,36v5.1l-21.6,8.6l0.2,46.9
		l0.1,0.4c7.6,41,47.4,56.2,49.1,56.8l1.8,0.7l1.7-0.8C132,130.4,132,95.5,132,94.1z M60.7,36c0-10.2,9.1-18.5,20.2-18.5
		s20.2,8.3,20.2,18.5v1.4l-20.1-8l-20.3,8.1V36z M80.9,144.7c-7.3-3.2-35.6-17.7-41.6-48.9l-0.2-40l41.9-16.7L123,55.8l0,38.3
		C123,94.5,123,123.9,80.9,144.7z"/>
</g>
</svg>
