<?xml version="1.0" encoding="utf-8"?>
<!-- Generator: Adobe Illustrator 24.1.0, SVG Export Plug-In . SVG Version: 6.00 Build 0)  -->
<svg version="1.1" id="Resource_Management_ALT" xmlns="http://www.w3.org/2000/svg" xmlns:xlink="http://www.w3.org/1999/xlink"
	 x="0px" y="0px" viewBox="0 0 161.9 162" enable-background="new 0 0 161.9 162" xml:space="preserve">
	<g>
<path fill="#312D2A" d="M9,77.7c5.5-1,6.6-3,6.6-12.9V41.5c0-8.5,5.6-13.2,15.9-13.2h6.7v7.1h-3.5c-7.4,0-10,2-10,7.8v19.9
	c0,13.2-0.9,15.6-6.3,17.8c5.5,2.5,6.3,4.8,6.3,18v19.9c0,5.8,2.6,7.8,10,7.8h3.5v7.1h-6.7c-10.3,0-15.9-4.7-15.9-13.2V97.1
	c0-9.8-1.1-11.8-6.6-12.8V77.7z M153.1,77.9c-5.5-1-6.6-3-6.6-12.9V41.7c0-8.5-5.6-13.2-15.9-13.2h-6.7v7.1h3.5c7.4,0,10,2,10,7.8
	v19.9c0,13.2,0.9,15.6,6.3,17.8c-5.5,2.5-6.3,4.8-6.3,18v19.9c0,5.8-2.6,7.8-10,7.8h-3.5v7.1h6.7c10.3,0,15.9-4.7,15.9-13.2V97.2
	c0-9.8,1.1-11.8,6.6-12.8V77.9z M103.3,100.4c-2.3,0-4.2,1.9-4.2,4.2c0,2.3,1.9,4.2,4.2,4.2s4.2-1.9,4.2-4.2
	C107.4,102.2,105.6,100.4,103.3,100.4z M103.3,77.7c-2.3,0-4.2,1.9-4.2,4.2s1.9,4.2,4.2,4.2s4.2-1.9,4.2-4.2S105.6,77.7,103.3,77.7z
	 M37.5,42.5v23.2v9v13.7v9.5v22.7h87.1V97.9v-9.5V74.7v-9V42.5H37.5z M115.6,111.5H46.5V97.9h69.1V111.5z M115.6,88.4H46.5V74.7
	h69.1V88.4z M46.5,65.7V51.5h69.1v14.2H46.5z M103.3,54.5c-2.3,0-4.2,1.9-4.2,4.2c0,2.3,1.9,4.2,4.2,4.2s4.2-1.9,4.2-4.2
	C107.4,56.4,105.6,54.5,103.3,54.5z"/></g>
</svg>
