<?xml version="1.0" encoding="utf-8"?>
<!-- Generator: Adobe Illustrator 24.1.0, SVG Export Plug-In . SVG Version: 6.00 Build 0)  -->
<svg version="1.1" id="Cloud_Guard_ALT_copy_2" xmlns="http://www.w3.org/2000/svg" xmlns:xlink="http://www.w3.org/1999/xlink"
	 x="0px" y="0px" viewBox="0 0 161.9 162" enable-background="new 0 0 161.9 162" xml:space="preserve">
<g>
	<polygon fill="#312D2A" points="119.5,37.5 109.3,47 105.3,42.9 101.1,47.2 109.2,55.3 123.6,41.9 	"/>
	<rect x="74.7" y="45.8" fill="#312D2A" width="17.8" height="6"/>
	<polygon fill="#312D2A" points="119.9,114.8 111.3,99.3 102.8,114.8 	"/>
	
		<ellipse transform="matrix(0.9732 -0.2298 0.2298 0.9732 -22.4747 22.3091)" fill="#312D2A" cx="84.6" cy="107.7" rx="7.7" ry="7.7"/>
	<path fill="#312D2A" d="M153.1,82.9V32.2L98.7,8.8L44.2,32.2l0.1,34.4h9l-0.1-28.5l45.5-19.5l45.5,19.5V83
		c0,0.4-0.1,34.9-45.6,59.2c-7.5-3.6-36.2-19.4-44.3-53H45c9.4,44.7,50.2,61.4,52,62.2l1.9,0.8l1.8-0.9
		C153.1,124.4,153.2,84.6,153.1,82.9z"/>
	<path fill="#312D2A" d="M49.7,83.1v-4.8h6.1v7.1h6.4v-7.1v-1v-4.7H37.1c-1.5-6.3-7.2-11-13.9-11c-7.9,0-14.4,6.4-14.4,14.4
		c0,7.9,6.4,14.4,14.4,14.4c7.1,0,13-5.2,14.2-12h7.4v4.8H49.7z M23.2,83.7c-4.3,0-7.8-3.5-7.8-7.8c0-4.3,3.5-7.8,7.8-7.8
		s7.8,3.5,7.8,7.8C31,80.2,27.5,83.7,23.2,83.7z"/>
	<path fill="#312D2A" d="M111.3,73.1c-2,0-3.7,1.7-3.7,3.7c0,2,1.7,3.7,3.7,3.7s3.7-1.7,3.7-3.7C115,74.8,113.4,73.1,111.3,73.1z"/>
	<path fill="#312D2A" d="M68.9,92.1H127V62.3H68.9V92.1z M75.9,69.3H120v15.8H75.9V69.3z"/>
</g>
</svg>
