<?xml version="1.0" encoding="utf-8"?>
<!-- Generator: Adobe Illustrator 24.1.0, SVG Export Plug-In . SVG Version: 6.00 Build 0)  -->
<svg version="1.1" id="Vm_Cluster_Network" xmlns="http://www.w3.org/2000/svg" xmlns:xlink="http://www.w3.org/1999/xlink" x="0px"
     y="0px" viewBox="0 0 161.9 162" enable-background="new 0 0 161.9 162" xml:space="preserve">
<g>
<path fill="#312D2A" d="M152.7,67.8V32h-35.8v12.5c-7.6,0.5-15.8,4.1-15.8,17.6v14.1H87.8v35.8h12.8c-1.2,7.7-5,12.3-15.8,12.3
	c-10,0-13-4.8-13-20.4V49.2c0-7.7,0-31.2-24.6-31.2c-9.7,0-17.1,4.8-21.3,13.8c-2.8,6.1-3.5,12.5-3.6,16.1H9v35.8h13.2V107h-13v35.8
	H45V107H31.2V83.7h13.6V47.9H31.2C31.5,42,33.5,27,47.2,27c9.4,0,15.6,3.8,15.6,22.2V104c0,9.6,0,29.4,22,29.4
	c19.9,0,23.9-13.2,24.9-21.3h13.9V76.3h-13.5V62.1c0-4.5,0.6-8,6.8-8.6v14.3H152.7z M36,133.8H18.2V116H36V133.8z M35.8,74.7H18
	V56.9h17.8V74.7z M114.6,103.1H96.8V85.3h17.8V103.1z M125.9,41h17.8v17.8h-17.8V41z"/>
</g>
</svg>
