<?xml version="1.0" encoding="utf-8"?>
<!-- Generator: Adobe Illustrator 24.1.0, SVG Export Plug-In . SVG Version: 6.00 Build 0)  -->
<svg version="1.1" id="Vm_Cluster" xmlns="http://www.w3.org/2000/svg" xmlns:xlink="http://www.w3.org/1999/xlink" x="0px"
     y="0px" viewBox="0 0 161.9 162" enable-background="new 0 0 161.9 162" xml:space="preserve">
<g>
<path fill="#F80000" d="M152.5,59.4V38.1h-21.2v8.2h-24.1v23.8h-7.8v21.2h7.8v10.9h-7.8v21.2h21.2v-21.2h-8V91.4h8v-7.8h10.6v7.8
	h21.2V70.2h-7.9V59.4H152.5z M114.1,117h-8.2v-8.2h8.2V117z M137.8,44.6h8.2v8.2h-8.2V44.6z M114.2,84.9h-8.2v-8.2h8.2V84.9z
	 M146,84.9h-8.2v-8.2h8.2V84.9z M139.2,70.2h-7.9v8h-10.6v-8h-8V51.8h18.7v7.6h7.9V70.2z M78.2,97.9V63.9l16.8,17L78.2,97.9z
	 M57,103.3c0,2.1-1.7,3.8-3.8,3.8s-3.8-1.7-3.8-3.8c0-2.1,1.7-3.8,3.8-3.8S57,101.2,57,103.3z M57,81c0,2.1-1.7,3.8-3.8,3.8
	s-3.8-1.7-3.8-3.8c0-2.1,1.7-3.8,3.8-3.8S57,78.9,57,81z M9.3,44.5v22v7v15v7v22H72v-22v-7v-15v-7v-22H9.3z M65,110.6H16.3v-15H65
	V110.6z M65,88.5H16.3v-15H65V88.5z M16.3,66.5v-15H65v15H16.3z M57,59.4c0,2.1-1.7,3.8-3.8,3.8s-3.8-1.7-3.8-3.8s1.7-3.8,3.8-3.8
	S57,57.3,57,59.4z"/>
</g>
</svg>
