<?xml version="1.0" encoding="utf-8"?>
<!-- Generator: Adobe Illustrator 24.1.0, SVG Export Plug-In . SVG Version: 6.00 Build 0)  -->
<svg version="1.1" id="WAF" xmlns="http://www.w3.org/2000/svg" xmlns:xlink="http://www.w3.org/1999/xlink" x="0px" y="0px"
	 viewBox="0 0 161.9 162" enable-background="new 0 0 161.9 162" xml:space="preserve">
<g>
<path fill="#312D2A" d="M142.2,46.3c-4.6-4.1-10.6-6.7-18-7.7c-3-6.2-12-20.1-32-16.3c-5.8-6.4-18-14.2-34-9.6
	c-2,0.5-14.1,3.9-19.8,19.7C28.7,34.2,13.6,42,10,62.1l0,0.2c-0.1,0.6-1.7,14.3,6.9,24.8c5.4,6.6,13.4,10.3,23.9,11.1l0.2,0h13.8
	l0-9H41.3c-0.2,0-0.5-0.1-0.7-0.1V78.5h14.1l0-5H19.9c-1.4-4.9-1-9.3-1-10c0.2-1.2,0.5-2.3,0.8-3.4h42.9v8.4l5-2.4v-6h12.8l12.6-5.9
	l0,0V41.7h22.7c0.6,1.2,0.9,2.1,1,2.4l0.9,2.9l3,0.3c6.6,0.6,11.8,2.5,15.5,5.8c0.7,0.7,1.4,1.3,2,2H94.9l10.5,5h9.8v4.7l5,2.4v-7.2
	h20.9c1.7,4.5,1.5,9.3,0.3,13.4h-10.8v5h8.7c-2.1,3.8-5.2,6.7-8.7,8.6v9.8c8.3-2.8,15.2-9.4,18.7-18.4
	C153.8,66.5,151.1,54.2,142.2,46.3z M35.5,78.5v9.8c-5-1.2-8.9-3.5-11.6-6.9c-0.8-0.9-1.4-1.9-2-3H35.5z M35.5,55.1H21.6
	c3.6-7.2,9.4-10.8,13.9-12.5V55.1z M60.2,21.5l0.4-0.1c0.7-0.2,1.4-0.4,2-0.5v15.8H46.4C50.5,23.7,59.8,21.5,60.2,21.5z M88.1,55.1
	H40.6V41.7h47.5V55.1z M67.7,36.6V20.3c12-0.1,18.8,9.1,19.1,9.6l1.8,2.6l3-0.8c10.6-2.7,17.1,0.9,20.8,5H67.7z"/>
<path fill="#312D2A" d="M125.6,106.7v-30L92.9,62.6L60.1,76.7l0.1,31.8l0.1,0.4c4.8,27.7,29.9,37.9,30.9,38.4l1.9,0.8l1.8-0.9
	C125.6,131.3,125.6,107.6,125.6,106.7z M116.6,106.7c0,0.7-0.3,16-19.4,28.6V98.1h-9v37.3c-6.6-4.3-16.3-13-19-27.7l-0.1-25.1
	l19.1-8.2v15.8h9V74.3l19.4,8.3V106.7z"/>
</g>
</svg>
