<?xml version="1.0" encoding="utf-8"?>
<!-- Generator: Adobe Illustrator 24.1.0, SVG Export Plug-In . SVG Version: 6.00 Build 0)  -->
<svg version="1.1" id="Dhcp_Option" xmlns="http://www.w3.org/2000/svg" xmlns:xlink="http://www.w3.org/1999/xlink" x="0px"
     y="0px" viewBox="0 0 161.9 162" enable-background="new 0 0 161.9 162" xml:space="preserve">
<g>
     <path fill="#ff6600" d="M147.4,80.6c0-3.9-2.2-7.3-5.3-9.1c-4.6-29.6-30.2-52.3-61-52.3c-34.1,0-61.8,27.7-61.8,61.8
          s27.7,61.8,61.8,61.8c31.1,0,56.9-23.2,61.1-53.1C145.3,87.8,147.4,84.5,147.4,80.6z M136.9,76.1c2.5,0,4.5,2,4.5,4.5
          s-2,4.5-4.5,4.5s-4.5-2-4.5-4.5S134.4,76.1,136.9,76.1z M132.8,71c-2.7,1.1-4.8,3.4-5.8,6.1h-18.6c0-2.1-0.2-4.2-0.4-6.2
          c5.3-2.2,9-7.5,9-13.5c0-8.1-6.6-14.7-14.7-14.7c-0.7,0-1.3,0.1-2,0.2c-2.5-5.3-5.2-9.8-7.5-13.2C113,34.2,128.8,50.5,132.8,71z
          M102.3,50.6c3.7,0,6.7,3,6.7,6.7s-3,6.7-6.7,6.7s-6.7-3-6.7-6.7S98.6,50.6,102.3,50.6z M81,28.2c0.7,0,1.3,0,1.9,0
          c2.3,2.8,6.8,8.7,10.8,17.1c-3.7,2.7-6.2,7-6.2,12c0,7.7,6,14.1,13.6,14.7c0.2,1.7,0.3,3.4,0.3,5.1H75c-1.4-7-6.6-12.6-13.3-14.6
          c4-17.5,13.1-29.8,16.8-34.2C79.3,28.2,80.2,28.2,81,28.2z M56.1,91.2c-5.7,0-10.3-4.6-10.3-10.3c0-5.7,4.6-10.3,10.3-10.3
          c5.7,0,10.3,4.6,10.3,10.3C66.4,86.6,61.8,91.2,56.1,91.2z M68.5,29.7c-4.8,6.9-10.9,17.9-13.9,32c-8.7,0.7-15.7,7-17.4,15.4h-8.8
          C30.1,54,46.6,35,68.5,29.7z M28.3,84.1h8.8c1.5,8.8,8.8,15.6,17.9,16.1c2.1,9.2,6.2,20.6,14,32.2C46.6,127.1,29.7,107.7,28.3,84.1z
          M81,133.8c-0.8,0-1.6,0-2.4-0.1c-9.5-12.2-14.2-24.7-16.5-34.5c6.8-2.2,11.9-8,13.1-15.2h26.4c-0.2,8-2.5,29.2-19.9,49.7
          C81.4,133.8,81.2,133.8,81,133.8z M91.4,132.8c15-20.5,17-40.4,17.2-48.7H127c1,2.8,3.2,5.1,5.9,6.2
          C129.1,111.6,112.5,128.5,91.4,132.8z"/>
</g>
</svg>
