<?xml version="1.0" encoding="utf-8"?>
<!-- Generator: Adobe Illustrator 24.0.2, SVG Export Plug-In . SVG Version: 6.00 Build 0)  -->
<svg version="1.1" id="Layer_1" xmlns="http://www.w3.org/2000/svg" xmlns:xlink="http://www.w3.org/1999/xlink" x="0px" y="0px"
	 viewBox="0 0 42.93 42" style="enable-background:new 0 0 42.93 42;" xml:space="preserve">
<style type="text/css">
	.st0{fill:#FFFFFF;}
	.st1{fill:#BB501C;}
</style>
<g>
	<g>
		<g>
			<path class="st0" d="M25.54,41.5c-2.06,0-3.74-1.68-3.74-3.74c0-1.2,0.58-2.32,1.54-3.02l-0.5-1.79c-0.79,0.14-1.6,0.22-2.4,0.22
				c-4.1,0-7.89-1.82-10.46-5l-0.84,0.56c0.09,0.32,0.13,0.65,0.13,0.98c0,2.11-1.72,3.83-3.83,3.83s-3.83-1.72-3.83-3.83
				c0-2.11,1.72-3.83,3.83-3.83c0.85,0,1.66,0.28,2.33,0.79l0.84-0.56c-1.06-1.96-1.62-4.17-1.62-6.4c0-0.94,0.1-1.88,0.29-2.8
				l-1.46-0.45c-0.53,0.56-1.27,0.88-2.04,0.88c-1.55,0-2.81-1.26-2.81-2.81c0-1.55,1.26-2.82,2.81-2.82c1.39,0,2.57,1.04,2.78,2.38
				l1.46,0.45c0.47-1.13,1.09-2.19,1.86-3.16l-1.17-1.11c-0.86,0.56-1.85,0.86-2.89,0.86c-2.93,0-5.31-2.38-5.31-5.32
				S2.88,0.5,5.82,0.5c2.93,0,5.31,2.38,5.31,5.31c0,0.94-0.25,1.85-0.71,2.66l1.17,1.11c2.46-2.16,5.59-3.34,8.86-3.34
				c2.87,0,5.6,0.89,7.91,2.58l0.76-0.87c-0.31-0.57-0.47-1.21-0.47-1.86c0-2.17,1.76-3.93,3.93-3.93c2.17,0,3.93,1.76,3.93,3.93
				s-1.76,3.93-3.93,3.93c-0.57,0-1.13-0.13-1.65-0.37l-0.71,0.8c2.38,2.51,3.69,5.78,3.69,9.25c0,1.13-0.14,2.25-0.42,3.35
				l1.23,0.44c0.81-1.07,2.06-1.7,3.41-1.7c2.37,0,4.3,1.93,4.3,4.3s-1.93,4.3-4.3,4.3s-4.3-1.93-4.3-4.3c0-0.09,0-0.18,0.01-0.28
				l-1.2-0.43c-1.48,3.17-4.15,5.65-7.41,6.89l0.48,1.74c1.98,0.09,3.56,1.73,3.56,3.74C29.28,39.82,27.6,41.5,25.54,41.5z"/>
			<path class="st0" d="M5.81,1c2.65,0,4.81,2.16,4.81,4.81c0,1.02-0.32,1.96-0.86,2.74l1.8,1.71c2.32-2.18,5.44-3.52,8.87-3.52
				c3.01,0,5.78,1.03,7.98,2.76l1.31-1.49c-0.37-0.55-0.59-1.21-0.59-1.91c0-1.89,1.54-3.43,3.43-3.43C34.46,2.67,36,4.2,36,6.09
				c0,1.89-1.54,3.43-3.43,3.43c-0.65,0-1.25-0.18-1.76-0.49l-1.27,1.45c2.39,2.35,3.87,5.62,3.87,9.23c0,1.27-0.19,2.5-0.53,3.66
				l2.03,0.73c0.67-1.08,1.86-1.8,3.22-1.8c2.09,0,3.8,1.7,3.8,3.8c0,2.09-1.7,3.8-3.8,3.8s-3.8-1.7-3.8-3.8
				c0-0.21,0.02-0.41,0.05-0.61l-2.01-0.72c-1.43,3.37-4.26,6.01-7.75,7.21l0.71,2.56c0.07,0,0.13-0.01,0.2-0.01
				c1.79,0,3.24,1.45,3.24,3.24c0,1.79-1.45,3.24-3.24,3.24s-3.24-1.45-3.24-3.24c0-1.2,0.66-2.24,1.62-2.8l-0.72-2.59
				c-0.89,0.19-1.81,0.3-2.76,0.3c-4.23,0-7.98-2.03-10.35-5.17l-1.54,1.02c0.14,0.37,0.22,0.77,0.22,1.18
				c0,1.84-1.5,3.33-3.33,3.33c-1.84,0-3.33-1.5-3.33-3.33c0-1.84,1.5-3.33,3.33-3.33c0.89,0,1.69,0.35,2.29,0.92l1.54-1.02
				c-1.13-1.93-1.79-4.17-1.79-6.56c0-1.08,0.14-2.13,0.39-3.14l-2.22-0.69c-0.42,0.58-1.1,0.96-1.87,0.96
				c-1.28,0-2.31-1.04-2.31-2.31c0-1.28,1.04-2.31,2.31-2.31c1.26,0,2.28,1.01,2.31,2.26l2.22,0.69c0.53-1.4,1.29-2.69,2.25-3.82
				l-1.8-1.71c-0.81,0.63-1.83,1-2.94,1C3.16,10.63,1,8.47,1,5.81C1,3.16,3.16,1,5.81,1 M5.81,0C2.61,0,0,2.61,0,5.81
				c0,2.44,1.51,4.53,3.64,5.39c-1.76,0.07-3.17,1.53-3.17,3.31c0,1.83,1.49,3.31,3.31,3.31c0.8,0,1.57-0.3,2.17-0.82l0.75,0.23
				c-0.14,0.81-0.22,1.63-0.22,2.45c0,2.17,0.51,4.3,1.47,6.23l-0.18,0.12c-0.69-0.45-1.5-0.69-2.33-0.69
				c-2.39,0-4.33,1.94-4.33,4.33s1.94,4.33,4.33,4.33s4.33-1.94,4.33-4.33c0-0.25-0.02-0.5-0.07-0.75l0.18-0.12
				c2.66,3.08,6.46,4.83,10.56,4.83c0.68,0,1.36-0.05,2.04-0.15l0.29,1.04c-0.92,0.8-1.47,1.97-1.47,3.21c0,2.34,1.9,4.24,4.24,4.24
				s4.24-1.9,4.24-4.24c0-2.14-1.6-3.92-3.67-4.2l-0.27-0.98c3.05-1.28,5.56-3.62,7.06-6.57l0.43,0.16c0.04,2.61,2.18,4.72,4.8,4.72
				c2.64,0,4.8-2.15,4.8-4.8c0-2.64-2.15-4.8-4.8-4.8c-1.39,0-2.67,0.59-3.58,1.61l-0.48-0.17c0.22-1,0.33-2.01,0.33-3.03
				c0-3.45-1.24-6.7-3.52-9.25l0.17-0.2c0.48,0.18,0.99,0.27,1.51,0.27c2.44,0,4.43-1.99,4.43-4.43s-1.99-4.43-4.43-4.43
				c-2.44,0-4.43,1.99-4.43,4.43c0,0.62,0.13,1.22,0.37,1.78l-0.25,0.28c-2.32-1.58-5-2.41-7.83-2.41c-3.24,0-6.35,1.12-8.84,3.17
				l-0.57-0.54c0.39-0.79,0.59-1.66,0.59-2.56C11.63,2.61,9.02,0,5.81,0L5.81,0z M5.81,11.63c1,0,1.96-0.25,2.82-0.73l0.56,0.54
				c-0.58,0.78-1.07,1.61-1.47,2.49l-0.75-0.23c-0.23-0.89-0.83-1.64-1.63-2.08C5.51,11.62,5.66,11.63,5.81,11.63L5.81,11.63z"/>
		</g>
		<g>
			<path style="fill:#BB501C;" d="M38.13,22.3c-1.36,0-2.55,0.72-3.22,1.8l-2.03-0.73c0.34-1.16,0.53-2.39,0.53-3.66
				c0-3.61-1.48-6.88-3.87-9.23l1.27-1.45c0.52,0.31,1.12,0.49,1.76,0.49c1.89,0,3.43-1.54,3.43-3.43s-1.54-3.43-3.43-3.43
				c-1.89,0-3.43,1.54-3.43,3.43c0,0.71,0.22,1.37,0.59,1.91L28.42,9.5c-2.2-1.73-4.97-2.76-7.98-2.76c-3.43,0-6.55,1.34-8.87,3.52
				l-1.8-1.71c0.54-0.78,0.86-1.72,0.86-2.74C10.63,3.16,8.47,1,5.81,1S1,3.16,1,5.81s2.16,4.81,4.81,4.81c1.11,0,2.12-0.38,2.94-1
				l1.8,1.71c-0.95,1.12-1.72,2.41-2.25,3.82l-2.22-0.69c-0.03-1.25-1.05-2.26-2.31-2.26c-1.28,0-2.31,1.04-2.31,2.31
				s1.04,2.31,2.31,2.31c0.77,0,1.45-0.38,1.87-0.96l2.22,0.69c-0.25,1.01-0.39,2.06-0.39,3.14c0,2.39,0.65,4.63,1.79,6.56
				l-1.54,1.02c-0.6-0.57-1.4-0.92-2.29-0.92c-1.84,0-3.33,1.5-3.33,3.33c0,1.84,1.5,3.33,3.33,3.33s3.33-1.5,3.33-3.33
				c0-0.42-0.08-0.82-0.22-1.18l1.54-1.02c2.37,3.14,6.13,5.17,10.35,5.17c0.95,0,1.87-0.1,2.76-0.3l0.72,2.59
				c-0.97,0.56-1.62,1.61-1.62,2.8c0,1.79,1.45,3.24,3.24,3.24c1.79,0,3.24-1.45,3.24-3.24c0-1.79-1.45-3.24-3.24-3.24
				c-0.07,0-0.13,0.01-0.2,0.01l-0.71-2.56c3.49-1.19,6.32-3.84,7.75-7.21l2.01,0.72c-0.03,0.2-0.05,0.4-0.05,0.61
				c0,2.09,1.7,3.8,3.8,3.8c2.09,0,3.8-1.7,3.8-3.8S40.22,22.3,38.13,22.3z M30.63,6.09c0-1.07,0.87-1.94,1.94-1.94
				c1.07,0,1.94,0.87,1.94,1.94s-0.87,1.94-1.94,1.94C31.5,8.04,30.63,7.16,30.63,6.09z M4.61,14.52c0,0.46-0.37,0.83-0.83,0.83
				c-0.46,0-0.83-0.37-0.83-0.83s0.37-0.83,0.83-0.83C4.24,13.69,4.61,14.06,4.61,14.52z M7.3,29.7c0,1.02-0.83,1.85-1.85,1.85
				s-1.85-0.83-1.85-1.85s0.83-1.85,1.85-1.85S7.3,28.68,7.3,29.7z M27.3,37.76c0,0.97-0.79,1.76-1.76,1.76
				c-0.97,0-1.76-0.79-1.76-1.76c0-0.97,0.79-1.76,1.76-1.76C26.51,36,27.3,36.79,27.3,37.76z M8.99,20.44h5.36
				c0.15,3.88,1.51,7.53,3.9,10.53C13.2,29.99,9.33,25.69,8.99,20.44z M18.25,8.43c-2.39,3-3.75,6.65-3.9,10.53H8.99
				C9.33,13.71,13.2,9.41,18.25,8.43z M31.9,18.96h-5.36c-0.15-3.88-1.51-7.53-3.9-10.53C27.69,9.41,31.56,13.71,31.9,18.96z
				 M15.83,18.96c0.17-4.05,1.78-7.81,4.57-10.74c0.01,0,0.03,0,0.04,0c0.01,0,0.03,0,0.04,0c2.79,2.93,4.39,6.69,4.57,10.74H15.83z
				 M15.83,20.44h9.22c-0.17,4.04-1.78,7.81-4.57,10.74c-0.01,0-0.03,0-0.04,0c-0.01,0-0.03,0-0.04,0
				C17.61,28.25,16.01,24.49,15.83,20.44z M26.54,20.44h5.36c-0.34,5.25-4.21,9.55-9.26,10.53C25.03,27.97,26.39,24.33,26.54,20.44z
				 M5.81,9.15c-1.84,0-3.33-1.5-3.33-3.33s1.5-3.33,3.33-3.33s3.33,1.5,3.33,3.33S7.65,9.15,5.81,9.15z M38.13,28.41
				c-1.28,0-2.31-1.04-2.31-2.31c0-1.28,1.04-2.31,2.31-2.31s2.31,1.04,2.31,2.31C40.44,27.37,39.41,28.41,38.13,28.41z"/>
		</g>
	</g>
</g>
</svg>
