<?xml version="1.0" encoding="utf-8"?>
<!DOCTYPE svg PUBLIC "-//W3C//DTD SVG 1.1//EN" "http://www.w3.org/Graphics/SVG/1.1/DTD/svg11.dtd">
<svg version="1.1" id="Icons" xmlns="http://www.w3.org/2000/svg" x="0px" y="0px" viewBox="0 0 288 288">
	<style type="text/css">
		.svg-red{fill:#F80000;}
	</style>
	<g transform="translate(-140, -140) scale(2, 2)">
		<path     class="svg-red" d="M124.1,148.1 c0.0,-1.3,-1.1,-2.4,-2.4,-2.4 H78.0 c-1.3,0.0,-2.4,1.1,-2.4,2.4 v13.6 h48.6 V148.1 z M117.3,156.5 c-1.4,0.0,-2.6,-1.2,-2.6,-2.6 c0.0,-1.4,1.2,-2.6,2.6,-2.6 c1.4,0.0,2.6,1.2,2.6,2.6 C119.9,155.4,118.8,156.5,117.3,156.5 z"/>
		<path     class="svg-red" d="M75.6,166.3 v16.0 h48.6 v-16.0 H75.6 z M117.3,177.2 c-1.4,0.0,-2.6,-1.2,-2.6,-2.6 c0.0,-1.4,1.2,-2.6,2.6,-2.6 c1.4,0.0,2.6,1.2,2.6,2.6 C119.9,176.1,118.8,177.2,117.3,177.2 z"/>
		<path     class="svg-red" d="M75.6,200.5 c0.0,1.3,1.1,2.4,2.4,2.4 h43.7 c1.3,0.0,2.4,-1.1,2.4,-2.4 v-13.6 H75.6 V200.5 z M117.3,192.1 c1.4,0.0,2.6,1.2,2.6,2.6 c0.0,1.4,-1.2,2.6,-2.6,2.6 c-1.4,0.0,-2.6,-1.2,-2.6,-2.6 C114.7,193.3,115.9,192.1,117.3,192.1 z"/>
		<path     class="svg-red" d="M199.5,99.6 c-0.4,0.0,-0.8,0.0,-1.2,0.1 c-1.6,-5.2,-6.5,-9.0,-12.3,-9.0 c-1.5,0.0,-2.9,0.3,-4.2,0.7 c-2.6,-3.8,-7.0,-6.3,-12.0,-6.3 c-6.9,0.0,-12.7,4.8,-14.2,11.2 c-0.1,0.0,-0.3,0.0,-0.4,0.0 c-8.0,0.0,-14.6,6.5,-14.6,14.6 c0.0,8.0,6.5,14.6,14.6,14.6 h44.3 c7.1,0.0,12.9,-5.8,12.9,-12.9 C212.4,105.4,206.6,99.6,199.5,99.6 z"/>
		<path     class="svg-red" d="M128.1,147.2 l-3.4,-4.0 l3.2,-2.7 l3.4,4.0 L128.1,147.2 z M134.5,141.8 l-3.4,-4.0 l3.2,-2.7 l3.4,4.0 L134.5,141.8 z M140.8,136.5 l-3.4,-4.0 l3.2,-2.7 l3.4,4.0 L140.8,136.5 z M147.2,131.1 l-3.4,-4.0 l3.2,-2.7 l3.4,4.0 L147.2,131.1 z"/>
	</g>
</svg>
