<?xml version="1.0" encoding="utf-8"?>
<!-- Generator: Adobe Illustrator 24.1.0, SVG Export Plug-In . SVG Version: 6.00 Build 0)  -->
<svg version="1.1" id="Load_Balancer" xmlns="http://www.w3.org/2000/svg" xmlns:xlink="http://www.w3.org/1999/xlink" x="0px"
	 y="0px" viewBox="0 0 161.9 162" enable-background="new 0 0 161.9 162" xml:space="preserve">
	<g>
<path fill="#312D2A" d="M122.5,112.8L92.6,84.7h36.2v6.6l18-9.9l-18-9.9v5.2H92.3l30.2-28.4l4.1,4.4l6.3-19.6L113,38.2l4,4.2
	L88,69.7V30.6H28.8v46.1H11.1v8h17.7v46.9H88V91.3l29,27.3l-4,4.2l19.9,5.1l-6.3-19.6L122.5,112.8z M79,122.5H37.8V84.7h22.7v6.6
	l18-9.9l-18-9.9v5.2H37.8V39.6H79V122.5z"/>
	</g>
</svg>
