<?xml version="1.0" encoding="utf-8"?>
<!-- Generator: Adobe Illustrator 21.0.0, SVG Export Plug-In . SVG Version: 6.00 Build 0)  -->
<!DOCTYPE svg PUBLIC "-//W3C//DTD SVG 1.1//EN" "http://www.w3.org/Graphics/SVG/1.1/DTD/svg11.dtd">
<svg version="1.1" id="Icons" xmlns="http://www.w3.org/2000/svg" x="0px" y="0px"
     viewBox="0 0 288 288" style="enable-background:new 0 0 288 288;" xml:space="preserve">
<style type="text/css">
	.icon-colour-01{fill:#F80000;}
</style>
<g transform="translate(-140, -140) scale(2, 2)">
	<g>
		<path class="icon-colour-01" d="M144,85.5l-43.8,18.8v41.8v0.1c1.3,23.2,18.4,43.6,43.8,56.3c25.5-12.7,42.5-33.1,43.8-56.3v-0.1v-41.8L144,85.5z M151.3,161.8h-31.5v-4.3h31.5V161.8z M151.3,144.7h-31.5v-4.3h31.5V144.7z M151.3,126.6h-31.5v-4.3h31.5V126.6zM170.4,155.8l-7.7,7.7l-4.9-4.9c-0.6-0.6-0.6-1.5,0-2c0.6-0.6,1.5-0.6,2,0l2.8,2.8l5.6-5.6c0.6-0.6,1.5-0.6,2,0C171,154.3,171,155.2,170.4,155.8z M159.4,138.6c-0.6-0.6-0.6-1.5,0-2c0.6-0.6,1.5-0.6,2,0l3,3l3-3c0.6-0.6,1.5-0.6,2,0c0.6,0.6,0.6,1.5,0,2l-3,3l3,3c0.6,0.6,0.6,1.5,0,2c-0.3,0.3-0.6,0.4-1,0.4c-0.4,0-0.7-0.1-1-0.4l-3-3l-3,3c-0.3,0.3-0.6,0.4-1,0.4c-0.4,0-0.7-0.1-1-0.4c-0.6-0.6-0.6-1.5,0-2l3-3L159.4,138.6z M170.7,121.9l-7.7,7.7l-4.9-4.9c-0.6-0.6-0.6-1.5,0-2c0.6-0.6,1.5-0.6,2,0l2.8,2.8l5.6-5.6c0.6-0.6,1.5-0.6,2,0C171.2,120.4,171.2,121.3,170.7,121.9z"/>
	</g>
</g>
</svg>
