<?xml version="1.0" encoding="utf-8"?>
<!-- Generator: Adobe Illustrator 21.0.0, SVG Export Plug-In . SVG Version: 6.00 Build 0)  -->
<!DOCTYPE svg PUBLIC "-//W3C//DTD SVG 1.1//EN" "http://www.w3.org/Graphics/SVG/1.1/DTD/svg11.dtd">
<svg version="1.1" id="Icons" xmlns="http://www.w3.org/2000/svg" x="0px" y="0px"
     viewBox="0 0 288 288" style="enable-background:new 0 0 288 288;" xml:space="preserve">
<style type="text/css">
	.svg-blue{fill:#0066cc;}
</style>
<g transform="translate(-140, -140) scale(2, 2)">
	<circle class="svg-blue" cx="173" cy="171.9" r="3.8"/>
	<path class="svg-blue" d="M194.6,81.8H93.4c-3.5,0-6.3,2.8-6.3,6.3v111.8c0,3.5,2.8,6.3,6.3,6.3h101.1c3.5,0,6.3-2.8,6.3-6.3V88.1C200.9,84.7,198,81.8,194.6,81.8z M132.4,114.5v-0.8v-6.6c0-1.5,1.2-2.7,2.7-2.7h17.8c1.5,0,2.7,1.2,2.7,2.7v6.6v0.8v10.7c0,1.5-1.2,2.7-2.7,2.7h-17.8c-1.5,0-2.7-1.2-2.7-2.7V114.5z M132.4,142.6v-0.8v-6.6c0-1.5,1.2-2.7,2.7-2.7h17.8c1.5,0,2.7,1.2,2.7,2.7v6.6v0.8v10.7c0,1.5-1.2,2.7-2.7,2.7h-17.8c-1.5,0-2.7-1.2-2.7-2.7V142.6z M105.1,114.5v-0.8v-6.6c0-1.5,1.2-2.7,2.7-2.7h17.8c1.5,0,2.7,1.2,2.7,2.7v6.6v0.8v10.7c0,1.5-1.2,2.7-2.7,2.7h-17.8c-1.5,0-2.7-1.2-2.7-2.7V114.5zM105.1,142.6v-0.8v-6.6c0-1.5,1.2-2.7,2.7-2.7h17.8c1.5,0,2.7,1.2,2.7,2.7v6.6v0.8v10.7c0,1.5-1.2,2.7-2.7,2.7h-17.8c-1.5,0-2.7-1.2-2.7-2.7V142.6z M182.9,180.2c0,1.9-1.6,3.5-3.5,3.5h-70.7c-1.9,0-3.5-1.6-3.5-3.5v-19.6h77.8V180.2z M182.9,141.8v0.8v10.7c0,1.5-1.2,2.7-2.7,2.7h-17.8c-1.5,0-2.7-1.2-2.7-2.7v-10.7v-0.8v-6.6c0-1.5,1.2-2.7,2.7-2.7h17.8c1.5,0,2.7,1.2,2.7,2.7V141.8z M182.9,113.8v0.8v10.7c0,1.5-1.2,2.7-2.7,2.7h-17.8c-1.5,0-2.7-1.2-2.7-2.7v-10.7v-0.8v-6.6c0-1.5,1.2-2.7,2.7-2.7h17.8c1.5,0,2.7,1.2,2.7,2.7V113.8z"/>
</g>
</svg>
