<?xml version="1.0" encoding="utf-8"?>
<!-- Generator: Adobe Illustrator 24.1.0, SVG Export Plug-In . SVG Version: 6.00 Build 0)  -->
<svg version="1.1" id="OKE_ALT2" xmlns="http://www.w3.org/2000/svg" xmlns:xlink="http://www.w3.org/1999/xlink" x="0px" y="0px"
	 viewBox="0 0 161.9 162" enable-background="new 0 0 161.9 162" xml:space="preserve">
<g>
<path fill="#0066cc" d="M33.9,96.3c0,0.4,2.5,38.3,46.8,38.3c0,0,0.1,0,0.1,0c40.1,0,47.2-36.6,47.3-37l0.7-3.8l-2.5-0.8V60.5h-13.7
	V33H84.9h-7.8H49.3v27.6H35.8v31.6l-2.1,0.7L33.9,96.3z M43.4,99.1l33.8-11.2v37.6C51.3,124,44.9,106.6,43.4,99.1z M90.8,80.7
	l-10-3.5l-9.4,3.1V68.5h5.7h7.8h5.9V80.7z M84.1,125.5V87.9l34.1,11.7C115.7,107.3,107.4,124,84.1,125.5z M118.3,68.5v21.6
	l-19.6-6.7V68.5h13.9H118.3z M85.1,41h19.6v19.6h-5.9h-8h-5.7V41z M57.3,41h19.6v19.6h-5.5h-8.2h-5.9V41z M43.8,68.5h5.5h13.9V83
	l-19.4,6.4V68.5z M9,9.2v143.6h143.8V9.2H9z M143.8,143.9H18V18.2h125.8V143.9z"/>
</g>
</svg>
