<?xml version="1.0" encoding="utf-8"?>
<!-- Generator: Adobe Illustrator 24.0.2, SVG Export Plug-In . SVG Version: 6.00 Build 0)  -->
<svg version="1.1" id="Layer_1" xmlns="http://www.w3.org/2000/svg" xmlns:xlink="http://www.w3.org/1999/xlink" x="0px" y="0px"
	 viewBox="0 0 32.3 42.2" style="enable-background:new 0 0 32.3 42.2;" xml:space="preserve">
<g>
	<g>
		<path style="fill:#FFFFFF;" d="M15.8,41.5C8,38.6,4.3,33.6,2.5,29.8c-2-4.3-2-7.9-2-8.1V7.3l15.7-6.7l15.6,6.7v14.5
			c0,0.6-0.2,14.2-15.1,19.7l-0.4,0.2L15.8,41.5z"/>
		<path style="fill:#FFFFFF;" d="M16.2,1.1l15.1,6.5v14.2c0,0.6-0.2,13.8-14.8,19.2l-0.3,0.1L16,41C8.3,38.2,4.7,33.3,3,29.6
			c-1.9-4.1-2-7.7-2-7.8V7.6L16.2,1.1 M16.2,0l-0.4,0.2L0.6,6.7L0,6.9v0.7v14.2c0,0.2,0,3.9,2.1,8.3c1.8,3.8,5.6,9,13.6,11.9
			l0.3,0.1l0.3,0.1l0.3-0.1l0.3-0.1c15.3-5.6,15.5-19.6,15.5-20.2V7.6V6.9l-0.6-0.3L16.6,0.2L16.2,0L16.2,0z"/>
	</g>
	<g>
		<path style="fill:none;" d="M2.5,8.6v13.2c0,0.1,0,3.4,1.8,7.2c2.3,4.9,6.3,8.4,11.9,10.5c13.4-5.1,13.6-17.2,13.6-17.7V8.6
			L16.2,2.7L2.5,8.6z M16.1,28.3H7v-1.5h9.1V28.3z M16.1,21.5H7V20h9.1V21.5z M16.1,14.2H7v-1.5h9.1V14.2z M20.2,12.7l1.2,1.2l3-3
			l1,1l-4,4l-2.2-2.2L20.2,12.7z M24.8,22.2l-1,1l-1.5-1.5l-1.5,1.5l-1-1l1.5-1.5l-1.5-1.5l1-1l1.5,1.5l1.5-1.5l1,1l-1.5,1.5
			L24.8,22.2z M20.2,26.8l1.2,1.2l3-3l1,1l-4,4l-2.2-2.2L20.2,26.8z"/>
		<path style="fill:#BB501C;" d="M16.2,1.1L1,7.6v14.2c0,0.1,0,3.7,2,7.8c1.7,3.7,5.4,8.6,13,11.4l0.3,0.1l0.3-0.1
			c14.6-5.4,14.8-18.7,14.8-19.2V7.6L16.2,1.1z M29.8,21.8c0,0.5-0.2,12.6-13.6,17.7C10.6,37.4,6.6,33.9,4.3,29
			c-1.8-3.9-1.8-7.1-1.8-7.2V8.6l13.7-5.9l13.6,5.9V21.8z"/>
		<rect x="7" y="12.7" style="fill:#BB501C;" width="9.1" height="1.5"/>
		<polygon style="fill:#BB501C;" points="25.4,12 24.3,11 21.4,13.9 20.2,12.7 19.1,13.8 21.4,16 		"/>
		<rect x="7" y="20" style="fill:#BB501C;" width="9.1" height="1.5"/>
		<polygon style="fill:#BB501C;" points="23.8,18.1 22.3,19.7 20.7,18.1 19.7,19.2 21.2,20.7 19.7,22.2 20.7,23.3 22.3,21.8 
			23.8,23.3 24.8,22.2 23.3,20.7 24.8,19.2 		"/>
		<rect x="7" y="26.8" style="fill:#BB501C;" width="9.1" height="1.5"/>
		<polygon style="fill:#BB501C;" points="25.4,26.1 24.3,25.1 21.4,28 20.2,26.8 19.1,27.9 21.4,30.1 		"/>
	</g>
</g>
</svg>
