<svg id="svg4" version="1.1" viewBox="0 0 964.39564 49.999993" width="964.39563" height="49.999992"
    xmlns="http://www.w3.org/2000/svg" xmlns:svg="http://www.w3.org/2000/svg">
    <defs id="defs8" />
    <path
        d="m 343.4411,33.363741 v 4.20168 q -2.10084,1.155462 -4.9895,1.838235 -2.83613,0.630252 -5.77731,0.630252 -8.5084,0 -13.18277,-5.199579 -4.62185,-5.2521 -4.62185,-14.915964 0,-6.039915 2.15336,-10.3466369 2.20589,-4.306722 6.25,-6.617646 4.04412,-2.36344503 9.61135,-2.36344503 2.46848,0 4.98949,0.63025203 2.57353,0.630252 4.20168,1.733193 v 4.20168 q -2.73109,-1.207983 -4.77941,-1.733193 -2.04832,-0.52521 -4.09664,-0.52521 -6.30252,0 -9.82143,3.939075 -3.5189,3.8865539 -3.5189,11.0819309 0,7.615545 3.46638,11.712183 3.51891,4.096638 9.87395,4.096638 4.72689,0 10.2416,-2.363445 z m 17.01675,6.617646 q -6.19747,0 -9.61134,-3.781512 -3.41386,-3.834033 -3.41386,-10.5042 0,-6.722688 3.41386,-10.5042 3.41387,-3.781512 9.61134,-3.781512 6.25,0 9.66387,3.781512 3.41386,3.781512 3.41386,10.5042 0,6.670167 -3.41386,10.5042 -3.41387,3.781512 -9.66387,3.781512 z m 0,-3.886554 q 4.04412,0 6.14496,-2.62605 2.10084,-2.678571 2.10084,-7.773108 0,-5.094537 -2.10084,-7.720587 -2.10084,-2.678571 -6.14496,-2.678571 -3.99159,0 -6.09243,2.678571 -2.10084,2.62605 -2.10084,7.720587 0,5.094537 2.10084,7.773108 2.10084,2.62605 6.09243,2.62605 z m 19.22266,3.308823 V 11.987694 h 3.20378 l 0.84033,4.569327 q 1.52311,-2.363445 3.83404,-3.728991 2.36344,-1.418067 5.14706,-1.418067 6.09243,0 8.24579,5.2521 1.47059,-2.363445 3.93908,-3.781512 2.46848,-1.470588 5.40966,-1.470588 4.46429,0 6.82773,2.836134 2.36345,2.783613 2.36345,8.193276 v 16.964283 h -4.72689 V 22.544415 q 0,-7.090335 -5.51471,-7.090335 -2.67857,0 -4.62185,1.523109 -1.89075,1.470588 -2.67857,4.096638 v 18.329829 h -4.67437 V 22.544415 q 0,-7.090335 -5.67227,-7.090335 -2.57352,0 -4.5168,1.628151 -1.94328,1.57563 -2.67857,4.306722 v 18.014703 z m 47.42646,10.556721 V 11.987694 h 3.20378 l 0.78781,4.411764 q 1.57563,-2.363445 3.9916,-3.67647 2.46849,-1.313025 5.30462,-1.313025 5.46218,0 8.5084,3.781512 3.04622,3.728991 3.04622,10.451679 0,6.775209 -3.09874,10.556721 -3.04622,3.781512 -8.56092,3.781512 -2.31093,0 -4.51681,-0.892857 -2.20588,-0.892857 -3.93907,-2.521008 v 13.392855 z m 12.55252,-34.716381 q -2.46849,0 -4.56933,1.365546 -2.04832,1.313025 -3.2563,3.623949 v 12.184872 q 3.20378,3.728991 7.61554,3.728991 3.72899,0 5.67227,-2.678571 1.9958,-2.678571 1.9958,-7.773108 0,-4.989495 -1.94328,-7.720587 -1.94328,-2.731092 -5.5147,-2.731092 z m 18.17216,13.707981 V 11.987694 h 4.72689 v 16.80672 q 0,3.518907 1.52311,5.409663 1.52311,1.890756 4.46429,1.890756 2.46848,0 4.62184,-1.680672 2.20589,-1.733193 3.30883,-4.569327 v -17.85714 h 4.72689 v 27.415962 h -3.20378 l -0.84034,-4.674369 q -1.68067,2.521008 -4.2542,3.886554 -2.52101,1.365546 -5.51471,1.365546 -4.56932,0 -7.09033,-2.836134 -2.46849,-2.836134 -2.46849,-8.193276 z m 32.14277,2.10084 V 15.874248 h -4.72689 v -2.415966 l 4.72689,-1.57563 1.89075,-7.4579819 h 2.83614 v 7.5630239 h 5.93487 v 3.886554 h -5.93487 v 15.126048 q 0,4.516806 3.88655,4.516806 0.63025,0 1.20799,-0.05252 0.63025,-0.105042 1.15546,-0.157563 v 4.096638 q -0.7353,0.157563 -1.52311,0.210084 -0.7353,0.05252 -1.57563,0.05252 -4.04412,0 -5.9874,-2.10084 -1.89075,-2.10084 -1.89075,-6.512604 z m 37.02725,6.985293 q -1.47059,0.892857 -3.93907,1.418067 -2.41597,0.52521 -5.30462,0.52521 -6.51261,0 -9.87395,-3.67647 -3.30882,-3.728991 -3.30882,-10.871847 0,-6.880251 3.15126,-10.451679 3.20378,-3.571428 9.13865,-3.571428 11.44958,0 11.44958,12.657561 v 3.046218 h -18.96008 q 0.31512,4.621848 2.46848,6.775209 2.15336,2.10084 6.40757,2.10084 2.36344,0 4.46428,-0.472689 2.10084,-0.472689 4.30672,-1.470588 z M 516.86512,15.296517 q -3.46639,0 -5.40966,2.10084 -1.89076,2.048319 -2.10084,5.987394 h 14.39075 q 0,-4.306722 -1.62815,-6.197478 -1.57563,-1.890756 -5.2521,-1.890756 z m 57.66796,18.067224 v 4.20168 q -2.10084,1.155462 -4.9895,1.838235 -2.83613,0.630252 -5.77731,0.630252 -8.5084,0 -13.18277,-5.199579 -4.62185,-5.2521 -4.62185,-14.915964 0,-6.039915 2.15336,-10.3466369 2.20589,-4.306722 6.25,-6.617646 4.04412,-2.36344503 9.61135,-2.36344503 2.46848,0 4.98949,0.63025203 2.57353,0.630252 4.20168,1.733193 v 4.20168 q -2.73109,-1.207983 -4.77941,-1.733193 -2.04832,-0.52521 -4.09664,-0.52521 -6.30252,0 -9.82143,3.939075 -3.5189,3.8865539 -3.5189,11.0819309 0,7.615545 3.46638,11.712183 3.51891,4.096638 9.87395,4.096638 4.72689,0 10.2416,-2.363445 z m 6.24987,6.039915 V 3.6368551 l -2.73109,-1.733193 v -1.94327703 h 7.45798 V 39.403656 Z m 23.89702,0.577731 q -6.19747,0 -9.61134,-3.781512 -3.41386,-3.834033 -3.41386,-10.5042 0,-6.722688 3.41386,-10.5042 3.41387,-3.781512 9.61134,-3.781512 6.25,0 9.66387,3.781512 3.41386,3.781512 3.41386,10.5042 0,6.670167 -3.41386,10.5042 -3.41387,3.781512 -9.66387,3.781512 z m 0,-3.886554 q 4.04412,0 6.14496,-2.62605 2.10084,-2.678571 2.10084,-7.773108 0,-5.094537 -2.10084,-7.720587 -2.10084,-2.678571 -6.14496,-2.678571 -3.99159,0 -6.09243,2.678571 -2.10084,2.62605 -2.10084,7.720587 0,5.094537 2.10084,7.773108 2.10084,2.62605 6.09243,2.62605 z m 18.96006,-7.142856 V 11.987694 h 4.72689 v 16.80672 q 0,3.518907 1.52311,5.409663 1.52311,1.890756 4.46429,1.890756 2.46848,0 4.62184,-1.680672 2.20589,-1.733193 3.30883,-4.569327 v -17.85714 h 4.72689 v 27.415962 h -3.20378 l -0.84034,-4.674369 q -1.68067,2.521008 -4.2542,3.886554 -2.52101,1.365546 -5.51471,1.365546 -4.56932,0 -7.09033,-2.836134 -2.46849,-2.836134 -2.46849,-8.193276 z m 51.15537,10.451679 -0.78781,-4.411764 q -1.57563,2.363445 -4.04412,3.67647 -2.41597,1.313025 -5.2521,1.313025 -5.40966,0 -8.5084,-3.781512 -3.04622,-3.781512 -3.04622,-10.451679 0,-6.775209 3.04622,-10.556721 3.09874,-3.781512 8.61344,-3.781512 2.31092,0 4.51681,0.892857 2.20588,0.892857 3.93907,2.521008 V -0.03961493 h 4.72689 V 39.403656 Z M 657.98868,25.695675 q 0,4.989495 1.94328,7.720587 1.94327,2.731092 5.5147,2.731092 2.46849,0 4.51681,-1.313025 2.10084,-1.365546 3.30882,-3.67647 V 18.972987 q -3.20378,-3.728991 -7.61554,-3.728991 -3.67647,0 -5.67227,2.678571 -1.9958,2.678571 -1.9958,7.773108 z m 51.15534,17.804619 v 4.096638 q -0.68277,0.105042 -1.47059,0.157563 -0.78781,0.105042 -1.89076,0.105042 -6.19747,0 -10.71428,-2.310924 -4.46428,-2.310924 -6.88025,-6.565125 -2.41597,-4.306722 -2.41597,-10.189074 0,-5.357142 1.89076,-9.926469 1.89076,-4.569327 5.30462,-7.930671 3.41387,-3.3613439 8.03571,-5.1995789 4.62185,-1.890756 10.08404,-1.890756 6.03991,0 10.45167,2.153361 4.41177,2.153361 6.77521,6.1449569 2.41597,3.991596 2.41597,9.506301 0,5.199579 -1.89076,9.033612 -1.83823,3.834033 -5.30462,5.934873 -3.46638,2.10084 -8.19327,2.10084 h -2.83614 l -0.21008,-4.254201 q -2.46849,2.310924 -6.14496,2.310924 -3.51891,0 -5.72479,-2.415966 -2.15336,-2.415966 -2.15336,-6.407562 0,-3.781512 1.47059,-6.617646 1.47059,-2.888655 4.04412,-4.516806 2.62605,-1.628151 6.03991,-1.628151 2.36345,0 4.72689,0.735294 2.36345,0.682773 4.2542,2.048319 l -2.83613,17.121846 h 0.2626 q 4.56933,0 7.19538,-3.518907 2.67857,-3.518907 2.67857,-9.558822 0,-6.565125 -3.99159,-10.241595 -3.9916,-3.7289909 -11.13446,-3.7289909 -4.41176,0 -8.14075,1.57563 -3.67647,1.5231089 -6.46008,4.3067219 -2.7311,2.731092 -4.25421,6.512604 -1.5231,3.728991 -1.5231,8.140755 0,7.142856 4.04411,11.081931 4.09664,3.991596 11.39706,3.991596 0.73529,0 1.20798,-0.05252 0.52521,0 1.89076,-0.105042 z m -6.25,-15.651258 q 0,2.521008 1.05042,3.886554 1.10294,1.365546 3.04622,1.365546 3.04622,0 5.35714,-2.258403 l 1.68067,-10.871847 q -1.83823,-0.945378 -4.20168,-0.945378 -3.09874,0 -5.04201,2.468487 -1.89076,2.415966 -1.89076,6.355041 z m 62.97264,5.514705 v 4.20168 q -2.10084,1.155462 -4.98949,1.838235 -2.83614,0.630252 -5.77731,0.630252 -8.5084,0 -13.18277,-5.199579 -4.62185,-5.2521 -4.62185,-14.915964 0,-6.039915 2.15336,-10.3466369 2.20588,-4.306722 6.25,-6.617646 4.04412,-2.36344503 9.61134,-2.36344503 2.46849,0 4.9895,0.63025203 2.57353,0.630252 4.20168,1.733193 v 4.20168 q -2.73109,-1.207983 -4.77941,-1.733193 -2.04832,-0.52521 -4.09664,-0.52521 -6.30252,0 -9.82143,3.939075 -3.51891,3.8865539 -3.51891,11.0819309 0,7.615545 3.46639,11.712183 3.51891,4.096638 9.87395,4.096638 4.72689,0 10.24159,-2.363445 z m 5.46212,-4.411764 V 11.987694 h 4.72689 v 16.80672 q 0,3.518907 1.52311,5.409663 1.52311,1.890756 4.46429,1.890756 2.46848,0 4.62185,-1.680672 2.20588,-1.733193 3.30882,-4.569327 v -17.85714 h 4.72689 v 27.415962 h -3.20378 l -0.84034,-4.674369 q -1.68067,2.521008 -4.2542,3.886554 -2.52101,1.365546 -5.5147,1.365546 -4.56933,0 -7.09034,-2.836134 -2.46849,-2.836134 -2.46849,-8.193276 z m 29.77932,9.086133 v -3.991596 q 2.46849,1.05042 4.46429,1.523109 2.04832,0.472689 4.30672,0.472689 6.82773,0 6.82773,-4.096638 0,-1.628151 -0.9979,-2.521008 -0.9979,-0.945378 -3.5189,-1.628151 l -4.30673,-1.155462 q -3.78151,-1.05042 -5.5147,-2.836134 -1.73319,-1.838235 -1.73319,-4.674369 0,-3.571428 2.78361,-5.619747 2.83613,-2.10084 7.61554,-2.10084 2.62605,0 4.77941,0.420168 2.15337,0.420168 3.729,1.155462 v 3.991596 q -4.04412,-1.628151 -8.19328,-1.628151 -5.98739,0 -5.98739,3.466386 0,1.470588 0.89285,2.363445 0.94538,0.840336 3.2563,1.470588 l 4.35925,1.155462 q 3.99159,1.05042 5.77731,2.941176 1.78571,1.838235 1.78571,4.989495 0,3.834033 -2.9937,6.039915 -2.99369,2.205882 -8.29831,2.205882 -2.52101,0 -4.93698,-0.52521 -2.41596,-0.52521 -4.09664,-1.418067 z m 27.36333,-6.985293 V 15.874248 h -4.72689 v -2.415966 l 4.72689,-1.57563 1.89075,-7.4579819 h 2.83614 v 7.5630239 h 5.93487 v 3.886554 h -5.93487 v 15.126048 q 0,4.516806 3.88655,4.516806 0.63025,0 1.20798,-0.05252 0.63026,-0.105042 1.15547,-0.157563 v 4.096638 q -0.7353,0.157563 -1.52311,0.210084 -0.7353,0.05252 -1.57563,0.05252 -4.04412,0 -5.9874,-2.10084 -1.89075,-2.10084 -1.89075,-6.512604 z m 27.62602,8.92857 q -6.19747,0 -9.61134,-3.781512 -3.41386,-3.834033 -3.41386,-10.5042 0,-6.722688 3.41386,-10.5042 3.41387,-3.781512 9.61134,-3.781512 6.25,0 9.66387,3.781512 3.41386,3.781512 3.41386,10.5042 0,6.670167 -3.41386,10.5042 -3.41387,3.781512 -9.66387,3.781512 z m 0,-3.886554 q 4.04412,0 6.14496,-2.62605 2.10084,-2.678571 2.10084,-7.773108 0,-5.094537 -2.10084,-7.720587 -2.10084,-2.678571 -6.14496,-2.678571 -3.99159,0 -6.09243,2.678571 -2.10084,2.62605 -2.10084,7.720587 0,5.094537 2.10084,7.773108 2.10084,2.62605 6.09243,2.62605 z m 19.22264,3.308823 V 11.987694 h 3.20378 l 0.84033,4.569327 q 1.52311,-2.363445 3.83404,-3.728991 2.36344,-1.418067 5.14705,-1.418067 6.09244,0 8.2458,5.2521 1.47059,-2.363445 3.93908,-3.781512 2.46848,-1.470588 5.40966,-1.470588 4.46428,0 6.82773,2.836134 2.36344,2.783613 2.36344,8.193276 v 16.964283 h -4.72689 V 22.544415 q 0,-7.090335 -5.5147,-7.090335 -2.67857,0 -4.62185,1.523109 -1.89075,1.470588 -2.67857,4.096638 v 18.329829 h -4.67437 V 22.544415 q 0,-7.090335 -5.67227,-7.090335 -2.57353,0 -4.5168,1.628151 -1.94328,1.57563 -2.67857,4.306722 v 18.014703 z m 68.11972,-1.365546 q -1.47058,0.892857 -3.93907,1.418067 -2.41597,0.52521 -5.30462,0.52521 -6.51261,0 -9.87395,-3.67647 -3.30882,-3.728991 -3.30882,-10.871847 0,-6.880251 3.15126,-10.451679 3.20378,-3.571428 9.13865,-3.571428 11.44958,0 11.44958,12.657561 v 3.046218 h -18.96008 q 0.31512,4.621848 2.46848,6.775209 2.15337,2.10084 6.40757,2.10084 2.36344,0 4.46428,-0.472689 2.10084,-0.472689 4.30672,-1.470588 z M 933.30326,15.296517 q -3.46639,0 -5.40966,2.10084 -1.89076,2.048319 -2.10084,5.987394 h 14.39075 q 0,-4.306722 -1.62815,-6.197478 -1.57563,-1.890756 -5.2521,-1.890756 z m 17.43693,24.107139 V 11.987694 h 3.20378 l 0.94538,5.147058 q 2.67857,-5.199579 7.66807,-5.199579 1.05042,0 1.83823,0.157563 v 4.149159 h -1.20798 q -2.9937,0 -4.9895,1.680672 -1.99579,1.680672 -2.73109,4.884453 v 16.596636 z"
        id="text1"
        style="line-height:1.25;-inkscape-font-specification:'Oracle Sans';font-variant-ligatures:normal;font-variant-caps:normal;font-variant-numeric:normal;font-feature-settings:normal;text-align:start;fill:#fcfbfa"
        aria-label="Compute Cloud@Customer" transform="translate(0,0.03961493)" />
    <path id="path2" fill="#c9352f" stroke-width="2.23246"
        d="m 268.64303,32.926355 a 12.30532,12.30532 0 0 1 -11.83651,-8.94547 h 31.22095 l 4.30195,-6.69737 h -35.5229 a 12.28523,12.28523 0 0 1 11.83651,-8.9477001 h 21.43607 l 4.28632,-6.71524 h -26.20907 c -10.48363,0 -18.9893,8.5056701 -18.9893,19.0116301 0,10.49256 8.50567,18.98037 18.9893,18.98037 h 22.54338 l 4.28632,-6.68622 h -26.34302 m -89.33857,6.68622 h 22.54784 l 4.264,-6.68622 h -26.30954 a 12.30085,12.30085 0 0 1 -12.31201,-12.29415 c 0,-6.809 5.49185,-12.2964001 12.31201,-12.2964001 h 21.41822 l 4.31757,-6.71523 h -26.23809 c -10.49926,0 -19.02726,8.5056701 -19.02726,19.0116301 0,10.49256 8.528,18.98037 19.02726,18.98037 M 40.58166,32.926355 H 19.4916 a 12.29862,12.29862 0 0 1 0,-24.5905401 H 40.58164 A 12.27853,12.27853 0 0 1 52.88696,20.632205 12.29862,12.29862 0 0 1 40.58164,32.926355 m -21.57672,6.68622 h 22.08349 a 18.94689,18.94689 0 0 0 18.96251,-18.98037 c 0,-10.50596 -8.45879,-19.0116301 -18.96251,-19.0116301 H 19.00491 C 8.51238,1.6205749 0,10.126245 0,20.632205 c 0,10.49256 8.51237,18.98037 19.00493,18.98037 m 76.906,-12.30086 A 12.82548,12.82548 0 0 0 108.74311,14.463915 12.82101,12.82101 0 0 0 95.91093,1.6205749 H 63.94657 V 39.612575 h 7.30684 V 8.3358149 h 24.17307 a 6.13257,6.13257 0 0 1 6.1415,6.1281001 6.17052,6.17052 0 0 1 -6.1415,6.16829 l -20.60113,-0.01786 21.82005,18.99823 h 10.59972 L 92.58903,27.311715 h 3.3219 m 120.85197,5.59232 V 1.6205749 h -7.32024 V 35.978125 c 0,0.93764 0.39515,1.85518 1.08274,2.51822 0.69653,0.72108 1.65649,1.11623 2.6611,1.11623 h 33.28597 l 4.33544,-6.70854 H 216.7629 m -89.41447,-6.68622 h 19.48713 l -10.29833,-16.6139601 -18.9,30.0087201 H 109.0043 L 132.0165,3.5985349 a 5.40925,5.40925 0 0 1 4.50957,-2.34408 c 1.80382,0 3.46031,0.85503 4.44259,2.2771 l 23.0814,36.0810201 h -8.6106 l -4.05861,-6.70854 h -19.73048 l -4.30194,-6.68622" />
</svg>