<svg width="44" height="44" viewBox="0 0 44 44" fill="none" xmlns="http://www.w3.org/2000/svg">
    <path fill-rule="evenodd" clip-rule="evenodd"
        d="M43.1176 20.0158L23.9303 0.828946C22.8255 -0.276315 21.0334 -0.276315 19.9277 0.828946L15.9438 4.81382L20.9976 9.86808C22.1722 9.47112 23.519 9.73751 24.4554 10.6735C25.3966 11.6156 25.6606 12.9739 25.2536 14.1528L30.1252 19.0239C31.3041 18.6174 32.6633 18.8799 33.6045 19.8231C34.9197 21.1378 34.9197 23.2694 33.6045 24.5851C32.2884 25.9013 30.1572 25.9013 28.8406 24.5851C27.8515 23.5951 27.6067 22.1412 28.1084 20.9226L23.5649 16.3796V28.3347C23.8853 28.4935 24.188 28.7049 24.4554 28.9713C25.7706 30.2865 25.7706 32.4176 24.4554 33.7347C23.1402 35.0495 21.0076 35.0495 19.6929 33.7347C18.3777 32.4176 18.3777 30.2865 19.6929 28.9713C20.0181 28.6465 20.3945 28.4007 20.7962 28.2362V16.1706C20.3945 16.0066 20.019 15.7626 19.6929 15.436C18.6967 14.4403 18.457 12.9777 18.9683 11.7543L13.9858 6.77134L0.828831 19.9269C-0.275952 21.0331 -0.275952 22.8251 0.828831 23.9304L20.0171 43.1172C21.1219 44.222 22.9135 44.222 24.0197 43.1172L43.1176 24.0193C44.2234 22.9141 44.2234 21.1211 43.1176 20.0158Z"
        fill="#161513" />
</svg>