<?xml version="1.0" encoding="UTF-8" standalone="no"?>
<svg
   xmlns:dc="http://purl.org/dc/elements/1.1/"
   xmlns:cc="http://creativecommons.org/ns#"
   xmlns:rdf="http://www.w3.org/1999/02/22-rdf-syntax-ns#"
   xmlns:svg="http://www.w3.org/2000/svg"
   xmlns="http://www.w3.org/2000/svg"
   xmlns:sodipodi="http://sodipodi.sourceforge.net/DTD/sodipodi-0.dtd"
   xmlns:inkscape="http://www.inkscape.org/namespaces/inkscape"
   width="32"
   height="21"
   viewBox="0 0 32 21"
   version="1.1"
   id="svg14"
   sodipodi:docname="okit.svg"
   inkscape:version="1.0.1 (c497b03c, 2020-09-10)">
  <metadata
     id="metadata20">
    <rdf:RDF>
      <cc:Work
         rdf:about="">
        <dc:format>image/svg+xml</dc:format>
        <dc:type
           rdf:resource="http://purl.org/dc/dcmitype/StillImage" />
        <dc:title></dc:title>
      </cc:Work>
    </rdf:RDF>
  </metadata>
  <defs
     id="defs18" />
  <sodipodi:namedview
     pagecolor="#ffffff"
     bordercolor="#666666"
     borderopacity="1"
     objecttolerance="10"
     gridtolerance="10"
     guidetolerance="10"
     inkscape:pageopacity="0"
     inkscape:pageshadow="2"
     inkscape:window-width="2030"
     inkscape:window-height="1260"
     id="namedview16"
     showgrid="false"
     inkscape:zoom="35.25"
     inkscape:cx="22.411347"
     inkscape:cy="9.5496454"
     inkscape:window-x="400"
     inkscape:window-y="152"
     inkscape:window-maximized="0"
     inkscape:current-layer="svg14"
     inkscape:document-rotation="0" />
  <g
     fill="#e55844"
     id="g12">
    <path
       d="M 9.9,20.1 C 4.4,20.1 0,15.7 0,10.2 0,4.7 4.4,0.3 9.9,0.3 h 11.6 c 5.5,0 9.9,4.4 9.9,9.9 0,5.5 -4.4,9.9 -9.9,9.9 H 9.9 m 11.3,-3.5 c 3.6,0 6.4,-2.9 6.4,-6.4 0,-3.6 -2.9,-6.4 -6.4,-6.4 h -11 c -3.6,0 -6.4,2.9 -6.4,6.4 0,3.5 2.9,6.4 6.4,6.4 h 11"
       id="path10" />
  </g>
  <text
     xml:space="preserve"
     style="font-size:12.1527px;line-height:1.25;font-family:Promethean;-inkscape-font-specification:Promethean;stroke-width:1.13931"
     x="4.5616312"
     y="12.933181"
     id="text24"
     transform="scale(0.97831467,1.022166)"><tspan
       sodipodi:role="line"
       id="tspan22"
       x="4.5616312"
       y="12.933181"
       style="stroke-width:1.13931">KIT</tspan></text>
</svg>
