<svg xmlns="http://www.w3.org/2000/svg" id="svg4" version="1.1" viewBox="0 0 872.40131 50"><defs id="defs8"/><path id="path2" fill="#c9352f" stroke-width="2.23246" d="M268.64303 32.88674a12.30532 12.30532 0 01-11.83651-8.94547h31.22095l4.30195-6.69737h-35.5229a12.28523 12.28523 0 0111.83651-8.9477h21.43607l4.28632-6.71524h-26.20907c-10.48363 0-18.9893 8.50567-18.9893 19.01163 0 10.49256 8.50567 18.98037 18.9893 18.98037h22.54338l4.28632-6.68622h-26.34302m-89.33857 6.68622h22.54784l4.264-6.68622h-26.30954a12.30085 12.30085 0 01-12.31201-12.29415c0-6.809 5.49185-12.2964 12.31201-12.2964h21.41822l4.31757-6.71523h-26.23809c-10.49926 0-19.02726 8.50567-19.02726 19.01163 0 10.49256 8.528 18.98037 19.02726 18.98037m-138.7228-6.68622H19.4916a12.29862 12.29862 0 010-24.59054h21.09004a12.27853 12.27853 0 0112.30532 12.29639 12.29862 12.29862 0 01-12.30532 12.29415m-21.57672 6.68622h22.08349a18.94689 18.94689 0 0018.96251-18.98037c0-10.50596-8.45879-19.01163-18.96251-19.01163h-22.0835C8.51238 1.58096 0 10.08663 0 20.59259c0 10.49256 8.51237 18.98037 19.00493 18.98037m76.906-12.30086a12.82548 12.82548 0 0012.83218-12.8478A12.82101 12.82101 0 0095.91093 1.58096H63.94657v37.992h7.30684V8.2962h24.17307a6.13257 6.13257 0 016.1415 6.1281 6.17052 6.17052 0 01-6.1415 6.16829l-20.60113-.01786L96.6454 39.57296h10.59972L92.58903 27.2721h3.3219m120.85197 5.59232V1.58096h-7.32024v34.35755c0 .93764.39515 1.85518 1.08274 2.51822.69653.72108 1.65649 1.11623 2.6611 1.11623h33.28597l4.33544-6.70854H216.7629m-89.41447-6.68622h19.48713L136.53723 9.56424l-18.9 30.00872h-8.63293l23.0122-36.01404a5.40925 5.40925 0 014.50957-2.34408c1.80382 0 3.46031.85503 4.44259 2.2771l23.0814 36.08102h-8.6106l-4.05861-6.70854h-19.73048l-4.30194-6.68622"/><g id="text819-4" fill="#fcfbfa" fill-opacity="1" stroke="none" stroke-width="2.46175" aria-label="Private Cloud Appliance" font-family="Oracle Sans" font-size="52.52101" font-stretch="normal" font-style="normal" font-variant="normal" font-weight="400" letter-spacing="0" style="line-height:1.25;-inkscape-font-specification:'Oracle Sans, Normal';font-variant-ligatures:normal;font-variant-caps:normal;font-variant-numeric:normal;font-feature-settings:normal;text-align:start" text-anchor="start" word-spacing="0" writing-mode="lr-tb"><path id="path1268" d="M315.0497 39.44327V1.2605h12.5q13.28782 0 13.28782 12.13236 0 12.13235-13.28782 12.13235h-7.66806v13.91806zm11.5021-34.29621h-6.67016v16.4916h6.67016q4.93698 0 7.14286-1.9958 2.2584-1.9958 2.2584-6.25t-2.2584-6.25q-2.20588-1.9958-7.14286-1.9958z" style="-inkscape-font-specification:'Oracle Sans, Normal';font-variant-ligatures:normal;font-variant-caps:normal;font-variant-numeric:normal;font-feature-settings:normal;text-align:start"/><path id="path1270" d="M346.40468 39.44327V12.02732h3.20378l.94538 5.14706q2.67857-5.19958 7.66807-5.19958 1.05042 0 1.83823.15756v4.14916h-1.20798q-2.9937 0-4.9895 1.68067-1.9958 1.68068-2.73109 4.88446v16.59663z" style="-inkscape-font-specification:'Oracle Sans, Normal';font-variant-ligatures:normal;font-variant-caps:normal;font-variant-numeric:normal;font-feature-settings:normal;text-align:start"/><path id="path1272" d="M365.67974 5.67227v-4.2542h5.77731v4.2542zm1.10294 33.771V15.70378l-2.73109-1.7332v-1.94327h7.45798v27.41596z" style="-inkscape-font-specification:'Oracle Sans, Normal';font-variant-ligatures:normal;font-variant-caps:normal;font-variant-numeric:normal;font-feature-settings:normal;text-align:start"/><path id="path1274" d="M386.95071 39.44327L376.1839 12.02732h4.93698l7.93067 21.7437 7.87815-21.7437h4.83193l-10.81932 27.41596z" style="-inkscape-font-specification:'Oracle Sans, Normal';font-variant-ligatures:normal;font-variant-caps:normal;font-variant-numeric:normal;font-feature-settings:normal;text-align:start"/><path id="path1276" d="M423.0326 39.44327l-.78782-4.41176q-3.36134 4.9895-9.13865 4.9895-4.14916 0-6.67017-2.31093-2.46849-2.36344-2.46849-6.25 0-4.30672 2.94118-6.67017 2.99369-2.41596 8.29832-2.41596h6.30252v-1.7332q0-2.94117-1.31303-4.14915-1.2605-1.20799-4.35924-1.20799-1.9958 0-4.2542.4727-2.25841.42016-5.09454 1.41806v-3.83403q1.9958-.89286 4.56933-1.36555 2.57353-.52521 4.83193-.52521 10.34664 0 10.34664 9.19118v18.80252zm-9.34874-3.20378q2.41596 0 4.5168-1.36554 2.10084-1.41807 3.36135-3.83404v-5.19958h-5.88235q-3.57143 0-5.30463 1.31303-1.68067 1.2605-1.68067 3.93907 0 2.36345 1.31303 3.78152 1.36554 1.36554 3.67647 1.36554z" style="-inkscape-font-specification:'Oracle Sans, Normal';font-variant-ligatures:normal;font-variant-caps:normal;font-variant-numeric:normal;font-feature-settings:normal;text-align:start"/><path id="path1278" d="M434.74476 31.09243V15.91386h-4.72689V13.4979l4.72689-1.57563 1.89076-7.45799h2.83613v7.56303h5.93487v3.88655h-5.93487v15.12605q0 4.51681 3.88655 4.51681.63026 0 1.20799-.05252.63025-.10504 1.15546-.15756v4.09664q-.73529.15756-1.52311.21008-.73529.05252-1.57563.05252-4.04412 0-5.98739-2.10084-1.89076-2.10084-1.89076-6.5126z" style="-inkscape-font-specification:'Oracle Sans, Normal';font-variant-ligatures:normal;font-variant-caps:normal;font-variant-numeric:normal;font-feature-settings:normal;text-align:start"/><path id="path1280" d="M471.77203 38.07773q-1.47059.89286-3.93907 1.41807-2.41597.5252-5.30463.5252-6.5126 0-9.87395-3.67646-3.30882-3.729-3.30882-10.87185 0-6.88025 3.15126-10.45168 3.20378-3.57143 9.13866-3.57143 11.44958 0 11.44958 12.65756v3.04622h-18.96009q.31513 4.62185 2.46849 6.77521 2.15336 2.10084 6.40756 2.10084 2.36345 0 4.46429-.47269 2.10084-.47269 4.30672-1.47059zm-10.13655-22.7416q-3.46639 0-5.40967 2.10084-1.89075 2.04832-2.10084 5.9874h14.39076q0-4.30672-1.62815-6.19748-1.57563-1.89076-5.2521-1.89076z" style="-inkscape-font-specification:'Oracle Sans, Normal';font-variant-ligatures:normal;font-variant-caps:normal;font-variant-numeric:normal;font-feature-settings:normal;text-align:start"/><path id="path1282" d="M519.30344 33.40336v4.20168q-2.10084 1.15546-4.9895 1.83824-2.83613.63025-5.77731.63025-8.5084 0-13.18277-5.19958-4.62185-5.2521-4.62185-14.91597 0-6.03991 2.15336-10.34664 2.20588-4.30672 6.25-6.61764 4.04412-2.36345 9.61134-2.36345 2.46849 0 4.9895.63025 2.57353.63026 4.20168 1.7332v4.20168q-2.73109-1.20799-4.77941-1.7332-2.04832-.5252-4.09664-.5252-6.30252 0-9.82143 3.93907-3.51891 3.88655-3.51891 11.08193 0 7.61555 3.46639 11.71219 3.51891 4.09664 9.87395 4.09664 4.72689 0 10.2416-2.36345z" style="-inkscape-font-specification:'Oracle Sans, Normal';font-variant-ligatures:normal;font-variant-caps:normal;font-variant-numeric:normal;font-feature-settings:normal;text-align:start"/><path id="path1284" d="M525.5533 39.44327V3.67647l-2.73109-1.7332V0h7.45798v39.44327z" style="-inkscape-font-specification:'Oracle Sans, Normal';font-variant-ligatures:normal;font-variant-caps:normal;font-variant-numeric:normal;font-feature-settings:normal;text-align:start"/><path id="path1286" d="M549.45035 40.021q-6.19748 0-9.61135-3.7815-3.41386-3.83404-3.41386-10.5042 0-6.7227 3.41386-10.5042 3.41387-3.78152 9.61135-3.78152 6.25 0 9.66386 3.78151 3.41387 3.78151 3.41387 10.5042 0 6.67017-3.41387 10.5042-3.41386 3.78152-9.66386 3.78152zm0-3.88655q4.04411 0 6.14495-2.62605 2.10084-2.67857 2.10084-7.7731 0-5.09455-2.10084-7.7206-2.10084-2.67857-6.14495-2.67857-3.9916 0-6.09244 2.67857-2.10084 2.62605-2.10084 7.7206 0 5.09453 2.10084 7.7731 2.10084 2.62605 6.09244 2.62605z" style="-inkscape-font-specification:'Oracle Sans, Normal';font-variant-ligatures:normal;font-variant-caps:normal;font-variant-numeric:normal;font-feature-settings:normal;text-align:start"/><path id="path1288" d="M568.4104 28.9916V12.0273h4.72689v16.80672q0 3.5189 1.52311 5.40967 1.52311 1.89075 4.46429 1.89075 2.46849 0 4.62185-1.68067 2.20588-1.7332 3.30882-4.56933V12.02731h4.72689v27.41596h-3.20378l-.84034-4.67436q-1.68067 2.521-4.2542 3.88655-2.52101 1.36555-5.5147 1.36555-4.56933 0-7.09034-2.83614-2.46849-2.83613-2.46849-8.19327z" style="-inkscape-font-specification:'Oracle Sans, Normal';font-variant-ligatures:normal;font-variant-caps:normal;font-variant-numeric:normal;font-feature-settings:normal;text-align:start"/><path id="path1290" d="M619.56576 39.44327l-.78782-4.41176q-1.57563 2.36345-4.04411 3.67647-2.41597 1.31303-5.2521 1.31303-5.40967 0-8.50841-3.78152-3.04622-3.7815-3.04622-10.45168 0-6.7752 3.04622-10.55672 3.09874-3.78151 8.61345-3.78151 2.31092 0 4.5168.89286 2.20589.89285 3.93908 2.521V0h4.72689v39.44327zM602.75904 25.7353q0 4.9895 1.94327 7.7206 1.94328 2.73108 5.51471 2.73108 2.46849 0 4.51681-1.31302 2.10084-1.36555 3.30882-3.67647V19.0126q-3.20378-3.72899-7.61555-3.72899-3.67647 0-5.67226 2.67857-1.9958 2.67857-1.9958 7.77311z" style="-inkscape-font-specification:'Oracle Sans, Normal';font-variant-ligatures:normal;font-variant-caps:normal;font-variant-numeric:normal;font-feature-settings:normal;text-align:start"/><path id="path1292" d="M640.0488 39.44327L654.8072 1.2605h4.88446l14.81092 38.18277h-5.40966l-3.36135-9.40125h-17.06932l-3.36135 9.40125zm10.13655-13.60294h14.02311l-7.03781-19.48529z" style="-inkscape-font-specification:'Oracle Sans, Normal';font-variant-ligatures:normal;font-variant-caps:normal;font-variant-numeric:normal;font-feature-settings:normal;text-align:start"/><path id="path1294" d="M678.91436 50V12.0273h3.20378l.78781 4.41176q1.57563-2.36344 3.9916-3.67647 2.46849-1.31302 5.30462-1.31302 5.46219 0 8.5084 3.78151 3.04622 3.729 3.04622 10.45168 0 6.77521-3.09874 10.55672-3.04621 3.78152-8.56092 3.78152-2.31093 0-4.51681-.89286-2.20588-.89286-3.93907-2.521V50zm12.55252-34.71639q-2.46849 0-4.56933 1.36555-2.04832 1.31302-3.2563 3.62395v12.18487q3.20378 3.729 7.61554 3.729 3.72899 0 5.67227-2.67858 1.9958-2.67857 1.9958-7.7731 0-4.9895-1.94328-7.7206-1.94327-2.73109-5.5147-2.73109z" style="-inkscape-font-specification:'Oracle Sans, Normal';font-variant-ligatures:normal;font-variant-caps:normal;font-variant-numeric:normal;font-feature-settings:normal;text-align:start"/><path id="path1296" d="M709.90166 50V12.0273h3.20378l.78782 4.41176q1.57563-2.36344 3.99159-3.67647 2.46849-1.31302 5.30463-1.31302 5.46218 0 8.5084 3.78151 3.04622 3.729 3.04622 10.45168 0 6.77521-3.09874 10.55672-3.04622 3.78152-8.56093 3.78152-2.31092 0-4.5168-.89286-2.20589-.89286-3.93908-2.521V50zm12.55252-34.71639q-2.46849 0-4.56933 1.36555-2.04832 1.31302-3.2563 3.62395v12.18487q3.20378 3.729 7.61555 3.729 3.72899 0 5.67227-2.67858 1.99579-2.67857 1.99579-7.7731 0-4.9895-1.94327-7.7206-1.94328-2.73109-5.51471-2.73109z" style="-inkscape-font-specification:'Oracle Sans, Normal';font-variant-ligatures:normal;font-variant-caps:normal;font-variant-numeric:normal;font-feature-settings:normal;text-align:start"/><path id="path1298" d="M740.36373 39.44327V3.67647l-2.73109-1.7332V0h7.45798v39.44327z" style="-inkscape-font-specification:'Oracle Sans, Normal';font-variant-ligatures:normal;font-variant-caps:normal;font-variant-numeric:normal;font-feature-settings:normal;text-align:start"/><path id="path1300" d="M752.286 5.67227v-4.2542h5.77731v4.2542zm1.10294 33.771V15.70378l-2.7311-1.7332v-1.94327h7.45799v27.41596z" style="-inkscape-font-specification:'Oracle Sans, Normal';font-variant-ligatures:normal;font-variant-caps:normal;font-variant-numeric:normal;font-feature-settings:normal;text-align:start"/><path id="path1302" d="M783.11576 39.44327l-.78781-4.41176q-3.36135 4.9895-9.13866 4.9895-4.14916 0-6.67016-2.31093-2.46849-2.36344-2.46849-6.25 0-4.30672 2.94117-6.67017 2.9937-2.41596 8.29832-2.41596h6.30252v-1.7332q0-2.94117-1.31302-4.14915-1.2605-1.20799-4.35924-1.20799-1.9958 0-4.25421.4727-2.2584.42016-5.09453 1.41806v-3.83403q1.9958-.89286 4.56932-1.36555 2.57353-.52521 4.83194-.52521 10.34664 0 10.34664 9.19118v18.80252zm-9.34874-3.20378q2.41597 0 4.51681-1.36554 2.10084-1.41807 3.36135-3.83404v-5.19958h-5.88236q-3.57143 0-5.30462 1.31303-1.68067 1.2605-1.68067 3.93907 0 2.36345 1.31302 3.78152 1.36555 1.36554 3.67647 1.36554z" style="-inkscape-font-specification:'Oracle Sans, Normal';font-variant-ligatures:normal;font-variant-caps:normal;font-variant-numeric:normal;font-feature-settings:normal;text-align:start"/><path id="path1304" d="M793.93508 39.44327V12.02732h3.20378l.84034 4.67437q1.73319-2.521 4.2542-3.88656 2.52101-1.36554 5.67227-1.36554 4.72689 0 7.24789 2.83613 2.52101 2.83614 2.52101 8.19328v16.96429h-4.72689V22.63654q0-7.14285-6.19748-7.14285-2.62605 0-4.83193 1.62815-2.15336 1.57563-3.2563 4.30672v18.0147z" style="-inkscape-font-specification:'Oracle Sans, Normal';font-variant-ligatures:normal;font-variant-caps:normal;font-variant-numeric:normal;font-feature-settings:normal;text-align:start"/><path id="path1306" d="M844.61776 34.19118v3.88655q-3.2563 1.94328-8.2458 1.94328-6.35504 0-9.61134-3.67647-3.20379-3.729-3.20379-10.92437 0-6.67017 3.41387-10.29412 3.41387-3.67647 9.66387-3.67647 3.88655 0 7.19537 1.7332v3.88655q-3.46638-1.7332-6.46008-1.7332-8.98109 0-8.98109 10.08404 0 5.46218 2.04832 8.08823 2.10084 2.62605 6.56512 2.62605 1.78572 0 3.62395-.47269 1.83824-.47269 3.9916-1.47059z" style="-inkscape-font-specification:'Oracle Sans, Normal';font-variant-ligatures:normal;font-variant-caps:normal;font-variant-numeric:normal;font-feature-settings:normal;text-align:start"/><path id="path1308" d="M871.08825 38.07773q-1.47058.89286-3.93907 1.41807-2.41597.5252-5.30462.5252-6.51261 0-9.87395-3.67646-3.30883-3.729-3.30883-10.87185 0-6.88025 3.15126-10.45168 3.20379-3.57143 9.13866-3.57143 11.44958 0 11.44958 12.65756v3.04622H853.4412q.31512 4.62185 2.46848 6.77521 2.15336 2.10084 6.40757 2.10084 2.36344 0 4.46428-.47269 2.10084-.47269 4.30672-1.47059zm-10.13655-22.7416q-3.46639 0-5.40966 2.10084-1.89076 2.04832-2.10084 5.9874h14.39075q0-4.30672-1.62815-6.19748-1.57563-1.89076-5.2521-1.89076z" style="-inkscape-font-specification:'Oracle Sans, Normal';font-variant-ligatures:normal;font-variant-caps:normal;font-variant-numeric:normal;font-feature-settings:normal;text-align:start"/></g></svg>
