<svg width="18" height="18" viewBox="0 0 18 18" fill="none" xmlns="http://www.w3.org/2000/svg">
<path d="M7.33333 3.16667H17.3333M7.33333 9H17.3333M7.33333 14.8333H17.3333M4.83333 3.16667C4.83333 4.08714 4.08714 4.83333 3.16667 4.83333C2.24619 4.83333 1.5 4.08714 1.5 3.16667C1.5 2.24619 2.24619 1.5 3.16667 1.5C4.08714 1.5 4.83333 2.24619 4.83333 3.16667ZM4.83333 9C4.83333 9.92047 4.08714 10.6667 3.16667 10.6667C2.24619 10.6667 1.5 9.92047 1.5 9C1.5 8.07953 2.24619 7.33333 3.16667 7.33333C4.08714 7.33333 4.83333 8.07953 4.83333 9ZM4.83333 14.8333C4.83333 15.7538 4.08714 16.5 3.16667 16.5C2.24619 16.5 1.5 15.7538 1.5 14.8333C1.5 13.9129 2.24619 13.1667 3.16667 13.1667C4.08714 13.1667 4.83333 13.9129 4.83333 14.8333Z" stroke="#161513" stroke-width="1.875"/>
</svg>
