<?xml version="1.0" encoding="iso-8859-1"?>
<svg version="1.1" id="Layer_1" xmlns="http://www.w3.org/2000/svg" xmlns:xlink="http://www.w3.org/1999/xlink" x="0px"
     y="0px"
     viewBox="0 0 473.677 473.677" style="enable-background:new 0 0 473.677 473.677;" xml:space="preserve">
<g>
<path fill="#312D2A" d="M370.457,138.893c-33.97-48.633-89.75-76.478-149.366-69.65C163.73,75.81,117.43,112.9,94.45,164.42
	c-9.839-0.026-19.674-0.049-29.513-0.075c-5.187-0.011-9.016,5.991-6.099,10.564c17.243,27.052,34.49,54.108,51.733,81.16
	c2.909,4.57,9.218,4.458,12.12-0.045c17.378-26.966,34.759-53.936,52.141-80.902c1.877-2.913,1.245-5.729-0.512-7.674
	c-1.096-1.657-2.913-2.838-5.512-2.846c-9.151-0.022-18.301-0.045-27.452-0.067c42.216-67.088,144.695-73.21,192.801-4.338
	C349.572,182.254,386.029,161.189,370.457,138.893z"/>
    <path fill="#312D2A" d="M414.449,297.545c-17.243-27.052-34.494-54.108-51.741-81.16c-2.909-4.57-9.218-4.458-12.12,0.045
	c-17.374,26.966-34.756,53.936-52.133,80.902c-1.881,2.917-1.245,5.733,0.52,7.681c1.092,1.653,2.909,2.831,5.505,2.838
	c9.151,0.022,18.301,0.045,27.448,0.067c-42.22,67.08-144.695,73.228-192.797,4.342c-15.407-22.06-51.86-0.995-36.293,21.304
	c33.963,48.633,89.746,76.474,149.359,69.65c57.361-6.57,103.657-43.663,126.644-95.18c9.835,0.026,19.674,0.049,29.513,0.075
	C413.537,308.124,417.366,302.118,414.449,297.545z"/>
</g>
</svg>
