<svg width="18" height="18" viewBox="0 0 18 18" fill="none" xmlns="http://www.w3.org/2000/svg">
    <path fill-rule="evenodd" clip-rule="evenodd"
        d="M16.5 10.6667V7.33333H14.5883C14.4733 6.94583 14.3208 6.57417 14.1317 6.225L15.4817 4.875L13.125 2.51833L11.775 3.86833C11.4258 3.67917 11.0542 3.52667 10.6667 3.41167V1.5H7.33333V3.41167C6.94583 3.52667 6.57417 3.67917 6.225 3.86833L4.875 2.51833L2.51833 4.875L3.86833 6.225C3.67917 6.57417 3.52667 6.94583 3.41167 7.33333H1.5V10.6667H3.41167C3.52667 11.0542 3.67917 11.4258 3.86833 11.775L2.51833 13.125L4.875 15.4817L6.225 14.1317C6.57417 14.3208 6.94583 14.4733 7.33333 14.5883V16.5H10.6667V14.5883C11.0542 14.4733 11.4258 14.3208 11.775 14.1317L13.125 15.4817L15.4825 13.125L14.1325 11.775C14.3217 11.4258 14.4733 11.0542 14.5892 10.6667H16.5Z"
        stroke="#92e910" stroke-width="1.5" stroke-miterlimit="10" />
    <path
        d="M9 10.6667C9.92047 10.6667 10.6667 9.92047 10.6667 9C10.6667 8.07953 9.92047 7.33333 9 7.33333C8.07953 7.33333 7.33333 8.07953 7.33333 9C7.33333 9.92047 8.07953 10.6667 9 10.6667Z"
        stroke="#92e910" stroke-width="1.5" stroke-miterlimit="10" />
</svg>