<?xml version="1.0" encoding="utf-8"?>
<!-- Generator: Adobe Illustrator 24.1.0, SVG Export Plug-In . SVG Version: 6.00 Build 0)  -->
<svg version="1.1" id="Auto_Scaling" xmlns="http://www.w3.org/2000/svg" xmlns:xlink="http://www.w3.org/1999/xlink" x="0px"
	 y="0px" viewBox="0 0 161.9 162" enable-background="new 0 0 161.9 162" xml:space="preserve">
<g>
	<g>
		<g>
			<rect x="106.6" y="26.6" fill="#312D2A" width="8" height="8.5"/>
			<rect x="86.5" y="26.6" fill="#312D2A" width="8" height="8.5"/>
			<rect x="66.5" y="26.6" fill="#312D2A" width="8" height="8.5"/>
			<rect x="46.4" y="26.6" fill="#312D2A" width="8" height="8.5"/>
			<rect x="26.3" y="26.6" fill="#312D2A" width="8" height="8.5"/>
		</g>
	</g>
	<g>
		<g>
			<rect x="126.7" y="26.6" fill="#312D2A" width="8.6" height="8.5"/>
		</g>
	</g>
	<g>
		<g>
			<rect x="126.7" y="127.2" fill="#312D2A" width="8.6" height="8"/>
			<rect x="126.7" y="107.2" fill="#312D2A" width="8.6" height="8"/>
			<rect x="126.7" y="87.2" fill="#312D2A" width="8.6" height="8"/>
			<rect x="126.7" y="67.1" fill="#312D2A" width="8.6" height="8"/>
			<rect x="126.7" y="47.1" fill="#312D2A" width="8.6" height="8"/>
		</g>
	</g>
	<path fill="#312D2A" d="M103,136.9H25.3V59.3H103V136.9z M32.3,129.9H96V66.3H32.3V129.9z"/>
	<path fill="#312D2A" d="M152.8,152.9H9V9.2h143.8V152.9z M18,143.9h125.8V18.2H18V143.9z"/>
	<polygon fill="#312D2A" points="122.7,49.1 123.9,37.5 112.5,39.3 114.9,41.6 108.6,48.2 105.9,45.6 104.6,57.2 116.1,55.3 
		113.7,53.1 120,46.5 	"/>
	<path fill="#312D2A" d="M53.6,103.4H39.2V89.1h14.3L53.6,103.4L53.6,103.4z M43.2,99.4h6.3v-6.3h-6.3V99.4z M88.8,103.4H74.4V89.1
		h14.3L88.8,103.4L88.8,103.4z M78.4,99.4h6.3v-6.3h-6.3V99.4z M71.1,103.4H56.8V89.1h14.3V103.4z M60.8,99.4h6.3v-6.3h-6.3V99.4z
		 M88.8,86.1H74.4V71.7h14.3L88.8,86.1L88.8,86.1z M78.4,82.1h6.3v-6.3h-6.3V82.1z M71.1,86.1H56.8V71.7h14.3V86.1z M60.8,82.1h6.3
		v-6.3h-6.3V82.1z M89.6,125.1H38.8v-18.6h50.8V125.1z M43.8,120.1h40.8v-8.6H43.8V120.1z M77.2,113.4c-1.3,0-2.4,1.1-2.4,2.4
		s1.1,2.4,2.4,2.4s2.4-1.1,2.4-2.4C79.7,114.5,78.6,113.4,77.2,113.4z M53.6,86.1H39.2V71.7h14.3L53.6,86.1L53.6,86.1z M43.2,82.1
		h6.3v-6.3h-6.3V82.1z"/>
</g>
</svg>
