<?xml version="1.0" encoding="utf-8"?>
<!-- Generator: Adobe Illustrator 24.1.0, SVG Export Plug-In . SVG Version: 6.00 Build 0)  -->
<svg version="1.1" id="Cloud_Guard_ALT" xmlns="http://www.w3.org/2000/svg" xmlns:xlink="http://www.w3.org/1999/xlink" x="0px"
	 y="0px" viewBox="0 0 161.9 162" enable-background="new 0 0 161.9 162" xml:space="preserve">
<g>
	<path fill="#312D2A" d="M124.8,40.5c-3-6.2-12.1-20.2-32.3-16.4c-5.8-6.4-18.1-14.3-34.3-9.6c-2,0.5-14.2,4-20,19.9
		c-2.6,0.5-6.7,1.7-10.9,4C20.8,42,12.4,49.5,9.8,64.2l0,0.2C9.7,65,8,78.8,16.7,89.4c5.4,6.6,13.5,10.4,24.1,11.2l15,0l0-9H41.2
		c-7.9-0.6-13.8-3.3-17.6-7.8c-5.9-7.2-5.1-17.2-5-18.1c3.8-21,22.6-22.7,23.4-22.8l3.1-0.2l0.9-3c4-13.9,13.8-16.3,14.2-16.3
		l0.4-0.1c16.6-4.9,26,8,26.4,8.5l1.8,2.6l3-0.8c19.2-5,24.9,10.8,25.5,12.6l0.9,2.9l3,0.3c22.6,1.9,22.3,19.6,22.2,21.6l0,0.1
		c-0.3,8.1-3.8,13.9-10.5,17.5c-0.8,0.4-1.6,0.8-2.5,1.1v9.6c9.8-2.9,21.3-10.8,21.9-27.9h0C152.6,69.3,152.9,44.4,124.8,40.5z"/>
	<path fill="#312D2A" d="M125.6,75.4L92.9,61.3L60.1,75.4l0.1,31.8l0.1,0.4c4.8,27.7,29.9,37.9,30.9,38.4l1.9,0.8l1.8-0.9
		c30.7-15.7,30.7-39.4,30.7-40.3V75.4z M116.6,105.4c0,0.7-0.3,16-19.4,28.6V96.8h-9v37.3c-6.6-4.3-16.3-13-19-27.7l-0.1-25.1
		l19.1-8.2v15.8h9V73l19.4,8.3V105.4z"/>
</g>
</svg>
