<?xml version="1.0" encoding="utf-8"?>
<!-- Generator: Adobe Illustrator 24.1.0, SVG Export Plug-In . SVG Version: 6.00 Build 0)  -->
<svg version="1.1" id="Science" xmlns="http://www.w3.org/2000/svg" xmlns:xlink="http://www.w3.org/1999/xlink" x="0px" y="0px"
	 viewBox="0 0 161.9 162" enable-background="new 0 0 161.9 162" xml:space="preserve">
<g>
	<path fill="#312D2A" d="M63.6,27.7c1.2-3.6,0.9-7.5-0.8-10.9c-1.7-3.4-4.6-5.9-8.2-7.1c-3.6-1.2-7.5-0.9-10.9,0.8
		c-3.4,1.7-5.9,4.6-7.1,8.2c-1.2,3.6-0.9,7.5,0.8,10.9c0.7,1.3,1.5,2.5,2.5,3.5L29.3,51.1c-3.2-0.7-6.5-0.3-9.4,1.2
		c-3.4,1.7-5.9,4.6-7.1,8.2c-1.2,3.6-0.9,7.5,0.8,10.9c1.7,3.4,4.6,5.9,8.2,7.1c1.5,0.5,3,0.7,4.5,0.7c2.2,0,4.4-0.5,6.4-1.5
		c3.4-1.7,5.9-4.6,7.1-8.2c0.2-0.5,0.3-1.1,0.4-1.6l9.6,0.1c0.5-2,1-4,1.7-6l-11.4-0.1c-0.3-1.1-0.6-2.2-1.2-3.2c-1-2-2.4-3.7-4.2-5
		l10.1-17.1c0.2,0.1,0.5,0.2,0.7,0.3c1.5,0.5,3,0.7,4.5,0.7c1.4,0,2.7-0.2,4.1-0.6l5.9,9.4c1.3-1.6,2.7-3.2,4.1-4.7L59.4,34
		C61.3,32.3,62.7,30.2,63.6,27.7z M29.5,71.4c-3.6,1.8-7.9,0.4-9.7-3.2c-1.8-3.6-0.4-7.9,3.2-9.7c1-0.5,2.1-0.8,3.2-0.8
		c2.6,0,5.2,1.5,6.5,4C34.5,65.3,33,69.6,29.5,71.4z M43.6,26.5c-1.8-3.6-0.4-7.9,3.2-9.7c1-0.5,2.1-0.8,3.2-0.8
		c2.6,0,5.2,1.5,6.5,4c1.8,3.6,0.4,7.9-3.2,9.7C49.7,31.5,45.4,30.1,43.6,26.5z"/>
	<g>
		<path fill="#312D2A" d="M101.9,32.5C76.1,32.5,55,53.9,55,80.1c0,14,6,26.7,15.6,35.4l-15.4,19.2l9.5,7.6l15.9-19.8
			c6.4,3.3,13.6,5.2,21.2,5.2c25.8,0,46.9-21.3,46.9-47.5C148.8,53.9,127.7,32.5,101.9,32.5z M78,50.2l6.5,10.6
			c-4.4,3.9-7.3,9.1-8.3,14.8l-11.9-0.1C65.5,65.3,70.6,56.3,78,50.2z M101.7,63.2c6.2,0,12.2,3.4,15.2,9.3
			c4.2,8.4,0.8,18.6-7.5,22.8c-8.4,4.2-18.6,0.8-22.8-7.5c-4.2-8.4-0.8-18.6,7.5-22.8C96.6,63.8,99.2,63.2,101.7,63.2z M101.9,118.6
			c-19.4,0-35.5-15-37.6-34.2l11.9,0.1c0.4,2.5,1.2,5,2.4,7.4c4.6,9.1,13.7,14.3,23.2,14.3c3.9,0,7.9-0.9,11.6-2.8
			c12.8-6.4,18-22.1,11.5-34.9c-6.1-12.1-20.4-17.4-32.7-12.5l-6.6-10.8c4.9-2.4,10.5-3.8,16.3-3.8c20.9,0,37.9,17.3,37.9,38.5
			S122.8,118.6,101.9,118.6z"/>
		<polygon fill="#312D2A" points="45.7,146.5 55.2,154.1 61.6,146.5 52.1,138.8 		"/>
	</g>
</g>
</svg>
