<?xml version="1.0" encoding="utf-8"?>
<!-- Generator: Adobe Illustrator 24.1.0, SVG Export Plug-In . SVG Version: 6.00 Build 0)  -->
<svg version="1.1" id="Fast_Connect" xmlns="http://www.w3.org/2000/svg" xmlns:xlink="http://www.w3.org/1999/xlink" x="0px"
	 y="0px" viewBox="0 0 161.9 162" enable-background="new 0 0 161.9 162" xml:space="preserve">
	<g>
<path fill="#312D2A" d="M76.7,88.8h41.5v11.7H75.6c-1,2.9-2.5,5.7-4.4,8h47v11.2h-41c0.2,0.1,0.3,0.3,0.5,0.4
	c2.3,2.2,4.3,4.7,5.9,7.6c0.1,0.2,0.2,0.3,0.3,0.4h34.3v11.2H87.6c0.2,1.4,0.3,2.8,0.3,4.3v3.7h38.3v-19.2v-8.4v-11.2v-8V80.8H74.1
	C75.4,83.2,76.3,85.9,76.7,88.8z M93,73.4h6.7v4.4H93V73.4z M93,65.6h6.7V70H93V65.6z M112.9,133.9c0-1.3-1.1-2.4-2.4-2.4
	s-2.4,1.1-2.4,2.4c0,1.3,1.1,2.4,2.4,2.4S112.9,135.3,112.9,133.9z M112.9,114.3c0-1.3-1.1-2.4-2.4-2.4s-2.4,1.1-2.4,2.4
	s1.1,2.4,2.4,2.4S112.9,115.6,112.9,114.3z M112.9,95c0-1.3-1.1-2.4-2.4-2.4s-2.4,1.1-2.4,2.4s1.1,2.4,2.4,2.4S112.9,96.3,112.9,95z
	 M114,49L96.5,25.7L79.4,49H93v5.4h6.7V49H114z M90.9,43.2l5.6-7.6l5.7,7.6H90.9z M140.2,44.5c-1,14.2-12.6,18-18.6,18H99.7v-8h21.8
	c1.6,0,9.9-0.6,10.6-10.5c0.1-1.7-0.1-9.9-11.4-10.8L118,33l-0.8-2.6c-0.4-1.5-3.4-8.7-12.8-6.3l-2.7,0.7l-1.6-2.3
	c-0.2-0.2-5-6.8-13.5-4.3l-0.4,0.1c-0.1,0-5,1.2-7,8.3l-0.8,2.7l-2.8,0.2c-1,0.1-10.1,1.2-12,11.8c0,0.6-0.4,5.7,2.6,9.3
	c1.9,2.2,4.9,3.6,9,3.9H93v8H74.8C68.3,62,63.4,59.7,60,55.6c-5.3-6.5-4.3-15-4.3-15.4V40c2.1-11.8,10.7-16.7,16.7-18.1
	C75.9,13,83,10.8,84.5,10.6c9.4-2.8,16.7,1.5,20.5,5.3c10.3-1.6,16.3,4.5,18.9,9.6C137.5,27.7,140.5,38.7,140.2,44.5z M44.4,111.4
	c2.3,0.9,4.8,1.4,7.3,1.4c2.6,0,5.1-0.5,7.3-1.4c1.3-0.5,2.5-1.1,3.7-1.8c1.5-0.9,2.8-2,4-3.3c1.6-1.7,3-3.7,3.9-5.9
	c1.2-2.6,1.8-5.5,1.8-8.5c0-1.1-0.1-2.1-0.3-3.2c-0.4-2.9-1.5-5.6-3-8c-3.7-5.8-10.2-9.6-17.5-9.6c-11.5,0-20.8,9.3-20.8,20.8
	C30.9,100.8,36.5,108.4,44.4,111.4z M51.7,80.1c6.5,0,11.8,5.3,11.8,11.8s-5.3,11.8-11.8,11.8s-11.8-5.3-11.8-11.8
	S45.2,80.1,51.7,80.1z M78.4,128.1c-0.1-0.2-0.2-0.3-0.4-0.4c-2.3-2.8-5.1-5.3-8.2-7.1c-2.2-1.3-4.6-2.3-7.1-3
	c-1.4-0.4-2.8-0.7-4.2-0.9c-1.3-0.2-2.6-0.3-3.9-0.3h-5.8c-1.3,0-2.7,0.1-3.9,0.3c-14.7,1.9-26,14.5-26,29.7v4.7v1.2h9v-1.2v-4.7
	c0-11.6,9.4-21,21-21h5.8c11.6,0,21,9.4,21,21v4.7v1.2h9v-1.2v-3.7v-1c0-2.4-0.3-4.8-0.8-7C82.7,135.2,80.9,131.4,78.4,128.1z"/>
	</g>
</svg>
