<?xml version="1.0" encoding="utf-8"?>
<!-- Generator: Adobe Illustrator 24.1.0, SVG Export Plug-In . SVG Version: 6.00 Build 0)  -->
<svg version="1.1" id="Groups" xmlns="http://www.w3.org/2000/svg" xmlns:xlink="http://www.w3.org/1999/xlink" x="0px" y="0px"
	 viewBox="0 0 161.9 162" enable-background="new 0 0 161.9 162" xml:space="preserve">
	<g>
<path fill="#312D2A" d="M128.1,86.5c-8.8,0-15.9-7.1-15.9-15.9s7.1-15.9,15.9-15.9c8.8,0,15.9,7.1,15.9,15.9S136.8,86.5,128.1,86.5z
	 M128.1,62.7c-4.3,0-7.9,3.5-7.9,7.9s3.5,7.9,7.9,7.9c4.3,0,7.9-3.5,7.9-7.9S132.4,62.7,128.1,62.7z M33.7,86.9
	c-8.8,0-15.9-7.1-15.9-15.9S25,55.2,33.7,55.2s15.9,7.1,15.9,15.9S42.5,86.9,33.7,86.9z M33.7,63.2c-4.3,0-7.9,3.5-7.9,7.9
	s3.5,7.9,7.9,7.9s7.9-3.5,7.9-7.9S38.1,63.2,33.7,63.2z M103.4,124.8h8v0L103.4,124.8L103.4,124.8z M130.2,90.5h-4.2
	c-5.5,0-10.6,2-14.5,5.3c1.7,2.1,3.1,4.4,4.3,6.9c2.6-2.6,6.2-4.2,10.2-4.2h4.2c8,0,14.5,6.5,14.5,14.5v11.8h8V113
	C152.7,100.6,142.6,90.5,130.2,90.5z M35.8,90.5h-4.2c-12.4,0-22.5,10.1-22.5,22.5v11.8h8V113c0-8,6.5-14.5,14.5-14.5h4.2
	c4.1,0,7.8,1.7,10.5,4.5c1.1-2.5,2.6-4.8,4.3-7C46.6,92.6,41.5,90.5,35.8,90.5z M50.4,124.8h8v0L50.4,124.8L50.4,124.8z M81.1,83.6
	c-11.7,0-21.1-9.5-21.1-21.1s9.5-21.1,21.1-21.1c11.7,0,21.1,9.5,21.1,21.1S92.7,83.6,81.1,83.6z M81.1,50.3
	c-6.7,0-12.1,5.4-12.1,12.1s5.4,12.1,12.1,12.1s12.1-5.4,12.1-12.1S87.8,50.3,81.1,50.3z M114.5,118.9c0-16.8-13.7-30.5-30.5-30.5
	h-6c-16.8,0-30.5,13.7-30.5,30.5v6h9v-6c0-11.8,9.6-21.5,21.5-21.5h6c11.8,0,21.5,9.6,21.5,21.5v6h9V118.9z"/></g>
</svg>
