<?xml version="1.0" encoding="utf-8"?>
<!-- Generator: Adobe Illustrator 24.1.0, SVG Export Plug-In . SVG Version: 6.00 Build 0)  -->
<svg version="1.1" id="Cloud_Guard_ALT" xmlns="http://www.w3.org/2000/svg" xmlns:xlink="http://www.w3.org/1999/xlink" x="0px"
	 y="0px" viewBox="0 0 161.9 162" enable-background="new 0 0 161.9 162" xml:space="preserve">
<g>
	<path fill="#312D2A" d="M63.9,58.5c-9.3,0-16.8,7.5-16.8,16.8s7.5,16.8,16.8,16.8c8.3,0,15.3-6.1,16.6-14.1h12.1v5.6h5.9v-5.6h7.1
		v8.3h7.5v-8.3v-1.2v-5.5H80.2C78.4,64,71.8,58.5,63.9,58.5z M63.9,84.5c-5,0-9.1-4.1-9.1-9.1c0-5,4.1-9.1,9.1-9.1
		c5,0,9.1,4.1,9.1,9.1C73,80.4,68.9,84.5,63.9,84.5z"/>
	<path fill="#312D2A" d="M135.1,83.5V33.1L81,9.9L27,33.1l0.2,53.2l0.1,0.4c8,46.6,50.3,63.9,52.1,64.7l1.9,0.8l1.8-0.9
		C135,124.6,135.1,85.1,135.1,83.5z M126.1,83.5c0,1.4-0.4,34.8-45.2,58.6c-7.8-3.7-38.3-20.4-44.7-56.6L36,39.1l45-19.3l45,19.3
		V83.5z"/>
</g>
</svg>
