<?xml version="1.0" encoding="utf-8"?>
<!-- Generator: Adobe Illustrator 24.1.0, SVG Export Plug-In . SVG Version: 6.00 Build 0)  -->
<svg version="1.1" id="Buckets" xmlns="http://www.w3.org/2000/svg" xmlns:xlink="http://www.w3.org/1999/xlink" x="0px" y="0px"
	 viewBox="0 0 161.9 162" enable-background="new 0 0 161.9 162" xml:space="preserve">
<g>
	<path fill="#312D2A" d="M120.5,131.6c-4,0-7.3,3.3-7.3,7.3s3.3,7.3,7.3,7.3s7.3-3.3,7.3-7.3S124.6,131.6,120.5,131.6z M60,131.6
		c-4,0-7.3,3.3-7.3,7.3s3.3,7.3,7.3,7.3c4,0,7.3-3.3,7.3-7.3S64,131.6,60,131.6z M49.3,126.7h66c18.1,0,22.4-12.8,24.3-18.2l0.1-0.2
		c1.3-3.8,5.2-13.6,7.6-19.4c1.8-4.4,2.2-5.4,2.3-5.7l0-0.1c1.4-3.6,2-7.3,2-11.1c0-8.1-3.3-16-8.9-21.9l-0.4-0.4l0.1-0.5
		c0.2-1.3,0.4-2.5,0.4-3.8c0-11.4-9.3-20.7-20.7-20.7c-3.5,0-7,0.9-10.1,2.7l-0.7,0.4l-0.5-0.7c-5.8-7.2-14.4-11.3-23.7-11.3
		c-15.8,0-29.2,12.4-30.4,28.1l0,0.5l-0.5,0.3c-3.9,2.2-7.3,5.2-10,8.8l-1.3,1.7l-0.6-2.5c-1.9-8-3.4-14.2-4-16.5
		C36,20.4,19.3,19.1,10.8,20.6l1.7,9.3c1.1-0.2,4.8-0.6,8.8,0.2c1.9,0.4,7.9,1.6,9.7,8.6c0.6,2.3,2.3,9.2,4,16.6l0,0.2
		c1.8,7.5,3.8,15.8,5.5,22.8c0.1,0.7,0.3,1.3,0.5,1.9l0.4,1.2c3.1,9.8,11.2,17.7,20.9,20.6c2.9,0.8,5.9,1.3,8.9,1.3l50.2,0l0.4,0
		c2.9-0.1,5.8-0.7,8.5-1.6l2-0.7l-0.7,2c-0.4,1-0.6,1.8-0.9,2.4l-0.1,0.2c-1.7,4.9-3.7,11.1-15.3,11.1h-66V126.7z M120.2,93.8h-49
		c-2.1,0-4.2-0.3-6.2-0.9c-7-2.1-12.7-7.8-14.8-14.8l-0.5-1.9c-0.3-1.4-0.4-2.9-0.4-4.3c0-6.6,2.9-12.8,8.1-17
		c2-1.6,4.3-2.9,6.7-3.7c-0.2-1.4-0.4-2.8-0.4-4.1C63.8,34.4,74.2,24,87,24c6.2,0,12.1,2.1,16.6,5.9c3.2,2.7,5.5,6,6.5,9.4
		c2.3-3.5,6.5-5.9,11-5.9c6.8,0,12.3,5.5,12.3,12.3c0,2.7-0.8,5.2-2.4,7.3c2.7,1.5,5,3.6,6.9,6.1c2.8,3.8,4.2,8.2,4.2,12.9
		c0,7-3.2,13.4-8.8,17.6C129.5,92.4,125,93.8,120.2,93.8z M74.4,69.9l20.2,16.5l21-17.2V57.8L99.8,71.6V38h-9.3v33.7L74.4,58.4V69.9
		z"/>
</g>
</svg>
