<?xml version="1.0" encoding="utf-8"?>
<!-- Generator: Adobe Illustrator 24.1.0, SVG Export Plug-In . SVG Version: 6.00 Build 0)  -->
<svg version="1.1" id="MAX_Security_Zone" xmlns="http://www.w3.org/2000/svg" xmlns:xlink="http://www.w3.org/1999/xlink" x="0px"
	 y="0px" viewBox="0 0 161.9 162" enable-background="new 0 0 161.9 162" xml:space="preserve">
	<g>
<path fill="#312D2A" d="M66.6,49.7h17.8V61H66.6V49.7z M38.4,61h17.8V49.7H38.4V61z M20.5,106.4H9.2v17.8h11.3V106.4z M9.2,50v11
	v7.8h11.3V61H28V49.7H9.2V50z M20.5,78.2H9.2V96h11.3V78.2z M94.7,152.9h17.8v-11.3H94.7V152.9z M66.6,152.9h17.8v-11.3H66.6V152.9z
	 M38.4,152.9h17.8v-11.3H38.4V152.9z M20.5,133.9H9.2v7.7h0v11.3H28v-11.3h-7.5V133.9z M122.9,105.7l-1.7-0.7
	c-1-0.4-23.9-9.8-28.3-35.1l-0.1-0.3l-0.1-29.1l11.3-4.9V28c0-9.9,8.4-18,18.6-18s18.6,8.1,18.6,18v7.6l11.3,4.9v27.4
	c0,0.9,0,22.5-28.1,36.9L122.9,105.7z M112,32.2l10.6-4.6l10.6,4.6V28c0-5.5-4.8-10-10.6-10S112,22.5,112,28V32.2z M122.5,96.8
	c21.8-11.9,22.1-28.2,22.1-28.9V45.8l-21.9-9.4l-21.9,9.4l0.1,23.1C103.9,86.2,117.7,94.4,122.5,96.8z M130.3,133.9v7.7h-8.4v11.3
	h19.8l-0.1-19H130.3z M121.9,124h8.5v5.2h11.3V124h8.4l-14.1-21.7L121.9,124z"/>
	</g>
</svg>
