<?xml version="1.0" encoding="utf-8"?>
<!-- Generator: Adobe Illustrator 24.1.0, SVG Export Plug-In . SVG Version: 6.00 Build 0)  -->
<svg version="1.1" id="Policies" xmlns="http://www.w3.org/2000/svg" xmlns:xlink="http://www.w3.org/1999/xlink" x="0px" y="0px"
	 viewBox="0 0 161.9 162" enable-background="new 0 0 161.9 162" xml:space="preserve">
	<g>
<path fill="#312D2A" d="M9.4,152.5h94.7V123H9.4V152.5z M18.4,132h76.7v11.5H18.4V132z M94.7,74.6l20.7-30l-40-27.6L28.5,85.1
	l40,27.6L89.6,82l41.6,28.7l5.1-7.4L94.7,74.6z M77.7,29.6L102.9,47l-6.5,9.4L71.2,39L77.7,29.6z M66.2,100.2L41,82.8l6.1-8.8
	l25.2,17.4L66.2,100.2z M75.4,86.8L50.2,69.4l17.9-26l25.2,17.4L75.4,86.8z M152,114.1l-5.1,7.4l-11.7-8.1l5.1-7.4L152,114.1z"/></g>
</svg>
