<?xml version="1.0" encoding="utf-8"?>
<!-- Generator: Adobe Illustrator 24.1.0, SVG Export Plug-In . SVG Version: 6.00 Build 0)  -->
<svg version="1.1" id="Stream" xmlns="http://www.w3.org/2000/svg" xmlns:xlink="http://www.w3.org/1999/xlink" x="0px" y="0px"
	 viewBox="0 0 161.9 162" enable-background="new 0 0 161.9 162" xml:space="preserve">
	<g>
<path fill="#312D2A" d="M60.8,41.4h20.2V52H60.8h-4.5h-5.5V41.4h5.5H60.8z M91,52h10.1V41.4H91V52z M9.2,52h10.1V41.4H9.2V52z
	 M111.2,41.4V52h10.1V41.4H111.2z M75.9,75c-3.6,0-6.4,2.9-6.4,6.4c0,3.6,2.9,6.4,6.4,6.4c3.6,0,6.4-2.9,6.4-6.4
	C82.3,77.9,79.4,75,75.9,75z M35,40.6c-3.6,0-6.4,2.9-6.4,6.4s2.9,6.4,6.4,6.4c3.6,0,6.4-2.9,6.4-6.4S38.6,40.6,35,40.6z M131.8,35
	v23.3l21.6-11.6L131.8,35z M131.8,69.6v23.3l21.6-11.6L131.8,69.6z M131.8,104.2v23.3l21.6-11.6L131.8,104.2z M50.7,86.8h10.1V76.1
	H50.7V86.8z M101.1,76.1h-3.7H91v10.6h6.4h3.7h20.2V76.1H101.1z M19.4,76.1h-3.7H9.3v10.6h6.4h3.7h20.2V76.1H19.4z M56.2,110.6h-5.5
	v10.6h5.5h4.5h20.2v-10.6H60.8H56.2z M91,121.2h10.1v-10.6H91V121.2z M9.2,121.2h10.1v-10.6H9.2V121.2z M28.6,110.6v10.6h10.1v-10.6
	H28.6z M116.2,109.8c-3.6,0-6.4,2.9-6.4,6.4c0,3.6,2.9,6.4,6.4,6.4s6.4-2.9,6.4-6.4C122.6,112.7,119.8,109.8,116.2,109.8z"/></g>
</svg>
