<?xml version="1.0" encoding="utf-8"?>
<!-- Generator: Adobe Illustrator 24.0.2, SVG Export Plug-In . SVG Version: 6.00 Build 0)  -->
<svg version="1.1" id="Layer_1" xmlns="http://www.w3.org/2000/svg" xmlns:xlink="http://www.w3.org/1999/xlink" x="0px" y="0px"
	 viewBox="0 0 48.47 42.02" style="enable-background:new 0 0 48.47 42.02;" xml:space="preserve">
<style type="text/css">
	.st0{fill:#FFFFFF;}
	.st1{fill:#2C5967;}
</style>
<g>
	<g>
		<path class="st0" d="M22.5,41.52c-3.12,0-6.07-0.29-8.29-0.83c-2.95-0.71-4.39-1.78-4.39-3.29V22.9H0.54l0.11-1.52
			c0.27-3.67,2.39-6.89,5.65-8.61c0.71-0.38,1.21-1.04,1.36-1.81c0.51-2.6,2.26-4.78,4.68-5.85c1.02-0.45,2.15-0.68,3.26-0.68
			c0.25,0,0.5,0.01,0.75,0.03c0.09,0.01,0.17,0.01,0.26,0.01c0.71,0,1.36-0.28,1.82-0.78c1.72-1.85,4.01-2.96,6.51-3.15V0.54l1-0.02
			l0,0.01c3.69,0.08,6.99,2.17,8.65,5.49c0.12,0.24,0.29,0.47,0.48,0.67c0.24,0.35,0.56,0.8,0.84,1.2c3,0.1,5.73,1.67,7.33,4.24
			l0.04,0.07l0.35,1.53l4.12,4.12l-2.01,2.01l-1.3-1.3c-0.79,4.19-4.49,7.34-8.85,7.34c-0.14,0-0.28,0-0.42-0.01v11.53
			c0,1.5-1.44,2.58-4.39,3.29C28.57,41.23,25.62,41.52,22.5,41.52z"/>
		<path class="st0" d="M25.72,1.02c3.59,0,6.83,2,8.43,5.22c0.15,0.3,0.35,0.57,0.58,0.8c0.22,0.34,0.62,0.9,0.93,1.34
			c2.98,0.02,5.66,1.59,7.16,4.01l0.37,1.58l3.87,3.87l-1.3,1.3l-1.67-1.67c-0.3,4.42-3.99,7.92-8.48,7.92
			c-0.31,0-0.62-0.03-0.92-0.06v12.08c0,1.24-1.31,2.16-4,2.8c-2.2,0.53-5.1,0.81-8.18,0.81s-5.98-0.29-8.18-0.81
			c-2.69-0.64-4-1.56-4-2.8V22.4H1.08l0.07-0.99c0.26-3.5,2.27-6.56,5.39-8.2c0.85-0.45,1.44-1.23,1.62-2.16
			c0.48-2.44,2.12-4.49,4.39-5.49c0.97-0.42,2.01-0.64,3.06-0.64c0.24,0,0.47,0.01,0.7,0.03c0.1,0.01,0.2,0.01,0.31,0.01
			c0.84,0,1.63-0.33,2.19-0.94c1.74-1.87,4.1-2.94,6.65-3.01l0.02,0.92l-0.02-0.92C25.55,1.02,25.63,1.02,25.72,1.02 M26.44,0
			l-1,0.03c-0.01,0-0.01,0-0.02,0l-0.98,0.03l0,0.05C22,0.4,19.77,1.53,18.08,3.36c-0.37,0.4-0.89,0.62-1.46,0.62
			c-0.07,0-0.14,0-0.21-0.01c-0.27-0.02-0.53-0.04-0.8-0.04c-1.18,0-2.38,0.25-3.46,0.73c-2.57,1.13-4.43,3.45-4.97,6.21
			c-0.12,0.63-0.53,1.16-1.11,1.46c-3.42,1.8-5.63,5.17-5.92,9.01l-0.07,0.99L0,23.4h1.08h8.24v14.01c0,2.63,3.59,3.49,4.77,3.77
			c2.27,0.54,5.26,0.84,8.41,0.84c3.16,0,6.14-0.3,8.41-0.84c1.18-0.28,4.77-1.14,4.77-3.77V26.39c4.25-0.04,7.9-2.91,9.05-6.86
			l0.32,0.32l0.71,0.71l0.71-0.71l1.3-1.3l0.71-0.71l-0.71-0.71l-3.67-3.67l-0.3-1.31L43.76,12l-0.09-0.14
			c-1.64-2.63-4.41-4.27-7.48-4.46c-0.23-0.33-0.47-0.68-0.63-0.91l-0.05-0.08l-0.07-0.07c-0.16-0.17-0.3-0.35-0.39-0.55
			c-1.67-3.34-4.92-5.5-8.61-5.75L26.44,0L26.44,0z"/>
	</g>
	<path class="st1" d="M3.12,20.56h5.82v1.84H1.08l0.07-0.99c0.26-3.5,2.27-6.56,5.39-8.2c0.85-0.45,1.44-1.23,1.62-2.16
		c0.48-2.44,2.12-4.49,4.39-5.49c1.18-0.52,2.48-0.73,3.76-0.61c0.96,0.09,1.87-0.25,2.5-0.93c1.74-1.87,4.1-2.94,6.65-3.01h0
		c0.08,0,0.17,0,0.25,0c3.59,0,6.83,2,8.43,5.22c0.15,0.3,0.35,0.57,0.58,0.8c-0.69,0.06-1.37,0.19-2.01,0.39
		c-0.07-0.12-0.14-0.24-0.21-0.37c-1.29-2.59-3.9-4.2-6.79-4.2c-0.07,0-0.14,0-0.21,0c-2.05,0.05-3.96,0.92-5.36,2.42
		c-1.02,1.1-2.49,1.65-4.02,1.51c-0.97-0.09-1.95,0.07-2.85,0.46c-1.72,0.76-2.96,2.31-3.33,4.16c-0.29,1.47-1.23,2.72-2.57,3.43
		C5.14,16.02,3.59,18.12,3.12,20.56 M34.69,12h1.82l2.55,8.86h-1.96L36.66,19h-2.21l-0.43,1.86h-1.9L34.69,12z M34.8,17.49h1.52
		l-0.76-3.31L34.8,17.49z M27.12,16.3l-1.67-1.67l-1.3,1.3l3.87,3.87l3.87-3.87l-1.3-1.3l-1.62,1.62c0.32-3.38,3.18-6.02,6.63-6.02
		c2.5,0,4.74,1.4,5.88,3.52l1.34-1.34c-1.52-2.43-4.22-4.01-7.22-4.01C31.11,8.38,27.42,11.88,27.12,16.3 M47.06,17.84l-3.87-3.87
		l-3.87,3.87l1.3,1.3l1.62-1.62c-0.32,3.38-3.18,6.02-6.63,6.02c-2.5,0-4.74-1.4-5.88-3.52l-1.34,1.34
		c1.52,2.43,4.22,4.01,7.22,4.01c4.49,0,8.18-3.5,8.48-7.92l1.67,1.67L47.06,17.84z M32.85,26.58c0.59,0.18,1.21,0.3,1.84,0.36
		v10.46c0,1.24-1.31,2.16-4,2.8c-2.2,0.53-5.1,0.81-8.18,0.81s-5.98-0.29-8.18-0.81c-2.69-0.64-4-1.56-4-2.8V17.8
		c0-1.25,1.32-2.14,4.02-2.73c2.13-0.46,5.03-0.72,8.16-0.72c0.15,0,0.31,0,0.46,0v1.84c-0.15,0-0.3,0-0.46,0
		c-6.55,0-9.93,1.07-10.34,1.67v0.11c0.44,0.67,4.19,1.84,10.34,1.84c1.27,0,2.44-0.05,3.5-0.13c0.18,0.62,0.41,1.22,0.7,1.78
		c-1.32,0.12-2.74,0.19-4.2,0.19c-3.08,0-5.98-0.29-8.18-0.81c-0.86-0.21-1.58-0.44-2.17-0.71v4.28c0.44,0.67,4.19,1.84,10.34,1.84
		c3.41,0,6.07-0.36,7.85-0.79c0.76,0.48,1.59,0.86,2.47,1.12c-0.58,0.26-1.29,0.49-2.14,0.69c-2.2,0.53-5.1,0.81-8.18,0.81
		s-5.98-0.29-8.18-0.81c-0.86-0.21-1.58-0.44-2.17-0.71v4.33c0.44,0.67,4.19,1.84,10.34,1.84s9.91-1.17,10.34-1.84V26.58z
		 M32.85,33.06c-0.58,0.26-1.3,0.5-2.17,0.71c-2.2,0.53-5.1,0.81-8.18,0.81s-5.98-0.29-8.18-0.81c-0.86-0.21-1.58-0.44-2.17-0.71
		v4.29c0.39,0.56,3.79,1.84,10.34,1.84s9.96-1.27,10.34-1.84V33.06z"/>
</g>
</svg>
