<?xml version="1.0" encoding="utf-8"?>
<!-- Generator: Adobe Illustrator 24.0.2, SVG Export Plug-In . SVG Version: 6.00 Build 0)  -->
<svg version="1.1" id="Layer_1" xmlns="http://www.w3.org/2000/svg" xmlns:xlink="http://www.w3.org/1999/xlink" x="0px" y="0px"
	 viewBox="0 0 44.5 42" style="enable-background:new 0 0 44.5 42;" xml:space="preserve">
<g>
	<g>
		<path style="fill:#FFFFFF;" d="M22.3,41.5c-0.6,0-1.2,0-1.8,0c-1.6-0.1-3.9-0.2-6.1-0.7c-0.7-0.1-1.3-0.3-1.8-0.5
			c-0.6-0.2-1.1-0.4-1.5-0.7c-1-0.6-1.5-1.3-1.5-2.2V22.7h-9l0.1-1.5c0.3-3.6,2.4-6.8,5.6-8.5c0.7-0.4,1.2-1,1.3-1.8
			C8.1,8.3,9.8,6.1,12.2,5c1-0.4,2.1-0.7,3.2-0.7c0.2,0,0.5,0,0.7,0c0.1,0,0.2,0,0.3,0c0.7,0,1.3-0.3,1.8-0.8c1.9-2,4.5-3.1,7.2-3.1
			c3.8,0,7.1,2.1,8.8,5.4c0.4,0.7,1,1.2,1.8,1.4c1.1,0.2,2.2,0.7,3.2,1.3c4.5,2.8,6,8.6,3.5,13.3l-0.4,0.7h-7.5v14.8
			c0,0.7-0.3,1.2-0.9,1.8c-0.2,0.1-0.4,0.3-0.6,0.4c-2.1,1.2-6.1,1.7-8.3,1.8C24.1,41.5,23.2,41.5,22.3,41.5z"/>
		<path style="fill:#FFFFFF;" d="M25.5,1c3.6,0,6.8,2,8.4,5.2C34.3,7,35.1,7.6,36,7.8c1.1,0.2,2.1,0.7,3,1.2
			c4.2,2.7,5.7,8.2,3.3,12.6l-0.3,0.5h-7.7v15.3c0,0.5-0.3,1-0.7,1.4c-0.2,0.1-0.3,0.3-0.5,0.4c-1.8,1-5.1,1.5-8.1,1.7
			c-1,0.1-2,0.1-2.8,0.1c-0.6,0-1.2,0-1.8,0c-1.9-0.1-4.1-0.3-6-0.7c-0.6-0.1-1.2-0.3-1.7-0.5s-1-0.4-1.4-0.6
			c-0.8-0.5-1.3-1-1.3-1.7V22.2h-9l0.1-1c0.3-3.5,2.3-6.5,5.3-8.1c0.8-0.4,1.4-1.2,1.6-2.1c0.5-2.4,2.1-4.4,4.4-5.4
			c1-0.4,2-0.6,3-0.6c0.2,0,0.5,0,0.7,0c0.1,0,0.2,0,0.3,0c0.8,0,1.6-0.3,2.2-0.9C20.4,2.1,22.9,1,25.5,1 M25.5,0
			c-2.9,0-5.6,1.2-7.6,3.3c-0.4,0.4-0.9,0.6-1.4,0.6c-0.1,0-0.1,0-0.2,0c-0.3,0-0.5,0-0.8,0c-1.2,0-2.4,0.2-3.4,0.7
			C9.5,5.7,7.7,8,7.1,10.7C7,11.4,6.6,11.9,6,12.2c-3.4,1.8-5.6,5.1-5.9,8.9l-0.1,1L0,23.2h1.1h8v14.3c0,0.7,0.3,1.7,1.8,2.6
			c0.4,0.3,1,0.5,1.6,0.7c0.5,0.2,1.2,0.4,1.8,0.5c2.2,0.5,4.5,0.6,6.1,0.7c0.6,0,1.3,0,1.9,0c0.9,0,1.9,0,2.9-0.1
			c2.7-0.2,6.5-0.6,8.6-1.9c0.2-0.1,0.5-0.3,0.7-0.5c0.9-0.8,1.1-1.6,1.1-2.1V23.2h6.7h0.6l0.3-0.5l0.3-0.5c2.6-4.9,1-11-3.7-13.9
			c-1-0.7-2.2-1.1-3.3-1.4c-0.6-0.1-1.2-0.6-1.5-1.1C33,2.2,29.4,0,25.5,0L25.5,0z"/>
	</g>
	<g>
		<path style="fill:#2C5967;" d="M39,9.1c-0.9-0.6-2-1-3-1.2c-0.9-0.2-1.7-0.8-2.1-1.7C32.3,3,29.1,1,25.5,1c-2.6,0-5.1,1.1-6.8,3
			c-0.6,0.7-1.5,1-2.5,0.9c-1.3-0.1-2.6,0.1-3.7,0.6c-2.3,1-3.9,3-4.4,5.4c-0.2,0.9-0.8,1.7-1.6,2.1c-3.1,1.6-5.1,4.7-5.3,8.1
			l-0.1,1h5.7H7h2v-1.8H7H6.8H3.1c0.5-2.4,2-4.5,4.2-5.7c1.3-0.7,2.3-1.9,2.5-3.4c0.4-1.8,1.6-3.4,3.3-4.1C14.1,6.8,15,6.6,16,6.7
			c1.5,0.1,3-0.4,4-1.5c1.4-1.5,3.4-2.4,5.5-2.4c2.9,0,5.4,1.6,6.7,4.2c0.7,1.3,1.9,2.3,3.4,2.6c0.9,0.2,1.7,0.5,2.5,1
			c3.3,2.1,4.5,6.3,2.9,9.7h-5.6v1.8h6.7l0.3-0.5C44.7,17.3,43.3,11.7,39,9.1z"/>
		<path style="fill:#2C5967;" d="M34.4,17.6C34.4,17.6,34.4,17.5,34.4,17.6c0-0.1,0-0.2,0-0.2c0-0.5-0.3-1-0.7-1.4
			c-0.2-0.1-0.3-0.3-0.5-0.4c-1.8-1.1-5.1-1.6-8.1-1.8c-1-0.1-2-0.1-2.8-0.1c-0.6,0-1.2,0-1.8,0c-1.9,0.1-4.1,0.3-6,0.7
			c-0.6,0.1-1.2,0.3-1.7,0.5c-0.5,0.2-1,0.4-1.4,0.6c-0.8,0.5-1.3,1.1-1.3,1.8c0,0,0,0.1,0,0.1c0,0,0,0.1,0,0.1v6.3v0.3v6.4v0.2v6.6
			c0,0.7,0.5,1.3,1.3,1.7c0.4,0.2,0.9,0.4,1.4,0.6s1.1,0.3,1.7,0.5c1.9,0.4,4,0.6,6,0.7c0.6,0,1.3,0,1.8,0c0.8,0,1.8,0,2.8-0.1
			c3-0.2,6.3-0.7,8.1-1.7c0.2-0.1,0.4-0.2,0.5-0.4c0.5-0.4,0.7-0.8,0.7-1.4v-6.6v-0.2v-6.4v-0.3V17.6z M22.2,15.4
			c6.4,0,10.2,1.3,10.5,2c-0.3,0.7-4.2,2-10.5,2s-10.2-1.3-10.5-2C12.1,16.7,15.9,15.4,22.2,15.4z M11.7,19.4
			C14.2,20.7,19,21,22.2,21s8-0.4,10.5-1.6v4.8c-0.2,0.4-3.2,1.9-10.5,1.9S12,24.7,11.7,24.2V19.4z M32.8,26.2v4.6
			c-0.2,0.4-3.2,1.9-10.5,1.9S12,31.3,11.7,30.8v-4.6c2.5,1.2,7.3,1.6,10.5,1.6S30.3,27.4,32.8,26.2z M22.2,39.4
			c-7.3,0-10.3-1.5-10.5-1.9v-4.7c2.5,1.2,7.3,1.6,10.5,1.6s8-0.4,10.5-1.6v4.7C32.5,37.9,29.6,39.4,22.2,39.4z"/>
	</g>
</g>
</svg>
