<svg xmlns="http://www.w3.org/2000/svg" viewBox="0 0 41.93 42"><defs><style>.cls-1{fill:#fff;}.cls-2{fill:#2c5967;}</style></defs><title>DisconnectedRegions</title><g id="Layer_2" data-name="Layer 2"><g id="Layer_1-2" data-name="Layer 1"><path class="cls-1" d="M2.58,41.5A2.08,2.08,0,0,1,.5,39.42V16.61a2.08,2.08,0,0,1,2.08-2.07H7.76l0-.06h0l.42-.76a16,16,0,0,1,3.49-4l.22-.18c.32-.26.65-.51,1-.74.09-.07.38-.25.38-.25q.38-.26.78-.48l.59-.32.41-.2c.51-.24,1-.43,1.41-.6l.21-.07A16,16,0,0,1,22,5.91c.4,0,.82,0,1.26,0a.49.49,0,0,0,.06-.17,4.27,4.27,0,0,1,4.21-3.47,2.82,2.82,0,0,1,.41,0h0a.63.63,0,0,0,.5-.19,5.14,5.14,0,0,1,8.37,1.2.69.69,0,0,0,.48.37A5.13,5.13,0,0,1,39,4.41a5.27,5.27,0,0,1,1.82,6.94l-.34.64H34.62a16.08,16.08,0,0,1-3.12,23.1v1.17a2.08,2.08,0,0,1-2.08,2.08H23.25v1.08a2.08,2.08,0,0,1-2.07,2.08Z"/><path class="cls-1" d="M32.24,1a4.61,4.61,0,0,1,4.15,2.58,1.22,1.22,0,0,0,.82.63,4.76,4.76,0,0,1,3.15,6.91l-.2.37H33.53A15.58,15.58,0,0,1,31,34.83v1.43a1.58,1.58,0,0,1-1.58,1.58H22.75v1.58A1.57,1.57,0,0,1,21.18,41H2.58A1.58,1.58,0,0,1,1,39.42V16.61A1.57,1.57,0,0,1,2.58,15H8.06c.18-.36.38-.71.59-1.06H8.6A15.71,15.71,0,0,1,12,10.06l.21-.17q.46-.37,1-.72l.37-.24c.25-.16.5-.32.75-.46l.58-.31.46-.23c.43-.2.86-.38,1.31-.55l.2-.07A15.63,15.63,0,0,1,22,6.41c.5,0,1,0,1.49.07a1.11,1.11,0,0,0,.32-.59,3.8,3.8,0,0,1,3.72-3.07H28a1.13,1.13,0,0,0,.82-.35A4.62,4.62,0,0,1,32.24,1m0-1A5.66,5.66,0,0,0,28.1,1.81a.1.1,0,0,1-.08,0,3.86,3.86,0,0,0-.47,0,4.94,4.94,0,0,0-1.93.4,4.82,4.82,0,0,0-2.71,3.21l-.89,0a16.55,16.55,0,0,0-5.53,1l-.14,0-.07,0c-.47.18-.94.38-1.39.59l-.08,0-.41.2-.61.33c-.27.15-.54.32-.8.49l-.1.06-.3.2c-.33.22-.66.47-1,.76l-.23.18a16.79,16.79,0,0,0-3.59,4.17L7.4,14H2.58A2.58,2.58,0,0,0,0,16.61V39.42A2.59,2.59,0,0,0,2.58,42h18.6a2.58,2.58,0,0,0,2.57-2.58v-.58h5.67A2.58,2.58,0,0,0,32,36.26v-.92a16.58,16.58,0,0,0,3.62-22.85h5.14L41,12l.2-.37a5.78,5.78,0,0,0-2-7.6,5.87,5.87,0,0,0-1.83-.76.19.19,0,0,1-.13-.1,5.61,5.61,0,0,0-5-3.13Z"/><path class="cls-2" d="M10.28,14A14.24,14.24,0,0,1,20.41,7.93a6,6,0,0,1,1.31-1.49A15.64,15.64,0,0,0,8.6,14Z"/><path class="cls-2" d="M32.51,12.54a14.16,14.16,0,0,1-.46,19.51V34a15.58,15.58,0,0,0,2.29-21.42Z"/><path class="cls-2" d="M31,19.77a1.58,1.58,0,0,0-1.58-1.58H23.81V19.6h5.61a.18.18,0,0,1,.18.17V36.26a.18.18,0,0,1-.18.18H23.81v1.4h5.61A1.58,1.58,0,0,0,31,36.26Z"/><polygon class="cls-2" points="23.81 22.05 27.14 22.05 27.14 23.46 23.81 23.46 23.81 24.86 28.54 24.86 28.54 20.65 23.81 20.65 23.81 22.05"/><polygon class="cls-2" points="23.81 28.72 23.81 30.12 28.54 30.12 28.54 25.91 23.81 25.91 23.81 27.32 27.14 27.32 27.14 28.72 23.81 28.72"/><polygon class="cls-2" points="28.54 31.18 23.81 31.18 23.81 32.58 27.14 32.58 27.14 33.98 23.81 33.98 23.81 35.39 28.54 35.39 28.54 31.18"/><path class="cls-2" d="M22.75,16.61A1.57,1.57,0,0,0,21.18,15H2.58A1.57,1.57,0,0,0,1,16.61V39.42A1.58,1.58,0,0,0,2.58,41h18.6a1.57,1.57,0,0,0,1.57-1.58Zm-1.57,23H2.58a.18.18,0,0,1-.18-.18V16.61a.18.18,0,0,1,.18-.17h18.6a.18.18,0,0,1,.17.17V39.42A.18.18,0,0,1,21.18,39.6Z"/><path class="cls-2" d="M20.3,23.81V17.49H3.46v6.32ZM4.86,18.89h14V22.4h-14Z"/><circle class="cls-2" cx="17.14" cy="20.65" r="0.7"/><path class="cls-2" d="M11.7,31.18h8.6V24.86H3.46v6.32ZM4.86,26.26h14v3.51h-14Z"/><circle class="cls-2" cx="17.14" cy="28.02" r="0.7"/><path class="cls-2" d="M20.3,38.54V32.23H3.46v6.31ZM4.86,33.63h14v3.51h-14Z"/><circle class="cls-2" cx="17.14" cy="35.39" r="0.7"/><path class="cls-2" d="M38.71,4.83a4.81,4.81,0,0,0-1.5-.62,1.22,1.22,0,0,1-.82-.63,4.63,4.63,0,0,0-7.55-1.09,1.11,1.11,0,0,1-.93.34,3.81,3.81,0,0,0-4.08,3.06,1.19,1.19,0,0,1-.61.81,5,5,0,0,0-2.64,4l-.06.76h7.83a4.48,4.48,0,0,1-1.11-1.41H22.12a3.56,3.56,0,0,1,1.76-2.14,2.6,2.6,0,0,0,1.33-1.78,2.42,2.42,0,0,1,1.38-1.74,2.39,2.39,0,0,1,1.18-.19,2.5,2.5,0,0,0,2.1-.79,3.2,3.2,0,0,1,2.37-1,3.24,3.24,0,0,1,2.9,1.8A2.57,2.57,0,0,0,36.9,5.58,3.18,3.18,0,0,1,38,6a3.38,3.38,0,0,1,1.34,4.06H31.07a1.74,1.74,0,0,1-1.72-1.75H27.94a3.15,3.15,0,0,0,3.13,3.16h9.09l.2-.37A4.78,4.78,0,0,0,38.71,4.83Z"/></g></g></svg>