<?xml version="1.0" encoding="utf-8"?>
<!-- Generator: Adobe Illustrator 24.0.2, SVG Export Plug-In . SVG Version: 6.00 Build 0)  -->
<svg version="1.1" id="Layer_1" xmlns="http://www.w3.org/2000/svg" xmlns:xlink="http://www.w3.org/1999/xlink" x="0px" y="0px"
	 viewBox="0 0 46.07 42.21" style="enable-background:new 0 0 46.07 42.21;" xml:space="preserve">
<style type="text/css">
	.st0{fill:#FFFFFF;}
	.st1{fill:#2C5967;}
</style>
<g>
	<g>
		<g>
			<g>
				<path class="st0" d="M29.38,41.37c-9.13-4.57-14.62-11.69-15.07-19.52l0-4.47h-3.3l1.72,1.72l-1.75,1.75l-4.76-4.76l4.76-4.76
					l1.75,1.75l-1.82,1.82h3.4V7.24l15.63-6.7l15.63,6.7l0,14.58c-0.45,7.86-5.94,14.97-15.07,19.55l-0.55,0.28L29.38,41.37z"/>
				<path class="st0" d="M29.94,1.09l15.13,6.48l0,14.25c-0.43,7.65-5.83,14.61-14.8,19.1l-0.33,0.17l-0.33-0.17
					c-8.96-4.49-14.36-11.45-14.79-19.1l0-0.04v-4.9H9.8l1.11,1.11l1.12,1.12l-1.04,1.04l-2.16-2.16L8.53,17.7l-1.61-1.61l1.61-1.61
					l0.19-0.19l2.26-2.26l1.04,1.04l-1.22,1.22L9.7,15.4h5.11V14.3V7.57L29.94,1.09 M29.94,0l-0.39,0.17L14.42,6.65l-0.61,0.26v0.66
					v6.73v0.11h-1.7l0.62-0.62l0.71-0.71l-0.71-0.71l-1.04-1.04l-0.71-0.71l-0.71,0.71l-2.26,2.26l-0.19,0.19l-1.61,1.61l-0.71,0.71
					l0.71,0.71l1.61,1.61l0.29,0.29l2.16,2.16l0.71,0.71l0.71-0.71l1.04-1.04l0.71-0.71l-0.71-0.71l-0.52-0.52h1.59v3.9v0.01l0,0.06
					c0.46,8.04,6.05,15.31,15.35,19.97l0.33,0.17l0.45,0.22l0.45-0.22l0.33-0.17c9.3-4.66,14.89-11.92,15.35-19.94l0-0.03v-0.03
					l0-14.25l0-0.66l-0.61-0.26L30.33,0.17L29.94,0L29.94,0z"/>
			</g>
			<g>
				<path class="st0" d="M2.79,26.63c-1.27,0-2.29-1.03-2.29-2.29c0-1.27,1.03-2.29,2.29-2.29c1.27,0,2.29,1.03,2.29,2.29
					C5.09,25.6,4.06,26.63,2.79,26.63z"/>
				<path class="st0" d="M2.79,22.54c0.99,0,1.79,0.8,1.79,1.79c0,0.99-0.8,1.79-1.79,1.79C1.8,26.13,1,25.33,1,24.34
					C1,23.34,1.8,22.54,2.79,22.54 M2.79,21.54C1.25,21.54,0,22.79,0,24.34c0,1.54,1.25,2.79,2.79,2.79c1.54,0,2.79-1.25,2.79-2.79
					C5.59,22.79,4.34,21.54,2.79,21.54L2.79,21.54z"/>
			</g>
			<g>
				<path class="st0" d="M7.28,26.63c-1.27,0-2.29-1.03-2.29-2.29c0-1.27,1.03-2.29,2.29-2.29c1.16,0,2.14,0.87,2.28,2.02
					c0.01,0.09,0.02,0.18,0.02,0.28c0,0.09-0.01,0.19-0.02,0.28C9.42,25.76,8.44,26.63,7.28,26.63z"/>
				<path class="st0" d="M7.28,22.54c0.92,0,1.67,0.69,1.78,1.58c0.01,0.07,0.01,0.14,0.01,0.22s-0.01,0.15-0.01,0.22
					c-0.11,0.89-0.86,1.58-1.78,1.58c-0.99,0-1.79-0.8-1.79-1.79C5.49,23.34,6.29,22.54,7.28,22.54 M7.28,21.54
					c-1.54,0-2.79,1.25-2.79,2.79c0,1.54,1.25,2.79,2.79,2.79c1.41,0,2.6-1.06,2.77-2.46c0.01-0.11,0.02-0.22,0.02-0.34
					c0-0.11-0.01-0.23-0.02-0.34C9.89,22.6,8.69,21.54,7.28,21.54L7.28,21.54z"/>
			</g>
			<g>
				<path class="st0" d="M11.77,26.63c-1.27,0-2.29-1.03-2.29-2.29c0-1.27,1.03-2.29,2.29-2.29c1.27,0,2.29,1.03,2.29,2.29
					C14.06,25.6,13.03,26.63,11.77,26.63z"/>
				<path class="st0" d="M11.77,22.54c0.99,0,1.79,0.8,1.79,1.79c0,0.99-0.8,1.79-1.79,1.79s-1.79-0.8-1.79-1.79
					C9.97,23.34,10.78,22.54,11.77,22.54 M11.77,21.54c-1.54,0-2.79,1.25-2.79,2.79c0,1.54,1.25,2.79,2.79,2.79s2.79-1.25,2.79-2.79
					C14.56,22.79,13.31,21.54,11.77,21.54L11.77,21.54z"/>
			</g>
		</g>
		<g>
			<path class="st1" d="M29.94,1.09L14.81,7.57v6.73h1.48V8.54l13.65-5.85l13.65,5.85v13.22c-0.41,7-5.38,13.43-13.65,17.68
				c-8.27-4.25-13.24-10.67-13.65-17.68v-3.77h-1.48v3.79l0,0.04c0.44,7.65,5.83,14.61,14.79,19.1l0.33,0.17l0.33-0.17
				c8.97-4.49,14.36-11.45,14.8-19.1l0-14.25L29.94,1.09z"/>
			<circle class="st1" cx="2.79" cy="24.34" r="1.79"/>
			<path class="st1" d="M9.06,24.12c-0.11-0.89-0.86-1.58-1.78-1.58c-0.99,0-1.79,0.8-1.79,1.79c0,0.99,0.8,1.79,1.79,1.79
				c0.92,0,1.67-0.69,1.78-1.58c0.01-0.07,0.01-0.14,0.01-0.22S9.07,24.19,9.06,24.12z"/>
			<circle class="st1" cx="11.77" cy="24.34" r="1.79"/>
			<polygon class="st1" points="19.34,21.83 21.9,24.39 19.34,26.95 20.38,28 23.99,24.39 20.38,20.78 			"/>
			<path class="st1" d="M29.73,16.88c1.88,0,3.41,1.53,3.41,3.41s-1.53,3.41-3.41,3.41h-4.28v1.48h4.28c2.7,0,4.89-2.19,4.89-4.89
				s-2.19-4.89-4.89-4.89H9.7l1.11-1.11l1.22-1.22l-1.04-1.04L8.72,14.3l-0.19,0.19l-1.61,1.61l1.61,1.61l0.29,0.29l2.16,2.16
				l1.04-1.04l-1.12-1.12L9.8,16.88H29.73z"/>
		</g>
	</g>
</g>
</svg>
