<svg id="Layer_1" data-name="Layer 1" xmlns="http://www.w3.org/2000/svg" viewBox="0 0 56.93 42">
   <title>Groups</title>
   <g>
      <path
         d="M.5,41.5V26.31A5.36,5.36,0,0,1,5.85,21H8v-.31a7.44,7.44,0,1,1,7.73-.15h.5a6.3,6.3,0,0,1,5-2.45h2.6V17A8.89,8.89,0,1,1,33,17v1h2.66a6.44,6.44,0,0,1,5,2.45h.5a7.44,7.44,0,1,1,7.8.11V21h2a5.36,5.36,0,0,1,5.35,5.35V41.5Z"
         fill="#fff" />
      <path
         d="M28.42,1a8.39,8.39,0,0,1,4.1,15.72v1.83h3.16A6,6,0,0,1,40.48,21h3.23a6.94,6.94,0,1,1,3,0h1.8v.46h2.55a4.86,4.86,0,0,1,4.85,4.85V41H1V26.31a4.86,4.86,0,0,1,4.85-4.85H8.47V21H10.2a6.94,6.94,0,1,1,3,0h3.23a5.78,5.78,0,0,1,4.72-2.45h3.1V16.68A8.39,8.39,0,0,1,28.42,1m0-1a9.39,9.39,0,0,0-5.15,17.24v.31h-2.1a6.63,6.63,0,0,0-2.5.49,7.94,7.94,0,1,0-14.9-3.81,8,8,0,0,0,3,6.23h-1A5.86,5.86,0,0,0,0,26.31V42H56.93V26.31a5.86,5.86,0,0,0-5.85-5.85h-1a7.94,7.94,0,1,0-12.84-6.23,7.87,7.87,0,0,0,1,3.83,7,7,0,0,0-2.6-.51H33.52v-.26A9.4,9.4,0,0,0,28.42,0Z"
         fill="#fff" />
      <path
         d="M45.22,21.17a6.95,6.95,0,1,0-6.94-6.94A7,7,0,0,0,45.22,21.17ZM45.22,9A5.27,5.27,0,1,1,40,14.23,5.28,5.28,0,0,1,45.22,9Z"
         fill="#BB501C" />
      <path
         d="M51.08,21.46H49.65l-.25.33a5.27,5.27,0,0,1-8.36,0l-.25-.33h-.08a5.82,5.82,0,0,0-5-2.91H34l-.25.33a6.72,6.72,0,0,1-10.66,0l-.25-.33H21.17a5.81,5.81,0,0,0-5,2.91h0l-.25.33a5.27,5.27,0,0,1-8.36,0l-.25-.33H5.85A4.86,4.86,0,0,0,1,26.31V41H2.68V26.31a3.18,3.18,0,0,1,3.17-3.18h.62a7,7,0,0,0,8.89,1.36V41H17V24.36a4.13,4.13,0,0,1,4.13-4.13H22a8.41,8.41,0,0,0,12.79,0h.86a4.13,4.13,0,0,1,4.13,4.13V41h1.68V24.43a6.93,6.93,0,0,0,9-1.3h.62a3.19,3.19,0,0,1,3.18,3.18V41h1.67V26.31A4.86,4.86,0,0,0,51.08,21.46Z"
         fill="#BB501C" />
      <path
         d="M11.71,21.17a6.95,6.95,0,1,0-6.94-6.94A7,7,0,0,0,11.71,21.17ZM11.71,9a5.27,5.27,0,1,1-5.27,5.27A5.27,5.27,0,0,1,11.71,9Z"
         fill="#BB501C" />
      <path
         d="M28.42,17.79A8.4,8.4,0,1,0,20,9.4,8.4,8.4,0,0,0,28.42,17.79Zm0-15.11A6.72,6.72,0,1,1,21.7,9.4,6.73,6.73,0,0,1,28.42,2.68Z"
         fill="#BB501C" />
      <polygon points="21.17 30.64 20.33 30.64 20.33 41 20.75 41 22.01 41 22.01 32.32 21.17 30.64" fill="#BB501C" />
      <polygon points="35.62 30.64 35.62 30.64 34.78 32.32 34.78 41 36.18 41 36.46 41 36.46 30.64 35.62 30.64"
         fill="#BB501C" />
      <polygon points="50.07 33.99 50.07 41 51.75 41 51.75 32.32 50.91 32.32 50.07 33.99" fill="#BB501C" />
      <polygon points="5.18 32.32 5.18 41 6.85 41 6.85 33.99 6.01 32.32 5.18 32.32" fill="#BB501C" />
   </g>
</svg>