<?xml version="1.0" encoding="utf-8"?>
<!-- Generator: Adobe Illustrator 24.0.2, SVG Export Plug-In . SVG Version: 6.00 Build 0)  -->
<svg version="1.1" id="Layer_1" xmlns="http://www.w3.org/2000/svg" xmlns:xlink="http://www.w3.org/1999/xlink" x="0px" y="0px"
	 viewBox="0 0 61.13 42" style="enable-background:new 0 0 61.13 42;" xml:space="preserve">
<style type="text/css">
	.st0{fill:#FFFFFF;}
	.st1{fill:#2C5967;}
</style>
<g>
	<g>
		<g>
			<path class="st0" d="M42.24,41.5v-3.98H8.2V18.77c-4.42-0.72-7.7-4.54-7.7-9.07c0-5.07,4.13-9.2,9.2-9.2
				c3.41,0,6.58,1.94,8.15,4.97h35.08v17.64h7.7V41.5H42.24z"/>
			<path class="st0" d="M9.7,1c3.46,0,6.45,2.04,7.84,4.97h34.89v17.64h7.7V41H42.74v-3.98H8.7V18.33C4.37,17.83,1,14.15,1,9.7
				C1,4.9,4.9,1,9.7,1 M9.7,0C4.35,0,0,4.35,0,9.7c0,4.63,3.25,8.56,7.7,9.49v17.84v1h1h33.04V41v1h1h17.39h1v-1V23.61v-1h-1h-6.7
				V5.97v-1h-1H18.15C16.44,1.93,13.19,0,9.7,0L9.7,0z"/>
		</g>
		<g>
			<path class="st1" d="M48.58,7.96L30.57,22.22l-11.33-8.97c-0.24,0.64-0.54,1.25-0.9,1.82l12.22,9.68L50.44,9.02v13.1h1.99V5.97
				H19.17c0.25,0.63,0.44,1.3,0.56,1.99H48.58z"/>
			<path class="st1" d="M10.69,35.04v-15.2c-0.33,0.03-0.66,0.05-0.99,0.05c-0.34,0-0.67-0.02-0.99-0.05v17.19h32.55v-1.99H10.69z"
				/>
			<path class="st1" d="M18.39,9.7c0-4.79-3.9-8.7-8.7-8.7S1,4.9,1,9.7s3.9,8.7,8.7,8.7S18.39,14.49,18.39,9.7z M9.7,2.99
				c3.7,0,6.71,3.01,6.71,6.71S13.39,16.4,9.7,16.4S2.99,13.39,2.99,9.7S6,2.99,9.7,2.99z"/>
			<path class="st1" d="M7.5,13.95c0.76,0.45,1.59,0.67,2.48,0.67c0.49,0,0.97-0.07,1.43-0.21c0.47-0.14,0.9-0.35,1.31-0.63
				l-0.56-0.82l-0.13,0.08c-0.63,0.39-1.32,0.58-2.06,0.58c-0.72,0-1.38-0.18-1.99-0.53c-0.6-0.35-1.07-0.82-1.42-1.42
				c-0.35-0.61-0.53-1.27-0.53-1.99c0-0.72,0.18-1.38,0.53-1.99c0.35-0.6,0.82-1.07,1.42-1.42C8.6,5.93,9.26,5.75,9.98,5.75
				c0.72,0,1.38,0.18,1.99,0.53c0.6,0.35,1.07,0.82,1.42,1.42c0.35,0.61,0.53,1.27,0.53,1.99v0.46c-0.02,0.2-0.1,0.37-0.24,0.5
				c-0.14,0.13-0.31,0.2-0.51,0.2c-0.24,0-0.43-0.11-0.6-0.32c-0.1-0.13-0.14-0.29-0.14-0.45V7.21h-1.24v0.51
				c-0.47-0.34-1-0.51-1.6-0.51c-0.48,0-0.93,0.12-1.33,0.35C7.85,7.8,7.53,8.11,7.29,8.51C7.06,8.9,6.94,9.34,6.94,9.81
				c0,0.48,0.12,0.91,0.36,1.31c0.24,0.4,0.56,0.71,0.96,0.94c0.4,0.23,0.85,0.35,1.33,0.35c0.43,0,0.84-0.09,1.21-0.28
				c0.37-0.19,0.68-0.44,0.93-0.77c0.17,0.17,0.37,0.3,0.59,0.39c0.32,0.14,0.67,0.18,1.05,0.12c0.11-0.02,0.22-0.05,0.33-0.09
				c0.45-0.19,0.79-0.49,1.01-0.9c0.12-0.22,0.2-0.61,0.2-0.86V9.55c-0.03-0.87-0.27-1.68-0.72-2.43c-0.44-0.72-1.03-1.29-1.76-1.72
				c-0.76-0.43-1.57-0.65-2.45-0.65c-0.89,0-1.72,0.22-2.48,0.67C6.75,5.87,6.15,6.46,5.72,7.21C5.27,7.97,5.05,8.8,5.05,9.69
				c0,0.89,0.22,1.72,0.67,2.48C6.15,12.92,6.75,13.52,7.5,13.95z M11.11,10.47c-0.14,0.24-0.33,0.43-0.57,0.57
				c-0.24,0.14-0.5,0.21-0.78,0.21c-0.28,0-0.54-0.07-0.78-0.21c-0.24-0.14-0.43-0.33-0.57-0.57C8.27,10.23,8.2,9.97,8.2,9.69
				c0-0.28,0.07-0.54,0.21-0.78c0.14-0.24,0.33-0.43,0.57-0.57c0.24-0.14,0.5-0.21,0.78-0.21c0.28,0,0.54,0.07,0.78,0.21
				c0.24,0.14,0.43,0.33,0.57,0.57c0.14,0.24,0.21,0.5,0.21,0.78C11.33,9.97,11.26,10.23,11.11,10.47z"/>
			<path class="st1" d="M42.74,23.61V41h17.39V23.61H42.74z M58.14,39.01H44.73V25.6h13.42V39.01z"/>
			<path class="st1" d="M49.7,27.58v1.35c-0.19,0.09-0.36,0.18-0.53,0.3l-1.45-0.85l-1.49,2.54l1.31,0.77
				c-0.05,0.24-0.07,0.48-0.07,0.74c0,0.11,0.01,0.21,0.02,0.31l-1.25,0.73l1.49,2.54l1.11-0.65c0.26,0.22,0.55,0.41,0.87,0.55v1.35
				h3.23v-1.35c0.32-0.15,0.61-0.33,0.87-0.55l1.11,0.65l1.49-2.54l-1.25-0.73c0.01-0.1,0.02-0.21,0.02-0.31
				c0-0.25-0.03-0.5-0.07-0.74l1.31-0.77l-1.49-2.54l-1.45,0.85c-0.17-0.11-0.35-0.21-0.53-0.3v-1.35H49.7z M51.31,34.29
				c-1.03,0-1.86-0.84-1.86-1.86c0-1.03,0.84-1.86,1.86-1.86c1.03,0,1.86,0.84,1.86,1.86C53.17,33.46,52.34,34.29,51.31,34.29z"/>
		</g>
	</g>
</g>
</svg>
