<?xml version="1.0" encoding="utf-8"?>
<!-- Generator: Adobe Illustrator 24.0.2, SVG Export Plug-In . SVG Version: 6.00 Build 0)  -->
<svg version="1.1" id="Layer_1" xmlns="http://www.w3.org/2000/svg" xmlns:xlink="http://www.w3.org/1999/xlink" x="0px" y="0px"
	 viewBox="0 0 42 42" style="enable-background:new 0 0 42 42;" xml:space="preserve">
<style type="text/css">
	.st0{fill:#FFFFFF;}
	.st1{fill:#2C5967;}
</style>
<g>
	<g>
		<g>
			<path class="st0" d="M2.67,41.5c-1.19,0-2.17-0.97-2.17-2.17V2.67c0-1.2,0.97-2.17,2.17-2.17h36.67c1.19,0,2.17,0.97,2.17,2.17
				v36.67c0,1.2-0.97,2.17-2.17,2.17H2.67z"/>
			<path class="st0" d="M39.33,1C40.25,1,41,1.75,41,2.67v36.67c0,0.92-0.75,1.67-1.67,1.67H2.67C1.75,41,1,40.25,1,39.33V2.67
				C1,1.75,1.75,1,2.67,1H39.33 M39.33,0H2.67C1.2,0,0,1.2,0,2.67v36.67C0,40.8,1.2,42,2.67,42h36.67C40.8,42,42,40.8,42,39.33V2.67
				C42,1.2,40.8,0,39.33,0L39.33,0z"/>
		</g>
		<g>
			<path class="st1" d="M1,39.33C1,40.25,1.75,41,2.67,41h36.67c0.92,0,1.67-0.75,1.67-1.67V4.99H1V39.33z M2.48,6.47h37.04v32.87
				c0,0.1-0.08,0.19-0.19,0.19H2.67c-0.1,0-0.19-0.08-0.19-0.19V6.47z"/>
			<path class="st1" d="M39.33,1H2.67C1.75,1,1,1.75,1,2.67v1.21h40V2.67C41,1.75,40.25,1,39.33,1z"/>
			<path class="st1" d="M36.06,15.68c0-0.82-0.68-1.48-1.52-1.48H18.06l-1.64-2.09c-0.29-0.36-0.74-0.58-1.21-0.58H7.46
				c-0.84,0-1.52,0.66-1.52,1.48v21.3h30.12V15.68z M7.46,13.01h7.75c0.02,0,0.04,0.01,0.04,0.01l1.51,1.92l-1.5,1.9
				c0,0-0.02,0.01-0.04,0.01h-7.8l0-3.84C7.42,13.02,7.43,13.01,7.46,13.01z M34.58,32.83H7.42l0-14.49h7.8
				c0.47,0,0.92-0.22,1.2-0.58l1.65-2.08h16.47c0.02,0,0.03,0.01,0.04,0.01V32.83z"/>
			<rect x="8.7" y="14.2" class="st1" width="5.76" height="1.48"/>
		</g>
	</g>
</g>
</svg>
