<?xml version="1.0" encoding="utf-8"?>
<!-- Generator: Adobe Illustrator 24.0.2, SVG Export Plug-In . SVG Version: 6.00 Build 0)  -->
<svg version="1.1" id="Layer_1" xmlns="http://www.w3.org/2000/svg" xmlns:xlink="http://www.w3.org/1999/xlink" x="0px" y="0px"
	 viewBox="0 0 42 42" style="enable-background:new 0 0 42 42;" xml:space="preserve">
<style type="text/css">
	.st0{fill:#FFFFFF;}
	.st1{fill:none;}
	.st2{fill:#2C5967;}
</style>
<g>
	<g>
		<path class="st0" d="M2.67,41.5c-1.19,0-2.17-0.97-2.17-2.17V2.67c0-1.19,0.97-2.17,2.17-2.17h36.67c1.19,0,2.17,0.97,2.17,2.17
			v36.67c0,1.19-0.97,2.17-2.17,2.17H2.67z"/>
		<path class="st0" d="M39.33,1C40.25,1,41,1.75,41,2.67v36.67c0,0.92-0.75,1.67-1.67,1.67H2.67C1.75,41,1,40.25,1,39.33V2.67
			C1,1.75,1.75,1,2.67,1H39.33 M39.33,0H2.67C1.2,0,0,1.2,0,2.67v36.67C0,40.8,1.2,42,2.67,42h36.67C40.8,42,42,40.8,42,39.33V2.67
			C42,1.2,40.8,0,39.33,0L39.33,0z"/>
	</g>
	<g>
		<rect x="6.93" y="18.04" class="st1" width="17.96" height="5.93"/>
		<rect x="6.93" y="6.93" class="st1" width="28.15" height="5.93"/>
		<rect x="6.93" y="28.96" class="st1" width="8.33" height="5.93"/>
		<path class="st1" d="M39.33,2.48H2.67c-0.1,0-0.19,0.08-0.19,0.19v36.67c0,0.1,0.08,0.19,0.19,0.19h36.67
			c0.1,0,0.19-0.08,0.19-0.19V2.67C39.52,2.57,39.43,2.48,39.33,2.48z M5.44,16.56h20.93v8.89H5.44V16.56z M16.74,36.37H5.44v-8.89
			h11.3V36.37z M26.37,35.63h-7.59v-7.41h7.59V35.63z M35.81,35.63h-7.59v-7.41h7.59V35.63z M35.81,24.7h-7.59V17.3h7.59V24.7z
			 M36.56,14.33H5.44V5.44h31.11V14.33z"/>
		<path class="st2" d="M39.33,1H2.67C1.75,1,1,1.75,1,2.67v36.67C1,40.25,1.75,41,2.67,41h36.67c0.92,0,1.67-0.75,1.67-1.67V2.67
			C41,1.75,40.25,1,39.33,1z M39.52,39.33c0,0.1-0.08,0.19-0.19,0.19H2.67c-0.1,0-0.19-0.08-0.19-0.19V2.67
			c0-0.1,0.08-0.19,0.19-0.19h36.67c0.1,0,0.19,0.08,0.19,0.19V39.33z"/>
		<path class="st2" d="M5.44,36.37h11.3v-8.89H5.44V36.37z M6.93,28.96h8.33v5.93H6.93V28.96z"/>
		<path class="st2" d="M5.44,14.33h31.11V5.44H5.44V14.33z M6.93,6.93h28.15v5.93H6.93V6.93z"/>
		<path class="st2" d="M26.37,16.56H5.44v8.89h20.93V16.56z M24.89,23.96H6.93v-5.93h17.96V23.96z"/>
		<rect x="28.22" y="17.3" class="st2" width="7.59" height="7.41"/>
		<rect x="28.22" y="28.22" class="st2" width="7.59" height="7.41"/>
		<rect x="18.78" y="28.22" class="st2" width="7.59" height="7.41"/>
	</g>
</g>
</svg>
