<?xml version="1.0" encoding="utf-8"?>
<!-- Generator: Adobe Illustrator 24.0.2, SVG Export Plug-In . SVG Version: 6.00 Build 0)  -->
<svg version="1.1" id="Layer_1" xmlns="http://www.w3.org/2000/svg" xmlns:xlink="http://www.w3.org/1999/xlink" x="0px" y="0px"
	 viewBox="0 0 26.34 42" style="enable-background:new 0 0 26.34 42;" xml:space="preserve">
<style type="text/css">
	.st0{fill:#FFFFFF;}
	.st1{fill:#2C5967;}
</style>
<g>
	<g>
		<g>
			<path class="st0" d="M2.77,41.5c-1.25,0-2.27-1.02-2.27-2.27V13.72c0-1.25,1.02-2.27,2.27-2.27h5.42l-0.55-0.8
				C5.6,7.7,6.29,3.67,9.18,1.66c1.08-0.75,2.41-1.16,3.77-1.16c2.11,0,4.03,1.02,5.26,2.79c1.54,2.21,1.55,5.17,0.04,7.36
				l-0.55,0.8h5.87c1.25,0,2.27,1.02,2.27,2.27v25.52c0,1.25-1.02,2.27-2.27,2.27H2.77z"/>
			<path class="st0" d="M12.95,1c1.95,0,3.72,0.94,4.85,2.57c1.42,2.04,1.43,4.77,0.04,6.79l-1.09,1.58h6.82
				c0.97,0,1.77,0.79,1.77,1.77v25.52c0,0.97-0.79,1.77-1.77,1.77H2.77C1.79,41,1,40.21,1,39.23V13.72c0-0.97,0.79-1.77,1.77-1.77
				h6.37l-1.09-1.58C6.17,7.64,6.8,3.92,9.47,2.07C10.46,1.38,11.69,1,12.95,1 M12.95,0c-1.45,0-2.89,0.44-4.05,1.25
				c-3.12,2.16-3.87,6.51-1.66,9.69l0.01,0.01H2.77C1.24,10.95,0,12.19,0,13.72v25.52C0,40.76,1.24,42,2.77,42h20.81
				c1.53,0,2.77-1.24,2.77-2.77V13.72c0-1.53-1.24-2.77-2.77-2.77h-4.92l0.01-0.02c1.63-2.36,1.61-5.54-0.04-7.93
				C17.29,1.1,15.23,0,12.95,0L12.95,0z"/>
		</g>
		<g>
			<path class="st1" d="M23.57,11.95h-5.39l-1.08,1.57h6.47c0.11,0,0.2,0.09,0.2,0.2v25.52c0,0.11-0.09,0.2-0.2,0.2H2.77
				c-0.11,0-0.2-0.09-0.2-0.2V13.72c0-0.11,0.09-0.2,0.2-0.2h6.02l-1.08-1.57H2.77C1.79,11.95,1,12.74,1,13.72v25.52
				C1,40.21,1.79,41,2.77,41h20.81c0.97,0,1.77-0.79,1.77-1.77V13.72C25.34,12.74,24.55,11.95,23.57,11.95z"/>
			<polygon class="st1" points="3.75,21.76 22.59,21.76 22.59,14.7 16.3,14.7 15.22,16.27 21.02,16.27 21.02,20.19 5.32,20.19 
				5.32,16.27 10.67,16.27 9.6,14.7 3.75,14.7 			"/>
			<circle class="st1" cx="19.06" cy="18.23" r="0.79"/>
			<path class="st1" d="M3.75,30.01h18.84v-7.07H3.75V30.01z M5.32,24.51h15.7v3.93H5.32V24.51z"/>
			<circle class="st1" cx="19.06" cy="26.48" r="0.79"/>
			<path class="st1" d="M3.75,38.25h18.84v-7.07H3.75V38.25z M5.32,32.76h15.7v3.93H5.32V32.76z"/>
			<circle class="st1" cx="19.06" cy="34.72" r="0.79"/>
			<path class="st1" d="M12.95,17.5l4.89-7.13c1.39-2.02,1.38-4.75-0.04-6.79C16.66,1.94,14.89,1,12.95,1
				c-1.25,0-2.49,0.38-3.48,1.07c-2.67,1.85-3.3,5.57-1.41,8.3L12.95,17.5z M16.51,4.47c1.05,1.51,1.06,3.52,0.04,5.01l-3.6,5.25
				l-3.6-5.25l0,0c-1.4-2.01-0.94-4.76,1.01-6.12c0.72-0.5,1.66-0.79,2.59-0.79C14.37,2.57,15.67,3.26,16.51,4.47z"/>
			<path class="st1" d="M12.95,9.61c1.39,0,2.52-1.13,2.52-2.52c0-1.39-1.13-2.52-2.52-2.52c-1.39,0-2.52,1.13-2.52,2.52
				C10.42,8.48,11.56,9.61,12.95,9.61z M12.95,6.14c0.52,0,0.95,0.43,0.95,0.95c0,0.52-0.43,0.95-0.95,0.95s-0.95-0.43-0.95-0.95
				C11.99,6.57,12.42,6.14,12.95,6.14z"/>
		</g>
	</g>
</g>
</svg>
