<?xml version="1.0" encoding="utf-8"?>
<!-- Generator: Adobe Illustrator 24.0.2, SVG Export Plug-In . SVG Version: 6.00 Build 0)  -->
<svg version="1.1" id="Layer_1" xmlns="http://www.w3.org/2000/svg" xmlns:xlink="http://www.w3.org/1999/xlink" x="0px" y="0px"
	 viewBox="0 0 37.13 42" style="enable-background:new 0 0 37.13 42;" xml:space="preserve">
<style type="text/css">
	.st0{fill:#FFFFFF;}
	.st1{fill:none;}
	.st2{fill:#2C5967;}
</style>
<g>
	<g>
		<path class="st0" d="M27.54,41.5c-6.45,0-8.17-1.69-8.45-2.03l-0.27-0.33v-4.4H7.04c-2.23-0.16-3.91-0.95-5.05-2.35
			c-1.86-2.27-1.45-5.2-1.45-5.23c0.53-3.09,2.29-4.65,3.68-5.43c0.65-0.36,1.35-0.62,2.07-0.79c1.22-3.15,3.66-3.86,4.14-3.97
			c0.62-0.19,1.29-0.29,1.96-0.29c0.76,0,1.51,0.12,2.21,0.36c-0.2-0.17-0.39-0.39-0.58-0.64c-1.19-1.6-1.07-3.66-0.76-5.09
			c0.07-0.36,0.17-0.72,0.29-1.07c0.05-0.12,0.09-0.21,0.14-0.3c0.02-0.03,0.03-0.05,0.04-0.08c-0.11-0.09-0.17-0.15-0.23-0.22
			c-0.28-0.34-0.52-0.69-0.73-1.05c-0.3-0.53-0.56-1.08-0.77-1.65L11.8,6.5c-0.06-0.15-0.12-0.31-0.16-0.47
			c-0.03-0.11-0.07-0.22-0.11-0.32c-0.15-0.24-0.36-0.52-0.6-0.76c-0.11-0.12-0.17-0.18-0.23-0.26c-0.05-0.06-0.11-0.13-0.18-0.2
			C9.92,3.84,8.93,2.79,9.5,1.61c0.21-0.47,0.62-0.83,1.12-0.99c0.24-0.08,0.51-0.12,0.8-0.12c1.18,0,2.54,0.64,3.24,1.02
			c0.15,0.09,0.28,0.18,0.41,0.28c0.09,0.07,0.18,0.13,0.28,0.19c1.47,0.02,2.95,0.38,4.27,1.02c2.6,1.31,4.86,3.25,6.55,5.61
			c0.26,0.38,0.47,0.78,0.65,1.19c0.09,0.19,0.18,0.4,0.29,0.61c0.54,1.07,1.01,1.93,1.44,2.63c0.08,0.13,0.14,0.25,0.2,0.37
			c0.13,0.25,0.27,0.48,0.45,0.69c0.24,0.17,0.5,0.28,0.78,0.34c0.24,0.07,0.42,0.13,0.57,0.19c0.63,0.26,1.19,0.52,1.72,0.81
			c1.17,0.59,2.23,1.38,3.14,2.32c0.36,0.36,0.31,0.7,0.25,0.88c-0.15,0.46-0.67,0.54-1.01,0.6l-0.22,0.04
			c-0.31,0.06-0.63,0.11-0.95,0.13c-0.28,0.02-0.55,0.06-0.82,0.11l-0.07,0.02c0.17,0.09,0.33,0.17,0.46,0.24l0.17,0.09
			c0.18,0.09,0.34,0.17,0.47,0.25c0.74,0.44,1.4,0.99,1.98,1.64l0.48,0.38c0.25,0.21,0.31,0.32,0.33,0.36
			c0.1,0.18,0.13,0.43,0.14,0.51c0.01,0.28-0.09,0.71-0.1,0.76c-0.06,0.25-0.27,0.82-0.35,1.04v14.5l-0.48,0.36
			C35.6,39.74,33.18,41.5,27.54,41.5z M18.56,18.75c0.93,0,1.79,0.2,2.57,0.59v-0.02c-0.67-0.29-1.3-0.8-1.82-1.22l-0.08-0.07
			c-0.67-0.5-1.23-1.09-1.67-1.79c0,0,0,0,0-0.01c-0.11,0.51-0.34,1.04-1.03,1.27c-0.19,0.07-0.39,0.1-0.59,0.1
			c-0.03,0-0.07,0-0.1,0c0.58,0.33,1.11,0.75,1.58,1.24C17.81,18.78,18.19,18.75,18.56,18.75z"/>
		<path class="st0" d="M11.42,1c1.09,0,2.41,0.64,3,0.96c0.11,0.07,0.22,0.14,0.33,0.23c0.14,0.12,0.3,0.22,0.47,0.3
			c1.45,0.01,2.87,0.34,4.17,0.97c2.53,1.27,4.71,3.15,6.36,5.46c0.23,0.35,0.43,0.71,0.6,1.1c0.1,0.21,0.2,0.43,0.31,0.65
			c0.51,1.01,1,1.91,1.46,2.66c0.07,0.11,0.13,0.23,0.19,0.34c0.14,0.3,0.33,0.58,0.55,0.82c0.3,0.23,0.65,0.38,1.02,0.46
			c0.18,0.05,0.35,0.1,0.48,0.16c0.62,0.26,1.16,0.51,1.68,0.79c1.12,0.57,2.15,1.32,3.02,2.23c0.14,0.14,0.18,0.26,0.14,0.36
			c-0.06,0.19-0.37,0.23-0.64,0.27l-0.21,0.04c-0.3,0.06-0.6,0.1-0.9,0.12c-0.3,0.02-0.59,0.06-0.88,0.12l-0.1,0.02
			c-0.34,0.09-0.68,0.16-1.02,0.21c0.2,0.37,0.89,0.71,1.44,0.98c0.2,0.1,0.4,0.2,0.55,0.29c0.7,0.42,1.33,0.94,1.87,1.55l0.26,0.21
			c0.1,0.07,0.27,0.22,0.27,0.22s0.18,0.15,0.22,0.22c0.04,0.06,0.07,0.21,0.07,0.29c0.01,0.16-0.05,0.47-0.09,0.62
			c-0.07,0.27-0.36,1.07-0.36,1.07v14.34l-0.27,0.21C35.31,39.34,33,41,27.54,41c-6.34,0-7.9-1.66-8.06-1.85l-0.16-0.19v-4.72H7.04
			c-2.05-0.15-3.62-0.88-4.67-2.16c-1.67-2.05-1.36-4.73-1.34-4.84V27.2c0.5-2.86,2.14-4.31,3.43-5.03c0.69-0.38,1.43-0.65,2.2-0.8
			c1.1-3.16,3.51-3.83,3.88-3.91c0.61-0.18,1.23-0.27,1.85-0.27c1.83,0,3.6,0.78,4.84,2.19c0.48-0.09,0.92-0.14,1.33-0.14
			c1.3,0,2.3,0.42,3.07,0.98v-1.26c-0.74-0.22-1.48-0.84-2.08-1.32l-0.04-0.03c-0.61-0.45-1.13-1.01-1.54-1.65
			c-0.18-0.32-0.36-0.62-0.55-0.94L17.3,14.8c-0.01,0.03-0.01,0.07-0.02,0.1c-0.01,0.06-0.02,0.13-0.04,0.19
			c-0.05,0.21-0.09,0.43-0.11,0.65c-0.08,0.56-0.16,1.09-0.77,1.3c-0.14,0.05-0.29,0.08-0.43,0.08c-0.52,0-1.02-0.34-1.52-1
			c-1.08-1.45-0.96-3.35-0.68-4.69c0.07-0.34,0.16-0.68,0.27-1.02c0.03-0.07,0.06-0.14,0.1-0.21c0.08-0.12,0.13-0.26,0.17-0.4
			c-0.04-0.14-0.13-0.25-0.25-0.33c-0.06-0.05-0.12-0.1-0.18-0.16c-0.25-0.3-0.47-0.62-0.66-0.96c-0.28-0.5-0.53-1.03-0.73-1.57
			l-0.2-0.49c-0.06-0.13-0.11-0.27-0.14-0.41c-0.04-0.14-0.08-0.27-0.14-0.4c-0.2-0.33-0.43-0.63-0.69-0.9
			c-0.07-0.08-0.13-0.14-0.2-0.23c-0.07-0.09-0.16-0.18-0.26-0.29C10.31,3.52,9.53,2.7,9.95,1.82c0.16-0.35,0.46-0.61,0.82-0.73
			C10.98,1.03,11.19,1,11.42,1 M11.42,0c-0.35,0-0.67,0.05-0.96,0.14C9.84,0.34,9.32,0.8,9.04,1.41c-0.71,1.47,0.47,2.73,1.04,3.34
			l0.07,0.08c0.06,0.06,0.11,0.12,0.15,0.17c0.08,0.09,0.15,0.17,0.22,0.25l0.01,0.01l0.03,0.04c0.2,0.21,0.37,0.43,0.53,0.67
			c0.03,0.06,0.05,0.13,0.07,0.19c0.05,0.18,0.11,0.37,0.19,0.55l0.19,0.47c0.21,0.56,0.48,1.13,0.78,1.68
			c0.23,0.39,0.48,0.76,0.77,1.1l0.02,0.02l0.01,0.01c-0.01,0.01-0.01,0.03-0.02,0.04l-0.01,0.03l-0.01,0.03
			c-0.12,0.37-0.23,0.75-0.31,1.13c-0.3,1.4-0.43,3.36,0.55,5.03c-0.3-0.04-0.61-0.06-0.92-0.06c-0.71,0-1.43,0.1-2.11,0.31
			c-0.59,0.14-3.05,0.92-4.36,4.03c-0.67,0.18-1.32,0.44-1.94,0.78c-1.48,0.83-3.36,2.49-3.93,5.73l-0.01,0.09v0.07
			c-0.05,0.54-0.24,3.32,1.57,5.53c1.23,1.5,3.04,2.36,5.37,2.53l0.04,0h0.04h11.28v3.72v0.36l0.23,0.28l0.16,0.19
			c0.43,0.52,2.33,2.21,8.83,2.21c5.7,0,8.2-1.73,8.46-1.93l0.28-0.21l0.4-0.3v-0.5V24.9c0.11-0.29,0.28-0.77,0.34-1.02
			c0.03-0.13,0.13-0.58,0.11-0.91c0-0.04-0.03-0.42-0.2-0.72c-0.04-0.07-0.13-0.22-0.44-0.49c-0.01-0.01-0.2-0.17-0.31-0.25
			L36,21.37c-0.53-0.59-1.14-1.1-1.81-1.53c0.12-0.02,0.24-0.04,0.36-0.06l0.19-0.03c0.38-0.06,1.16-0.18,1.41-0.94
			c0.08-0.22,0.2-0.81-0.39-1.39c-0.93-0.97-2.04-1.79-3.27-2.41c-0.52-0.28-1.1-0.55-1.75-0.82c-0.17-0.07-0.37-0.13-0.58-0.19
			l-0.04-0.01l-0.04-0.01c-0.19-0.04-0.38-0.12-0.54-0.23c-0.13-0.16-0.24-0.33-0.33-0.52c-0.08-0.16-0.15-0.28-0.22-0.41
			c-0.43-0.7-0.9-1.55-1.43-2.6c-0.12-0.22-0.21-0.42-0.3-0.61c-0.18-0.42-0.41-0.85-0.68-1.24c-1.75-2.45-4.07-4.45-6.74-5.79
			c-1.36-0.66-2.86-1.03-4.36-1.08c-0.03-0.02-0.07-0.05-0.1-0.07c-0.15-0.12-0.3-0.23-0.46-0.32C14.16,0.68,12.71,0,11.42,0
			L11.42,0z M17.05,17.83c0.28-0.15,0.49-0.35,0.64-0.57c0.3,0.36,0.64,0.7,1.02,1c-0.04,0-0.09,0-0.13,0
			c-0.32,0-0.64,0.02-0.97,0.06C17.42,18.14,17.24,17.98,17.05,17.83L17.05,17.83z"/>
	</g>
	<g>
		<path class="st1" d="M20.7,31.03v3.05c0.49,0.33,2.26,1.24,6.84,1.24c3.89,0,6-0.89,6.77-1.3v-3.08
			c-1.26,0.53-3.43,1.13-6.77,1.13C23.86,32.06,21.8,31.51,20.7,31.03z"/>
		<path class="st1" d="M27.52,26.52c4.67,0,6.79-1.22,6.79-1.59c0-0.37-2.12-1.6-6.79-1.6s-6.79,1.22-6.79,1.6
			C20.73,25.3,22.86,26.52,27.52,26.52z"/>
		<path class="st1" d="M27.53,27.91c-1.85,0.03-3.7-0.21-5.49-0.7c-0.46-0.14-0.91-0.32-1.34-0.55v2.82
			c0.49,0.32,2.26,1.21,6.84,1.21c4.13,0,6.27-0.99,6.77-1.27l0.01-2.73c-0.42,0.21-0.85,0.39-1.3,0.52
			C31.23,27.7,29.38,27.94,27.53,27.91z"/>
		<path class="st1" d="M20.7,35.64v2.76c0.49,0.33,2.26,1.24,6.84,1.24c3.89,0,6-0.89,6.77-1.3v-2.79
			c-1.26,0.54-3.43,1.15-6.77,1.15C23.86,36.69,21.8,36.14,20.7,35.64z"/>
		<path class="st2" d="M7.27,22.82l0.53-0.04l0.15-0.51c0.82-2.84,2.83-3.31,2.91-3.33l0.07-0.02c3.39-1,5.3,1.63,5.38,1.74
			l0.3,0.43l0.51-0.13c1.95-0.5,3.21,0.04,4.01,0.76c0.17-0.06,0.35-0.13,0.55-0.19c0.33-0.1,0.68-0.19,1.05-0.27
			c-0.96-1.19-2.67-2.44-5.49-1.88c-1.66-1.9-4.28-2.65-6.7-1.92c-0.37,0.09-2.78,0.75-3.88,3.91c-0.77,0.15-1.51,0.42-2.2,0.8
			c-1.29,0.72-2.93,2.17-3.43,5.03v0.04c-0.02,0.11-0.33,2.8,1.34,4.84c1.05,1.28,2.62,2.01,4.67,2.16h11.21v-1.51H7.12
			c-1.6-0.12-2.8-0.66-3.57-1.6c-1.21-1.47-1.04-3.51-1.02-3.7C3.28,23.18,7.11,22.83,7.27,22.82z"/>
		<path class="st2" d="M16.18,5.06c-0.1-0.08-0.21-0.14-0.34-0.17c-0.24-0.04-0.49-0.03-0.72,0.04v0.03h0.04
			c0.18,0.17,0.34,0.35,0.48,0.55c0.18,0.24,0.34,0.49,0.49,0.75c0.31-0.14,0.47-0.48,0.38-0.8C16.43,5.31,16.32,5.17,16.18,5.06z"
			/>
		<path class="st2" d="M36.13,23.03c-0.06-0.07-0.1-0.15-0.14-0.23c-0.04-0.1-0.09-0.19-0.15-0.27c-0.09-0.08-0.18-0.15-0.27-0.22
			l-0.26-0.21c-0.54-0.61-1.17-1.13-1.87-1.55c-0.15-0.09-0.35-0.19-0.55-0.29c-0.55-0.27-1.24-0.61-1.44-0.98
			c0.34-0.05,0.69-0.12,1.02-0.21l0.1-0.02c0.29-0.06,0.58-0.1,0.88-0.12c0.3-0.02,0.6-0.06,0.9-0.12l0.21-0.04
			c0.27-0.04,0.58-0.09,0.64-0.27c0.04-0.1,0-0.22-0.14-0.36c-0.87-0.91-1.9-1.66-3.02-2.23c-0.51-0.27-1.06-0.53-1.68-0.79
			c-0.13-0.05-0.3-0.11-0.48-0.16c-0.37-0.08-0.72-0.23-1.02-0.46c-0.22-0.25-0.4-0.53-0.55-0.82c-0.06-0.12-0.12-0.23-0.19-0.34
			c-0.46-0.75-0.95-1.65-1.46-2.66c-0.12-0.21-0.22-0.43-0.31-0.65c-0.16-0.38-0.36-0.75-0.6-1.1c-1.64-2.31-3.83-4.18-6.36-5.46
			c-1.3-0.63-2.73-0.97-4.17-0.97c-0.17-0.08-0.33-0.18-0.47-0.3c-0.1-0.08-0.21-0.16-0.33-0.23c-0.71-0.39-2.5-1.24-3.65-0.87
			c-0.37,0.12-0.66,0.38-0.82,0.73c-0.42,0.88,0.35,1.7,0.87,2.25c0.1,0.11,0.19,0.21,0.26,0.29c0.07,0.09,0.13,0.15,0.2,0.23
			c0.26,0.27,0.5,0.58,0.69,0.9c0.06,0.13,0.11,0.26,0.14,0.4c0.04,0.14,0.09,0.28,0.14,0.41l0.2,0.49c0.2,0.54,0.45,1.07,0.73,1.57
			c0.19,0.34,0.42,0.66,0.66,0.96c0.05,0.06,0.11,0.11,0.18,0.16c0.12,0.07,0.21,0.19,0.25,0.33c-0.04,0.14-0.09,0.27-0.17,0.4
			c-0.04,0.07-0.07,0.14-0.1,0.21c-0.11,0.33-0.2,0.67-0.27,1.02c-0.29,1.34-0.4,3.24,0.68,4.69c0.63,0.85,1.28,1.16,1.95,0.92
			c0.61-0.21,0.69-0.74,0.77-1.3c0.02-0.22,0.06-0.43,0.11-0.65c0.02-0.06,0.03-0.12,0.04-0.19c0-0.03,0.01-0.07,0.02-0.1l0.13,0.23
			c0.19,0.32,0.37,0.62,0.55,0.94c0.41,0.64,0.93,1.2,1.54,1.65l0.04,0.03c0.6,0.48,1.34,1.1,2.08,1.32L21.72,19V18.8h-0.07
			c-0.08-0.08-0.16-0.15-0.26-0.2c-0.05-0.03-0.1-0.06-0.14-0.09c-0.33-0.28-0.64-0.58-0.92-0.91c-0.75-0.86-1.41-1.79-2-2.78
			c-0.27-0.43-0.49-0.89-0.71-1.34l-0.06-0.12c-0.03-0.07-0.06-0.14-0.08-0.21c-0.02-0.15-0.11-0.28-0.23-0.37l-0.05-0.02
			l-0.04,0.04c-0.09,0.12-0.19,0.23-0.3,0.33c-0.22,0.21-0.4,0.45-0.55,0.71c-0.25,0.57-0.39,1.18-0.43,1.8
			c-0.02,0.16-0.04,0.32-0.07,0.48H15.8c-0.46-0.11-0.65-0.51-0.84-0.89l-0.06-0.12c-0.55-1.1-0.6-2.82-0.16-4.02
			c0.02-0.06,0.06-0.15,0.11-0.25c0.27-0.59,0.51-1.18,0.33-1.44c-0.1-0.19-0.24-0.34-0.41-0.46c-0.09-0.07-0.18-0.15-0.26-0.23
			c-0.24-0.3-0.45-0.62-0.63-0.97c-0.19-0.4-0.36-0.81-0.51-1.24c-0.17-0.49-0.37-0.97-0.6-1.42c-0.21-0.35-0.45-0.68-0.72-0.98
			L11.88,3.9c-0.08-0.1-0.19-0.21-0.31-0.33c-0.39-0.39-0.88-0.88-0.76-1.33c0.03-0.13,0.12-0.23,0.25-0.27
			c0.57-0.23,1.92,0.43,2.56,0.82c0.08,0.05,0.15,0.09,0.23,0.14c0.2,0.13,0.4,0.24,0.61,0.35c0.33,0.13,0.69,0.19,1.04,0.17
			c0.16,0,0.32,0,0.48,0.03c0.52,0.06,1.03,0.16,1.53,0.31c1.05,0.33,2.05,0.81,2.96,1.42c1.81,1.19,3.33,2.77,4.45,4.62
			c0.11,0.18,0.2,0.37,0.27,0.57c0.06,0.15,0.13,0.3,0.22,0.46c0.2,0.4,0.42,0.8,0.64,1.2c0.19,0.35,0.39,0.71,0.57,1.05l0.1,0.19
			c0.31,0.67,0.71,1.3,1.18,1.87c0.2,0.24,0.79,0.39,1.3,0.52c0.21,0.05,0.4,0.1,0.55,0.15c0.78,0.27,1.54,0.61,2.26,1
			c0.37,0.2,0.74,0.42,1.1,0.65c0.05,0.03,0.12,0.07,0.2,0.12c0.23,0.1,0.44,0.25,0.6,0.44c-1.42-0.02-2.5,0.12-3.38,0.43
			c-0.07,0.02-0.14,0.04-0.22,0.05c-0.25,0.05-0.53,0.12-0.55,0.38v0.04l0.03,0.02c0.07,0.07,0.12,0.15,0.15,0.24
			c0.03,0.08,0.07,0.16,0.13,0.24c0.26,0.37,0.58,0.69,0.94,0.95c0.35,0.23,0.74,0.49,1.15,0.71c0.35,0.18,0.71,0.34,1.07,0.47
			c0.37,0.14,0.73,0.3,1.08,0.47c0.22,0.12,0.45,0.27,0.67,0.41c0.17,0.11,0.33,0.21,0.5,0.31c0.07,0.05,0.13,0.1,0.19,0.15
			c0.11,0.11,0.25,0.2,0.4,0.25l0.09,0.03v-0.16L36.13,23.03z"/>
		<path class="st2" d="M33.01,22.66c-1.79-0.49-3.64-0.73-5.49-0.7c-1.85-0.03-3.7,0.21-5.49,0.7c-2.2,0.68-2.67,1.61-2.67,2.28
			h-0.04v14.02l0.16,0.19C19.64,39.34,21.2,41,27.54,41c5.46,0,7.77-1.66,7.87-1.74l0.27-0.21V24.72h-0.02
			C35.58,24.11,35.02,23.27,33.01,22.66z M27.52,23.33c4.67,0,6.79,1.22,6.79,1.6c0,0.37-2.12,1.59-6.79,1.59
			c-4.67,0-6.79-1.22-6.79-1.59C20.73,24.56,22.85,23.33,27.52,23.33z M34.31,38.33c-0.77,0.41-2.88,1.3-6.77,1.3
			c-4.59,0-6.36-0.91-6.84-1.24v-2.76c1.1,0.49,3.17,1.05,6.84,1.05c3.34,0,5.51-0.61,6.77-1.15V38.33z M34.31,34.01
			c-0.77,0.41-2.88,1.3-6.77,1.3c-4.59,0-6.36-0.91-6.84-1.24v-3.05c1.1,0.49,3.17,1.03,6.84,1.03c3.34,0,5.51-0.6,6.77-1.13V34.01z
			 M34.31,29.42c-0.5,0.27-2.64,1.27-6.77,1.27c-4.58,0-6.36-0.89-6.84-1.21v-2.82c0.43,0.23,0.87,0.41,1.34,0.55
			c1.79,0.49,3.64,0.73,5.49,0.7c1.85,0.03,3.7-0.21,5.49-0.7c0.45-0.13,0.89-0.3,1.3-0.52L34.31,29.42z"/>
	</g>
</g>
</svg>
