<?xml version="1.0" encoding="utf-8"?>
<!-- Generator: Adobe Illustrator 24.0.2, SVG Export Plug-In . SVG Version: 6.00 Build 0)  -->
<svg version="1.1" id="Layer_1" xmlns="http://www.w3.org/2000/svg" xmlns:xlink="http://www.w3.org/1999/xlink" x="0px" y="0px"
	 viewBox="0 0 45.67 42" style="enable-background:new 0 0 45.67 42;" xml:space="preserve">
<style type="text/css">
	.st0{fill:#FFFFFF;}
	.st1{fill:#2C5967;}
</style>
<g>
	<g>
		<g>
			<path class="st0" d="M33.65,41.5c-0.36,0-0.7-0.08-1.02-0.23c-0.32,0.15-0.66,0.23-1.02,0.23H14.06c-0.36,0-0.7-0.08-1.02-0.23
				c-0.32,0.15-0.66,0.23-1.02,0.23H2.84c-1.29,0-2.34-1.05-2.34-2.34v-5.71c0-0.36,0.08-0.71,0.24-1.03
				C0.58,32.1,0.5,31.75,0.5,31.4v-5.5c0-0.36,0.08-0.7,0.23-1.02c-0.15-0.32-0.23-0.66-0.23-1.02v-5.71c0-0.36,0.08-0.7,0.23-1.02
				C0.58,16.81,0.5,16.46,0.5,16.1v-5.51c0-0.36,0.08-0.7,0.23-1.02C0.58,9.25,0.5,8.91,0.5,8.55V2.84c0-1.29,1.05-2.34,2.34-2.34
				h9.18c0.36,0,0.7,0.08,1.02,0.24c0.32-0.15,0.66-0.24,1.02-0.24h17.55c0.36,0,0.7,0.08,1.02,0.24c0.32-0.15,0.66-0.24,1.02-0.24
				h9.18c1.29,0,2.34,1.05,2.34,2.34v5.71c0,0.36-0.08,0.7-0.23,1.02c0.15,0.32,0.23,0.66,0.23,1.02v5.51c0,0.36-0.08,0.7-0.23,1.02
				c0.15,0.32,0.23,0.66,0.23,1.02v5.71c0,0.36-0.08,0.7-0.23,1.02c0.15,0.32,0.23,0.66,0.23,1.02v5.51c0,0.36-0.08,0.7-0.23,1.02
				c0.15,0.32,0.23,0.66,0.23,1.02v5.71c0,1.29-1.05,2.34-2.34,2.34H33.65z"/>
			<path class="st0" d="M42.84,1c1.01,0,1.84,0.82,1.84,1.84v5.71c0,0.38-0.11,0.73-0.31,1.02c0.2,0.29,0.31,0.64,0.31,1.02v5.51
				c0,0.38-0.11,0.73-0.31,1.02c0.2,0.29,0.31,0.64,0.31,1.02v5.71c0,0.38-0.11,0.73-0.31,1.02c0.2,0.29,0.31,0.64,0.31,1.02v5.51
				c0,0.38-0.11,0.73-0.31,1.02c0.2,0.29,0.31,0.64,0.31,1.02v5.71c0,1.01-0.82,1.84-1.84,1.84h-9.18c-0.38,0-0.73-0.11-1.02-0.31
				c-0.29,0.2-0.64,0.31-1.02,0.31H14.06c-0.38,0-0.73-0.11-1.02-0.31C12.75,40.89,12.4,41,12.02,41H2.84C1.82,41,1,40.18,1,39.16
				v-5.71c0-0.38,0.12-0.73,0.31-1.03C1.12,32.13,1,31.78,1,31.4v-5.5c0-0.38,0.11-0.73,0.31-1.02C1.11,24.59,1,24.23,1,23.86v-5.71
				c0-0.38,0.11-0.73,0.31-1.02C1.11,16.83,1,16.48,1,16.1v-5.51c0-0.38,0.11-0.73,0.31-1.02C1.11,9.28,1,8.93,1,8.55V2.84
				C1,1.82,1.82,1,2.84,1h9.18c0.38,0,0.73,0.11,1.02,0.31C13.33,1.11,13.68,1,14.06,1h17.55c0.38,0,0.73,0.11,1.02,0.31
				C32.92,1.11,33.28,1,33.65,1H42.84 M42.84,0h-9.18c-0.35,0-0.7,0.06-1.02,0.19C32.31,0.06,31.96,0,31.61,0H14.06
				c-0.35,0-0.7,0.06-1.02,0.19C12.72,0.06,12.37,0,12.02,0H2.84C1.27,0,0,1.27,0,2.84v5.71c0,0.35,0.06,0.7,0.19,1.02
				C0.06,9.89,0,10.24,0,10.59v5.51c0,0.35,0.06,0.7,0.19,1.02C0.06,17.45,0,17.79,0,18.14v5.71c0,0.35,0.06,0.7,0.19,1.02
				C0.06,25.2,0,25.55,0,25.9v5.5c0,0.35,0.07,0.7,0.19,1.03C0.07,32.75,0,33.09,0,33.45v5.71C0,40.73,1.27,42,2.84,42h9.18
				c0.35,0,0.7-0.06,1.02-0.19c0.32,0.13,0.67,0.19,1.02,0.19h17.55c0.35,0,0.7-0.06,1.02-0.19C32.96,41.94,33.3,42,33.65,42h9.18
				c1.56,0,2.84-1.27,2.84-2.84v-5.71c0-0.35-0.06-0.7-0.19-1.02c0.13-0.32,0.19-0.67,0.19-1.02V25.9c0-0.35-0.06-0.7-0.19-1.02
				c0.13-0.32,0.19-0.67,0.19-1.02v-5.71c0-0.35-0.06-0.7-0.19-1.02c0.13-0.32,0.19-0.67,0.19-1.02v-5.51c0-0.35-0.06-0.7-0.19-1.02
				c0.13-0.32,0.19-0.67,0.19-1.02V2.84C45.67,1.27,44.4,0,42.84,0L42.84,0z"/>
		</g>
		<g>
			<g>
				<path class="st1" d="M44.67,2.84c0-1.01-0.82-1.84-1.84-1.84h-9.18c-0.38,0-0.73,0.11-1.02,0.31C32.34,1.11,31.99,1,31.61,1
					H14.06c-0.38,0-0.73,0.11-1.02,0.31C12.75,1.11,12.4,1,12.02,1H2.84C1.82,1,1,1.82,1,2.84v5.71c0,0.38,0.11,0.73,0.31,1.02
					C1.11,9.86,1,10.21,1,10.59v5.51c0,0.38,0.11,0.73,0.31,1.02C1.11,17.41,1,17.77,1,18.14v5.71c0,0.38,0.11,0.73,0.31,1.02
					C1.11,25.17,1,25.52,1,25.9v5.5c0,0.38,0.12,0.73,0.31,1.03C1.12,32.72,1,33.07,1,33.45v5.71C1,40.18,1.82,41,2.84,41h9.18
					c0.38,0,0.73-0.11,1.02-0.31c0.29,0.2,0.64,0.31,1.02,0.31h17.55c0.38,0,0.73-0.11,1.02-0.31c0.29,0.2,0.64,0.31,1.02,0.31h9.18
					c1.01,0,1.84-0.82,1.84-1.84v-5.71c0-0.38-0.11-0.73-0.31-1.02c0.2-0.29,0.31-0.64,0.31-1.02V25.9c0-0.38-0.11-0.73-0.31-1.02
					c0.2-0.29,0.31-0.64,0.31-1.02v-5.71c0-0.38-0.11-0.73-0.31-1.02c0.2-0.29,0.31-0.64,0.31-1.02v-5.51
					c0-0.38-0.11-0.73-0.31-1.02c0.2-0.29,0.31-0.64,0.31-1.02V2.84z M2.63,2.84c0-0.11,0.09-0.2,0.2-0.2h9.18
					c0.11,0,0.2,0.09,0.2,0.2v5.71c0,0.11-0.09,0.2-0.2,0.2H2.84c-0.11,0-0.2-0.09-0.2-0.2V2.84z M12.22,39.16
					c0,0.11-0.09,0.2-0.2,0.2H2.84c-0.11,0-0.2-0.09-0.2-0.2v-5.71c0-0.11,0.09-0.2,0.2-0.2h9.18c0.11,0,0.2,0.09,0.2,0.2V39.16z
					 M43.04,39.16c0,0.11-0.09,0.2-0.2,0.2h-9.18c-0.11,0-0.2-0.09-0.2-0.2v-5.71c0-0.11,0.09-0.2,0.2-0.2h9.18
					c0.11,0,0.2,0.09,0.2,0.2V39.16z M43.04,16.1c0,0.11-0.09,0.2-0.2,0.2h-7.92c0.22,0.53,0.41,1.07,0.56,1.63h7.36
					c0.11,0,0.2,0.09,0.2,0.2v5.71c0,0.11-0.09,0.2-0.2,0.2h-7.17c-0.12,0.56-0.27,1.1-0.46,1.63h7.62c0.11,0,0.2,0.09,0.2,0.2v5.51
					c0,0.11-0.09,0.2-0.2,0.2h-9.18h-2.04h-0.6c-0.81,0.64-1.69,1.19-2.64,1.63h3.24c0.11,0,0.2,0.09,0.2,0.2v5.71
					c0,0.11-0.09,0.2-0.2,0.2H14.06c-0.11,0-0.2-0.09-0.2-0.2v-5.71c0-0.11,0.09-0.2,0.2-0.2h3.34c-0.95-0.44-1.83-0.99-2.64-1.64
					L2.84,31.6c-0.11,0-0.2-0.09-0.2-0.2v-5.5c0-0.11,0.09-0.2,0.2-0.2h7.72c-0.19-0.53-0.34-1.07-0.46-1.63H2.84
					c-0.11,0-0.2-0.09-0.2-0.2v-5.71c0-0.11,0.09-0.2,0.2-0.2h7.45c0.15-0.56,0.34-1.11,0.56-1.63H2.84c-0.11,0-0.2-0.09-0.2-0.2
					v-5.51c0-0.11,0.09-0.2,0.2-0.2h9.18h2.04h1.81C17,9.66,18.26,9.1,19.59,8.76h-5.53c-0.11,0-0.2-0.09-0.2-0.2V2.84
					c0-0.11,0.09-0.2,0.2-0.2h17.55c0.11,0,0.2,0.09,0.2,0.2v5.71c0,0.11-0.09,0.2-0.2,0.2h-5.44c1.34,0.35,2.59,0.91,3.73,1.63
					h1.71h2.04h9.18c0.11,0,0.2,0.09,0.2,0.2V16.1z M43.04,8.55c0,0.11-0.09,0.2-0.2,0.2h-9.18c-0.11,0-0.2-0.09-0.2-0.2V2.84
					c0-0.11,0.09-0.2,0.2-0.2h9.18c0.11,0,0.2,0.09,0.2,0.2V8.55z"/>
				<path class="st1" d="M22.88,9.56c-6.53,0-11.84,5.31-11.84,11.84s5.31,11.84,11.84,11.84s11.84-5.31,11.84-11.84
					S29.41,9.56,22.88,9.56z M22.88,31.6c-5.63,0-10.2-4.58-10.2-10.2s4.58-10.2,10.2-10.2s10.2,4.58,10.2,10.2
					S28.51,31.6,22.88,31.6z"/>
				<path class="st1" d="M25.75,18.37c-0.61-0.82-1.28-1.6-1.78-2.5c-0.26-0.47-0.39-1.2-0.27-1.73c0.12-0.51,0.62-0.91,0.95-1.35
					c-0.43-0.25-0.89-0.39-1.34-0.39c-0.61,0-1.22,0.24-1.78,0.76c-1.52,1.41-1.47,3.23-0.85,5.23c-0.36-0.09-0.7-0.15-1.03-0.15
					c-0.55,0-1.06,0.16-1.54,0.59c1.18,0.6,1.47,1.59,0.83,2.81c-0.17,0.33-0.37,0.64-0.57,0.95c-1.33,1.98-0.97,4.63,0.42,6.29
					c0.54,0.65,1.19,1.14,2.12,1.39c-0.15-0.28-0.22-0.43-0.31-0.56c-1.03-1.53-1.01-3.14,0.06-4.6c0.19-0.25,0.4-0.49,0.61-0.72
					c0.92-0.97,1.55-2.07,1.28-3.57c-0.01-0.08,0.02-0.18,0.05-0.35c0.86,0.68,1.41,1.52,1.62,2.59c0.21,1.11,0,2.13-0.72,3.04
					c0.46-0.02,0.88-0.04,1.23-0.23c0.35-0.18,0.65-0.52,0.97-0.79c1,1.07,0.74,2.93-0.87,5.02c2.36-0.63,4.01-3.94,3.4-6.8
					C27.8,21.41,26.84,19.86,25.75,18.37z"/>
			</g>
		</g>
	</g>
</g>
</svg>
