<?xml version="1.0" encoding="utf-8"?>
<!-- Generator: Adobe Illustrator 24.0.2, SVG Export Plug-In . SVG Version: 6.00 Build 0)  -->
<svg version="1.1" id="Layer_1" xmlns="http://www.w3.org/2000/svg" xmlns:xlink="http://www.w3.org/1999/xlink" x="0px" y="0px"
	 viewBox="0 0 42.37 42" style="enable-background:new 0 0 42.37 42;" xml:space="preserve">
<style type="text/css">
	.st0{fill:none;}
	.st1{fill:#FFFFFF;}
	.st2{fill:#2C5967;}
</style>
<g>
	<g>
		<g>
			<path class="st0" d="M32.11,5.07h-1.48h-1.48h-1.48h-1.48H24.7h-1.48h-1.48v0v1.48v1.48v1.48V11v1.48h1.11h3.38h5.32v-1.52
				c0-1,0.81-1.81,1.81-1.81h2.31V5.07h-2.08H32.11z"/>
			<g>
				<g>
					<path class="st1" d="M21.24,12.98V4.57h14.93v5.07h-2.81c-0.72,0-1.31,0.59-1.31,1.31v2.02H21.24z"/>
					<path class="st1" d="M35.67,5.07v4.07h-2.31c-1,0-1.81,0.81-1.81,1.81v1.52h-9.81V5.07v0H35.67 M36.67,4.07h-1H21.74h-1v1v7.41
						v1h1h9.81h1v-1v-1.52c0-0.45,0.36-0.81,0.81-0.81h2.31h1v-1V5.07V4.07L36.67,4.07z"/>
				</g>
				<g>
					<path class="st1" d="M2.37,41.5L0.5,40.57v-1.17l3.89-7.26V14.15c0-1.2,0.97-2.17,2.17-2.17h13.2V5.57H5.39l-0.25,3.1h0.38
						v3.01H2.21V8.68H2.6L2.21,3.92l0-3.42h3.31v2.59h32.13v5.56h1.91c1.27,0,2.31,1.04,2.31,2.31V22.5c0,1.29-1.04,2.34-2.31,2.34
						h-1.95v7.03l3.89,7.53v1.17l-1.87,0.93H2.37z M31.06,11.98v-1.02c0-1.27,1.04-2.31,2.31-2.31h1.81V5.57H22.24v6.41H31.06z"/>
					<path class="st1" d="M5.03,1v2.59h32.13v5.56h2.41c1,0,1.81,0.81,1.81,1.81V22.5c0,1.01-0.81,1.84-1.81,1.84h-2.45v7.65
						L41,39.52l0,0h0v0.74L39.52,41v0H2.48v0L1,40.26v-0.74h0l0,0l3.89-7.26V14.15c0-0.92,0.75-1.67,1.67-1.67h13.7V5.07v0H4.93
						L4.6,9.18h0.43v0.19v1.82H2.71V9.36V9.18h0.43l-0.43-5.3V1H5.03 M21.74,12.48h9.81v-1.52c0-1,0.81-1.81,1.81-1.81h2.31V5.07
						H21.74v0V12.48 M6.03,0h-1H2.71h-1v1v2.88v0.04l0,0.04l0.34,4.22H1.71v1v0.19v1.82v1h1h2.04c-0.53,0.49-0.86,1.19-0.86,1.96
						v17.86l-3.77,7.04L0,39.27v0.25v0.74v0.62l0.55,0.28l1.48,0.74L2.25,42h0.24l37.03,0h0.24l0.21-0.11l1.48-0.74L42,40.88v-0.62
						v-0.74v-0.24l-0.11-0.22l-3.78-7.32v-6.41h1.45c1.55,0,2.81-1.27,2.81-2.84V10.96c0-1.55-1.26-2.81-2.81-2.81h-1.41V3.59v-1h-1
						H6.03V1V0L6.03,0z M5.85,6.07h13.4v5.41H6.56c-0.18,0-0.36,0.02-0.53,0.05v-0.35V9.36V9.18v-1H5.68L5.85,6.07L5.85,6.07z
						 M22.74,6.07l11.93,0v2.07h-1.31c-1.55,0-2.81,1.26-2.81,2.81v0.52h-7.81V6.07L22.74,6.07z"/>
				</g>
			</g>
		</g>
		<g>
			<rect x="35.07" y="6.56" class="st2" width="1.48" height="1.48"/>
			<polygon class="st2" points="36.56,5.07 36.56,3.59 35.81,3.59 35.07,3.59 35.07,5.07 35.81,5.07 			"/>
			<rect x="11.37" y="3.59" class="st2" width="1.48" height="1.48"/>
			<rect x="14.33" y="3.59" class="st2" width="1.48" height="1.48"/>
			<rect x="17.3" y="3.59" class="st2" width="1.48" height="1.48"/>
			<rect x="32.11" y="3.59" class="st2" width="1.48" height="1.48"/>
			<rect x="23.22" y="3.59" class="st2" width="1.48" height="1.48"/>
			<rect x="29.15" y="3.59" class="st2" width="1.48" height="1.48"/>
			<rect x="26.19" y="3.59" class="st2" width="1.48" height="1.48"/>
			<polygon class="st2" points="6.14,3.92 6.14,3.97 6.05,5.07 6.93,5.07 6.93,3.59 6.14,3.59 6.14,3.88 			"/>
			<rect x="8.41" y="3.59" class="st2" width="1.48" height="1.48"/>
			<rect x="8.78" y="34.15" class="st2" width="24.44" height="1.48"/>
			<rect x="22.85" y="12.48" class="st2" width="7.59" height="1.48"/>
			<path class="st2" d="M35.63,31.56H6.37V14.15c0-0.1,0.08-0.19,0.19-0.19h12.59v-1.48H6.56c-0.92,0-1.67,0.75-1.67,1.67v18.11
				L1,39.52l0,0h0v0.74L2.48,41v0h37.03v0L41,40.26v-0.74h0l0,0l-3.89-7.53v-6.54h-1.48V31.56z M39.33,39.52H2.68l3.48-6.48h29.83
				L39.33,39.52z"/>
			<rect x="15.07" y="36.74" class="st2" width="11.85" height="1.48"/>
			<polygon class="st2" points="2.71,3.88 3.06,8.25 4.68,8.25 5.03,3.88 5.03,1 2.71,1 			"/>
			<polygon class="st2" points="2.71,9.18 2.71,9.36 2.71,11.19 5.03,11.19 5.03,9.36 5.03,9.18 			"/>
			<path class="st2" d="M39.56,9.15h-6.2c-1,0-1.81,0.81-1.81,1.81V22.5c0,1.01,0.81,1.84,1.81,1.84h6.2c1,0,1.81-0.82,1.81-1.84
				V10.96C41.37,9.96,40.56,9.15,39.56,9.15z M39.56,22.85h-6.2c-0.17,0-0.33-0.17-0.33-0.36v-0.75h6.85v0.75
				C39.89,22.69,39.74,22.85,39.56,22.85z M33.04,20.26v-9.3c0-0.18,0.15-0.33,0.33-0.33h6.2c0.18,0,0.33,0.15,0.33,0.33v9.3H33.04z
				"/>
			<polygon class="st2" points="35.81,14.13 36.04,16.93 37.07,16.93 37.3,14.13 37.3,12.3 35.81,12.3 			"/>
			<rect x="35.81" y="17.48" class="st2" width="1.48" height="1.3"/>
			<rect x="20.26" y="6.56" class="st2" width="1.48" height="1.48"/>
			<rect x="20.26" y="9.52" class="st2" width="1.48" height="1.48"/>
			<polygon class="st2" points="20.26,5.07 21.74,5.07 21.74,5.07 21.74,3.96 21.74,3.59 20.26,3.59 20.26,3.96 20.26,5.07 			"/>
			<rect x="20.26" y="12.48" class="st2" width="1.48" height="1.48"/>
			<polygon class="st2" points="19.84,25.81 22.16,25.81 22.67,19.56 22.67,16.93 22.67,15.44 19.33,15.44 19.33,16.93 19.33,19.56 
							"/>
			<rect x="19.33" y="27.11" class="st2" width="3.33" height="2.96"/>
		</g>
	</g>
</g>
</svg>
