<?xml version="1.0" encoding="utf-8"?>
<!-- Generator: Adobe Illustrator 24.0.2, SVG Export Plug-In . SVG Version: 6.00 Build 0)  -->
<svg version="1.1" id="Layer_1" xmlns="http://www.w3.org/2000/svg" xmlns:xlink="http://www.w3.org/1999/xlink" x="0px" y="0px"
	 viewBox="0 0 42 42" style="enable-background:new 0 0 42 42;" xml:space="preserve">
<style type="text/css">
	.st0{fill:#FFFFFF;}
	.st1{fill:#2C5967;}
</style>
<g>
	<g>
		<g>
			<path class="st0" d="M2.67,41.5c-1.19,0-2.17-0.97-2.17-2.17V2.67c0-1.2,0.97-2.17,2.17-2.17h36.67c1.19,0,2.17,0.97,2.17,2.17
				v36.67c0,1.2-0.97,2.17-2.17,2.17H2.67z"/>
			<path class="st0" d="M39.33,1C40.25,1,41,1.75,41,2.67v36.67c0,0.92-0.75,1.67-1.67,1.67H2.67C1.75,41,1,40.25,1,39.33V2.67
				C1,1.75,1.75,1,2.67,1H39.33 M39.33,0H2.67C1.2,0,0,1.2,0,2.67v36.67C0,40.8,1.2,42,2.67,42h36.67C40.8,42,42,40.8,42,39.33V2.67
				C42,1.2,40.8,0,39.33,0L39.33,0z"/>
		</g>
		<g>
			<g>
				<path class="st1" d="M30.44,11.65l2.71,4.72l-2.74,4.72h-5.45l-2.71-4.72l2.74-4.72H30.44 M31.3,10.17h-7.16l-3.59,6.2l3.57,6.2
					h7.16l3.59-6.2L31.3,10.17L31.3,10.17z"/>
			</g>
			<g>
				<path class="st1" d="M20.72,25.94c2.59,0,4.69,2.1,4.69,4.69c0,2.59-2.1,4.69-4.69,4.69c-2.59,0-4.69-2.1-4.69-4.69
					C16.04,28.05,18.14,25.94,20.72,25.94 M20.72,24.46c-3.42,0-6.17,2.76-6.17,6.17c0,3.42,2.79,6.17,6.17,6.17
					c3.39,0,6.17-2.76,6.17-6.17C26.9,27.22,24.14,24.46,20.72,24.46L20.72,24.46z"/>
			</g>
			<g>
				<path class="st1" d="M13.6,12.83l4.38,7.93H9.26L13.6,12.83 M13.59,9.75L6.76,22.24h13.72L13.59,9.75L13.59,9.75z"/>
			</g>
		</g>
		<g>
			<path class="st1" d="M39.33,41H2.67C1.75,41,1,40.25,1,39.33V4.99h40v34.35C41,40.25,40.25,41,39.33,41z M2.48,6.47v32.87
				c0,0.1,0.08,0.19,0.19,0.19h36.67c0.1,0,0.19-0.08,0.19-0.19V6.47H2.48z"/>
		</g>
		<g>
			<path class="st1" d="M41,3.87H1V2.67C1,1.75,1.75,1,2.67,1h36.67C40.25,1,41,1.75,41,2.67V3.87z"/>
		</g>
	</g>
</g>
</svg>
