<svg id="Layer_1" data-name="Layer 1" xmlns="http://www.w3.org/2000/svg" viewBox="0 0 43.65 42">
   <defs>
      <style>
         .st0 {fill: #fff;}
         .st1 {fill: #2c5967;}
      </style>
   </defs>
   <g>
      <polygon class="st0"
         points="0.5 41.5 0.5 39.87 2.53 38.85 2.77 38.85 2.77 32.84 1.12 32.84 1.12 21.53 2.77 21.53 2.77 17.58 1.12 17.58 1.12 6.27 2.77 6.27 2.77 0.5 40.88 0.5 40.88 38.85 41.12 38.85 43.15 39.87 43.15 41.5 0.5 41.5" />
      <path class="st0"
         d="M40.38,1V39.35H41l1.65.83V41H1v-.82l1.65-.83h.62v-7H1.62V22H3.27v-5H1.62V6.77H3.27V1H40.38m1-1H2.27V5.77H.62V18.08H2.27v3H.62V33.34H2.27v5.08l-.07,0-1.65.82L0,39.56V42H43.65V39.56l-.55-.28-1.65-.82-.07,0V0Z" />
      <rect class="st1" x="3.27" y="18.32" width="1.65" height="2.47" />
      <polygon class="st1"
         points="4.92 5.54 4.92 4.71 4.92 2.65 6.98 2.65 36.67 2.65 38.73 2.65 38.73 4.71 38.73 34.4 38.73 36.46 36.67 36.46 6.98 36.46 4.92 36.46 4.92 34.4 4.92 33.58 3.27 33.58 3.27 38.11 40.38 38.11 40.38 1 3.27 1 3.27 5.54 4.92 5.54" />
      <path class="st1"
         d="M6.15,32.34v2.89H37.49V3.89H6.15V6.77H1.62V17.08H6.15v5H1.62V32.34ZM3.27,29.45H4.92V27.8H3.27V26.57H4.92V24.92H3.27V23.68H7.8V15.43H3.27V14.2H4.92V12.55H3.27V11.31H4.92V9.66H3.27V8.42H7.8V5.54H35.85v28H7.8V30.69H3.27Z" />
      <polygon class="st1" points="41 39.35 2.65 39.35 1 40.17 1 41 2.65 41 41 41 42.65 41 42.65 40.17 41 39.35" />
      <path class="st1"
         d="M29,20.38A7.45,7.45,0,0,1,28.78,22l1.48.86a9.06,9.06,0,0,0,.36-2.51,8.8,8.8,0,0,0-6.73-8.55v1.71A7.17,7.17,0,0,1,29,20.38Z" />
      <path class="st1"
         d="M14.68,20.38a7.16,7.16,0,0,1,5.08-6.84V11.83A8.8,8.8,0,0,0,13,20.38a9.06,9.06,0,0,0,.36,2.51L14.87,22A7.45,7.45,0,0,1,14.68,20.38Z" />
      <path class="st1"
         d="M21.82,27.53A7.08,7.08,0,0,1,17,25.59l-1.48.86a8.76,8.76,0,0,0,12.71,0L26.7,25.6A7.13,7.13,0,0,1,21.82,27.53Z" />
      <path class="st1"
         d="M21,15.15a5.69,5.69,0,0,0-1.24.35,5.33,5.33,0,0,0-3.23,5.57,5.65,5.65,0,0,0,.32,1.24L11,25.71a12.54,12.54,0,0,0,.83,1.42l5.86-3.4a5.66,5.66,0,0,0,.94.89,5.39,5.39,0,0,0,6.39,0,5.66,5.66,0,0,0,.94-.89l5.86,3.4a12.54,12.54,0,0,0,.83-1.42l-5.86-3.4a5.15,5.15,0,0,0,.33-1.24,5.33,5.33,0,0,0-3.23-5.57,5.69,5.69,0,0,0-1.24-.35V8.35c-.27,0-.55,0-.83,0s-.55,0-.82,0Zm4.51,5.23a3.69,3.69,0,1,1-3.69-3.64A3.66,3.66,0,0,1,25.51,20.38Z" />
      <ellipse class="st1" cx="21.82" cy="20.38" rx="2.29" ry="2.27" />
   </g>
</svg>