<?xml version="1.0" encoding="utf-8"?>
<!-- Generator: Adobe Illustrator 24.0.2, SVG Export Plug-In . SVG Version: 6.00 Build 0)  -->
<svg version="1.1" id="Layer_1" xmlns="http://www.w3.org/2000/svg" xmlns:xlink="http://www.w3.org/1999/xlink" x="0px" y="0px"
	 viewBox="0 0 42.1 42.1" style="enable-background:new 0 0 42.1 42.1;" xml:space="preserve">
<g>
	<g>
		<path style="fill:#FFFFFF;" d="M1.9,33.9l3.6-3.6c1.1-1.1,2.2-2.1,3.5-3l3.8-2.8c-3.9-6.2-3-14.2,2.2-19.4c3-3,6.9-4.6,11.1-4.6
			s8.1,1.6,11.1,4.6c3,3,4.6,6.9,4.6,11.1c0,4.2-1.6,8.1-4.6,11.1s-6.9,4.6-11.1,4.6c-3,0-5.8-0.8-8.3-2.4l-2.8,3.8
			c-0.9,1.2-1.9,2.4-3,3.5l-3.6,3.6L1.9,33.9z"/>
		<path style="fill:#FFFFFF;" d="M26,1c3.9,0,7.8,1.5,10.7,4.4c5.9,5.9,5.9,15.5,0,21.4c-3,3-6.8,4.4-10.7,4.4c-3,0-5.9-0.9-8.5-2.6
			l-0.7,0.9l-2.4,3.2c-0.9,1.2-1.9,2.4-3,3.4l-3.3,3.3l-5.6-5.6l3.3-3.3c1.1-1.1,2.2-2.1,3.4-3l3.2-2.4l0.9-0.7
			c-4-5.9-3.4-14,1.9-19.2C18.2,2.5,22.1,1,26,1 M26,0c-4.3,0-8.4,1.7-11.4,4.7C9.3,10,8.4,18.1,12.1,24.4l-0.2,0.1l-3.2,2.4
			c-1.2,0.9-2.4,2-3.5,3.1l-3.3,3.3l-0.7,0.7l0.7,0.7l5.6,5.6l0.7,0.7l0.7-0.7l3.3-3.3c1.1-1.1,2.1-2.3,3.1-3.5l2.4-3.2l0.1-0.2
			c2.5,1.5,5.3,2.2,8.2,2.2c4.3,0,8.4-1.7,11.4-4.7c3-3,4.7-7.1,4.7-11.4c0-4.3-1.7-8.4-4.7-11.4C34.4,1.7,30.3,0,26,0L26,0z"/>
	</g>
	<g>
		<polygon style="fill:#FFFFFF;" points="4.8,40.9 1.3,37.3 0.6,35.2 1.7,34.1 8.1,40.4 6.9,41.6 		"/>
		<path style="fill:#FFFFFF;" d="M1.7,34.8l5.7,5.7L6.8,41l-1.7-0.6L1.7,37h0l-0.6-1.7L1.7,34.8 M1.7,33.4L1,34.1l-0.6,0.6L0,35.1
			l0.2,0.6l0.6,1.7l0.1,0.2L1,37.7l3.4,3.4l0.2,0.2l0.2,0.1l1.7,0.6l0.6,0.2l0.4-0.4l0.6-0.6l0.7-0.7l-0.7-0.7l-5.7-5.7L1.7,33.4
			L1.7,33.4z"/>
	</g>
</g>
<g>
	<path style="fill:#2C5967;" d="M26,31.3c3.9,0,7.8-1.5,10.7-4.4c5.9-5.9,5.9-15.5,0-21.4c-5.9-5.9-15.5-5.9-21.4,0
		c-5.2,5.2-5.8,13.3-1.9,19.2l-0.9,0.7l-3.2,2.4c-1.2,0.9-2.4,1.9-3.4,3l-3.3,3.3l5.6,5.6l3.3-3.3c1.1-1.1,2.1-2.2,3-3.4l2.4-3.2
		l0.7-0.9C20.1,30.4,23,31.3,26,31.3z M35.6,6.5c5.3,5.3,5.3,14,0,19.3c-2.7,2.7-6.2,4-9.6,4c-3.5,0-7-1.3-9.6-4
		c-5.3-5.3-5.3-14,0-19.3C21.7,1.2,30.3,1.2,35.6,6.5z M15.6,28.7l-2.4,3.2c-0.9,1.1-1.8,2.2-2.8,3.3l-2.2,2.2l-3.4-3.4l2.2-2.2
		c1-1,2.1-2,3.3-2.8l3.2-2.4l0.9-0.7c0.3,0.4,0.6,0.7,0.9,1c0.3,0.3,0.7,0.6,1,0.9L15.6,28.7z"/>
	<path style="fill:#2C5967;" d="M17.2,24.9c2.4,2.4,5.6,3.6,8.8,3.6c3.2,0,6.4-1.2,8.8-3.6c4.8-4.8,4.8-12.7,0-17.6
		C32.4,5,29.3,3.7,26,3.7S19.6,5,17.2,7.4C12.4,12.2,12.4,20.1,17.2,24.9z M33.7,23.9c-2.1,2.1-4.8,3.2-7.7,3.2
		c-2.9,0-5.7-1.1-7.7-3.2c-2.1-2.1-3.2-4.8-3.2-7.7c0-2.4,0.7-4.6,2.1-6.5c0.6,1.2,1.8,2,3.2,2c0.1,0,0.2,0,0.3,0l1.5,4.5
		c-1,0.6-1.7,1.7-1.7,3c0,1.9,1.6,3.5,3.5,3.5c1.7,0,3.1-1.2,3.4-2.8h4.7c0.3,1.3,1.3,2.4,2.6,2.7C34.5,23,34.1,23.5,33.7,23.9z
		 M26,5.2c1,0,2.1,0.1,3,0.4v2c-1,0.2-1.8,0.8-2.3,1.7l-2.8-0.9c0-0.1,0-0.2,0-0.3c0-0.5-0.1-1-0.3-1.4l2-1.5
		C25.8,5.3,25.9,5.2,26,5.2z M35.6,21.2c-0.8,0-1.6-0.5-1.9-1.3c-0.1-0.2-0.1-0.5-0.1-0.8v0c0-0.3,0.1-0.5,0.1-0.8
		c0-0.1,0.1-0.2,0.2-0.3c0.3-0.4,0.7-0.8,1.2-0.9c0.1,0,0.2,0,0.3-0.1c0,0,0.1,0,0.1,0c0.2,0,0.4,0,0.6,0.1c0.2,0.1,0.4,0.2,0.6,0.3
		C36.6,18.8,36.3,20,35.6,21.2C35.6,21.2,35.6,21.2,35.6,21.2z M35.9,15.7c-0.1,0-0.2,0-0.3,0c-0.5,0-1,0.1-1.4,0.3l-1.8-2.4
		c0.6-0.6,0.9-1.4,0.9-2.3c0-0.1,0-0.2,0-0.3l1.9-0.6c0.7,1.1,1.2,2.2,1.4,3.4L35.9,15.7z M25.4,15.9c-0.4-0.2-0.9-0.3-1.4-0.3
		c-0.1,0-0.2,0-0.3,0l-1.5-4.5c0.5-0.3,1-0.7,1.3-1.3l2.8,0.9c0,0.1,0,0.2,0,0.3c0,0.9,0.3,1.7,0.9,2.3L25.4,15.9z M26,19.2L26,19.2
		c0,0.3-0.1,0.5-0.1,0.8c-0.3,0.7-1,1.3-1.9,1.3c-1.1,0-2-0.9-2-2c0-0.6,0.3-1.2,0.7-1.5c0.2-0.2,0.4-0.3,0.7-0.4
		c0.2-0.1,0.4-0.1,0.6-0.1c0.1,0,0.1,0,0.2,0c0.1,0,0.2,0,0.3,0.1c0.3,0.1,0.5,0.2,0.7,0.3c0.2,0.2,0.4,0.3,0.5,0.6
		c0.1,0.1,0.1,0.2,0.2,0.3C25.9,18.7,26,18.9,26,19.2z M28.4,14.4c0.4,0.2,0.9,0.3,1.4,0.3c0.5,0,1-0.1,1.4-0.3l1.8,2.4
		c-0.4,0.4-0.7,1-0.8,1.6h-4.7c-0.1-0.6-0.4-1.1-0.8-1.6L28.4,14.4z M27.8,11.2c0-0.5,0.2-0.9,0.5-1.3c0.2-0.2,0.5-0.4,0.8-0.6
		c0.2-0.1,0.5-0.1,0.8-0.1c0.3,0,0.5,0.1,0.8,0.1c0.3,0.1,0.6,0.3,0.8,0.6c0.3,0.3,0.5,0.8,0.5,1.3c0,0.1,0,0.1,0,0.2
		c0,0.3-0.1,0.6-0.3,0.9c-0.3,0.4-0.7,0.8-1.2,0.9c-0.2,0-0.3,0.1-0.5,0.1c-0.2,0-0.3,0-0.5-0.1c-0.3-0.1-0.5-0.2-0.7-0.3
		c-0.2-0.2-0.4-0.3-0.5-0.6c-0.2-0.3-0.3-0.6-0.3-0.9C27.8,11.3,27.8,11.2,27.8,11.2z M32.8,9.4c-0.5-0.8-1.3-1.5-2.3-1.7V6.2
		c1.2,0.5,2.2,1.3,3.2,2.2c0.2,0.2,0.3,0.3,0.5,0.5L32.8,9.4z M21.5,6.4C21.7,6.6,21.9,6.7,22,7c0.2,0.2,0.3,0.4,0.3,0.7
		c0,0.1,0,0.2,0.1,0.3c0,0.1,0,0.1,0,0.2c0,0.5-0.2,0.9-0.5,1.3c-0.1,0.1-0.2,0.2-0.2,0.2c-0.2,0.2-0.4,0.3-0.7,0.4
		c-0.2,0.1-0.4,0.1-0.6,0.1c0,0-0.1,0-0.1,0c-1-0.1-1.8-0.8-1.9-1.8c0.9-0.8,1.8-1.5,2.9-2C21.3,6.4,21.4,6.4,21.5,6.4z"/>
	<polygon style="fill:#2C5967;" points="1.7,34.8 1.1,35.3 1.7,37 1.7,37 1.7,37 5.1,40.4 5.1,40.4 6.8,41 7.4,40.4 	"/>
</g>
</svg>
