<?xml version="1.0" encoding="utf-8"?>
<!-- Generator: Adobe Illustrator 24.0.2, SVG Export Plug-In . SVG Version: 6.00 Build 0)  -->
<svg version="1.1" id="Layer_1" xmlns="http://www.w3.org/2000/svg" xmlns:xlink="http://www.w3.org/1999/xlink" x="0px" y="0px"
	 viewBox="0 0 42.99 42" style="enable-background:new 0 0 42.99 42;" xml:space="preserve">
<metadata><?xpacket begin="﻿" id="W5M0MpCehiHzreSzNTczkc9d"?>
<x:xmpmeta xmlns:x="adobe:ns:meta/" x:xmptk="Adobe XMP Core 6.0-c002 79.164352, 2020/01/30-15:50:38        ">
   <rdf:RDF xmlns:rdf="http://www.w3.org/1999/02/22-rdf-syntax-ns#">
      <rdf:Description rdf:about=""
            xmlns:lr="http://ns.adobe.com/lightroom/1.0/"
            xmlns:dc="http://purl.org/dc/elements/1.1/"
            xmlns:xmp="http://ns.adobe.com/xap/1.0/"
            xmlns:xmpMM="http://ns.adobe.com/xap/1.0/mm/"
            xmlns:stEvt="http://ns.adobe.com/xap/1.0/sType/ResourceEvent#">
         <lr:hierarchicalSubject>
            <rdf:Bag>
               <rdf:li>Features|arrow</rdf:li>
               <rdf:li>Features|arrow|double</rdf:li>
               <rdf:li>Concept|security</rdf:li>
            </rdf:Bag>
         </lr:hierarchicalSubject>
         <dc:subject>
            <rdf:Bag>
               <rdf:li>Features|arrow</rdf:li>
               <rdf:li>Features|arrow|double</rdf:li>
               <rdf:li>Concept|security</rdf:li>
            </rdf:Bag>
         </dc:subject>
         <xmp:MetadataDate>2021-04-02T11:21:40-07:00</xmp:MetadataDate>
         <xmpMM:InstanceID>xmp.iid:c159b079-a2d9-2149-84ff-cc34df871587</xmpMM:InstanceID>
         <xmpMM:DocumentID>xmp.did:35ae6f11-372e-2044-884e-c3c9a361c216</xmpMM:DocumentID>
         <xmpMM:OriginalDocumentID>xmp.did:35ae6f11-372e-2044-884e-c3c9a361c216</xmpMM:OriginalDocumentID>
         <xmpMM:History>
            <rdf:Seq>
               <rdf:li>
                  <rdf:Description>
                     <stEvt:action>saved</stEvt:action>
                     <stEvt:instanceID>xmp.iid:35ae6f11-372e-2044-884e-c3c9a361c216</stEvt:instanceID>
                     <stEvt:when>2021-04-02T11:21:18-07:00</stEvt:when>
                     <stEvt:softwareAgent>Adobe Bridge 2020 (Windows)</stEvt:softwareAgent>
                     <stEvt:changed>/metadata</stEvt:changed>
                  </rdf:Description>
               </rdf:li>
               <rdf:li>
                  <rdf:Description>
                     <stEvt:action>saved</stEvt:action>
                     <stEvt:instanceID>xmp.iid:c159b079-a2d9-2149-84ff-cc34df871587</stEvt:instanceID>
                     <stEvt:when>2021-04-02T11:21:40-07:00</stEvt:when>
                     <stEvt:softwareAgent>Adobe Bridge 2020 (Windows)</stEvt:softwareAgent>
                     <stEvt:changed>/metadata</stEvt:changed>
                  </rdf:Description>
               </rdf:li>
            </rdf:Seq>
         </xmpMM:History>
      </rdf:Description>
   </rdf:RDF>
</x:xmpmeta>
                                                                                                    
                                                                                                    
                                                                                                    
                                                                                                    
                                                                                                    
                                                                                                    
                                                                                                    
                                                                                                    
                                                                                                    
                                                                                                    
                                                                                                    
                                                                                                    
                                                                                                    
                     
<?xpacket end="w"?></metadata>
<style type="text/css">
	.st0{fill:#FFFFFF;}
	.st1{fill:none;}
	.st2{fill:#2C5967;}
</style>
<g>
	<g>
		<g>
			<path class="st0" d="M10,41.5l-1.88-0.94l0-14.73H5.48l2.33,2.33l-1.76,1.76l-5.34-5.34l5.34-5.34l1.76,1.76l-2.33,2.33h2.65
				V11.59h3.73v-1.31c0-5.21,4.01-9.5,9.13-9.76C21.16,0.5,21.33,0.5,21.5,0.5c2.48,0,4.83,0.94,6.63,2.65c1.94,1.84,3,4.32,3,6.99
				v1.45h3.73v11.75h2.65l-2.33-2.33l1.76-1.76l5.34,5.34l-5.34,5.34l-1.76-1.76l2.33-2.33h-2.65l0,14.73l-1.88,0.94H10z"/>
			<path class="st0" d="M21.5,1c2.35,0,4.57,0.88,6.28,2.51c1.84,1.74,2.85,4.1,2.85,6.63v1.95h3.73v11.75h4.35l-2.83-2.83
				l1.06-1.06l4.63,4.63l-4.63,4.63l-1.06-1.06l2.83-2.83h-4.35v12.08h0v2.84L32.87,41l0,0H10.12v0l-1.5-0.75v-2.84h0V25.33H4.27
				l2.83,2.83l-1.06,1.06l-4.63-4.63l4.63-4.63l1.06,1.06l-2.83,2.83h4.35V12.09h3.73v-1.81c0-4.94,3.8-9.01,8.66-9.26
				C21.18,1,21.34,1,21.5,1 M21.5,0C21.5,0,21.5,0,21.5,0C21.5,0,21.5,0,21.5,0c-0.18,0-0.36,0-0.54,0.01
				c-5.39,0.28-9.6,4.79-9.6,10.26v0.81H8.62h-1v1v8.03l-0.87-0.87l-0.71-0.71l-0.71,0.71l-4.63,4.63L0,24.59l0.71,0.71l4.63,4.63
				l0.71,0.71l0.71-0.71l0.87-0.87v7.36l0,1v2.84v0.62l0.55,0.28l1.5,0.75L9.88,42h0.24l22.76,0h0.24l0.21-0.11l1.5-0.75l0.55-0.28
				v-0.62v-2.84v-1h0v-7.36l0.87,0.87l0.71,0.71l0.71-0.71l4.63-4.63l0.71-0.71l-0.71-0.71l-4.63-4.63l-0.71-0.71l-0.71,0.71
				l-0.87,0.87v-8.03v-1h-1h-2.73v-0.95c0-2.81-1.12-5.42-3.16-7.35C26.58,0.99,24.11,0,21.5,0L21.5,0L21.5,0z M35.37,22.84V21.9
				l0.94,0.94H35.37L35.37,22.84z M6.68,22.84l0.94-0.94v0.94H6.68L6.68,22.84z M35.37,26.33h0.94l-0.94,0.94V26.33L35.37,26.33z
				 M6.68,26.33h0.94v0.94L6.68,26.33L6.68,26.33z"/>
		</g>
		<g>
			<path class="st1" d="M21.36,5.1c-2.7,0.07-4.9,2.39-4.9,5.16v1.82h10.07v-1.95c0-1.37-0.54-2.65-1.52-3.61
				C24.03,5.57,22.74,5.07,21.36,5.1z"/>
			<path class="st1" d="M14.97,10.26c0-3.58,2.85-6.57,6.36-6.66c1.78-0.05,3.46,0.61,4.73,1.85c1.27,1.24,1.97,2.9,1.97,4.68v1.95
				h1.12v-1.95c0-2.12-0.85-4.09-2.38-5.55c-1.54-1.46-3.55-2.2-5.67-2.09c-4.06,0.21-7.24,3.62-7.24,7.77v1.81h1.12V10.26z"/>
			<path class="st1" d="M10.12,23.84h1.49v1.49h-1.49V36.9h22.76V25.33h-1.49v-1.49h1.49V13.58H10.12V23.84z M28.77,23.84h1.49v1.49
				h-1.49V23.84z M26.16,23.84h1.49v1.49h-1.49V23.84z M18.38,24.03c0.23-1.29,1.26-2.31,2.55-2.53c2-0.35,3.74,1.19,3.74,3.12
				c0,1.2-0.67,2.24-1.65,2.78l0.59,4.09h-4.23l0.63-4.07C18.85,26.8,18.11,25.48,18.38,24.03z M15.34,23.84h1.49v1.49h-1.49V23.84z
				 M12.73,23.84h1.49v1.49h-1.49V23.84z"/>
			<path class="st2" d="M20.02,27.42l-0.63,4.07h4.23l-0.59-4.09c0.98-0.54,1.65-1.58,1.65-2.78c0-1.94-1.74-3.47-3.74-3.12
				c-1.29,0.22-2.32,1.25-2.55,2.53C18.11,25.48,18.85,26.8,20.02,27.42z"/>
			<path class="st2" d="M36.95,19.95l-1.06,1.06l2.83,2.83h-4.35V12.09h-3.73v-1.95c0-2.53-1.01-4.88-2.85-6.63
				c-1.83-1.74-4.24-2.63-6.78-2.5c-4.85,0.25-8.66,4.32-8.66,9.26v1.81H8.62v11.75H4.27l2.83-2.83l-1.06-1.06l-4.63,4.63l4.63,4.63
				l1.06-1.06l-2.83-2.83h4.35v13.06h25.74V25.33h4.35l-2.83,2.83l1.06,1.06l4.63-4.63L36.95,19.95z M13.85,10.27
				c0-4.15,3.18-7.56,7.24-7.77c2.12-0.11,4.14,0.63,5.67,2.09c1.54,1.46,2.38,3.43,2.38,5.55v1.95h-1.12v-1.95
				c0-1.78-0.7-3.44-1.97-4.68c-1.27-1.24-2.95-1.9-4.73-1.85c-3.51,0.09-6.36,3.08-6.36,6.66v1.82h-1.12V10.27z M26.53,10.13v1.95
				H16.46v-1.82c0-2.78,2.2-5.1,4.9-5.16c1.38-0.03,2.67,0.47,3.65,1.43C25.99,7.48,26.53,8.76,26.53,10.13z M32.87,23.84h-1.49
				v1.49h1.49V36.9H10.12V25.33h1.49v-1.49h-1.49V13.58h22.76V23.84z"/>
			<polygon class="st2" points="8.62,39.51 8.62,40.25 10.12,41 10.12,41 32.87,41 32.87,41 34.37,40.25 34.37,39.51 			"/>
			<rect x="15.34" y="23.84" class="st2" width="1.49" height="1.49"/>
			<rect x="12.73" y="23.84" class="st2" width="1.49" height="1.49"/>
			<rect x="28.77" y="23.84" class="st2" width="1.49" height="1.49"/>
			<rect x="26.16" y="23.84" class="st2" width="1.49" height="1.49"/>
		</g>
	</g>
</g>
</svg>
