<svg id="Layer_1" data-name="Layer 1" xmlns="http://www.w3.org/2000/svg" viewBox="0 0 42 42">
   <g>
      <path
         d="M2.67,41.5A2.17,2.17,0,0,1,.5,39.33V2.67A2.17,2.17,0,0,1,2.67.5H39.33A2.17,2.17,0,0,1,41.5,2.67V33.78a7.72,7.72,0,0,1-7.72,7.72Z"
         fill="#fff" />
      <path
         d="M39.33,1A1.67,1.67,0,0,1,41,2.67V33.78A7.22,7.22,0,0,1,33.78,41H2.67A1.67,1.67,0,0,1,1,39.33V2.67A1.67,1.67,0,0,1,2.67,1H39.33m0-1H2.67A2.68,2.68,0,0,0,0,2.67V39.33A2.68,2.68,0,0,0,2.67,42H33.78A8.23,8.23,0,0,0,42,33.78V2.67A2.68,2.68,0,0,0,39.33,0Z"
         fill="#fff" />
      <path
         d="M27.75,39.52H2.67a.2.2,0,0,1-.19-.19V2.67a.2.2,0,0,1,.19-.19H39.33a.2.2,0,0,1,.19.19V27.75A8.19,8.19,0,0,1,41,29.63v-27A1.67,1.67,0,0,0,39.33,1H2.67A1.67,1.67,0,0,0,1,2.67V39.33A1.67,1.67,0,0,0,2.67,41h27A8.19,8.19,0,0,1,27.75,39.52Z"
         fill="#2c5967" />
      <path d="M6.56,35.44H25.61A8,8,0,0,1,25.45,34H8V28H27.75a8.19,8.19,0,0,1,1.88-1.48H6.56Z" fill="#2c5967" />
      <path d="M6.56,15.44h8.88V6.56H6.56ZM8,8H14V14H8Z" fill="#2c5967" />
      <path d="M16.56,15.44h8.88V6.56H16.56ZM18,8H24V14H18Z" fill="#2c5967" />
      <path d="M6.56,25.44h8.88V16.56H6.56ZM8,18H14V24H8Z" fill="#2c5967" />
      <path d="M16.56,25.44h8.88V16.56H16.56ZM18,18H24V24H18Z" fill="#2c5967" />
      <path d="M26.56,15.44h8.88V6.56H26.56ZM28,8H34V14H28Z" fill="#2c5967" />
      <path d="M35.44,16.56H26.56v8.88h8.88ZM34,24H28V18H34Z" fill="#2c5967" />
      <path
         d="M41,33.78A7.22,7.22,0,1,0,33.78,41,7.22,7.22,0,0,0,41,33.78Zm-13,0a5.74,5.74,0,1,1,5.74,5.74A5.74,5.74,0,0,1,28,33.78Z"
         fill="#2c5967" />
      <path
         d="M36.87,35.38a2.87,2.87,0,0,0,.22-.55l1.06-.11V32.84l-1.06-.12a2.78,2.78,0,0,0-.22-.54l.66-.83L36.21,30l-.83.67a3.76,3.76,0,0,0-.55-.23l-.11-1.05H32.84l-.12,1.05a3.65,3.65,0,0,0-.54.23L31.35,30,30,31.35l.67.83a3.65,3.65,0,0,0-.23.54l-1.05.12v1.88l1.05.11a3.76,3.76,0,0,0,.23.55l-.67.83,1.33,1.32.83-.66a3.6,3.6,0,0,0,.54.22l.12,1.06h1.88l.11-1.06a3.71,3.71,0,0,0,.55-.22l.83.66,1.32-1.32Zm-5-1.6a1.9,1.9,0,1,1,1.9,1.9A1.9,1.9,0,0,1,31.88,33.78Z"
         fill="#2c5967" />
   </g>
</svg>