<?xml version="1.0" encoding="utf-8"?>
<!-- Generator: Adobe Illustrator 24.0.2, SVG Export Plug-In . SVG Version: 6.00 Build 0)  -->
<svg version="1.1" id="Layer_1" xmlns="http://www.w3.org/2000/svg" xmlns:xlink="http://www.w3.org/1999/xlink" x="0px" y="0px"
	 viewBox="0 0 42 42" style="enable-background:new 0 0 42 42;" xml:space="preserve">
<style type="text/css">
	.st0{fill:#FFFFFF;}
	.st1{fill:#2C5967;}
</style>
<g>
	<g>
		<g>
			<path class="st0" d="M2.67,41.5c-1.19,0-2.17-0.97-2.17-2.17V2.67c0-1.2,0.97-2.17,2.17-2.17h36.67c1.19,0,2.17,0.97,2.17,2.17
				v36.67c0,1.2-0.97,2.17-2.17,2.17H2.67z"/>
			<path class="st0" d="M39.33,1C40.25,1,41,1.75,41,2.67v36.67c0,0.92-0.75,1.67-1.67,1.67H2.67C1.75,41,1,40.25,1,39.33V2.67
				C1,1.75,1.75,1,2.67,1H39.33 M39.33,0H2.67C1.2,0,0,1.2,0,2.67v36.67C0,40.8,1.2,42,2.67,42h36.67C40.8,42,42,40.8,42,39.33V2.67
				C42,1.2,40.8,0,39.33,0L39.33,0z"/>
		</g>
		<g>
			<path class="st1" d="M11.85,23.2c0,5.01,4.14,9.08,9.24,9.08c5.09,0,9.24-4.07,9.24-9.08c0-5.01-4.14-9.08-9.24-9.08
				C16,14.12,11.85,18.19,11.85,23.2z M28.81,22.46h-1.45v1.48h1.45c-0.36,3.6-3.3,6.48-6.98,6.82v-1.48h-1.48v1.48
				c-3.68-0.34-6.62-3.22-6.98-6.82h1.4v-1.48h-1.4c0.36-3.6,3.3-6.48,6.98-6.82v1.41h1.48v-1.41
				C25.51,15.98,28.45,18.85,28.81,22.46z"/>
			<path class="st1" d="M21.09,9.8c7.27,0,13.22,5.59,13.64,12.61l-1-0.98l-1.04,1.06l2.84,2.79l2.84-2.79l-1.04-1.06l-1.11,1.09
				c-0.36-7.89-7.01-14.21-15.13-14.21c-6.22,0-11.74,3.67-14.06,9.34l1.37,0.56C10.49,13.1,15.47,9.8,21.09,9.8z"/>
			<path class="st1" d="M21.77,23.08v-4.39c0-0.41-0.33-0.74-0.74-0.74s-0.74,0.33-0.74,0.74v4.7c0,0.2,0.08,0.39,0.22,0.53
				L22.62,26c0.14,0.14,0.33,0.21,0.52,0.21c0.19,0,0.38-0.07,0.53-0.22c0.29-0.29,0.28-0.76-0.01-1.05L21.77,23.08z"/>
			<path class="st1" d="M5.96,23.89c0.22,8.02,6.92,14.47,15.14,14.47c6.27,0,11.8-3.7,14.1-9.43l-1.38-0.55
				c-2.07,5.17-7.06,8.5-12.72,8.5c-7.39,0-13.42-5.78-13.65-12.97l1.05,1.03l1.04-1.06L6.69,21.1l-2.84,2.79l1.04,1.06L5.96,23.89z
				"/>
			<path class="st1" d="M1,39.33C1,40.25,1.75,41,2.67,41h36.67c0.92,0,1.67-0.75,1.67-1.67V4.99H1V39.33z M2.48,6.47h37.04v32.87
				c0,0.1-0.08,0.19-0.19,0.19H2.67c-0.1,0-0.19-0.08-0.19-0.19V6.47z"/>
			<path class="st1" d="M39.33,1H2.67C1.75,1,1,1.75,1,2.67v1.21h40V2.67C41,1.75,40.25,1,39.33,1z"/>
		</g>
	</g>
</g>
</svg>
