<svg viewBox="0 0 32 32" fit="" height="100%" width="100%" preserveAspectRatio="xMidYMid meet" focusable="false" xmlns="http://www.w3.org/2000/svg">
    <path
        d="M15.61 29c-6.17 0-11-2.86-11-6.5V16h2v6.5c0 2.17 3.62 4.5 9 4.5v2zm0 0v-2c5.38 0 9-2.33 9-4.5V16h2v6.5c0 3.64-4.83 6.5-11 6.5z"
        fill="#5f6368"></path>
    <path
        d="M15.61 22.5c-6.17 0-11-2.86-11-6.5V9.5h2V16c0 2.17 3.62 4.5 9 4.5v2zm0 0v-2c5.38 0 9-2.33 9-4.5V9.5h2V16c0 3.64-4.83 6.5-11 6.5z"
        fill="#80868b"></path>
    <path
        d="M15.61 16c-6.17 0-11-2.86-11-6.5S9.44 3 15.61 3v2c-5.38 0-9 2.33-9 4.5s3.62 4.5 9 4.5v2zm0 0v-2c5.38 0 9-2.33 9-4.5s-3.62-4.5-9-4.5V3c6.17 0 11 2.86 11 6.5s-4.83 6.5-11 6.5z"
        fill="#9aa0a6"></path>
</svg>