<?xml version="1.0" encoding="utf-8"?>
<!-- Generator: Adobe Illustrator 22.0.1, SVG Export Plug-In . SVG Version: 6.00 Build 0)  -->
<svg version="1.1" id="Icons" xmlns="http://www.w3.org/2000/svg" xmlns:xlink="http://www.w3.org/1999/xlink" x="0px" y="0px"
	 viewBox="0 0 288 288" style="enable-background:new 0 0 288 288;" xml:space="preserve">
<style type="text/css">
	.st0{fill:#F80000;}
</style>
<g>
	<g>
		<path class="st0" d="M126.4,146.3c0,1.4,0.8,2.8,2.4,2.8c0.9,0,1.9-0.7,2.4-2v-2.3c-0.7-0.9-1.6-1.3-2.4-1.3
			C127.1,143.4,126.4,144.9,126.4,146.3z"/>
		<path class="st0" d="M160.2,125H86.7v7.6l0,0l34.7,35.2c2,2.1,4.7,3.2,7.6,3.2c0,0,0,0,0,0c2.9,0,5.6-1.1,7.6-3.2l29.6-30
			C163,134.4,160.8,130,160.2,125z M135.1,152.2c-1.2,0-2.6-0.5-3.4-2.3c-0.7,1.1-2.1,1.8-3.5,1.8c-2.8,0-4.7-2.4-4.7-5.3
			c0-2.6,1.7-5.4,4.7-5.4c1,0,2.2,0.5,2.9,1.2v-0.5c0-0.3,0.2-0.5,0.5-0.5h1.9c0.3,0,0.5,0.2,0.5,0.5v4.4c0,2.5,0.4,3.3,1.2,3.3
			c1.3,0,1.9-2,1.9-3.6c0-4.8-3-7.7-8.1-7.7c-4.4,0-7.9,3.5-7.9,8.1c0,4.5,3.4,8.1,7.8,8.1c1.1,0,2.2-0.2,3.3-0.7
			c0.2-0.1,0.5,0,0.6,0.2l0.9,1.7c0.1,0.2,0,0.5-0.2,0.6c-1.5,0.7-3.1,1-4.6,1c-6.1,0-11-5-11-11c0-6.2,5-11,11.1-11
			c6.4,0,11.3,4.2,11.3,10.4C140.2,149,138.6,152.2,135.1,152.2z"/>
	</g>
	<g>
		<g>
			<g>
				<path class="st0" d="M169.2,104.7h-62.5v5.5h57.1C165.3,108,167.1,106.2,169.2,104.7z"/>
				<path class="st0" d="M186.2,144.2V165h5.5v-22.7C190,143.2,188.2,143.8,186.2,144.2z"/>
			</g>
			<g>
				<path class="st0" d="M176,143.7v31.5h5.5v-30.6C179.6,144.5,177.8,144.2,176,143.7z"/>
				<path class="st0" d="M161.4,114.9h-65v5.5h63.7C160.3,118.5,160.8,116.6,161.4,114.9z"/>
			</g>
			<path class="st0" d="M168.8,140L139,170.2c-2.7,2.7-6.2,4.2-10,4.2c0,0,0,0,0,0c-3.8,0-7.3-1.5-10-4.2l-32.3-32.8v45.9h84.7
				v-41.5C170.5,141.2,169.6,140.7,168.8,140z"/>
		</g>
	</g>
	<path class="st0" d="M182.1,103.8c-10.3,0-18.7,8.4-18.7,18.7c0,10.3,8.4,18.7,18.7,18.7c10.3,0,18.7-8.4,18.7-18.7
		C200.8,112.2,192.4,103.8,182.1,103.8z M190.5,124.6l2.3,1c0.3,0.1,0.4,0.4,0.3,0.7l-0.6,1.5c-0.1,0.3-0.4,0.4-0.7,0.3l-2.3-1
		c-0.7,1.2-1.7,2.1-2.8,2.8l1,2.3c0.1,0.3,0,0.6-0.3,0.7l-1.5,0.6c-0.3,0.1-0.6,0-0.7-0.3l-1-2.3c-0.7,0.2-1.3,0.2-2,0.2
		c-0.7,0-1.3-0.1-2-0.2l-1,2.3c-0.1,0.3-0.4,0.4-0.7,0.3l-1.5-0.6c-0.3-0.1-0.4-0.4-0.3-0.7l1-2.3c-1.1-0.7-2.1-1.6-2.8-2.8l-2.3,1
		c-0.3,0.1-0.6,0-0.7-0.3l-0.6-1.5c-0.1-0.3,0-0.6,0.3-0.7l2.3-1c-0.3-1.3-0.3-2.7,0-4l-2.3-0.9c-0.3-0.1-0.4-0.4-0.3-0.7l0.6-1.5
		c0.1-0.3,0.4-0.4,0.7-0.3l2.3,0.9c0.7-1.1,1.7-2.1,2.8-2.8l-0.9-2.3c-0.1-0.3,0-0.6,0.3-0.7l1.5-0.6c0.3-0.1,0.6,0,0.7,0.3l0.9,2.3
		c1.3-0.3,2.7-0.3,4,0l0.9-2.3c0.1-0.3,0.4-0.4,0.7-0.3l1.5,0.6c0.3,0.1,0.4,0.4,0.3,0.7l-1,2.3c1.1,0.7,2.1,1.7,2.8,2.8l2.3-1
		c0.3-0.1,0.6,0,0.7,0.3l0.6,1.5c0.1,0.3,0,0.6-0.3,0.7l-2.3,1C190.8,121.9,190.8,123.3,190.5,124.6z M187.3,120.4
		c1.2,2.9-0.2,6.2-3.1,7.4c-2.9,1.2-6.2-0.2-7.4-3.1c-1.2-2.9,0.2-6.2,3.1-7.4c0.7-0.3,1.4-0.4,2.2-0.4
		C184.3,116.9,186.4,118.2,187.3,120.4z"/>
</g>
</svg>
