<?xml version="1.0" encoding="utf-8"?>
<!-- Generator: Adobe Illustrator 21.0.0, SVG Export Plug-In . SVG Version: 6.00 Build 0)  -->
<!DOCTYPE svg PUBLIC "-//W3C//DTD SVG 1.1//EN" "http://www.w3.org/Graphics/SVG/1.1/DTD/svg11.dtd">
<svg version="1.1" id="Icons" xmlns="http://www.w3.org/2000/svg" xmlns:xlink="http://www.w3.org/1999/xlink" x="0px" y="0px"
	 viewBox="0 0 288 288" style="enable-background:new 0 0 288 288;" xml:space="preserve">
<style type="text/css">
	.st0{fill:#F80000;}
</style>
<g>
	<circle class="st0" cx="125.3" cy="190.7" r="6.7"/>
	<path class="st0" d="M144,184.1c-3.7,0-6.7,3-6.7,6.7s3,6.7,6.7,6.7c3.7,0,6.7-3,6.7-6.7S147.7,184.1,144,184.1z M144,194.7
		c-2.2,0-4-1.8-4-4s1.8-4,4-4s4,1.8,4,4S146.2,194.7,144,194.7z"/>
	<path class="st0" d="M162.7,184.1c-3.7,0-6.7,3-6.7,6.7s3,6.7,6.7,6.7c3.7,0,6.7-3,6.7-6.7S166.4,184.1,162.7,184.1z M162.7,194.7
		c-2.2,0-4-1.8-4-4s1.8-4,4-4s4,1.8,4,4S164.9,194.7,162.7,194.7z"/>
	<path class="st0" d="M225.7,130.9l-8.2-8.2c-0.7-0.7-1.8-0.7-2.5,0l-1.3,1.3c-0.7,0.7-0.7,1.8,0,2.5l8.2,8.2l-8.2,8.2
		c-0.7,0.7-0.7,1.8,0,2.5l1.3,1.3c0.7,0.7,1.8,0.7,2.5,0l8.2-8.2l3.8-3.8L225.7,130.9z"/>
	<path class="st0" d="M74.3,124l-1.3-1.3c-0.7-0.7-1.8-0.7-2.5,0l-8.2,8.2l-3.8,3.8l3.8,3.8l8.2,8.2c0.7,0.7,1.8,0.7,2.5,0l1.3-1.3
		c0.7-0.7,0.7-1.8,0-2.5l-8.2-8.2l8.2-8.2C75,125.8,75,124.6,74.3,124z"/>
	<path class="st0" d="M204.5,90.6H83.5c-2,0-3.6,1.6-3.6,3.6v81c0,2,1.6,3.6,3.6,3.6h121.1c2,0,3.6-1.6,3.6-3.6v-81
		C208.1,92.2,206.5,90.6,204.5,90.6z M161,109.8h6.3v6.3H161V109.8z M150.5,159c-0.9-1.1-2.1-2.1-3.5-2.7l-16.4-7.8
		c-0.1,0.1-2.8,3.1-9.6,3.1s-9.5-3-9.6-3.1L95,156.3c-0.7,0.4-1.4,0.8-2.1,1.3v-54.5h57.5V159z M160.8,131.6h6.5v6.3h-6.5V131.6z
		 M167.4,159.8h-6.5v-6.3h6.5V159.8z M194.5,152.7l-10,10l-6.4-6.4c-0.7-0.7-0.7-1.9,0-2.6c0.7-0.7,1.9-0.7,2.6,0l3.7,3.7l7.4-7.4
		c0.7-0.7,1.9-0.7,2.6,0C195.3,150.8,195.3,151.9,194.5,152.7z M179.4,129.9c-0.7-0.7-0.7-1.9,0-2.6c0.7-0.7,1.9-0.7,2.6,0l3.9,3.9
		l3.9-3.9c0.7-0.7,1.9-0.7,2.6,0c0.7,0.7,0.7,1.9,0,2.6l-3.9,3.9l3.9,3.9c0.7,0.7,0.7,1.9,0,2.6c-0.4,0.4-0.8,0.5-1.3,0.5
		c-0.5,0-1-0.2-1.3-0.5l-3.9-3.9l-3.9,3.9c-0.4,0.4-0.8,0.5-1.3,0.5s-1-0.2-1.3-0.5c-0.7-0.7-0.7-1.9,0-2.6l3.9-3.9L179.4,129.9z
		 M194.5,108.8l-10,10l-6.4-6.4c-0.7-0.7-0.7-1.9,0-2.6c0.7-0.7,1.9-0.7,2.6,0l3.7,3.7l7.4-7.4c0.7-0.7,1.9-0.7,2.6,0
		C195.3,106.9,195.3,108.1,194.5,108.8z"/>
	<path class="st0" d="M108.6,130.4l0.5,3.7c0.2,1.2,1.2,2.1,2.4,2.1v0c1.3,9.2,8.2,9.6,9.3,9.6h0h0h0c0,0,0,0,0.1,0c0,0,0,0,0,0h0
		c0,0,0,0,0.1,0c0,0,0,0,0,0h0h0c1.1,0,8-0.4,9.3-9.6v0c1.2,0,2.3-0.9,2.4-2.1l0.5-3.7c0.2-1.1-0.4-2-1.3-2.5c0.3-1.6,0.8-4.5,0.8-7
		c0-4.4-4-9.1-9.3-9.6l-1.8-2.4C109,109.5,109,120,109,120v1.3c0.1,2.4,0.5,5.1,0.8,6.6C109,128.4,108.5,129.4,108.6,130.4z"/>
</g>
</svg>
