<?xml version="1.0" encoding="utf-8"?>
<!-- Generator: Adobe Illustrator 22.0.1, SVG Export Plug-In . SVG Version: 6.00 Build 0)  -->
<svg version="1.1" id="Icons" xmlns="http://www.w3.org/2000/svg" xmlns:xlink="http://www.w3.org/1999/xlink" x="0px" y="0px"
	 viewBox="0 0 288 288" style="enable-background:new 0 0 288 288;" xml:space="preserve">
<style type="text/css">
	.st0{fill:#F80000;}
</style>
<g>
	<path class="st0" d="M129.2,151c0.5,3.6,1.2,7.1,2.4,10.5h11.6V146H134C133.4,148.4,131.5,150.3,129.2,151z"/>
	<path class="st0" d="M129.2,137.2c2.4,0.7,4.2,2.6,4.9,5h9.1v-15.5h-11.6C130.4,130,129.7,133.5,129.2,137.2z"/>
	<path class="st0" d="M160.1,120.2c2,0,3.8,1.1,4.7,2.7h8.2c-4.6-6.1-11.7-11.1-19.9-12.9c2.6,3,4.8,6.5,6.6,10.2
		C159.9,120.2,160,120.2,160.1,120.2z"/>
	<path class="st0" d="M133.2,122.9h10V109C139.1,112.7,135.6,117.4,133.2,122.9z"/>
	<path class="st0" d="M143.2,179.2v-13.8h-10C135.6,170.8,139.1,175.5,143.2,179.2z"/>
	<circle class="st0" cx="160.1" cy="125.7" r="2.4"/>
	<path class="st0" d="M129,122.9c2-4.8,4.8-9.2,7.9-12.9c-7.7,1.7-14.4,6.3-19,11.9c0.2,0.3,0.4,0.6,0.5,1H129z"/>
	<path class="st0" d="M125.4,137c0.4-3.6,1.1-7,2.2-10.3l-9.7,0c-0.8,1.3-2.2,2.2-3.8,2.2c-0.2,0-0.3-0.1-0.5-0.1
		c-2,4.1-3.3,8.6-3.5,13.4h10C120.7,139.6,122.8,137.6,125.4,137z"/>
	<circle class="st0" cx="127" cy="144.1" r="4.1"/>
	<path class="st0" d="M117.1,165.3c4.6,6.1,11.7,11.1,19.9,12.9c-3.2-3.7-5.9-8.1-7.9-12.9H117.1z"/>
	<path class="st0" d="M125.4,151.2c-2.6-0.6-4.7-2.6-5.4-5.2h-10c0.3,5.6,1.9,10.9,4.6,15.5l13,0
		C126.5,158.2,125.8,154.8,125.4,151.2z"/>
	<path class="st0" d="M114.1,125.7c0.8,0,1.4-0.6,1.4-1.4c0-0.8-0.6-1.4-1.4-1.4c-0.8,0-1.4,0.6-1.4,1.4
		C112.6,125.1,113.3,125.7,114.1,125.7z"/>
	<path class="st0" d="M177.1,146h-11.8c-0.2,4.7-0.9,9.2-2.1,13.4c0.7,0.5,1.3,1.2,1.7,2.1l10.7,0c2.2-3.9,3.6-8.2,4.2-12.9
		C178.6,148.2,177.6,147.2,177.1,146z"/>
	<path class="st0" d="M165.6,126.7c-0.2,1.4-1,2.5-2.1,3.4c1,3.9,1.6,7.9,1.8,12.1h11.8c0.5-1.2,1.5-2.2,2.7-2.6
		c-0.6-4.6-2-9-4.2-12.9L165.6,126.7z"/>
	<circle class="st0" cx="160.1" cy="163.5" r="1.9"/>
	<circle class="st0" cx="181.6" cy="144.1" r="1.7"/>
	<path class="st0" d="M160.1,168.6c-0.2,0-0.3-0.1-0.5-0.1c-1.8,3.6-3.9,6.9-6.4,9.7c8.2-1.9,15.2-6.8,19.9-12.9h-8.2
		C164.1,167.2,162.3,168.6,160.1,168.6z"/>
	<path class="st0" d="M145.2,89.4c-30.2,0-54.7,24.5-54.7,54.7c0,30.2,24.5,54.7,54.7,54.7c30.2,0,54.7-24.5,54.7-54.7
		C199.9,113.9,175.4,89.4,145.2,89.4z M183.7,148.5c-2.2,19.4-18.6,34.5-38.6,34.5c-21.5,0-38.9-17.4-38.9-38.9
		c0-6.2,1.5-12,4.1-17.2c-0.6-0.8-0.9-1.6-0.9-2.7c0-2.6,2.1-4.6,4.6-4.6c0.3,0,0.6,0.1,0.9,0.2c7.1-8.9,18-14.6,30.2-14.6
		c20,0,36.4,15.1,38.6,34.5c1.6,0.8,2.8,2.4,2.8,4.4S185.3,147.7,183.7,148.5z"/>
	<path class="st0" d="M156.4,121.6c-2.4-4.9-5.6-9.2-9.4-12.6v13.8h8.4C155.6,122.4,156,122,156.4,121.6z"/>
	<path class="st0" d="M155.3,165.3H147v13.8c3.7-3.3,6.9-7.5,9.3-12.4C155.9,166.4,155.6,165.9,155.3,165.3z"/>
	<path class="st0" d="M159.8,131.2c-2.6-0.1-4.7-2-5.2-4.5H147v15.5h14.5C161.4,138.4,160.7,134.8,159.8,131.2z"/>
	<path class="st0" d="M159.5,158.4c1.1-4,1.9-8.1,2-12.4H147v15.5h8.4C156.1,159.8,157.6,158.7,159.5,158.4z"/>
</g>
</svg>
