<?xml version="1.0" encoding="utf-8"?>
<!-- Generator: Adobe Illustrator 21.0.0, SVG Export Plug-In . SVG Version: 6.00 Build 0)  -->
<!DOCTYPE svg PUBLIC "-//W3C//DTD SVG 1.1//EN" "http://www.w3.org/Graphics/SVG/1.1/DTD/svg11.dtd">
<svg version="1.1" id="Icons" xmlns="http://www.w3.org/2000/svg" xmlns:xlink="http://www.w3.org/1999/xlink" x="0px" y="0px"
	 viewBox="0 0 288 288" style="enable-background:new 0 0 288 288;" xml:space="preserve">
<style type="text/css">
	.st0{fill:#F80000;}
</style>
<g>
	<path class="st0" d="M214.7,153.8l-17.3-10v7.5h-15.9v-20.5h-10.2v-12.5c0-15.1-12.2-27.3-27.3-27.3c-15.1,0-27.3,12.2-27.3,27.3
		v12.5h-10.2v20.5H90.6v-7.5l-17.3,10l17.3,10v-7.5h15.9V181l37.5,16.1l37.5-16.1v-24.8h15.9v7.5L214.7,153.8z M114.7,156.3h-4.2v-5
		h4.2V156.3z M123,156.3h-4.2v-5h4.2V156.3z M131.3,156.3h-4.2v-5h4.2V156.3z M146.7,159.4l2.5,13.9h-10.7l2.6-14
		c-3.6-1.2-6.2-4.6-6.2-8.6c0-5,4.1-9.2,9.1-9.2c5,0,9.1,4.1,9.1,9.2C153.1,154.8,150.4,158.2,146.7,159.4z M160.8,156.3h-4.2v-5
		h4.2V156.3z M161.1,130.7h-34.1v-12.5c0-9.4,7.6-17.1,17.1-17.1c9.4,0,17,7.6,17,17.1V130.7z M169.1,156.3H165v-5h4.2V156.3z
		 M177.4,156.3h-4.2v-5h4.2V156.3z"/>
</g>
</svg>
