<?xml version="1.0" encoding="utf-8"?>
<!-- Generator: Adobe Illustrator 21.0.0, SVG Export Plug-In . SVG Version: 6.00 Build 0)  -->
<!DOCTYPE svg PUBLIC "-//W3C//DTD SVG 1.1//EN" "http://www.w3.org/Graphics/SVG/1.1/DTD/svg11.dtd">
<svg version="1.1" id="Icons" xmlns="http://www.w3.org/2000/svg" xmlns:xlink="http://www.w3.org/1999/xlink" x="0px" y="0px"
	 viewBox="0 0 288 288" style="enable-background:new 0 0 288 288;" xml:space="preserve">
<style type="text/css">
	.st0{fill:#F80000;}
</style>
<g>
	<g>
		<path class="st0" d="M178.1,126.6c0.3-1.6,0.8-4.5,0.8-7c0-4.4-4-9-9.3-9.5l-1.8-2.4c-12.8,0.6-12.8,11.1-12.8,11.1v1.3
			c0,0.5,0,1.1,0.1,1.6c3,2.6,4.9,6.2,5,10.1c0,1.7-0.2,3.6-0.5,5.7c0.8,1.2,1.1,2.7,0.9,4.1c2.5,2.6,5.6,2.8,6.3,2.8h0h0h0.1h0h0
			h0.1h0h0h0c1.1,0,8-0.4,9.3-9.5v0c1.2,0,2.3-0.9,2.4-2.1l0.5-3.7C179.5,128,178.9,127,178.1,126.6z"/>
		<path class="st0" d="M188.2,147.9L188.2,147.9c-1.8-0.6-4.1-1.3-6.2-1.9c-1.3-0.4-2.5-0.7-3.4-0.9c-1.5-0.4-2.5-0.6-2.5-0.6h0
			c-1.8,2.5-5.4,3.7-9.1,3.7h0c-2.6,0-5.2-0.7-7.2-1.9c-0.4,1.7-1.3,3.1-2.8,4c-0.3,1.2-0.8,2.3-1.3,3.4l0.9,0.2
			c1,0.2,2.3,0.6,3.6,1c2.1,0.6,3.9,1.2,5.4,1.6l1.5,0.6c4.9,2.6,7.9,7.7,7.9,13.2v10h18.8v-22.9
			C193.8,153.3,191.5,149.7,188.2,147.9z"/>
		<path class="st0" d="M113,170.3c0-5.6,3-10.6,7.8-13.2l1.5-0.8l0.3,0.1c1.3-0.4,3.1-1,5.2-1.6c1.3-0.4,2.6-0.7,3.6-1l0.8-0.2
			c-0.6-1.1-1-2.2-1.3-3.5c-1.4-0.9-2.3-2.4-2.7-4c-1.9,1.3-4.5,1.9-7.2,1.9h0c-3.7,0-7.3-1.2-9.1-3.7c0,0-1,0.2-2.5,0.6
			c-1,0.2-2.2,0.6-3.4,0.9c-2.1,0.6-4.4,1.3-6.2,1.9l0,0c-3.3,1.8-5.6,5.4-5.6,9.5v22.9H113V170.3z"/>
		<path class="st0" d="M120.8,144.5L120.8,144.5L120.8,144.5h0.1h0h0h0.1h0h0h0c0.7,0,3.9-0.2,6.4-2.9c-0.1-1.4,0.1-2.8,0.9-4
			c-0.3-1.9-0.5-3.7-0.5-5.2l0-1.4c0-3,1.2-7.6,5-11c0-0.2,0-0.3,0-0.5c0-4.4-4-9-9.3-9.5l-1.8-2.4c-12.8,0.6-12.8,11.1-12.8,11.1
			v1.3c0.1,2.4,0.5,5.1,0.8,6.5c-0.8,0.5-1.4,1.5-1.2,2.5l0.5,3.7c0.2,1.2,1.2,2.1,2.4,2.1v0C112.8,144.1,119.8,144.5,120.8,144.5z"
			/>
		<path class="st0" d="M131.6,141.9l0.5,3.7c0.2,1.2,1.2,2.1,2.4,2.1v0c1.3,9.1,8.2,9.5,9.3,9.5h0h0h0.1h0h0h0.1h0h0h0
			c1.1,0,8-0.4,9.3-9.5v0c1.2,0,2.3-0.9,2.4-2.1l0.5-3.7c0.1-1.1-0.4-2-1.3-2.5c0.3-1.6,0.8-4.5,0.8-7c0-4.4-4-9-9.3-9.5l-1.8-2.4
			c-12.8,0.6-12.8,11.1-12.8,11.1v1.3c0.1,2.4,0.5,5.1,0.8,6.5C132,139.9,131.5,140.9,131.6,141.9"/>
		<path class="st0" d="M117.2,180.3v-10.1c0-4.1,2.3-7.7,5.6-9.5l0,0c1.7-0.6,4.1-1.3,6.2-1.9c1.3-0.4,2.5-0.7,3.4-0.9
			c1.5-0.4,2.5-0.6,2.5-0.6c1.8,2.5,5.4,3.7,9.1,3.7h0c3.7,0,7.3-1.2,9.1-3.7h0c0,0,1,0.2,2.5,0.6c1,0.2,2.1,0.6,3.4,0.9
			c2.1,0.6,4.4,1.3,6.2,1.9l0,0c3.3,1.8,5.6,5.4,5.6,9.5v10.1H117.2z"/>
	</g>
</g>
</svg>
