<?xml version="1.0" encoding="utf-8"?>
<!-- Generator: Adobe Illustrator 22.0.1, SVG Export Plug-In . SVG Version: 6.00 Build 0)  -->
<svg version="1.1" id="Icons" xmlns="http://www.w3.org/2000/svg" xmlns:xlink="http://www.w3.org/1999/xlink" x="0px" y="0px"
	 viewBox="0 0 288 288" style="enable-background:new 0 0 288 288;" xml:space="preserve">
<style type="text/css">
	.st0{fill:#F80000;}
</style>
<g>
	<path class="st0" d="M165.8,131.1L142,107.3l-29.8-0.9l0.9,29.8l11.4,11.4c3.2-1.6,6.8-2.5,10.6-2.5c13.4,0,24.3,10.9,24.3,24.3
		c0,3.8-0.9,7.4-2.5,10.6l3.7,3.7l14.4-14.4l14.4-14.4L165.8,131.1z M129.4,123.3c-1.5,1.5-3.9,1.5-5.3,0c-1.5-1.5-1.5-3.9,0-5.3
		c1.5-1.5,3.9-1.5,5.3,0C130.9,119.5,130.9,121.9,129.4,123.3z"/>
	<path class="st0" d="M135.1,150.1c-10.7,0-19.4,8.7-19.4,19.4s8.7,19.4,19.4,19.4s19.4-8.7,19.4-19.4S145.8,150.1,135.1,150.1z
		 M146.2,171.9h-8.7v8.7h-5v-8.7h-8.7v-5h8.7v-8.7h5v8.7h8.7V171.9z"/>
</g>
</svg>
