<?xml version="1.0" encoding="utf-8"?>
<!-- Generator: Adobe Illustrator 21.0.0, SVG Export Plug-In . SVG Version: 6.00 Build 0)  -->
<!DOCTYPE svg PUBLIC "-//W3C//DTD SVG 1.1//EN" "http://www.w3.org/Graphics/SVG/1.1/DTD/svg11.dtd">
<svg version="1.1" id="Icons" xmlns="http://www.w3.org/2000/svg" xmlns:xlink="http://www.w3.org/1999/xlink" x="0px" y="0px"
	 viewBox="0 0 288 288" style="enable-background:new 0 0 288 288;" xml:space="preserve">
<style type="text/css">
	.st0{fill:#F80000;}
</style>
<g>
	<g>
		<g>
			<path class="st0" d="M129.3,132.1c-0.1,1.1-0.2,2.2-0.4,3.5c0.8,1.3,1.1,2.8,0.9,4.3l-0.5,3.6c-0.3,1.9-1.3,3.5-2.8,4.5
				c-0.3,1.2-0.7,2.3-1.3,3.3l0.8,0.2c1,0.2,2.2,0.6,3.5,1c2.1,0.6,3.8,1.1,5.2,1.6l1.5,0.5c0.8,0.4,1.5,0.9,2.1,1.4h61.9v-23.8
				H129.3z M187.9,147.9c-2.2,0-3.9-1.7-3.9-3.9c0-2.2,1.7-3.9,3.9-3.9c2.2,0,3.9,1.7,3.9,3.9C191.8,146.2,190,147.9,187.9,147.9z"
				/>
			<path class="st0" d="M141.7,159.6c1.4,2.3,2.2,4.9,2.2,7.7v16.1h52.3c2.2,0,4-1.8,4-4v-19.8H141.7z M187.9,175.4
				c-2.2,0-3.9-1.7-3.9-3.9c0-2.2,1.7-3.9,3.9-3.9c2.2,0,3.9,1.7,3.9,3.9C191.8,173.7,190,175.4,187.9,175.4z"/>
		</g>
		<path class="st0" d="M196.2,104.5h-71.9c-2.2,0-4,1.8-4,4v9.1c4.7,1.8,8.2,6,8.9,10.7h71v-19.9
			C200.2,106.3,198.4,104.5,196.2,104.5z M187.9,120.4c-2.2,0-3.9-1.7-3.9-3.9c0-2.2,1.7-3.9,3.9-3.9c2.2,0,3.9,1.7,3.9,3.9
			C191.8,118.6,190,120.4,187.9,120.4z"/>
		<path class="st0" d="M101.8,139.8l0.5,3.6c0.2,1.2,1.1,2,2.3,2.1v0c1.2,8.9,7.9,9.2,9,9.2h0h0h0.1h0h0h0.1h0h0h0
			c1,0,7.8-0.4,9-9.2v0c1.2,0,2.2-0.9,2.4-2.1l0.5-3.6c0.1-1-0.4-2-1.2-2.4c0.3-1.5,0.8-4.3,0.8-6.8c0-4.3-3.9-8.7-9-9.2l-1.7-2.3
			c-12.5,0.6-12.4,10.8-12.4,10.8v1.2c0.1,2.3,0.5,4.9,0.8,6.3C102.2,137.9,101.7,138.8,101.8,139.8"/>
		<path class="st0" d="M87.8,183.5v-16.1c0-4,2.2-7.5,5.5-9.2l0,0c1.7-0.6,3.9-1.3,6-1.9c1.3-0.4,2.4-0.7,3.3-0.9
			c1.4-0.3,2.4-0.6,2.4-0.6c1.7,2.4,5.3,3.6,8.8,3.6h0c3.6,0,7.1-1.2,8.8-3.6c0,0,1,0.2,2.4,0.6c0.9,0.2,2.1,0.6,3.3,0.9
			c2.1,0.6,4.3,1.3,6,1.9l0,0c3.2,1.7,5.5,5.2,5.5,9.2v16.1H87.8z"/>
	</g>
</g>
</svg>
