<?xml version="1.0" encoding="utf-8"?>
<!-- Generator: Adobe Illustrator 21.0.0, SVG Export Plug-In . SVG Version: 6.00 Build 0)  -->
<!DOCTYPE svg PUBLIC "-//W3C//DTD SVG 1.1//EN" "http://www.w3.org/Graphics/SVG/1.1/DTD/svg11.dtd">
<svg version="1.1" id="Icons" xmlns="http://www.w3.org/2000/svg" xmlns:xlink="http://www.w3.org/1999/xlink" x="0px" y="0px"
	 viewBox="0 0 288 288" style="enable-background:new 0 0 288 288;" xml:space="preserve">
<style type="text/css">
	.st0{fill:#F80000;}
</style>
<g>
	<g>
		<g>
			<path class="st0" d="M186.3,146.2c1.1,0,2-0.9,2-2v-10.4c0-1.1-0.9-2-2-2l-57.7,0v14.4L186.3,146.2z M123.6,146.2v-14.4l-21.9,0
				c-1.1,0-2,0.9-2,2v10.4c0,1.1,0.9,2,2,2L123.6,146.2z"/>
			<path class="st0" d="M186.3,177.4h-39.8v14.4h39.8c1.1,0,2-0.9,2-2v-10.4C188.3,178.3,187.4,177.4,186.3,177.4z"/>
			<path class="st0" d="M101.7,177.4c-1.1,0-2,0.9-2,2v10.4c0,1.1,0.9,2,2,2h39.8v-14.4H101.7z"/>
			<path class="st0" d="M173.9,124.3c1.1,0,2-0.9,2-2v-10.4c0-1.1-0.9-2-2-2h-27.4v14.4H173.9z"/>
			<path class="st0" d="M114.1,124.3h27.4v-14.4h-27.4c-1.1,0-2,0.9-2,2v10.4C112.1,123.4,113,124.3,114.1,124.3z"/>
			<rect x="141.5" y="191.8" class="st0" width="5" height="0.6"/>
			<path class="st0" d="M114.1,154.6c-1.1,0-2,0.9-2,2V167c0,1.1,0.9,2,2,2h40.3v-14.4"/>
			<path class="st0" d="M159.4,154.6V169h14.5c1.1,0,2-0.9,2-2v-10.4c0-1.1-0.9-2-2-2"/>
			<line class="st0" x1="154.4" y1="169" x2="154.4" y2="169"/>
			<line class="st0" x1="159.4" y1="169" x2="159.4" y2="169"/>
		</g>
		<g>
			<rect x="141.5" y="191.8" class="st0" width="5" height="14.7"/>
			<polygon class="st0" points="153.9,98.7 144,81.6 134.1,98.7 141.5,98.7 141.5,109.9 146.5,109.9 146.5,98.7 			"/>
		</g>
	</g>
</g>
</svg>
