<?xml version="1.0" encoding="utf-8"?>
<!-- Generator: Adobe Illustrator 21.0.0, SVG Export Plug-In . SVG Version: 6.00 Build 0)  -->
<!DOCTYPE svg PUBLIC "-//W3C//DTD SVG 1.1//EN" "http://www.w3.org/Graphics/SVG/1.1/DTD/svg11.dtd">
<svg version="1.1" id="Icons" xmlns="http://www.w3.org/2000/svg" xmlns:xlink="http://www.w3.org/1999/xlink" x="0px" y="0px"
	 viewBox="0 0 288 288" style="enable-background:new 0 0 288 288;" xml:space="preserve">
<style type="text/css">
	.st0{fill:#F80000;}
</style>
<path class="st0" d="M172.6,88.4c-13.7-1.6-28-1.6-28.6-1.6c-0.6,0-14.8,0-28.6,1.6c-24,2.8-24.2,7.8-24.2,7.9v95.5
	c0,0,0.3,5,24.2,7.9c13.7,1.6,28,1.6,28.6,1.6c0.6,0,14.8,0,28.6-1.6c24-2.8,24.2-7.8,24.2-7.9V96.3
	C196.8,96.2,196.5,91.2,172.6,88.4z M137.2,180.7h-18.9v-18.9h18.9V180.7z M137.2,146.5h-18.9v-18.9h18.9V146.5z M168.1,180.7h-18.9
	v-18.9h18.9V180.7z M168.1,146.5h-18.9v-18.9h18.9V146.5z M192.8,104.1c-1.8,2.8-18.9,7.5-48.3,7.5c-29.4,0-46.5-4.7-48.3-7.5
	c0,0,0,0,0,0c1.7-2.8,18.8-7.6,48.3-7.6C174,96.5,191.1,101.2,192.8,104.1C192.8,104.1,192.8,104.1,192.8,104.1z"/>
</svg>
