<?xml version="1.0" encoding="utf-8"?>
<!-- Generator: Adobe Illustrator 22.0.1, SVG Export Plug-In . SVG Version: 6.00 Build 0)  -->
<svg version="1.1" id="Icons" xmlns="http://www.w3.org/2000/svg" xmlns:xlink="http://www.w3.org/1999/xlink" x="0px" y="0px"
	 viewBox="0 0 288 288" style="enable-background:new 0 0 288 288;" xml:space="preserve">
<style type="text/css">
	.st0{fill:#F80000;}
</style>
<path class="st0" d="M172.5,88.4c-13.7-1.6-27.9-1.6-28.5-1.6c-0.6,0-14.8,0-28.5,1.6c-23.9,2.8-24.2,7.8-24.2,7.9v95.5
	c0,0.1,0.3,5,24.2,7.9c13.7,1.6,27.9,1.6,28.5,1.6c0.6,0,14.8,0,28.5-1.6c23.9-2.8,24.2-7.8,24.2-7.9V96.3
	C196.8,96.2,196.5,91.2,172.5,88.4z M169.6,178.9c0,0.2,0,0.3,0,0.5c-20.1,0-40.2,0-60.4,0c0-16.1,0-26.4,0-42.5c0.2,0,0.3,0,0.5,0
	c6.3,0,12.6,0,18.9,0c0.3,0,0.5,0.1,0.7,0.4c0.8,1.5,1.7,3.1,2.6,4.6c0.2,0.3,0.4,0.4,0.8,0.4c10.4,0,20.9,0,31.3,0
	c2.9,0,5.7,2.2,5.7,5.7C169.6,160.2,169.6,166.6,169.6,178.9z M178.8,169.2c-1.6,0-3.1,0-4.6,0c0-0.2,0-0.4,0-0.6
	c0-10.6,0-15.3,0-25.8c0-2.8-2.1-5.7-5.7-5.7c-10.4,0-20.8,0-31.3,0c-0.4,0-0.7-0.1-0.9-0.5c-0.8-1.5-1.7-3-2.5-4.5
	c-0.2-0.3-0.3-0.4-0.6-0.4c-4.8,0-9.5,0-14.2,0c-0.2,0-0.3,0-0.5,0c0-1.7,0-3.4,0-5.1c0.2,0,0.3,0,0.5,0c6.3,0,12.6,0,18.9,0
	c0.3,0,0.5,0.1,0.7,0.4c0.8,1.5,1.7,3,2.5,4.5c0.2,0.3,0.4,0.5,0.8,0.5c10.4,0,20.9,0,31.3,0c2.9,0,5.1,1.9,5.6,4.7
	c0,0.3,0,0.5,0,0.8c0,12.3,0,18.8,0,31.2C178.8,168.8,178.8,169,178.8,169.2z M192.3,104.1c-1.8,2.8-18.9,7.5-48.3,7.5
	c-29.4,0-46.4-4.7-48.3-7.5l0,0c1.7-2.8,18.8-7.6,48.3-7.6C173.5,96.5,190.6,101.3,192.3,104.1C192.3,104.1,192.3,104.1,192.3,104.1
	z"/>
</svg>
