<?xml version="1.0" encoding="utf-8"?>
<!-- Generator: Adobe Illustrator 21.0.0, SVG Export Plug-In . SVG Version: 6.00 Build 0)  -->
<!DOCTYPE svg PUBLIC "-//W3C//DTD SVG 1.1//EN" "http://www.w3.org/Graphics/SVG/1.1/DTD/svg11.dtd">
<svg version="1.1" id="Icons" xmlns="http://www.w3.org/2000/svg" xmlns:xlink="http://www.w3.org/1999/xlink" x="0px" y="0px"
	 viewBox="0 0 288 288" style="enable-background:new 0 0 288 288;" xml:space="preserve">
<style type="text/css">
	.st0{fill:#F80000;}
</style>
<g>
	<g>
		<g>
			<path class="st0" d="M196.7,114.2c0,0,0-0.1,0-0.1c-0.2-18.6-23.8-33.6-52.7-33.6c-28.9,0-52.5,15.1-52.7,33.6c0,0,0,0.1,0,0.1
				c0,0.1,0,0.1,0,0.2h0c0,0.1,0,0.1,0,0.1l17.8,87.5c0,0,0.8,3,16.5,4.7c8.9,0.9,18,0.9,18.4,0.9s9.5,0,18.4-0.9
				c15.7-1.7,16.5-4.6,16.5-4.7l17.8-87.5c0,0,0,0,0-0.1h0C196.7,114.3,196.7,114.2,196.7,114.2z M124.5,178.8
				c-2.9,0-5.2-2.3-5.2-5.2c0-2.9,2.3-5.2,5.2-5.2c2.9,0,5.2,2.3,5.2,5.2C129.7,176.5,127.3,178.8,124.5,178.8z M126.3,156.1l6-12
				l6,12H126.3z M136.6,163.9l6.2-2.7l6.2,2.7v8.8l-6.2,2.7l-6.2-2.7V163.9z M144.7,192c-2.9,0-5.2-2.3-5.2-5.2
				c0-2.9,2.3-5.2,5.2-5.2c2.9,0,5.2,2.3,5.2,5.2C149.9,189.6,147.6,192,144.7,192z M148.8,150.1c0-3.7,3-6.7,6.7-6.7
				c3.7,0,6.7,3,6.7,6.7c0,3.7-3,6.7-6.7,6.7C151.7,156.7,148.8,153.8,148.8,150.1z M158.2,176.4l5.3-10.6l5.3,10.6H158.2z
				 M190.5,119.2c-1.8,3.3-18.2,8.8-46.5,8.8c-28.2,0-44.7-5.5-46.4-8.8h0l0-0.1c1.7-3.3,18.1-8.8,46.5-8.8
				C172.4,110.4,188.8,115.9,190.5,119.2 M97.6,119.2 M173.8,103.1c-14.2-2.5-29.1-2.5-29.8-2.5c-0.6,0-15.6,0-29.8,2.5
				c-9.2,1.6-14.7,3.7-18,5.6c4.4-13.8,24.1-24.2,47.8-24.2c23.7,0,43.4,10.4,47.8,24.2C188.5,106.7,183,104.7,173.8,103.1z"/>
		</g>
	</g>
</g>
</svg>
