<?xml version="1.0" encoding="utf-8"?>
<!-- Generator: Adobe Illustrator 21.0.0, SVG Export Plug-In . SVG Version: 6.00 Build 0)  -->
<!DOCTYPE svg PUBLIC "-//W3C//DTD SVG 1.1//EN" "http://www.w3.org/Graphics/SVG/1.1/DTD/svg11.dtd">
<svg version="1.1" id="Icons" xmlns="http://www.w3.org/2000/svg" xmlns:xlink="http://www.w3.org/1999/xlink" x="0px" y="0px"
	 viewBox="0 0 288 288" style="enable-background:new 0 0 288 288;" xml:space="preserve">
<style type="text/css">
	.st0{fill:#F80000;}
</style>
<g>
	<g>
		<path class="st0" d="M185.4,108.2l-10.2,10.2c4.3,6.3,3.6,14.9-2,20.5l-7.8,7.8l-22.8-22.8l7.8-7.8c5.6-5.6,14.2-6.2,20.5-1.9
			l10.3-10.3c-9.8-9-22.8-14.5-37.1-14.5c-30.2,0-54.7,24.5-54.7,54.7c0,14.3,5.5,27.3,14.5,37.1l13.6-13.6
			c-4.3-6.3-3.6-14.9,2-20.5l7.8-7.8l5.6,5.6l6.4-6.4l2.4,2.4l-6.4,6.4l6.9,6.9l6.4-6.4l2.4,2.4l-6.4,6.4l5.6,5.6l-7.8,7.8
			c-5.6,5.6-14.2,6.2-20.5,1.9l-13.5,13.5c9.6,8.3,22.1,13.4,35.8,13.4c30.2,0,54.7-24.5,54.7-54.7
			C198.7,130.3,193.7,117.8,185.4,108.2z"/>
	</g>
</g>
</svg>
