<?xml version="1.0" encoding="utf-8"?>
<!-- Generator: Adobe Illustrator 21.0.0, SVG Export Plug-In . SVG Version: 6.00 Build 0)  -->
<!DOCTYPE svg PUBLIC "-//W3C//DTD SVG 1.1//EN" "http://www.w3.org/Graphics/SVG/1.1/DTD/svg11.dtd">
<svg version="1.1" id="Icons" xmlns="http://www.w3.org/2000/svg" xmlns:xlink="http://www.w3.org/1999/xlink" x="0px" y="0px"
	 viewBox="0 0 288 288" style="enable-background:new 0 0 288 288;" xml:space="preserve">
<style type="text/css">
	.st0{fill:#F80000;}
</style>
<g>
	<g>
		
			<rect x="173.1" y="114.3" transform="matrix(0.3854 -0.9227 0.9227 0.3854 -27.0309 255.0884)" class="st0" width="9.7" height="67.1"/>
		<path class="st0" d="M151.5,108.1l-31.6-13.2c-1.3-0.6-2-2.1-1.4-3.5c0.6-1.3,2.1-2,3.5-1.4l31.6,13.2c1.3,0.6,2,2.1,1.4,3.5
			C154.4,108,152.8,108.7,151.5,108.1"/>
		
			<rect x="132.5" y="88.7" transform="matrix(0.3854 -0.9228 0.9228 0.3854 -15.3396 188.8192)" class="st0" width="3.2" height="34.5"/>
		<path class="st0" d="M98.3,146.8l31.6,13.2c1.3,0.6,2,2.1,1.4,3.5c-0.6,1.3-2.1,2-3.5,1.4l-31.6-13.2c-1.3-0.6-2-2.1-1.4-3.5
			C95.4,146.9,96.9,146.2,98.3,146.8"/>
		
			<rect x="114.1" y="131.7" transform="matrix(0.3854 -0.9227 0.9227 0.3854 -66.3615 198.3205)" class="st0" width="3.2" height="34.5"/>
		
			<rect x="106.3" y="107.8" transform="matrix(0.3854 -0.9227 0.9227 0.3854 -40.8117 193.7684)" class="st0" width="37.5" height="39.4"/>
		<path class="st0" d="M216.6,156.1c-0.9-0.4-1.9-0.6-2.9-0.6l-5.1,12.2c0.7,0.7,1.5,1.2,2.4,1.6c3.7,1.5,7.9-0.2,9.4-3.9
			C222,161.9,220.3,157.7,216.6,156.1"/>
		<path class="st0" d="M159.1,184.3c0-3.8-20.6-6.9-46.1-6.9c-25.5,0-46.1,3.1-46.1,6.9v6.9h0l0,0c0,3.8,20.6,6.9,46.1,6.9
			c25.5,0,46.1-3.1,46.1-6.9l0,0h0V184.3z"/>
	</g>
</g>
</svg>
