<?xml version="1.0" encoding="utf-8"?>
<!-- Generator: Adobe Illustrator 21.0.0, SVG Export Plug-In . SVG Version: 6.00 Build 0)  -->
<!DOCTYPE svg PUBLIC "-//W3C//DTD SVG 1.1//EN" "http://www.w3.org/Graphics/SVG/1.1/DTD/svg11.dtd">
<svg version="1.1" id="Icons" xmlns="http://www.w3.org/2000/svg" xmlns:xlink="http://www.w3.org/1999/xlink" x="0px" y="0px"
	 viewBox="0 0 288 288" style="enable-background:new 0 0 288 288;" xml:space="preserve">
<style type="text/css">
	.st0{fill:#F80000;}
</style>
<g>
	<g>
		<path class="st0" d="M189.6,131.1c-0.8,0-1.5,0-2.3,0.1c-3.3-10.4-13-17.9-24.4-17.9c-3,0-5.8,0.5-8.4,1.4
			c-5.2-7.6-14-12.6-23.9-12.6c-13.7,0-25.2,9.5-28.2,22.3c-0.3,0-0.5-0.1-0.8,0c-18.2,3-28.9,16.2-28.9,33.7
			c0,16,13,27.7,28.9,27.7h87.9c14.1,0,25.6-14.2,25.6-28.4C215.2,144.1,204.9,133.1,189.6,131.1z M107.3,174.2H104v-36.1h3.4V174.2
			z M125.7,174.2h-12.5v-36.1h12.5V174.2z M135.7,174.2h-3.4v-36.1h3.4V174.2z M145.2,174.2h-1.9h-1.5h-1.9v-36.1h1.9h1.5h1.9V174.2
			z M152.8,174.2h-3.4v-36.1h3.4V174.2z M159,174.2h-3.4v-36.1h3.4V174.2z M168.1,174.2h-3.4v-36.1h3.4V174.2z M179.4,174.2h-6.8
			v-36.1h6.8V174.2z"/>
	</g>
</g>
</svg>
