<?xml version="1.0" encoding="utf-8"?>
<!-- Generator: Adobe Illustrator 24.0.2, SVG Export Plug-In . SVG Version: 6.00 Build 0)  -->
<svg version="1.1" id="Layer_1" xmlns="http://www.w3.org/2000/svg" xmlns:xlink="http://www.w3.org/1999/xlink" x="0px" y="0px"
	 viewBox="0 0 42 42" style="enable-background:new 0 0 42 42;" xml:space="preserve">
<style type="text/css">
	.st0{fill:#FFFFFF;}
	.st1{fill:#2C5967;}
</style>
<g>
	<path class="st0" d="M2.67,41.5c-1.19,0-2.17-0.97-2.17-2.17V2.67c0-1.19,0.97-2.17,2.17-2.17h36.67c1.19,0,2.17,0.97,2.17,2.17
		v36.67c0,1.19-0.97,2.17-2.17,2.17H2.67z"/>
	<path class="st0" d="M39.33,1C40.25,1,41,1.75,41,2.67v36.67c0,0.92-0.75,1.67-1.67,1.67H2.67C1.75,41,1,40.25,1,39.33V2.67
		C1,1.75,1.75,1,2.67,1H39.33 M39.33,0H2.67C1.2,0,0,1.2,0,2.67v36.67C0,40.8,1.2,42,2.67,42h36.67C40.8,42,42,40.8,42,39.33V2.67
		C42,1.2,40.8,0,39.33,0L39.33,0z"/>
</g>
<g>
	<path class="st1" d="M39.33,1H2.67C1.75,1,1,1.75,1,2.67v36.67C1,40.25,1.75,41,2.67,41h36.67c0.92,0,1.67-0.75,1.67-1.67V2.67
		C41,1.75,40.25,1,39.33,1z M39.52,39.33c0,0.1-0.08,0.19-0.19,0.19H2.67c-0.1,0-0.19-0.08-0.19-0.19V2.67
		c0-0.1,0.08-0.19,0.19-0.19h36.67c0.1,0,0.19,0.08,0.19,0.19V39.33z"/>
	<path class="st1" d="M3.96,38.04h23.15V14.89H3.96V38.04z M5.44,16.37h20.19v20.19H5.44V16.37z"/>
	<rect x="6.93" y="3.96" class="st1" width="1.48" height="1.48"/>
	<rect x="3.96" y="3.96" class="st1" width="1.48" height="1.48"/>
	<rect x="9.89" y="3.96" class="st1" width="1.48" height="1.48"/>
	<rect x="12.85" y="3.96" class="st1" width="1.48" height="1.48"/>
	<rect x="15.81" y="3.96" class="st1" width="1.48" height="1.48"/>
	<rect x="18.78" y="3.96" class="st1" width="1.48" height="1.48"/>
	<rect x="21.74" y="3.96" class="st1" width="1.48" height="1.48"/>
	<rect x="24.7" y="3.96" class="st1" width="1.48" height="1.48"/>
	<rect x="27.67" y="3.96" class="st1" width="1.48" height="1.48"/>
	<rect x="30.63" y="3.96" class="st1" width="1.48" height="1.48"/>
	<rect x="33.59" y="3.96" class="st1" width="1.48" height="1.48"/>
	<rect x="36.56" y="3.96" class="st1" width="1.48" height="1.48"/>
	<rect x="36.56" y="6.93" class="st1" width="1.48" height="1.48"/>
	<rect x="36.56" y="9.89" class="st1" width="1.48" height="1.48"/>
	<rect x="36.56" y="12.85" class="st1" width="1.48" height="1.48"/>
	<rect x="36.56" y="15.81" class="st1" width="1.48" height="1.48"/>
	<rect x="36.56" y="18.78" class="st1" width="1.48" height="1.48"/>
	<rect x="36.56" y="21.74" class="st1" width="1.48" height="1.48"/>
	<rect x="36.56" y="24.7" class="st1" width="1.48" height="1.48"/>
	<rect x="36.56" y="27.67" class="st1" width="1.48" height="1.48"/>
	<rect x="36.56" y="30.63" class="st1" width="1.48" height="1.48"/>
	<rect x="36.56" y="33.59" class="st1" width="1.48" height="1.48"/>
	<rect x="36.56" y="36.56" class="st1" width="1.48" height="1.48"/>
	<polygon class="st1" points="31.19,8.41 32.54,8.41 29.52,11.43 29.52,10.07 28.04,10.07 28.04,13.96 31.93,13.96 31.93,12.48 
		30.57,12.48 33.59,9.46 33.59,10.81 35.07,10.81 35.07,6.93 31.19,6.93 	"/>
	<path class="st1" d="M6.56,35.44h17.96v-5.52H6.56V35.44z M8.04,31.41h15v2.56h-15V31.41z"/>
	<path class="st1" d="M11.74,23.78H6.56v5.19h5.19V23.78z M10.26,27.48H8.04v-2.22h2.22V27.48z"/>
	<path class="st1" d="M18.13,23.78h-5.19v5.19h5.19V23.78z M16.65,27.48h-2.22v-2.22h2.22V27.48z"/>
	<path class="st1" d="M19.33,28.96h5.19v-5.19h-5.19V28.96z M20.81,25.26h2.22v2.22h-2.22V25.26z"/>
	<path class="st1" d="M11.74,17.48H6.56v5.19h5.19V17.48z M10.26,21.19H8.04v-2.22h2.22V21.19z"/>
	<path class="st1" d="M18.13,17.48h-5.19v5.19h5.19V17.48z M16.65,21.19h-2.22v-2.22h2.22V21.19z"/>
	<path class="st1" d="M19.33,22.67h5.19v-5.19h-5.19V22.67z M20.81,18.96h2.22v2.22h-2.22V18.96z"/>
</g>
</svg>
