<?xml version="1.0" encoding="utf-8"?>
<!-- Generator: Adobe Illustrator 24.0.2, SVG Export Plug-In . SVG Version: 6.00 Build 0)  -->
<svg version="1.1" id="Layer_1" xmlns="http://www.w3.org/2000/svg" xmlns:xlink="http://www.w3.org/1999/xlink" x="0px" y="0px"
	 viewBox="0 0 44.4 42" style="enable-background:new 0 0 44.4 42;" xml:space="preserve">
<g>
	<g>
		<path style="fill:#FFFFFF;" d="M8.9,41.5c-1.4,0-2.7-0.1-3.8-0.4c-0.3-0.1-0.6-0.1-0.9-0.2c-0.3-0.1-0.6-0.2-0.8-0.3
			c-0.5-0.2-1-0.4-1.4-0.7c-1-0.6-1.4-1.3-1.4-2.2v-9.5c0-0.9,0.5-1.6,1.5-2.2c0.2-0.1,0.4-0.2,0.6-0.4c0.2-0.1,0.5-0.2,0.7-0.3
			c0.5-0.2,1.1-0.3,1.8-0.5c0.5-0.1,1.1-0.2,1.7-0.2V12.6l-1.1,0.1l-0.8-1.4l1.9-1.1c4.4-2.6,9.2-3.9,13.8-3.9c0.3,0,0.6,0,0.9,0
			h1.9l0.2,0l1,1C25.1,4.3,27.2,1.9,30,1l0.2-0.1c0.1,0,0.2-0.1,0.3-0.1l0.2,0.5l-0.1-0.5c0.1,0,0.2-0.1,0.4-0.1
			c0.1,0,0.6-0.1,0.6-0.1l0.1,0c0.3,0,0.7-0.1,1-0.1l0.2,0c0.4,0,0.7,0,1,0.1l0.2,0c0.7,0.1,1.4,0.4,2.1,0.7c2.2,1.1,3.8,3,4.4,5.3
			l3,3l-1.9,1.9l-1.1-1.1c-0.6,2.8-2.6,5.1-5.3,6l-0.2,0.1c-0.1,0-0.2,0-0.2,0.1c-0.2,0.1-0.4,0.1-0.5,0.1l0,0c0,0.2,0,0.3,0,0.5h0
			v15.5h1.1l2.1,1v1.6l-20.3,0v2.4c0,0.9-0.5,1.6-1.5,2.2c-0.4,0.2-0.9,0.5-1.4,0.7c-0.3,0.1-0.5,0.2-0.8,0.3
			c-0.3,0.1-0.6,0.1-0.9,0.2C11.6,41.4,10.3,41.5,8.9,41.5z"/>
		<path style="fill:#FFFFFF;" d="M32.7,1C32.7,1,32.7,1,32.7,1c0.1,0,0.1,0,0.2,0c0.3,0,0.6,0,0.9,0.1c0.1,0,0.1,0,0.2,0
			c0.7,0.1,1.4,0.3,2,0.6c0,0,0,0,0.1,0c2,1,3.6,2.8,4.2,5.1L43,9.7l-1.2,1.2l-1.4-1.4c-0.3,3.1-2.3,5.6-5.1,6.6
			c-0.1,0-0.1,0.1-0.2,0.1c-0.1,0-0.2,0.1-0.3,0.1c-0.1,0-0.3,0.1-0.4,0.1c-0.1,0-0.2,0-0.3,0.1c0,0-0.1,0-0.1,0c0,0.6,0,1.4,0,1.4
			l0,0v15.5h1.5l1.7,0.8v0.8h-1.7v0H16.8v2.9c0,0.7-0.4,1.3-1.2,1.8c-0.4,0.2-0.8,0.4-1.3,0.6c-0.2,0.1-0.5,0.2-0.8,0.2
			c-0.3,0.1-0.6,0.1-0.9,0.2c-1.2,0.2-2.4,0.3-3.7,0.3c-1.3,0-2.6-0.1-3.7-0.3c-0.3-0.1-0.6-0.1-0.9-0.2c-0.3-0.1-0.5-0.2-0.8-0.2
			C3,40,2.6,39.8,2.2,39.6C1.4,39.1,1,38.5,1,37.8v-9.5c0-0.7,0.4-1.3,1.2-1.8c0.2-0.1,0.4-0.2,0.6-0.3C3,26.1,3.2,26,3.5,25.9
			c0.5-0.2,1.1-0.3,1.7-0.4c0.7-0.1,1.4-0.2,2.1-0.3V12L6,12.1l-0.4-0.7L7,10.6h0l0,0C11.3,8,16,6.7,20.6,6.7c0.3,0,0.6,0,0.9,0
			c0,0,0.1,0,0.2,0c0.3,0,1,0,1.4,0c0.2,0,0.3,0,0.3,0L25,8.3c0.2-3.2,2.3-5.9,5.2-6.9c0.1,0,0.1,0,0.2-0.1c0.1,0,0.2-0.1,0.4-0.1
			c0.1,0,0.2-0.1,0.4-0.1c0.1,0,0.2,0,0.3-0.1c0.1,0,0.2,0,0.3,0c0,0,0.1,0,0.1,0C32,1,32.4,1,32.7,1 M32.7,0c-0.3,0-0.7,0-1.1,0.1
			c0,0-0.1,0-0.1,0c-0.1,0-0.2,0-0.2,0l-0.1,0l-0.1,0c-0.1,0-0.2,0-0.3,0.1c-0.1,0-0.3,0.1-0.4,0.1l-0.1,0c-0.1,0-0.2,0.1-0.3,0.1
			c0,0-0.1,0-0.1,0.1c-2.7,1-4.8,3.1-5.5,5.8L24.1,6l-0.3-0.3l-0.4,0c0,0-0.1,0-0.3,0l-0.8,0l-0.7,0l-0.2,0c-0.3,0-0.6,0-1,0
			c-4.8,0-9.6,1.4-14.1,4L5,10.6l-0.9,0.5l0.5,0.9l0.4,0.7l0.3,0.5l0.6,0l0.3,0v11.2c-0.5,0.1-0.9,0.1-1.3,0.2
			c-0.7,0.1-1.3,0.3-1.8,0.5c-0.3,0.1-0.5,0.2-0.8,0.3c-0.2,0.1-0.5,0.2-0.7,0.4C0.3,26.6,0,27.6,0,28.3v9.5c0,0.7,0.3,1.8,1.7,2.6
			c0.4,0.3,0.9,0.5,1.5,0.7c0.3,0.1,0.6,0.2,0.9,0.3c0.3,0.1,0.6,0.2,1,0.2C6.2,41.9,7.5,42,8.9,42c1.4,0,2.7-0.1,3.9-0.4
			c0.3-0.1,0.7-0.1,1-0.2c0.3-0.1,0.6-0.2,0.9-0.3c0.6-0.2,1.1-0.4,1.5-0.7c1.4-0.9,1.7-1.9,1.7-2.6v-1.9h17.6l1.7,0l1,0v-1v-0.8
			v-0.6l-0.6-0.3l-1.7-0.8l-0.2-0.1h-0.2H35V17.8v-0.6c0,0,0.1,0,0.1,0l0.1,0c0.1,0,0.2,0,0.2-0.1c0.1,0,0.1,0,0.2-0.1l0.1,0
			c2.6-0.9,4.6-3,5.4-5.5l0.1,0.1l0.7,0.7l0.7-0.7l1.2-1.2l0.7-0.7L43.7,9l-2.6-2.6c-0.7-2.4-2.4-4.4-4.6-5.5l-0.1,0
			c-0.7-0.3-1.5-0.6-2.2-0.7c-0.1,0-0.2,0-0.2,0C33.6,0,33.3,0,32.9,0C32.9,0,32.8,0,32.7,0C32.8,0,32.7,0,32.7,0L32.7,0z"/>
	</g>
	<g>
		<path style="fill:#2C5967;" d="M9,23.9V11.4h0c3.6-1.9,7.3-2.8,11.1-2.9l0.9-0.9l0.7-0.7c-5-0.2-10,1-14.7,3.7l0,0l0,0l-1.4,0.8
			L6,12.1L7.3,12V24C7.8,23.9,8.4,23.9,9,23.9C8.9,23.9,8.9,23.9,9,23.9z M7.5,11.4L7.5,11.4l-0.3-0.6L7.5,11.4z"/>
		<path style="fill:#2C5967;" d="M33.9,17.8L33.9,17.8c-0.1,0-0.2,0-0.4,0c0,0-0.1,0-0.1,0l0,0l0,0c-0.1,0-0.1,0-0.2,0
			c-0.1,0-0.3,0-0.4,0c0,0-0.1,0-0.1,0l0,0l0,0c-0.1,0-0.2,0-0.3,0v15.4h-1.7V19.9h-9.2v13.3h-1.7V19.9h-9.2v4
			c0.6,0,1.1,0.1,1.7,0.2v-2.6h5.8v3.1h-3.5c0.6,0.2,1.1,0.4,1.6,0.7c0.5,0.3,0.9,0.6,1.2,1h0.7v8.5h17.3v0h1.7v-0.8l-1.7-0.8v0H34
			V17.8C33.9,17.8,33.9,17.8,33.9,17.8C33.9,17.8,33.9,17.8,33.9,17.8z M29,29.1h-5.8v-2.7H29V29.1z M29,21.6v3.1h-5.8v-3.1H29z
			 M23.1,30.8H29v2.5h-5.8V30.8z"/>
		<path style="fill:#2C5967;" d="M19.8,12.2h-9.2v6.3h9.2V12.2z M18.1,16.8h-5.8v-2.9h5.8V16.8z"/>
		<path style="fill:#2C5967;" d="M21.5,18.5h9.2v-0.9c-0.8-0.2-1.5-0.4-2.2-0.8h-5.3v-2.9h2.1c0-0.1-0.1-0.1-0.1-0.2l0,0
			c0,0,0-0.1-0.1-0.1l-0.5-0.9l0,0c-0.1-0.2-0.2-0.3-0.2-0.5h-2.9V18.5z"/>
		<path style="fill:#2C5967;" d="M35.8,12.4l-2.3-8.1h-1.7l-2.3,8.1h1.8l0.4-1.7h2l0.4,1.7H35.8z M32.6,6.3l0.7,3h-1.4L32.6,6.3z"/>
		<path style="fill:#2C5967;" d="M40.4,9.4l1.4,1.4L43,9.7l-3.5-3.5L36,9.7l1.2,1.2l1.5-1.5c-0.3,2.7-2.3,5-5.1,5.5
			c-2.6,0.4-5.1-0.9-6.3-3.1l-1.2,1.2c1.6,2.5,4.5,4,7.6,3.6C37.4,15.9,40,12.9,40.4,9.4z"/>
		<path style="fill:#2C5967;" d="M22.2,7.9l3.5,3.5l3.5-3.5l-1.2-1.2l-1.4,1.4C27,5.4,29,3.2,31.8,2.7c2.6-0.4,5.1,0.9,6.3,3.1
			l1.2-1.2c-1.6-2.5-4.5-4-7.6-3.6C28,1.6,25.2,4.7,25,8.3l-1.6-1.6L22.2,7.9z"/>
		<path style="fill:#2C5967;" d="M16.8,28.3l0-0.1c0-0.5-0.3-0.9-0.7-1.3c-0.2-0.1-0.3-0.3-0.5-0.4c-0.2-0.1-0.4-0.2-0.6-0.3
			c-0.1,0-0.2-0.1-0.3-0.1c-0.5-0.2-1-0.3-1.6-0.5c-0.1,0-0.3-0.1-0.4-0.1c-1.2-0.2-2.4-0.3-3.7-0.3c-1.3,0-2.6,0.1-3.7,0.3
			c-0.6,0.1-1.2,0.3-1.7,0.4C3.2,26,3,26.1,2.8,26.2c-0.2,0.1-0.4,0.2-0.6,0.3C1.4,27.1,1,27.7,1,28.3v9.5c0,0.7,0.4,1.3,1.2,1.8
			C2.6,39.8,3,40,3.5,40.2c0.2,0.1,0.5,0.2,0.8,0.2c0.3,0.1,0.6,0.1,0.9,0.2C6.3,40.9,7.6,41,8.9,41c1.3,0,2.6-0.1,3.7-0.3
			c0.3-0.1,0.6-0.1,0.9-0.2c0.3-0.1,0.5-0.2,0.8-0.2c0.5-0.2,0.9-0.4,1.3-0.6c0.8-0.5,1.2-1.1,1.2-1.8V28.3z M2.7,28.3
			c0-0.1,0.2-0.3,0.5-0.4c0.3-0.2,0.7-0.4,1.2-0.5c0.6-0.2,1.3-0.3,2-0.4C7.1,26.8,8,26.8,9,26.8c1,0,1.9,0.1,2.7,0.2
			c0.7,0.1,1.4,0.2,2,0.4c0.5,0.2,0.9,0.3,1.2,0.5c0.3,0.2,0.4,0.3,0.4,0.4c0,0.1-0.1,0.3-0.4,0.4c-0.3,0.2-0.7,0.4-1.2,0.5
			c-0.6,0.2-1.3,0.3-2,0.4c-0.8,0.1-1.8,0.2-2.7,0.2c-1,0-1.9-0.1-2.7-0.2c-0.7-0.1-1.4-0.2-2-0.4c-0.5-0.2-0.9-0.3-1.2-0.5
			C2.8,28.6,2.7,28.5,2.7,28.3L2.7,28.3z M2.5,30.3c0.7,0.4,1.7,0.7,2.9,0.9c1.1,0.2,2.2,0.3,3.5,0.3l0.7,0l0.6,0l1-0.1
			c0.3,0,0.6-0.1,0.9-0.1l1-0.2l0.3-0.1c0.2,0,0.3-0.1,0.5-0.1l0.5-0.2l0.5-0.2l0.1,0l0.2-0.1v2.8c0,0.1-0.1,0.3-0.4,0.4
			c-0.3,0.2-0.7,0.4-1.2,0.5c-0.6,0.2-1.3,0.3-2,0.4c-0.9,0.1-1.8,0.2-2.7,0.2c-1,0-1.9-0.1-2.7-0.2c-0.7-0.1-1.4-0.2-2-0.4
			c-0.5-0.2-0.9-0.3-1.2-0.5c-0.3-0.2-0.4-0.3-0.4-0.4V30.3z M13.6,38.7c-0.6,0.2-1.3,0.3-2,0.4c-0.9,0.1-1.8,0.2-2.7,0.2
			c-1,0-1.9-0.1-2.7-0.2c-0.7-0.1-1.4-0.2-2-0.4c-0.5-0.2-0.9-0.3-1.2-0.5c-0.3-0.2-0.4-0.3-0.4-0.4V35c0.7,0.4,1.7,0.7,2.9,0.9
			c1.1,0.2,2.2,0.3,3.5,0.3h0.8c1.1,0,2.2-0.1,3.1-0.2c1-0.2,1.8-0.4,2.4-0.8v2.6c0,0.1-0.1,0.3-0.4,0.4
			C14.5,38.4,14.1,38.5,13.6,38.7z"/>
	</g>
</g>
</svg>
