<?xml version="1.0" encoding="utf-8"?>
<!-- Generator: Adobe Illustrator 24.0.2, SVG Export Plug-In . SVG Version: 6.00 Build 0)  -->
<svg version="1.1" id="Layer_1" xmlns="http://www.w3.org/2000/svg" xmlns:xlink="http://www.w3.org/1999/xlink" x="0px" y="0px"
	 viewBox="0 0 42 42" style="enable-background:new 0 0 42 42;" xml:space="preserve">
<style type="text/css">
	.st0{fill:#FFFFFF;}
	.st1{fill:#2C5967;}
</style>
<g>
	<g>
		<g>
			<path class="st0" d="M2.67,41.5c-1.19,0-2.17-0.97-2.17-2.17V2.67c0-1.2,0.97-2.17,2.17-2.17h36.67c1.19,0,2.17,0.97,2.17,2.17
				v36.67c0,1.2-0.97,2.17-2.17,2.17H2.67z"/>
			<path class="st0" d="M39.33,1C40.25,1,41,1.75,41,2.67v0.97v0.24v35.46c0,0.92-0.75,1.67-1.67,1.67H2.67C1.75,41,1,40.25,1,39.33
				V3.87V3.64V2.67C1,1.75,1.75,1,2.67,1H39.33 M39.33,0H2.67C1.2,0,0,1.2,0,2.67v0.97v0.24v35.46C0,40.8,1.2,42,2.67,42h36.67
				C40.8,42,42,40.8,42,39.33V3.87V3.64V2.67C42,1.2,40.8,0,39.33,0L39.33,0z"/>
		</g>
		<g>
			<path class="st1" d="M19.85,9.46H7.4V21.7h12.45V9.46z M18.37,20.22H8.89v-9.28h9.48V20.22z"/>
			<path class="st1" d="M34.66,9.46H22.21V21.7h12.45V9.46z M33.17,20.22h-9.48v-9.28h9.48V20.22z"/>
			<path class="st1" d="M19.85,23.99H7.4v12.24h12.45V23.99z M18.37,34.75H8.89v-9.28h9.48V34.75z"/>
			<path class="st1" d="M34.66,23.99H22.21v12.24h12.45V23.99z M33.17,34.75h-9.48v-9.28h9.48V34.75z"/>
			<path class="st1" d="M1,39.33C1,40.25,1.75,41,2.67,41h36.67c0.92,0,1.67-0.75,1.67-1.67V4.99H1V39.33z M2.48,6.47h37.04v32.87
				c0,0.1-0.08,0.19-0.19,0.19H2.67c-0.1,0-0.19-0.08-0.19-0.19V6.47z"/>
			<path class="st1" d="M39.33,1H2.67C1.75,1,1,1.75,1,2.67v1.21h40V2.67C41,1.75,40.25,1,39.33,1z"/>
		</g>
	</g>
</g>
</svg>
