<?xml version="1.0" encoding="utf-8"?>
<!-- Generator: Adobe Illustrator 24.0.2, SVG Export Plug-In . SVG Version: 6.00 Build 0)  -->
<svg version="1.1" id="Layer_1" xmlns="http://www.w3.org/2000/svg" xmlns:xlink="http://www.w3.org/1999/xlink" x="0px" y="0px"
	 viewBox="0 0 42 42" style="enable-background:new 0 0 42 42;" xml:space="preserve">
<style type="text/css">
	.st0{fill:#FFFFFF;}
	.st1{fill:#2C5967;}
</style>
<g>
	<g>
		<g>
			<path class="st0" d="M2.67,41.5c-1.19,0-2.17-0.97-2.17-2.17V2.67c0-1.19,0.97-2.17,2.17-2.17h36.67c1.19,0,2.17,0.97,2.17,2.17
				v36.67c0,1.2-0.97,2.17-2.17,2.17H2.67z"/>
			<path class="st0" d="M39.33,1C40.25,1,41,1.75,41,2.67v2.32v4.89v29.46c0,0.92-0.75,1.67-1.67,1.67H2.67C1.75,41,1,40.25,1,39.33
				V9.87V4.99V2.67C1,1.75,1.75,1,2.67,1H39.33 M39.33,0H2.67C1.2,0,0,1.2,0,2.67v2.32v4.89v29.46C0,40.8,1.2,42,2.67,42h36.67
				C40.8,42,42,40.8,42,39.33V9.87V4.99V2.67C42,1.2,40.8,0,39.33,0L39.33,0z"/>
		</g>
		<g>
			<path class="st1" d="M27.25,27.85l1.88-3.23l-1.85-3.23h-3.73l-1.88,3.23l1.85,3.23H27.25z M24.4,22.88h2.02l1,1.74l-1.02,1.75
				h-2.02l-1-1.74L24.4,22.88z"/>
			<path class="st1" d="M17.84,31.95c0,1.75,1.43,3.18,3.18,3.18c0.87,0,1.68-0.34,2.28-0.95c0.59-0.6,0.91-1.4,0.9-2.22
				c0-1.75-1.43-3.18-3.18-3.18C19.27,28.77,17.84,30.2,17.84,31.95z M21.02,30.26c0.94,0,1.7,0.76,1.7,1.71
				c0.01,0.44-0.16,0.86-0.47,1.17c-0.32,0.33-0.76,0.51-1.22,0.51c-0.94,0-1.7-0.76-1.7-1.7C19.32,31.02,20.08,30.26,21.02,30.26z"
				/>
			<path class="st1" d="M16.82,20.77l-3.72,6.76h7.44L16.82,20.77z M16.82,23.85l1.21,2.21h-2.43L16.82,23.85z"/>
			<path class="st1" d="M8.13,17.29l3.31,20.62h19.32l3.09-20.62h-3.16v-2.89c0-1.2-0.37-2.15-1.1-2.82
				c-1.11-1.01-2.65-0.97-2.94-0.95c-0.07,0-0.28,0-0.59,0v-0.49c0-0.51-0.42-0.93-0.93-0.93h-7.96c-0.51,0-0.93,0.42-0.93,0.93
				v0.48c-0.5,0-0.95,0.01-1.33,0.02c-1.16,0.02-2.07,0.39-2.69,1.11c-0.9,1.03-0.83,2.42-0.8,2.71v2.84H8.13z M29.48,36.42H12.7
				L9.86,18.77h22.26L29.48,36.42z M12.9,14.32c0-0.01-0.1-1,0.45-1.63c0.33-0.38,0.87-0.58,1.59-0.59c0.37-0.01,0.81-0.01,1.3-0.02
				v0.63c0,0.51,0.42,0.93,0.93,0.93h7.96c0.51,0,0.93-0.42,0.93-0.93V12.1c0.37,0,0.59,0,0.61,0l0.07,0c0.01,0,1.15-0.08,1.86,0.57
				c0.41,0.38,0.61,0.95,0.61,1.72v2.89H12.9v-2.87L12.9,14.32z"/>
			<path class="st1" d="M1,39.33C1,40.25,1.75,41,2.67,41h36.67c0.92,0,1.67-0.75,1.67-1.67V4.99H1V39.33z M2.48,6.47h37.04v32.87
				c0,0.1-0.08,0.19-0.19,0.19H2.67c-0.1,0-0.19-0.08-0.19-0.19V6.47z"/>
			<path class="st1" d="M39.33,1H2.67C1.75,1,1,1.75,1,2.67v1.21h40V2.67C41,1.75,40.25,1,39.33,1z"/>
		</g>
	</g>
</g>
</svg>
