<?xml version="1.0" encoding="utf-8"?>
<!-- Generator: Adobe Illustrator 24.0.2, SVG Export Plug-In . SVG Version: 6.00 Build 0)  -->
<svg version="1.1" id="Layer_1" xmlns="http://www.w3.org/2000/svg" xmlns:xlink="http://www.w3.org/1999/xlink" x="0px" y="0px"
	 viewBox="0 0 23.4 42" style="enable-background:new 0 0 23.4 42;" xml:space="preserve">
<g>
	<g>
		<path style="fill:#FFFFFF;" d="M2.6,41.5c-1.1,0-2.1-0.9-2.1-2.1V2.6c0-1.1,0.9-2.1,2.1-2.1h18.3c1.1,0,2.1,0.9,2.1,2.1v36.9
			c0,1.1-0.9,2.1-2.1,2.1H2.6z"/>
		<path style="fill:#FFFFFF;" d="M20.8,1c0.9,0,1.6,0.7,1.6,1.6v36.9c0,0.9-0.7,1.6-1.6,1.6H2.6C1.7,41,1,40.3,1,39.4V2.6
			C1,1.7,1.7,1,2.6,1H20.8 M20.8,0H2.6C1.1,0,0,1.1,0,2.6v36.9C0,40.9,1.1,42,2.6,42h18.3c1.4,0,2.6-1.1,2.6-2.6V2.6
			C23.4,1.1,22.2,0,20.8,0L20.8,0z"/>
	</g>
	<g>
		<path style="fill:#2C5967;" d="M20.8,1H2.6C1.7,1,1,1.7,1,2.6v36.9C1,40.3,1.7,41,2.6,41h18.3c0.9,0,1.6-0.7,1.6-1.6V2.6
			C22.4,1.7,21.7,1,20.8,1z M21,39.4c0,0.1-0.1,0.2-0.2,0.2H2.6c-0.1,0-0.2-0.1-0.2-0.2V2.6c0-0.1,0.1-0.2,0.2-0.2h18.3
			c0.1,0,0.2,0.1,0.2,0.2V39.4z"/>
		<path style="fill:#2C5967;" d="M3.4,9.6H20V3.4H3.4V9.6z M4.8,4.8h13.8v3.4H4.8V4.8z"/>
		<circle style="fill:#2C5967;" cx="16.9" cy="6.5" r="0.7"/>
		<path style="fill:#2C5967;" d="M3.4,16.9H20v-6.2H3.4V16.9z M4.8,12h13.8v3.4H4.8V12z"/>
		<circle style="fill:#2C5967;" cx="16.9" cy="13.8" r="0.7"/>
		<path style="fill:#2C5967;" d="M3.4,24.1H20v-6.2H3.4V24.1z M4.8,19.3h13.8v3.4H4.8V19.3z"/>
		<circle style="fill:#2C5967;" cx="16.9" cy="21" r="0.7"/>
		<path style="fill:#2C5967;" d="M3.4,31.3H20v-6.2H3.4V31.3z M4.8,26.5h13.8V30H4.8V26.5z"/>
		<circle style="fill:#2C5967;" cx="16.9" cy="28.2" r="0.7"/>
		<path style="fill:#2C5967;" d="M3.4,38.6H20v-6.2H3.4V38.6z M4.8,33.8h13.8v3.4H4.8V33.8z"/>
		<circle style="fill:#2C5967;" cx="16.9" cy="35.5" r="0.7"/>
	</g>
</g>
</svg>
