<?xml version="1.0" encoding="utf-8"?>
<!-- Generator: Adobe Illustrator 24.0.2, SVG Export Plug-In . SVG Version: 6.00 Build 0)  -->
<svg version="1.1" id="Layer_1" xmlns="http://www.w3.org/2000/svg" xmlns:xlink="http://www.w3.org/1999/xlink" x="0px" y="0px"
	 viewBox="0 0 42 42" style="enable-background:new 0 0 42 42;" xml:space="preserve">
<style type="text/css">
	.st0{fill:#FFFFFF;}
	.st1{fill:#2C5967;}
</style>
<g>
	<g>
		<g>
			<path class="st0" d="M15.76,41.5l-0.55-4.97c-0.37-0.14-0.73-0.29-1.09-0.45l-3.9,3.12L2.8,31.79l3.12-3.91
				c-0.16-0.36-0.31-0.72-0.45-1.09L0.5,26.24V15.76l4.97-0.55c0.14-0.37,0.29-0.73,0.45-1.09L2.8,10.21l7.41-7.41l3.9,3.12
				c0.36-0.16,0.72-0.32,1.09-0.45l0.55-4.97h10.48l0.55,4.97c0.37,0.14,0.73,0.29,1.09,0.45l3.9-3.12l7.41,7.41l-3.12,3.91
				c0.16,0.36,0.31,0.72,0.45,1.09l4.97,0.55v10.48l-4.97,0.55c-0.14,0.37-0.29,0.73-0.45,1.09l3.12,3.91l-7.41,7.41l-3.9-3.12
				c-0.36,0.16-0.72,0.32-1.09,0.45l-0.55,4.97H15.76z"/>
			<path class="st0" d="M25.79,1l0.54,4.83c0.55,0.19,1.1,0.42,1.62,0.67l3.8-3.04l6.78,6.78l-3.04,3.8
				c0.25,0.53,0.48,1.07,0.67,1.62L41,16.21v9.59l-4.83,0.54c-0.19,0.55-0.42,1.1-0.67,1.62l3.04,3.8l-6.78,6.78l-3.8-3.04
				c-0.53,0.25-1.07,0.48-1.62,0.67L25.79,41h-9.59l-0.54-4.83c-0.55-0.19-1.1-0.42-1.62-0.67l-3.8,3.04l-6.78-6.78l3.04-3.8
				c-0.25-0.53-0.48-1.07-0.67-1.62L1,25.79v-9.59l4.83-0.54c0.19-0.55,0.42-1.1,0.67-1.62l-3.04-3.8l6.78-6.78l3.8,3.04
				c0.53-0.25,1.07-0.48,1.62-0.67L16.21,1H25.79 M26.69,0h-0.9h-9.59h-0.9l-0.1,0.89l-0.47,4.22c-0.19,0.07-0.37,0.15-0.55,0.23
				l-3.32-2.65l-0.7-0.56L9.54,2.76L2.76,9.54l-0.63,0.63l0.56,0.7l2.65,3.32c-0.08,0.18-0.16,0.37-0.23,0.55l-4.22,0.47L0,15.31
				v0.9v9.59v0.9l0.89,0.1l4.22,0.47c0.07,0.19,0.15,0.37,0.23,0.55l-2.65,3.32l-0.56,0.7l0.63,0.63l6.78,6.78l0.63,0.63l0.7-0.56
				l3.32-2.65c0.18,0.08,0.37,0.16,0.55,0.23l0.47,4.22l0.1,0.89h0.9h9.59h0.9l0.1-0.89l0.47-4.22c0.19-0.07,0.37-0.15,0.55-0.23
				l3.32,2.65l0.7,0.56l0.63-0.63l6.78-6.78l0.63-0.63l-0.56-0.7l-2.65-3.32c0.08-0.18,0.16-0.37,0.23-0.55l4.22-0.47l0.89-0.1v-0.9
				v-9.59v-0.9l-0.89-0.1l-4.22-0.47c-0.07-0.19-0.15-0.37-0.23-0.55l2.65-3.32l0.56-0.7l-0.63-0.63l-6.78-6.78l-0.63-0.63
				l-0.7,0.56l-3.32,2.65c-0.18-0.08-0.37-0.16-0.55-0.23l-0.47-4.22L26.69,0L26.69,0z"/>
		</g>
		<g>
			<path class="st1" d="M41,25.79v-9.59l-4.83-0.54c-0.19-0.55-0.42-1.1-0.67-1.62l3.04-3.8l-6.78-6.78l-3.8,3.04
				c-0.53-0.25-1.07-0.48-1.62-0.67L25.79,1h-9.59l-0.54,4.83c-0.55,0.19-1.1,0.42-1.62,0.67l-3.8-3.04l-6.78,6.78l3.04,3.8
				c-0.25,0.53-0.48,1.07-0.67,1.62L1,16.21v9.59l4.83,0.54c0.19,0.55,0.42,1.1,0.67,1.62l-3.04,3.8l6.78,6.78l3.8-3.04
				c0.53,0.25,1.07,0.48,1.62,0.67L16.21,41h9.59l0.54-4.83c0.55-0.19,1.1-0.42,1.62-0.67l3.8,3.04l6.78-6.78l-3.04-3.8
				c0.25-0.53,0.48-1.07,0.67-1.62L41,25.79z M36.55,31.64l-4.9,4.9l-3.51-2.81l-0.43,0.22c-0.73,0.38-1.5,0.7-2.28,0.95l-0.46,0.15
				l-0.5,4.46h-6.93l-0.5-4.46l-0.46-0.15c-0.79-0.25-1.55-0.57-2.28-0.95l-0.43-0.22l-3.51,2.81l-4.9-4.9l2.81-3.51l-0.22-0.43
				c-0.38-0.73-0.7-1.5-0.95-2.28l-0.15-0.46l-4.46-0.5v-6.93l4.46-0.5l0.15-0.46c0.25-0.79,0.57-1.55,0.95-2.28l0.22-0.43
				l-2.81-3.51l4.9-4.9l3.51,2.81l0.43-0.22c0.73-0.38,1.5-0.7,2.28-0.95l0.46-0.15l0.5-4.46h6.93l0.5,4.46l0.46,0.15
				c0.79,0.25,1.55,0.57,2.28,0.95l0.43,0.22l3.51-2.81l4.9,4.9l-2.81,3.51l0.22,0.43c0.38,0.73,0.7,1.5,0.95,2.28l0.15,0.46
				l4.46,0.5v6.93l-4.46,0.5l-0.15,0.46c-0.25,0.79-0.57,1.55-0.95,2.28l-0.22,0.43L36.55,31.64z"/>
			<rect x="25.26" y="16.74" class="st1" width="3.7" height="3.7"/>
			<rect x="30.07" y="16.74" class="st1" width="3.7" height="3.7"/>
			<rect x="25.26" y="21.56" class="st1" width="3.7" height="3.7"/>
			<rect x="30.07" y="21.56" class="st1" width="3.7" height="3.7"/>
			<polygon class="st1" points="16.74,16.74 21,21 16.74,25.26 20.07,25.26 24.33,21 20.08,16.74 			"/>
			<circle class="st1" cx="8.96" cy="18.59" r="1.48"/>
			<circle class="st1" cx="12.94" cy="24.06" r="1.2"/>
			<circle class="st1" cx="8.78" cy="23.04" r="1.85"/>
			<circle class="st1" cx="14.06" cy="19.24" r="2.5"/>
		</g>
	</g>
</g>
</svg>
