<?xml version="1.0" encoding="utf-8"?>
<!-- Generator: Adobe Illustrator 24.0.2, SVG Export Plug-In . SVG Version: 6.00 Build 0)  -->
<svg version="1.1" id="Layer_1" xmlns="http://www.w3.org/2000/svg" xmlns:xlink="http://www.w3.org/1999/xlink" x="0px" y="0px"
	 viewBox="0 0 28.13 42.12" style="enable-background:new 0 0 28.13 42.12;" xml:space="preserve">
<style type="text/css">
	.st0{fill:#FFFFFF;}
	.st1{fill:#2C5967;}
</style>
<g>
	<g>
		<g>
			<path class="st0" d="M13.51,41.28C5.63,37.33,0.89,31.19,0.5,24.41l0-12.64l5.25-2.25C5.73,9.3,5.72,9.07,5.72,8.85
				c0-4.6,3.75-8.35,8.35-8.35s8.35,3.75,8.35,8.35c0,0.22-0.01,0.45-0.03,0.67l5.25,2.25l0,12.62c-0.39,6.8-5.13,12.95-13.01,16.9
				l-0.55,0.28L13.51,41.28z"/>
			<path class="st0" d="M14.07,1c4.33,0,7.85,3.52,7.85,7.85c0,0.33-0.02,0.66-0.06,0.98l5.28,2.26l0,12.29
				c-0.37,6.59-5.02,12.59-12.74,16.45L14.06,41l-0.33-0.17C6.02,36.97,1.38,30.97,1,24.38l0-0.04V12.1l5.28-2.26
				C6.24,9.51,6.22,9.18,6.22,8.85C6.22,4.52,9.74,1,14.07,1 M14.07,0C9.19,0,5.22,3.97,5.22,8.85c0,0.11,0,0.23,0.01,0.35
				l-4.62,1.98L0,11.44v0.66v12.24v0.01l0,0.06C0.4,31.4,5.24,37.7,13.29,41.73l0.33,0.17l0.45,0.22l0.45-0.22l0.33-0.17
				c8.05-4.03,12.89-10.33,13.29-17.29l0-0.03v-0.03l0-12.29l0-0.66l-0.61-0.26L22.91,9.2c0-0.12,0.01-0.23,0.01-0.35
				C22.92,3.97,18.95,0,14.07,0L14.07,0z"/>
		</g>
		<g>
			<path class="st1" d="M21.85,9.83c0.04-0.33,0.06-0.65,0.06-0.98c0-4.33-3.52-7.85-7.85-7.85S6.22,4.52,6.22,8.85
				c0,0.33,0.02,0.66,0.06,0.98L1,12.1v12.24l0,0.04c0.38,6.59,5.02,12.59,12.73,16.45L14.06,41l0.33-0.17
				c7.72-3.86,12.36-9.86,12.74-16.45l0-12.29L21.85,9.83z M7.69,8.85c0-3.51,2.86-6.37,6.37-6.37s6.37,2.86,6.37,6.37
				c0,0.12,0,0.25-0.01,0.37L14.07,6.5L7.71,9.22C7.7,9.1,7.69,8.97,7.69,8.85z M25.65,24.32c-0.35,5.95-4.56,11.41-11.59,15.03
				C7.04,35.73,2.83,30.27,2.48,24.32V13.07l11.59-4.97l11.59,4.97V24.32z"/>
			<path class="st1" d="M11.41,20.6c0,1.04,0.61,1.93,1.49,2.34l0.36,0.21l-0.69,5.11h2.85l-0.69-5.14l0.13-0.08
				c1.02-0.35,1.75-1.31,1.75-2.45c0-1.44-1.16-2.6-2.6-2.6S11.41,19.16,11.41,20.6z"/>
		</g>
	</g>
</g>
</svg>
