<?xml version="1.0" encoding="utf-8"?>
<!-- Generator: Adobe Illustrator 24.0.2, SVG Export Plug-In . SVG Version: 6.00 Build 0)  -->
<svg version="1.1" id="Layer_1" xmlns="http://www.w3.org/2000/svg" xmlns:xlink="http://www.w3.org/1999/xlink" x="0px" y="0px"
	 viewBox="0 0 31.34 42" style="enable-background:new 0 0 31.34 42;" xml:space="preserve">
<style type="text/css">
	.st0{fill:#FFFFFF;}
	.st1{fill:#2C5967;}
</style>
<g>
	<g>
		<g>
			<path class="st0" d="M2.57,41.5c-1.14,0-2.07-0.93-2.07-2.07V6.59c0-1.14,0.93-2.07,2.07-2.07h5.2c0.28-0.82,1.06-1.4,1.96-1.4
				h2.31c0.51-1.54,1.98-2.62,3.63-2.62c1.65,0,3.11,1.08,3.63,2.62h2.31c0.9,0,1.68,0.58,1.96,1.4h5.2c1.14,0,2.07,0.93,2.07,2.07
				v32.84c0,1.14-0.93,2.07-2.07,2.07H2.57z"/>
			<path class="st0" d="M15.67,1c1.59,0,2.92,1.12,3.24,2.62h2.69c0.81,0,1.47,0.61,1.56,1.4h5.6c0.87,0,1.57,0.71,1.57,1.57v32.84
				c0,0.87-0.71,1.57-1.57,1.57H2.57C1.71,41,1,40.29,1,39.43V6.59c0-0.87,0.71-1.57,1.57-1.57h5.6c0.09-0.78,0.75-1.4,1.56-1.4
				h2.69C12.75,2.12,14.08,1,15.67,1 M15.67,0c-1.74,0-3.3,1.06-3.97,2.62H9.73c-0.99,0-1.86,0.56-2.29,1.4H2.57
				C1.15,4.02,0,5.17,0,6.59v32.84C0,40.85,1.15,42,2.57,42h26.2c1.42,0,2.57-1.15,2.57-2.57V6.59c0-1.42-1.15-2.57-2.57-2.57H23.9
				c-0.43-0.84-1.3-1.4-2.29-1.4h-1.97C18.97,1.06,17.41,0,15.67,0L15.67,0z"/>
		</g>
		<g>
			<path class="st1" d="M28.77,5.02h-5.6c-0.09-0.78-0.75-1.4-1.56-1.4h-2.69C18.6,2.12,17.26,1,15.67,1s-2.92,1.12-3.24,2.62H9.73
				c-0.81,0-1.47,0.61-1.56,1.4h-5.6C1.71,5.02,1,5.72,1,6.59v32.84C1,40.29,1.71,41,2.57,41h26.2c0.87,0,1.57-0.71,1.57-1.57V6.59
				C30.34,5.72,29.64,5.02,28.77,5.02z M9.21,36.69l-3.9-3.9h3.9V36.69z M4.84,31.39V8.86h3.32v1.4h15.02v-1.4h3.32v28.3h-15.9
				v-5.76H4.84z M9.56,5.19c0-0.1,0.08-0.17,0.17-0.17h4.02v-0.7c0-1.06,0.86-1.92,1.92-1.92s1.92,0.86,1.92,1.92v0.7h4.02
				c0.1,0,0.17,0.08,0.17,0.17v3.67H9.56V5.19z M28.95,39.43c0,0.1-0.08,0.17-0.17,0.17H2.57c-0.1,0-0.17-0.08-0.17-0.17V6.59
				c0-0.1,0.08-0.17,0.17-0.17h5.59v1.05H3.45v25.44l5.65,5.65h18.8V7.46h-4.72V6.41h5.59c0.1,0,0.17,0.08,0.17,0.17V39.43z"/>
			<path class="st1" d="M15.67,3.45c-0.48,0-0.87,0.39-0.87,0.87s0.39,0.87,0.87,0.87s0.87-0.39,0.87-0.87S16.15,3.45,15.67,3.45z"
				/>
			<rect x="6.24" y="25.8" class="st1" width="18.86" height="1.4"/>
			<rect x="6.24" y="28.6" class="st1" width="13.28" height="1.4"/>
			<polygon class="st1" points="14.97,21.26 16.37,21.26 16.37,18.64 18.99,18.64 18.99,17.24 16.37,17.24 16.37,14.62 14.97,14.62 
				14.97,17.24 12.35,17.24 12.35,18.64 14.97,18.64 			"/>
			<path class="st1" d="M15.67,23.88c3.27,0,5.94-2.66,5.94-5.94S18.95,12,15.67,12s-5.94,2.66-5.94,5.94S12.4,23.88,15.67,23.88z
				 M15.67,13.4c2.5,0,4.54,2.04,4.54,4.54s-2.04,4.54-4.54,4.54s-4.54-2.04-4.54-4.54S13.17,13.4,15.67,13.4z"/>
		</g>
	</g>
</g>
</svg>
