<?xml version="1.0" encoding="utf-8"?>
<!-- Generator: Adobe Illustrator 24.0.2, SVG Export Plug-In . SVG Version: 6.00 Build 0)  -->
<svg version="1.1" id="Layer_1" xmlns="http://www.w3.org/2000/svg" xmlns:xlink="http://www.w3.org/1999/xlink" x="0px" y="0px"
	 viewBox="0 0 44.6 42.1" style="enable-background:new 0 0 44.6 42.1;" xml:space="preserve">
<g>
	<g>
		<path style="fill:#FFFFFF;" d="M33.7,41.3c-5.7-2.8-9.1-7.3-9.3-12.2l0-4.3H0.5V0.5h35v15.7l8.7,3.7l0,9.1
			c-0.3,4.9-3.7,9.4-9.4,12.2l-0.6,0.3L33.7,41.3z"/>
		<path style="fill:#FFFFFF;" d="M35,1v15.6l8.7,3.7l0,8.8c-0.3,4.7-3.6,9-9.1,11.8L34.2,41l-0.3-0.2c-5.5-2.8-8.8-7-9.1-11.7l0,0
			v-4.7H1V1H35 M36,0h-1H1H0v1v23.3v1h1h22.8V29v0l0,0.1c0.3,5.1,3.8,9.7,9.6,12.6l0.3,0.2l0.4,0.2l0.4-0.2l0.3-0.2
			c5.8-2.9,9.3-7.5,9.6-12.6l0,0v0l0-8.8v-0.7L44,19.4L36,15.9V1V0L36,0z"/>
	</g>
	<g>
		<path style="fill:none;" d="M35,24.3v0.4h-1.5v-1.9v-4.7l-7.2,3.1V29c0.2,3.9,2.8,7.4,7.2,9.9V26.4H35v12.6c4.4-2.5,7-6.1,7.2-9.9
			v-7.8L35,18.2V24.3z"/>
		<path style="fill:none;" d="M10.9,11.1c1.1,0,2-0.9,2-2s-0.9-2-2-2s-2,0.9-2,2S9.9,11.1,10.9,11.1z"/>
		<polygon style="fill:#2C5967;" points="2.5,2.5 33.5,2.5 33.5,15.4 34.2,15.1 35,15.4 35,1 1,1 1,24.3 23.7,24.3 23.7,22.9 
			2.5,22.9 		"/>
		<path style="fill:#2C5967;" d="M34.2,16.3l-9.4,4V29l0,0c0.3,4.7,3.6,9,9.1,11.7l0.3,0.2l0.3-0.2c5.5-2.8,8.8-7,9.1-11.8l0-8.8
			L34.2,16.3z M42.2,29c-0.2,3.9-2.8,7.4-7.2,9.9V26.4h-1.5v12.6c-4.4-2.5-7-6.1-7.2-9.9v-7.8l7.2-3.1v4.7v1.9H35v-0.4v-6.2l7.2,3.1
			V29z"/>
		<polygon style="fill:#2C5967;" points="21,7.5 20,8.5 22.8,11.3 28.1,6 27,4.9 22.8,9.2 		"/>
		<polygon style="fill:#2C5967;" points="26.7,17.6 24.8,15.6 26.7,13.7 25.7,12.6 23.7,14.6 21.8,12.6 20.8,13.7 22.7,15.6 
			20.8,17.6 21.8,18.6 23.7,16.7 25.7,18.6 		"/>
		<path style="fill:#2C5967;" d="M16,19.6v-3.2c0-1.4-1.1-2.5-2.5-2.5h-5c-1.4,0-2.5,1.1-2.5,2.5v3.2h1.5v-3.2
			c0-0.6,0.5-1.1,1.1-1.1h5c0.6,0,1.1,0.5,1.1,1.1v3.2H16z"/>
		<path style="fill:#2C5967;" d="M10.9,12.6c1.9,0,3.4-1.5,3.4-3.4s-1.5-3.4-3.4-3.4C9,5.7,7.5,7.3,7.5,9.2S9,12.6,10.9,12.6z
			 M10.9,7.2c1.1,0,2,0.9,2,2s-0.9,2-2,2s-2-0.9-2-2S9.9,7.2,10.9,7.2z"/>
	</g>
</g>
</svg>
