<svg id="Layer_1" data-name="Layer 1" xmlns="http://www.w3.org/2000/svg" viewBox="0 0 31.77 41.11">
   <title>Network Security Group NSG</title>
   <g>
      <path
         d="M15.67,40.47C15.05,40.18.5,33.36.5,26.06V4.72H1C11.11,4.72,15.38,1.35,15.38,0h1c0,1,3.6,4.71,14.39,4.71h.5V26.06c0,7.3-14.56,14.12-15.18,14.41l-.21.09Z"
         fill="#fff" />
      <path
         d="M15.88,0c0,1.49,4.1,5.21,14.89,5.21V26.06c0,7.07-14.89,14-14.89,14S1,33.13,1,26.06V5.22C11.42,5.22,15.88,1.69,15.88,0m1,0h-2C14.84.87,11.11,4.22,1,4.22H0V26.06c0,7.62,14.83,14.57,15.46,14.86l.42.19.42-.19c.63-.29,15.47-7.24,15.47-14.86V4.22h-1C20.75,4.22,17,.89,16.88,0Z"
         fill="#fff" />
      <path d="M15.14,14.52V3.37A12.63,12.63,0,0,1,13,4.6,27.63,27.63,0,0,1,2.49,6.69V19H15.14Z" fill="none" />
      <path d="M2.49,20.48v5.58c0,2.34,2.4,5.32,6.77,8.39A54.62,54.62,0,0,0,15.14,38V20.48Z" fill="none" />
      <path d="M16.63,19H29.28V6.69A27,27,0,0,1,18.65,4.52a12,12,0,0,1-2-1.18V19Z" fill="none" />
      <path d="M15.88,38.36l0,0h-.08Z" fill="none" />
      <path d="M16.63,20.48V38a53.69,53.69,0,0,0,5.87-3.53c4.37-3.07,6.78-6.05,6.78-8.39V20.48H16.63Z" fill="none" />
      <path
         d="M15.88,0c0,1.68-4.46,5.21-14.88,5.21V26.06c0,7.07,14.88,14,14.88,14s14.89-6.88,14.89-13.95V5.22C20,5.22,15.88,1.5,15.88,0Zm.75,3.33a12,12,0,0,0,2,1.18A27,27,0,0,0,29.28,6.69V19H16.63ZM2.49,6.69A27.63,27.63,0,0,0,13,4.6a12.63,12.63,0,0,0,2.18-1.23V19H2.49ZM9.26,34.45c-4.37-3.07-6.77-6.05-6.77-8.39V20.48H15.14V38A54.62,54.62,0,0,1,9.26,34.45Zm6.62,3.91,0,0h.08Zm13.4-12.3c0,2.34-2.41,5.32-6.78,8.39A53.69,53.69,0,0,1,16.63,38V20.48H29.28Z"
         fill="#2c5967" />
   </g>
</svg>
