<?xml version="1.0" encoding="utf-8"?>
<!-- Generator: Adobe Illustrator 24.0.2, SVG Export Plug-In . SVG Version: 6.00 Build 0)  -->
<svg version="1.1" id="Layer_1" xmlns="http://www.w3.org/2000/svg" xmlns:xlink="http://www.w3.org/1999/xlink" x="0px" y="0px"
	 viewBox="0 0 42 17.41" style="enable-background:new 0 0 42 17.41;" xml:space="preserve">
<style type="text/css">
	.st0{fill:#FFFFFF;}
	.st1{fill:#2C5967;}
</style>
<g>
	<g>
		<g>
			<g>
				<path class="st0" d="M30.16,6.1c-2.58-2.12-5.86-3.29-9.23-3.29c-3.34,0-6.59,1.14-9.16,3.22l-0.34,0.27l-0.32-0.3
					c-0.3-0.28-0.63-0.54-0.98-0.75L9.55,4.9l0.53-0.44c0.42-0.35,0.84-0.67,1.26-0.96c2.83-1.96,6.14-2.99,9.59-2.99
					c3.45,0,6.77,1.03,9.59,2.99c0.45,0.31,0.89,0.65,1.32,1.02l0.51,0.44l-0.57,0.37c-0.34,0.22-0.67,0.48-0.97,0.77L30.5,6.39
					L30.16,6.1z"/>
				<path class="st0" d="M20.92,1c3.35,0,6.57,1,9.31,2.9c0.45,0.31,0.87,0.64,1.29,0.99c-0.37,0.24-0.72,0.52-1.04,0.83
					c-2.63-2.16-5.97-3.4-9.55-3.4c-3.55,0-6.86,1.22-9.47,3.33c-0.32-0.3-0.68-0.58-1.06-0.81c0.39-0.33,0.8-0.64,1.22-0.93
					C14.36,2,17.58,1,20.92,1 M20.92,0c-3.55,0-6.97,1.06-9.88,3.08c-0.43,0.3-0.86,0.63-1.29,0.99L8.7,4.96l1.17,0.73
					c0.32,0.2,0.62,0.43,0.9,0.7l0.64,0.6l0.68-0.55c2.48-2.01,5.62-3.11,8.84-3.11c3.26,0,6.42,1.13,8.92,3.17l0.69,0.57l0.64-0.62
					c0.27-0.26,0.57-0.5,0.89-0.71L33.19,5l-1.03-0.87c-0.45-0.38-0.91-0.73-1.36-1.05C27.89,1.06,24.48,0,20.92,0L20.92,0z"/>
			</g>
			<g>
				<circle class="st0" cx="6.81" cy="10.6" r="6.31"/>
				<path class="st0" d="M6.81,4.8c3.2,0,5.81,2.61,5.81,5.81s-2.61,5.81-5.81,5.81C3.61,16.41,1,13.81,1,10.6S3.61,4.8,6.81,4.8
					 M6.81,3.8C3.05,3.8,0,6.85,0,10.6c0,3.75,3.05,6.81,6.81,6.81c3.75,0,6.81-3.05,6.81-6.81C13.62,6.85,10.56,3.8,6.81,3.8
					L6.81,3.8z"/>
			</g>
			<g>
				<circle class="st0" cx="35.19" cy="10.6" r="6.31"/>
				<path class="st0" d="M35.19,4.8C38.39,4.8,41,7.4,41,10.6s-2.61,5.81-5.81,5.81s-5.81-2.61-5.81-5.81S31.99,4.8,35.19,4.8
					 M35.19,3.8c-3.75,0-6.81,3.05-6.81,6.81c0,3.75,3.05,6.81,6.81,6.81S42,14.36,42,10.6C42,6.85,38.95,3.8,35.19,3.8L35.19,3.8z"
					/>
			</g>
		</g>
		<g>
			<path class="st1" d="M30.23,3.9C27.49,2,24.27,1,20.92,1s-6.57,1-9.31,2.9c-0.42,0.29-0.83,0.61-1.22,0.93
				c0.38,0.24,0.73,0.51,1.06,0.81c2.61-2.12,5.92-3.33,9.47-3.33c3.58,0,6.92,1.24,9.55,3.4c0.32-0.31,0.67-0.58,1.04-0.83
				C31.11,4.54,30.68,4.21,30.23,3.9z"/>
			<path class="st1" d="M6.81,4.8C3.61,4.8,1,7.4,1,10.6s2.61,5.81,5.81,5.81s5.81-2.61,5.81-5.81S10.01,4.8,6.81,4.8z M11.3,10.6
				c0,2.48-2.01,4.49-4.49,4.49s-4.49-2.01-4.49-4.49s2.01-4.49,4.49-4.49S11.3,8.13,11.3,10.6z"/>
			<path class="st1" d="M35.19,4.8c-3.2,0-5.81,2.61-5.81,5.81s2.61,5.81,5.81,5.81c3.2,0,5.81-2.61,5.81-5.81S38.39,4.8,35.19,4.8z
				 M35.19,15.09c-2.48,0-4.49-2.01-4.49-4.49s2.01-4.49,4.49-4.49s4.49,2.01,4.49,4.49S37.67,15.09,35.19,15.09z"/>
			<path class="st1" d="M5.1,8.81L3.91,9.36l1.81,3.89l3.89-1.81l-0.56-1.19l-1.8,0.84C7.76,9.96,8.4,8.93,9.14,8
				C8.81,7.7,8.43,7.47,8,7.32c-0.8,1.03-1.48,2.16-2.02,3.37L5.1,8.81z"/>
			<path class="st1" d="M32.74,10.24l-0.56,1.19l3.89,1.81l1.81-3.89l-1.19-0.56l-0.85,1.82c-0.53-1.17-1.19-2.26-1.96-3.26
				c-0.41,0.17-0.79,0.41-1.1,0.72c0.72,0.92,1.34,1.94,1.84,3.04L32.74,10.24z"/>
		</g>
		<g>
			<path class="st1" d="M30.23,3.9C27.49,2,24.27,1,20.92,1s-6.57,1-9.31,2.9c-0.42,0.29-0.83,0.61-1.22,0.93
				c0.38,0.24,0.73,0.51,1.06,0.81c2.61-2.12,5.92-3.33,9.47-3.33c3.58,0,6.92,1.24,9.55,3.4c0.32-0.31,0.67-0.58,1.04-0.83
				C31.11,4.54,30.68,4.21,30.23,3.9z"/>
			<path class="st1" d="M6.81,4.8C3.61,4.8,1,7.4,1,10.6s2.61,5.81,5.81,5.81s5.81-2.61,5.81-5.81S10.01,4.8,6.81,4.8z M11.3,10.6
				c0,2.48-2.01,4.49-4.49,4.49s-4.49-2.01-4.49-4.49s2.01-4.49,4.49-4.49S11.3,8.13,11.3,10.6z"/>
			<path class="st1" d="M35.19,4.8c-3.2,0-5.81,2.61-5.81,5.81s2.61,5.81,5.81,5.81c3.2,0,5.81-2.61,5.81-5.81S38.39,4.8,35.19,4.8z
				 M35.19,15.09c-2.48,0-4.49-2.01-4.49-4.49s2.01-4.49,4.49-4.49s4.49,2.01,4.49,4.49S37.67,15.09,35.19,15.09z"/>
			<path class="st1" d="M5.1,8.81L3.91,9.36l1.81,3.89l3.89-1.81l-0.56-1.19l-1.8,0.84C7.76,9.96,8.4,8.93,9.14,8
				C8.81,7.7,8.43,7.47,8,7.32c-0.8,1.03-1.48,2.16-2.02,3.37L5.1,8.81z"/>
			<path class="st1" d="M32.74,10.24l-0.56,1.19l3.89,1.81l1.81-3.89l-1.19-0.56l-0.85,1.82c-0.53-1.17-1.19-2.26-1.96-3.26
				c-0.41,0.17-0.79,0.41-1.1,0.72c0.72,0.92,1.34,1.94,1.84,3.04L32.74,10.24z"/>
		</g>
	</g>
</g>
</svg>
