<?xml version="1.0" encoding="utf-8"?>
<!-- Generator: Adobe Illustrator 24.0.2, SVG Export Plug-In . SVG Version: 6.00 Build 0)  -->
<svg version="1.1" id="Layer_1" xmlns="http://www.w3.org/2000/svg" xmlns:xlink="http://www.w3.org/1999/xlink" x="0px" y="0px"
	 viewBox="0 0 44.96 42.15" style="enable-background:new 0 0 44.96 42.15;" xml:space="preserve">
<style type="text/css">
	.st0{fill:#FFFFFF;}
	.st1{fill:#2C5967;}
</style>
<g>
	<g>
		<path class="st0" d="M7.65,40.87l-3.56-3.56L3.38,35.2l1.71-1.63l3.24-3.25c1.08-1.08,2.25-2.1,3.47-3.01l3.75-2.81
			c-0.32-0.52-0.62-1.06-0.89-1.62H0.5v-2.9h13.15c-0.32-1.29-0.48-2.6-0.47-3.93H0.5v-2.9h12.95c0.27-1.37,0.71-2.69,1.32-3.93H0.5
			v-2.9h16.13c0.39-0.48,0.74-0.89,1.11-1.25c2.95-2.95,6.88-4.58,11.07-4.58c4.19,0,8.12,1.63,11.07,4.58
			c6.1,6.11,6.1,16.04,0,22.14C36.93,30.18,33,31.8,28.81,31.8c-2.97,0-5.85-0.83-8.35-2.4l-2.81,3.75
			c-0.92,1.23-1.94,2.4-3.01,3.47l-3.25,3.25l-1.63,1.7L7.65,40.87z"/>
		<path class="st0" d="M28.81,1c3.88,0,7.76,1.48,10.72,4.43c5.91,5.91,5.91,15.53,0,21.44c-2.96,2.96-6.84,4.43-10.72,4.43
			c-2.96,0-5.92-0.86-8.46-2.58l-0.69,0.91l-2.41,3.21c-0.9,1.21-1.9,2.36-2.97,3.42l-3.25,3.25L9.61,41l-1.7-0.57l0,0l-3.39-3.39h0
			l-0.57-1.7l1.48-1.42l3.25-3.25c1.07-1.07,2.22-2.06,3.42-2.97l3.22-2.41l0.91-0.68c-0.48-0.72-0.89-1.47-1.24-2.24H1v-1.9h13.3
			c-0.48-1.6-0.68-3.27-0.62-4.93H1v-1.9h12.87c0.28-1.71,0.86-3.38,1.73-4.93H1v-1.9h15.87c0.38-0.48,0.78-0.95,1.22-1.4
			C21.05,2.48,24.93,1,28.81,1 M28.81,0c-4.32,0-8.38,1.68-11.43,4.73c-0.33,0.33-0.65,0.69-0.99,1.11H1H0v1v1.9v1h1h12.99
			c-0.41,0.94-0.72,1.92-0.94,2.93H1H0v1v1.9v1h1h11.68c0.02,0.99,0.14,1.97,0.34,2.93H1H0v1v1.9v1h1h13.36
			c0.17,0.34,0.35,0.67,0.54,0.99l-0.17,0.13l-3.22,2.41c-1.24,0.93-2.43,1.96-3.53,3.06l-3.25,3.25l-1.46,1.4l-0.46,0.44l0.2,0.6
			l0.57,1.7l0.07,0.22l0.17,0.17l3.39,3.39l0.17,0.17l0.22,0.07l1.7,0.57l0.6,0.2l0.44-0.46l1.42-1.48l3.24-3.24
			c1.1-1.1,2.13-2.28,3.06-3.53l2.41-3.21l0.13-0.18c2.48,1.47,5.3,2.24,8.22,2.24c4.32,0,8.38-1.68,11.43-4.73
			c6.3-6.3,6.3-16.55,0-22.85C37.19,1.68,33.13,0,28.81,0L28.81,0z"/>
	</g>
</g>
<g>
	<path class="st1" d="M1,6.83v1.9h13.3c0.33-0.65,0.71-1.28,1.14-1.9H1z"/>
	<path class="st1" d="M1,13.66v1.9h11.53c0.02-0.63,0.08-1.27,0.18-1.9H1z"/>
	<path class="st1" d="M1,20.48v1.9h12.75c-0.26-0.62-0.47-1.25-0.65-1.9H1z"/>
	<path class="st1" d="M20.07,24.89c2.41,2.41,5.58,3.61,8.74,3.61c3.17,0,6.33-1.2,8.74-3.61c4.82-4.82,4.82-12.66,0-17.48
		c-4.82-4.82-12.66-4.82-17.48,0C15.25,12.23,15.25,20.07,20.07,24.89z M21.14,8.48c4.23-4.23,11.11-4.23,15.34,0
		c4.23,4.23,4.23,11.11,0,15.34c-4.23,4.23-11.11,4.23-15.34,0S16.91,12.71,21.14,8.48z"/>
	<path class="st1" d="M20.34,28.72c2.55,1.72,5.51,2.58,8.46,2.58c3.88,0,7.76-1.48,10.72-4.43c5.91-5.91,5.91-15.53,0-21.44
		c-5.91-5.91-15.53-5.91-21.44,0c-5.21,5.21-5.82,13.29-1.85,19.18l-0.91,0.68l-3.22,2.41c-1.2,0.9-2.36,1.9-3.42,2.97l-3.25,3.25
		l5.59,5.59l3.25-3.25c1.06-1.06,2.06-2.22,2.97-3.42l2.41-3.21L20.34,28.72z M19.16,6.51c5.32-5.32,13.97-5.32,19.29,0
		c5.32,5.32,5.32,13.97,0,19.29c-2.66,2.66-6.15,3.99-9.65,3.99c-3.49,0-6.99-1.33-9.65-3.99C13.84,20.48,13.84,11.82,19.16,6.51z
		 M16.04,31.94c-0.86,1.15-1.81,2.24-2.83,3.26l-2.18,2.18l-3.45-3.45l2.18-2.18c1.01-1.01,2.11-1.97,3.26-2.83l3.21-2.41l0.91-0.68
		c0.3,0.36,0.61,0.71,0.94,1.04c0.33,0.33,0.68,0.65,1.04,0.94l-0.68,0.91L16.04,31.94z"/>
	<polygon class="st1" points="4.52,34.78 3.96,35.34 4.53,37.04 4.53,37.04 4.53,37.04 7.92,40.43 7.92,40.43 9.61,41 10.18,40.43 	
		"/>
	<path class="st1" d="M23.42,21.58c1.1,0,2-0.89,2-2c0-0.05,0-0.09-0.01-0.13l2.65-1.52v2.44c-0.96,0.38-1.65,1.32-1.65,2.42
		c0,1.43,1.16,2.6,2.6,2.6s2.6-1.16,2.6-2.6c0-1.1-0.68-2.04-1.65-2.42v-2.44l2.65,1.52c0,0.04-0.01,0.09-0.01,0.13
		c0,1.1,0.89,2,2,2s2-0.89,2-2c0-1.1-0.89-2-2-2c-0.36,0-0.69,0.09-0.98,0.26l-2.71-1.56l1.99-1.14c0.46,0.4,1.05,0.64,1.7,0.64
		c1.43,0,2.6-1.16,2.6-2.6c0-1.43-1.16-2.6-2.6-2.6c-1.43,0-2.6,1.16-2.6,2.6c0,0.09,0.01,0.18,0.01,0.27l-2.06,1.18v-3.1
		c0.63-0.34,1.05-1,1.05-1.76c0-1.1-0.89-2-2-2c-1.1,0-2,0.89-2,2c0,0.76,0.42,1.42,1.05,1.76v3.1L26,13.46
		c0.01-0.09,0.01-0.18,0.01-0.27c0-1.43-1.16-2.6-2.6-2.6c-1.43,0-2.6,1.16-2.6,2.6c0,1.43,1.16,2.6,2.6,2.6
		c0.65,0,1.25-0.24,1.7-0.64l1.99,1.14l-2.71,1.56c-0.29-0.16-0.62-0.26-0.98-0.26c-1.1,0-2,0.89-2,2
		C21.42,20.68,22.31,21.58,23.42,21.58z M30.09,22.78c0,0.6-0.48,1.08-1.08,1.08c-0.6,0-1.08-0.48-1.08-1.08
		c0-0.6,0.48-1.08,1.08-1.08C29.61,21.7,30.09,22.18,30.09,22.78z M33.52,13.19c0-0.6,0.48-1.08,1.08-1.08s1.08,0.48,1.08,1.08
		c0,0.6-0.48,1.08-1.08,1.08S33.52,13.78,33.52,13.19z M23.42,14.27c-0.6,0-1.08-0.48-1.08-1.08c0-0.6,0.48-1.08,1.08-1.08
		c0.6,0,1.08,0.48,1.08,1.08C24.5,13.78,24.01,14.27,23.42,14.27z"/>
</g>
</svg>
