<svg id="Layer_1" data-name="Layer 1" xmlns="http://www.w3.org/2000/svg" viewBox="0 0 42.19 42">
   <title>Service Gateway</title>
   <g>
      <path
         d="M23.24,41.5A18.3,18.3,0,0,1,8.57,34.19,18.93,18.93,0,0,1,5.8,31.87h0a9.75,9.75,0,0,1-1.14-1.25c-.16-.2-.85-1.12-1-1.41s-.19-.3-.28-.46l-.27-.44c-.12-.21-.25-.41-.36-.62s-.17-.33-.25-.5l-.23-.49c-.1-.2-.2-.4-.29-.61s-.15-.38-.22-.58L1.54,25c-.08-.19-.15-.39-.22-.6s-.12-.46-.18-.69L1,23.17C1,23,.91,22.82.87,22.64s-.11-.64-.15-1l-.06-.45c0-.14-.05-.27-.07-.41C.53,20.2.5,19.57.5,18.94A18.46,18.46,0,0,1,18.94.5c.59,0,1.21,0,1.83.09l.37.05.22,0c.39,0,.79.1,1.18.18L23,1l.2.05c.37.09.7.17,1,.27l.52.17.2.07.92.34c.21.08.41.18.61.27l.11,0,.85.41.68.38c.28.16.55.32.81.49l.66.45.73.55a8,8,0,0,1,.91.78,18.54,18.54,0,0,1,2.37,2.56A18.44,18.44,0,0,1,23.24,41.5Z"
         fill="#fff" />
      <path
         d="M18.94,1a17.53,17.53,0,0,1,1.78.09l.57.08c.39.05.77.1,1.15.18.23,0,.45.11.68.16l1,.25L24.8,2c.31.11.61.21.91.33l.69.31.83.4c.23.12.45.25.67.38s.53.31.78.47.43.29.64.44.48.35.72.54l.86.73h0a18.14,18.14,0,0,1,2.37,2.58A17.93,17.93,0,1,1,8.92,33.82a17.92,17.92,0,0,1-2.76-2.3h0s-.9-1-1.1-1.22-.84-1.11-1-1.38-.27-.44-.4-.66-.34-.54-.49-.81-.24-.49-.35-.73-.28-.55-.4-.84-.2-.54-.3-.81-.21-.54-.3-.82-.16-.63-.24-.94-.14-.51-.2-.77-.12-.76-.17-1.14c0-.21-.08-.42-.1-.63Q1,19.87,1,18.94A18,18,0,0,1,18.94,1m0-1A19,19,0,0,0,0,18.94a17.82,17.82,0,0,0,.1,1.93c0,.15,0,.3.06.44s0,.15,0,.23l0,.21c0,.32.08.65.15,1s.09.37.14.56,0,.17.07.25l.06.26c.06.25.12.49.2.73s.14.42.22.63l.09.24.09.25a6.37,6.37,0,0,0,.23.61c.09.22.2.44.3.65l.12.23.11.24a5.2,5.2,0,0,0,.26.53c.12.22.25.43.38.65l.13.21.13.21c.1.17.19.33.3.49s.9,1.24,1.08,1.45a11,11,0,0,0,1.19,1.32,18.56,18.56,0,0,0,2.74,2.3A18.93,18.93,0,1,0,34,7.44a18.94,18.94,0,0,0-2.4-2.59h0a9.48,9.48,0,0,0-.9-.77l-.76-.57-.68-.46c-.26-.17-.54-.33-.81-.49s-.47-.28-.71-.4l-.88-.43-.12-.05-.61-.27c-.31-.13-.63-.24-.94-.35L24.94,1,24.4.81c-.33-.1-.66-.18-1-.26h-.07L23.13.48,22.64.37c-.41-.08-.82-.14-1.22-.19l-.19,0L20.81.09C20.18,0,19.55,0,18.94,0Z"
         fill="#fff" />
      <path
         d="M4.58,26.94a16.27,16.27,0,0,1-2.08-8A16.45,16.45,0,0,1,26.31,4.24,18.7,18.7,0,0,1,31,5.62,17.93,17.93,0,0,0,6.17,31.53,18.48,18.48,0,0,1,4.58,26.94Z"
         fill="#2c5967" />
      <path
         d="M23.24,5.11a17.95,17.95,0,1,0,18,18A18,18,0,0,0,23.24,5.11Zm0,34.39A16.45,16.45,0,1,1,39.69,23.06,16.46,16.46,0,0,1,23.24,39.5Z"
         fill="#2c5967" />
      <polygon
         points="27.32 32.37 26.27 31.31 23.99 33.59 23.99 12.71 26.27 14.99 27.32 13.93 23.24 9.85 19.16 13.93 20.22 14.99 22.5 12.71 22.5 33.59 20.22 31.31 19.16 32.37 23.24 36.45 27.32 32.37"
         fill="#2c5967" />
      <polygon
         points="18.35 27.14 22.43 23.06 18.35 18.98 17.29 20.03 19.57 22.31 9.97 22.31 9.97 23.8 19.57 23.8 17.29 26.08 18.35 27.14"
         fill="#2c5967" />
      <polygon
         points="36.51 22.31 26.92 22.31 29.19 20.03 28.14 18.98 24.05 23.06 28.14 27.14 29.19 26.08 26.92 23.8 36.51 23.8 36.51 22.31"
         fill="#2c5967" />
   </g>
</svg>