<?xml version="1.0" encoding="utf-8"?>
<!-- Generator: Adobe Illustrator 24.0.2, SVG Export Plug-In . SVG Version: 6.00 Build 0)  -->
<svg version="1.1" id="Layer_1" xmlns="http://www.w3.org/2000/svg" xmlns:xlink="http://www.w3.org/1999/xlink" x="0px" y="0px"
	 viewBox="0 0 42 42" style="enable-background:new 0 0 42 42;" xml:space="preserve">
<style type="text/css">
	.st0{fill:#FFFFFF;}
	.st1{fill:#2C5967;}
</style>
<g>
	<g>
		<circle class="st0" cx="21" cy="21" r="20.5"/>
		<path class="st0" d="M21,1c11.03,0,20,8.97,20,20s-8.97,20-20,20S1,32.03,1,21S9.97,1,21,1 M21,0C9.42,0,0,9.42,0,21
			s9.42,21,21,21s21-9.42,21-21S32.58,0,21,0L21,0z"/>
	</g>
	<g>
		<path class="st1" d="M21,1C9.97,1,1,9.97,1,21s8.97,20,20,20s20-8.97,20-20S32.03,1,21,1z M21,39.32
			c-9.82,0-17.85-7.76-18.3-17.47h10.82l-2.3,2.31l1.19,1.19L16.74,21l-4.32-4.34l-1.19,1.19l2.3,2.31H2.7
			C3.15,10.45,11.18,2.68,21,2.68s17.85,7.76,18.3,17.47H28.01l2.2-2.21l-1.19-1.19l-4.11,4.13l4.32,4.34l1.19-1.19l-2.2-2.21H39.3
			C38.85,31.55,30.82,39.32,21,39.32z"/>
		<polygon class="st1" points="21.63,32.68 21.63,9.32 23.96,11.64 25.15,10.45 20.81,6.13 16.47,10.45 17.66,11.64 19.95,9.37 
			19.95,32.63 17.66,30.36 16.47,31.55 20.81,35.87 25.15,31.55 23.96,30.36 		"/>
	</g>
</g>
</svg>
