<?xml version="1.0" encoding="utf-8"?>
<!-- Generator: Adobe Illustrator 24.0.2, SVG Export Plug-In . SVG Version: 6.00 Build 0)  -->
<svg version="1.1" id="Layer_1" xmlns="http://www.w3.org/2000/svg" xmlns:xlink="http://www.w3.org/1999/xlink" x="0px" y="0px"
	 viewBox="0 0 42.51 42.42" style="enable-background:new 0 0 42.51 42.42;" xml:space="preserve">
<style type="text/css">
	.st0{fill:#FFFFFF;}
	.st1{fill:#2C5967;}
</style>
<g>
	<g>
		<g>
			<path class="st0" d="M21.26,37.81c-1.97,2.33-4.8,3.66-7.86,3.66c-5.68,0-10.31-4.62-10.31-10.31c0-3.06,1.33-5.89,3.66-7.86
				L0.5,17.06V0.5h16.65L41.8,25.06L25.15,41.71L21.26,37.81z"/>
			<path class="st0" d="M16.94,1l24.15,24.06L25.15,41l-3.94-3.94c-1.79,2.37-4.62,3.91-7.82,3.91c-5.41,0-9.81-4.4-9.81-9.81
				c0-3.19,1.54-6.02,3.91-7.82L1,16.85V1H16.94 M17.36,0h-0.41H1H0v1v15.85v0.41l0.29,0.29l5.73,5.73
				c-2.19,2.04-3.43,4.86-3.43,7.88c0,5.96,4.85,10.81,10.81,10.81c3.02,0,5.84-1.24,7.88-3.43l3.17,3.17l0.71,0.71l0.71-0.71
				L41.8,25.76l0.71-0.71l-0.71-0.71L17.65,0.29L17.36,0L17.36,0z"/>
		</g>
		<g>
			<path class="st1" d="M41.09,25.06L16.94,1H1v15.85l5.7,5.7c0.4-0.31,0.81-0.59,1.25-0.84l-5.47-5.47V2.48h13.85L39,25.06
				L25.15,38.91l-2.3-2.3c-0.25,0.44-0.53,0.85-0.84,1.25L25.15,41L41.09,25.06z"/>
			<path class="st1" d="M14.69,11.18c0-1.94-1.58-3.52-3.52-3.52s-3.52,1.58-3.52,3.52s1.58,3.52,3.52,3.52S14.69,13.12,14.69,11.18
				z M11.18,13.21c-1.12,0-2.04-0.91-2.04-2.04s0.91-2.04,2.04-2.04s2.04,0.91,2.04,2.04S12.3,13.21,11.18,13.21z"/>
			<path class="st1" d="M23.21,31.16c0-5.41-4.4-9.81-9.81-9.81s-9.81,4.4-9.81,9.81s4.4,9.81,9.81,9.81S23.21,36.57,23.21,31.16z
				 M5.07,31.16c0-4.59,3.74-8.33,8.33-8.33s8.33,3.74,8.33,8.33s-3.74,8.33-8.33,8.33S5.07,35.75,5.07,31.16z"/>
			<polygon class="st1" points="17.84,31.9 17.84,30.42 14.14,30.42 14.14,26.72 12.66,26.72 12.66,30.42 8.96,30.42 8.96,31.9 
				12.66,31.9 12.66,35.6 14.14,35.6 14.14,31.9 			"/>
		</g>
	</g>
</g>
</svg>
