<?xml version="1.0" encoding="utf-8"?>
<!-- Generator: Adobe Illustrator 24.0.2, SVG Export Plug-In . SVG Version: 6.00 Build 0)  -->
<svg version="1.1" id="Layer_1" xmlns="http://www.w3.org/2000/svg" xmlns:xlink="http://www.w3.org/1999/xlink" x="0px" y="0px"
	 viewBox="0 0 42 42" style="enable-background:new 0 0 42 42;" xml:space="preserve">
<style type="text/css">
	.st0{fill:#FFFFFF;}
	.st1{fill:#2C5967;}
</style>
<g>
	<g>
		<path class="st0" d="M2.67,41.5c-1.19,0-2.17-0.97-2.17-2.17V2.67c0-1.19,0.97-2.17,2.17-2.17h36.67c1.19,0,2.17,0.97,2.17,2.17
			v36.67c0,1.19-0.97,2.17-2.17,2.17H2.67z"/>
		<path class="st0" d="M39.33,1C40.25,1,41,1.75,41,2.67v36.67c0,0.92-0.75,1.67-1.67,1.67H2.67C1.75,41,1,40.25,1,39.33V2.67
			C1,1.75,1.75,1,2.67,1H39.33 M39.33,0H2.67C1.2,0,0,1.2,0,2.67v36.67C0,40.8,1.2,42,2.67,42h36.67C40.8,42,42,40.8,42,39.33V2.67
			C42,1.2,40.8,0,39.33,0L39.33,0z"/>
	</g>
	<g>
		<path class="st1" d="M39.33,1H2.67C1.75,1,1,1.75,1,2.67v36.67C1,40.25,1.75,41,2.67,41h36.67c0.92,0,1.67-0.75,1.67-1.67V2.67
			C41,1.75,40.25,1,39.33,1z M39.52,39.33c0,0.1-0.08,0.19-0.19,0.19H2.67c-0.1,0-0.19-0.08-0.19-0.19V2.67
			c0-0.1,0.08-0.19,0.19-0.19h36.67c0.1,0,0.19,0.08,0.19,0.19V39.33z"/>
		<path class="st1" d="M6.56,35.44h29.07v-8.89H6.56V35.44z M8.04,28.04h26.11v5.93H8.04V28.04z"/>
		<circle class="st1" cx="30.81" cy="31" r="1.11"/>
		<path class="st1" d="M15.44,6.56H6.56v8.89h8.89V6.56z M13.96,13.96H8.04V8.04h5.93V13.96z"/>
		<path class="st1" d="M25.44,6.56h-8.89v8.89h8.89V6.56z M23.96,13.96h-5.93V8.04h5.93V13.96z"/>
		<path class="st1" d="M15.44,16.56H6.56v8.89h8.89V16.56z M13.96,23.96H8.04v-5.93h5.93V23.96z"/>
		<path class="st1" d="M25.44,16.56h-8.89v8.89h8.89V16.56z M23.96,23.96h-5.93v-5.93h5.93V23.96z"/>
		<path class="st1" d="M35.44,6.56h-8.89v8.89h8.89V6.56z M33.96,13.96h-5.93V8.04h5.93V13.96z"/>
		<path class="st1" d="M35.44,16.56h-8.89v8.89h8.89V16.56z M33.96,23.96h-5.93v-5.93h5.93V23.96z"/>
	</g>
</g>
</svg>
