<?xml version="1.0" encoding="utf-8"?>
<!-- Generator: Adobe Illustrator 24.0.2, SVG Export Plug-In . SVG Version: 6.00 Build 0)  -->
<svg version="1.1" id="Layer_1" xmlns="http://www.w3.org/2000/svg" xmlns:xlink="http://www.w3.org/1999/xlink" x="0px" y="0px"
	 viewBox="0 0 43.38 42.12" style="enable-background:new 0 0 43.38 42.12;" xml:space="preserve">
<style type="text/css">
	.st0{fill:#FFFFFF;}
	.st1{fill:none;}
	.st2{fill:#2C5967;}
</style>
<g>
	<g>
		<g>
			<path class="st0" d="M28.13,41.28c-6.4-3.2-10.25-8.21-10.56-13.73l0-5.57H0.54l0.1-1.33c0.26-3.52,2.29-6.61,5.42-8.26
				c0.73-0.38,1.24-1.08,1.41-1.91c0.5-2.46,2.17-4.53,4.46-5.54c0.97-0.43,2.05-0.65,3.11-0.65c0.24,0,0.48,0.01,0.72,0.03
				c0.09,0.01,0.18,0.01,0.27,0.01c0.73,0,1.39-0.28,1.87-0.8c1.8-1.94,4.34-3.05,6.98-3.05c3.64,0,6.9,2.02,8.52,5.28
				c0.36,0.73,1.04,1.25,1.86,1.43c1.09,0.24,2.13,0.67,3.08,1.27c4.32,2.72,5.8,8.36,3.38,12.85l-0.35,0.65h-1.57l0,5.54
				c-0.31,5.55-4.17,10.55-10.57,13.76l-0.55,0.28L28.13,41.28z"/>
			<path class="st0" d="M24.88,1c3.44,0,6.54,1.92,8.07,5c0.43,0.87,1.23,1.48,2.2,1.7c1.04,0.23,2.02,0.63,2.92,1.2
				c4.1,2.58,5.51,7.93,3.21,12.19l-0.21,0.39h-1.77l0,6.04c-0.3,5.34-4.05,10.19-10.29,13.31L28.69,41l-0.33-0.17
				c-6.23-3.12-9.98-7.97-10.29-13.31l0-0.04v-6H1.08l0.06-0.79c0.25-3.35,2.18-6.28,5.16-7.85c0.86-0.45,1.47-1.27,1.67-2.25
				c0.47-2.3,2.03-4.24,4.17-5.18c0.92-0.4,1.91-0.61,2.91-0.61c0.23,0,0.45,0.01,0.68,0.03c0.11,0.01,0.21,0.01,0.31,0.01
				c0.86,0,1.66-0.34,2.23-0.96C19.96,2.05,22.38,1,24.88,1 M24.88,0c-2.78,0-5.46,1.17-7.35,3.21c-0.38,0.41-0.91,0.63-1.5,0.63
				c-0.07,0-0.15,0-0.22-0.01C15.56,3.81,15.3,3.8,15.04,3.8c-1.13,0-2.27,0.24-3.31,0.7c-2.44,1.07-4.22,3.28-4.75,5.9
				c-0.14,0.68-0.56,1.25-1.15,1.56c-3.29,1.73-5.41,4.97-5.69,8.66l-0.06,0.79L0,22.49h1.08h15.99v5v0.01l0,0.06
				c0.33,5.73,4.28,10.89,10.84,14.18l0.33,0.17l0.45,0.22l0.45-0.22l0.33-0.17c6.56-3.29,10.52-8.44,10.84-14.15l0-0.03v-0.03
				l0-5.04h0.77h0.6l0.28-0.53l0.21-0.39c2.54-4.72,0.98-10.65-3.56-13.51c-1-0.63-2.09-1.08-3.24-1.33
				c-0.67-0.15-1.23-0.57-1.52-1.17C32.14,2.13,28.71,0,24.88,0L24.88,0z"/>
		</g>
		<g>
			<path class="st1" d="M15.58,6.3c-0.97-0.09-1.95,0.07-2.85,0.46c-1.37,0.6-2.44,1.72-3,3.09h7.61V6.16h-0.05
				C16.73,6.31,16.16,6.36,15.58,6.3z"/>
			<path class="st1" d="M6.98,14.15c-0.48,0.25-0.92,0.54-1.33,0.87h6.32v-3.69H9.29C8.93,12.55,8.1,13.56,6.98,14.15z"/>
			<path class="st1" d="M2.71,20.01h4.1V16.5H4.22C3.45,17.52,2.93,18.72,2.71,20.01z"/>
			<path class="st1" d="M29.33,22.59h-1.48v-7.61l-8.31,3.56v8.91c0.26,4.45,3.27,8.57,8.31,11.43V24.44h1.48v14.55
				c5.15-2.87,8.23-7.03,8.5-11.53v-8.91l-8.5-3.64V22.59z"/>
			<path class="st1" d="M31.63,6.66c-0.09-0.17-0.18-0.34-0.28-0.51h-2.2v3.69h7.61c-0.61-0.32-1.25-0.56-1.92-0.71
				C33.43,8.83,32.26,7.93,31.63,6.66z"/>
			<rect x="18.81" y="6.16" class="st1" width="8.86" height="3.69"/>
			<path class="st1" d="M22.5,2.87c-1.1,0.37-2.11,0.98-2.94,1.81h2.94V2.87z"/>
			<path class="st1" d="M24.88,2.48c-0.3,0-0.6,0.02-0.9,0.06v2.14h6.22C28.82,3.29,26.92,2.48,24.88,2.48z"/>
			<path class="st2" d="M38.08,8.91c-0.9-0.57-1.89-0.97-2.92-1.2c-0.97-0.21-1.77-0.83-2.2-1.7c-1.53-3.09-4.63-5-8.07-5
				c-2.5,0-4.91,1.05-6.62,2.89c-0.64,0.69-1.57,1.03-2.55,0.94c-1.22-0.12-2.46,0.08-3.58,0.58c-2.15,0.94-3.71,2.88-4.17,5.18
				c-0.2,0.98-0.81,1.8-1.67,2.25c-2.98,1.57-4.91,4.5-5.16,7.85l-0.06,0.79h15.88v-1.48H8.28V16.5h9.05v0.18l3.88-1.66h-7.76v-3.69
				h9.05v3.14l1.48-0.63v-2.51h8.68v2.19l1.48,0.63v-2.82h4.59c1,1.04,1.68,2.32,1.99,3.69h-4.55l3.45,1.48h1.29
				c0.03,0.99-0.13,1.99-0.49,2.95l0,2.04h0.66l0.21-0.39C43.58,16.84,42.17,11.48,38.08,8.91z M6.8,20.01h-4.1
				c0.22-1.29,0.74-2.49,1.51-3.51H6.8V20.01z M11.97,15.02H5.65c0.41-0.33,0.85-0.62,1.33-0.87c1.12-0.59,1.95-1.6,2.32-2.82h2.68
				V15.02z M17.33,9.85H9.72c0.56-1.37,1.63-2.48,3-3.09c0.9-0.39,1.88-0.55,2.85-0.46c0.59,0.06,1.16,0,1.7-0.15h0.05V9.85z
				 M23.98,2.53c0.3-0.04,0.6-0.06,0.9-0.06c2.04,0,3.94,0.81,5.32,2.2h-6.22V2.53z M22.5,2.87v1.81h-2.94
				C20.39,3.85,21.4,3.23,22.5,2.87z M27.67,9.85h-8.86V6.16h8.86V9.85z M29.15,9.85V6.16h2.2c0.1,0.16,0.19,0.33,0.28,0.51
				c0.63,1.27,1.8,2.17,3.2,2.48c0.67,0.15,1.31,0.39,1.92,0.71H29.15z"/>
			<path class="st2" d="M18.07,17.57v9.91l0,0.04c0.3,5.34,4.05,10.19,10.29,13.31L28.69,41l0.33-0.17
				c6.24-3.12,9.99-7.97,10.29-13.31l0-9.95l-10.62-4.55L18.07,17.57z M37.83,27.46c-0.26,4.51-3.34,8.66-8.5,11.53V24.44h-1.48
				v14.45c-5.04-2.87-8.05-6.98-8.31-11.43v-8.91l8.31-3.56v7.61h1.48v-7.69l8.5,3.64V27.46z"/>
		</g>
	</g>
</g>
</svg>
