<svg width="44" height="44" viewBox="0 0 44 44" fill="none" xmlns="http://www.w3.org/2000/svg">
    <path
        d="M18 8.63756C19.2787 8.23067 20.6154 8 22 8C26 8 35.2 10.7954 40 21.977C39.184 23.7226 37.8136 26.0544 36 28.3146M33.7227 30.8478C30.5684 33.9596 26.5417 36.3661 22 35.9539C18.3333 35.9539 9.6 33.1585 4 21.977C5.3385 19.3044 8.16876 15.0987 12 11.9982M26.2426 26.2427C23.8995 28.5859 20.1005 28.5859 17.7573 26.2427C15.4142 23.8996 15.4142 20.1006 17.7573 17.7574M2 2L42 42"
        stroke="#161513" stroke-width="4" />
</svg>