<?xml version="1.0" encoding="utf-8"?>
<!-- Generator: Adobe Illustrator 24.0.2, SVG Export Plug-In . SVG Version: 6.00 Build 0)  -->
<svg version="1.1" id="Layer_1" xmlns="http://www.w3.org/2000/svg" xmlns:xlink="http://www.w3.org/1999/xlink" x="0px" y="0px"
	 viewBox="0 0 46.67 42.12" style="enable-background:new 0 0 46.67 42.12;" xml:space="preserve">
<style type="text/css">
	.st0{fill:#FFFFFF;}
	.st1{fill:none;}
	.st2{fill:#2C5967;}
</style>
<g>
	<g>
		<g>
			<path class="st0" d="M22.85,41.28c-6.86-3.44-10.99-8.8-11.33-14.72l0-3.01H0.54l0.1-1.33c0.28-3.78,2.45-7.09,5.82-8.86
				c0.82-0.43,1.39-1.19,1.57-2.08c0.52-2.65,2.31-4.89,4.78-5.97c1.04-0.46,2.19-0.7,3.32-0.7c0.26,0,0.52,0.01,0.77,0.04
				c0.1,0.01,0.2,0.01,0.29,0.01c0.82,0,1.57-0.32,2.11-0.9c1.92-2.07,4.65-3.26,7.47-3.26c3.89,0,7.38,2.16,9.12,5.64
				c0.41,0.83,1.18,1.42,2.09,1.62c1.17,0.26,2.28,0.72,3.31,1.36c4.63,2.91,6.22,8.97,3.63,13.78l-0.35,0.65h-9.28v2.98
				c-0.34,5.94-4.47,11.31-11.34,14.75l-0.55,0.28L22.85,41.28z"/>
			<path class="st0" d="M26.78,1c3.7,0,7.02,2.06,8.68,5.37c0.48,0.96,1.37,1.65,2.43,1.89C39,8.5,40.06,8.94,41.03,9.55
				c4.41,2.78,5.92,8.54,3.45,13.12l-0.21,0.39h-9.48l0,3.48c-0.33,5.73-4.36,10.94-11.06,14.3L23.4,41l-0.33-0.17
				c-6.7-3.36-10.73-8.57-11.06-14.3l0-0.04v-3.44H1.08l0.06-0.79c0.27-3.6,2.34-6.76,5.55-8.45c0.96-0.5,1.62-1.39,1.83-2.43
				C9,8.89,10.68,6.79,13,5.77c0.99-0.43,2.05-0.66,3.12-0.66c0.24,0,0.48,0.01,0.73,0.03c0.11,0.01,0.23,0.02,0.34,0.02
				c0.95,0,1.84-0.38,2.48-1.06C21.5,2.13,24.09,1,26.78,1 M26.78,0c-2.96,0-5.82,1.25-7.84,3.42c-0.45,0.48-1.07,0.74-1.74,0.74
				c-0.08,0-0.16,0-0.25-0.01c-0.27-0.03-0.55-0.04-0.82-0.04c-1.2,0-2.42,0.26-3.52,0.74c-2.62,1.15-4.52,3.52-5.07,6.33
				c-0.15,0.74-0.62,1.38-1.31,1.74c-3.51,1.85-5.79,5.31-6.08,9.26l-0.06,0.79L0,24.05h1.08h9.94v2.44v0.01l0,0.06
				c0.35,6.13,4.58,11.65,11.61,15.17l0.33,0.17l0.45,0.22l0.45-0.22l0.33-0.17c7.03-3.52,11.26-9.04,11.61-15.14l0-0.03v-0.03
				l0-2.48h8.48h0.6l0.28-0.53l0.21-0.39c2.72-5.04,1.05-11.38-3.8-14.44c-1.07-0.67-2.24-1.15-3.46-1.43
				c-0.77-0.17-1.41-0.66-1.75-1.36C34.52,2.27,30.86,0,26.78,0L26.78,0z"/>
		</g>
		<g>
			<path class="st1" d="M24.14,14.1v7.16h-1.48V14.1v-1.21l-9.17,3.93v9.65c0.29,4.88,3.61,9.37,9.17,12.47v-1.28V23.19h1.48v14.47
				v1.28c5.56-3.1,8.89-7.6,9.17-12.47v-9.65l-9.17-3.93V14.1z"/>
			<path class="st2" d="M41.03,9.55C40.06,8.94,39,8.5,37.88,8.25c-1.06-0.23-1.95-0.92-2.43-1.89C33.8,3.06,30.48,1,26.78,1
				c-2.69,0-5.28,1.13-7.11,3.1c-0.71,0.77-1.74,1.15-2.82,1.05C15.54,5.02,14.21,5.24,13,5.77c-2.32,1.02-4,3.12-4.49,5.61
				c-0.2,1.04-0.87,1.93-1.83,2.43c-3.21,1.69-5.28,4.84-5.55,8.45l-0.06,0.79h9.83v-1.48H2.7c0.45-2.76,2.15-5.13,4.67-6.46
				c1.35-0.71,2.3-1.97,2.59-3.45c0.4-2.02,1.76-3.72,3.64-4.54c0.98-0.43,2.06-0.6,3.11-0.5c1.54,0.15,3.01-0.41,4.04-1.51
				c1.55-1.67,3.75-2.63,6.02-2.63c3.13,0,5.95,1.74,7.35,4.55c0.68,1.36,1.93,2.34,3.43,2.67c0.95,0.21,1.85,0.58,2.68,1.1
				c3.63,2.28,4.95,6.95,3.14,10.78h-7.41v1.48h8.31l0.21-0.39C46.96,18.09,45.44,12.32,41.03,9.55z"/>
			<path class="st2" d="M12.01,15.85v10.65l0,0.04c0.33,5.73,4.36,10.94,11.06,14.3L23.4,41l0.33-0.17
				c6.7-3.36,10.73-8.57,11.06-14.3l0-10.69L23.4,10.97L12.01,15.85z M33.32,26.47c-0.29,4.87-3.61,9.37-9.17,12.47v-1.28V23.19
				h-1.48v14.47v1.28c-5.56-3.1-8.89-7.6-9.17-12.47v-9.65l9.17-3.93v1.21v7.16h1.48V14.1v-1.21l9.17,3.93V26.47z"/>
		</g>
	</g>
</g>
</svg>
