<?xml version="1.0" encoding="utf-8"?>
<!-- Generator: Adobe Illustrator 24.0.2, SVG Export Plug-In . SVG Version: 6.00 Build 0)  -->
<svg version="1.1" id="Layer_1" xmlns="http://www.w3.org/2000/svg" xmlns:xlink="http://www.w3.org/1999/xlink" x="0px" y="0px"
	 viewBox="0 0 43.14 44.09" style="enable-background:new 0 0 43.14 44.09;" xml:space="preserve">
<style type="text/css">
	.st0{fill:#FFFFFF;}
	.st1{fill:#2C5967;}
</style>
<g>
	<g>
		<polygon class="st0" points="30.6,39.45 23.52,43.17 24.87,35.28 21.85,32.34 0.5,32.34 0.5,6.73 13.42,6.73 13.36,6.67 
			18.63,5.9 20.98,1.13 23.34,5.9 28.61,6.67 24.8,10.39 25.7,15.63 20.98,13.16 16.27,15.63 17.17,10.39 15.96,9.21 2.98,9.21 
			2.98,29.86 19.31,29.86 19.14,29.7 27.06,28.55 30.6,21.37 34.15,28.55 42.07,29.7 36.34,35.28 37.69,43.17 		"/>
		<path class="st0" d="M20.98,2.26l2.02,4.1l4.53,0.66l-3.28,3.19l0.77,4.51l-4.05-2.13l-4.05,2.13l0.77-4.51l-1.54-1.5H2.48v21.65
			h18.06l-0.32-0.31L27.39,29l3.21-6.5l3.21,6.5l7.18,1.04l-5.19,5.06l1.23,7.15l-6.42-3.38l-6.42,3.38l1.23-7.15l-3.35-3.27H1V7.23
			h13.65l-0.22-0.21l4.53-0.66L20.98,2.26 M20.98,0l-0.9,1.82l-1.79,3.63l-4.01,0.58l-1.39,0.2H1H0v1v24.61v1h1h20.65l2.69,2.62
			l-1.14,6.63l-0.34,2l1.79-0.94l5.96-3.13l5.96,3.13l1.79,0.94l-0.34-2l-1.14-6.63l4.82-4.7l1.45-1.41l-2.01-0.29l-6.66-0.97
			l-2.98-6.03l-0.9-1.82l-0.9,1.82l-2.98,6.03l-6.66,0.97l-2.01,0.29l0.01,0.01H3.48V9.71h12.28l0.87,0.85l-0.68,3.99l-0.34,2
			l1.79-0.94l3.58-1.88l3.58,1.88l1.79,0.94l-0.34-2l-0.68-3.99l2.9-2.83l1.45-1.41l-2.01-0.29l-4.01-0.58l-1.79-3.63L20.98,0
			L20.98,0z"/>
	</g>
	<g>
		<polygon class="st1" points="2.48,30.36 2.48,8.71 14.58,8.71 13.06,7.23 1,7.23 1,31.84 20.46,31.84 18.95,30.36 		"/>
		<path class="st1" d="M40.99,30.05L33.81,29l-3.21-6.5L27.39,29l-7.18,1.04l5.19,5.06l-1.23,7.15l6.42-3.38l6.42,3.38l-1.23-7.15
			L40.99,30.05z M26.15,39.55L27,34.59l-3.6-3.51l4.98-0.72l2.23-4.51l2.23,4.51l4.98,0.72l-3.6,3.51l0.85,4.96l-4.45-2.34
			L26.15,39.55z"/>
		<path class="st1" d="M17.71,10.21l-0.77,4.51l4.05-2.13l4.05,2.13l-0.77-4.51l3.28-3.19l-4.53-0.66l-2.02-4.1l-2.02,4.1
			l-4.53,0.66L17.71,10.21z M17.61,8.05l2.33-0.34l1.04-2.11l1.04,2.11l2.33,0.34L22.67,9.7l0.4,2.32l-2.08-1.1l-2.08,1.1l0.4-2.32
			L17.61,8.05z"/>
	</g>
</g>
</svg>
