<?xml version="1.0" encoding="utf-8"?>
<!-- Generator: Adobe Illustrator 24.0.2, SVG Export Plug-In . SVG Version: 6.00 Build 0)  -->
<svg version="1.1" id="Layer_1" xmlns="http://www.w3.org/2000/svg" xmlns:xlink="http://www.w3.org/1999/xlink" x="0px" y="0px"
	 viewBox="0 0 27.74 42" style="enable-background:new 0 0 27.74 42;" xml:space="preserve">
<style type="text/css">
	.st0{fill:#FFFFFF;}
	.st1{fill:#2C5967;}
</style>
<g>
	<g>
		<path class="st0" d="M13.91,41.5c-5.64,0-10.22-4.59-10.22-10.22c0-5.16,3.91-9.53,8.99-10.14v-3.12l-1.1,1.09l-1.75-1.76
			l2.81-2.8H0.54l0.1-1.33c0.17-2.31,1.5-4.34,3.55-5.42C4.5,7.63,4.72,7.34,4.78,7c0.33-1.67,1.45-3.07,3-3.75
			c0.65-0.29,1.37-0.44,2.08-0.44c0.16,0,0.32,0.01,0.48,0.02c0.04,0,0.07,0.01,0.11,0.01c0.31,0,0.58-0.12,0.78-0.33
			c1.18-1.28,2.85-2.01,4.59-2.01c2.39,0,4.53,1.33,5.6,3.47c0.16,0.32,0.45,0.54,0.8,0.62c0.72,0.16,1.4,0.44,2.03,0.84
			c2.83,1.79,3.81,5.51,2.22,8.46l-0.35,0.65H15.19l2.81,2.8l-1.75,1.76l-1.1-1.09v3.12c5.07,0.62,8.97,4.99,8.97,10.14
			C24.13,36.91,19.55,41.5,13.91,41.5z"/>
		<path class="st0" d="M15.83,1c2.2,0,4.17,1.23,5.15,3.2c0.23,0.45,0.64,0.78,1.14,0.89c0.66,0.15,1.29,0.41,1.87,0.77
			c2.61,1.65,3.51,5.08,2.05,7.8l-0.21,0.39H14.34c-0.13,0-0.25-0.01-0.38-0.02l3.34,3.32l-1.05,1.05l-1.59-1.59v3.44v1.33
			c5.01,0.38,8.98,4.58,8.98,9.69c0,5.36-4.36,9.72-9.72,9.72c-5.36,0-9.72-4.36-9.72-9.72c0-5.11,3.97-9.31,8.99-9.69v-1.33v-3.44
			l-1.59,1.59l-1.05-1.05l3.32-3.3H4.39H1.08l0.06-0.8c0.16-2.14,1.39-4.01,3.28-5.01C4.87,8,5.18,7.59,5.27,7.1
			c0.3-1.51,1.31-2.77,2.71-3.39c0.59-0.26,1.24-0.4,1.88-0.4c0.15,0,0.29,0.01,0.44,0.02c0.05,0,0.11,0.01,0.16,0.01
			c0.44,0,0.85-0.17,1.15-0.49C12.69,1.67,14.23,1,15.83,1 M15.83,0c-1.87,0-3.68,0.79-4.96,2.17c-0.1,0.11-0.25,0.17-0.42,0.17
			c-0.02,0-0.04,0-0.07,0c-0.18-0.02-0.35-0.03-0.53-0.03c-0.78,0-1.57,0.17-2.29,0.48c-1.7,0.75-2.93,2.29-3.28,4.11
			C4.26,7.1,4.13,7.26,3.95,7.36c-2.2,1.16-3.63,3.34-3.81,5.82l-0.06,0.8L0,15.05h1.08h3.32h7.04l-1.6,1.59l-0.71,0.71l0.71,0.71
			l1.05,1.05l0.71,0.71l0.6-0.59v1.04v0.44c-5.11,0.84-8.99,5.32-8.99,10.58C3.19,37.19,8,42,13.91,42
			c5.91,0,10.72-4.81,10.72-10.72c0-5.26-3.87-9.73-8.98-10.58v-0.44v-1.04l0.6,0.59l0.71-0.71l1.05-1.05l0.71-0.71L18,16.64
			l-1.6-1.59h9.43h0.6l0.28-0.53l0.21-0.39c1.71-3.18,0.66-7.19-2.4-9.12c-0.68-0.43-1.41-0.73-2.18-0.9
			c-0.2-0.04-0.37-0.18-0.46-0.36C20.73,1.44,18.41,0,15.83,0L15.83,0z"/>
	</g>
	<g>
		<path class="st1" d="M23.99,5.86c-0.58-0.36-1.21-0.62-1.87-0.77c-0.5-0.11-0.91-0.43-1.14-0.89C20,2.23,18.03,1,15.83,1
			c-1.6,0-3.14,0.67-4.22,1.85C11.28,3.2,10.8,3.38,10.3,3.33C9.51,3.26,8.71,3.39,7.98,3.71C6.58,4.33,5.57,5.59,5.27,7.1
			C5.18,7.59,4.87,8,4.42,8.24c-1.9,1-3.12,2.87-3.28,5.01l-0.06,0.8h3.32v0h7c-0.49-0.41-0.89-0.91-1.18-1.48H4.84v0h-2.1
			c0.32-1.29,1.17-2.38,2.37-3.02C5.96,9.1,6.55,8.31,6.73,7.38c0.2-1.03,0.89-1.9,1.85-2.32c0.5-0.22,1.04-0.31,1.58-0.26
			c0.97,0.09,1.89-0.26,2.54-0.95c0.81-0.87,1.95-1.37,3.14-1.37c1.63,0,3.1,0.91,3.83,2.38c0.43,0.86,1.21,1.47,2.15,1.67
			c0.49,0.11,0.96,0.3,1.4,0.58c1.84,1.16,2.54,3.49,1.72,5.46H14.34c-1.29,0-2.35-1.07-2.35-2.39h-1.48c0,1.98,1.48,3.61,3.37,3.84
			l-3.35,3.33l1.05,1.05l2.33-2.32l2.33,2.32l1.05-1.05l-3.34-3.32c0.12,0.01,0.25,0.02,0.38,0.02h11.49l0.21-0.39
			C27.51,10.93,26.61,7.51,23.99,5.86z"/>
		<rect x="13.18" y="17.67" class="st1" width="1.48" height="1.48"/>
		<path class="st1" d="M14.66,21.59v-1.33h-1.48v1.33c-5.02,0.38-8.99,4.58-8.99,9.69c0,5.36,4.36,9.72,9.72,9.72
			s9.72-4.36,9.72-9.72C23.63,26.17,19.67,21.97,14.66,21.59z M13.91,39.52c-4.26,0-7.78-3.25-8.2-7.41h3.42l-1.24,1.25l1.05,1.04
			l2.93-2.94l-2.93-2.94l-1.05,1.04l1.06,1.06H5.7c0.33-4.24,3.89-7.59,8.21-7.59s7.88,3.35,8.21,7.59h-3.44l0.99-1l-1.05-1.04
			l-2.79,2.81l2.93,2.94l1.05-1.04l-1.18-1.18h3.47C21.69,36.27,18.17,39.52,13.91,39.52z"/>
		<polygon class="st1" points="14.55,35.55 14.55,27.01 15.72,28.16 16.76,27.12 13.82,24.19 10.89,27.12 11.93,28.16 13.07,27.03 
			13.07,35.53 11.93,34.39 10.89,35.44 13.82,38.37 16.76,35.44 15.72,34.39 		"/>
	</g>
</g>
</svg>
