<svg id="Layer_1" data-name="Layer 1" xmlns="http://www.w3.org/2000/svg" viewBox="0 0 47.76 42">
   <title>Oracle Digital Assistant (ODA)</title>
   <g>
      <polygon points="25.05 41.5 25.05 21.41 47.26 21.41 47.26 37.56 32.15 37.56 29.11 41.5 25.05 41.5" fill="#fff" />
      <path d="M46.76,21.91V37.06H31.9l-3,3.94H25.55V21.91H46.76m1-1H24.55V42h4.81l.3-.39,2.73-3.55H47.76V20.91Z"
         fill="#fff" />
      <path d="M20,27.86,14.4,20.59H10.55A10,10,0,1,1,10.55.5H28.42a10,10,0,1,1,0,20.09H24.23v7.27Z" fill="#fff" />
      <path
         d="M28.42,1a9.55,9.55,0,1,1,0,19.09H23.73v7.27h-3.5l-5.58-7.27h-4.1A9.55,9.55,0,1,1,10.55,1H28.42m0-1H10.55a10.55,10.55,0,1,0,0,21.09h3.6L19.44,28l.3.39h5V21.09h3.69A10.55,10.55,0,1,0,28.42,0Z"
         fill="#fff" />
      <rect x="29.79" y="26.15" width="12.73" height="2.42" fill="#2c5967" />
      <rect x="29.79" y="30.39" width="12.73" height="2.42" fill="#2c5967" />
      <path d="M25.55,21.91V41h3.32l3-3.94H46.76V21.91ZM44.33,34.64H30.71L28,38.19V24.33H44.33Z" fill="#2c5967" />
      <path
         d="M38,10.55A9.56,9.56,0,0,0,28.42,1H10.55a9.55,9.55,0,1,0,0,19.09h4.1l5.58,7.27h3.5V20.09h4.69A9.55,9.55,0,0,0,38,10.55ZM21.3,17.67v7.11l-5.46-7.11H10.55a7.13,7.13,0,1,1,0-14.25H28.42a7.13,7.13,0,1,1,0,14.25Z"
         fill="#2c5967" />
      <path
         d="M33.73,10.55a5.31,5.31,0,1,0-5.31,5.3A5.31,5.31,0,0,0,33.73,10.55Zm-8.18,0a2.88,2.88,0,1,1,2.87,2.87A2.88,2.88,0,0,1,25.55,10.55Z"
         fill="#2c5967" />
      <path
         d="M10.55,5.24a5.31,5.31,0,1,0,5.3,5.31A5.31,5.31,0,0,0,10.55,5.24Zm0,8.18a2.88,2.88,0,1,1,2.87-2.87A2.88,2.88,0,0,1,10.55,13.42Z"
         fill="#2c5967" />
   </g>
</svg>