<?xml version="1.0" encoding="utf-8"?>
<!-- Generator: Adobe Illustrator 24.0.2, SVG Export Plug-In . SVG Version: 6.00 Build 0)  -->
<svg version="1.1" id="Layer_1" xmlns="http://www.w3.org/2000/svg" xmlns:xlink="http://www.w3.org/1999/xlink" x="0px" y="0px"
	 viewBox="0 0 42 42" style="enable-background:new 0 0 42 42;" xml:space="preserve">
<g>
	<g>
		<rect x="0.5" y="0.5" style="fill:#FFFFFF;" width="41" height="41"/>
		<path style="fill:#FFFFFF;" d="M41,1v40H1V1H41 M42,0h-1H1H0v1v40v1h1h40h1v-1V1V0L42,0z"/>
	</g>
	<g>
		<path style="fill:#BB501C;" d="M1,1v40h40V1H1z M39.5,13.8H13.6V2.5h25.9V13.8z M2.5,28.2h9.6v11.4H2.5V28.2z M12.1,2.5v11.4H2.5
			V2.5H12.1z M12.1,15.3v11.4H2.5V15.3H12.1z M13.6,39.5V28.2h25.9v11.4H13.6z M13.6,26.7V15.3h25.9v11.4H13.6z"/>
		<polygon style="fill:#BB501C;" points="15,12.3 16.7,12.3 17.6,10.6 18.5,12.3 20.1,12.3 18.6,9.6 20,7.1 18.4,7.1 17.6,8.7 
			16.7,7.1 15.1,7.1 16.6,9.6 		"/>
		<rect x="20.9" y="11.1" style="fill:#BB501C;" width="1.4" height="1.2"/>
		<polygon style="fill:#BB501C;" points="25,12.3 25.9,10.6 26.8,12.3 28.4,12.3 26.8,9.6 28.3,7.1 26.8,7.1 25.9,8.7 25,7.1 
			23.4,7.1 24.9,9.6 23.4,12.3 		"/>
		<rect x="28.9" y="11.1" style="fill:#BB501C;" width="1.4" height="1.2"/>
		<polygon style="fill:#BB501C;" points="32.7,12.3 33.6,10.6 34.6,12.3 36.1,12.3 34.6,9.6 36,7.1 34.5,7.1 33.6,8.7 32.7,7.1 
			31.2,7.1 32.6,9.6 31.1,12.3 		"/>
		<rect x="36.6" y="11.1" style="fill:#BB501C;" width="1.4" height="1.2"/>
		<polygon style="fill:#BB501C;" points="20,20.1 18.4,20.1 17.6,21.7 16.7,20.1 15.1,20.1 16.6,22.6 15,25.3 16.7,25.3 17.6,23.6 
			18.5,25.3 20.1,25.3 18.6,22.6 		"/>
		<rect x="20.9" y="24" style="fill:#BB501C;" width="1.4" height="1.2"/>
		<polygon style="fill:#BB501C;" points="28.3,20.1 26.8,20.1 25.9,21.7 25,20.1 23.4,20.1 24.9,22.6 23.4,25.3 25,25.3 25.9,23.6 
			26.8,25.3 28.4,25.3 26.8,22.6 		"/>
		<rect x="28.9" y="24" style="fill:#BB501C;" width="1.4" height="1.2"/>
		<polygon style="fill:#BB501C;" points="36,20.1 34.5,20.1 33.6,21.7 32.7,20.1 31.2,20.1 32.6,22.6 31.1,25.3 32.7,25.3 
			33.6,23.6 34.6,25.3 36.1,25.3 34.6,22.6 		"/>
		<rect x="36.6" y="24" style="fill:#BB501C;" width="1.4" height="1.2"/>
		<polygon style="fill:#BB501C;" points="20,32.9 18.4,32.9 17.6,34.4 16.7,32.9 15.1,32.9 16.6,35.3 15,38 16.7,38 17.6,36.3 
			18.5,38 20.1,38 18.6,35.4 		"/>
		<rect x="20.9" y="36.8" style="fill:#BB501C;" width="1.4" height="1.2"/>
		<polygon style="fill:#BB501C;" points="28.3,32.9 26.8,32.9 25.9,34.4 25,32.9 23.4,32.9 24.9,35.3 23.4,38 25,38 25.9,36.3 
			26.8,38 28.4,38 26.8,35.4 		"/>
		<rect x="28.9" y="36.8" style="fill:#BB501C;" width="1.4" height="1.2"/>
		<polygon style="fill:#BB501C;" points="36,32.9 34.5,32.9 33.6,34.4 32.7,32.9 31.2,32.9 32.6,35.3 31.1,38 32.7,38 33.6,36.3 
			34.6,38 36.1,38 34.6,35.4 		"/>
		<rect x="36.6" y="36.8" style="fill:#BB501C;" width="1.4" height="1.2"/>
	</g>
</g>
</svg>
