<?xml version="1.0" encoding="utf-8"?>
<!-- Generator: Adobe Illustrator 24.0.2, SVG Export Plug-In . SVG Version: 6.00 Build 0)  -->
<svg version="1.1" id="Layer_1" xmlns="http://www.w3.org/2000/svg" xmlns:xlink="http://www.w3.org/1999/xlink" x="0px" y="0px"
	 viewBox="0 0 46 42" style="enable-background:new 0 0 46 42;" xml:space="preserve">
<g>
	<path style="fill:#FFFFFF;" d="M22.9,41.5l0-0.5l-0.1,0.5l-0.7,0v0C12.8,41.1,5.1,34,4,24.9l-1.5,1.5l-1.8-1.8L4,21.3
		c0.1-1,0.2-1.9,0.5-2.9c-1.9-1-3.1-3-3.1-5.2c0-3.3,2.6-5.9,5.9-5.9c1.2,0,2.4,0.4,3.4,1.1c3.1-2.6,6.9-4.1,11-4.4
		C22,4,22.4,4,22.7,4l1.1,0l0,0c0,0,0,0,0,0c1.4-2.2,3.9-3.5,6.5-3.5c3.7,0,6.9,2.7,7.6,6.2l1.1-1.1l1.8,1.8l-0.1,0.1l-0.3,0.3
		l-2.9,2.9c2.3,2.7,3.7,6,4.2,9.5l1.8-1.8l1.8,1.8l-3.5,3.5c-0.1,1.1-0.2,2.1-0.5,3.2c1.8,1.1,3,3,3,5.1c0,3.3-2.6,5.9-5.9,5.9
		c-1.1,0-2.2-0.3-3.2-1c-1.8,1.5-3.8,2.7-6.1,3.5L29,40.5c-0.4,0.1-0.7,0.2-1.1,0.3l-0.2,0c-0.1,0-0.2,0.1-0.2,0.1L27,41.1l0,0
		c-0.2,0-0.4,0.1-0.6,0.1v0l-0.5,0.1c-0.2,0-0.3,0-0.5,0.1c0,0-0.6,0.1-0.7,0.1C24,41.5,23.5,41.5,22.9,41.5L22.9,41.5z"/>
	<path style="fill:#FFFFFF;" d="M30.3,1c3.8,0,7,3,7.3,6.8l1.4-1.4l1.1,1.1l0,0l0,0l-3.2,3.2c2.6,2.9,4.2,6.6,4.5,10.6l2.2-2.2
		l1.1,1.1l-3.2,3.2c-0.1,1.3-0.2,2.5-0.5,3.6c1.8,0.9,3,2.7,3,4.8c0,3-2.4,5.4-5.4,5.4c-1.2,0-2.3-0.4-3.2-1.1
		c-1.8,1.6-3.9,2.8-6.2,3.6c-0.1,0-0.1,0-0.2,0.1c-0.4,0.1-0.7,0.2-1.1,0.3c-0.1,0-0.3,0.1-0.4,0.1l0,0c-0.5,0.1-1,0.2-1.6,0.3l0,0
		c-0.2,0-0.5,0.1-0.7,0.1c-0.1,0-0.3,0-0.4,0.1C24.1,41,23.5,41,22.9,41c0,0,0,0-0.1,0c0,0,0,0,0,0c0,0,0,0,0,0c-0.1,0-0.2,0-0.2,0
		l0,0C12.9,40.9,5,33.3,4.4,23.7l-1.9,1.9l-1.1-1.1l3-3c0.1-1.2,0.3-2.3,0.6-3.4c-1.9-0.8-3.2-2.7-3.2-4.9c0-3,2.4-5.4,5.4-5.4
		c1.3,0,2.5,0.5,3.4,1.3c3-2.6,6.8-4.3,11-4.6c0.4,0,0.7-0.1,1.1-0.1c0,0,0,0,0,0c0.1,0,0.1,0,0.2,0c0.4,0,0.9,0,1.3,0.1l-0.1-0.1
		C25.4,2.4,27.7,1,30.3,1 M30.3,0c-2.6,0-5.2,1.3-6.7,3.5l-0.8,0c-0.4,0-0.7,0-1.1,0.1l-0.1,0c-4.1,0.3-7.8,1.7-11,4.3
		c-1-0.7-2.2-1-3.4-1c-3.5,0-6.4,2.9-6.4,6.4c0,2.2,1.2,4.3,3,5.4c-0.2,0.8-0.3,1.6-0.4,2.4l-2.8,2.8L0,24.5l0.7,0.7l1.1,1.1
		l0.7,0.7l0.7-0.7l0.4-0.4c1.5,8.7,8.9,15.4,17.9,16l0,0l1,0l0.2,0l0,0l0,0h0l0,0l0,0c0.5,0,1.1,0,1.8-0.1c0.1,0,0.2,0,0.3,0l0.1,0
		l0.2,0c0.2,0,0.4,0,0.5-0.1l1-0.2l0,0l0.7-0.2c0.1,0,0.2-0.1,0.3-0.1c0,0,0.1,0,0.1,0c0.4-0.1,0.8-0.2,1.1-0.3l0.1,0l0.1,0
		c2.2-0.8,4.2-1.9,5.9-3.3c1,0.6,2.1,0.9,3.2,0.9c3.5,0,6.4-2.9,6.4-6.4c0-2.2-1.1-4.1-2.9-5.3c0.2-0.9,0.3-1.8,0.4-2.7l3-3l0.7-0.7
		l-0.7-0.7l-1.1-1.1l-0.7-0.7l-0.7,0.7L42,19.2c-0.6-3.1-1.9-6-3.9-8.4l2.6-2.6l0.7-0.7l-0.1-0.1l-0.6-0.7l-1.1-1.1l-0.7-0.7
		l-0.7,0.7l-0.1,0.1C37.1,2.4,33.9,0,30.3,0L30.3,0z"/>
</g>
<path style="fill:#2C5967;" d="M25.5,39.2l0.2,1.6c-0.9,0.2-1.9,0.2-2.9,0.2c-0.1,0-0.2,0-0.3,0l0-1.6
	C23.6,39.4,24.6,39.4,25.5,39.2 M9.8,35.5c0.7,0.8,1.5,1.5,2.4,2.1l0.9-1.3c-0.8-0.6-1.5-1.2-2.2-1.9L9.8,35.5z M13.5,38.4
	c0.9,0.5,1.9,1,2.9,1.4l0.6-1.5c-0.9-0.3-1.8-0.8-2.6-1.3L13.5,38.4z M18.3,38.8l-0.4,1.5c0.5,0.1,1,0.3,1.5,0.4
	c0.5,0.1,1.1,0.2,1.6,0.2l0.2-1.6c-0.5-0.1-1-0.1-1.4-0.2C19.3,39,18.8,38.9,18.3,38.8 M27,38.9l0.4,1.5c1-0.3,2-0.6,3-1L29.7,38
	C28.8,38.4,27.9,38.7,27,38.9 M8.3,30.9L7,31.6c0.5,0.9,1.1,1.8,1.8,2.6l1.2-1C9.4,32.5,8.8,31.7,8.3,30.9 M7.1,27.9
	C7,27.8,7,27.6,6.9,27.5c0-0.1-0.1-0.2-0.1-0.3c-0.3-1.2-0.5-2.5-0.6-3.8l2.3,2.3l1.1-1.1l-4.1-4.1l-4.1,4.1l1.1,1.1l2.1-2.1
	c0.1,1.3,0.2,2.5,0.5,3.7l0,0c0,0.1,0.1,0.2,0.1,0.4c0,0.1,0.1,0.2,0.1,0.4c0,0.2,0.1,0.3,0.2,0.5c0,0.1,0.1,0.2,0.1,0.3l0,0
	c0.2,0.5,0.4,1,0.6,1.5l1.4-0.6C7.4,29,7.2,28.5,7.1,27.9 M1.8,13.2c0-3,2.4-5.4,5.4-5.4c3,0,5.4,2.4,5.4,5.4c0,3-2.4,5.4-5.4,5.4
	C4.2,18.6,1.8,16.2,1.8,13.2 M3.4,13.2c0,2.1,1.7,3.8,3.8,3.8c2.1,0,3.8-1.7,3.8-3.8c0-2.1-1.7-3.8-3.8-3.8
	C5.1,9.4,3.4,11.1,3.4,13.2 M12.7,9.6c2.6-2.1,5.9-3.4,9.4-3.6c0.2-0.6,0.4-1.1,0.6-1.6c-4.2,0.1-8,1.5-11.1,3.9
	C12,8.8,12.4,9.2,12.7,9.6 M37.8,12.1c-0.3,0.5-0.6,1-0.9,1.4c1.5,2.3,2.5,5,2.7,7.9l-2.1-2.1l-1.1,1.1l4.1,4.1l4.1-4.1l-1.1-1.1
	l-2.2,2.2C41,18,39.8,14.7,37.8,12.1 M43.8,32.1c0,3-2.4,5.4-5.4,5.4c-3,0-5.4-2.4-5.4-5.4c0-3,2.4-5.4,5.4-5.4
	C41.4,26.7,43.8,29.1,43.8,32.1 M42.2,32.1c0-2.1-1.7-3.8-3.8-3.8c-2.1,0-3.8,1.7-3.8,3.8c0,2.1,1.7,3.8,3.8,3.8
	C40.5,35.9,42.2,34.2,42.2,32.1 M9.6,12.6l-1.1-1.1l-1.8,1.8l-0.9-0.9l-1.1,1.1l2,2L9.6,12.6z M31.2,28c0,2.1-5.3,2.7-8.1,2.7
	c-2.8,0-8-0.6-8-2.7V15.6c0-2.4,6.7-2.5,8-2.5c0.1,0,0.1,0,0.2,0c0.4,0.6,0.9,1.1,1.5,1.6c-0.5,0-1.1,0-1.7,0c-3.5,0-5.7,0.6-6.3,1
	c0.7,0.4,2.8,1,6.3,1c1.9,0,3.3-0.2,4.4-0.4c0.9,0.3,1.8,0.5,2.7,0.5c0.3,0,0.7,0,1-0.1V28z M29.6,23.8c0,0,0,0.1,0,0.2h0.1v-2.7
	c-2.1,0.9-5.6,0.9-6.5,0.9c-0.9,0-4.3-0.1-6.4-0.9v2.5c0.5,0.4,2.7,1,6.4,1C27.1,24.9,29.4,24.1,29.6,23.8 M16.7,17.3v2.2
	c0.5,0.4,2.7,1,6.4,1c3.9,0,6.2-0.7,6.5-1.1c0,0,0,0.1,0,0.2h0.1v-2.4c-2.1,0.9-5.6,0.9-6.5,0.9C22.3,18.2,18.8,18.2,16.7,17.3
	 M29.7,27.9v-2.4c-2.1,0.9-5.6,0.9-6.5,0.9c-0.9,0-4.3-0.1-6.4-0.9v2.3c0.4,0.4,2.6,1.2,6.4,1.2C26.7,29.1,29.2,28.4,29.7,27.9
	 M39.5,30l-1,1l-1-1l-1.1,1.1l1,1l-1,1l1.1,1.1l1-1l1,1l1.1-1.1l-1-1l1-1L39.5,30z M33.1,35.9c-0.7,0.5-1.4,1-2.1,1.4l0.8,1.4
	c0.8-0.5,1.7-1,2.4-1.6C33.8,36.8,33.4,36.4,33.1,35.9 M24.2,4.6l0.9,0.9c0,0,0,0,0,0l0.1,0.1c1-1.8,2.9-3,5-3c3,0,5.4,2.3,5.7,5.1
	l-1.4-1.4l-1.1,1.1l0,0l0,0l3.3,3.3l3.3-3.3l0,0l0,0l-1.1-1.1l-1.4,1.4C37.3,4,34.1,1,30.3,1c-2.6,0-4.9,1.4-6.2,3.4L24.2,4.6
	C24.2,4.6,24.2,4.6,24.2,4.6 M33.2,11.7L33.2,11.7L33.2,11.7l-1.7,0.1l-0.4-1.6h-1.9l-0.4,1.6h-1.6l0-0.1h0l2.2-7.6h1.6L33.2,11.7z
	 M29.6,8.8h1.3L30.3,6L29.6,8.8z M20.5,9.1L20.5,9.1l1.1,1.1L23,8.8c0.3,3.7,3.4,6.7,7.2,6.7c2.6,0,4.9-1.4,6.2-3.4L35.3,11
	c-1,1.8-2.9,3-5,3c-2.9,0-5.4-2.2-5.7-5.1l1.4,1.4l1.1-1.1l0,0l0,0l-3.3-3.3L20.5,9.1L20.5,9.1z"/>
</svg>
