<svg id="Layer_1" data-name="Layer 1" xmlns="http://www.w3.org/2000/svg" viewBox="0 0 26.95 42">
   <title>Bastion</title>
   <g>
      <path
         d="M20.52,41.5a5.93,5.93,0,0,1-3.73-1.33H.5V33.45H2.31L2.92,20a2.22,2.22,0,0,1-1.85-2.19V9.26H7.4v3.05H8.5V9.26h1.9V.5h6.06a2.19,2.19,0,0,1,2.13,1.71H25l-2,3.4L25,8.93H18.28A2.16,2.16,0,0,1,16.2,7.34h-.08V7.21H12.93V9.26h1.9v3.05h1.1V9.26h6.33v8.5A2.22,2.22,0,0,1,20.41,20l.41,9.7a5.93,5.93,0,0,1-.3,11.85Z"
         fill="#fff" />
      <path
         d="M16.46,1a1.69,1.69,0,0,1,1.68,1.69v0h5.95l-1.7,2.91,1.74,2.81H18.28a1.67,1.67,0,0,1-1.66-1.59h0a.13.13,0,0,0-.13-.13H12.43V9.76h1.9v3.05h2.1V9.76h5.33v8a1.72,1.72,0,0,1-1.71,1.72h-.16l.45,10.67h.18A5.43,5.43,0,1,1,17,39.67H1V34H2.79l.65-14.47H3.29a1.72,1.72,0,0,1-1.72-1.72v-8H6.9v3.05H9V9.76h1.9V1h5.56m0-1H9.9V8.76H8v3.05H7.9V8.76H.57v9A2.73,2.73,0,0,0,2.4,20.33L1.83,33H0v7.72H16.62A6.42,6.42,0,1,0,21.3,29.19l-.37-8.86a2.73,2.73,0,0,0,1.83-2.57V9.43h3.16L25,7.9,23.55,5.6,25,3.22l.89-1.51H19A2.7,2.7,0,0,0,16.46,0Zm-3,7.71h2.19v.13h.23a2.55,2.55,0,0,0,.66.92H15.43v3.05h-.1V8.76h-1.9v-1Z"
         fill="#fff" />
      <path
         d="M2.52,38.14V35.48H14a7,7,0,0,1,.2-1.53H4.31L5,19.48h13.4l.44,9.75A6.26,6.26,0,0,1,20.32,29l-.43-9.53h.16a1.72,1.72,0,0,0,1.71-1.72v-8H16.43v3.05h-2.1V9.76h-1.9v-3h4.06a.13.13,0,0,1,.13.13h0a1.67,1.67,0,0,0,1.66,1.59h5.85L22.39,5.62l1.7-2.91H18.14v0A1.69,1.69,0,0,0,16.46,1H10.9V9.76H9v3.05H6.9V9.76H1.57v8a1.72,1.72,0,0,0,1.72,1.72h.15L2.79,34H1v5.72H15.39a6.58,6.58,0,0,1-.91-1.53ZM21.43,4.24l-.82,1.4.78,1.26H18.28a.13.13,0,0,1-.14-.13V4.24Zm-5-1.72a.17.17,0,0,1,.16.17V5.2H12.43V2.52ZM3.29,18a.18.18,0,0,1-.19-.19V11.29H5.38v3h5.14v-3h2.29v3H18v-3h2.29v6.47a.19.19,0,0,1-.19.19H3.29Z"
         fill="#2c5967" />
      <path
         d="M20.52,30.14A5.43,5.43,0,1,0,26,35.57,5.43,5.43,0,0,0,20.52,30.14Zm0,9.34a3.91,3.91,0,1,1,3.91-3.91A3.91,3.91,0,0,1,20.52,39.48Z"
         fill="#2c5967" />
      <polygon points="21.88 33.74 19.78 35.84 19.13 35.19 18.05 36.26 19.78 38 22.96 34.82 21.88 33.74"
         fill="#2c5967" />
      <polygon
         points="13.23 22.48 14.22 23.48 10.14 23.48 10.14 25 14.2 25 13.23 25.97 14.3 27.05 17.13 24.23 14.3 21.41 13.23 22.48"
         fill="#2c5967" />
      <polygon
         points="10.18 26.55 9.1 25.48 6.28 28.3 9.1 31.12 10.18 30.04 9.33 29.19 13.19 29.19 13.19 27.67 9.06 27.67 10.18 26.55"
         fill="#2c5967" />
      <g id="OCI_Icon_Label" data-name="OCI Icon Label">
         <path
            d="M2.52,38.14V35.48H14a7,7,0,0,1,.2-1.53H4.31L5,19.48h13.4l.44,9.75A6.26,6.26,0,0,1,20.32,29l-.43-9.53h.16a1.72,1.72,0,0,0,1.71-1.72v-8H16.43v3.05h-2.1V9.76h-1.9v-3h4.06a.13.13,0,0,1,.13.13h0a1.67,1.67,0,0,0,1.66,1.59h5.85L22.39,5.62l1.7-2.91H18.14v0A1.69,1.69,0,0,0,16.46,1H10.9V9.76H9v3.05H6.9V9.76H1.57v8a1.72,1.72,0,0,0,1.72,1.72h.15L2.79,34H1v5.72H15.39a6.58,6.58,0,0,1-.91-1.53ZM21.43,4.24l-.82,1.4.78,1.26H18.28a.13.13,0,0,1-.14-.13V4.24Zm-5-1.72a.17.17,0,0,1,.16.17V5.2H12.43V2.52ZM3.29,18a.18.18,0,0,1-.19-.19V11.29H5.38v3h5.14v-3h2.29v3H18v-3h2.29v6.47a.19.19,0,0,1-.19.19H3.29Z"
            fill="#2c5967" />
         <path
            d="M20.52,30.14A5.43,5.43,0,1,0,26,35.57,5.43,5.43,0,0,0,20.52,30.14Zm0,9.34a3.91,3.91,0,1,1,3.91-3.91A3.91,3.91,0,0,1,20.52,39.48Z"
            fill="#2c5967" />
         <polygon points="21.88 33.74 19.78 35.84 19.13 35.19 18.05 36.26 19.78 38 22.96 34.82 21.88 33.74"
            fill="#2c5967" />
         <polygon
            points="13.23 22.48 14.22 23.48 10.14 23.48 10.14 25 14.2 25 13.23 25.97 14.3 27.05 17.13 24.23 14.3 21.41 13.23 22.48"
            fill="#2c5967" />
         <polygon
            points="10.18 26.55 9.1 25.48 6.28 28.3 9.1 31.12 10.18 30.04 9.33 29.19 13.19 29.19 13.19 27.67 9.06 27.67 10.18 26.55"
            fill="#2c5967" />
      </g>
   </g>
</svg>
