<?xml version="1.0" encoding="utf-8"?>
<!-- Generator: Adobe Illustrator 24.0.2, SVG Export Plug-In . SVG Version: 6.00 Build 0)  -->
<svg version="1.1" id="Layer_1" xmlns="http://www.w3.org/2000/svg" xmlns:xlink="http://www.w3.org/1999/xlink" x="0px" y="0px"
	 viewBox="0 0 40.23 40.23" style="enable-background:new 0 0 40.23 40.23;" xml:space="preserve">
<style type="text/css">
	.st0{fill:#FFFFFF;}
	.st1{fill:none;}
	.st2{fill:#2C5967;}
</style>
<g>
	<g>
		<path class="st0" d="M2.59,39.73c-1.15,0-2.09-0.94-2.09-2.09V2.59c0-1.15,0.94-2.09,2.09-2.09h35.04c1.15,0,2.09,0.94,2.09,2.09
			v35.04c0,1.15-0.94,2.09-2.09,2.09H2.59z"/>
		<path class="st0" d="M37.64,1c0.88,0,1.59,0.71,1.59,1.59v35.04c0,0.88-0.71,1.59-1.59,1.59H2.59C1.71,39.23,1,38.52,1,37.64V2.59
			C1,1.71,1.71,1,2.59,1H37.64 M37.64,0H2.59C1.16,0,0,1.16,0,2.59v35.04c0,1.43,1.16,2.59,2.59,2.59h35.04
			c1.43,0,2.59-1.16,2.59-2.59V2.59C40.23,1.16,39.07,0,37.64,0L37.64,0z"/>
	</g>
	<g>
		<rect x="6.66" y="17.28" class="st1" width="1.06" height="5.66"/>
		<rect x="14.1" y="17.28" class="st1" width="1.06" height="5.66"/>
		<rect x="9.14" y="17.28" class="st1" width="1.06" height="5.66"/>
		<path class="st1" d="M33.57,27.73H6.66v5.66h26.9V27.73z M30.38,31.62c-0.59,0-1.06-0.48-1.06-1.06c0-0.59,0.48-1.06,1.06-1.06
			c0.59,0,1.06,0.48,1.06,1.06C31.44,31.14,30.97,31.62,30.38,31.62z"/>
		<rect x="11.62" y="17.28" class="st1" width="1.06" height="5.66"/>
		<rect x="16.58" y="17.28" class="st1" width="1.06" height="5.66"/>
		<rect x="11.62" y="6.66" class="st1" width="1.06" height="5.66"/>
		<rect x="16.58" y="6.66" class="st1" width="1.06" height="5.66"/>
		<rect x="9.14" y="6.66" class="st1" width="1.06" height="5.66"/>
		<rect x="30.03" y="17.28" class="st1" width="1.06" height="5.66"/>
		<rect x="14.1" y="6.66" class="st1" width="1.06" height="5.66"/>
		<rect x="6.66" y="6.66" class="st1" width="1.06" height="5.66"/>
		<rect x="27.55" y="17.28" class="st1" width="1.06" height="5.66"/>
		<rect x="32.5" y="6.66" class="st1" width="1.06" height="5.66"/>
		<rect x="25.07" y="6.66" class="st1" width="1.06" height="5.66"/>
		<rect x="30.03" y="6.66" class="st1" width="1.06" height="5.66"/>
		<rect x="27.55" y="6.66" class="st1" width="1.06" height="5.66"/>
		<path class="st1" d="M37.64,2.42H2.59c-0.1,0-0.18,0.08-0.18,0.18v35.04c0,0.1,0.08,0.18,0.18,0.18h35.04
			c0.1,0,0.18-0.08,0.18-0.18V2.59C37.81,2.5,37.73,2.42,37.64,2.42z M5.25,5.25h13.81v8.5H5.25V5.25z M5.25,15.87h13.81v8.5H5.25
			V15.87z M34.98,34.81H5.25v-8.5h29.73V34.81z M34.98,24.36H21.18v-8.5h13.81V24.36z M34.98,13.74H21.18v-8.5h13.81V13.74z"/>
		<rect x="22.59" y="6.66" class="st1" width="1.06" height="5.66"/>
		<rect x="32.5" y="17.28" class="st1" width="1.06" height="5.66"/>
		<rect x="25.07" y="17.28" class="st1" width="1.06" height="5.66"/>
		<rect x="22.59" y="17.28" class="st1" width="1.06" height="5.66"/>
		<path class="st2" d="M37.64,1H2.59C1.71,1,1,1.71,1,2.59v35.04c0,0.88,0.71,1.59,1.59,1.59h35.04c0.88,0,1.59-0.71,1.59-1.59V2.59
			C39.23,1.71,38.52,1,37.64,1z M37.81,37.64c0,0.1-0.08,0.18-0.18,0.18H2.59c-0.1,0-0.18-0.08-0.18-0.18V2.59
			c0-0.1,0.08-0.18,0.18-0.18h35.04c0.1,0,0.18,0.08,0.18,0.18V37.64z"/>
		<path class="st2" d="M5.25,34.81h29.73v-8.5H5.25V34.81z M6.66,27.73h26.9v5.66H6.66V27.73z"/>
		<circle class="st2" cx="30.38" cy="30.56" r="1.06"/>
		<path class="st2" d="M19.05,5.25H5.25v8.5h13.81V5.25z M11.62,6.66h1.06v5.66h-1.06V6.66z M10.2,12.33H9.14V6.66h1.06V12.33z
			 M14.1,6.66h1.06v5.66H14.1V6.66z M6.66,6.66h1.06v5.66H6.66V6.66z M17.64,12.33h-1.06V6.66h1.06V12.33z"/>
		<path class="st2" d="M21.18,13.74h13.81v-8.5H21.18V13.74z M28.61,12.33h-1.06V6.66h1.06V12.33z M30.03,6.66h1.06v5.66h-1.06V6.66
			z M26.13,12.33h-1.06V6.66h1.06V12.33z M33.57,12.33H32.5V6.66h1.06V12.33z M22.59,6.66h1.06v5.66h-1.06V6.66z"/>
		<path class="st2" d="M19.05,15.87H5.25v8.5h13.81V15.87z M11.62,17.28h1.06v5.66h-1.06V17.28z M10.2,22.95H9.14v-5.66h1.06V22.95z
			 M14.1,17.28h1.06v5.66H14.1V17.28z M6.66,17.28h1.06v5.66H6.66V17.28z M17.64,22.95h-1.06v-5.66h1.06V22.95z"/>
		<path class="st2" d="M21.18,24.36h13.81v-8.5H21.18V24.36z M28.61,22.95h-1.06v-5.66h1.06V22.95z M30.03,17.28h1.06v5.66h-1.06
			V17.28z M26.13,22.95h-1.06v-5.66h1.06V22.95z M33.57,22.95H32.5v-5.66h1.06V22.95z M22.59,17.28h1.06v5.66h-1.06V17.28z"/>
	</g>
</g>
</svg>
