<svg id="Layer_1" data-name="Layer 1" xmlns="http://www.w3.org/2000/svg" viewBox="0 0 38.2 42">
   <g>
      <path
         d="M19,41.5a4.31,4.31,0,0,1-4.3-4.3c0-.1,0-.2,0-.3l-8-4.24a4.22,4.22,0,0,1-1.88.44,4.3,4.3,0,0,1-1.3-8.4V16.5A4.3,4.3,0,1,1,7.82,9.34l7-3.68a4.12,4.12,0,0,1-.09-.86,4.3,4.3,0,1,1,8.6,0,3.91,3.91,0,0,1-.07.76l7.15,3.78A4.3,4.3,0,1,1,34.7,16.5v8.2a4.3,4.3,0,0,1-1.3,8.4,4.22,4.22,0,0,1-1.88-.44L23.29,37a1.34,1.34,0,0,1,0,.2A4.31,4.31,0,0,1,19,41.5Z"
         fill="#fff" />
      <path
         d="M19,1a3.8,3.8,0,0,1,3.8,3.8,3.75,3.75,0,0,1-.14,1L30.49,10a3.8,3.8,0,1,1,3.71,6.15v9a3.8,3.8,0,0,1-.8,7.51,3.74,3.74,0,0,1-1.88-.5l-8.75,4.62a3.87,3.87,0,0,1,0,.48,3.8,3.8,0,0,1-7.6,0,3.68,3.68,0,0,1,.05-.58L6.68,32.1a3.74,3.74,0,0,1-1.88.5A3.8,3.8,0,0,1,4,25.09v-9A3.8,3.8,0,1,1,7.71,10l7.66-4A3.8,3.8,0,0,1,19,1m0-1a4.8,4.8,0,0,0-4.8,4.8,3.69,3.69,0,0,0,0,.58L7.89,8.73A4.8,4.8,0,1,0,3,16.85v7.5a4.8,4.8,0,1,0,3.67,8.87l7.53,4h0a4.8,4.8,0,0,0,9.6.1l7.73-4.08a4.8,4.8,0,1,0,3.67-8.87v-7.5a4.8,4.8,0,1,0-4.89-8.12L23.77,5.28a3.87,3.87,0,0,0,0-.48A4.8,4.8,0,0,0,19,0Z"
         fill="#fff" />
      <path
         d="M34.2,25.09v-9A3.8,3.8,0,1,0,30.49,10L22.66,5.82a3.75,3.75,0,0,0,.14-1,3.8,3.8,0,1,0-7.43,1.12L7.71,10A3.8,3.8,0,1,0,4,16.11v9a3.8,3.8,0,0,0,.8,7.51,3.74,3.74,0,0,0,1.88-.5l8.57,4.52a3.68,3.68,0,0,0-.05.58,3.8,3.8,0,0,0,7.6,0,3.87,3.87,0,0,0,0-.48l8.75-4.62a3.74,3.74,0,0,0,1.88.5,3.8,3.8,0,0,0,.8-7.51ZM33.4,10.2a2.2,2.2,0,1,1-2.2,2.2A2.21,2.21,0,0,1,33.4,10.2ZM19,2.6a2.2,2.2,0,1,1-2.2,2.2A2.21,2.21,0,0,1,19,2.6ZM2.6,12.4a2.2,2.2,0,1,1,2.2,2.2A2.21,2.21,0,0,1,2.6,12.4ZM4.8,31A2.2,2.2,0,1,1,7,28.8,2.21,2.21,0,0,1,4.8,31ZM19,39.4a2.2,2.2,0,1,1,2.2-2.2A2.21,2.21,0,0,1,19,39.4ZM30.58,26.27l-2.73-1.56a8.71,8.71,0,0,1-.74,1.42l2.67,1.52a3.64,3.64,0,0,0-.18,1.15A3.78,3.78,0,0,0,30.27,31l-8,4.25a3.78,3.78,0,0,0-2.42-1.71V30.56a8,8,0,0,1-1.6,0v2.93a3.78,3.78,0,0,0-2.37,1.63L7.93,31a3.78,3.78,0,0,0,.5-3.27L11,26.25a9,9,0,0,1-.76-1.4L7.64,26.29a3.7,3.7,0,0,0-2-1.2v-9a3.76,3.76,0,0,0,2-1.13l2.85,1.7a9,9,0,0,1,.84-1.36L8.4,13.61a3.77,3.77,0,0,0,.06-2.23l7.7-4.07a3.7,3.7,0,0,0,2,1.2v2.93a8,8,0,0,1,1.6,0V8.51a3.75,3.75,0,0,0,2.11-1.27l7.83,4.14a3.74,3.74,0,0,0,.05,2.19l-3,1.77a10,10,0,0,1,.83,1.37l3-1.75a3.78,3.78,0,0,0,2,1.15v9A3.71,3.71,0,0,0,30.58,26.27ZM33.4,31a2.2,2.2,0,1,1,2.2-2.2A2.21,2.21,0,0,1,33.4,31Z"
         fill="#2c5967" />
      <path
         d="M19,12.6A8.4,8.4,0,1,0,27.4,21,8.41,8.41,0,0,0,19,12.6Zm0,15.2A6.8,6.8,0,1,1,25.8,21,6.81,6.81,0,0,1,19,27.8Z"
         fill="#2c5967" />
      <path
         d="M22.25,19.32l.7-.88-1.39-1.39-.88.7a2.87,2.87,0,0,0-.57-.24L20,16.4H18l-.12,1.11a2.87,2.87,0,0,0-.57.24l-.88-.7-1.39,1.39.7.88a2.87,2.87,0,0,0-.24.57L14.4,20v2l1.11.12a2.87,2.87,0,0,0,.24.57l-.7.88L16.44,25l.88-.7a2.87,2.87,0,0,0,.57.24L18,25.6h2l.12-1.11a2.87,2.87,0,0,0,.57-.24l.88.7L23,23.56l-.7-.88a2.87,2.87,0,0,0,.24-.57L23.6,22V20l-1.11-.12A2.87,2.87,0,0,0,22.25,19.32ZM19,23a2,2,0,1,1,2-2A2,2,0,0,1,19,23Z"
         fill="#2c5967" />
   </g>
</svg>