<?xml version="1.0" encoding="utf-8"?>
<!-- Generator: Adobe Illustrator 24.0.2, SVG Export Plug-In . SVG Version: 6.00 Build 0)  -->
<svg version="1.1" id="Layer_1" xmlns="http://www.w3.org/2000/svg" xmlns:xlink="http://www.w3.org/1999/xlink" x="0px" y="0px"
	 viewBox="0 0 46.81 42" style="enable-background:new 0 0 46.81 42;" xml:space="preserve">
<style type="text/css">
	.st0{fill:#FFFFFF;}
	.st1{fill:#2C5967;}
</style>
<g>
	<g>
		<polygon class="st0" points="0.5,41.5 0.5,6.06 21.61,6.06 21.61,0.5 46.31,0.5 46.31,27.98 34.28,27.98 34.28,41.5 		"/>
		<path class="st0" d="M45.81,1v26.48H33.78V41H1V6.56h21.11V1H45.81 M46.81,0h-1h-23.7h-1v1v4.56H1H0v1V41v1h1h32.78h1v-1V28.48
			h11.04h1v-1V1V0L46.81,0z"/>
	</g>
	<g>
		<polygon class="st1" points="45.81,1 22.11,1 22.11,5.44 23.59,5.44 23.59,2.48 44.33,2.48 44.33,26 34.89,26 34.89,27.48 
			45.81,27.48 		"/>
		<polygon class="st1" points="42.85,6.56 34.89,6.56 34.89,7.3 34.89,8.04 42.85,8.04 		"/>
		<polygon class="st1" points="42.85,3.96 25.07,3.96 25.07,5.44 33.04,5.44 34.89,5.44 34.89,5.44 42.85,5.44 		"/>
		<rect x="34.89" y="9.15" class="st1" width="7.96" height="1.48"/>
		<rect x="34.89" y="11.74" class="st1" width="7.96" height="1.48"/>
		<rect x="34.89" y="14.33" class="st1" width="4.85" height="1.48"/>
		<path class="st1" d="M33.78,6.56h-5.37H1V41h32.78V6.56z M2.48,39.52V8.04h25.93h3.89v31.48H2.48z"/>
		<path class="st1" d="M7.67,21.93H5.31c0.34-1.44,1.3-2.69,2.63-3.37c0.86-0.45,1.48-1.29,1.69-2.31c0.23-1.11,0.98-2.05,2.02-2.5
			c0.56-0.25,1.17-0.34,1.77-0.28c0.98,0.1,1.95-0.27,2.67-1.04c0.89-0.95,2.1-1.47,3.4-1.47c1.78,0,3.37,0.99,4.17,2.58
			c0.45,0.9,1.3,1.56,2.28,1.78c0.54,0.12,1.05,0.33,1.52,0.63c2.01,1.27,2.78,3.83,1.86,5.99H27.3v1.48h2.93l0.21-0.39
			c1.56-2.91,0.6-6.57-2.19-8.33c-0.62-0.39-1.29-0.67-1.99-0.82c-0.54-0.12-1.02-0.49-1.27-1c-1.05-2.1-3.16-3.4-5.5-3.4
			c-1.69,0-3.32,0.71-4.48,1.94c-0.39,0.42-0.93,0.63-1.43,0.58c-0.86-0.09-1.73,0.05-2.53,0.39c-1.47,0.65-2.54,1.98-2.87,3.56
			c-0.12,0.58-0.46,1.06-0.92,1.3c-2.02,1.05-3.38,3.11-3.54,5.38l-0.06,0.8h4.02V21.93z"/>
		<path class="st1" d="M26.19,20.26c0-0.92-0.75-1.67-1.67-1.67H10.44c-0.92,0-1.67,0.75-1.67,1.67v16.3c0,0.92,0.75,1.67,1.67,1.67
			h14.07c0.92,0,1.67-0.75,1.67-1.67V20.26z M24.52,36.74H10.44c-0.1,0-0.19-0.08-0.19-0.19v-16.3c0-0.1,0.08-0.19,0.19-0.19h14.07
			c0.1,0,0.19,0.08,0.19,0.19v16.3C24.7,36.66,24.62,36.74,24.52,36.74z"/>
		<path class="st1" d="M23.59,26v-4.81H11.37v6.67h12.22V26z M12.85,22.67h9.26v3.7h-9.26V22.67z"/>
		<circle class="st1" cx="20.26" cy="24.52" r="0.74"/>
		<path class="st1" d="M11.37,35.63h12.22v-6.67H11.37V35.63z M12.85,30.44h9.26v3.7h-9.26V30.44z"/>
		<circle class="st1" cx="20.26" cy="32.3" r="0.74"/>
		<polygon class="st1" points="38.4,21.74 37.47,23.31 38.37,24.89 40.19,24.89 41.11,23.31 40.21,21.74 		"/>
		<path class="st1" d="M41.45,17.15c-0.94,0-1.72,0.78-1.72,1.72c0,0.94,0.78,1.72,1.72,1.72s1.72-0.78,1.72-1.72
			C43.17,17.93,42.42,17.15,41.45,17.15z"/>
		<polygon class="st1" points="36.72,17.28 34.89,20.58 34.86,20.63 34.89,20.63 38.55,20.63 		"/>
	</g>
</g>
</svg>
