<?xml version="1.0" encoding="utf-8"?>
<!-- Generator: Adobe Illustrator 24.0.2, SVG Export Plug-In . SVG Version: 6.00 Build 0)  -->
<svg version="1.1" id="Layer_1" xmlns="http://www.w3.org/2000/svg" xmlns:xlink="http://www.w3.org/1999/xlink" x="0px" y="0px"
	 viewBox="0 0 31.7 42" style="enable-background:new 0 0 31.7 42;" xml:space="preserve">
<g>
	<g>
		<path style="fill:#FFFFFF;" d="M6.3,41.5l0-1.6L8,39.1V16.4H0.5L0.6,15c0.2-2.6,1.7-4.9,4-6.1c0.4-0.2,0.7-0.6,0.8-1
			C5.8,6,7.1,4.4,8.8,3.7c0.7-0.3,1.6-0.5,2.4-0.5c0.2,0,0.4,0,0.5,0c0,0,0.1,0,0.1,0c0.4,0,0.7-0.2,1-0.4c1.3-1.4,3.2-2.3,5.2-2.3
			c2.7,0,5.2,1.5,6.4,3.9c0.2,0.4,0.6,0.7,1,0.8c0.8,0.2,1.6,0.5,2.3,0.9c3.2,2,4.3,6.2,2.5,9.6l-0.4,0.7h-4.8v22.6l1.7,0.8v1.6H6.3
			z"/>
		<path style="fill:#FFFFFF;" d="M18.1,1c2.5,0,4.8,1.4,5.9,3.7c0.3,0.5,0.8,0.9,1.4,1c0.8,0.2,1.5,0.5,2.1,0.9c3,1.9,4,5.8,2.4,8.9
			l-0.2,0.4h-5v23.4l1.7,0.8V41h0v0H6.8v0h0v-0.8l1.7-0.8V15.9H1.1l0.1-0.9c0.2-2.4,1.6-4.6,3.8-5.7c0.5-0.3,0.9-0.8,1-1.3
			C6.3,6.3,7.4,4.8,9,4.1c0.7-0.3,1.4-0.5,2.2-0.5c0.2,0,0.3,0,0.5,0c0.1,0,0.1,0,0.2,0c0.5,0,1-0.2,1.4-0.6C14.5,1.8,16.3,1,18.1,1
			 M18.1,0c-2.1,0-4.1,0.9-5.6,2.4c-0.2,0.2-0.4,0.3-0.6,0.3c0,0-0.1,0-0.1,0c-0.2,0-0.4,0-0.6,0c-0.9,0-1.8,0.2-2.6,0.5
			C6.7,4,5.3,5.8,4.9,7.8C4.9,8.1,4.7,8.3,4.4,8.5C2,9.8,0.4,12.2,0.1,15l-0.1,0.9L0,16.9h1.1h6.4v21.8l-1.1,0.5l-0.6,0.3v0.6V41
			v0.8L6.6,42l0.1,0l0.1,0h19.5h1l0-1l0-0.8l0-0.6l-0.6-0.3l-1.1-0.5V16.9h4h0.6l0.3-0.5l0.2-0.4c1.9-3.6,0.7-8.1-2.7-10.3
			c-0.8-0.5-1.6-0.8-2.5-1c-0.3-0.1-0.5-0.3-0.7-0.5C23.6,1.6,21,0,18.1,0L18.1,0z"/>
	</g>
	<g>
		<g>
			<g>
				<polygon style="fill:#FFFFFF;" points="7.3,40.5 9,39.7 9,9.6 24.1,9.6 24.1,39.7 25.8,40.5 				"/>
				<path style="fill:#FFFFFF;" d="M23.6,10.1v29.3V40H9.5v-0.6V10.1H23.6 M24.6,9.1H8.5v30.3l-1.7,0.8V41h19.5v-0.8l-1.7-0.8V9.1
					L24.6,9.1z"/>
			</g>
			<path style="fill:#2C5967;" d="M24.6,39.4V9.1H8.5v30.3l-1.7,0.8V41h19.5v-0.8L24.6,39.4z M10.1,10.7H23v28.7H10.1V10.7z
				 M11.4,11.9h10.4v1.6H11.4V11.9z M20.5,14.7h-7.9v1.4h-1.2v1.6h1.2v1.4h7.9v-1.4h1.2v-1.6h-1.2V14.7z M18.8,17.6h-4.6v-1.2h4.6
				V17.6z M17.7,32.1l2.4,4.6H18l-1.5-3.2l-1.4,3.2H13l2.4-4.7l-2.2-4.4h2.1l1.4,3l1.4-3H20L17.7,32.1z M13,22h-1.7v-1.6H13V22z
				 M15.9,22h-1.7v-1.6h1.7V22z M18.8,22h-1.7v-1.6h1.7V22z M20.1,20.4h1.7V22h-1.7V20.4z M13,24.8h-1.7v-1.6H13V24.8z M14.3,23.2
				h1.7v1.6h-1.7V23.2z M17.2,23.2h1.7v1.6h-1.7V23.2z M20.1,23.2h1.7v1.6h-1.7V23.2z"/>
		</g>
		<path style="fill:#2C5967;" d="M29.8,15.5l-0.2,0.4h-4v-1.6h3c1-2.3,0.2-5-2-6.4c-0.5-0.3-1.1-0.5-1.6-0.7c-1.1-0.2-2-0.9-2.4-1.9
			c-0.9-1.7-2.6-2.8-4.5-2.8c-1.4,0-2.7,0.6-3.7,1.6c-0.7,0.8-1.8,1.2-2.9,1.1c-0.6-0.1-1.3,0-1.9,0.3C8.6,6.1,7.7,7.1,7.5,8.3
			c-0.2,1.1-0.9,2-1.8,2.5c-1.4,0.7-2.4,2-2.8,3.6h4.5v1.6H1.1l0.1-0.9c0.2-2.4,1.6-4.6,3.8-5.7c0.5-0.3,0.9-0.8,1-1.3
			C6.3,6.3,7.4,4.8,9,4.1c0.8-0.4,1.8-0.5,2.7-0.4c0.6,0.1,1.2-0.2,1.6-0.6c1.2-1.3,3-2.1,4.8-2.1c2.5,0,4.8,1.4,5.9,3.7
			c0.3,0.5,0.8,0.9,1.4,1c0.8,0.2,1.5,0.5,2.1,0.9C30.5,8.5,31.5,12.4,29.8,15.5"/>
	</g>
</g>
</svg>
