<?xml version="1.0" encoding="utf-8"?>
<!-- Generator: Adobe Illustrator 24.0.2, SVG Export Plug-In . SVG Version: 6.00 Build 0)  -->
<svg version="1.1" id="Layer_1" xmlns="http://www.w3.org/2000/svg" xmlns:xlink="http://www.w3.org/1999/xlink" x="0px" y="0px"
	 viewBox="0 0 56.9 42" style="enable-background:new 0 0 56.9 42;" xml:space="preserve">
<g>
	<g>
		<path style="fill:#FFFFFF;" d="M0.5,41.5V26.3c0-3,2.4-5.4,5.4-5.4H8v-0.3c-2.2-1.3-3.7-3.7-3.7-6.4c0-4.1,3.3-7.4,7.4-7.4
			s7.4,3.3,7.4,7.4c0,2.6-1.4,4.9-3.5,6.3h0.5c1.2-1.5,3-2.4,5-2.4h2.6V17c-2.6-1.6-4.2-4.5-4.2-7.6c0-4.9,4-8.9,8.9-8.9
			c4.9,0,8.9,4,8.9,8.9c0,3.1-1.6,6-4.3,7.6v1h2.7c2,0,3.8,0.9,5.1,2.4h0.5c-2.1-1.3-3.5-3.7-3.5-6.3c0-4.1,3.3-7.4,7.4-7.4
			s7.4,3.3,7.4,7.4c0,2.6-1.4,5.1-3.6,6.4V21h2c3,0,5.4,2.4,5.4,5.4v15.2H0.5z"/>
		<path style="fill:#FFFFFF;" d="M28.4,1c4.6,0,8.4,3.8,8.4,8.4c0,3.1-1.7,5.9-4.3,7.3v1.8h3.2c1.9,0,3.7,1,4.8,2.4h3.2
			c-3.1-0.7-5.4-3.5-5.4-6.8c0-3.8,3.1-6.9,6.9-6.9s6.9,3.1,6.9,6.9c0,3.3-2.3,6.1-5.4,6.8h1.8v0.5h2.5c2.7,0,4.9,2.2,4.9,4.9V41H1
			V26.3c0-2.7,2.2-4.9,4.9-4.9h2.6V21h1.7c-3.1-0.7-5.4-3.5-5.4-6.8c0-3.8,3.1-6.9,6.9-6.9s6.9,3.1,6.9,6.9c0,3.3-2.3,6.1-5.4,6.8
			h3.2c1.1-1.5,2.8-2.4,4.7-2.4h3.1v-1.9c-2.5-1.4-4.2-4.2-4.2-7.3C20,4.8,23.8,1,28.4,1 M28.4,0C23.2,0,19,4.2,19,9.4
			c0,3.2,1.6,6.1,4.2,7.8v0.3h-2.1c-0.9,0-1.7,0.2-2.5,0.5c0.6-1.1,1-2.4,1-3.8c0-4.4-3.6-7.9-7.9-7.9s-7.9,3.6-7.9,7.9
			c0,2.5,1.2,4.8,3,6.2h-1c-3.2,0-5.9,2.6-5.9,5.9V41v1h1h54.9h1v-1V26.3c0-3.2-2.6-5.9-5.9-5.9h-1c1.9-1.5,3-3.8,3-6.2
			c0-4.4-3.6-7.9-7.9-7.9s-7.9,3.6-7.9,7.9c0,1.4,0.4,2.7,1,3.8c-0.8-0.3-1.7-0.5-2.6-0.5h-2.2v-0.3c2.7-1.7,4.3-4.7,4.3-7.9
			C37.8,4.2,33.6,0,28.4,0L28.4,0z"/>
	</g>
	<g>
		<path style="fill:#2C5967;" d="M45.2,21.2c3.8,0,6.9-3.1,6.9-6.9S49,7.3,45.2,7.3s-6.9,3.1-6.9,6.9S41.4,21.2,45.2,21.2z M45.2,9
			c2.9,0,5.3,2.4,5.3,5.3s-2.4,5.3-5.3,5.3c-2.9,0-5.3-2.4-5.3-5.3S42.3,9,45.2,9z"/>
		<path style="fill:#2C5967;" d="M51.1,21.5h-1.4l-0.3,0.3c-1,1.3-2.5,2.1-4.2,2.1c-1.6,0-3.2-0.8-4.2-2.1l-0.3-0.3h-0.1
			c-1-1.7-2.9-2.9-5-2.9H34l-0.3,0.3c-1.3,1.7-3.2,2.6-5.3,2.6s-4-1-5.3-2.6l-0.3-0.3h-1.7c-2.1,0-4,1.2-5,2.9h0l-0.3,0.3
			c-1,1.3-2.5,2.1-4.2,2.1s-3.2-0.8-4.2-2.1l-0.3-0.3H5.9c-2.7,0-4.9,2.2-4.9,4.9V41h1.7V26.3c0-1.8,1.4-3.2,3.2-3.2h0.6
			c1.3,1.5,3.2,2.4,5.2,2.4c1.3,0,2.6-0.4,3.6-1V41h0.8H17V24.4c0-2.3,1.9-4.1,4.1-4.1H22c1.6,1.9,3.9,3,6.4,3s4.8-1.1,6.4-3h0.9
			c2.3,0,4.1,1.9,4.1,4.1V41h0.8h0.8V24.4c1.1,0.7,2.4,1.1,3.7,1.1c2,0,3.9-0.9,5.2-2.4h0.6c1.8,0,3.2,1.4,3.2,3.2V41h1.7V26.3
			C55.9,23.6,53.8,21.5,51.1,21.5z"/>
		<path style="fill:#2C5967;" d="M11.7,21.2c3.8,0,6.9-3.1,6.9-6.9s-3.1-6.9-6.9-6.9s-6.9,3.1-6.9,6.9S7.9,21.2,11.7,21.2z M11.7,9
			c2.9,0,5.3,2.4,5.3,5.3s-2.4,5.3-5.3,5.3s-5.3-2.4-5.3-5.3S8.8,9,11.7,9z"/>
		<path style="fill:#2C5967;" d="M28.4,17.8c4.6,0,8.4-3.8,8.4-8.4S33.1,1,28.4,1S20,4.8,20,9.4S23.8,17.8,28.4,17.8z M28.4,2.7
			c3.7,0,6.7,3,6.7,6.7s-3,6.7-6.7,6.7s-6.7-3-6.7-6.7S24.7,2.7,28.4,2.7z"/>
		<polygon style="fill:#2C5967;" points="21.2,30.6 20.3,30.6 20.3,41 20.7,41 22,41 22,32.3 		"/>
		<polygon style="fill:#2C5967;" points="35.6,30.6 35.6,30.6 34.8,32.3 34.8,41 36.2,41 36.5,41 36.5,30.6 		"/>
		<polygon style="fill:#2C5967;" points="50.1,34 50.1,41 51.7,41 51.7,32.3 50.9,32.3 		"/>
		<polygon style="fill:#2C5967;" points="5.2,32.3 5.2,41 6.9,41 6.9,34 6,32.3 		"/>
	</g>
</g>
</svg>
