<?xml version="1.0" encoding="utf-8"?>
<!-- Generator: Adobe Illustrator 24.0.2, SVG Export Plug-In . SVG Version: 6.00 Build 0)  -->
<svg version="1.1" id="Layer_1" xmlns="http://www.w3.org/2000/svg" xmlns:xlink="http://www.w3.org/1999/xlink" x="0px" y="0px"
	 viewBox="0 0 32.98 42" style="enable-background:new 0 0 32.98 42;" xml:space="preserve">
<style type="text/css">
	.st0{fill:#FFFFFF;}
	.st1{fill:#2C5967;}
	.st2{fill:#FFFFFF;stroke:#FFFFFF;stroke-miterlimit:10;}
</style>
<g>
	<g>
		<g>
			<path class="st0" d="M16.49,21.29c-5.73,0-10.4-4.66-10.4-10.39c0-5.73,4.66-10.4,10.4-10.4c5.73,0,10.4,4.66,10.4,10.4
				C26.88,16.63,22.22,21.29,16.49,21.29z"/>
			<path class="st0" d="M16.49,1c5.46,0,9.9,4.44,9.9,9.9s-4.44,9.9-9.9,9.9s-9.9-4.44-9.9-9.9S11.03,1,16.49,1 M16.49,0
				c-6.01,0-10.9,4.89-10.9,10.9c0,6.01,4.89,10.9,10.9,10.9s10.9-4.89,10.9-10.9C27.38,4.89,22.5,0,16.49,0L16.49,0z"/>
		</g>
		<g>
			<path class="st0" d="M0.5,41.5V28.84c0-4.02,3.27-7.29,7.29-7.29h2.17l0.4,0.52c1.48,1.92,3.71,3.02,6.13,3.02
				c0.34,0,0.68-0.02,1.02-0.06c2-0.25,3.91-1.4,5.25-3.14l0.26-0.34h2.17c4.02,0,7.29,3.27,7.29,7.29V41.5H0.5z"/>
			<path class="st0" d="M25.18,22.04c3.75,0,6.79,3.04,6.79,6.79V41h-1.49h-0.18H1V28.84c0-3.75,3.04-6.79,6.79-6.79h1.92l0.25,0.33
				c1.57,2.04,3.95,3.22,6.52,3.22c0.36,0,0.72-0.02,1.08-0.07c2.23-0.28,4.22-1.55,5.59-3.33l0.11-0.14H25.18 M25.18,21.04h-1.92
				h-0.49l-0.3,0.39l-0.11,0.14c-1.26,1.64-3.05,2.72-4.92,2.95c-0.32,0.04-0.64,0.06-0.95,0.06c-2.26,0-4.35-1.03-5.73-2.83
				l-0.25-0.33l-0.3-0.39H9.71H7.79c-4.3,0-7.79,3.5-7.79,7.79V41v1h1h29.31h0.18h1.49h1v-1V28.84
				C32.98,24.54,29.48,21.04,25.18,21.04L25.18,21.04z"/>
		</g>
	</g>
	<g>
		<path class="st1" d="M16.49,20.79c5.46,0,9.9-4.44,9.9-9.9S21.95,1,16.49,1s-9.9,4.44-9.9,9.9S11.03,20.79,16.49,20.79z
			 M16.49,2.67c4.54,0,8.23,3.69,8.23,8.23s-3.69,8.23-8.23,8.23s-8.23-3.69-8.23-8.23S11.95,2.67,16.49,2.67z"/>
		<path class="st1" d="M25.18,22.04h-1.92l-0.25,0.33c-1.57,2.04-3.95,3.22-6.52,3.22s-4.95-1.17-6.52-3.22l-0.25-0.33H7.79
			C4.05,22.04,1,25.09,1,28.84V41h1.67V28.84c0-2.83,2.3-5.13,5.13-5.13H8.9c1.89,2.26,4.63,3.54,7.58,3.54s5.7-1.29,7.58-3.54h1.11
			c2.83,0,5.13,2.3,5.13,5.13V41h1.67V28.84C31.98,25.09,28.93,22.04,25.18,22.04z"/>
	</g>
	<path class="st2" d="M9.49,22"/>
</g>
</svg>
