<?xml version="1.0" encoding="utf-8"?>
<!-- Generator: Adobe Illustrator 24.0.2, SVG Export Plug-In . SVG Version: 6.00 Build 0)  -->
<svg version="1.1" id="Layer_1" xmlns="http://www.w3.org/2000/svg" xmlns:xlink="http://www.w3.org/1999/xlink" x="0px" y="0px"
	 viewBox="0 0 42 43.08" style="enable-background:new 0 0 42 43.08;" xml:space="preserve">
<style type="text/css">
	.st0{fill:#FFFFFF;}
	.st1{fill:#2C5967;}
</style>
<g>
	<g>
		<g>
			<g>
				<polygon class="st0" points="0.5,32.68 0.5,9.81 10.57,1.09 10.57,41.52 				"/>
				<path class="st0" d="M10.07,2.19v38.23L1,32.46V10.03L10.07,2.19 M11.07,0L9.42,1.43L0.35,9.28L0,9.58v0.46v22.42v0.45l0.34,0.3
					l9.07,7.96l1.66,1.46v-2.21V2.19V0L11.07,0z"/>
			</g>
			<g>
				<polygon class="st0" points="31.43,1.09 41.5,9.81 41.5,32.68 31.43,41.52 				"/>
				<path class="st0" d="M31.93,2.19L41,10.03l0,22.42l-9.07,7.96L31.93,2.19 M30.93,0v2.19l0,38.23v2.21l1.66-1.46l9.07-7.96
					l0.34-0.3v-0.45l0-22.42V9.58l-0.35-0.3l-9.07-7.85L30.93,0L30.93,0z"/>
			</g>
			<g>
				<polygon class="st0" points="21.36,42.58 21,39.03 20.64,42.58 10.47,42.58 17.17,1.58 25.02,1.58 31.53,42.58 				"/>
				<path class="st0" d="M24.6,2.08l6.35,40h-9.13L21,34.06l-0.81,8.02h-9.13l6.54-40H24.6 M25.45,1.08H24.6h-7h-0.85l-0.14,0.84
					l-6.54,40l-0.19,1.16h1.18h9.13h0.9h0.72h9.13h1.17l-0.18-1.16l-6.35-40L25.45,1.08L25.45,1.08z"/>
			</g>
		</g>
		<g>
			<polygon class="st0" points="8.59,5.43 2.48,10.71 2.48,31.78 8.59,37.14 			"/>
			<path class="st1" d="M1,32.46l9.07,7.96V2.19L1,10.03V32.46z M2.48,10.71l6.11-5.29v31.72l-6.11-5.36V10.71z"/>
			<polygon class="st0" points="33.41,37.14 39.52,31.78 39.52,10.71 33.41,5.43 			"/>
			<path class="st1" d="M31.93,2.19l0,38.23L41,32.46l0-22.42L31.93,2.19z M39.52,31.78l-6.11,5.36l0-31.72l6.11,5.29L39.52,31.78z"
				/>
			<polygon class="st0" points="18.85,3.56 12.8,40.6 18.85,40.6 21,19.36 23.15,40.6 29.21,40.6 23.33,3.56 			"/>
			<path class="st1" d="M17.59,2.08l-6.54,40h9.13L21,34.06l0.81,8.02h9.13l-6.35-40H17.59z M23.15,40.6L21,19.36L18.85,40.6H12.8
				l6.05-37.04h4.48l5.88,37.04H23.15z"/>
		</g>
	</g>
</g>
</svg>
