<?xml version="1.0" encoding="utf-8"?>
<!-- Generator: Adobe Illustrator 24.0.2, SVG Export Plug-In . SVG Version: 6.00 Build 0)  -->
<svg version="1.1" id="Layer_1" xmlns="http://www.w3.org/2000/svg" xmlns:xlink="http://www.w3.org/1999/xlink" x="0px" y="0px"
	 viewBox="0 0 42.08 21.98" style="enable-background:new 0 0 42.08 21.98;" xml:space="preserve">
<style type="text/css">
	.st0{fill:#FFFFFF;}
	.st1{fill:#2C5967;}
</style>
<g>
	<g>
		<path class="st0" d="M0.54,21.48l0.11-1.46c0.26-3.44,2.24-6.46,5.3-8.07C6.61,11.61,7.06,11,7.2,10.28
			c0.48-2.44,2.12-4.49,4.4-5.49c0.96-0.42,2.01-0.64,3.06-0.64c0.24,0,0.47,0.01,0.71,0.03c0.08,0.01,0.16,0.01,0.24,0.01
			c0.65,0,1.25-0.26,1.68-0.72c1.76-1.89,4.24-2.98,6.82-2.98c3.55,0,6.74,1.97,8.33,5.15c0.33,0.67,0.94,1.14,1.68,1.3
			c1.07,0.24,2.08,0.65,3.02,1.24c4.22,2.66,5.68,8.18,3.31,12.57l-0.38,0.71H0.54z"/>
		<path class="st0" d="M24.11,1c3.36,0,6.38,1.87,7.88,4.88c0.4,0.8,1.14,1.37,2.02,1.57c1.01,0.22,1.97,0.62,2.86,1.18
			c4,2.52,5.38,7.75,3.14,11.91l-0.24,0.45H1.08l0.07-0.92c0.24-3.27,2.12-6.14,5.03-7.66c0.79-0.42,1.35-1.15,1.52-2.01
			C8.14,8.1,9.68,6.19,11.8,5.25c0.9-0.4,1.88-0.6,2.86-0.6c0.22,0,0.44,0.01,0.66,0.03c0.1,0.01,0.19,0.01,0.29,0.01
			c0.79,0,1.52-0.31,2.04-0.88C19.31,2.03,21.67,1,24.11,1 M24.11,0c-2.72,0-5.34,1.14-7.19,3.14c-0.34,0.36-0.8,0.56-1.31,0.56
			c-0.06,0-0.13,0-0.19-0.01c-0.25-0.02-0.51-0.04-0.76-0.04c-1.11,0-2.24,0.24-3.26,0.68C8.98,5.4,7.23,7.59,6.71,10.19
			c-0.11,0.56-0.48,1.05-1,1.32c-3.22,1.69-5.3,4.86-5.57,8.48l-0.07,0.92L0,21.98h1.08h38.68h0.6l0.28-0.53l0.24-0.45
			c2.49-4.62,0.96-10.43-3.48-13.23c-0.98-0.62-2.05-1.06-3.17-1.31c-0.59-0.13-1.08-0.51-1.34-1.04C31.21,2.08,27.85,0,24.11,0
			L24.11,0z"/>
	</g>
	<g>
		<g>
			<path class="st1" d="M36.87,8.62c-0.88-0.56-1.84-0.95-2.86-1.18c-0.88-0.2-1.62-0.77-2.02-1.57C30.49,2.87,27.47,1,24.11,1
				c-2.44,0-4.8,1.03-6.46,2.82c-0.59,0.64-1.44,0.95-2.33,0.87c-1.2-0.11-2.41,0.08-3.52,0.57C9.68,6.19,8.14,8.1,7.7,10.38
				c-0.17,0.86-0.72,1.6-1.52,2.01c-2.91,1.53-4.79,4.39-5.03,7.66l-0.07,0.92h5.41H6.7h11c-0.66-0.47-1.24-1.05-1.71-1.72H6.7H6.49
				H2.98c0.45-2.28,1.89-4.24,4-5.35c1.26-0.66,2.13-1.83,2.4-3.2c0.34-1.73,1.5-3.18,3.11-3.89c0.84-0.37,1.76-0.52,2.66-0.43
				c1.43,0.14,2.8-0.38,3.76-1.41c1.34-1.44,3.23-2.27,5.2-2.27c0.76,0,1.49,0.12,2.18,0.34v6.53l-1.23-1.2l-1.2,1.23l3.29,3.23
				l3.29-3.23l-1.2-1.23L28.01,9.6V3.89c1.02,0.67,1.87,1.61,2.44,2.76c0.63,1.27,1.79,2.17,3.19,2.48c0.82,0.18,1.6,0.5,2.31,0.95
				c3.1,1.95,4.25,5.9,2.76,9.19H21.74c-2.22,0-4.03-1.83-4.03-4.08H17.7v-4.35l2.79,2.81l1.22-1.21l-4.85-4.68l-4.94,4.66
				l1.18,1.25l2.89-2.72v4.24H16c0,3.2,2.58,5.8,5.75,5.8h18.01L40,20.53C42.25,16.37,40.87,11.14,36.87,8.62z M27.15,10.44
				L27.15,10.44L27.15,10.44L27.15,10.44z"/>
		</g>
	</g>
</g>
</svg>
