<?xml version="1.0" encoding="utf-8"?>
<!-- Generator: Adobe Illustrator 24.0.2, SVG Export Plug-In . SVG Version: 6.00 Build 0)  -->
<svg version="1.1" id="Layer_1" xmlns="http://www.w3.org/2000/svg" xmlns:xlink="http://www.w3.org/1999/xlink" x="0px" y="0px"
	 viewBox="0 0 30.28 42" style="enable-background:new 0 0 30.28 42;" xml:space="preserve">
<style type="text/css">
	.st0{fill:#FFFFFF;}
	.st1{fill:#2C5967;}
</style>
<g>
	<g>
		<g>
			<g>
				<path class="st0" d="M2.45,41.5c-1.09,0-1.88-0.63-1.88-1.5V29.2h29.15V40c0,0.87-0.79,1.5-1.88,1.5H2.45z"/>
				<path class="st0" d="M29.21,29.7V40c0,0.59-0.57,1-1.38,1H2.45c-0.81,0-1.38-0.41-1.38-1V29.7H29.21 M30.21,28.7h-1H1.07h-1v1
					V40c0,1.16,1,2,2.38,2h25.38c1.38,0,2.38-0.84,2.38-2V29.7V28.7L30.21,28.7z"/>
			</g>
			<g>
				<path class="st0" d="M0.57,29.09l3.6-26.71C4.31,1.31,5.24,0.5,6.32,0.5h17.63c1.09,0,2.01,0.81,2.15,1.89l3.6,26.7H0.57z"/>
				<path class="st0" d="M23.96,1c0.84,0,1.55,0.63,1.65,1.45l3.53,26.14H1.14L4.67,2.45C4.78,1.63,5.49,1,6.32,1H23.96 M23.96,0
					H6.32C4.99,0,3.85,1,3.68,2.32L0.15,28.46L0,29.59h1.14h27.99h1.14l-0.15-1.13L26.6,2.32C26.43,1,25.29,0,23.96,0L23.96,0z"/>
			</g>
		</g>
		<g>
			<path class="st1" d="M1.07,29.7V40c0,0.59,0.57,1,1.38,1h25.38c0.81,0,1.38-0.41,1.38-1V29.7H1.07z M27.73,39.52H2.55v-8.33
				h25.19V39.52z"/>
			<circle class="st1" cx="24.03" cy="35.25" r="1.3"/>
			<circle class="st1" cx="18.1" cy="35.25" r="1.3"/>
			<circle class="st1" cx="12.18" cy="35.25" r="1.3"/>
			<circle class="st1" cx="6.25" cy="35.25" r="1.3"/>
			<path class="st1" d="M25.61,2.45C25.5,1.62,24.79,1,23.96,1H6.32C5.49,1,4.78,1.62,4.67,2.45L1.14,28.59h27.99L25.61,2.45z
				 M6.14,2.64c0.01-0.09,0.09-0.16,0.18-0.16h17.63c0.09,0,0.17,0.07,0.18,0.17l3.3,24.46H2.84L6.14,2.64z"/>
			<path class="st1" d="M22.2,21.23l2.97-2.98l-2.97-2.98l-1.05,1.04l1.17,1.18h-3.11V13.3c0-0.86-0.7-1.56-1.56-1.56h-4.18V8.64
				l1.1,1.1l1.04-1.05l-2.98-2.97L9.66,8.68l1.04,1.05l1.29-1.28v3.29H8.7l1.17-1.18L8.82,9.52L5.85,12.5l2.97,2.98l1.05-1.04
				l-1.21-1.22h3.33v4.18c0,0.86,0.7,1.56,1.56,1.56h4.18v3.33l-1.29-1.28l-1.04,1.05l2.98,2.97l2.98-2.97l-1.04-1.05l-1.1,1.1
				v-3.15h3.15l-1.21,1.22L22.2,21.23z M13.55,17.48c-0.04,0-0.08-0.04-0.08-0.08v-4.18h4.18c0.04,0,0.08,0.04,0.08,0.08v4.18H13.55
				z"/>
		</g>
	</g>
</g>
</svg>
