<?xml version="1.0" encoding="utf-8"?>
<!-- Generator: Adobe Illustrator 22.0.1, SVG Export Plug-In . SVG Version: 6.00 Build 0)  -->
<svg version="1.1" id="Icons" xmlns="http://www.w3.org/2000/svg" xmlns:xlink="http://www.w3.org/1999/xlink" x="0px" y="0px"
	 viewBox="0 0 288 288" style="enable-background:new 0 0 288 288;" xml:space="preserve">
<style type="text/css">
	.st0{fill:#F80000;}
</style>
<g>
	<path class="st0" d="M121.7,161.3c3.8,4.9,9.4,8.9,16,10.4c-2.6-3-4.8-6.6-6.4-10.4H121.7z"/>
	<path class="st0" d="M142.8,172.4v-11.2h-8.1C136.7,165.7,139.5,169.5,142.8,172.4z"/>
	<path class="st0" d="M133.4,158.2h9.4v-12.5h-11.7C131.2,150.1,132.1,154.3,133.4,158.2z"/>
	<path class="st0" d="M160.7,142.6h8.6c0.5-1.4,1.6-2.5,3-3c-0.5-3.4-1.6-6.6-3.3-9.5l-10.5,0C159.8,133.9,160.5,138.2,160.7,142.6z
		"/>
	<path class="st0" d="M166.9,126.9c-3.8-4.9-9.4-8.9-16-10.4c2.6,3,4.8,6.6,6.4,10.4H166.9z"/>
	<path class="st0" d="M131.1,142.6h11.7V130h-9.4C132.1,133.9,131.2,138.2,131.1,142.6z"/>
	<circle class="st0" cx="144.5" cy="186.8" r="1.5"/>
	<path class="st0" d="M137.8,116.5c-6.6,1.5-12.3,5.5-16,10.4h9.6C133,123.1,135.2,119.5,137.8,116.5z"/>
	<path class="st0" d="M118.7,142.6h9.3c0.1-4.4,0.9-8.6,2.2-12.5l-10.5,0c-1.7,3-2.8,6.3-3.3,9.8
		C117.4,140.5,118.3,141.4,118.7,142.6z"/>
	<path class="st0" d="M114.1,142.5c-0.9,0-1.6,0.7-1.6,1.6c0,0.9,0.7,1.6,1.6,1.6c0.9,0,1.6-0.7,1.6-1.6
		C115.8,143.2,115,142.5,114.1,142.5z"/>
	<path class="st0" d="M128,145.6h-9.4c-0.4,1.2-1.2,2.1-2.3,2.7c0.5,3.5,1.6,6.9,3.3,9.8l10.5,0C128.9,154.3,128.2,150,128,145.6z"
		/>
	<path class="st0" d="M134.7,126.9h8.1v-11.2C139.5,118.7,136.7,122.5,134.7,126.9z"/>
	<path class="st0" d="M145.2,89.4c-30.2,0-54.7,24.5-54.7,54.7c0,30.2,24.5,54.7,54.7,54.7c30.2,0,54.7-24.5,54.7-54.7
		C199.9,113.9,175.4,89.4,145.2,89.4z M144.5,191.5c-2.1,0-3.8-1.4-4.4-3.3c-22.4-2.2-40-21.1-40-44.1h3.2
		c0,21.2,16.2,38.8,36.9,40.9c0.7-1.7,2.4-2.9,4.3-2.9c2.6,0,4.7,2.1,4.7,4.7C149.2,189.4,147.1,191.5,144.5,191.5z M175.4,148.6
		c-2.2,15.2-15.2,26.9-31,26.9c-15.8,0-28.8-11.6-31-26.7c-2.3-0.4-4.1-2.3-4.1-4.7c0-2.4,1.8-4.3,4.1-4.7
		c2.3-15.1,15.3-26.7,31-26.7c15.8,0,28.9,11.7,31,26.9c1.9,0.7,3.2,2.4,3.2,4.5C178.7,146.2,177.3,147.9,175.4,148.6z M148.7,103.2
		c-0.7,1.7-2.4,2.9-4.3,2.9c-2.6,0-4.7-2.1-4.7-4.7c0-2.6,2.1-4.7,4.7-4.7c2.1,0,3.8,1.4,4.4,3.3c22.4,2.2,40,21.1,40,44.1h-3.2
		C185.6,122.9,169.4,105.3,148.7,103.2z"/>
	<path class="st0" d="M169.3,145.6h-8.6c-0.1,4.4-0.9,8.6-2.2,12.5l10.5,0c1.7-2.9,2.7-6.1,3.3-9.5
		C170.9,148.1,169.8,147,169.3,145.6z"/>
	<path class="st0" d="M173.8,142.5c-0.9,0-1.6,0.7-1.6,1.6c0,0.9,0.7,1.6,1.6,1.6c0.9,0,1.6-0.7,1.6-1.6
		C175.4,143.2,174.7,142.5,173.8,142.5z"/>
	<circle class="st0" cx="144.4" cy="101.4" r="1.5"/>
	<path class="st0" d="M157.6,145.6h-11.7v12.5h9.4C156.6,154.3,157.4,150.1,157.6,145.6z"/>
	<path class="st0" d="M155.2,130h-9.4v12.5h11.7C157.4,138.2,156.6,133.9,155.2,130z"/>
	<path class="st0" d="M145.9,115.8v11.2h8.1C152,122.5,149.2,118.7,145.9,115.8z"/>
	<path class="st0" d="M145.9,161.3v11.2c3.3-3,6.1-6.8,8.1-11.2H145.9z"/>
	<path class="st0" d="M150.9,171.7c6.6-1.5,12.3-5.5,16-10.4h-9.6C155.7,165.1,153.5,168.7,150.9,171.7z"/>
</g>
</svg>
