<?xml version="1.0" encoding="utf-8"?>
<!-- Generator: Adobe Illustrator 24.0.2, SVG Export Plug-In . SVG Version: 6.00 Build 0)  -->
<svg version="1.1" id="Layer_1" xmlns="http://www.w3.org/2000/svg" xmlns:xlink="http://www.w3.org/1999/xlink" x="0px" y="0px"
	 viewBox="0 0 42 42" style="enable-background:new 0 0 42 42;" xml:space="preserve">
<g>
	<g>
		<path style="fill:#FFFFFF;" d="M2.7,41.5c-1.2,0-2.2-1-2.2-2.2V2.7c0-1.2,1-2.2,2.2-2.2h36.7c1.2,0,2.2,1,2.2,2.2v36.7
			c0,1.2-1,2.2-2.2,2.2H2.7z"/>
		<path style="fill:#FFFFFF;" d="M39.3,1C40.3,1,41,1.7,41,2.7v36.7c0,0.9-0.7,1.7-1.7,1.7H2.7C1.7,41,1,40.3,1,39.3V2.7
			C1,1.7,1.7,1,2.7,1H39.3 M39.3,0H2.7C1.2,0,0,1.2,0,2.7v36.7C0,40.8,1.2,42,2.7,42h36.7c1.5,0,2.7-1.2,2.7-2.7V2.7
			C42,1.2,40.8,0,39.3,0L39.3,0z"/>
	</g>
	<g>
		<path style="fill:#FFFFFF;" d="M39.3,2.7H2.7v36.7h36.7L39.3,2.7z M29,28.8l-0.6-0.6l0,0l0,0l-0.6-0.6l1.1-1.1l-1.3-1.3l-1.1,1.1
			l-0.6-0.6h0h0l-0.6-0.6l1.1-1.1l-1.2-1.2l1.2-1.2l7.5,7.5l-4.7,4.6l-7.5-7.5l1.2-1.2l6.3,6.3l2.3-2.3l-1.5-1.5L29,28.8z
			 M16.7,16.5l-0.6-0.6l0,0l0,0l-0.6-0.6l1.1-1.1l-1.5-1.5L14,13.8l-0.6-0.6l0,0l0,0l-0.6-0.6l1.1-1.1l-1.4-1.4l-2.3,2.3l6.3,6.4
			l-1.2,1.2l-7.5-7.5l4.7-4.6l7.5,7.5l-1.2,1.2l-1.1-1.1L16.7,16.5z M10.7,26.4L10.7,26.4L10.7,26.4L10.7,26.4L10.7,26.4L29.3,7.8
			l4.7,4.6L15.4,31l0,0l0,0l-6.7,2.1L10.7,26.4z"/>
		<path style="fill:#2C5967;" d="M39.3,1H2.7C1.7,1,1,1.7,1,2.7v36.7C1,40.3,1.7,41,2.7,41h36.7c0.9,0,1.7-0.7,1.7-1.7V2.7
			C41,1.7,40.3,1,39.3,1z M2.7,2.7h36.7l0,36.7H2.7V2.7z"/>
		<path style="fill:#2C5967;" d="M29.3,31.5L23,25.2l-1.2,1.2l7.5,7.5l4.7-4.6l-7.5-7.5l-1.2,1.2l1.2,1.2l-1.1,1.1l0.6,0.6l0.6,0.6
			l1.1-1.1l1.3,1.3l-1.1,1.1l0.6,0.6l0.6,0.6l1.1-1.1l1.5,1.5L29.3,31.5z M27.7,24.1L27.7,24.1L27.7,24.1z"/>
		<path style="fill:#2C5967;" d="M20,15.3l-7.5-7.5l-4.7,4.6l7.5,7.5l1.2-1.2l-6.3-6.4l2.3-2.3l1.4,1.4l-1.1,1.1l0.6,0.6l0.6,0.6
			l1.1-1.1l1.5,1.5l-1.1,1.1l0.6,0.6l0.6,0.6l1.1-1.1l1.1,1.1L20,15.3z M17.8,14.2L17.8,14.2L17.8,14.2z"/>
		
			<line style="fill:none;stroke:#FFFFFF;stroke-width:0;stroke-linecap:round;stroke-linejoin:round;" x1="13.4" y1="13.2" x2="13.4" y2="13.2"/>
		
			<line style="fill:none;stroke:#FFFFFF;stroke-width:0;stroke-linecap:round;stroke-linejoin:round;" x1="16.1" y1="15.9" x2="16.1" y2="15.9"/>
		
			<line style="fill:none;stroke:#FFFFFF;stroke-width:0;stroke-linecap:round;stroke-linejoin:round;" x1="17.8" y1="14.2" x2="17.8" y2="14.2"/>
		
			<line style="fill:none;stroke:#FFFFFF;stroke-width:0;stroke-linecap:round;stroke-linejoin:round;" x1="25.9" y1="25.8" x2="25.9" y2="25.8"/>
		
			<line style="fill:none;stroke:#FFFFFF;stroke-width:0;stroke-linecap:round;stroke-linejoin:round;" x1="27.7" y1="24.1" x2="27.7" y2="24.1"/>
		
			<line style="fill:none;stroke:#FFFFFF;stroke-width:0;stroke-linecap:round;stroke-linejoin:round;" x1="28.4" y1="28.2" x2="28.4" y2="28.2"/>
		<polygon style="fill:#FFFFFF;" points="29.8,14.2 31.6,12.4 29.3,10.1 27.5,11.9 		"/>
		<polygon style="fill:#FFFFFF;" points="13.1,26.4 15.4,28.6 28.6,15.4 26.3,13.1 		"/>
		<polygon style="fill:#FFFFFF;" points="14.1,29.7 12.1,27.7 11.2,30.6 		"/>
		<path style="fill:#2C5967;" d="M15.4,31L15.4,31L15.4,31L34,12.4l-4.7-4.6L10.8,26.3l0,0l0,0l0,0l0,0l-2,6.7L15.4,31z M31.6,12.4
			l-1.8,1.8l-2.3-2.3l1.8-1.8L31.6,12.4z M26.3,13.1l2.3,2.3L15.4,28.6l-2.3-2.3L26.3,13.1z M12.1,27.7l2,2l-2.9,0.9L12.1,27.7z"/>
	</g>
</g>
</svg>
