<?xml version="1.0" encoding="utf-8"?>
<!-- Generator: Adobe Illustrator 24.0.2, SVG Export Plug-In . SVG Version: 6.00 Build 0)  -->
<svg version="1.1" id="Layer_1" xmlns="http://www.w3.org/2000/svg" xmlns:xlink="http://www.w3.org/1999/xlink" x="0px" y="0px"
	 viewBox="0 0 42 42" style="enable-background:new 0 0 42 42;" xml:space="preserve">
<style type="text/css">
	.st0{fill:#FFFFFF;}
	.st1{fill:#2C5967;}
</style>
<g>
	<g>
		<polygon class="st0" points="0.5,41.5 0.5,6.8 6.06,6.8 6.06,0.5 18.17,0.5 18.17,4.57 21.5,4.57 21.5,7.06 18.17,7.06 
			18.17,11.24 21.5,11.24 21.5,13.72 18.17,13.72 18.17,17.8 6.06,17.8 6.06,11.87 5.57,11.87 5.57,36.43 36.43,36.43 36.43,11.87 
			35.94,11.87 35.94,17.8 22.91,17.8 22.91,12.72 26.24,12.72 26.24,12.24 22.91,12.24 22.91,6.06 26.24,6.06 26.24,5.57 
			22.91,5.57 22.91,0.5 35.94,0.5 35.94,6.8 41.5,6.8 41.5,41.5 		"/>
		<path class="st0" d="M35.44,1v6.3H41V41H1V7.3h5.56V1h11.11v4.07H21v1.48h-3.33v5.19H21v1.48h-3.33v4.07H6.56v-5.93H5.07v25.56
			h31.85V11.37h-1.48v5.93H23.41v-4.07h3.33v-1.48h-3.33V6.56h3.33V5.07h-3.33V1H35.44 M36.44,0h-1H23.41h-1v1v4.07v1v0.48v5.19v1
			v0.48v4.07v1h1h12.04h0.48v17.63H6.07V18.3h0.48h11.11h1v-1v-3.07H21h1v-1v-1.48v-1h-1h-2.33V7.56H21h1v-1V5.07v-1h-1h-2.33V1V0
			h-1H6.56h-1v1v5.3H1H0v1V41v1h1h40h1v-1V7.3v-1h-1h-4.56V1V0L36.44,0z"/>
	</g>
	<g>
		<path class="st1" d="M35.44,7.3V1H23.41v4.07h3.33v1.48h-3.33v5.19h3.33v1.48h-3.33v4.07h12.04v-5.93h1.48v25.56H5.07V11.37h1.48
			v5.93h11.11v-4.07H21v-1.48h-3.33V6.56H21V5.07h-3.33V1H6.56v6.3H1V41h40V7.3H35.44z M33.96,15.81h-9.07V14.7h3.33v-4.44h-3.33
			V8.04h3.33V3.59h-3.33V2.48h9.07V15.81z M16.19,15.81H8.04V2.48h8.15V15.81z M16.93,12.48L16.93,12.48L16.93,12.48z M16.93,5.81
			L16.93,5.81L16.93,5.81z M39.52,39.52H2.48V8.78h4.07v1.11H3.59v28.52h34.81V9.89h-2.96V8.78h4.07V39.52z"/>
	</g>
</g>
</svg>
