<?xml version="1.0" encoding="utf-8"?>
<!-- Generator: Adobe Illustrator 24.0.2, SVG Export Plug-In . SVG Version: 6.00 Build 0)  -->
<svg version="1.1" id="Layer_1" xmlns="http://www.w3.org/2000/svg" xmlns:xlink="http://www.w3.org/1999/xlink" x="0px" y="0px"
	 viewBox="0 0 39.8 42" style="enable-background:new 0 0 39.8 42;" xml:space="preserve">
<g>
	<g>
		<path style="fill:#FFFFFF;" d="M8,41.5c-1.2,0-2.4-0.1-3.4-0.3c-0.3-0.1-0.6-0.1-0.8-0.2c-0.3-0.1-0.5-0.1-0.7-0.2
			c-0.5-0.2-0.9-0.4-1.2-0.6c-0.9-0.5-1.3-1.2-1.3-2v-8.4c0-0.8,0.4-1.5,1.3-2c0.2-0.1,0.4-0.2,0.6-0.3c0.2-0.1,0.4-0.2,0.7-0.3
			c0.5-0.2,1-0.3,1.6-0.4c0.4-0.1,0.9-0.2,1.5-0.2v-7.8H0.6l0.1-1.3c0.2-3,1.9-5.6,4.6-7c0.5-0.3,0.9-0.8,1-1.4
			c0.4-2.1,1.8-3.9,3.8-4.8c0.8-0.4,1.8-0.6,2.7-0.6c0.2,0,0.4,0,0.6,0c0.1,0,0.1,0,0.2,0c0.5,0,1-0.2,1.4-0.6
			c1.5-1.6,3.7-2.6,5.9-2.6c2.8,0,5.4,1.4,6.9,3.9l0.9,0.8c0.1,0,0.3,0,0.3,0c0.3,0,0.6,0,0.9,0.1l0.2,0c0.3,0,0.5,0.1,0.7,0.1
			l0.2,0.1c0.3,0.1,0.5,0.2,0.8,0.3c0.3,0.1,0.6,0.3,0.9,0.4c0.3,0.2,0.5,0.3,0.7,0.5l0.1,0.1c0.2,0.2,0.4,0.3,0.6,0.5l0.1,0.1
			c0.2,0.2,0.4,0.4,0.6,0.6c0.2,0.2,0.3,0.4,0.5,0.7l0.1,0.1l0.2,0.3l0,0c0.2,0.4,0.4,0.9,0.6,1.4l2.9,2.9L37.4,15l-1-1
			c0,0.1-0.1,0.5-0.1,0.5c0,0.1-0.1,0.3-0.1,0.4L36,15.1c-0.1,0.1-0.1,0.3-0.2,0.4l-0.1,0.2c-0.1,0.1-0.1,0.3-0.2,0.4l-0.1,0.2
			c-0.1,0.1-0.2,0.3-0.3,0.4L35,16.9c-0.1,0.1-0.2,0.3-0.3,0.4l-0.1,0.1c-0.2,0.2-0.3,0.3-0.4,0.4l-0.1,0.1
			c-0.2,0.1-0.3,0.3-0.4,0.4l-0.1,0.1c-0.2,0.1-0.3,0.2-0.4,0.3l-0.1,0.1c-0.2,0.1-0.3,0.2-0.5,0.3l-0.2,0.1
			c-0.2,0.1-0.3,0.2-0.4,0.2c-0.1,0-0.1,0-0.2,0.1l-0.3-0.4l0.2,0.5c-0.1,0-0.2,0.1-0.3,0.1c-0.1,0-0.1,0-0.2,0.1
			c0,0-0.3,0.1-0.3,0.1v14.2h0.9l1.9,0.9v1.5h-18v1.9c0,0.8-0.4,1.5-1.3,2c-0.4,0.3-1,0.5-1.6,0.7c-0.1,0-0.3,0.1-0.4,0.1
			c-0.3,0.1-0.5,0.1-0.8,0.2C10.4,41.4,9.3,41.5,8,41.5z"/>
		<path style="fill:#FFFFFF;" d="M21,1c2.7,0,5.1,1.4,6.5,3.7l1.1,1c0.2,0,0.3,0,0.5,0c0,0,0,0,0,0c0,0,0,0,0,0s0,0,0,0c0,0,0,0,0,0
			c0.3,0,0.5,0,0.8,0.1c0.1,0,0.1,0,0.2,0c0.2,0,0.4,0.1,0.6,0.1c0.1,0,0.1,0,0.2,0C31.3,6,31.5,6,31.7,6.1c0,0,0,0,0,0
			c0.3,0.1,0.5,0.2,0.8,0.4c0,0,0,0,0,0c0.2,0.1,0.4,0.3,0.6,0.4c0,0,0.1,0.1,0.1,0.1c0.2,0.1,0.4,0.3,0.5,0.5c0,0,0.1,0.1,0.1,0.1
			c0.2,0.2,0.4,0.4,0.6,0.6c0,0,0,0,0,0c0.2,0.2,0.3,0.4,0.4,0.6c0,0,0,0,0.1,0.1l0,0c0.3,0.5,0.6,1.1,0.8,1.7l2.6,2.6l-1,1L36,13
			c0,0,0,0.1,0,0.1c0,0.1,0,0.3,0,0.4c0,0.1,0,0.2,0,0.3c0,0.1-0.1,0.3-0.1,0.4c0,0.1,0,0.2-0.1,0.3c0,0.1-0.1,0.3-0.1,0.4
			c0,0.1-0.1,0.1-0.1,0.2c-0.1,0.1-0.1,0.3-0.2,0.4c0,0.1-0.1,0.1-0.1,0.2c-0.1,0.1-0.1,0.3-0.2,0.4c0,0.1-0.1,0.1-0.1,0.2
			c-0.1,0.1-0.2,0.3-0.3,0.4c0,0-0.1,0.1-0.1,0.1c-0.1,0.1-0.2,0.2-0.3,0.4c0,0-0.1,0.1-0.1,0.1c-0.1,0.1-0.2,0.2-0.3,0.3
			c0,0-0.1,0.1-0.1,0.1c-0.1,0.1-0.2,0.2-0.4,0.3c0,0-0.1,0.1-0.1,0.1c-0.1,0.1-0.2,0.2-0.4,0.3c-0.1,0-0.1,0.1-0.2,0.1
			c-0.1,0.1-0.3,0.2-0.4,0.2c-0.1,0-0.1,0.1-0.2,0.1c-0.1,0.1-0.3,0.1-0.4,0.2c-0.1,0-0.2,0.1-0.2,0.1c-0.1,0-0.2,0.1-0.4,0.1
			c-0.1,0-0.2,0.1-0.3,0.1c-0.1,0-0.2,0.1-0.3,0.1c-0.1,0-0.2,0-0.2,0v15.1h1.3l1.5,0.7v0.7h-1.5v0H15.1v2.4c0,0.6-0.4,1.1-1.1,1.6
			c-0.4,0.3-0.9,0.5-1.5,0.6c-0.1,0-0.2,0.1-0.4,0.1c-0.2,0.1-0.5,0.1-0.8,0.2C10.3,40.9,9.2,41,8,41c-1.2,0-2.3-0.1-3.3-0.3
			c-0.3-0.1-0.5-0.1-0.8-0.2s-0.5-0.1-0.7-0.2c-0.4-0.2-0.8-0.3-1.1-0.5c-0.7-0.4-1.1-1-1.1-1.6v-8.4c0-0.6,0.4-1.1,1.1-1.6
			c0.2-0.1,0.3-0.2,0.5-0.3c0.2-0.1,0.4-0.2,0.6-0.3c0.4-0.2,0.9-0.3,1.5-0.4C5.3,27.1,5.9,27,6.6,27v-8.8H1.2l0.1-0.8
			c0.2-2.8,1.8-5.3,4.3-6.6c0.7-0.4,1.2-1,1.3-1.7c0.4-2,1.7-3.6,3.5-4.4c0.8-0.3,1.6-0.5,2.5-0.5c0.2,0,0.4,0,0.6,0
			c0.1,0,0.2,0,0.2,0c0.7,0,1.3-0.3,1.8-0.8C16.9,1.9,18.9,1,21,1 M21,0c-2.4,0-4.7,1-6.3,2.7c-0.3,0.3-0.6,0.4-1,0.4
			c0,0-0.1,0-0.2,0c-0.2,0-0.4,0-0.7,0c-1,0-2,0.2-2.9,0.6C7.9,4.7,6.4,6.6,5.9,8.9c-0.1,0.4-0.4,0.8-0.8,1
			c-2.8,1.5-4.6,4.3-4.9,7.4l-0.1,0.8l-0.1,1.1h1.1h4.4v6.9c-0.4,0-0.7,0.1-1.1,0.2c-0.6,0.1-1.1,0.3-1.6,0.4
			c-0.3,0.1-0.5,0.2-0.7,0.3c-0.2,0.1-0.4,0.2-0.6,0.3C0.3,28.1,0,29.1,0,29.7v8.4c0,0.7,0.3,1.6,1.6,2.4c0.4,0.2,0.8,0.5,1.3,0.6
			c0.2,0.1,0.5,0.2,0.8,0.2c0.3,0.1,0.6,0.1,0.9,0.2C5.6,41.9,6.8,42,8,42c1.3,0,2.4-0.1,3.5-0.3c0.3-0.1,0.6-0.1,0.9-0.2
			c0.1,0,0.3-0.1,0.4-0.1c0.7-0.2,1.2-0.5,1.7-0.8c1.3-0.8,1.5-1.8,1.5-2.4v-1.4h15.5l1.5,0l1,0v-1v-0.7v-0.6l-0.6-0.3L32,33.4
			l-0.2-0.1h-0.2h-0.3V20c0.1,0,0.1,0,0.2,0c0.1,0,0.2-0.1,0.4-0.1l0.1,0l0.1,0c0.1,0,0.1,0,0.2-0.1c0.1-0.1,0.3-0.1,0.4-0.2l0.1,0
			c0.1,0,0.1-0.1,0.2-0.1c0.1-0.1,0.3-0.2,0.4-0.3l0.1,0c0,0,0.1-0.1,0.1-0.1c0.1-0.1,0.3-0.2,0.4-0.3l0,0c0,0,0.1-0.1,0.1-0.1
			c0.1-0.1,0.3-0.2,0.4-0.3c0.1-0.1,0.1-0.1,0.1-0.1c0.1-0.1,0.3-0.2,0.4-0.4l0,0l0.1-0.1c0.1-0.1,0.2-0.3,0.3-0.4l0.1-0.2
			c0.1-0.1,0.2-0.3,0.3-0.4c0-0.1,0.1-0.1,0.1-0.2c0.1-0.1,0.2-0.3,0.2-0.4c0-0.1,0.1-0.1,0.1-0.2c0.1-0.1,0.1-0.3,0.2-0.4
			c0-0.1,0.1-0.2,0.1-0.3c0,0,0-0.1,0-0.1l0,0l0.7,0.7l0.7-0.7l1-1l0.7-0.7l-0.7-0.7l-2.5-2.5c-0.1-0.4-0.3-0.7-0.4-1l0,0l-0.4-0.7
			l0,0l-0.1-0.1c-0.1-0.2-0.3-0.4-0.5-0.7l0,0c-0.2-0.2-0.4-0.5-0.6-0.7l-0.1-0.1c-0.2-0.2-0.4-0.4-0.6-0.5l-0.1-0.1
			c-0.3-0.2-0.5-0.3-0.7-0.5c-0.3-0.2-0.6-0.3-0.9-0.4l0,0l0,0c-0.2-0.1-0.5-0.2-0.8-0.3c-0.1,0-0.1,0-0.2-0.1
			c-0.3-0.1-0.5-0.1-0.7-0.1l-0.1,0c-0.1,0-0.1,0-0.2,0c-0.3,0-0.6-0.1-0.9-0.1l0,0h-0.1h0l0,0c0,0-0.1,0-0.1,0L28.3,4
			C26.7,1.5,24,0,21,0L21,0z"/>
	</g>
	<g>
		<path style="fill:#2C5967;" d="M26.3,5.1L26.3,5.1C26.4,5,26.4,5,26.5,5c0,0,0.1,0,0.1,0l0,0c0.1,0,0.2-0.1,0.2-0.1
			c0,0,0.1,0,0.1,0l0,0l0,0c0.1,0,0.1,0,0.2-0.1c0,0,0.1,0,0.1,0l0,0l0,0c0,0,0.1,0,0.1,0C26.2,2.4,23.7,1,21,1
			c-2.1,0-4.1,0.9-5.6,2.4c-0.5,0.5-1.2,0.8-2,0.7c-1-0.1-2.1,0.1-3,0.5C8.6,5.5,7.3,7.1,6.9,9.1c-0.1,0.7-0.6,1.4-1.3,1.7
			c-2.5,1.3-4.1,3.8-4.3,6.6l-0.1,0.8h4.3v-1.5H2.8c0.4-2,1.6-3.7,3.4-4.6c1.1-0.6,1.8-1.6,2.1-2.8C8.6,7.9,9.6,6.6,11,6
			c0.7-0.3,1.5-0.4,2.3-0.4c1.2,0.1,2.4-0.3,3.2-1.2c1.2-1.2,2.8-2,4.5-2c2.1,0,3.9,1,5,2.7C26.1,5.1,26.1,5.1,26.3,5.1
			C26.2,5.1,26.2,5.1,26.3,5.1z"/>
		<path style="fill:#2C5967;" d="M8.1,25.8v-11c3.2-1.7,6.5-2.5,9.8-2.6l0,0l0.9-0.9l0.6-0.6c-4.4-0.2-8.8,0.9-13,3.3l0.4,0.6h0
			l-0.4-0.6l-1.3,0.7l0.4,0.6l1.1-0.1v10.5C7.1,25.8,7.5,25.8,8.1,25.8C8,25.8,8.1,25.8,8.1,25.8z"/>
		<path style="fill:#2C5967;" d="M30.3,20.4c-0.1,0-0.2,0-0.3,0c0,0-0.1,0-0.1,0l0,0l0,0c-0.1,0-0.1,0-0.2,0c-0.1,0-0.2,0-0.3,0
			c0,0,0,0-0.1,0l0,0l0,0c-0.1,0-0.2,0-0.3,0v13.9h-1.5V22.5h-8.1v11.9h-1.5V22.5H9.6v3.4c0.5,0,1,0.1,1.5,0.2V24h5.2v2.6h-3
			c0.5,0.2,0.9,0.4,1.3,0.6c0.5,0.3,0.8,0.6,1.1,0.9h0.7v2.4h0v1.5h0v2.4h0v1.5h15.4v0h1.5v-0.7l-1.5-0.7h-1.3L30.3,20.4
			C30.3,20.4,30.3,20.4,30.3,20.4L30.3,20.4z M25.9,30.4h-5.2V28h5.2V30.4z M25.9,24v2.6h-5.2V24H25.9z M20.7,31.9h5.2v2.4h-5.2
			V31.9z"/>
		<path style="fill:#2C5967;" d="M17.7,15.4H9.6V21h8.1V15.4z M16.2,19.5H11v-2.6h5.2V19.5z"/>
		<path style="fill:#2C5967;" d="M19.2,21h8.1v-0.8c-0.7-0.2-1.3-0.4-1.9-0.7h-4.8v-2.6h1.9c0,0-0.1-0.1-0.1-0.1l0,0
			c0,0,0-0.1-0.1-0.1L22,15.9l0,0c-0.1-0.1-0.1-0.3-0.2-0.4h-2.6V21z"/>
		<path style="fill:#2C5967;" d="M29.9,8.6h-1.5l-2.1,7.1h1.5l0.3-1.5H30l0.3,1.5H32L29.9,8.6z M29.2,10.3l0.6,2.7h-1.2L29.2,10.3z"
			/>
		<path style="fill:#2C5967;" d="M36,13l1.3,1.3l1-1l-3.1-3.1l-3.1,3.1l1,1l1.3-1.3c-0.3,2.7-2.6,4.9-5.3,4.9c-2,0-3.8-1.1-4.7-2.8
			l-1.1,1.1c1.2,2,3.4,3.2,5.8,3.2C32.8,19.3,35.8,16.5,36,13z"/>
		<path style="fill:#2C5967;" d="M20,11.7l3.1,3.1l3.1-3.1l-1-1L23.8,12c0.3-2.7,2.6-4.9,5.3-4.9c2,0,3.8,1.1,4.7,2.8L35,8.9
			c-1.2-2-3.4-3.2-5.8-3.2c-3.6,0-6.6,2.8-6.8,6.4L21,10.7L20,11.7z"/>
		<path style="fill:#2C5967;" d="M15.1,29.7l0-0.1c0-0.1,0-0.1,0-0.2c0-0.1-0.1-0.3-0.2-0.4c0-0.1-0.1-0.1-0.1-0.2
			c-0.2-0.3-0.5-0.5-0.8-0.7c-0.2-0.1-0.3-0.2-0.5-0.3c-0.1,0-0.2-0.1-0.3-0.1c-0.4-0.2-0.9-0.3-1.4-0.4c-0.1,0-0.3-0.1-0.4-0.1
			c-1-0.2-2.1-0.3-3.3-0.3c-1.2,0-2.3,0.1-3.3,0.3c-0.6,0.1-1.1,0.2-1.5,0.4c-0.2,0.1-0.4,0.2-0.6,0.2c-0.2,0.1-0.4,0.2-0.5,0.3
			c-0.7,0.4-1.1,1-1.1,1.6v8.4c0,0.6,0.4,1.1,1.1,1.6c0.3,0.2,0.7,0.4,1.1,0.5c0.2,0.1,0.5,0.1,0.7,0.2c0.2,0.1,0.5,0.1,0.8,0.2
			C5.7,40.9,6.8,41,8,41c1.2,0,2.3-0.1,3.3-0.3c0.3-0.1,0.5-0.1,0.8-0.2c0.1,0,0.2-0.1,0.4-0.1c0.6-0.2,1.1-0.4,1.5-0.6
			c0.7-0.4,1.1-1,1.1-1.6V29.7z M2.5,29.7c0-0.1,0.2-0.2,0.4-0.4C3.2,29.2,3.5,29,4,28.9c0.5-0.2,1.1-0.3,1.8-0.4
			c0.7-0.1,1.5-0.2,2.4-0.2c0.9,0,1.7,0.1,2.4,0.2c0.7,0.1,1.2,0.2,1.8,0.4c0.4,0.1,0.8,0.3,1.1,0.5c0.2,0.1,0.4,0.3,0.4,0.4
			c0,0.1-0.1,0.2-0.4,0.4c-0.3,0.2-0.6,0.3-1.1,0.5c-0.5,0.2-1.1,0.3-1.8,0.4c-0.8,0.1-1.6,0.2-2.4,0.2c-0.9,0-1.7-0.1-2.4-0.2
			c-0.7-0.1-1.2-0.2-1.8-0.4c-0.4-0.1-0.8-0.3-1.1-0.5C2.6,30,2.5,29.8,2.5,29.7L2.5,29.7z M2.3,31.5c0.7,0.3,1.5,0.6,2.6,0.8
			c1,0.2,2,0.3,3.1,0.3l0.7,0l0.6,0l0.9-0.1c0.3,0,0.5-0.1,0.8-0.1l0.9-0.2l0.3-0.1c0.1,0,0.3-0.1,0.4-0.1l0.5-0.2l0.4-0.2l0.1,0
			l0.2-0.1V34c0,0.1-0.1,0.2-0.4,0.4c-0.3,0.2-0.6,0.3-1.1,0.5c-0.5,0.2-1.1,0.3-1.8,0.4c-0.8,0.1-1.6,0.2-2.4,0.2
			c-0.9,0-1.7-0.1-2.4-0.2c-0.7-0.1-1.2-0.2-1.8-0.4c-0.4-0.1-0.8-0.3-1.1-0.5c-0.2-0.1-0.4-0.3-0.4-0.4V31.5z M12.2,39
			c-0.5,0.2-1.1,0.3-1.8,0.4c-0.8,0.1-1.6,0.2-2.4,0.2c-0.9,0-1.7-0.1-2.4-0.2c-0.7-0.1-1.2-0.2-1.8-0.4c-0.4-0.1-0.8-0.3-1.1-0.5
			c-0.2-0.1-0.4-0.3-0.4-0.4v-2.4C3,36,3.8,36.3,4.9,36.5c1,0.2,2,0.3,3.1,0.3h0.7c1,0,1.9-0.1,2.8-0.2c0.9-0.2,1.6-0.4,2.2-0.7v2.3
			c0,0.1-0.1,0.2-0.4,0.4C13,38.7,12.6,38.8,12.2,39z"/>
	</g>
</g>
</svg>
