<?xml version="1.0" encoding="utf-8"?>
<!-- Generator: Adobe Illustrator 24.0.2, SVG Export Plug-In . SVG Version: 6.00 Build 0)  -->
<svg version="1.1" id="Layer_1" xmlns="http://www.w3.org/2000/svg" xmlns:xlink="http://www.w3.org/1999/xlink" x="0px" y="0px"
	 viewBox="0 0 45.33 42" style="enable-background:new 0 0 45.33 42;" xml:space="preserve">
<style type="text/css">
	.st0{fill:#FFFFFF;}
	.st1{fill:#2C5967;}
</style>
<g>
	<g>
		<g>
			<g>
				<circle class="st0" cx="22.67" cy="21" r="15.92"/>
				<path class="st0" d="M22.67,5.58c8.5,0,15.42,6.92,15.42,15.42c0,8.5-6.92,15.42-15.42,15.42c-8.5,0-15.42-6.92-15.42-15.42
					C7.25,12.5,14.17,5.58,22.67,5.58 M22.67,4.58C13.61,4.58,6.25,11.95,6.25,21c0,9.05,7.36,16.42,16.42,16.42
					c9.05,0,16.42-7.36,16.42-16.42C39.08,11.95,31.72,4.58,22.67,4.58L22.67,4.58z"/>
			</g>
			<g>
				<path class="st0" d="M22.67,41.5c-10.26,0-18.94-7.6-20.31-17.73C1.25,23.31,0.5,22.22,0.5,21c0-1.65,1.35-3,3-3s3,1.35,3,3
					c0,1.07-0.57,2.05-1.48,2.59c1.27,8.72,8.79,15.25,17.65,15.25h0.5v2.67H22.67z"/>
				<path class="st0" d="M3.5,18.5C4.88,18.5,6,19.62,6,21c0,1.03-0.63,1.92-1.52,2.3c1.14,9.03,8.86,16.03,18.19,16.03V41
					C12.45,41,4,33.3,2.81,23.4C1.77,23.1,1,22.14,1,21C1,19.62,2.12,18.5,3.5,18.5 M3.5,17.5C1.57,17.5,0,19.07,0,21
					c0,1.32,0.75,2.52,1.9,3.11C3.42,34.35,12.25,42,22.67,42h1v-1v-1.67v-1h-1c-8.5,0-15.74-6.19-17.1-14.51
					C6.45,23.18,7,22.13,7,21C7,19.07,5.43,17.5,3.5,17.5L3.5,17.5z"/>
			</g>
			<g>
				<path class="st0" d="M41.83,24c-1.65,0-3-1.35-3-3c0-1.07,0.57-2.05,1.48-2.59C39.04,9.7,31.52,3.17,22.67,3.17h-0.5V0.5h0.5
					c10.26,0,18.94,7.6,20.31,17.73c1.11,0.46,1.85,1.56,1.85,2.77C44.83,22.65,43.49,24,41.83,24z"/>
				<path class="st0" d="M22.67,1c10.22,0,18.67,7.7,19.86,17.6c1.04,0.3,1.81,1.26,1.81,2.4c0,1.38-1.12,2.5-2.5,2.5
					s-2.5-1.12-2.5-2.5c0-1.03,0.63-1.92,1.52-2.3C39.72,9.67,32,2.67,22.67,2.67V1 M22.67,0h-1v1v1.67v1h1
					c8.5,0,15.74,6.19,17.1,14.51c-0.89,0.65-1.44,1.69-1.44,2.83c0,1.93,1.57,3.5,3.5,3.5s3.5-1.57,3.5-3.5
					c0-1.32-0.75-2.52-1.9-3.11C41.91,7.65,33.09,0,22.67,0L22.67,0z"/>
			</g>
		</g>
		<g>
			<path class="st1" d="M22.67,5.58C14.17,5.58,7.25,12.5,7.25,21s6.92,15.42,15.42,15.42S38.08,29.5,38.08,21
				S31.17,5.58,22.67,5.58z M36.39,20.17H28.9c-0.17-4.61-1.7-9.07-4.4-12.79C30.95,8.24,35.99,13.58,36.39,20.17z M18.1,21.83h9.13
				c-0.18,4.53-1.77,8.89-4.57,12.46C19.87,30.73,18.28,26.36,18.1,21.83z M18.1,20.17c0.18-4.53,1.77-8.89,4.57-12.46
				c2.79,3.56,4.39,7.93,4.57,12.46H18.1z M20.83,7.38c-2.7,3.72-4.23,8.18-4.4,12.79H8.94C9.34,13.58,14.39,8.24,20.83,7.38z
				 M8.94,21.83h7.49c0.17,4.61,1.7,9.07,4.4,12.79C14.39,33.76,9.34,28.42,8.94,21.83z M24.5,34.62c2.7-3.72,4.23-8.18,4.4-12.79
				h7.49C35.99,28.42,30.95,33.76,24.5,34.62z"/>
			<path class="st1" d="M4.48,23.3C5.37,22.92,6,22.03,6,21c0-1.38-1.12-2.5-2.5-2.5S1,19.62,1,21c0,1.14,0.77,2.1,1.81,2.4
				C4,33.3,12.45,41,22.67,41v-1.67C13.34,39.33,5.61,32.33,4.48,23.3z M3.5,20.17c0.46,0,0.83,0.37,0.83,0.83s-0.37,0.83-0.83,0.83
				S2.67,21.46,2.67,21S3.04,20.17,3.5,20.17z"/>
			<path class="st1" d="M42.52,18.6C41.33,8.7,32.88,1,22.67,1v1.67c9.33,0,17.05,7.01,18.19,16.03c-0.89,0.38-1.52,1.27-1.52,2.3
				c0,1.38,1.12,2.5,2.5,2.5s2.5-1.12,2.5-2.5C44.33,19.86,43.57,18.9,42.52,18.6z M41.83,21.83C41.37,21.83,41,21.46,41,21
				s0.37-0.83,0.83-0.83c0.46,0,0.83,0.37,0.83,0.83S42.29,21.83,41.83,21.83z"/>
		</g>
	</g>
</g>
</svg>
