<?xml version="1.0" encoding="utf-8"?>
<!-- Generator: Adobe Illustrator 24.0.2, SVG Export Plug-In . SVG Version: 6.00 Build 0)  -->
<svg version="1.1" id="Layer_1" xmlns="http://www.w3.org/2000/svg" xmlns:xlink="http://www.w3.org/1999/xlink" x="0px" y="0px"
	 viewBox="0 0 37.84 42.14" style="enable-background:new 0 0 37.84 42.14;" xml:space="preserve">
<style type="text/css">
	.st0{fill:#FFFFFF;}
	.st1{fill:#2C5967;}
</style>
<g>
	<g>
		<g>
			<path class="st0" d="M5,40.94l-3.11-3.11l-0.63-1.87l1.56-1.63l2.89-2.89c0.95-0.95,1.97-1.83,3.03-2.63l3.14-2.36
				c-1.34-2.16-2.04-4.64-2.04-7.21c0-0.42,0.02-0.85,0.08-1.33H6.54c-0.49,1.14-1.63,1.91-2.89,1.91c-1.74,0-3.15-1.41-3.15-3.15
				s1.41-3.15,3.15-3.15c0.14,0,0.28,0.01,0.42,0.03l4.56-7.96C8.19,5.03,7.96,4.36,7.96,3.65c0-1.74,1.41-3.15,3.15-3.15
				s3.15,1.41,3.15,3.15c0,0.65-0.2,1.28-0.58,1.81l1.66,2.78c2.39-1.8,5.23-2.75,8.26-2.75c3.67,0,7.12,1.43,9.72,4.03
				c2.6,2.6,4.03,6.05,4.03,9.72s-1.43,7.12-4.03,9.72s-6.05,4.03-9.72,4.03c-2.57,0-5.05-0.7-7.21-2.04l-2.36,3.14
				c-0.8,1.07-1.69,2.09-2.63,3.03L8.51,40l-1.64,1.57L5,40.94z"/>
			<path class="st0" d="M11.11,1c1.46,0,2.65,1.19,2.65,2.65c0,0.68-0.26,1.3-0.68,1.77l2.13,3.57c2.36-1.94,5.3-3,8.39-3
				c3.54,0,6.86,1.38,9.37,3.88c2.5,2.5,3.88,5.83,3.88,9.37c0,3.54-1.38,6.86-3.88,9.37c-2.5,2.5-5.83,3.88-9.37,3.88
				c-2.65,0-5.18-0.77-7.33-2.21l-0.67,0.89l-1.97,2.63c-0.79,1.05-1.66,2.05-2.58,2.98l-2.88,2.88L6.75,41l-1.47-0.49l0,0
				l-2.94-2.94v0l0,0l-0.49-1.47l1.35-1.41l2.88-2.88C7,30.86,8,29.99,9.05,29.21l2.63-1.97l0.89-0.67
				c-1.44-2.15-2.21-4.69-2.21-7.34c0-0.62,0.06-1.23,0.14-1.83h-4.3c-0.32,1.1-1.34,1.91-2.54,1.91C2.19,19.31,1,18.12,1,16.66
				c0-1.46,1.19-2.65,2.65-2.65c0.23,0,0.46,0.03,0.67,0.09l4.92-8.58C8.76,5.04,8.46,4.38,8.46,3.65C8.46,2.19,9.65,1,11.11,1
				 M11.11,0C9.1,0,7.46,1.64,7.46,3.65c0,0.71,0.2,1.38,0.57,1.96l-4.24,7.4c-0.05,0-0.09,0-0.14,0C1.64,13.01,0,14.65,0,16.66
				c0,2.01,1.64,3.65,3.65,3.65c1.35,0,2.57-0.76,3.2-1.91h2.53c-0.02,0.29-0.03,0.56-0.03,0.83c0,2.51,0.65,4.94,1.88,7.08
				l-0.16,0.12l-2.63,1.97c-1.09,0.82-2.13,1.72-3.09,2.68l-2.88,2.88L1.11,35.4l-0.42,0.44l0.19,0.57l0.49,1.47l0.07,0.22
				l0.17,0.17l2.94,2.94l0.17,0.17l0.22,0.07l1.47,0.49L7,42.14l0.44-0.42l1.41-1.35l2.9-2.9c0.96-0.96,1.86-2,2.68-3.09l1.97-2.63
				l0.12-0.16c2.14,1.23,4.57,1.88,7.08,1.88c3.81,0,7.38-1.48,10.07-4.17c2.69-2.69,4.17-6.27,4.17-10.07
				c0-3.81-1.48-7.38-4.17-10.07C30.98,6.47,27.4,4.99,23.6,4.99c-2.95,0-5.73,0.87-8.11,2.53l-1.22-2.05
				c0.32-0.55,0.49-1.18,0.49-1.82C14.76,1.64,13.12,0,11.11,0L11.11,0z"/>
		</g>
		<g>
			<path class="st1" d="M6.19,15.92c-0.12-0.4-0.32-0.76-0.6-1.06l4.95-8.63c0.18,0.04,0.37,0.06,0.57,0.06
				c0.24,0,0.48-0.04,0.71-0.1l1.66,2.86c0.36-0.36,0.74-0.69,1.13-1.01l-1.53-2.63c0.42-0.47,0.68-1.09,0.68-1.77
				c0-1.46-1.19-2.65-2.65-2.65C9.65,1,8.46,2.19,8.46,3.65c0,0.73,0.3,1.39,0.78,1.87L4.32,14.1c-0.21-0.06-0.44-0.09-0.67-0.09
				C2.19,14.01,1,15.2,1,16.66c0,1.46,1.19,2.65,2.65,2.65c1.2,0,2.22-0.81,2.54-1.91h3.17c0.06-0.5,0.15-0.99,0.27-1.48H6.19z
				 M9.94,3.65c0-0.64,0.52-1.17,1.17-1.17c0.64,0,1.17,0.52,1.17,1.17s-0.52,1.17-1.17,1.17C10.47,4.82,9.94,4.29,9.94,3.65z
				 M3.65,17.83c-0.64,0-1.17-0.52-1.17-1.17c0-0.64,0.52-1.17,1.17-1.17s1.17,0.52,1.17,1.17C4.82,17.31,4.29,17.83,3.65,17.83z"/>
			<path class="st1" d="M23.6,32.48c3.54,0,6.86-1.38,9.37-3.88c2.5-2.5,3.88-5.83,3.88-9.37s-1.38-6.86-3.88-9.37
				c-2.5-2.5-5.83-3.88-9.37-3.88c-3.54,0-6.86,1.38-9.37,3.88c-2.5,2.5-3.88,5.83-3.88,9.37c0,2.65,0.77,5.18,2.21,7.34l-0.89,0.67
				l-2.63,1.97C8,29.99,7,30.86,6.07,31.79l-2.88,2.88l4.97,4.97l2.88-2.88c0.93-0.93,1.8-1.93,2.58-2.98l1.97-2.63l0.67-0.89
				C18.42,31.71,20.95,32.48,23.6,32.48z M15.28,10.92c2.22-2.22,5.18-3.45,8.32-3.45c3.14,0,6.1,1.22,8.32,3.45
				c2.22,2.22,3.45,5.18,3.45,8.32s-1.22,6.1-3.45,8.32C29.7,29.77,26.74,31,23.6,31c-3.14,0-6.1-1.22-8.32-3.45
				c-2.22-2.22-3.45-5.18-3.45-8.32S13.06,13.14,15.28,10.92z M14.41,30.27l-1.97,2.63c-0.75,0.99-1.57,1.94-2.45,2.82l-1.84,1.84
				l-2.88-2.88l1.84-1.84c0.88-0.88,1.83-1.7,2.82-2.45l2.63-1.97l0.89-0.67c0.25,0.29,0.5,0.58,0.78,0.85
				c0.27,0.27,0.56,0.53,0.85,0.78L14.41,30.27z"/>
			<path class="st1" d="M23.6,29.7c2.8,0,5.43-1.09,7.4-3.06c4.08-4.08,4.08-10.72,0-14.8c-1.97-1.97-4.6-3.06-7.4-3.06
				s-5.43,1.09-7.4,3.06c-4.08,4.08-4.08,10.72,0,14.8C18.17,28.61,20.8,29.7,23.6,29.7z M23.6,10.25c2.4,0,4.66,0.93,6.35,2.63
				c3.5,3.5,3.5,9.2,0,12.71c-1.69,1.69-3.95,2.63-6.35,2.63c-2.4,0-4.66-0.93-6.35-2.63c-3.5-3.5-3.5-9.2,0-12.71
				C18.94,11.19,21.2,10.25,23.6,10.25z"/>
			<polygon class="st1" points="1.83,36.09 2.33,37.56 2.33,37.56 2.33,37.56 5.27,40.51 5.27,40.51 6.75,41 7.24,40.51 2.32,35.6 
							"/>
			<path class="st1" d="M17.77,18.68h-1.52l-0.5,0c-0.01,0.18-0.02,0.37-0.02,0.56c0,0.31,0.02,0.62,0.06,0.93l2.03,0
				c0.43,2.8,2.87,4.96,5.79,4.96c3.23,0,5.86-2.63,5.86-5.86s-2.63-5.86-5.86-5.86c-0.78,0-1.53,0.16-2.21,0.44l-0.76-1.31
				l-0.27-0.47c-0.45,0.2-0.88,0.45-1.29,0.74l1.03,1.78C18.82,15.53,17.94,17,17.77,18.68z M23.6,23.64
				c-2.41,0-4.38-1.96-4.38-4.38s1.96-4.38,4.38-4.38s4.38,1.96,4.38,4.38S26.02,23.64,23.6,23.64z"/>
		</g>
	</g>
</g>
</svg>
