<?xml version="1.0" encoding="utf-8"?>
<!-- Generator: Adobe Illustrator 24.0.2, SVG Export Plug-In . SVG Version: 6.00 Build 0)  -->
<svg version="1.1" id="Layer_1" xmlns="http://www.w3.org/2000/svg" xmlns:xlink="http://www.w3.org/1999/xlink" x="0px" y="0px"
	 viewBox="0 0 42.63 42" style="enable-background:new 0 0 42.63 42;" xml:space="preserve">
<style type="text/css">
	.st0{fill:#FFFFFF;}
	.st1{fill:#2C5967;}
</style>
<g>
	<g>
		<path class="st0" d="M28.76,41.5v-3.15h-8.52v-9.07c-3.63-0.54-6.5-3.41-7.04-7.04h-2.14l1.71,3.13H0.85l6.01-10.85l2.86,5.24
			h3.49c0.54-3.63,3.41-6.5,7.04-7.04V5.94h-5.67v3.15H5.99V0.5h8.59v2.96h8.15v9.26c3.63,0.54,6.5,3.41,7.04,7.04h1.75l2.17-3.7
			h5.6l2.76,4.86l-2.84,4.84h-5.6l-2-3.52h-1.84c-0.54,3.63-3.4,6.5-7.04,7.04v6.59h6.04v-2.96h8.59v8.59H28.76z"/>
		<path class="st0" d="M14.08,1v2.96h8.15v9.2c3.75,0.35,6.74,3.34,7.09,7.09h2.48l2.17-3.7h5.03l2.48,4.36l-2.55,4.35H33.9l-2-3.52
			h-2.58c-0.35,3.75-3.34,6.74-7.09,7.09v7.54h7.04v-2.96h7.59V41h-7.59v-3.15h-8.52v-9.02C17,28.48,14,25.49,13.65,21.74h-3.43
			l1.71,3.13H1.7l5.16-9.32l2.56,4.7h4.23c0.35-3.75,3.34-6.74,7.09-7.09V5.44h-6.67v3.15H6.49V1H14.08 M15.08,0h-1H6.49h-1v1v7.59
			v1h1h7.59h1v-1V6.44h4.67v5.86c-3.5,0.7-6.26,3.45-6.96,6.96h-2.78l-2.28-4.18l-0.87-1.6l-0.88,1.59l-5.16,9.32L0,25.87h1.7h10.24
			h1.68l-0.81-1.48l-0.9-1.65h0.88c0.7,3.5,3.45,6.26,6.96,6.96v8.15v1h1h7.52V41v1h1h7.59h1v-1v-7.59v-1h-1h-7.59h-1v1v1.96h-5.04
			V29.7c3.5-0.7,6.26-3.45,6.96-6.96h1.13l1.71,3.01l0.29,0.51h0.58h5.03h0.57l0.29-0.49l2.55-4.35l0.29-0.5l-0.29-0.5l-2.48-4.36
			l-0.29-0.51h-0.58h-5.03h-0.57l-0.29,0.49l-1.88,3.21h-1.04c-0.7-3.5-3.45-6.26-6.96-6.96V3.96v-1h-1h-7.15V1V0L15.08,0z"/>
	</g>
	<g>
		<path class="st1" d="M29.32,21.74h2.58l2,3.52h5.03l2.55-4.35l-2.48-4.36h-5.03l-2.17,3.7h-2.48c-0.35-3.75-3.34-6.74-7.09-7.09
			v-9.2h-8.15V1H6.49v7.59h7.59V5.44h6.67v7.72C17,13.52,14,16.51,13.65,20.26H9.42l-2.56-4.7L1.7,24.87h10.24l-1.71-3.13h3.43
			c0.35,3.75,3.34,6.74,7.09,7.09v9.02h8.52V41h7.59v-7.59h-7.59v2.96h-7.04v-7.54C25.98,28.48,28.97,25.49,29.32,21.74z M7.97,7.11
			V2.48h4.63v4.63H7.97z M4.21,23.39l2.63-4.76l2.59,4.76H4.21z M35.38,34.89v4.63h-4.63v-4.63H35.38z M15.1,21
			c0-3.52,2.87-6.39,6.39-6.39s6.39,2.87,6.39,6.39s-2.87,6.39-6.39,6.39S15.1,24.52,15.1,21z M33.13,20.91l1.69-2.88h3.32
			l1.63,2.86l-1.69,2.88h-3.31L33.13,20.91z"/>
	</g>
</g>
</svg>
