<?xml version="1.0" encoding="utf-8"?>
<!-- Generator: Adobe Illustrator 24.0.2, SVG Export Plug-In . SVG Version: 6.00 Build 0)  -->
<svg version="1.1" id="Layer_1" xmlns="http://www.w3.org/2000/svg" xmlns:xlink="http://www.w3.org/1999/xlink" x="0px" y="0px"
	 viewBox="0 0 42 42" style="enable-background:new 0 0 42 42;" xml:space="preserve">
<style type="text/css">
	.st0{fill:#FFFFFF;}
	.st1{fill:#2C5967;}
</style>
<g>
	<g>
		<path class="st0" d="M2.67,41.5c-1.19,0-2.17-0.97-2.17-2.17V2.67c0-1.19,0.97-2.17,2.17-2.17h36.67c1.19,0,2.17,0.97,2.17,2.17
			v36.67c0,1.19-0.97,2.17-2.17,2.17H2.67z"/>
		<path class="st0" d="M39.33,1C40.25,1,41,1.75,41,2.67v36.67c0,0.92-0.75,1.67-1.67,1.67H2.67C1.75,41,1,40.25,1,39.33V2.67
			C1,1.75,1.75,1,2.67,1H39.33 M39.33,0H2.67C1.2,0,0,1.2,0,2.67v36.67C0,40.8,1.2,42,2.67,42h36.67C40.8,42,42,40.8,42,39.33V2.67
			C42,1.2,40.8,0,39.33,0L39.33,0z"/>
	</g>
	<g>
		<path class="st1" d="M39.33,1H2.67C1.75,1,1,1.75,1,2.67v36.67C1,40.25,1.75,41,2.67,41h36.67c0.92,0,1.67-0.75,1.67-1.67V2.67
			C41,1.75,40.25,1,39.33,1z M39.52,39.33c0,0.1-0.08,0.19-0.19,0.19H2.67c-0.1,0-0.19-0.08-0.19-0.19V2.67
			c0-0.1,0.08-0.19,0.19-0.19h36.67c0.1,0,0.19,0.08,0.19,0.19V39.33z"/>
		<path class="st1" d="M27.94,8.7H14.06v7.41h13.89V8.7z M26.46,14.63H15.54v-4.44h10.93V14.63z"/>
		<circle class="st1" cx="24.24" cy="12.4" r="0.74"/>
		<path class="st1" d="M21.56,24.63h13.89v-7.41H21.56V24.63z M23.04,18.7h10.93v4.44H23.04V18.7z"/>
		<circle class="st1" cx="31.74" cy="20.92" r="0.74"/>
		<path class="st1" d="M20.44,17.22H6.56v7.41h13.89V17.22z M18.96,23.14H8.04V18.7h10.93V23.14z"/>
		<circle class="st1" cx="16.74" cy="20.92" r="0.74"/>
		<path class="st1" d="M36.56,28.76c-1.7,0.93-6.58,3.06-15.47,3.06c-10.19,0-14.32-1.99-15.64-2.87v-4.32H3.96v5.06l0.29,0.22
			c1.32,1.02,5.59,3.39,16.84,3.39c10.02,0,15.23-2.66,16.59-3.48l0.36-0.22v-4.98h-1.48V28.76z"/>
	</g>
</g>
</svg>
