<?xml version="1.0" encoding="utf-8"?>
<!-- Generator: Adobe Illustrator 24.0.2, SVG Export Plug-In . SVG Version: 6.00 Build 0)  -->
<svg version="1.1" id="Layer_1" xmlns="http://www.w3.org/2000/svg" xmlns:xlink="http://www.w3.org/1999/xlink" x="0px" y="0px"
	 viewBox="0 0 32.25 42.21" style="enable-background:new 0 0 32.25 42.21;" xml:space="preserve">
<style type="text/css">
	.st0{fill:#FFFFFF;}
	.st1{fill:#2C5967;}
</style>
<g>
	<g>
		<g>
			<path class="st0" d="M15.57,41.37C6.44,36.8,0.95,29.68,0.5,21.85l0-14.61l15.63-6.7l15.63,6.7l0,14.58
				c-0.45,7.86-5.94,14.97-15.07,19.55l-0.55,0.28L15.57,41.37z"/>
			<path class="st0" d="M16.13,1.09l15.13,6.48l0,14.25c-0.43,7.65-5.83,14.61-14.8,19.1l-0.33,0.17l-0.33-0.17
				C6.83,36.43,1.44,29.47,1,21.82l0-0.04V7.57L16.13,1.09 M16.13,0l-0.39,0.17L0.61,6.65L0,6.91v0.66v14.21v0.01l0,0.06
				c0.46,8.04,6.05,15.31,15.35,19.97l0.33,0.17l0.45,0.22l0.45-0.22l0.33-0.17c9.3-4.66,14.89-11.92,15.35-19.94l0-0.03v-0.03
				l0-14.25l0-0.66l-0.61-0.26L16.52,0.17L16.13,0L16.13,0z"/>
		</g>
		<g>
			<path class="st1" d="M16.13,1.09L1,7.57v14.21l0,0.04c0.44,7.65,5.83,14.61,14.79,19.1l0.33,0.17l0.33-0.17
				c8.97-4.49,14.36-11.45,14.8-19.1l0-14.25L16.13,1.09z M29.78,21.76c-0.41,7-5.38,13.43-13.65,17.68
				C7.85,35.19,2.88,28.76,2.48,21.76V8.54l13.65-5.85l13.65,5.85V21.76z"/>
			<path class="st1" d="M11.61,16.65c-1.88,0-3.41,1.53-3.41,3.41s1.53,3.41,3.41,3.41c1.6,0,2.93-1.1,3.31-2.58h4.53v2.58h1.48
				v-2.58h1.66v2.77h1.48v-4.24h-9.1C14.65,17.84,13.27,16.65,11.61,16.65z M11.61,22c-1.07,0-1.94-0.87-1.94-1.94
				s0.87-1.94,1.94-1.94s1.94,0.87,1.94,1.94S12.68,22,11.61,22z"/>
		</g>
	</g>
</g>
</svg>
