<?xml version="1.0" encoding="utf-8"?>
<!-- Generator: Adobe Illustrator 24.0.2, SVG Export Plug-In . SVG Version: 6.00 Build 0)  -->
<svg version="1.1" id="Layer_1" xmlns="http://www.w3.org/2000/svg" xmlns:xlink="http://www.w3.org/1999/xlink" x="0px" y="0px"
	 viewBox="0 0 42 13.62" style="enable-background:new 0 0 42 13.62;" xml:space="preserve">
<style type="text/css">
	.st0{fill:#FFFFFF;}
	.st1{fill:#2C5967;}
</style>
<g>
	<g>
		<g>
			<path class="st0" d="M35.19,13.12c-3.06,0-5.65-2.18-6.2-5.15H13.01c-0.55,2.96-3.14,5.15-6.2,5.15c-3.48,0-6.31-2.83-6.31-6.31
				S3.33,0.5,6.81,0.5c3.06,0,5.65,2.18,6.2,5.15h15.99c0.55-2.96,3.14-5.15,6.2-5.15c3.48,0,6.31,2.83,6.31,6.31
				S38.67,13.12,35.19,13.12z"/>
			<path class="st0" d="M35.19,1C38.39,1,41,3.61,41,6.81s-2.61,5.81-5.81,5.81c-2.98,0-5.44-2.26-5.77-5.15H12.58
				c-0.33,2.89-2.79,5.15-5.77,5.15C3.61,12.62,1,10.01,1,6.81S3.61,1,6.81,1c2.98,0,5.44,2.26,5.77,5.15h16.85
				C29.75,3.26,32.21,1,35.19,1 M35.19,0c-3.16,0-5.85,2.16-6.6,5.15H13.41C12.66,2.16,9.97,0,6.81,0C3.05,0,0,3.05,0,6.81
				s3.05,6.81,6.81,6.81c3.16,0,5.85-2.16,6.6-5.15h15.18c0.75,2.99,3.44,5.15,6.6,5.15c3.75,0,6.81-3.05,6.81-6.81S38.95,0,35.19,0
				L35.19,0z"/>
		</g>
		<g>
			<path class="st1" d="M28.43,6.15H13.57c0.02,0.22,0.03,0.44,0.03,0.66s-0.01,0.44-0.03,0.66h14.86
				c-0.02-0.22-0.03-0.44-0.03-0.66S28.41,6.37,28.43,6.15z"/>
			<path class="st1" d="M12.62,6.81c0-3.2-2.61-5.81-5.81-5.81S1,3.61,1,6.81s2.61,5.81,5.81,5.81S12.62,10.01,12.62,6.81z
				 M6.81,11.3c-2.48,0-4.49-2.01-4.49-4.49s2.01-4.49,4.49-4.49s4.49,2.01,4.49,4.49S9.28,11.3,6.81,11.3z"/>
			<path class="st1" d="M35.19,1c-3.2,0-5.81,2.61-5.81,5.81s2.61,5.81,5.81,5.81S41,10.01,41,6.81S38.39,1,35.19,1z M35.19,11.3
				c-2.48,0-4.49-2.01-4.49-4.49s2.01-4.49,4.49-4.49c2.48,0,4.49,2.01,4.49,4.49S37.67,11.3,35.19,11.3z"/>
			<path class="st1" d="M7.46,4.64L6.53,3.7l-3.1,3.1l3.1,3.1l0.93-0.93L5.95,7.47h4.3c0.04-0.21,0.06-0.43,0.06-0.66
				s-0.02-0.45-0.06-0.66h-4.3L7.46,4.64z"/>
			<path class="st1" d="M34.38,8.98l0.93,0.93l3.1-3.1l-3.1-3.1l-0.93,0.93l1.51,1.51h-4.13c-0.04,0.21-0.06,0.43-0.06,0.66
				s0.02,0.45,0.06,0.66h4.13L34.38,8.98z"/>
		</g>
	</g>
</g>
</svg>
