<?xml version="1.0" encoding="utf-8"?>
<!-- Generator: Adobe Illustrator 24.0.2, SVG Export Plug-In . SVG Version: 6.00 Build 0)  -->
<svg version="1.1" id="Layer_1" xmlns="http://www.w3.org/2000/svg" xmlns:xlink="http://www.w3.org/1999/xlink" x="0px" y="0px"
	 viewBox="0 0 47.51 42" style="enable-background:new 0 0 47.51 42;" xml:space="preserve">
<style type="text/css">
	.st0{fill:#FFFFFF;}
	.st1{fill:none;}
	.st2{fill:#2C5967;}
</style>
<g>
	<g>
		<path class="st0" d="M34.17,41.5c-2.27,0-4.11-1.84-4.11-4.11c0-0.62,0.13-1.21,0.39-1.75H19.7c0.26,0.55,0.4,1.14,0.4,1.75
			c0,2.27-1.84,4.11-4.11,4.11c-2.27,0-4.11-1.84-4.11-4.11c0-0.62,0.13-1.21,0.39-1.75h-0.68c-1.4,0-2.55-1.05-2.69-2.44L6.69,5.48
			c-0.01-0.09-0.1-0.17-0.21-0.17H1.92V5.09L0.5,4.38V2.83h5.98c1.4,0,2.55,1.05,2.69,2.44l0.7,8.8c0.86-1.06,1.94-1.94,3.18-2.6
			c0.65-0.34,1.1-0.94,1.24-1.64c0.46-2.32,2.02-4.27,4.18-5.22C19.37,4.21,20.38,4,21.37,4c0.23,0,0.45,0.01,0.67,0.03
			c0.08,0.01,0.16,0.01,0.23,0.01c0.64,0,1.23-0.25,1.66-0.71c1.67-1.8,4.04-2.83,6.5-2.83c3.38,0,6.42,1.88,7.93,4.91
			c0.33,0.65,0.93,1.12,1.65,1.28c1.02,0.22,1.98,0.62,2.87,1.18c3.94,2.48,5.14,6.9,3.22,11.83l-0.18,0.47l-0.09-0.04l-2.94,6.37
			c-1.32,2.63-2.87,3.18-3.93,3.18H11.11l0.26,3.3c0.01,0.09,0.1,0.17,0.21,0.17h30.1v1.55l-1.42,0.71v0.19l-0.5,0.04h-1.88
			c0.26,0.54,0.39,1.13,0.39,1.75C38.28,39.66,36.44,41.5,34.17,41.5z"/>
		<path class="st0" d="M30.43,1c3.19,0,6.06,1.77,7.48,4.63c0.39,0.79,1.12,1.35,1.99,1.54c0.96,0.21,1.87,0.59,2.71,1.12
			c3.72,2.34,4.85,6.54,3.02,11.23l-0.06-0.02l-3.14,6.79c-1.2,2.39-2.55,2.89-3.47,2.89H10.57l0.31,3.84
			c0.03,0.35,0.34,0.63,0.71,0.63h28.11v0h1.49v0.74l-1.42,0.71v0.04h-2.78c0.49,0.62,0.79,1.4,0.79,2.25
			c0,1.99-1.62,3.61-3.61,3.61c-1.99,0-3.61-1.62-3.61-3.61c0-0.85,0.3-1.63,0.79-2.25H18.8c0.49,0.62,0.79,1.4,0.79,2.25
			c0,1.99-1.62,3.61-3.61,3.61c-1.99,0-3.61-1.62-3.61-3.61c0-0.85,0.3-1.63,0.79-2.25h-1.58c-1.14,0-2.08-0.85-2.19-1.99L7.19,5.44
			C7.16,5.09,6.85,4.81,6.48,4.81H2.42V4.78L1,4.07V3.33h1.49v0h3.99c1.14,0,2.08,0.85,2.19,1.99l0.81,10.18
			c0.88-1.47,2.19-2.73,3.8-3.58c0.78-0.41,1.33-1.14,1.49-1.99c0.42-2.16,1.88-3.97,3.89-4.86c0.85-0.38,1.78-0.57,2.7-0.57
			c0.21,0,0.42,0.01,0.63,0.03c0.09,0.01,0.19,0.01,0.28,0.01c0.78,0,1.5-0.31,2.02-0.87C25.88,1.97,28.11,1,30.43,1 M30.43,0
			c-2.6,0-5.1,1.09-6.86,2.99c-0.33,0.35-0.79,0.55-1.29,0.55c-0.06,0-0.12,0-0.19-0.01c-0.24-0.02-0.48-0.03-0.72-0.03
			c-1.06,0-2.13,0.23-3.11,0.65c-2.31,1.02-3.98,3.1-4.47,5.58c-0.11,0.55-0.47,1.02-0.98,1.29c-0.94,0.5-1.8,1.12-2.54,1.85
			L9.67,5.23C9.51,3.57,8.14,2.33,6.48,2.33H2.49L1,2.33l-1,0v1v0.74v0.62l0.55,0.28L1.42,5.4v0.38l1,0.04h3.8L8.4,33.23
			c0.16,1.65,1.51,2.89,3.15,2.91c-0.12,0.41-0.17,0.83-0.17,1.25c0,2.54,2.07,4.61,4.61,4.61c2.54,0,4.61-2.07,4.61-4.61
			c0-0.42-0.06-0.85-0.17-1.25h9.32c-0.12,0.41-0.17,0.83-0.17,1.25c0,2.54,2.07,4.61,4.61,4.61c2.54,0,4.61-2.07,4.61-4.61
			c0-0.42-0.06-0.85-0.17-1.25h1.17h1v-0.42l0.86-0.43l0.55-0.28V34.4v-0.74v-1h-1h-1.49l-27.85,0l-0.2-2.47h27.3
			c1.2,0,2.94-0.6,4.37-3.44l2.76-5.97l0.12,0.05l0.36-0.93c2.02-5.17,0.74-9.82-3.42-12.44c-0.94-0.59-1.96-1.01-3.03-1.25
			c-0.57-0.13-1.05-0.5-1.31-1.01C37.21,1.99,34,0,30.43,0L30.43,0z"/>
	</g>
	<g>
		<path class="st1" d="M15.98,35.27c-1.17,0-2.12,0.95-2.12,2.12c0,1.17,0.95,2.12,2.12,2.12s2.12-0.95,2.12-2.12
			C18.1,36.22,17.15,35.27,15.98,35.27z"/>
		<path class="st1" d="M34.17,35.27c-1.17,0-2.12,0.95-2.12,2.12c0,1.17,0.95,2.12,2.12,2.12c1.17,0,2.12-0.95,2.12-2.12
			C36.29,36.22,35.34,35.27,34.17,35.27z"/>
		<path class="st1" d="M44.49,18.31c1.23-3.74,0.28-6.91-2.66-8.76c-0.69-0.44-1.45-0.75-2.24-0.92c-1.31-0.29-2.4-1.14-3-2.33
			c-1.17-2.35-3.53-3.81-6.15-3.81c-1.91,0-3.74,0.8-5.04,2.2c-0.9,0.97-2.19,1.45-3.53,1.32c-0.88-0.08-1.78,0.06-2.59,0.42
			c-1.57,0.69-2.7,2.1-3.03,3.78c-0.25,1.3-1.08,2.39-2.26,3.02c-2.39,1.26-4,3.57-4.19,6.04l0.67,8.42h28.5
			c0.71,0,1.47-0.73,2.14-2.06L44.49,18.31L44.49,18.31z M27.95,23.2l-5.06-5.29l1.08-1.03l3.27,3.41v-9.34h1.49v9.37l3.24-3.24
			l1.05,1.05L27.95,23.2z"/>
		<path class="st2" d="M42.62,8.29c-0.84-0.53-1.75-0.9-2.71-1.12c-0.87-0.19-1.6-0.76-1.99-1.54C36.49,2.77,33.62,1,30.43,1
			c-2.32,0-4.55,0.97-6.13,2.67C23.72,4.3,22.88,4.61,22,4.53c-1.13-0.11-2.28,0.08-3.33,0.54c-2.01,0.88-3.46,2.7-3.89,4.86
			c-0.17,0.85-0.71,1.58-1.49,1.99c-1.61,0.85-2.92,2.11-3.8,3.58L8.67,5.31C8.56,4.18,7.62,3.33,6.48,3.33H2.49v0H1v0.74l1.42,0.71
			v0.04h4.07c0.37,0,0.67,0.28,0.71,0.63l2.2,27.71c0.11,1.13,1.05,1.99,2.19,1.99h1.58c-0.49,0.62-0.79,1.4-0.79,2.25
			c0,1.99,1.62,3.61,3.61,3.61s3.61-1.62,3.61-3.61c0-0.85-0.3-1.63-0.79-2.25h12.55c-0.49,0.62-0.79,1.4-0.79,2.25
			c0,1.99,1.62,3.61,3.61,3.61c1.99,0,3.61-1.62,3.61-3.61c0-0.85-0.3-1.63-0.79-2.25h2.78V35.1l1.42-0.71v-0.74h-1.49v0H11.58
			c-0.37,0-0.67-0.28-0.71-0.63l-0.31-3.84h28.38c0.92,0,2.27-0.5,3.47-2.89l3.14-6.79l0.06,0.02
			C47.46,14.83,46.34,10.63,42.62,8.29z M15.98,39.51c-1.17,0-2.12-0.95-2.12-2.12c0-1.17,0.95-2.12,2.12-2.12s2.12,0.95,2.12,2.12
			C18.1,38.56,17.15,39.51,15.98,39.51z M34.17,39.51c-1.17,0-2.12-0.95-2.12-2.12c0-1.17,0.95-2.12,2.12-2.12
			c1.17,0,2.12,0.95,2.12,2.12C36.29,38.56,35.34,39.51,34.17,39.51z M41.09,25.63c-0.67,1.33-1.43,2.06-2.14,2.06h-28.5l-0.67-8.42
			c0.2-2.47,1.8-4.78,4.19-6.04c1.18-0.62,2.01-1.72,2.26-3.02c0.33-1.68,1.46-3.09,3.03-3.78c0.81-0.36,1.71-0.5,2.59-0.42
			c1.35,0.13,2.63-0.35,3.53-1.32c1.3-1.4,3.13-2.2,5.04-2.2c2.62,0,4.98,1.46,6.15,3.81c0.6,1.19,1.69,2.04,3,2.33
			c0.79,0.18,1.55,0.49,2.24,0.92c2.94,1.85,3.89,5.02,2.66,8.76l-0.01,0L41.09,25.63z"/>
		<polygon class="st2" points="28.72,20.32 28.72,10.95 27.23,10.95 27.23,20.3 23.97,16.88 22.89,17.91 27.95,23.2 33.02,18.13 
			31.96,17.08 		"/>
	</g>
</g>
</svg>
