<?xml version="1.0" encoding="utf-8"?>
<!-- Generator: Adobe Illustrator 24.0.2, SVG Export Plug-In . SVG Version: 6.00 Build 0)  -->
<svg version="1.1" id="Layer_1" xmlns="http://www.w3.org/2000/svg" xmlns:xlink="http://www.w3.org/1999/xlink" x="0px" y="0px"
	 viewBox="0 0 42 24.8" style="enable-background:new 0 0 42 24.8;" xml:space="preserve">
<g>
	<g>
		<path style="fill:#FFFFFF;" d="M21,24.3c-7.6,0-20.5-1.3-20.5-6V7.1c0-0.1,0-0.1,0-0.2c0-0.1,0-0.2,0-0.2c0-4.9,12.9-6.2,20.5-6.2
			s20.5,1.3,20.5,6.2c0,0.1,0,0.2,0,0.2c0,0.1,0,0.1,0,0.2v11.2C41.5,23,28.6,24.3,21,24.3z"/>
		<path style="fill:#FFFFFF;" d="M21,1c9.6,0,20,1.8,20,5.7c0,0.1,0,0.2,0,0.3c0,0.1,0,0.1,0,0.2v11.2c0,3.8-10.4,5.5-20,5.5
			S1,22.1,1,18.3V7.1C1,7.1,1,7,1,7c0-0.1,0-0.2,0-0.3C1,2.8,11.4,1,21,1 M21,0C18.9,0,0,0.2,0,6.7c0,0.1,0,0.2,0,0.2
			C0,7,0,7.1,0,7.1v11.2c0,6.2,17.5,6.5,21,6.5s21-0.3,21-6.5V7.1c0-0.1,0-0.1,0-0.2c0-0.1,0-0.2,0-0.2C42,0.2,23.1,0,21,0L21,0z"/>
	</g>
	<g>
		<path style="fill:#2C5967;" d="M41,6.7C41,2.8,30.6,1,21,1S1,2.8,1,6.7C1,6.8,1,6.9,1,7C1,7,1,7.1,1,7.1v11.2
			c0,3.8,10.4,5.5,20,5.5s20-1.7,20-5.5V7.1C41,7.1,41,7,41,7C41,6.9,41,6.8,41,6.7z M34.3,20.6c-3.5,0.8-8.2,1.3-13.3,1.3
			c-5,0-9.7-0.5-13.3-1.3c-4-1-4.9-2-4.9-2.3v-9c3.4,2.1,11,3.1,18.1,3.1s14.7-1,18.1-3.1v9C39.1,18.6,38.2,19.6,34.3,20.6z M21,2.9
			c5,0,9.7,0.5,13.2,1.4c4,1,4.9,2.1,4.9,2.5c0,0.3-0.9,1.5-4.9,2.5C30.7,10,26,10.5,21,10.5S11.3,10,7.8,9.2c-4-1-4.9-2.1-4.9-2.5
			c0-0.3,0.9-1.5,4.9-2.5C11.3,3.4,16,2.9,21,2.9z"/>
	</g>
</g>
</svg>
