<?xml version="1.0" encoding="utf-8"?>
<!-- Generator: Adobe Illustrator 24.0.2, SVG Export Plug-In . SVG Version: 6.00 Build 0)  -->
<svg version="1.1" id="Layer_1" xmlns="http://www.w3.org/2000/svg" xmlns:xlink="http://www.w3.org/1999/xlink" x="0px" y="0px"
	 viewBox="0 0 46.45 42" style="enable-background:new 0 0 46.45 42;" xml:space="preserve">
<style type="text/css">
	.st0{fill:#FFFFFF;}
	.st1{fill:#2C5967;}
</style>
<g>
	<g>
		<g>
			<g>
				<path class="st0" d="M13.44,39.08c-1.19,0-2.17-0.97-2.17-2.17V5.06c0-1.2,0.97-2.17,2.17-2.17h19.64c1.2,0,2.17,0.97,2.17,2.17
					v31.86c0,1.2-0.97,2.17-2.17,2.17H13.44z"/>
				<path class="st0" d="M33.07,3.39c0.92,0,1.67,0.75,1.67,1.67v31.86c0,0.92-0.75,1.67-1.67,1.67H13.44
					c-0.92,0-1.67-0.75-1.67-1.67V5.06c0-0.92,0.75-1.67,1.67-1.67H33.07 M33.07,2.39H13.44c-1.47,0-2.67,1.2-2.67,2.67v31.86
					c0,1.47,1.2,2.67,2.67,2.67h19.64c1.47,0,2.67-1.2,2.67-2.67V5.06C35.74,3.59,34.54,2.39,33.07,2.39L33.07,2.39z"/>
			</g>
			<g>
				<path class="st0" d="M8.86,41.5c-1.87,0-3.18-0.46-3.97-1.35c-0.78-0.89-1.16-2.31-1.16-4.33V24.23L0.5,21.7v-1.4l3.24-2.53
					V6.19c0-2.03,0.38-3.44,1.16-4.33C5.69,0.96,7,0.5,8.8,0.5h0.19c0.57,0,1.2,0.04,1.89,0.13l0.44,0.05v2.28l-0.19-0.02
					l-0.55-0.04c-0.27-0.03-0.56-0.05-0.89-0.06C9.44,2.84,9.22,2.83,9.03,2.83c-0.87,0-1.53,0.2-1.95,0.58
					C6.8,3.66,6.46,4.33,6.46,6.06v12.78L3.56,21l2.9,2.16v12.78c0,1.71,0.34,2.38,0.63,2.64c0.42,0.39,1.08,0.59,1.95,0.59
					c0.18,0,0.4-0.01,0.66-0.02c0.32-0.01,0.62-0.03,0.88-0.06l0.55-0.05v0.02l0.19-0.02v2.28l-0.44,0.05
					c-0.69,0.08-1.32,0.13-1.89,0.13C8.99,41.5,8.87,41.5,8.86,41.5z"/>
				<path class="st0" d="M8.99,1c0.55,0,1.16,0.04,1.83,0.12v1.29c-0.06-0.01-0.12-0.01-0.19-0.02v0.02
					c-0.28-0.03-0.58-0.05-0.91-0.06C9.45,2.34,9.22,2.33,9.03,2.33c-1,0.01-1.77,0.24-2.29,0.7C6.22,3.5,5.96,4.51,5.96,6.06v12.53
					L2.72,21l3.24,2.41v12.53c0,1.52,0.26,2.52,0.79,3.01c0.52,0.48,1.28,0.72,2.29,0.73c0.19,0,0.42-0.01,0.68-0.02
					c0.33-0.01,0.64-0.03,0.91-0.06v0.02c0.06-0.01,0.13-0.01,0.19-0.02v1.29C10.15,40.96,9.54,41,8.99,41c-0.03,0-0.07,0-0.1,0
					c-0.03,0-0.06,0-0.08,0c-1.66,0-2.84-0.39-3.53-1.18c-0.69-0.79-1.04-2.12-1.04-4V23.99L1,21.46v-0.91l3.24-2.53V6.19
					c0-1.88,0.35-3.22,1.04-4C5.96,1.39,7.14,1,8.8,1c0.03,0,0.06,0,0.08,0C8.92,1,8.95,1,8.99,1 M8.99,0L8.9,0L8.89,0L8.8,0
					C6.85,0,5.41,0.51,4.52,1.52C3.66,2.51,3.24,4.03,3.24,6.19v11.34l-2.85,2.23L0,20.06v0.49v0.91v0.49l0.38,0.3l2.85,2.23v11.34
					c0,2.15,0.42,3.68,1.29,4.66C5.41,41.49,6.85,42,8.8,42h0.01l0.06,0l0.11,0c0.59,0,1.25-0.04,1.95-0.13l0.88-0.11v-0.88v-1.29
					v-1.1l-0.19,0.02v0l-1.1,0.09c-0.26,0.03-0.55,0.04-0.86,0.06c-0.25,0.01-0.47,0.02-0.65,0.02c-0.73,0-1.27-0.16-1.6-0.46
					c-0.11-0.1-0.47-0.56-0.47-2.27V23.41v-0.5l-0.4-0.3L4.4,21l2.16-1.6l0.4-0.3v-0.5V6.06c0-1.79,0.38-2.22,0.46-2.28
					c0.33-0.29,0.87-0.45,1.62-0.45c0.17,0,0.38,0.01,0.64,0.02c0.31,0.01,0.6,0.03,0.86,0.06l1.1,0.11V3.5l0.19,0.02v-1.1V1.12
					V0.24l-0.88-0.11C10.23,0.04,9.58,0,8.99,0L8.99,0z"/>
			</g>
			<g>
				<path class="st0" d="M37.65,41.5c-0.57,0-1.2-0.04-1.89-0.13l-0.44-0.05v-2.28l0.55,0.05c0.27,0.03,0.56,0.05,0.89,0.06
					c0.32,0.01,0.59,0.02,0.81,0.02c0.89,0,1.56-0.2,1.98-0.59c0.29-0.26,0.63-0.94,0.63-2.64V23.16l2.9-2.16l-2.9-2.16V6.06
					c0-1.74-0.34-2.4-0.62-2.66c-0.43-0.38-1.1-0.58-1.99-0.58c-0.22,0-0.49,0.01-0.81,0.02c-0.32,0.01-0.62,0.03-0.88,0.06
					l-0.55,0.05V0.68l0.44-0.05c0.69-0.08,1.32-0.13,1.89-0.13c1.8,0,3.12,0.46,3.9,1.35c0.78,0.89,1.16,2.31,1.16,4.33v11.58
					l3.24,2.53v1.4l-3.24,2.53v11.58c0,2.03-0.38,3.44-1.16,4.33C40.77,41.04,39.45,41.5,37.65,41.5z"/>
				<path class="st0" d="M37.65,1c1.66,0,2.84,0.39,3.53,1.18c0.69,0.79,1.04,2.12,1.04,4v11.83l3.24,2.53v0.91l-3.24,2.53v11.83
					c0,1.88-0.35,3.22-1.04,4C40.49,40.61,39.31,41,37.65,41c-0.55,0-1.16-0.04-1.83-0.12v-1.29c0.28,0.03,0.58,0.05,0.91,0.06
					c0.33,0.01,0.61,0.02,0.83,0.02c1.02,0,1.8-0.24,2.32-0.73c0.53-0.48,0.79-1.49,0.79-3.01V23.41L43.92,21l-3.24-2.41V6.06
					c0-1.55-0.26-2.56-0.79-3.03c-0.53-0.47-1.3-0.71-2.32-0.71c-0.22,0-0.5,0.01-0.83,0.02c-0.33,0.01-0.64,0.04-0.91,0.06V1.12
					C36.49,1.04,37.1,1,37.65,1 M37.65,0c-0.59,0-1.25,0.04-1.95,0.13l-0.88,0.11v0.88v1.29v1.1l1.1-0.11
					c0.26-0.03,0.55-0.04,0.86-0.06c0.31-0.01,0.58-0.02,0.79-0.02c0.77,0,1.32,0.15,1.66,0.45c0.08,0.07,0.46,0.5,0.46,2.28v12.53
					v0.5l0.4,0.3l2.16,1.6l-2.16,1.6l-0.4,0.3v0.5v12.53c0,1.71-0.36,2.17-0.47,2.27c-0.33,0.31-0.89,0.46-1.65,0.46
					c-0.21,0-0.47-0.01-0.79-0.02c-0.31-0.01-0.6-0.03-0.86-0.06l-1.1-0.11v1.1v1.29v0.88l0.88,0.11c0.7,0.09,1.36,0.13,1.95,0.13
					c1.95,0,3.39-0.51,4.28-1.52c0.86-0.99,1.29-2.51,1.29-4.66V24.48l2.85-2.23l0.38-0.3v-0.49v-0.91v-0.49l-0.38-0.3l-2.85-2.23
					V6.19c0-2.15-0.42-3.68-1.29-4.66C41.04,0.51,39.6,0,37.65,0L37.65,0z"/>
			</g>
		</g>
		<g>
			<path class="st1" d="M33.07,3.39H13.44c-0.92,0-1.67,0.75-1.67,1.67v31.86c0,0.92,0.75,1.67,1.67,1.67h19.64
				c0.92,0,1.67-0.75,1.67-1.67V5.06C34.74,4.14,33.99,3.39,33.07,3.39z M33.26,36.92c0,0.1-0.08,0.19-0.19,0.19H13.44
				c-0.1,0-0.19-0.08-0.19-0.19V5.06c0-0.1,0.08-0.19,0.19-0.19h19.64c0.1,0,0.19,0.08,0.19,0.19V36.92z"/>
			<path class="st1" d="M14.36,12.65h17.78V5.98H14.36V12.65z M15.84,7.47h14.82v3.7H15.84V7.47z"/>
			<circle class="st1" cx="28.81" cy="9.32" r="0.74"/>
			<path class="st1" d="M14.36,20.43h17.78v-6.67H14.36V20.43z M15.84,15.25h14.82v3.7H15.84V15.25z"/>
			<circle class="st1" cx="28.81" cy="17.1" r="0.74"/>
			<path class="st1" d="M14.36,28.21h17.78v-6.67H14.36V28.21z M15.84,23.03h14.82v3.7H15.84V23.03z"/>
			<circle class="st1" cx="28.81" cy="24.88" r="0.74"/>
			<path class="st1" d="M14.36,35.99h17.78v-6.67H14.36V35.99z M15.84,30.81h14.82v3.7H15.84V30.81z"/>
			<circle class="st1" cx="28.81" cy="32.66" r="0.74"/>
			<path class="st1" d="M8.88,1C8.86,1,8.83,1,8.8,1C7.14,1,5.96,1.39,5.27,2.18c-0.69,0.79-1.04,2.12-1.04,4v11.83L1,20.54v0.91
				l3.24,2.53v11.83c0,1.88,0.35,3.22,1.04,4C5.96,40.61,7.14,41,8.8,41c0.03,0,0.06,0,0.08,0c0.03,0,0.07,0,0.1,0
				c0.55,0,1.16-0.04,1.83-0.12v-1.29c-0.06,0.01-0.12,0.01-0.19,0.02v-0.02c-0.28,0.03-0.58,0.05-0.91,0.06
				c-0.26,0.01-0.49,0.02-0.68,0.02c-1-0.01-1.77-0.25-2.29-0.72c-0.53-0.48-0.79-1.49-0.79-3.01V23.41L2.72,21l3.24-2.41V6.06
				c0-1.55,0.26-2.56,0.79-3.03c0.52-0.46,1.28-0.7,2.29-0.7c0.19,0,0.42,0.01,0.68,0.02c0.33,0.01,0.64,0.04,0.91,0.06V2.4
				c0.06,0.01,0.13,0.01,0.19,0.02V1.12C10.15,1.04,9.54,1,8.99,1C8.95,1,8.92,1,8.88,1z"/>
			<path class="st1" d="M42.22,18.01V6.19c0-1.88-0.35-3.22-1.04-4C40.49,1.39,39.31,1,37.65,1c-0.55,0-1.16,0.04-1.83,0.12v1.29
				c0.28-0.03,0.58-0.05,0.91-0.06c0.33-0.01,0.61-0.02,0.83-0.02c1.02,0,1.8,0.24,2.32,0.71c0.53,0.47,0.79,1.48,0.79,3.03v12.53
				L43.92,21l-3.24,2.41v12.53c0,1.52-0.26,2.52-0.79,3.01c-0.53,0.48-1.3,0.73-2.32,0.73c-0.22,0-0.5-0.01-0.83-0.02
				c-0.33-0.01-0.64-0.03-0.91-0.06v1.29C36.49,40.96,37.1,41,37.65,41c1.66,0,2.84-0.39,3.53-1.18c0.69-0.79,1.04-2.12,1.04-4
				V23.99l3.24-2.53v-0.91L42.22,18.01z"/>
		</g>
	</g>
</g>
</svg>
