<?xml version="1.0" encoding="UTF-8" standalone="no"?>
<svg xmlnsSvg="http://www.w3.org/2000/svg" xmlns="http://www.w3.org/2000/svg" version="1.1" id="ocd_svg" x="0px"
    y="0px" viewBox="0 0 42.1 22" style="enable-background:new 0 0 42.1 22;" xml:space="preserve">
    <g id="g1198">
        <path style="fill:#ffffff"
            d="M 0.5,21.5 0.6,20 c 0.3,-3.4 2.2,-6.5 5.3,-8.1 0.7,-0.3 1.1,-1 1.3,-1.7 0.5,-2.4 2.1,-4.5 4.4,-5.5 1,-0.4 2,-0.6 3.1,-0.6 0.2,0 0.5,0 0.7,0 0.1,0 0.2,0 0.2,0 0.7,0 1.3,-0.3 1.7,-0.7 1.8,-1.9 4.2,-3 6.8,-3 3.5,0 6.7,2 8.3,5.2 0.3,0.7 0.9,1.1 1.7,1.3 1.1,0.2 2.1,0.7 3,1.2 4.2,2.7 5.7,8.2 3.3,12.6 L 40,21.4 H 0.5 Z"
            id="path1194" />
        <path style="fill:#ffffff"
            d="m 24.1,1 c 3.4,0 6.4,1.9 7.9,4.9 0.4,0.8 1.1,1.4 2,1.6 1,0.2 2,0.6 2.9,1.2 4,2.5 5.4,7.8 3.1,11.9 L 39.8,21 H 24.3 21.7 6.7 6.5 1.1 l 0.1,-0.9 c 0.2,-3.3 2.1,-6.1 5,-7.7 0.8,-0.4 1.3,-1.2 1.5,-2 0.4,-2.3 2,-4.2 4.1,-5.1 0.9,-0.4 1.9,-0.6 2.9,-0.6 0.2,0 0.4,0 0.7,0 0.1,0 0.2,0 0.3,0 0.8,0 1.5,-0.3 2,-0.9 C 19.3,2 21.7,1 24.1,1 m 0,-1 c -2.7,0 -5.3,1.1 -7.2,3.1 -0.3,0.4 -0.8,0.6 -1.3,0.6 -0.1,0 -0.1,0 -0.2,0 -0.3,0 -0.5,0 -0.8,0 -1.1,0 -2.2,0.2 -3.3,0.7 -2.3,1 -4.1,3.2 -4.6,5.8 -0.1,0.6 -0.5,1 -1,1.3 C 2.5,13.2 0.4,16.4 0.1,20 L 0,20.9 V 22 h 1.1 5.4 0.2 15 2.6 15.5 0.6 L 40.7,21.5 40.9,21 C 43.4,16.4 41.9,10.6 37.4,7.8 36.4,7.2 35.4,6.7 34.2,6.5 33.6,6.4 33.1,6 32.9,5.5 31.2,2.1 27.8,0 24.1,0 Z"
            id="path1196" />
    </g>
    <g id="g1202">
        <path style="fill:#2c5967"
            d="M 40,20.5 39.8,21 h -18 c -15.1,0 -15.1,-1.7 0,-1.7 h 17 C 40.2,16 39,12 36,10.1 35.3,9.6 34.5,9.3 33.7,9.1 32.3,8.8 31.1,7.9 30.5,6.6 29.3,4.2 26.9,2.7 24.2,2.7 22.2,2.7 20.3,3.5 19,5 18,6 16.7,6.5 15.2,6.4 14.3,6.3 13.4,6.5 12.5,6.8 10.9,7.5 9.7,9 9.4,10.7 9.1,12.1 8.3,13.2 7,13.9 4.9,15 3.4,17 3,19.3 h 3.5 0.2 15.1 c 0.5,0.7 -0.7,1.2 0,1.7 H 6.7 6.5 1.1 L 1.2,20.1 C 1.4,16.8 3.3,14 6.2,12.4 7,12 7.5,11.2 7.7,10.4 8.1,8.1 9.7,6.2 11.8,5.3 12.9,4.8 14.1,4.6 15.3,4.7 16.2,4.8 17,4.5 17.6,3.8 19.3,2 21.7,1 24.1,1 c 3.4,0 6.4,1.9 7.9,4.9 0.4,0.8 1.1,1.4 2,1.6 1,0.2 2,0.6 2.9,1.2 4,2.4 5.3,7.7 3.1,11.8 z"
            id="path1200" />
    </g>
    <g>
        <path style="fill:#2c5967"
            d="m 8.4491236,16.46972 v -0.253333 q 0,-0.186667 -0.013333,-0.4 -0.013333,-0.226667 -0.013333,-0.413334 v -0.266666 q 0,-0.44 0.08,-1.026667 0.093333,-0.586667 0.32,-1.12 0.2266667,-0.546667 0.64,-0.92 0.4133333,-0.373333 1.0800004,-0.373333 h 6.293333 q 0.573333,0 1.026667,0.346666 0.466666,0.346667 0.786666,0.853334 0.333334,0.506666 0.506667,1.093333 0.173333,0.573333 0.173333,1.053333 0,0.386667 -0.133333,0.96 -0.133333,0.573334 -0.4,1.106667 -0.266667,0.52 -0.666667,0.893333 -0.386666,0.373334 -0.92,0.373334 H 10.35579 q -0.32,0 -0.6266664,-0.2 -0.3066667,-0.2 -0.5733333,-0.48 -0.2533334,-0.293334 -0.4533334,-0.626667 -0.1866666,-0.333333 -0.2533333,-0.6 z m 1.12,-1.333333 q 0,0.333333 0.08,0.706666 0.08,0.36 0.2666666,0.68 0.1866668,0.306667 0.4799998,0.506667 0.293334,0.2 0.72,0.2 h 5.333333 q 0.44,0 0.733334,-0.213333 0.293333,-0.226667 0.466666,-0.56 0.186667,-0.333334 0.266667,-0.72 0.08,-0.386667 0.08,-0.733334 0,-0.24 -0.06667,-0.573333 -0.06667,-0.333333 -0.213333,-0.64 -0.133333,-0.306667 -0.36,-0.52 -0.213333,-0.226667 -0.52,-0.226667 h -6.106666 q -0.386667,0 -0.613334,0.24 -0.2266664,0.24 -0.3466664,0.573334 -0.12,0.32 -0.16,0.68 -0.04,0.36 -0.04,0.6 z"
            id="path844" />
        <path style="fill:#2c5967"
            d="m 20.03704,14.94972 q 0,0.44 0.09333,1.026667 0.106667,0.586666 0.346667,1.12 0.24,0.533333 0.64,0.906666 0.413333,0.373334 1.04,0.373334 h 5.533333 q 0.09333,0 0.2,-0.12 0.12,-0.12 0.213333,-0.293334 0.09333,-0.173333 0.146667,-0.346666 0.06667,-0.173334 0.06667,-0.28 h -5.586667 q -0.266666,0 -0.493333,-0.173334 -0.213333,-0.173333 -0.386667,-0.413333 -0.16,-0.24 -0.266666,-0.493333 Q 21.47704,15.98972 21.43704,15.803053 V 14.46972 q 0,-0.186667 0.08,-0.44 0.09333,-0.266667 0.24,-0.506667 0.146667,-0.24 0.346667,-0.4 0.2,-0.173333 0.44,-0.173333 h 5.146666 q 0,0 0.04,-0.05333 0.05333,-0.05333 0.106667,-0.133334 0.06667,-0.08 0.12,-0.16 0.06667,-0.08 0.106666,-0.133333 0.01333,-0.05333 0.05333,-0.16 0.05333,-0.106667 0.106666,-0.226667 0.06667,-0.12 0.12,-0.226666 0.06667,-0.106667 0.106667,-0.16 h -6.106666 q -0.573334,0 -1.013334,0.346666 -0.426666,0.346667 -0.72,0.853334 -0.28,0.493333 -0.426666,1.053333 -0.146667,0.56 -0.146667,1 z"
            id="path846" />
        <path style="fill:#2c5967"
            d="m 37.60433,14.94972 q 0,-0.44 -0.146666,-1 -0.146667,-0.56 -0.44,-1.053333 Q 36.72433,12.38972 36.28433,12.043053 35.857664,11.696387 35.284331,11.696387 h -6.106667 v 6.68 h 6.293333 q 0.613334,0 1.026667,-0.373334 0.413333,-0.373333 0.653333,-0.906666 0.253333,-0.533334 0.346667,-1.12 0.106666,-0.586667 0.106666,-1.026667 z m -7.119999,-1.986667 h 4.64 q 0.213333,0 0.413333,0.16 0.2,0.16 0.346667,0.4 0.146666,0.226667 0.226666,0.493334 0.09333,0.253333 0.09333,0.453333 v 1.333333 q -0.04,0.186667 -0.146667,0.453334 -0.106667,0.253333 -0.28,0.493333 -0.173333,0.24 -0.4,0.413333 -0.213333,0.173334 -0.466667,0.173334 h -4.426666 z"
            id="path848" />
    </g>
</svg>