<?xml version="1.0" encoding="utf-8"?>
<!-- Generator: Adobe Illustrator 24.0.2, SVG Export Plug-In . SVG Version: 6.00 Build 0)  -->
<svg version="1.1" id="Layer_1" xmlns="http://www.w3.org/2000/svg" xmlns:xlink="http://www.w3.org/1999/xlink" x="0px" y="0px"
	 viewBox="0 0 41.1 42.34" style="enable-background:new 0 0 41.1 42.34;" xml:space="preserve">
<style type="text/css">
	.st0{fill:#FFFFFF;}
	.st1{fill:#2C5967;}
</style>
<g>
	<g>
		<g>
			<g>
				<path class="st0" d="M21.82,32.52c-6.63,0-12.02-5.39-12.02-12.02S15.19,8.48,21.82,8.48s12.02,5.39,12.02,12.02
					S28.45,32.52,21.82,32.52z"/>
				<path class="st0" d="M21.82,8.98c6.35,0,11.52,5.17,11.52,11.52c0,6.35-5.17,11.52-11.52,11.52c-6.35,0-11.52-5.17-11.52-11.52
					C10.3,14.15,15.47,8.98,21.82,8.98 M21.82,7.98C14.92,7.98,9.3,13.6,9.3,20.5c0,6.9,5.62,12.52,12.52,12.52
					c6.9,0,12.52-5.62,12.52-12.52C34.34,13.6,28.72,7.98,21.82,7.98L21.82,7.98z"/>
			</g>
			<g>
				<path class="st0" d="M11.81,41.84v-8.31h17.5c0.24-0.03,1.56-0.8,3.32-2.84c1.05-1.22,1.9-2.49,2.31-3.48l0.21-0.49l0.48,0.24
					c0.39,0.19,0.8,0.31,1.23,0.35l0.67,0.06l-0.24,0.62c-0.71,1.8-2.18,3.62-2.78,4.32c-0.69,0.8-2.39,2.65-3.95,3.38v6.17H11.81z"
					/>
				<path class="st0" d="M35.41,27.4c0.43,0.21,0.91,0.35,1.41,0.4c-0.68,1.74-2.15,3.54-2.7,4.17c-0.61,0.71-2.51,2.8-4.07,3.37v6
					H12.31v-7.31h17c0.44,0,1.93-0.96,3.7-3.01C34.13,29.72,34.98,28.42,35.41,27.4 M34.89,26.03l-0.41,0.98
					c-0.39,0.94-1.21,2.16-2.23,3.35c-1.6,1.86-2.74,2.55-3.02,2.67H12.31h-1v1v7.31v1h1h17.73h1v-1v-5.36
					c1.57-0.85,3.16-2.58,3.83-3.36c0.62-0.72,2.13-2.59,2.87-4.46l0.49-1.24l-1.33-0.12c-0.37-0.03-0.73-0.13-1.06-0.3L34.89,26.03
					L34.89,26.03z"/>
			</g>
			<g>
				<path class="st0" d="M37.11,27.21c-0.57-0.01-1.15-0.17-1.65-0.47c-1.05-0.61-1.7-1.75-1.7-2.96c0-1.89,1.54-3.43,3.43-3.43
					s3.43,1.54,3.43,3.43s-1.54,3.42-3.43,3.42L37.11,27.21z"/>
				<path class="st0" d="M37.18,20.87c1.61,0,2.93,1.31,2.93,2.93c0,1.61-1.31,2.93-2.93,2.93c-0.02,0-0.03,0-0.05,0
					c-0.52-0.01-1-0.15-1.42-0.4c-0.87-0.51-1.45-1.45-1.45-2.52C34.25,22.18,35.57,20.87,37.18,20.87 M37.18,19.87
					c-2.16,0-3.93,1.76-3.93,3.93c0,1.39,0.75,2.68,1.95,3.39c0.58,0.34,1.24,0.52,1.91,0.54l0.04,0l0.03,0
					c2.16,0,3.93-1.76,3.93-3.93C41.1,21.63,39.34,19.87,37.18,19.87L37.18,19.87z"/>
			</g>
			<g>
				<path class="st0" d="M4.84,16.22l0.14-0.48c1.34-4.73,4.64-8.71,9.06-10.92l0.45-0.22l1.09,2.21l-0.45,0.22
					c-3.8,1.89-6.64,5.31-7.79,9.38l-0.14,0.48L4.84,16.22z"/>
				<path class="st0" d="M14.26,5.27l0.65,1.31c-3.88,1.93-6.84,5.45-8.05,9.69l-1.41-0.4C6.77,11.23,10.02,7.39,14.26,5.27
					 M14.71,3.93l-0.9,0.45C9.27,6.64,5.87,10.73,4.5,15.6l-0.27,0.96l0.96,0.27l1.41,0.4l0.96,0.27l0.27-0.96
					c1.11-3.93,3.86-7.24,7.53-9.07l0.89-0.45l-0.44-0.89l-0.65-1.31L14.71,3.93L14.71,3.93z"/>
			</g>
			<g>
				<path class="st0" d="M0.62,15.03l0.14-0.48C2.43,8.62,6.56,3.65,12.09,0.89l0.45-0.22l1.09,2.21L13.19,3.1
					C8.28,5.54,4.61,9.96,3.12,15.22L2.99,15.7L0.62,15.03z"/>
				<path class="st0" d="M12.31,1.34l0.65,1.31C7.98,5.13,4.18,9.64,2.64,15.08l-1.41-0.4C2.89,8.84,6.97,4,12.31,1.34 M12.76,0
					l-0.9,0.45C6.21,3.26,1.99,8.35,0.27,14.41L0,15.37l0.96,0.27l1.41,0.4l0.96,0.27l0.27-0.96c1.45-5.12,5.02-9.42,9.81-11.81
					L14.3,3.1l-0.44-0.89L13.21,0.9L12.76,0L12.76,0z"/>
			</g>
		</g>
		<g>
			<path class="st1" d="M30.05,41.34H12.31v-7.31h17.73V41.34z M13.78,39.88h14.81v-4.39H13.78V39.88z"/>
		</g>
		<g>
			<path class="st1" d="M21.82,24.8c-2.37,0-4.3-1.93-4.3-4.3s1.93-4.3,4.3-4.3s4.3,1.93,4.3,4.3S24.19,24.8,21.82,24.8z
				 M21.82,17.67c-1.56,0-2.83,1.27-2.83,2.83s1.27,2.83,2.83,2.83s2.83-1.27,2.83-2.83S23.38,17.67,21.82,17.67z"/>
		</g>
		<g>
			<path class="st1" d="M21.82,32.02c-6.35,0-11.52-5.17-11.52-11.52c0-6.35,5.17-11.52,11.52-11.52s11.52,5.17,11.52,11.52
				C33.34,26.85,28.17,32.02,21.82,32.02z M21.82,10.44c-5.54,0-10.06,4.51-10.06,10.06c0,5.54,4.51,10.06,10.06,10.06
				s10.06-4.51,10.06-10.06C31.88,14.96,27.37,10.44,21.82,10.44z"/>
		</g>
		<g>
			<path class="st1" d="M33.01,31.01c-1.77,2.06-3.25,3.01-3.7,3.01v1.46c1.65,0,4.09-2.7,4.8-3.52c0.54-0.63,2.01-2.43,2.7-4.17
				c-0.5-0.04-0.98-0.18-1.41-0.4C34.98,28.42,34.13,29.72,33.01,31.01z"/>
			<g>
				<path class="st1" d="M37.18,20.87c-1.61,0-2.93,1.31-2.93,2.93c0,1.08,0.59,2.02,1.45,2.52c0.42,0.25,0.9,0.39,1.42,0.4
					c0.02,0,0.03,0,0.05,0c1.61,0,2.93-1.31,2.93-2.93S38.79,20.87,37.18,20.87z M37.18,25.25c-0.81,0-1.46-0.66-1.46-1.46
					c0-0.81,0.66-1.46,1.46-1.46c0.81,0,1.46,0.66,1.46,1.46C38.64,24.6,37.98,25.25,37.18,25.25z"/>
			</g>
		</g>
		<g>
			<path class="st1" d="M14.92,6.58l-0.65-1.31c-4.25,2.12-7.49,5.96-8.81,10.6l1.41,0.4C8.07,12.03,11.03,8.52,14.92,6.58z"/>
			<path class="st1" d="M12.96,2.65l-0.65-1.31C6.97,4,2.89,8.84,1.23,14.68l1.41,0.4C4.18,9.64,7.98,5.13,12.96,2.65z"/>
		</g>
	</g>
</g>
</svg>
