<?xml version="1.0" encoding="utf-8"?>
<!-- Generator: Adobe Illustrator 24.0.2, SVG Export Plug-In . SVG Version: 6.00 Build 0)  -->
<svg version="1.1" id="Layer_1" xmlns="http://www.w3.org/2000/svg" xmlns:xlink="http://www.w3.org/1999/xlink" x="0px" y="0px"
	 viewBox="0 0 31.48 42" style="enable-background:new 0 0 31.48 42;" xml:space="preserve">
<style type="text/css">
	.st0{fill:#FFFFFF;}
	.st1{fill:#2C5967;}
</style>
<g>
	<g>
		<path class="st0" d="M2.55,41.5c-1.13,0-2.05-0.92-2.05-2.05V2.55c0-1.13,0.92-2.05,2.05-2.05h18.28c1.13,0,2.05,0.92,2.05,2.05
			V5.5h6.05c1.13,0,2.05,0.92,2.05,2.05V34.1c0,1.13-0.92,2.05-2.05,2.05h-6.05v3.29c0,1.13-0.92,2.05-2.05,2.05H2.55z"/>
		<path class="st0" d="M20.83,1c0.86,0,1.55,0.7,1.55,1.55V6h6.55c0.86,0,1.55,0.7,1.55,1.55V34.1c0,0.86-0.7,1.55-1.55,1.55h-6.55
			v3.79c0,0.86-0.7,1.55-1.55,1.55H2.55C1.7,41,1,40.3,1,39.45V2.55C1,1.7,1.7,1,2.55,1H20.83 M20.83,0H2.55C1.14,0,0,1.14,0,2.55
			v36.9C0,40.86,1.14,42,2.55,42h18.28c1.41,0,2.55-1.14,2.55-2.55v-2.79h5.55c1.41,0,2.55-1.14,2.55-2.55V7.55
			c0-1.41-1.14-2.55-2.55-2.55h-5.55V2.55C23.38,1.14,22.23,0,20.83,0L20.83,0z"/>
	</g>
	<g>
		<path class="st1" d="M28.93,6h-5.52v1.38h5.52c0.09,0,0.17,0.08,0.17,0.17V34.1c0,0.09-0.08,0.17-0.17,0.17h-5.52v1.38h5.52
			c0.86,0,1.55-0.7,1.55-1.55V7.55C30.48,6.7,29.79,6,28.93,6z"/>
		<polygon class="st1" points="28.07,8.41 23.41,8.41 23.41,9.79 26.69,9.79 26.69,11.17 23.41,11.17 23.41,12.55 28.07,12.55 		"/>
		<polygon class="st1" points="28.07,13.59 23.41,13.59 23.41,14.97 26.69,14.97 26.69,16.34 23.41,16.34 23.41,17.72 28.07,17.72 
					"/>
		<polygon class="st1" points="28.07,18.76 23.41,18.76 23.41,20.14 26.69,20.14 26.69,21.52 23.41,21.52 23.41,22.9 28.07,22.9 		
			"/>
		<polygon class="st1" points="28.07,23.93 23.41,23.93 23.41,25.31 26.69,25.31 26.69,26.69 23.41,26.69 23.41,28.07 28.07,28.07 
					"/>
		<polygon class="st1" points="28.07,29.1 23.41,29.1 23.41,30.48 26.69,30.48 26.69,31.86 23.41,31.86 23.41,33.24 28.07,33.24 		
			"/>
		<path class="st1" d="M22.38,2.55c0-0.86-0.7-1.55-1.55-1.55H2.55C1.7,1,1,1.7,1,2.55v36.9C1,40.3,1.7,41,2.55,41h18.28
			c0.86,0,1.55-0.7,1.55-1.55V2.55z M20.83,39.62H2.55c-0.09,0-0.17-0.08-0.17-0.17V2.55c0-0.09,0.08-0.17,0.17-0.17h18.28
			c0.09,0,0.17,0.08,0.17,0.17v36.9C21,39.54,20.92,39.62,20.83,39.62z"/>
		<path class="st1" d="M19.97,9.62V3.41H3.41v6.21H19.97z M4.79,4.79h13.79v3.45H4.79V4.79z"/>
		<circle class="st1" cx="16.86" cy="6.52" r="0.69"/>
		<path class="st1" d="M19.97,16.86v-6.21H3.41v6.21H19.97z M4.79,12.03h13.79v3.45H4.79V12.03z"/>
		<circle class="st1" cx="16.86" cy="13.76" r="0.69"/>
		<path class="st1" d="M19.97,24.1V17.9H3.41v6.21H19.97z M4.79,19.28h13.79v3.45H4.79V19.28z"/>
		<circle class="st1" cx="16.86" cy="21" r="0.69"/>
		<path class="st1" d="M19.97,31.34v-6.21H3.41v6.21H19.97z M4.79,26.52h13.79v3.45H4.79V26.52z"/>
		<circle class="st1" cx="16.86" cy="28.24" r="0.69"/>
		<path class="st1" d="M19.97,32.38H3.41v6.21h16.55V32.38z M4.79,37.21v-3.45h13.79v3.45H4.79z"/>
		<circle class="st1" cx="16.86" cy="35.48" r="0.69"/>
	</g>
</g>
</svg>
