<?xml version="1.0" encoding="utf-8"?>
<!-- Generator: Adobe Illustrator 24.0.2, SVG Export Plug-In . SVG Version: 6.00 Build 0)  -->
<svg version="1.1" id="Layer_1" xmlns="http://www.w3.org/2000/svg" xmlns:xlink="http://www.w3.org/1999/xlink" x="0px" y="0px"
	 viewBox="0 0 41.65 42.76" style="enable-background:new 0 0 41.65 42.76;" xml:space="preserve">
<style type="text/css">
	.st0{fill:#FFFFFF;}
	.st1{fill:#2C5967;}
</style>
<g>
	<g>
		<g>
			<g>
				<rect x="0.5" y="1.31" class="st0" width="2.63" height="40.13"/>
				<path class="st0" d="M2.63,1.81v39.14H1V1.81H2.63 M3.63,0.81h-1H1H0v1v39.14v1h1h1.63h1v-1V1.81V0.81L3.63,0.81z"/>
			</g>
			<g>
				<rect x="6.41" y="1.31" class="st0" width="2.63" height="40.13"/>
				<path class="st0" d="M8.54,1.81v39.14H6.91V1.81H8.54 M9.54,0.81h-1H6.91h-1v1v39.14v1h1h1.63h1v-1V1.81V0.81L9.54,0.81z"/>
			</g>
			<g>
				<path class="st0" d="M10.45,32.44c-1.6-7.37-1.58-15.16,0.05-22.52l1.96-8.88l2.57,0.57l-1.96,8.88
					c-1.55,7-1.56,14.39-0.05,21.39l2.01,9.28l-2.57,0.56L10.45,32.44z"/>
				<path class="st0" d="M12.84,1.63l1.59,0.35l-1.86,8.39c-1.56,7.06-1.58,14.54-0.05,21.61l1.9,8.79l-1.59,0.35l-1.9-8.79
					c-1.58-7.3-1.56-15.01,0.05-22.3L12.84,1.63 M12.08,0.44l-0.22,0.98l-1.85,8.39C8.37,17.24,8.35,25.1,9.96,32.54l1.9,8.79
					l0.21,0.98l0.98-0.21l1.59-0.35l0.98-0.21l-0.21-0.98l-1.9-8.79c-1.5-6.93-1.48-14.25,0.05-21.18l1.86-8.39l0.22-0.98
					l-0.98-0.22l-1.59-0.35L12.08,0.44L12.08,0.44z"/>
			</g>
			<g>
				<path class="st0" d="M15.01,34.57c-3.86-8.51-3.82-18.26,0.11-26.75l3.25-7.02l2.39,1.1L17.5,8.92
					c-3.61,7.79-3.64,16.74-0.1,24.55l3.35,7.38l-2.4,1.09L15.01,34.57z"/>
				<path class="st0" d="M18.61,1.47l1.48,0.69l-3.04,6.56c-3.67,7.92-3.7,17.02-0.1,24.97l3.14,6.92l-1.48,0.67l-3.14-6.92
					c-3.8-8.38-3.76-17.98,0.1-26.33L18.61,1.47 M18.12,0.14L17.7,1.05l-3.04,6.56c-3.99,8.62-4.03,18.52-0.11,27.16l3.14,6.92
					l0.41,0.91l0.91-0.41l1.48-0.67l0.91-0.41L21,40.2l-3.14-6.92c-3.49-7.68-3.45-16.48,0.1-24.14l3.04-6.56l0.42-0.91L20.5,1.25
					l-1.48-0.69L18.12,0.14L18.12,0.14z"/>
			</g>
			<g>
				<path class="st0" d="M16.13,14.73c0.46-1.28,1.06-2.51,1.79-3.67l6.49-10.38l2.23,1.39l-5.67,9.08l-0.09,0.06
					c-1.53,1.02-2.86,2.39-3.85,3.95l-2.47,3.92L16.13,14.73z"/>
				<path class="st0" d="M24.56,1.38l1.38,0.86L20.6,10.8c-1.6,1.07-2.96,2.47-3.99,4.1c0.45-1.24,1.03-2.44,1.74-3.57L24.56,1.38
					 M24.25,0l-0.53,0.85L17.5,10.8c-0.74,1.18-1.36,2.45-1.83,3.76l-3.17,8.71l4.95-7.84c0.95-1.5,2.23-2.82,3.71-3.8l0.18-0.12
					l0.11-0.18l5.35-8.56l0.53-0.85l-0.85-0.53l-1.38-0.86L24.25,0L24.25,0z"/>
			</g>
			<g>
				<polygon class="st0" points="18.61,32.79 21.71,32.79 26.64,40.67 24.41,42.07 				"/>
				<path class="st0" d="M21.43,33.29l4.51,7.22l-1.38,0.86l-5.05-8.09H21.43 M21.99,32.29h-0.55h-1.92h-1.8l0.96,1.53l5.05,8.09
					l0.53,0.85l0.85-0.53l1.38-0.86l0.85-0.53l-0.53-0.85l-4.51-7.22L21.99,32.29L21.99,32.29z"/>
			</g>
			<g>
				<path class="st0" d="M20.35,32.57l-0.36-0.3c-3.03-2.48-4.77-6.15-4.77-10.08c0-7.15,5.82-12.97,12.97-12.97
					c7.15,0,12.97,5.82,12.97,12.97c0,3.93-1.75,7.6-4.81,10.08l-0.36,0.29H20.35z"/>
				<path class="st0" d="M28.18,9.73c6.88,0,12.47,5.59,12.47,12.47c0,3.78-1.68,7.31-4.62,9.69l-0.22,0.18H20.53l-0.23-0.18
					c-2.92-2.38-4.59-5.91-4.59-9.69C15.71,15.32,21.31,9.73,28.18,9.73 M28.18,8.73c-7.43,0-13.47,6.04-13.47,13.47
					c0,4.08,1.81,7.89,4.96,10.46l0.22,0.18l0.28,0.23h0.36H35.8h0.35l0.28-0.22l0.22-0.18c3.17-2.57,4.99-6.39,4.99-10.47
					C41.65,14.77,35.61,8.73,28.18,8.73L28.18,8.73z"/>
			</g>
		</g>
		<g>
			<rect x="1" y="1.81" class="st1" width="1.63" height="39.14"/>
			<rect x="6.91" y="1.81" class="st1" width="1.63" height="39.14"/>
			<path class="st1" d="M12.58,10.38l1.85-8.39l-1.59-0.35l-1.85,8.39c-1.61,7.29-1.63,15-0.05,22.3l1.9,8.79l1.59-0.35l-1.9-8.79
				C11,24.91,11.02,17.44,12.58,10.38z"/>
			<path class="st1" d="M17.05,8.72l3.04-6.56l-1.48-0.69l-3.04,6.56c-3.87,8.35-3.91,17.95-0.1,26.33l3.14,6.92l1.48-0.67
				l-3.14-6.92C13.34,25.74,13.38,16.64,17.05,8.72z"/>
			<path class="st1" d="M20.6,10.8l5.35-8.56l-1.38-0.86l-6.22,9.95c-0.71,1.13-1.29,2.33-1.74,3.57
				C17.63,13.27,18.99,11.87,20.6,10.8z"/>
			<g>
				<polygon class="st1" points="25.95,40.51 21.43,33.29 19.51,33.29 24.56,41.38 				"/>
			</g>
			<path class="st1" d="M28.18,9.73c-6.88,0-12.47,5.59-12.47,12.47c0,3.78,1.67,7.31,4.59,9.69l0.23,0.18H35.8l0.22-0.18
				c2.94-2.38,4.62-5.91,4.62-9.69C40.65,15.32,35.06,9.73,28.18,9.73z M32.58,11.59L32.58,11.59L32.58,11.59z M28.01,10.71
				L28.01,10.71L28.01,10.71z M19.93,14.11L19.93,14.11L19.93,14.11z M23.08,28.53l-1.15-1.15l-1.93,1.93
				c-0.57-0.66-1.05-1.37-1.45-2.14l2.54-1.05l-0.31-0.75l-0.31-0.75l-2.55,1.06c-0.27-0.81-0.45-1.67-0.52-2.54h2.78V21.5h-2.8
				c0.06-0.89,0.22-1.75,0.48-2.56l2.61,1.08l0.31-0.75l0.31-0.75l-2.63-1.09c0.39-0.79,0.87-1.53,1.44-2.2l2.03,2.03l1.15-1.15
				l-2.04-2.04c0.66-0.58,1.39-1.08,2.18-1.49l1.12,2.69l1.51-0.62l-1.12-2.71c0.79-0.27,1.62-0.45,2.48-0.53v2.94h0.82h0.82v-2.97
				c0.95,0.06,1.87,0.24,2.74,0.52l-1.13,2.74l1.51,0.62l1.13-2.73c0.8,0.41,1.54,0.91,2.21,1.49l-2.09,2.09l1.15,1.15l2.08-2.08
				c0.57,0.67,1.07,1.42,1.46,2.22l-2.7,1.12l0.62,1.51l2.69-1.12c0.26,0.83,0.43,1.7,0.49,2.6h-2.89v0.82v0.82h2.87
				c-0.08,0.88-0.25,1.75-0.54,2.57l-2.63-1.09l-0.62,1.51l2.61,1.08c-0.4,0.77-0.9,1.49-1.48,2.15l-1.97-1.97l-0.58,0.58
				l-0.58,0.58l1.91,1.91H21.17L23.08,28.53z M16.53,22.32L16.53,22.32L16.53,22.32z"/>
			<path class="st1" d="M26.56,24.38c0.46,0.39,1.02,0.6,1.62,0.6c0.07,0,0.13,0,0.2-0.01c0.66-0.05,1.27-0.36,1.7-0.87
				c0.43-0.51,0.64-1.15,0.59-1.82c-0.03-0.34-0.12-0.66-0.27-0.95l2.85-2.81l-1.14-1.16l-2.89,2.85c-0.38-0.17-0.8-0.25-1.23-0.22
				c-0.66,0.05-1.27,0.36-1.7,0.87C25.39,21.91,25.51,23.49,26.56,24.38z M29.27,21.31L29.27,21.31L29.27,21.31z M28.74,21.82
				c0.18,0.15,0.28,0.36,0.3,0.59c0.02,0.23-0.05,0.45-0.2,0.63c-0.15,0.18-0.36,0.28-0.59,0.3c-0.23,0.02-0.45-0.05-0.63-0.2
				c-0.18-0.15-0.28-0.36-0.3-0.59c-0.02-0.23,0.05-0.45,0.2-0.63c0.15-0.18,0.36-0.28,0.59-0.3c0.02,0,0.05,0,0.07,0
				C28.39,21.62,28.59,21.69,28.74,21.82L28.74,21.82z"/>
		</g>
	</g>
</g>
</svg>
