<?xml version="1.0" encoding="utf-8"?>
<!-- Generator: Adobe Illustrator 24.0.2, SVG Export Plug-In . SVG Version: 6.00 Build 0)  -->
<svg version="1.1" id="Layer_1" xmlns="http://www.w3.org/2000/svg" xmlns:xlink="http://www.w3.org/1999/xlink" x="0px" y="0px"
	 viewBox="0 0 42.96 42.55" style="enable-background:new 0 0 42.96 42.55;" xml:space="preserve">
<style type="text/css">
	.st0{fill:#FFFFFF;}
	.st1{fill:#2C5967;}
</style>
<g>
	<g>
		<path class="st0" d="M13.19,41.43l-1.36-0.46l-1.61-1.61H2.58c-1.15,0-2.08-0.93-2.08-2.08V2.58c0-1.15,0.93-2.08,2.08-2.08h34.7
			c1.15,0,2.08,0.93,2.08,2.08v9.38c4.13,4.85,4.13,12.04,0,16.89v8.44c0,1.15-0.93,2.08-2.08,2.08H15.85l-2.43,2.43L13.19,41.43z"
			/>
		<path class="st0" d="M37.28,1c0.87,0,1.58,0.71,1.58,1.58v9.57c4.14,4.71,4.14,11.8,0,16.51v8.63c0,0.87-0.71,1.58-1.58,1.58
			H15.65L13.51,41l-0.01-0.01L13.49,41l-1.4-0.47l0,0l-1.67-1.67H2.58C1.71,38.86,1,38.15,1,37.28V2.58C1,1.71,1.71,1,2.58,1H37.28
			 M37.28,0H2.58C1.16,0,0,1.16,0,2.58v34.7c0,1.42,1.16,2.58,2.58,2.58h7.43l1.38,1.38l0.17,0.17l0.22,0.07l1.1,0.37l0.48,0.7
			l0.85-0.84l1.85-1.85h21.22c1.42,0,2.58-1.16,2.58-2.58v-8.26c4.13-4.98,4.13-12.27,0-17.25v-9.2C39.86,1.16,38.7,0,37.28,0
			L37.28,0z"/>
	</g>
	<g>
		<path class="st1" d="M37.46,37.28c0,0.09-0.08,0.18-0.18,0.18H18.57c-0.09,0.09-0.18,0.19-0.27,0.28l-1.12,1.12h20.1
			c0.87,0,1.58-0.71,1.58-1.58v-7.09c-0.44,0.43-0.91,0.82-1.4,1.18V37.28z"/>
		<path class="st1" d="M8.39,38.32l-0.08-0.24L8.1,37.46H2.58c-0.09,0-0.18-0.08-0.18-0.18V2.58c0-0.09,0.08-0.18,0.18-0.18h34.7
			c0.09,0,0.18,0.08,0.18,0.18v6.85c0.49,0.36,0.96,0.76,1.4,1.18V2.58c0-0.87-0.71-1.58-1.58-1.58H2.58C1.71,1,1,1.71,1,2.58v34.7
			c0,0.87,0.71,1.58,1.58,1.58h6.36l-0.37-0.37L8.39,38.32z"/>
		<polygon class="st1" points="5.11,8.98 6.08,8.98 6.08,4.58 5.4,4.58 4.1,5.5 4.1,6.07 5.11,5.72 		"/>
		<rect x="7.77" y="8.08" class="st1" width="1.02" height="0.9"/>
		<rect x="7.77" y="5.73" class="st1" width="1.02" height="0.9"/>
		<polygon class="st1" points="11.51,8.98 12.47,7.29 13.46,8.98 14.56,8.98 13.18,6.68 14.49,4.52 13.44,4.52 12.54,6.05 
			11.62,4.52 10.53,4.52 11.83,6.66 10.46,8.98 		"/>
		<path class="st1" d="M17.83,4.43c-0.66,0-1.18,0.2-1.54,0.61c-0.36,0.4-0.55,0.97-0.55,1.71c0,0.74,0.18,1.31,0.54,1.71
			c0.36,0.4,0.88,0.6,1.54,0.6c0.67,0,1.19-0.2,1.55-0.6c0.36-0.4,0.54-0.97,0.54-1.71c0-0.73-0.18-1.3-0.55-1.71
			C19,4.63,18.49,4.43,17.83,4.43z M18.66,7.86c-0.18,0.26-0.46,0.39-0.83,0.39s-0.65-0.13-0.83-0.39
			c-0.18-0.26-0.27-0.63-0.27-1.12c0-0.49,0.09-0.86,0.27-1.11c0.18-0.26,0.46-0.38,0.83-0.38s0.65,0.13,0.83,0.38
			c0.18,0.26,0.27,0.63,0.27,1.11C18.93,7.23,18.84,7.6,18.66,7.86z"/>
		<path class="st1" d="M25.13,4.52h-1.06l-0.9,1.54l-0.92-1.54h-1.1l1.31,2.15l-1.37,2.31h1c0.03-0.02,0.06-0.04,0.09-0.06
			l0.92-1.63l0.49,0.84c0.28-0.14,0.57-0.26,0.86-0.37l-0.65-1.07L25.13,4.52z"/>
		<path class="st1" d="M30,5.04c-0.36-0.4-0.88-0.61-1.54-0.61c-0.66,0-1.18,0.2-1.54,0.61c-0.36,0.4-0.55,0.97-0.55,1.71
			c0,0.15,0.01,0.28,0.02,0.41c0.32-0.07,0.64-0.14,0.97-0.19c0-0.07-0.01-0.15-0.01-0.23c0-0.49,0.09-0.86,0.27-1.11
			c0.18-0.26,0.46-0.38,0.83-0.38s0.65,0.13,0.83,0.38c0.18,0.26,0.27,0.63,0.27,1.11c0,0.02,0,0.05,0,0.07
			c0.33,0,0.66,0.02,0.98,0.04c0-0.04,0-0.08,0-0.12C30.54,6.01,30.36,5.44,30,5.04z"/>
		<path class="st1" d="M35.76,4.52H34.7l-0.9,1.54l-0.92-1.54h-1.1l1.31,2.15l-0.33,0.55c0.29,0.07,0.58,0.16,0.87,0.25l0.1-0.18
			l0.16,0.27c0.49,0.17,0.97,0.36,1.43,0.59l-0.88-1.46L35.76,4.52z"/>
		<path class="st1" d="M5.95,15.58c0.25-0.28,0.45-0.52,0.6-0.73c0.15-0.2,0.26-0.39,0.32-0.55c0.07-0.16,0.1-0.33,0.1-0.49
			c0-0.4-0.13-0.71-0.39-0.93c-0.26-0.22-0.63-0.33-1.1-0.33c-0.21,0-0.43,0.03-0.65,0.08C4.6,12.7,4.39,12.77,4.2,12.87v0.82
			c0.42-0.22,0.8-0.34,1.13-0.34c0.47,0,0.71,0.19,0.71,0.56c0,0.09-0.02,0.19-0.07,0.29c-0.05,0.1-0.13,0.23-0.25,0.38
			c-0.12,0.15-0.29,0.34-0.51,0.58l-1.12,1.23v0.64h2.9v-0.78H5.33L5.95,15.58z"/>
		<rect x="7.75" y="16.14" class="st1" width="1.02" height="0.9"/>
		<rect x="7.75" y="13.79" class="st1" width="1.02" height="0.9"/>
		<polygon class="st1" points="14.59,12.58 13.54,12.58 12.64,14.12 11.72,12.58 10.62,12.58 11.93,14.72 10.56,17.04 11.61,17.04 
			12.57,15.35 13.56,17.04 14.66,17.04 13.28,14.74 		"/>
		<path class="st1" d="M16.38,13.1c-0.36,0.4-0.55,0.97-0.55,1.71c0,0.74,0.18,1.31,0.54,1.71c0.01,0.01,0.02,0.02,0.03,0.03
			c0.13-0.43,0.27-0.85,0.44-1.27c-0.02-0.15-0.04-0.31-0.04-0.48c0-0.49,0.09-0.86,0.27-1.11c0.17-0.24,0.43-0.36,0.76-0.38
			c0.16-0.27,0.33-0.53,0.52-0.78c-0.14-0.02-0.29-0.04-0.45-0.04C17.26,12.49,16.75,12.69,16.38,13.1z"/>
		<path class="st1" d="M20.84,30.92l-1.94,2.39l-0.02,0.02c-0.71,0.94-1.48,1.84-2.32,2.67l-1.74,1.74l-2.72-2.72l1.74-1.74
			c0.83-0.83,1.73-1.61,2.66-2.31l2.53-1.84c-0.3-0.36-0.59-0.73-0.85-1.12l-2.52,1.83c-0.99,0.74-1.94,1.57-2.82,2.45l-2.73,2.73
			l4.71,4.71l2.73-2.73c0.87-0.88,1.7-1.82,2.44-2.81l1.97-2.43C21.58,31.49,21.2,31.21,20.84,30.92z"/>
		<polygon class="st1" points="9.31,35.89 8.84,36.35 9.31,37.75 9.31,37.75 9.31,37.75 12.1,40.53 12.1,40.53 13.49,41 
			13.96,40.54 		"/>
		<path class="st1" d="M29.44,32.93c3.21,0,6.42-1.22,8.86-3.67c4.89-4.89,4.89-12.84,0-17.73c-4.89-4.89-12.84-4.89-17.73,0
			c-4.89,4.89-4.89,12.84,0,17.73C23.02,31.71,26.23,32.93,29.44,32.93z M21.57,12.53c2.17-2.17,5.02-3.26,7.87-3.26
			c2.85,0,5.7,1.09,7.87,3.26c4.34,4.34,4.34,11.41,0,15.75c-4.34,4.34-11.41,4.34-15.75,0C17.23,23.93,17.23,16.87,21.57,12.53z"/>
		<path class="st1" d="M25.81,24.37c1.17,0,2.07-0.35,2.69-1.05c0.63-0.7,0.94-1.7,0.94-2.99c0-1.28-0.32-2.27-0.95-2.97
			c-0.63-0.71-1.53-1.06-2.68-1.06s-2.05,0.35-2.68,1.06c-0.63,0.71-0.95,1.7-0.95,2.97c0,1.29,0.32,2.29,0.95,2.99
			C23.75,24.02,24.65,24.37,25.81,24.37z M24.36,18.39c0.32-0.45,0.8-0.67,1.45-0.67c0.65,0,1.13,0.22,1.45,0.67
			c0.32,0.45,0.48,1.09,0.48,1.94c0,0.85-0.16,1.5-0.48,1.95c-0.32,0.45-0.8,0.67-1.45,0.67c-0.65,0-1.13-0.22-1.45-0.67
			c-0.32-0.45-0.48-1.1-0.48-1.95C23.89,19.48,24.04,18.84,24.36,18.39z"/>
		<path class="st1" d="M33.99,19.13l-1.6-2.68h-1.91l2.28,3.74l-2.39,4.03h1.84l1.67-2.94l1.73,2.94h0.25
			c0.3-0.5,0.54-1.04,0.71-1.59l-1.45-2.41l1.38-2.28c-0.18-0.52-0.42-1.02-0.72-1.5h-0.22L33.99,19.13z"/>
		<path class="st1" d="M29.44,30.3c2.54,0,5.07-0.97,7.01-2.9c3.86-3.86,3.86-10.15,0-14.01c-3.86-3.86-10.15-3.86-14.01,0
			c-1.87,1.87-2.9,4.36-2.9,7.01s1.03,5.14,2.9,7.01C24.37,29.34,26.91,30.3,29.44,30.3z M23.43,14.39
			c1.66-1.66,3.84-2.49,6.01-2.49c2.18,0,4.36,0.83,6.01,2.49c3.32,3.32,3.32,8.71,0,12.03c-3.32,3.32-8.71,3.32-12.03,0
			c-1.6-1.6-2.49-3.74-2.49-6.01S21.83,15.99,23.43,14.39z"/>
	</g>
</g>
</svg>
