<?xml version="1.0" encoding="utf-8"?>
<!-- Generator: Adobe Illustrator 21.0.0, SVG Export Plug-In . SVG Version: 6.00 Build 0)  -->
<!DOCTYPE svg PUBLIC "-//W3C//DTD SVG 1.1//EN" "http://www.w3.org/Graphics/SVG/1.1/DTD/svg11.dtd">
<svg version="1.1" id="Icons" xmlns="http://www.w3.org/2000/svg" x="0px" y="0px"
	 viewBox="0 0 288 288" style="enable-background:new 0 0 288 288;" xml:space="preserve">
<style type="text/css">
	.svg-blue{fill:#0066cc;}
</style>
<g transform="translate(-140, -140) scale(2, 2)">
	<path class="svg-blue" d="M194.6,81.8H93.4c-3.5,0-6.3,2.8-6.3,6.3v54.3h18.2v-23.9c0-5.2,4.2-9.3,9.3-9.3h20.1c5.2,0,9.3,4.2,9.3,9.3v20.9l22.7-21.8l-3-3.1l12.7-3.1l-3.6,12.6l-3-3.1l-22.4,21.6h28.7v-4.4l11.3,6.5l-11.3,6.5v-4.4h-28.7l22.4,21.6l3-3.1l3.6,12.6l-12.7-3.1l3-3.1l-22.7-21.8v20.9c0,5.2-4.2,9.3-9.3,9.3h-20.1c-5.2,0-9.3-4.2-9.3-9.3v-23.9H87.1v53c0,3.5,2.8,6.3,6.3,6.3h101.1c3.5,0,6.3-2.8,6.3-6.3V88.1C200.9,84.7,198,81.8,194.6,81.8z"/>
	<path class="svg-blue" d="M109.8,146.8v23.9c0,2.7,2.2,5,5,5h20.1c2.7,0,5-2.2,5-5v-52.1c0-2.7-2.2-5-5-5h-20.1c-2.7,0-5,2.2-5,5v23.9h16.1v-4.4l11.3,6.5l-11.3,6.5v-4.4H109.8z"/>
</g>
</svg>
