<svg width="60" height="60" viewBox="0 0 60 60" fill="none" xmlns="http://www.w3.org/2000/svg">
   <path
      d="M39.3697 49.7281C28.1319 49.7281 19.0222 47.7528 19.0222 45.316V55.5877C19.0222 58.0245 28.1319 59.9998 39.3697 59.9998C50.6075 59.9998 59.7172 58.0245 59.7172 55.5877V45.316C59.7172 47.7528 50.6075 49.7281 39.3697 49.7281ZM56.4903 51.8197C54.9532 52.3508 53.3596 52.7691 51.7595 53.0646C49.8505 53.4132 47.8984 53.5925 45.953 53.5925C45.4849 53.5925 45.1031 53.214 45.1031 52.7459C45.1031 52.2778 45.4816 51.8993 45.953 51.8993C47.7955 51.8993 49.6447 51.73 51.454 51.398C52.9712 51.1192 54.4784 50.7241 55.9359 50.2195C56.3807 50.0668 56.8621 50.2992 57.0181 50.744C57.1708 51.1856 56.9385 51.6703 56.4936 51.823L56.4903 51.8197ZM39.3697 36.5184C28.1319 36.5184 19.0222 34.5431 19.0222 32.1063V42.9224C19.0222 45.3592 28.1319 47.3312 39.3697 47.3312C50.6075 47.3312 59.7172 45.3559 59.7172 42.9191V32.103C59.7172 34.5397 50.6075 36.5151 39.3697 36.5151V36.5184ZM56.4903 38.9684C54.9499 39.4996 53.3596 39.9179 51.7595 40.2134C49.8505 40.562 47.8951 40.7413 45.953 40.7413C45.4849 40.7413 45.1031 40.3628 45.1031 39.8947C45.1031 39.4266 45.4816 39.0481 45.953 39.0481C47.7955 39.0481 49.6447 38.8788 51.454 38.5468C52.9712 38.268 54.4784 37.8729 55.9359 37.3683C56.3807 37.2156 56.8621 37.4479 57.0181 37.8928C57.1742 38.3377 56.9385 38.8191 56.4936 38.9718L56.4903 38.9684ZM39.3697 15.4472C28.1319 15.4472 19.0222 17.3993 19.0222 20.6295V29.716C19.0222 32.1528 28.1319 34.1248 39.3697 34.1248C50.6075 34.1248 59.7172 32.1494 59.7172 29.7126V20.9582C59.7172 17.3959 50.6075 15.4472 39.3697 15.4472ZM56.4903 26.4857C54.9499 27.0169 53.3596 27.4352 51.7595 27.7307C49.8505 28.0793 47.8984 28.2585 45.953 28.2585C45.4849 28.2585 45.1031 27.8801 45.1031 27.412C45.1031 26.9439 45.4816 26.5654 45.953 26.5654C47.7955 26.5654 49.6447 26.3961 51.454 26.0641C52.9679 25.7852 54.4784 25.3902 55.9359 24.8856C56.3807 24.7328 56.8621 24.9652 57.0181 25.4101C57.1708 25.8516 56.9385 26.3363 56.4936 26.4891L56.4903 26.4857ZM39.3697 23.4813C29.2474 23.4813 21.044 21.6387 21.044 20.5465C21.044 19.2053 29.2474 17.1337 39.3697 17.1337C49.492 17.1337 57.6954 19.2883 57.6954 20.5465C57.6954 21.6885 49.492 23.4813 39.3697 23.4813Z"
      fill="url(#paint0_linear_9859_8511)" />
   <path
      d="M19.0223 20.5433V20.3873C19.0223 17.3762 26.9502 15.4772 37.1389 15.2349C35.9669 12.6055 33.5136 10.6568 30.5124 10.2584C30.2568 4.39218 25.3367 -0.175962 19.4705 0.00663096C14.8028 -0.0763658 10.5899 2.79532 8.96312 7.17091C3.97999 7.77181 0.185381 11.9283 0.0393066 16.9446C0.261738 22.6149 5.02907 27.0337 10.6994 26.8312C11.0148 26.8312 11.3368 26.8179 11.6356 26.7913H19.019L19.0223 20.5433Z"
      fill="url(#paint1_linear_9859_8511)" />
   <defs>
      <linearGradient id="paint0_linear_9859_8511" x1="19.0222" y1="37.7235" x2="59.7172" y2="37.7235"
         gradientUnits="userSpaceOnUse">
         <stop stop-color="#C74634" />
         <stop offset="0.5" stop-color="#DB897D" />
         <stop offset="1" stop-color="#C74634" />
      </linearGradient>
      <linearGradient id="paint1_linear_9859_8511" x1="18.5874" y1="26.8378" x2="18.5874" y2="-8.93838e-06"
         gradientUnits="userSpaceOnUse">
         <stop stop-color="#32BEDD" />
         <stop offset="1" stop-color="#50E6FF" />
      </linearGradient>
   </defs>
</svg>