<svg width="61" height="60" viewBox="0 0 61 60" fill="none" xmlns="http://www.w3.org/2000/svg">
   <path
      d="M30.5 25.5467C31.4233 25.5467 33.1933 25.6067 33.1933 25.6067C33.1933 25.6067 32.0133 23.6667 31.6233 21.63L29.8967 19.9034C28.8167 18.8234 28.8167 17.07 29.8967 15.99L29.9167 15.97C30.44 15.4467 31.1333 15.16 31.8733 15.16C31.93 15.16 31.99 15.1667 32.0467 15.17C32.36 14.2267 32.7833 13.3334 33.2967 12.4934C32.63 12.22 31.92 12.0234 31.1767 11.9267C30.9233 6.0267 25.97 1.4267 20.0633 1.61003C15.3633 1.5267 11.1233 4.4167 9.48667 8.82336C4.46667 9.42336 0.65 13.6067 0.5 18.6567C0.723333 24.3634 5.52333 28.8134 11.2333 28.6067C11.5533 28.6067 11.8767 28.5934 12.1767 28.5667H15.78C17.1167 26.67 23.19 25.5467 30.5033 25.5467H30.5Z"
      fill="url(#paint0_linear_9859_7237)" />
   <path
      d="M36.4333 22.3467L39.9433 18.8367C40.4367 18.3434 40.4367 17.5401 39.9433 17.0467L39.9233 17.0267C39.43 16.5334 38.6267 16.5334 38.1333 17.0267L36.7733 18.3867C37.22 13.6801 41.2 10.0067 46.0033 10.0067C49.9267 10.0067 52 11.8567 53.3767 13.6501C53.85 14.2667 54.7467 14.3501 55.2967 13.8001L55.3067 13.7901C55.75 13.3467 55.8133 12.6401 55.4333 12.1434C53.2467 9.27674 49.7967 7.46007 46.0033 7.46007C39.7533 7.4334 34.6133 12.3034 34.1967 18.4567L32.7667 17.0267C32.2733 16.5334 31.47 16.5334 30.9767 17.0267L30.9567 17.0467C30.4633 17.5401 30.4633 18.3434 30.9567 18.8367L34.4667 22.3467C35.01 22.8901 35.89 22.8901 36.4333 22.3467ZM43.52 14.1034L40.34 22.8401C40.0167 23.7301 40.6767 24.6701 41.6233 24.6701C42.22 24.6701 42.7433 24.2834 42.9233 23.7167L43.4733 21.9834H47.77L48.3233 23.7101C48.5067 24.2834 49.0367 24.6701 49.64 24.6701C50.5933 24.6701 51.26 23.7267 50.94 22.8267L47.8433 14.1167C47.5167 13.2034 46.6533 12.5901 45.68 12.5901C44.7167 12.5901 43.8533 13.1934 43.5233 14.1001L43.52 14.1034ZM47.1433 19.8967H44.0533L45.3667 15.8034C45.48 15.4567 45.55 15.1034 45.5767 14.7501H45.6433C45.6833 15.1701 45.75 15.5334 45.8467 15.8367L47.1433 19.8967ZM60.13 19.7001L56.6267 16.1967C56.0833 15.6534 55.2033 15.6534 54.66 16.1967L51.15 19.7067C50.6567 20.2001 50.6567 21.0034 51.15 21.4967L51.17 21.5167C51.6633 22.0101 52.4667 22.0101 52.96 21.5167L54.32 20.1567C53.8733 24.8634 49.8933 28.5367 45.09 28.5367C42.13 28.5367 39.4333 27.1301 37.7167 24.8934C37.2433 24.2767 36.3467 24.1934 35.7967 24.7434L35.7867 24.7534C35.3433 25.1967 35.28 25.9034 35.66 26.4001C37.8467 29.2667 41.2967 31.0834 45.09 31.0834C51.34 31.0834 56.48 26.2101 56.8967 20.0567L58.3333 21.4934C58.8267 21.9867 59.6233 21.9867 60.1167 21.5001L60.1233 21.4934C60.6233 21.0001 60.6267 20.1967 60.13 19.7001Z"
      fill="#0078D4" />
   <path
      d="M30.5 41.09C22.21 41.09 15.49 39.6333 15.49 37.8367V45.8167C15.49 47.6133 22.21 49.07 30.5 49.07C38.79 49.07 45.51 47.6133 45.51 45.8167V37.8367C45.51 39.6333 38.79 41.09 30.5 41.09ZM43.13 42.8967C41.9933 43.29 40.82 43.5967 39.64 43.8133C38.23 44.07 36.79 44.2033 35.3567 44.2033C35.01 44.2033 34.73 43.9233 34.73 43.5767C34.73 43.23 35.01 42.95 35.3567 42.95C36.7133 42.95 38.08 42.8233 39.4133 42.58C40.5333 42.3733 41.6433 42.0833 42.72 41.71C43.0467 41.5967 43.4033 41.77 43.5167 42.0967C43.63 42.4233 43.4567 42.78 43.13 42.8933V42.8967ZM30.5 50.8333C22.21 50.8333 15.49 49.3767 15.49 47.58V55.1567C15.49 56.9533 22.21 58.41 30.5 58.41C38.79 58.41 45.51 56.9533 45.51 55.1567V47.58C45.51 49.3767 38.79 50.8333 30.5 50.8333ZM43.13 52.3767C41.9967 52.77 40.82 53.0767 39.64 53.2933C38.2333 53.55 36.79 53.6833 35.3567 53.6833C35.01 53.6833 34.73 53.4033 34.73 53.0567C34.73 52.71 35.01 52.43 35.3567 52.43C36.7133 52.43 38.08 52.3033 39.4133 52.06C40.5333 51.8533 41.6433 51.5633 42.72 51.19C43.0467 51.0767 43.4033 51.25 43.5167 51.5767C43.63 51.9033 43.4567 52.26 43.13 52.3733V52.3767ZM45.51 32.8433C44.7433 32.8433 44.0067 32.7333 43.2767 32.6167C43.3767 32.69 43.4767 32.7633 43.52 32.89C43.6333 33.2167 43.46 33.5733 43.1333 33.6867C41.9967 34.08 40.8233 34.39 39.6433 34.6033C38.2367 34.86 36.7933 34.9933 35.36 34.9933C35.0133 34.9933 34.7333 34.7133 34.7333 34.37C34.7333 34.0233 35.0133 33.7433 35.36 33.7433C36.7167 33.7433 38.0833 33.6167 39.4167 33.3733C40.49 33.1767 41.5567 32.89 42.5967 32.5367C41.1333 32.23 39.7867 31.6533 38.5267 30.9367C36.2767 31.25 33.52 31.47 30.5033 31.47C23.0367 31.47 16.9833 30.11 16.9833 29.3033C16.9833 28.3133 23.0367 26.7867 30.5033 26.7867C31.7233 26.7867 32.8833 26.84 34.0067 26.9167C33.7033 26.5 33.4533 26.0533 33.1967 25.6033C32.32 25.5667 31.4267 25.5433 30.5033 25.5433C22.2133 25.5433 15.4933 26.9833 15.4933 29.3667V36.07C15.4933 37.8667 22.2133 39.3233 30.5033 39.3233C38.7933 39.3233 45.5133 37.8667 45.5133 36.07L45.51 32.8433Z"
      fill="url(#paint1_linear_9859_7237)" />
   <defs>
      <linearGradient id="paint0_linear_9859_7237" x1="16.8967" y1="28.6134" x2="16.8967" y2="1.60003"
         gradientUnits="userSpaceOnUse">
         <stop stop-color="#32BEDD" />
         <stop offset="1" stop-color="#50E6FF" />
      </linearGradient>
      <linearGradient id="paint1_linear_9859_7237" x1="15.49" y1="41.98" x2="45.51" y2="41.98"
         gradientUnits="userSpaceOnUse">
         <stop stop-color="#C74634" />
         <stop offset="0.5" stop-color="#DB897D" />
         <stop offset="1" stop-color="#C74634" />
      </linearGradient>
   </defs>
</svg>