<svg width="60" height="60" viewBox="0 0 60 60" fill="none" xmlns="http://www.w3.org/2000/svg">
   <path
      d="M20.5467 25.57C26.11 25.57 30.9133 26.2333 33.51 27.4533C36.1833 26.0533 38.05 23.3233 38.1667 20.11C38.04 15.91 34.89 12.4233 30.7233 11.87C30.4667 5.95996 25.5067 1.3533 19.5933 1.5333C14.8867 1.44663 10.64 4.3433 9 8.75663C3.97333 9.36663 0.15 13.5566 0 18.6133C0.166667 22.87 2.88333 26.4133 6.61667 27.8666C8.83333 26.4133 14.2233 25.57 20.5467 25.57Z"
      fill="url(#paint0_linear_9859_7705)" />
   <path
      d="M58.2701 2.38997H31.7434C30.8334 2.34664 30.0601 3.04664 30.0134 3.95664V27.7133C32.5201 28.23 34.0768 28.87 34.0768 29.34C34.0768 29.4033 35.5701 29.5633 35.5701 29.5633V48.5733H58.2701C59.1801 48.6166 59.9534 47.9166 60.0001 47.0066V3.95664C59.9534 3.04664 59.1801 2.34664 58.2701 2.38997Z"
      fill="url(#paint1_linear_9859_7705)" />
   <path
      d="M34.4234 22.1467C34.3334 20.2567 35.7934 18.65 37.6834 18.5533H52.6067C54.4967 18.65 55.9534 20.2567 55.8667 22.1467C55.9534 24.0367 54.4967 25.6433 52.6067 25.74H37.6834C35.7934 25.6433 34.3367 24.04 34.4234 22.1467Z"
      fill="#003067" />
   <path
      d="M34.4234 11.4666C34.3334 9.57662 35.7934 7.96996 37.6834 7.87329H52.6067C54.4967 7.96996 55.9534 9.57662 55.8667 11.4666C55.9534 13.3566 54.4967 14.9633 52.6067 15.06H37.6834C35.7934 14.9633 34.3367 13.36 34.4234 11.4666Z"
      fill="#003067" />
   <path
      d="M38.6168 13.8766C39.9478 13.8766 41.0268 12.7976 41.0268 11.4666C41.0268 10.1356 39.9478 9.05664 38.6168 9.05664C37.2858 9.05664 36.2068 10.1356 36.2068 11.4666C36.2068 12.7976 37.2858 13.8766 38.6168 13.8766Z"
      fill="#50E6FF" />
   <path
      d="M38.6168 24.5467C39.9478 24.5467 41.0268 23.4677 41.0268 22.1367C41.0268 20.8057 39.9478 19.7267 38.6168 19.7267C37.2858 19.7267 36.2068 20.8057 36.2068 22.1367C36.2068 23.4677 37.2858 24.5467 38.6168 24.5467Z"
      fill="#50E6FF" />
   <path
      d="M49.9668 42.6733L46.6601 37.7L49.9401 32.77C50.3568 32.1433 50.1868 31.2967 49.5601 30.88C48.9335 30.46 48.0868 30.6333 47.6701 31.26L45.0268 35.2367L42.3835 31.26C41.9668 30.6333 41.1201 30.46 40.4934 30.88C39.8668 31.2967 39.6968 32.1433 40.1135 32.77L43.3934 37.7L40.0868 42.6733C39.6701 43.3 39.8401 44.1467 40.4668 44.5633C40.6968 44.7167 40.9601 44.79 41.2201 44.79C41.6601 44.79 42.0968 44.5767 42.3568 44.18L45.0301 40.16L47.7035 44.18C47.9668 44.5767 48.4001 44.79 48.8401 44.79C49.1001 44.79 49.3635 44.7167 49.5935 44.5633C50.2201 44.1467 50.3901 43.3 49.9734 42.6733H49.9668Z"
      fill="#003067" />
   <path
      d="M20.5467 50.8866C12.2467 50.8866 5.52002 49.4299 5.52002 47.6299V55.2132C5.52002 57.0132 12.2467 58.4699 20.5467 58.4699C28.8467 58.4699 35.5734 57.0132 35.5734 55.2132V47.6299C35.5734 49.4299 28.8467 50.8866 20.5467 50.8866ZM33.19 52.4332C32.0534 52.8266 30.88 53.1366 29.6967 53.3532C28.2867 53.6132 26.8434 53.7432 25.41 53.7432C25.0634 53.7432 24.7834 53.4632 24.7834 53.1166C24.7834 52.7699 25.0634 52.4899 25.41 52.4899C26.77 52.4899 28.1367 52.3632 29.47 52.1199C30.59 51.9132 31.7034 51.6199 32.78 51.2499C33.1067 51.1366 33.4667 51.3099 33.58 51.6366C33.6934 51.9632 33.52 52.3199 33.1934 52.4332H33.19ZM20.5467 41.1332C12.2467 41.1332 5.52002 39.6766 5.52002 37.8766V45.8632C5.52002 47.6632 12.2467 49.1199 20.5467 49.1199C28.8467 49.1199 35.5734 47.6632 35.5734 45.8632V37.8766C35.5734 39.6766 28.8467 41.1332 20.5467 41.1332ZM33.19 42.9432C32.0534 43.3366 30.88 43.6466 29.6967 43.8632C28.2867 44.1232 26.8434 44.2532 25.41 44.2532C25.0634 44.2532 24.7834 43.9732 24.7834 43.6266C24.7834 43.2799 25.0634 42.9999 25.41 42.9999C26.77 42.9999 28.1367 42.8732 29.47 42.6299C30.59 42.4232 31.7034 42.1332 32.78 41.7599C33.1067 41.6466 33.4667 41.8199 33.58 42.1466C33.6934 42.4732 33.52 42.8299 33.1934 42.9432H33.19ZM20.5467 25.5732C12.2467 25.5732 5.52002 27.0166 5.52002 29.3999V36.1099C5.52002 37.9099 12.2467 39.3666 20.5467 39.3666C28.8467 39.3666 35.5734 37.9099 35.5734 36.1099V29.6466C35.5734 27.0166 28.8467 25.5732 20.5467 25.5732ZM33.19 33.7266C32.0534 34.1199 30.8767 34.4299 29.6967 34.6466C28.2867 34.9066 26.8434 35.0366 25.41 35.0366C25.0634 35.0366 24.7834 34.7566 24.7834 34.4099C24.7834 34.0632 25.0634 33.7832 25.41 33.7832C26.77 33.7832 28.1367 33.6566 29.47 33.4132C30.59 33.2066 31.7034 32.9166 32.78 32.5432C33.1067 32.4299 33.4667 32.6032 33.58 32.9299C33.6934 33.2566 33.52 33.6132 33.1934 33.7266H33.19ZM20.5467 31.5099C13.0734 31.5099 7.01335 30.1466 7.01335 29.3432C7.01335 28.3532 13.0734 26.8232 20.5467 26.8232C28.02 26.8232 34.08 28.4132 34.08 29.3432C34.08 30.1866 28.02 31.5099 20.5467 31.5099Z"
      fill="url(#paint2_linear_9859_7705)" />
   <defs>
      <linearGradient id="paint0_linear_9859_7705" x1="19.0833" y1="27.8666" x2="19.0833" y2="1.52997"
         gradientUnits="userSpaceOnUse">
         <stop stop-color="#32BEDD" />
         <stop offset="1" stop-color="#50E6FF" />
      </linearGradient>
      <linearGradient id="paint1_linear_9859_7705" x1="45.0068" y1="48.5766" x2="45.0068" y2="2.38997"
         gradientUnits="userSpaceOnUse">
         <stop stop-color="#979797" />
         <stop offset="1" stop-color="#B3B2B3" />
      </linearGradient>
      <linearGradient id="paint2_linear_9859_7705" x1="5.52002" y1="42.0199" x2="35.57" y2="42.0199"
         gradientUnits="userSpaceOnUse">
         <stop stop-color="#C74634" />
         <stop offset="0.5" stop-color="#DB897D" />
         <stop offset="1" stop-color="#C74634" />
      </linearGradient>
   </defs>
</svg>