<?xml version="1.0" encoding="utf-8"?>
<!-- Generator: Adobe Illustrator 24.0.2, SVG Export Plug-In . SVG Version: 6.00 Build 0)  -->
<svg version="1.1" id="Layer_1" xmlns="http://www.w3.org/2000/svg" xmlns:xlink="http://www.w3.org/1999/xlink" x="0px" y="0px"
	 viewBox="0 0 49.2 42" style="enable-background:new 0 0 49.2 42;" xml:space="preserve">
<g>
	<g>
		<path style="fill:#FFFFFF;" d="M17.3,41.5v-1.8l2.4-1.2H20l0.1-0.5h-8.8V25H0.5l0.1-1.6c0.3-4,2.6-7.6,6.2-9.4
			c0.8-0.4,1.4-1.2,1.5-2c0.6-2.8,2.5-5.2,5.1-6.4c1.1-0.5,2.3-0.7,3.6-0.7c0.3,0,0.5,0,0.8,0c0.1,0,0.2,0,0.3,0
			c0.8,0,1.5-0.3,2-0.9c2.1-2.2,5-3.5,8-3.5c4.1,0,7.9,2.3,9.7,6c0.4,0.8,1.1,1.4,2,1.6c1.2,0.3,2.4,0.8,3.5,1.5
			c4.9,3.1,6.6,9.6,3.9,14.7L47,25h-8.9V38h-8.8l0.1,0.5h0.5l2.4,1.2v1.8H17.3z"/>
		<path style="fill:#FFFFFF;" d="M28.2,1c4,0,7.5,2.2,9.3,5.7c0.5,0.9,1.3,1.6,2.4,1.8c1.2,0.3,2.3,0.7,3.4,1.4
			c4.7,3,6.3,9.1,3.7,14l-0.3,0.5h-9.1v12.9h-8.9l0.2,1.5h0.9l2,1v1h-2h-9.9h-2v-1l2-1h0.6l0.2-1.5h-8.9V24.5H1.1l0.1-1.1
			c0.3-3.9,2.5-7.2,5.9-9c0.9-0.5,1.6-1.4,1.8-2.4c0.5-2.7,2.3-4.9,4.8-6c1.1-0.5,2.2-0.7,3.4-0.7c0.3,0,0.5,0,0.8,0
			c0.1,0,0.2,0,0.3,0c0.9,0,1.8-0.4,2.4-1C22.6,2.2,25.3,1,28.2,1 M28.2,0c-3.2,0-6.2,1.3-8.3,3.6c-0.4,0.5-1,0.7-1.7,0.7
			c-0.1,0-0.2,0-0.2,0c-0.3,0-0.6,0-0.9,0c-1.3,0-2.6,0.3-3.8,0.8c-2.8,1.2-4.8,3.8-5.4,6.8c-0.1,0.7-0.6,1.3-1.3,1.7
			c-3.7,2-6.2,5.6-6.5,9.8l-0.1,1.1L0,25.5h1.1h9.7v11.9v1h1h6.9l-1.3,0.6l-0.6,0.3V40v1v1h1h2h9.9h2h1v-1v-1v-0.6l-0.6-0.3
			l-1.3-0.6h6.6h1v-1V25.5h8.1h0.6l0.3-0.5l0.3-0.5c2.9-5.4,1.1-12.1-4-15.4c-1.1-0.7-2.4-1.2-3.7-1.5c-0.7-0.2-1.4-0.6-1.7-1.3
			C36.5,2.4,32.6,0,28.2,0L28.2,0z"/>
	</g>
	<g>
		<path style="fill:#2C5967;" d="M11.8,37.5h8.9L20.5,39h-0.6v0l-2,1v1h2v0h9.9v0h2v-1l-2-1v0h-0.9l-0.2-1.5h8.9v-20H11.8V37.5z
			 M22.5,39l0.2-1.5h4l0.2,1.5H22.5z M13.8,19.5h21.8v12.4h-3.3v1h-2v-1h-2.4v1h-2v-1h-2.4v1h-2v-1h-2.4v1h-2v-1h-3V19.5z
			 M13.8,33.9h21.8v1.5H13.8V33.9z"/>
		<path style="fill:#2C5967;" d="M43.2,10c-1-0.7-2.2-1.1-3.4-1.4c-1-0.2-1.9-0.9-2.4-1.8C35.7,3.2,32.2,1,28.2,1
			c-2.9,0-5.7,1.2-7.6,3.3c-0.7,0.7-1.7,1.1-2.7,1C16.4,5.2,15,5.4,13.7,6c-2.5,1.1-4.3,3.4-4.8,6c-0.2,1-0.9,1.9-1.8,2.4
			c-3.4,1.8-5.6,5.2-5.9,9l-0.1,1.1h9.2v-2H3.3c0.5-2.7,2.2-5,4.7-6.3c1.5-0.8,2.5-2.2,2.8-3.8c0.4-2,1.8-3.7,3.7-4.6
			c1-0.4,2.1-0.6,3.1-0.5c1.7,0.2,3.3-0.4,4.4-1.7C23.7,4,25.9,3,28.2,3c3.2,0,6.1,1.8,7.5,4.6c0.7,1.5,2.1,2.6,3.8,2.9
			c1,0.2,1.9,0.6,2.7,1.1c3.6,2.3,5,7,3.3,10.8h-6.3v2h7.6l0.3-0.5C49.6,19.1,48,12.9,43.2,10z"/>
		<polygon style="fill:#2C5967;" points="16.8,28.3 16.8,31.9 16.8,32.9 18.8,32.9 18.8,31.9 18.8,28.3 		"/>
		<polygon style="fill:#2C5967;" points="21.3,26.3 21.3,31.9 21.3,32.9 23.3,32.9 23.3,31.9 23.3,26.3 		"/>
		<polygon style="fill:#2C5967;" points="25.8,23.5 25.8,31.9 25.8,32.9 27.8,32.9 27.8,31.9 27.8,23.5 		"/>
		<polygon style="fill:#2C5967;" points="30.2,21 30.2,31.9 30.2,32.9 32.3,32.9 32.3,31.9 32.3,21 		"/>
	</g>
</g>
</svg>
