<?xml version="1.0" encoding="utf-8"?>
<!-- Generator: Adobe Illustrator 24.0.2, SVG Export Plug-In . SVG Version: 6.00 Build 0)  -->
<svg version="1.1" id="Layer_1" xmlns="http://www.w3.org/2000/svg" xmlns:xlink="http://www.w3.org/1999/xlink" x="0px" y="0px"
	 viewBox="0 0 52.45 42" style="enable-background:new 0 0 52.45 42;" xml:space="preserve">
<style type="text/css">
	.st0{fill:#FFFFFF;}
	.st1{fill:#2C5967;}
</style>
<g>
	<g>
		<g>
			<path class="st0" d="M0.5,41.5V3.37c0-1.58,1.29-2.87,2.87-2.87h13.09c0.9,0,1.76,0.43,2.3,1.16l2.68,3.6h27.66
				c1.58,0,2.87,1.29,2.87,2.87V41.5H0.5z"/>
			<path class="st0" d="M16.46,1c0.74,0,1.45,0.36,1.9,0.95l2.83,3.8h27.91c1.3,0,2.37,1.06,2.37,2.37V41H1V3.37
				C1,2.06,2.06,1,3.37,1H16.46 M16.46,0H3.37C1.51,0,0,1.51,0,3.37V41v1h1h50.45h1v-1V8.12c0-1.86-1.51-3.37-3.37-3.37h-27.4
				l-2.53-3.4C18.53,0.51,17.52,0,16.46,0L16.46,0z"/>
		</g>
		<g>
			<path class="st1" d="M49.09,5.76H21.18l-2.83-3.8C17.91,1.36,17.2,1,16.46,1H3.37C2.06,1,1,2.06,1,3.37V41h50.45V8.12
				C51.45,6.82,50.39,5.76,49.09,5.76z M49.35,38.9H3.1V3.37c0-0.14,0.12-0.26,0.26-0.26h13.09c0.08,0,0.16,0.04,0.21,0.11
				l3.46,4.65h28.96c0.14,0,0.26,0.12,0.26,0.26V38.9z"/>
			<polygon class="st1" points="9.15,13.64 11.25,13.64 11.25,10.49 14.4,10.49 14.4,8.39 11.25,8.39 11.25,5.23 9.15,5.23 
				9.15,8.39 5.99,8.39 5.99,10.49 9.15,10.49 			"/>
			<path class="st1" d="M40.93,22.32l-1.84-3.3l-1.83,3.3l-2.78,5.02l-1.73,3.12h3.57h5.58h3.58l-1.75-3.13L40.93,22.32z
				 M36.31,28.36l2.78-5.02l2.8,5.02H36.31z"/>
			<path class="st1" d="M29.56,20.23c-0.88-0.54-1.88-0.83-2.9-0.83h0c-0.43,0-0.86,0.05-1.27,0.15c-2.96,0.7-4.8,3.68-4.1,6.64
				c0.59,2.5,2.8,4.25,5.37,4.25c0.42,0,0.85-0.05,1.26-0.15c1.44-0.34,2.65-1.22,3.43-2.47c0.77-1.25,1.01-2.73,0.68-4.17
				C31.69,22.22,30.81,21,29.56,20.23z M29.56,26.72c-0.48,0.78-1.23,1.32-2.12,1.53c-0.26,0.06-0.52,0.09-0.78,0.09
				c-1.55,0-2.95-1.06-3.33-2.63c-0.43-1.83,0.71-3.68,2.54-4.11c0.26-0.06,0.53-0.09,0.79-0.09c0.63,0,1.24,0.17,1.79,0.51
				c0.78,0.48,1.32,1.23,1.53,2.12C30.19,25.02,30.04,25.94,29.56,26.72z"/>
			<path class="st1" d="M16.83,20.73l-0.61-1.04h-1.21H11.2H9.99l-0.61,1.04l-1.92,3.28l-0.62,1.06l0.62,1.06l1.92,3.29l0.61,1.04
				h1.21h3.82h1.21l0.61-1.04l1.92-3.29l0.62-1.06l-0.62-1.06L16.83,20.73z M15.02,28.36H11.2l-1.92-3.29l1.92-3.28h3.82l1.92,3.28
				L15.02,28.36z"/>
		</g>
	</g>
</g>
</svg>
