<?xml version="1.0" encoding="utf-8"?>
<!-- Generator: Adobe Illustrator 24.0.2, SVG Export Plug-In . SVG Version: 6.00 Build 0)  -->
<svg version="1.1" id="Layer_1" xmlns="http://www.w3.org/2000/svg" xmlns:xlink="http://www.w3.org/1999/xlink" x="0px" y="0px"
	 viewBox="0 0 45.74 42" style="enable-background:new 0 0 45.74 42;" xml:space="preserve">
<style type="text/css">
	.st0{fill:#FFFFFF;}
	.st1{fill:#FFFFFF;stroke:#FFFFFF;stroke-miterlimit:10;}
	.st2{fill:#2C5967;}
</style>
<g>
	<g>
		<g>
			<g>
				<path class="st0" d="M2.66,41.5c-1.19,0-2.16-0.97-2.16-2.16V2.66c0-1.19,0.97-2.16,2.16-2.16h15.85c1.19,0,2.16,0.97,2.16,2.16
					v17.2h2.04l-1.19-1.19l1.75-1.75l4.18,4.18l-4.18,4.18l-1.75-1.75l1.19-1.19h-2.04v17.01c0,1.19-0.97,2.16-2.16,2.16H2.66z"/>
				<path class="st0" d="M18.51,1c0.91,0,1.66,0.74,1.66,1.66v17.7h3.75l-1.69-1.69l1.04-1.04l3.47,3.47l-3.47,3.47l-1.04-1.04
					l1.69-1.69h-3.75v17.51c0,0.91-0.74,1.66-1.66,1.66H2.66C1.74,41,1,40.26,1,39.34V2.66C1,1.74,1.74,1,2.66,1H18.51 M18.51,0
					H2.66C1.19,0,0,1.19,0,2.66v36.68C0,40.81,1.19,42,2.66,42h15.85c1.47,0,2.66-1.19,2.66-2.66V23.88l0.35,0.35l1.04,1.04
					l0.71,0.71l0.71-0.71l3.47-3.47l0.71-0.71l-0.71-0.71l-3.47-3.47l-0.71-0.71l-0.71,0.71l-1.04,1.04l-0.35,0.35V2.66
					C21.17,1.19,19.98,0,18.51,0L18.51,0z M21.17,19.35v-0.34l0.34,0.34H21.17L21.17,19.35z M21.17,22.83h0.34l-0.34,0.34V22.83
					L21.17,22.83z"/>
			</g>
			<path class="st1" d="M45.24,8V1h-7v2.58h-7.56v14.01h-2.76v7h2.76V34h-2.76v7h7v-7h-2.76v-9.4h2.76v-2.76h3.32v2.76h7v-7h-2.76V8
				H45.24z M41,17.59h-2.76v2.76h-3.32v-2.76h-2.76V5.06h6.08V8H41V17.59z"/>
		</g>
		<g>
			<path class="st2" d="M3.58,11.51h14.01V3.58H3.58V11.51z M5.06,5.06h11.06v4.98H5.06V5.06z"/>
			<circle class="st2" cx="13.72" cy="7.64" r="0.74"/>
			<path class="st2" d="M3.58,20.54h14.01v-7.93H3.58V20.54z M5.06,14.09h11.06v4.98H5.06V14.09z"/>
			<circle class="st2" cx="13.72" cy="16.67" r="0.74"/>
			<path class="st2" d="M3.58,29.57h14.01v-7.93H3.58V29.57z M5.06,23.12h11.06v4.98H5.06V23.12z"/>
			<circle class="st2" cx="13.72" cy="25.7" r="0.74"/>
			<path class="st2" d="M3.58,38.42h14.01v-7.74H3.58V38.42z M5.06,32.15h11.06v4.79H5.06V32.15z"/>
			<circle class="st2" cx="13.72" cy="34.73" r="0.74"/>
			<path class="st2" d="M45.24,8V1h-7v2.58h-7.56v14.01h-2.76v7h2.76V34h-2.76v7h7v-7h-2.76v-9.4h2.76v-2.76h3.32v2.76h7v-7h-2.76V8
				H45.24z M33.44,39.53h-4.06v-4.06h4.06V39.53z M39.71,2.47h4.06v4.06h-4.06V2.47z M33.44,23.12h-4.06v-4.06h4.06V23.12z
				 M43.76,23.12h-4.06v-4.06h4.06V23.12z M41,17.59h-2.76v2.76h-3.32v-2.76h-2.76V5.06h6.08V8H41V17.59z"/>
			<path class="st2" d="M22.23,18.66l1.69,1.69h-3.75V2.66c0-0.91-0.74-1.66-1.66-1.66H2.66C1.74,1,1,1.74,1,2.66v36.68
				C1,40.26,1.74,41,2.66,41h15.85c0.91,0,1.66-0.74,1.66-1.66V21.83h3.75l-1.69,1.69l1.04,1.04l3.47-3.47l-3.47-3.47L22.23,18.66z
				 M18.7,39.34c0,0.1-0.08,0.18-0.18,0.18H2.66c-0.1,0-0.18-0.08-0.18-0.18V2.66c0-0.1,0.08-0.18,0.18-0.18h15.85
				c0.1,0,0.18,0.08,0.18,0.18V39.34z"/>
		</g>
	</g>
</g>
</svg>
