<?xml version="1.0" encoding="utf-8"?>
<!-- Generator: Adobe Illustrator 24.0.2, SVG Export Plug-In . SVG Version: 6.00 Build 0)  -->
<svg version="1.1" id="Layer_1" xmlns="http://www.w3.org/2000/svg" xmlns:xlink="http://www.w3.org/1999/xlink" x="0px" y="0px"
	 viewBox="0 0 44.45 42" style="enable-background:new 0 0 44.45 42;" xml:space="preserve">
<style type="text/css">
	.st0{fill:#FFFFFF;}
	.st1{fill:#2C5967;}
</style>
<g>
	<g>
		<g>
			<path class="st0" d="M21.03,41.5C9.71,41.5,0.5,32.3,0.5,21S9.71,0.5,21.03,0.5c9.94,0,18.38,7.02,20.18,16.75
				c1.61,0.52,2.75,2.04,2.75,3.75s-1.14,3.24-2.75,3.75C39.4,34.48,30.97,41.5,21.03,41.5z"/>
			<path class="st0" d="M21.03,1c9.9,0,18.14,7.21,19.74,16.65c1.53,0.35,2.68,1.72,2.68,3.35c0,1.64-1.15,3.01-2.68,3.35
				C39.17,33.79,30.92,41,21.03,41C9.98,41,1,32.03,1,21S9.98,1,21.03,1 M21.03,0C9.43,0,0,9.42,0,21s9.43,21,21.03,21
				c10.09,0,18.66-7.06,20.62-16.87c1.66-0.66,2.81-2.3,2.81-4.13c0-1.82-1.15-3.46-2.81-4.13C39.69,7.06,31.11,0,21.03,0L21.03,0z"
				/>
		</g>
		<g>
			<path class="st1" d="M43.45,21c0-1.64-1.15-3.01-2.68-3.35C39.17,8.21,30.92,1,21.03,1C9.98,1,1,9.97,1,21s8.98,20,20.03,20
				c9.9,0,18.14-7.21,19.74-16.65C42.3,24.01,43.45,22.64,43.45,21z M40.01,22.77c-0.98,0-1.77-0.8-1.77-1.77s0.8-1.77,1.77-1.77
				s1.77,0.8,1.77,1.77S40.99,22.77,40.01,22.77z M39.08,17.69c-1.18,0.33-2.11,1.28-2.41,2.48h-7.7c-0.05-1.67-0.23-3.32-0.55-4.95
				c1.65-0.69,2.82-2.33,2.82-4.23c0-2.53-2.06-4.59-4.59-4.59c-0.46,0-0.91,0.07-1.32,0.2c-0.72-1.33-1.55-2.61-2.47-3.83
				C31.03,3.58,37.63,9.75,39.08,17.69z M15.39,27.09c2.49-0.59,4.4-2.68,4.75-5.25h7.17c-0.18,6.22-2.39,12.21-6.28,17.05
				C18.25,35.43,16.33,31.38,15.39,27.09z M9.34,21c0-2.53,2.06-4.59,4.59-4.59s4.59,2.06,4.59,4.59s-2.06,4.59-4.59,4.59
				S9.34,23.53,9.34,21z M20.13,20.17c-0.34-2.57-2.26-4.66-4.75-5.25c0.94-4.3,2.86-8.34,5.64-11.8c1.07,1.33,2.02,2.76,2.83,4.25
				c-1.08,0.84-1.78,2.15-1.78,3.63c0,2.53,2.06,4.59,4.59,4.59c0.05,0,0.09,0,0.14,0c0.29,1.51,0.46,3.04,0.51,4.59H20.13z
				 M26.66,8.07c1.61,0,2.92,1.31,2.92,2.92s-1.31,2.92-2.92,2.92s-2.92-1.31-2.92-2.92S25.05,8.07,26.66,8.07z M19.19,2.76
				c-2.69,3.56-4.55,7.65-5.47,11.99c-3.07,0.1-5.59,2.43-5.99,5.42H2.69C3.1,11.06,10.2,3.66,19.19,2.76z M2.69,21.83h5.04
				c0.4,2.99,2.92,5.31,5.99,5.42c0.92,4.33,2.78,8.43,5.47,11.99C10.2,38.34,3.1,30.94,2.69,21.83z M22.87,39.24
				c3.79-5.01,5.94-11.1,6.11-17.4h7.7c0.3,1.2,1.22,2.15,2.41,2.48C37.63,32.25,31.03,38.42,22.87,39.24z"/>
		</g>
	</g>
</g>
</svg>
