<?xml version="1.0" encoding="utf-8"?>
<!-- Generator: Adobe Illustrator 24.0.2, SVG Export Plug-In . SVG Version: 6.00 Build 0)  -->
<svg version="1.1" id="Layer_1" xmlns="http://www.w3.org/2000/svg" xmlns:xlink="http://www.w3.org/1999/xlink" x="0px" y="0px"
	 viewBox="0 0 42.72 42" style="enable-background:new 0 0 42.72 42;" xml:space="preserve">
<style type="text/css">
	.st0{fill:#FFFFFF;}
	.st1{fill:#2C5967;}
</style>
<g>
	<g>
		<g>
			<path class="st0" d="M21.34,41.5c-2.31,0-4.3-2.08-5.73-6.01l-0.11-0.38c-2.13,1.04-3.97,1.56-5.47,1.56
				c-1.33,0-2.39-0.4-3.18-1.18c-2.26-2.26-1.2-6.97,2.91-12.92l0.25-0.33H5.47l1.95,1.95l-1.76,1.76L0.71,21l4.95-4.95l1.76,1.76
				l-1.95,1.95h4.56l-0.25-0.29c-0.09-0.13-0.18-0.26-0.26-0.37l0,0l-0.29-0.42C5.56,13.1,4.69,8.66,6.84,6.5
				c0.78-0.78,1.86-1.18,3.19-1.18c1.44,0,3.16,0.46,5.11,1.37l0.34,0.19c0.34-0.98,0.71-1.84,1.1-2.59
				c1.65-3.14,3.5-3.79,4.76-3.79c2.31,0,4.3,2.08,5.73,6.01l0.11,0.37c2.12-1.03,3.96-1.56,5.48-1.56c1.32,0,2.39,0.4,3.17,1.18
				c2.33,2.33,1.19,7.12-3.12,13.22l4.52,0.02L35.3,17.8l1.76-1.76L42.01,21l-4.95,4.95L35.3,24.2l1.95-1.95h-4.54
				c0.32,0.45,0.62,0.89,0.9,1.32c3.53,5.46,4.35,9.81,2.23,11.93c-0.78,0.78-1.85,1.18-3.19,1.18c-1.43,0-3.15-0.46-5.11-1.37
				l-0.33-0.19c-0.26,0.75-0.53,1.43-0.82,2.04C24.67,40.75,22.69,41.5,21.34,41.5z"/>
			<path class="st0" d="M21.34,1c2.1,0,3.93,2.04,5.26,5.68l0.26,0.92c2.15-1.11,4.16-1.77,5.8-1.77c1.14,0,2.11,0.32,2.82,1.03
				c2.46,2.46,0.27,7.93-3.74,13.36l6.71,0.03L36,17.81l1.05-1.05L41.3,21l-4.25,4.25L36,24.19l2.45-2.45h-6.72
				c0.52,0.7,1.01,1.4,1.46,2.09c3.4,5.25,4.23,9.37,2.3,11.3c-0.69,0.69-1.65,1.03-2.84,1.03c-1.36,0-3.02-0.45-4.9-1.33
				l-0.83-0.46c-0.3,0.94-0.63,1.8-0.99,2.56v0C24.33,40.3,22.55,41,21.34,41c-2.09,0-3.93-2.05-5.26-5.68l-0.26-0.92
				c-2.15,1.11-4.15,1.78-5.79,1.78c-1.15,0-2.11-0.32-2.83-1.04c-2.3-2.3-0.54-7.22,2.96-12.28l0.86-1.12H4.26l1.12,1.12l1.33,1.33
				l-1.05,1.05L1.41,21l4.25-4.25l1.05,1.05l-1.33,1.33l-1.12,1.12h6.86l-0.96-1.12c-0.17-0.25-0.34-0.49-0.5-0.74l-0.01,0.01
				C6.12,13.04,5.23,8.83,7.2,6.86c0.69-0.69,1.65-1.03,2.84-1.03c1.36,0,3.01,0.45,4.9,1.33l0.83,0.46
				c0.37-1.16,0.79-2.21,1.26-3.09C18.56,1.61,20.22,1,21.34,1 M21.34,0c-1.4,0-3.44,0.7-5.2,4.06c-0.33,0.62-0.64,1.33-0.93,2.11
				c-1.96-0.9-3.7-1.35-5.17-1.35c-1.47,0-2.67,0.45-3.55,1.33c-2.2,2.2-1.65,6.28,1.54,11.56L7.42,17.1l-1.05-1.05l-0.71-0.71
				l-0.71,0.71l-4.25,4.25L0,21l0.71,0.71l4.25,4.25l0.71,0.71l0.71-0.71l1.05-1.05l0.63-0.63c-3.22,5.29-3.78,9.36-1.56,11.58
				c0.88,0.88,2.07,1.33,3.53,1.33c1.46,0,3.19-0.46,5.17-1.37C17.1,40.92,19.58,42,21.34,42c1.5,0,3.67-0.8,5.49-4.63
				c0.23-0.48,0.44-0.99,0.65-1.55c1.96,0.9,3.7,1.35,5.17,1.35c1.47,0,2.67-0.45,3.54-1.32c2.33-2.33,1.56-6.79-2.16-12.55
				c-0.12-0.18-0.24-0.37-0.36-0.55h2.38l-0.74,0.74l-0.71,0.71l0.71,0.71l1.05,1.05l0.71,0.71l0.71-0.71l4.25-4.25L42.72,21
				l-0.71-0.71l-4.25-4.25l-0.71-0.71l-0.71,0.71L35.3,17.1l-0.71,0.71l0.71,0.71l0.73,0.73l-2.36-0.01
				c4.01-5.95,4.93-10.67,2.52-13.08c-0.88-0.88-2.07-1.33-3.53-1.33c-1.47,0-3.21,0.46-5.18,1.36C25.58,1.08,23.1,0,21.34,0
				L21.34,0z M6.68,19.26l0.74-0.74l0.68-0.68c0.23,0.37,0.46,0.75,0.71,1.13l0.2,0.3H6.68L6.68,19.26z M6.68,22.74h2.35
				c-0.33,0.49-0.63,0.96-0.92,1.43l-0.69-0.69L6.68,22.74L6.68,22.74z"/>
		</g>
		<g>
			<path class="st1" d="M32.44,21.13c0.06,0.08,0.12,0.16,0.17,0.24c0.09,0.12,0.18,0.24,0.26,0.36c0,0,0,0.01,0.01,0.01h5.57
				L36,24.19l1.05,1.05L41.3,21l-4.25-4.25L36,17.81l2.45,2.45h-5.57c-0.18,0.25-0.36,0.5-0.54,0.74
				C32.37,21.04,32.4,21.09,32.44,21.13z"/>
			<path class="st1" d="M21.34,41c1.21,0,2.99-0.7,4.58-4.06v0c0.93-1.96,1.68-4.6,2.17-7.61c0.35-2.2,0.56-4.53,0.62-6.95
				c-0.58-0.74-1.2-1.48-1.85-2.22c0,0.28,0.01,0.56,0.01,0.84c0,2.82-0.21,5.52-0.61,8.04v0c-0.46,2.84-1.15,5.3-2.01,7.1l0,0
				c-0.91,1.9-1.96,3-2.9,3c-1.1,0-2.49-1.51-3.61-4.72c-0.56,0.33-1.11,0.63-1.65,0.9C17.41,38.95,19.25,41,21.34,41z"/>
			<path class="st1" d="M23.83,15.73L23.83,15.73C23.83,15.73,23.83,15.73,23.83,15.73z"/>
			<path class="st1" d="M12.15,18.72c-0.33-0.46-0.64-0.91-0.93-1.35l-0.01,0.01c-3.26-4.96-3.71-8.2-2.7-9.21
				c0.78-0.78,2.81-0.7,5.89,0.79c0.16-0.63,0.34-1.23,0.53-1.81C11.41,5.5,8.68,5.37,7.2,6.86c-1.97,1.97-1.08,6.18,2.46,11.55
				l0.01-0.01c0.16,0.25,0.33,0.49,0.5,0.74h1.64C11.92,19,12.03,18.86,12.15,18.72z"/>
			<path class="st1" d="M13.99,22.86c0.07,2.16,0.26,4.25,0.56,6.23c0.14,0.91,0.3,1.76,0.48,2.58c0.55-0.3,1.12-0.63,1.69-0.99
				c-0.12-0.59-0.23-1.21-0.33-1.87l0,0c-0.29-1.89-0.47-3.88-0.54-5.94H13.99z"/>
			<path class="st1" d="M33.18,23.84c-1.73-2.67-4.02-5.46-6.62-8.06c-0.48-0.48-0.98-0.96-1.46-1.41l0,0
				c-1.92-1.79-3.89-3.37-5.83-4.7C18.93,9.43,18.59,9.21,18.26,9c-0.18,0.6-0.34,1.23-0.49,1.9c0.15,0.1,0.3,0.2,0.46,0.31
				c1.86,1.27,3.75,2.79,5.61,4.52l0,0c0.47,0.44,0.95,0.9,1.41,1.37c2.52,2.52,4.72,5.2,6.38,7.76c3.13,4.83,3.53,7.99,2.54,8.98
				c-0.77,0.77-2.81,0.7-5.9-0.79c-0.16,0.63-0.34,1.23-0.53,1.81c1.89,0.88,3.54,1.33,4.9,1.33c1.19,0,2.15-0.34,2.84-1.03
				C37.42,33.21,36.58,29.09,33.18,23.84z"/>
			<path class="st1" d="M23.56,29.01c0.68-0.59,1.36-1.2,2.02-1.82c0.11-0.94,0.2-1.9,0.26-2.88c-0.19,0.2-0.39,0.4-0.59,0.6
				c-1.06,1.06-2.13,2.04-3.18,2.94C22.56,28.25,23.06,28.64,23.56,29.01z"/>
			<path class="st1" d="M10.16,22.86c-3.5,5.07-5.26,9.99-2.96,12.28c0.71,0.71,1.68,1.04,2.83,1.04c2.8,0,6.68-1.93,10.54-4.77
				c-0.5-0.39-1-0.79-1.5-1.21c-4.99,3.58-9.23,4.95-10.55,3.64c-1.36-1.36,0.14-5.79,3.94-10.97H10.16z"/>
			<path class="st1" d="M22.12,10.6c0.5,0.39,1,0.79,1.5,1.21c3.74-2.68,7.06-4.13,9.04-4.13c0.66,0,1.18,0.16,1.51,0.49
				c1.32,1.32-0.06,5.56-3.64,10.55c0.42,0.5,0.82,1,1.21,1.5c4-5.43,6.2-10.9,3.74-13.36C33.02,4.4,27.55,6.59,22.12,10.6z"/>
			<path class="st1" d="M15.49,19.14c0.61-0.68,1.26-1.36,1.94-2.05c1.06-1.06,2.13-2.04,3.18-2.94c-0.5-0.41-1-0.8-1.49-1.17
				c-1.03,0.89-2.04,1.82-3,2.79c-1.08,1.08-2.12,2.21-3.09,3.36H15.49z"/>
			<path class="st1" d="M21.34,1c-1.12,0-2.78,0.61-4.32,3.53l0,0c-1.06,2.02-1.9,4.83-2.44,8.14l0,0c-0.2,1.23-0.35,2.51-0.46,3.82
				c0.43-0.46,0.87-0.92,1.33-1.37c0.25-0.25,0.51-0.5,0.77-0.75c0.06-0.47,0.13-0.94,0.2-1.41c0.5-3.11,1.28-5.73,2.25-7.57l0,0v0
				l0,0c0.86-1.63,1.81-2.53,2.67-2.53c1.1,0,2.49,1.51,3.61,4.72c0.56-0.33,1.11-0.63,1.65-0.9C25.27,3.04,23.44,1,21.34,1z"/>
			<path class="st1" d="M28.13,12.92L28.13,12.92L28.13,12.92c-0.14-0.91-0.3-1.77-0.48-2.59c-0.55,0.3-1.12,0.63-1.69,0.99
				c0.12,0.59,0.23,1.22,0.34,1.88h0c0.06,0.38,0.11,0.77,0.16,1.16c0.26,0.25,0.51,0.5,0.76,0.75c0.45,0.45,0.89,0.91,1.33,1.37
				C28.45,15.27,28.31,14.08,28.13,12.92z"/>
			<path class="st1" d="M23.67,32.51L23.67,32.51c0.25,0.17,0.51,0.33,0.76,0.49c0.18-0.6,0.34-1.23,0.49-1.9
				c-0.07-0.05-0.14-0.09-0.21-0.14l0,0c-1.85-1.24-3.73-2.73-5.59-4.44l0,0c-0.56-0.52-1.12-1.05-1.69-1.61
				c-0.2-0.2-0.39-0.4-0.59-0.6c0.06,0.98,0.15,1.94,0.26,2.88c0.25,0.24,0.5,0.47,0.75,0.7l0,0
				C19.78,29.66,21.74,31.21,23.67,32.51z"/>
			<path class="st1" d="M25.93,21.74c0-0.25,0.01-0.49,0.01-0.74c0-0.25,0-0.5-0.01-0.74H4.26l1.12-1.12l1.33-1.33l-1.05-1.05
				L1.41,21l4.25,4.25l1.05-1.05l-1.33-1.33l-1.12-1.12H25.93z"/>
		</g>
	</g>
</g>
</svg>
