<?xml version="1.0" encoding="utf-8"?>
<!-- Generator: Adobe Illustrator 24.0.2, SVG Export Plug-In . SVG Version: 6.00 Build 0)  -->
<svg version="1.1" id="Layer_1" xmlns="http://www.w3.org/2000/svg" xmlns:xlink="http://www.w3.org/1999/xlink" x="0px" y="0px"
	 viewBox="0 0 46.64 42.21" style="enable-background:new 0 0 46.64 42.21;" xml:space="preserve">
<style type="text/css">
	.st0{fill:#FFFFFF;}
	.st1{fill:#2C5967;}
</style>
<g>
	<g>
		<g>
			<path class="st0" d="M29.96,41.37c-8.63-4.32-14.08-11.02-14.97-18.39l-0.1-1.16l0-2.28h-0.66v2.58h-2.48v-2.58H8.09
				c-0.56,1.54-2.02,2.58-3.68,2.58c-2.16,0-3.91-1.76-3.91-3.91c0-2.16,1.76-3.91,3.91-3.91c1.73,0,3.24,1.14,3.74,2.77h6.74V7.24
				l15.63-6.7l15.63,6.7l0,14.58C45.7,29.68,40.2,36.8,31.07,41.37l-0.55,0.28L29.96,41.37z"/>
			<path class="st0" d="M30.52,1.09l15.13,6.48l0,14.25c-0.43,7.65-5.83,14.61-14.8,19.1l-0.33,0.17l-0.33-0.17
				c-8.53-4.27-13.83-10.79-14.69-18l-0.1-1.14v-2.73h-1.11h-0.55v2.58h-1.48v-2.58H7.72c-0.37,1.48-1.71,2.58-3.31,2.58
				C2.53,21.63,1,20.1,1,18.22c0-1.88,1.53-3.41,3.41-3.41c1.66,0,3.05,1.19,3.35,2.77h6.52h1.11v-10L30.52,1.09 M30.52,0
				l-0.39,0.17L15,6.65l-0.61,0.26v0.66v9h-0.11H8.51c-0.66-1.64-2.27-2.77-4.09-2.77C1.98,13.8,0,15.78,0,18.22
				c0,2.43,1.98,4.41,4.41,4.41c1.75,0,3.31-1.03,4.01-2.58h2.83v1.58v1h1h1.48h0.73l0.03,0.38c0.91,7.57,6.46,14.41,15.24,18.81
				l0.33,0.17l0.45,0.22l0.45-0.22l0.33-0.17c9.3-4.66,14.89-11.92,15.35-19.94l0-0.03v-0.03l0-14.25l0-0.66l-0.61-0.26L30.91,0.17
				L30.52,0L30.52,0z"/>
		</g>
		<g>
			<path class="st1" d="M30.52,1.09L15.39,7.57v8.89h0h1.48V8.54l13.65-5.85l13.65,5.85v13.22c-0.41,7-5.38,13.43-13.65,17.68
				c-7.81-4.01-12.68-9.96-13.54-16.51h-0.11h-1.37c0.87,7.21,6.16,13.73,14.69,18l0.33,0.17l0.33-0.17
				c8.97-4.49,14.36-11.45,14.8-19.1l0-14.25L30.52,1.09z"/>
			<polygon class="st1" points="37.62,8.96 36.58,7.92 33.49,11.02 32.32,9.85 31.27,10.89 33.49,13.1 			"/>
			<polygon class="st1" points="32.44,30.12 36.45,30.12 34.44,26.48 			"/>
			<path class="st1" d="M25.74,26.61c-0.97,0.23-1.57,1.2-1.34,2.17c0.23,0.97,1.2,1.57,2.17,1.34c0.97-0.23,1.57-1.2,1.34-2.17
				C27.68,26.98,26.71,26.38,25.74,26.61z"/>
			<path class="st1" d="M40.48,14.62H20.55v9.96h19.92V14.62z M39,23.11H22.03V16.1H39V23.11z"/>
			<circle class="st1" cx="35.04" cy="19.51" r="1.38"/>
			<rect x="24.06" y="10.56" class="st1" width="4.24" height="1.48"/>
			<path class="st1" d="M15.39,19.05v2.73v0.03h1.48v-0.06v-4.19h-2.58H7.76C7.46,16,6.07,14.8,4.41,14.8C2.53,14.8,1,16.34,1,18.22
				s1.53,3.41,3.41,3.41c1.6,0,2.93-1.1,3.31-2.58h4.53v2.58h1.48v-2.58h0.55H15.39z M4.41,20.15c-1.07,0-1.94-0.87-1.94-1.94
				c0-1.07,0.87-1.94,1.94-1.94s1.94,0.87,1.94,1.94C6.35,19.29,5.48,20.15,4.41,20.15z"/>
		</g>
	</g>
</g>
</svg>
