<?xml version="1.0" encoding="utf-8"?>
<!-- Generator: Adobe Illustrator 24.0.2, SVG Export Plug-In . SVG Version: 6.00 Build 0)  -->
<svg version="1.1" id="Layer_1" xmlns="http://www.w3.org/2000/svg" xmlns:xlink="http://www.w3.org/1999/xlink" x="0px" y="0px"
	 viewBox="0 0 42.38 42" style="enable-background:new 0 0 42.38 42;" xml:space="preserve">
<style type="text/css">
	.st0{fill:#FFFFFF;}
	.st1{fill:none;}
	.st2{fill:#2C5967;}
</style>
<g>
	<g>
		<g>
			<path class="st0" d="M34.2,41.5v-2.48h3.01L23.16,24.96c-0.37,4.76-1.46,8.95-3.17,12.18c-2.1,3.56-4.22,4.29-5.63,4.29
				c-0.25,0-0.51-0.02-0.76-0.07c-4.03-0.74-6.46-6.79-7.4-12.21c-0.38-2.03-0.62-4.41-0.67-6.91H0.5v-2.48h5.03
				c0.06-2.59,0.31-5.07,0.72-7.17C7.56,5.23,10.69,0.64,14.42,0.6c2.18,0,6.08,1.59,8.18,12.23c0.24,1.35,0.41,2.75,0.53,4.2
				L37.17,2.98H34.2V0.5h7.3v7.3h-2.48V4.64L23.9,19.76h12.88l-2-1.91l1.71-1.8l5.17,4.92l-5.14,5.14l-1.75-1.75l2.12-2.13H23.95
				l15.07,15.07V34.2h2.48v7.3H34.2z"/>
			<path class="st0" d="M41,1v6.3h-1.48V3.44L22.79,20.17c0,0.03,0,0.06,0,0.09h15.25l-2.55-2.43l1.02-1.07l4.44,4.23l-4.43,4.43
				l-1.05-1.05l2.62-2.62H22.79c0,0.02,0,0.03,0,0.05l16.72,16.72V34.7H41V41h-6.3v-1.48h3.72l-15.7-15.7
				c-0.25,4.57-1.17,9.28-3.18,13.08l-0.02,0.04c-1.88,3.19-3.75,3.99-5.17,3.99c-0.24,0-0.47-0.02-0.68-0.06
				c-3.78-0.69-6.13-6.79-6.99-11.81c-0.42-2.2-0.64-4.75-0.68-7.32H1v-1.48h5.02c0.04-2.67,0.28-5.31,0.72-7.58
				C8,5.57,10.95,1.13,14.42,1.1c0.01,0,0.02,0,0.04,0c2,0,5.62,1.55,7.64,11.82l0,0.02c0.27,1.56,0.49,3.33,0.6,5.21L38.38,2.48
				H34.7V1H41 M42,0h-1h-6.3h-1v1v1.48v1h1h1.26L23.53,15.92c-0.11-1.09-0.26-2.14-0.44-3.15C21.02,2.29,17.26,0.1,14.46,0.1
				c-4.09,0.04-7.33,4.68-8.71,12.41c-0.39,1.99-0.63,4.31-0.71,6.75H1H0v1v1.48v1h1h4.04c0.08,2.34,0.31,4.58,0.67,6.51
				c0.96,5.57,3.51,11.82,7.8,12.6c0.28,0.05,0.57,0.08,0.86,0.08c1.54,0,3.84-0.78,6.03-4.48l0-0.01l0.03-0.05
				c1.62-3.06,2.69-6.94,3.14-11.33l12.45,12.45H34.7h-1v1V41v1h1H41h1v-1v-6.3v-1h-1h-1.48h-1v1v1.4L25.16,22.74h10.53l-0.92,0.92
				l-0.71,0.71l0.71,0.71l1.05,1.05l0.71,0.71l0.71-0.71l4.43-4.43l0.72-0.72l-0.74-0.71l-4.44-4.23l-0.72-0.69l-0.69,0.72
				l-1.02,1.07l-0.69,0.72l0.72,0.69l0.74,0.7H25.11L38.52,5.85V7.3v1h1H41h1v-1V1V0L42,0z"/>
		</g>
		<g>
			<path class="st1" d="M14.46,2.95c-0.01,0-0.01,0-0.02,0c-1.97,0.02-4.66,3.18-5.88,10.06l0,0.02c-0.42,2.17-0.65,4.68-0.69,7.23
				h8.88l-2.74-2.61l1.02-1.07l4.62,4.41l-4.43,4.42l-1.05-1.05l2.62-2.62H7.86c0.04,2.46,0.25,4.89,0.65,6.99
				c0.96,5.57,3.27,9.9,5.51,10.31c0.11,0.02,0.23,0.03,0.34,0.03c1.43,0,2.71-1.63,3.56-3.06c3.29-6.25,3.56-15.92,2.36-22.75
				C18.78,5.66,16.29,2.95,14.46,2.95z"/>
			<path class="st2" d="M41,7.3V1h-6.3v1.48h3.67L22.71,18.15c-0.11-1.88-0.32-3.65-0.6-5.21l0-0.02C20.08,2.65,16.46,1.1,14.46,1.1
				c-0.01,0-0.02,0-0.04,0C10.95,1.13,8,5.57,6.74,12.68c-0.44,2.27-0.68,4.91-0.72,7.58H1v1.48h5.01c0.04,2.58,0.26,5.12,0.68,7.32
				c0.86,5.01,3.21,11.11,6.99,11.81c0.21,0.04,0.44,0.06,0.68,0.06c1.41,0,3.28-0.8,5.17-3.99l0.02-0.04
				c2.01-3.8,2.93-8.51,3.18-13.08l15.7,15.7H34.7V41H41v-6.3h-1.48v3.81L22.79,21.79c0-0.02,0-0.03,0-0.05H38.1l-2.62,2.62
				l1.05,1.05l4.43-4.43l-4.44-4.23l-1.02,1.07l2.55,2.43H22.79c0-0.03,0-0.06,0-0.09L39.52,3.44V7.3H41z M17.92,36.02
				c-0.85,1.43-2.13,3.06-3.56,3.06c-0.11,0-0.23-0.01-0.34-0.03c-2.23-0.41-4.55-4.74-5.51-10.31c-0.4-2.11-0.61-4.54-0.65-6.99
				h8.94l-2.62,2.62l1.05,1.05l4.43-4.42l-4.62-4.41l-1.02,1.07l2.74,2.61H7.86c0.04-2.55,0.27-5.06,0.69-7.23l0-0.02
				c1.22-6.89,3.91-10.04,5.88-10.06c0.01,0,0.01,0,0.02,0c1.83,0,4.32,2.71,5.83,10.32C21.48,20.09,21.21,29.77,17.92,36.02z"/>
		</g>
	</g>
</g>
</svg>
