<?xml version="1.0" encoding="utf-8"?>
<!-- Generator: Adobe Illustrator 24.0.2, SVG Export Plug-In . SVG Version: 6.00 Build 0)  -->
<svg version="1.1" id="Layer_1" xmlns="http://www.w3.org/2000/svg" xmlns:xlink="http://www.w3.org/1999/xlink" x="0px" y="0px"
	 viewBox="0 0 42.37 42" style="enable-background:new 0 0 42.37 42;" xml:space="preserve">
<style type="text/css">
	.st0{fill:#FFFFFF;}
	.st1{fill:#2C5967;}
</style>
<g>
	<g>
		<g>
			<polygon class="st0" points="22.81,41.5 22.81,32.71 18.9,36.62 17.01,34.73 22.81,28.94 22.81,24.99 5.81,24.99 9.72,28.9 
				7.84,30.79 0.71,23.66 7.84,16.53 9.72,18.41 5.81,22.32 16.71,22.32 16.71,14.67 22.75,14.67 22.75,13.64 16.95,7.84 
				18.84,5.95 22.75,9.86 22.75,0.5 25.42,0.5 25.42,9.86 29.33,5.95 31.21,7.84 25.42,13.64 25.42,17.33 19.37,17.33 19.37,22.32 
				26.76,22.32 32.56,16.53 34.44,18.41 30.53,22.32 41.87,22.32 41.87,24.99 30.53,24.99 34.44,28.9 32.56,30.79 26.76,24.99 
				25.47,24.99 25.47,28.94 31.27,34.73 29.38,36.62 25.47,32.71 25.47,41.5 			"/>
			<path class="st0" d="M24.92,1v10.07l4.41-4.41l1.18,1.18l-5.59,5.59v3.4h-6.04v5.99h8.09l5.59-5.59l1.18,1.18l-4.41,4.41h12.05
				v1.67H29.32l4.41,4.41l-1.18,1.18l-5.59-5.59h-1.99v4.65l5.59,5.59l-1.18,1.18l-4.41-4.41V41h-1.67v-9.5l-4.41,4.41l-1.18-1.18
				l5.59-5.59v-4.65H4.6l4.41,4.41l-1.18,1.18l-6.42-6.42l6.42-6.42l1.18,1.18L4.6,22.82h12.6v-7.66h6.04v-1.74l-5.59-5.59
				l1.18-1.18l4.41,4.41V1H24.92 M25.92,0h-1h-1.67h-1v1v7.66l-2.7-2.7l-0.71-0.71l-0.71,0.71l-1.18,1.18l-0.71,0.71l0.71,0.71
				l5.3,5.3v0.32h-5.04h-1v1v6.66H7.02l2.7-2.7l0.71-0.71l-0.71-0.71l-1.18-1.18l-0.71-0.71l-0.71,0.71l-6.42,6.42L0,23.66
				l0.71,0.71l6.42,6.42l0.71,0.71l0.71-0.71l1.18-1.18l0.71-0.71l-0.71-0.71l-2.7-2.7h15.29v3.24l-5.3,5.3l-0.71,0.71l0.71,0.71
				l1.18,1.18l0.71,0.71l0.71-0.71l2.7-2.7V41v1h1h1.67h1v-1v-7.08l2.7,2.7l0.71,0.71l0.71-0.71l1.18-1.18l0.71-0.71l-0.71-0.71
				l-5.3-5.3v-3.24h0.58l5.3,5.3l0.71,0.71l0.71-0.71l1.18-1.18l0.71-0.71l-0.71-0.71l-2.7-2.7h9.64h1v-1v-1.67v-1h-1h-9.64l2.7-2.7
				l0.71-0.71l-0.71-0.71l-1.18-1.18l-0.71-0.71l-0.71,0.71l-5.3,5.3h-6.68v-3.99h5.04h1v-1v-2.99l5.3-5.3l0.71-0.71l-0.71-0.71
				l-1.18-1.18l-0.71-0.71l-0.71,0.71l-2.7,2.7V1V0L25.92,0z"/>
		</g>
		<polygon class="st1" points="41.37,22.82 29.32,22.82 33.73,18.41 32.56,17.23 26.97,22.82 18.87,22.82 18.87,16.83 24.92,16.83 
			24.92,13.43 30.5,7.84 29.33,6.66 24.92,11.07 24.92,1 23.25,1 23.25,11.07 18.84,6.66 17.66,7.84 23.25,13.43 23.25,15.17 
			17.21,15.17 17.21,22.82 4.6,22.82 9.02,18.41 7.84,17.23 1.41,23.66 7.84,30.08 9.02,28.9 4.6,24.49 23.31,24.49 23.31,29.14 
			17.72,34.73 18.9,35.91 23.31,31.5 23.31,41 24.97,41 24.97,31.5 29.38,35.91 30.56,34.73 24.97,29.14 24.97,24.49 26.97,24.49 
			32.56,30.08 33.73,28.9 29.32,24.49 41.37,24.49 		"/>
	</g>
</g>
</svg>
