<?xml version="1.0" encoding="utf-8"?>
<!-- Generator: Adobe Illustrator 24.0.2, SVG Export Plug-In . SVG Version: 6.00 Build 0)  -->
<svg version="1.1" id="Layer_1" xmlns="http://www.w3.org/2000/svg" xmlns:xlink="http://www.w3.org/1999/xlink" x="0px" y="0px"
	 viewBox="0 0 42 42" style="enable-background:new 0 0 42 42;" xml:space="preserve">
<style type="text/css">
	.st0{fill:#FFFFFF;}
	.st1{fill:#2C5967;}
</style>
<g>
	<g>
		<g>
			<path class="st0" d="M2.67,41.5c-1.19,0-2.17-0.97-2.17-2.17V2.67c0-1.2,0.97-2.17,2.17-2.17h36.67c1.19,0,2.17,0.97,2.17,2.17
				v36.67c0,1.2-0.97,2.17-2.17,2.17H2.67z"/>
			<path class="st0" d="M39.33,1C40.25,1,41,1.75,41,2.67v36.67c0,0.92-0.75,1.67-1.67,1.67H2.67C1.75,41,1,40.25,1,39.33V2.67
				C1,1.75,1.75,1,2.67,1H39.33 M39.33,0H2.67C1.2,0,0,1.2,0,2.67v36.67C0,40.8,1.2,42,2.67,42h36.67C40.8,42,42,40.8,42,39.33V2.67
				C42,1.2,40.8,0,39.33,0L39.33,0z"/>
		</g>
		<g>
			<path class="st1" d="M39.33,1H2.67C1.75,1,1,1.75,1,2.67v36.67C1,40.25,1.75,41,2.67,41h36.67c0.92,0,1.67-0.75,1.67-1.67V2.67
				C41,1.75,40.25,1,39.33,1z M39.52,39.33c0,0.1-0.08,0.19-0.19,0.19H2.67c-0.1,0-0.19-0.08-0.19-0.19V2.67
				c0-0.1,0.08-0.19,0.19-0.19h36.67c0.1,0,0.19,0.08,0.19,0.19V39.33z"/>
			<polygon class="st1" points="32.87,22.12 35.27,24.52 18.41,24.52 18.41,26 35.36,26 32.87,28.48 33.92,29.53 38.15,25.3 
				33.92,21.08 			"/>
			<polygon class="st1" points="9.29,30.66 8.24,29.61 4.02,33.84 8.24,38.07 9.29,37.02 6.79,34.52 23.78,34.52 23.78,33.04 
				6.91,33.04 			"/>
			<polygon class="st1" points="32.87,5.06 35.3,7.48 18.41,7.48 18.41,8.96 35.33,8.96 32.87,11.42 33.92,12.46 38.15,8.24 
				33.92,4.01 			"/>
			<polygon class="st1" points="9.29,19.95 6.82,17.48 23.78,17.48 23.78,16 6.88,16 9.29,13.59 8.24,12.54 4.02,16.77 8.24,21 			
				"/>
		</g>
	</g>
</g>
</svg>
