<?xml version="1.0" encoding="utf-8"?>
<!-- Generator: Adobe Illustrator 24.0.2, SVG Export Plug-In . SVG Version: 6.00 Build 0)  -->
<svg version="1.1" id="Layer_1" xmlns="http://www.w3.org/2000/svg" xmlns:xlink="http://www.w3.org/1999/xlink" x="0px" y="0px"
	 viewBox="0 0 37.8 42" style="enable-background:new 0 0 37.8 42;" xml:space="preserve">
<g>
	<g>
		<path style="fill:#FFFFFF;" d="M18.9,41.5c-1.9,0-18.4-0.2-18.4-5.4V6.5c0-0.1,0-0.1,0-0.2c0-0.1,0-0.2,0-0.2
			c0-4.1,9.9-5.6,18.4-5.6S37.3,2,37.3,6.1c0,0.1,0,0.2,0,0.2c0,0.1,0,0.1,0,0.2v29.6C37.3,41.3,20.8,41.5,18.9,41.5z"/>
		<path style="fill:#FFFFFF;" d="M18.9,1c8.6,0,17.9,1.6,17.9,5.1c0,0.1,0,0.2,0,0.2c0,0.1,0,0.1,0,0.2v29.6
			c0,3.9-11.7,4.9-17.9,4.9S1,40,1,36.1V6.5c0-0.1,0-0.1,0-0.2c0-0.1,0-0.2,0-0.2C1,2.6,10.3,1,18.9,1 M18.9,0C15.8,0,0,0.3,0,6.1
			c0,0.1,0,0.2,0,0.2c0,0.1,0,0.1,0,0.2v29.6C0,41.7,15.8,42,18.9,42c3.2,0,18.9-0.3,18.9-5.9V6.5c0-0.1,0-0.1,0-0.2
			c0-0.1,0-0.2,0-0.2C37.8,0.3,22.1,0,18.9,0L18.9,0z"/>
	</g>
	<g>
		<path style="fill:#2C5967;" d="M23.8,29.3c-1.6,0.1-3.2,0.2-4.9,0.2s-3.3-0.1-4.9-0.2v1.7c1.8,0.1,3.5,0.2,4.9,0.2
			s3.1-0.1,4.9-0.2V29.3z"/>
		<path style="fill:#2C5967;" d="M14,21.2c1.8,0.1,3.5,0.2,4.9,0.2s3.1-0.1,4.9-0.2v-1.7c-1.6,0.1-3.2,0.2-4.9,0.2s-3.3-0.1-4.9-0.2
			V21.2z"/>
		<path style="fill:#2C5967;" d="M36.8,6.1c0-3.5-9.3-5.1-17.9-5.1S1,2.6,1,6.1c0,0.1,0,0.2,0,0.2c0,0.1,0,0.1,0,0.2v9.3v0.7v9.4
			v0.3v9.9C1,40,12.7,41,18.9,41s17.9-1,17.9-4.9v-9.9v-0.3v-9.4v-0.7V6.5c0-0.1,0-0.1,0-0.2C36.8,6.2,36.8,6.1,36.8,6.1z
			 M30.8,38.1c-3.2,0.8-7.4,1.2-11.9,1.2S10.2,38.9,7,38.1c-3.6-0.9-4.4-1.8-4.4-2.1v-7.6c1.5,0.9,3.7,1.5,6.2,1.9v-1.7
			c-0.7-0.1-1.3-0.2-1.9-0.4c-3.6-0.9-4.4-1.8-4.4-2.1v-7.5c1.5,0.9,3.7,1.5,6.2,1.9v-1.7c-0.7-0.1-1.3-0.2-1.9-0.4
			c-3.6-0.9-4.4-1.8-4.4-2.1V8.4c3.1,1.9,9.8,2.7,16.2,2.7s13.2-0.9,16.2-2.7v8.1c0,0.3-0.8,1.2-4.4,2.1c-0.6,0.1-1.2,0.3-1.9,0.4
			v1.7c2.5-0.4,4.7-1,6.2-1.9v7.5c0,0.3-0.8,1.2-4.4,2.1c-0.6,0.1-1.2,0.3-1.9,0.4v1.7c2.5-0.4,4.7-1,6.2-1.9v7.6
			C35.1,36.3,34.3,37.3,30.8,38.1z M18.9,2.7c4.5,0,8.7,0.4,11.9,1.2c3.6,0.9,4.4,1.9,4.4,2.2s-0.8,1.3-4.4,2.2
			C27.6,9,23.4,9.4,18.9,9.4S10.2,9,7,8.2C3.5,7.3,2.7,6.4,2.7,6.1S3.5,4.8,7,3.9C10.2,3.1,14.4,2.7,18.9,2.7z"/>
		<path style="fill:#2C5967;" d="M13.6,35.4c0.6,0,1.2-0.1,1.7-0.2v-2.1c-0.3,0.1-0.7,0.1-1,0.1c-0.6,0-1-0.1-1.2-0.4
			c-0.2-0.3-0.3-0.7-0.3-1.3v-5.1l-2.2-1.7l2.2-1.7V18c0-0.6,0.1-1,0.3-1.3c0.2-0.3,0.6-0.4,1.2-0.4c0.3,0,0.6,0,1,0.1v-2.1
			c-0.5-0.1-1.1-0.2-1.7-0.2c-2.3,0-3.4,1.2-3.4,3.6v4.7L8.2,24v1.6l1.9,1.6v4.7C10.2,34.2,11.3,35.4,13.6,35.4z"/>
		<path style="fill:#2C5967;" d="M24.2,14.2c-0.6,0-1.2,0.1-1.7,0.2v2.1c0.3-0.1,0.7-0.1,1-0.1c0.6,0,1,0.1,1.2,0.4
			c0.2,0.3,0.3,0.7,0.3,1.3v5.1l2.2,1.7l-2.2,1.7v5.1c0,0.6-0.1,1-0.3,1.3c-0.2,0.3-0.6,0.4-1.2,0.4c-0.3,0-0.6,0-1-0.1v2.1
			c0.5,0.1,1.1,0.2,1.7,0.2c2.3,0,3.4-1.2,3.4-3.6v-4.7l1.9-1.6V24l-1.9-1.6v-4.7C27.7,15.3,26.5,14.2,24.2,14.2z"/>
	</g>
</g>
</svg>
