<?xml version="1.0" encoding="utf-8"?>
<!-- Generator: Adobe Illustrator 24.0.2, SVG Export Plug-In . SVG Version: 6.00 Build 0)  -->
<svg version="1.1" id="Layer_1" xmlns="http://www.w3.org/2000/svg" xmlns:xlink="http://www.w3.org/1999/xlink" x="0px" y="0px"
	 viewBox="0 0 43.5 42" style="enable-background:new 0 0 43.5 42;" xml:space="preserve">
<g>
	<g>
		<path style="fill:#FFFFFF;" d="M31.2,41.5c-2.8,0-5.3-2-5.9-4.8h-7.1c-0.6,2.7-3,4.8-5.9,4.8c-3.3,0-6-2.7-6-6
			c0-2.1,1.2-4.1,3-5.2l-2.2-6.7c-0.2,0-0.4,0-0.6,0c-3.3,0-6-2.7-6-6c0-3.3,2.7-6,6-6c1.5,0,2.9,0.5,4,1.6L16.3,9
			c-0.3-0.8-0.5-1.6-0.5-2.5c0-3.3,2.7-6,6-6s6,2.7,6,6c0,0.8-0.2,1.7-0.5,2.5l5.7,4.2c1.1-1,2.5-1.6,4-1.6c3.3,0,6,2.7,6,6
			s-2.7,6-6,6c-0.2,0-0.4,0-0.6,0l-2.2,6.7c1.8,1.1,3,3.1,3,5.2C37.2,38.8,34.5,41.5,31.2,41.5z"/>
		<path style="fill:#FFFFFF;" d="M21.7,1c3,0,5.5,2.5,5.5,5.5c0,0.9-0.2,1.8-0.7,2.6l6.4,4.7c1-1.1,2.4-1.7,4-1.7
			c3,0,5.5,2.5,5.5,5.5c0,3-2.5,5.5-5.5,5.5c-0.3,0-0.7,0-1-0.1l-2.5,7.5c1.8,0.9,3.1,2.8,3.1,5c0,3-2.5,5.5-5.5,5.5
			c-2.8,0-5.1-2.1-5.5-4.8h-7.9c-0.4,2.7-2.7,4.8-5.5,4.8c-3,0-5.5-2.5-5.5-5.5c0-2.2,1.3-4.1,3.1-5L7.5,23c-0.3,0.1-0.7,0.1-1,0.1
			c-3,0-5.5-2.5-5.5-5.5s2.5-5.5,5.5-5.5c1.6,0,3,0.7,4,1.7l6.4-4.7c-0.4-0.8-0.7-1.7-0.7-2.6C16.2,3.5,18.7,1,21.7,1 M21.7,0
			c-3.6,0-6.5,2.9-6.5,6.5c0,0.8,0.1,1.6,0.4,2.3l-5.1,3.7c-1.1-0.9-2.6-1.4-4-1.4C2.9,11.1,0,14,0,17.6s2.9,6.5,6.5,6.5
			c0.1,0,0.2,0,0.3,0l1.9,6c-1.8,1.2-2.9,3.2-2.9,5.4c0,3.6,2.9,6.5,6.5,6.5c2.9,0,5.5-2,6.3-4.8h6.3c0.8,2.8,3.3,4.8,6.3,4.8
			c3.6,0,6.5-2.9,6.5-6.5c0-2.2-1.1-4.2-2.9-5.4l1.9-6c0.1,0,0.2,0,0.3,0c3.6,0,6.5-2.9,6.5-6.5c0-3.6-2.9-6.5-6.5-6.5
			c-1.5,0-2.9,0.5-4.1,1.4l-5.1-3.7c0.3-0.7,0.4-1.5,0.4-2.3C28.3,2.9,25.3,0,21.7,0L21.7,0z"/>
	</g>
	<g>
		<path style="fill:#BB501C;" d="M37,12.1c-1.6,0-3,0.7-4,1.7l-6.4-4.7c0.4-0.8,0.7-1.7,0.7-2.6c0-3-2.5-5.5-5.5-5.5
			s-5.5,2.5-5.5,5.5c0,0.9,0.2,1.8,0.7,2.6l-6.4,4.7c-1-1-2.4-1.7-4-1.7c-3,0-5.5,2.5-5.5,5.5s2.5,5.5,5.5,5.5c0.3,0,0.7,0,1-0.1
			l2.4,7.5c-1.8,0.9-3.1,2.8-3.1,5c0,3,2.5,5.5,5.5,5.5c2.8,0,5.1-2.1,5.5-4.8h7.9c0.4,2.7,2.7,4.8,5.5,4.8c3,0,5.5-2.5,5.5-5.5
			c0-2.2-1.3-4.1-3.1-5L36,23c0.3,0.1,0.7,0.1,1,0.1c3,0,5.5-2.5,5.5-5.5S40,12.1,37,12.1z M31.2,39.5c-2.2,0-4-1.8-4-4
			c0-2.2,1.8-4,4-4s4,1.8,4,4C35.2,37.7,33.4,39.5,31.2,39.5z M17.8,34.8c-0.2-1.3-0.8-2.4-1.7-3.3l3-4.2c0.8,0.4,1.7,0.7,2.6,0.7
			c0.9,0,1.8-0.2,2.6-0.7l3,4.2c-0.9,0.8-1.5,2-1.7,3.3H17.8z M8.3,35.5c0-2.2,1.8-4,4-4s4,1.8,4,4c0,2.2-1.8,4-4,4
			S8.3,37.7,8.3,35.5z M6.5,13.5c2.2,0,4,1.8,4,4s-1.8,4-4,4s-4-1.8-4-4S4.3,13.5,6.5,13.5z M17.7,6.5c0-2.2,1.8-4,4-4s4,1.8,4,4
			s-1.8,4-4,4S17.7,8.7,17.7,6.5z M31.6,18.5l-4.9,1.6c-0.8-1.6-2.4-2.8-4.2-3.1V12c1.3-0.2,2.4-0.8,3.2-1.7l6.4,4.7
			c-0.4,0.8-0.7,1.7-0.7,2.6C31.5,17.9,31.5,18.2,31.6,18.5z M25.8,22.5c0,2.2-1.8,4-4,4s-4-1.8-4-4s1.8-4,4-4S25.8,20.2,25.8,22.5z
			 M21,12V17c-1.9,0.3-3.5,1.4-4.2,3.1l-4.9-1.6c0.1-0.3,0.1-0.6,0.1-1c0-0.9-0.2-1.8-0.7-2.6l6.4-4.7C18.6,11.2,19.7,11.8,21,12z
			 M11.5,19.9l4.9,1.6c-0.1,0.3-0.1,0.6-0.1,1c0,1.6,0.7,3,1.7,4l-3,4.2c-0.8-0.4-1.7-0.7-2.6-0.7c-0.3,0-0.7,0-1,0.1l-2.4-7.5
			C10,22,10.9,21.1,11.5,19.9z M31.2,30c-0.9,0-1.8,0.2-2.6,0.7l-3-4.2c1.1-1,1.7-2.4,1.7-4c0-0.3,0-0.7-0.1-1l4.9-1.6
			c0.5,1.1,1.5,2,2.6,2.6l-2.5,7.5C31.8,30,31.5,30,31.2,30z M33,17.6c0-2.2,1.8-4,4-4s4,1.8,4,4s-1.8,4-4,4S33,19.8,33,17.6z"/>
	</g>
</g>
</svg>
