<?xml version="1.0" encoding="utf-8"?>
<!-- Generator: Adobe Illustrator 24.0.2, SVG Export Plug-In . SVG Version: 6.00 Build 0)  -->
<svg version="1.1" id="Layer_1" xmlns="http://www.w3.org/2000/svg" xmlns:xlink="http://www.w3.org/1999/xlink" x="0px" y="0px"
	 viewBox="0 0 42 42" style="enable-background:new 0 0 42 42;" xml:space="preserve">
<style type="text/css">
	.st0{fill:#FFFFFF;}
	.st1{fill:#2C5967;}
</style>
<g>
	<g>
		<g>
			<path class="st0" d="M22.3,41.5c-3.65,0-6.61-2.97-6.61-6.61V7.11c0-2.28-1.85-4.13-4.13-4.13c-2.28,0-4.13,1.85-4.13,4.13v2.83
				h4.44v11.37H7.43v8.82h4.44V41.5H0.5V30.13h4.44v-8.82H0.5V9.94h4.44V7.11c0-3.65,2.97-6.61,6.61-6.61
				c3.65,0,6.61,2.97,6.61,6.61v27.78c0,2.28,1.85,4.13,4.13,4.13c2.28,0,4.13-1.85,4.13-4.13v-3.57h-4.44V19.94h4.44v-9.72
				c0-2.28,1.53-4.22,3.7-4.76V0.5H41.5v11.37H30.13V8.12c-0.74,0.42-1.22,1.22-1.22,2.11v9.72h4.44v11.37h-4.44v3.57
				C28.91,38.53,25.94,41.5,22.3,41.5z"/>
			<path class="st0" d="M41,1v10.37H30.63V7.39c-1.27,0.32-2.22,1.47-2.22,2.84v10.22h4.44v10.37h-4.44v4.07
				c0,3.37-2.74,6.11-6.11,6.11s-6.11-2.74-6.11-6.11V7.11c0-2.55-2.08-4.63-4.63-4.63C9,2.48,6.93,4.56,6.93,7.11v3.33h4.44v10.37
				H6.93v9.81h4.44V41H1V30.63h4.44v-9.81H1V10.44h4.44V7.11C5.44,3.74,8.19,1,11.56,1c3.37,0,6.11,2.74,6.11,6.11v27.78
				c0,2.55,2.08,4.63,4.63,4.63s4.63-2.08,4.63-4.63v-4.07h-4.44V20.44h4.44V10.23c0-2.19,1.61-4.01,3.7-4.35V1H41 M42,0h-1H30.63
				h-1v1v4.09c-2.19,0.72-3.7,2.76-3.7,5.14v9.22h-3.44h-1v1v10.37v1h1h3.44v3.07c0,2-1.63,3.63-3.63,3.63s-3.63-1.63-3.63-3.63
				V7.11c0-3.92-3.19-7.11-7.11-7.11C7.63,0,4.44,3.19,4.44,7.11v2.33H1H0v1v10.37v1h1h3.44v7.81H1H0v1V41v1h1h10.37h1v-1V30.63v-1
				h-1H7.93v-7.81h3.44h1v-1V10.44v-1h-1H7.93V7.11c0-2,1.63-3.63,3.63-3.63c2,0,3.63,1.63,3.63,3.63v27.78
				c0,3.92,3.19,7.11,7.11,7.11c3.92,0,7.11-3.19,7.11-7.11v-3.07h3.44h1v-1V20.44v-1h-1h-3.44v-9.22c0-0.32,0.08-0.63,0.22-0.9
				v2.04v1h1H41h1v-1V1V0L42,0z"/>
		</g>
		<g>
			<path class="st1" d="M41,11.37V1H30.63v4.87c-2.1,0.34-3.7,2.16-3.7,4.35v10.22h-4.44v10.37h4.44v4.07
				c0,2.55-2.08,4.63-4.63,4.63s-4.63-2.08-4.63-4.63V7.11c0-3.37-2.74-6.11-6.11-6.11S5.44,3.74,5.44,7.11v3.33H1v10.37h4.44v9.81
				H1V41h10.37V30.63H6.93v-9.81h4.44V10.44H6.93V7.11c0-2.55,2.08-4.63,4.63-4.63s4.63,2.08,4.63,4.63v27.78
				c0,3.37,2.74,6.11,6.11,6.11s6.11-2.74,6.11-6.11v-4.07h4.44V20.44h-4.44V10.23c0-1.37,0.95-2.52,2.22-2.84v3.98H41z M9.89,39.52
				H2.48v-7.41h7.41V39.52z M9.89,19.33H2.48v-7.41h7.41V19.33z M31.37,29.33h-7.41v-7.41h7.41V29.33z M39.52,2.48v7.41h-7.41V2.48
				H39.52z"/>
		</g>
	</g>
</g>
</svg>
