<?xml version="1.0" encoding="utf-8"?>
<!DOCTYPE svg PUBLIC "-//W3C//DTD SVG 1.1//EN" "http://www.w3.org/Graphics/SVG/1.1/DTD/svg11.dtd">
<svg version="1.1" id="Icons" xmlns="http://www.w3.org/2000/svg" x="0px" y="0px" viewBox="0 0 288 288">
	<style type="text/css">
		.icon-colour-01{fill:#F80000;}
	</style>
	<g transform="translate(-140, -140) scale(2, 2)">
		<polygon  class="icon-colour-01" points="145.8,120.0,150.6,120.0,144.3,109.1,137.9,120.0,142.7,120.0,142.7,142.9,137.9,142.9,144.3,153.8,150.6,142.9,145.8,142.9"/>
		<polygon  class="icon-colour-01" points="140.1,131.4,129.2,125.1,129.2,129.9,121.5,129.9,121.5,133.0,129.2,133.0,129.2,137.8"/>
		<polygon  class="icon-colour-01" points="159.4,125.1,148.5,131.4,159.4,137.8,159.4,133.0,167.1,133.0,167.1,129.9,159.4,129.9"/>
		<path     class="icon-colour-01" d="M145.2,177.3 c-0.5,-0.3,-1.0,-0.3,-2.0,-0.3 h-2.0 v3.9 h2.4 c0.3,0.0,1.0,0.0,1.5,-0.4 c0.2,-0.2,0.8,-0.6,0.8,-1.6 C145.9,177.9,145.4,177.5,145.2,177.3 z"/>
		<path     class="icon-colour-01" d="M130.2,177.2 c-0.6,-0.2,-1.4,-0.3,-3.1,-0.2 v9.3 c0.3,0.0,0.8,0.0,1.2,0.0 c1.3,0.0,2.4,-0.1,3.2,-1.0 c1.2,-1.2,1.2,-3.2,1.2,-3.9 C132.8,179.6,132.1,177.8,130.2,177.2 z"/>
		<path     class="icon-colour-01" d="M190.2,87.2 H97.8 c-3.2,0.0,-5.7,2.6,-5.7,5.7 v102.2 c0.0,3.2,2.6,5.7,5.7,5.7 h92.5 c3.2,0.0,5.7,-2.6,5.7,-5.7 V92.9 C196.0,89.7,193.4,87.2,190.2,87.2 z M130.9,188.5 c-0.5,0.1,-1.1,0.2,-2.5,0.2 h-4.3 v-13.8 l4.6,0.0 c0.8,0.0,3.1,0.0,4.8,1.2 c1.7,1.3,2.4,3.5,2.4,5.4 C135.8,185.8,133.5,188.0,130.9,188.5 z M146.2,188.6 c-0.1,-0.8,-0.6,-4.3,-0.7,-4.8 c-0.3,-0.8,-1.0,-0.8,-1.5,-0.8 h-2.6 v5.6 h-3.0 v-13.8 h5.3 c1.5,0.0,3.1,0.0,4.2,0.9 c0.9,0.7,1.2,1.8,1.2,2.7 c0.0,2.6,-2.2,3.2,-2.9,3.4 c2.1,0.2,2.2,1.4,2.5,3.2 c0.2,1.6,0.3,2.3,0.4,2.7 c0.2,0.6,0.3,0.8,0.4,1.0 H146.2 z M155.2,185.5 c0.7,0.8,1.6,1.2,3.3,1.2 c1.4,0.0,1.9,-0.2,2.3,-0.3 v-2.9 H158.0 v-2.3 h5.6 v6.9 c-0.9,0.3,-2.3,0.8,-5.0,0.8 c-3.2,0.0,-4.8,-0.8,-5.9,-1.8 c-1.5,-1.5,-1.8,-3.7,-1.8,-5.2 c0.0,-4.9,3.1,-7.5,7.2,-7.5 c1.8,0.0,3.6,0.5,4.7,1.7 c0.9,1.1,1.0,2.1,1.0,2.9 h-3.1 c0.0,-0.4,0.0,-0.9,-0.4,-1.4 c-0.6,-0.9,-1.7,-1.1,-2.3,-1.1 c-3.4,0.0,-4.0,3.1,-4.0,5.3 C154.1,182.8,154.2,184.4,155.2,185.5 z M144.0,161.9 c-16.8,0.0,-30.4,-13.6,-30.4,-30.4 c0.0,-16.8,13.6,-30.4,30.4,-30.4 c16.8,0.0,30.4,13.6,30.4,30.4 C174.4,148.3,160.8,161.9,144.0,161.9 z"/>
	</g>
</svg>
