<?xml version="1.0" encoding="utf-8"?>
<!-- Generator: Adobe Illustrator 24.1.0, SVG Export Plug-In . SVG Version: 6.00 Build 0)  -->
<svg version="1.1" id="DRG" xmlns="http://www.w3.org/2000/svg" xmlns:xlink="http://www.w3.org/1999/xlink" x="0px" y="0px"
	 viewBox="0 0 161.9 162" enable-background="new 0 0 161.9 162" xml:space="preserve">
<g>
	<path fill="#312D2A" d="M62.5,126.6h-5.7v15.8h5.7c2.6,0,4.5-0.7,5.9-2c1.3-1.3,2-3.3,2-5.9c0-2.6-0.7-4.6-2-5.9
		C67,127.2,65,126.6,62.5,126.6z M65,137.9c-0.6,0.8-1.4,1.1-2.6,1.1H61v-9.2h1.3c1.2,0,2.1,0.4,2.6,1.1c0.6,0.8,0.9,1.9,0.9,3.5
		C65.8,136,65.5,137.2,65,137.9z"/>
	<path fill="#312D2A" d="M87.2,134.5c0.6-0.7,0.8-1.6,0.8-2.7c0-1.6-0.5-2.9-1.6-3.8c-1.1-0.9-2.6-1.4-4.5-1.4h-6.5v15.8h4.2v-5.8
		l1.6,0.5l2.9,5.3h4.5l-3.8-6.3C85.9,135.7,86.6,135.2,87.2,134.5z M83.2,133.4c-0.4,0.3-1.2,0.5-2.2,0.5h-1.3v-4.1H81
		c1,0,1.7,0.2,2.2,0.5c0.4,0.3,0.7,0.8,0.7,1.6S83.6,133.1,83.2,133.4z"/>
	<path fill="#312D2A" d="M100.2,135.8l2.4,1v2.3c-0.5,0.1-0.9,0.1-1.3,0.1c-1.5,0-2.6-0.4-3.3-1.2c-0.7-0.8-1.1-2-1.1-3.6
		c0-1.4,0.4-2.5,1.3-3.3c0.8-0.8,2-1.2,3.4-1.2c0.6,0,1.1,0,1.7,0.1c0.6,0.1,1.2,0.2,1.9,0.4v-3.4c-1-0.4-2.3-0.7-3.8-0.7
		c-1.9,0-3.4,0.3-4.8,1c-1.3,0.6-2.3,1.6-3.1,2.8c-0.7,1.2-1.1,2.6-1.1,4.3c0,2.7,0.7,4.8,2.1,6.2c1.4,1.5,3.5,2.2,6.2,2.2
		c1,0,1.9-0.1,2.8-0.3c0.9-0.2,1.8-0.5,2.6-0.8v-8h-6.2V135.8z"/>
	<polygon fill="#312D2A" points="85.6,52.8 90.6,52.8 81.1,35.6 71.7,52.8 76.6,52.8 76.6,86.5 71.7,86.5 81.1,103.7 90.5,86.5 
		85.6,86.5 	"/>
	<path fill="#312D2A" d="M81,19C53.4,19,31,41.7,31,69.8c0,28,22.5,50.8,50.1,50.8s50.1-22.8,50.1-50.8C131.1,41.7,108.7,19,81,19z
		 M81,111.6c-21.2,0-38.7-16.4-40.8-37.4h17.9v5.6l17.2-9.5l-17.2-9.4v4.3H40.2C42.5,44.3,59.9,28,81,28c21.2,0,38.7,16.4,40.8,37.4
		h-16.7v-4.9L88,69.9l17.2,9.4v-4.9h16.7C119.6,95.2,102.2,111.6,81,111.6z"/>
</g>
</svg>
