<?xml version="1.0" encoding="utf-8"?>
<!-- Generator: Adobe Illustrator 24.1.0, SVG Export Plug-In . SVG Version: 6.00 Build 0)  -->
<svg version="1.1" id="Local_Peering_Gateway" xmlns="http://www.w3.org/2000/svg" xmlns:xlink="http://www.w3.org/1999/xlink" x="0px" y="0px"
	 viewBox="0 0 161.9 162" enable-background="new 0 0 161.9 162" xml:space="preserve">
<g>
	<path fill="#ff6600" d="M81,19.2c-34.1,0-61.8,27.7-61.8,61.8s27.7,61.8,61.8,61.8s61.8-27.7,61.8-61.8S115.1,19.2,81,19.2z
		 M81,133.8c-27.7,0-50.5-21.5-52.6-48.7h23.9v8.6l21-11.6l-21-11.5v7.1h-24C30.1,50.1,53,28.2,81,28.2c28.1,0,51.1,22,52.7,49.7
		h-23.8v-7.8l-21,11.6l21,11.5v-7.8h23.7C131.4,112.4,108.7,133.8,81,133.8z"/>
	<polygon fill="#ff6600" points="84.2,60.7 92.1,60.7 80.5,39.8 69,60.7 76.8,60.7 76.8,102 68.9,102 80.5,122.9 92,102 84.2,102 	
		"/>
</g>
</svg>
