<?xml version="1.0" encoding="UTF-8"?>
<svg width="32px" height="32px" viewBox="0 0 74 54" version="1.1" xmlns="http://www.w3.org/2000/svg">
    <defs>
        <linearGradient id="prefix__a" gradientUnits="userSpaceOnUse" x1="61.295" y1="10.998" x2="0.993" y2="53.767">
            <stop offset="0" stop-color="#6899d1"></stop>
            <stop offset="0.722" stop-color="#b7d553"></stop>
        </linearGradient>
        <linearGradient id="prefix__b" gradientUnits="userSpaceOnUse" x1="62.626" y1="12.875" x2="59.562" y2="15.048">
            <stop offset="0" stop-color="#6899d1"></stop>
            <stop offset="0.722" stop-color="#b7d553"></stop>
        </linearGradient>
        <linearGradient id="prefix__c" gradientUnits="userSpaceOnUse" x1="62.898" y1="13.258" x2="2.596" y2="56.026">
            <stop offset="0" stop-color="#6899d1"></stop>
            <stop offset="0.722" stop-color="#b7d553"></stop>
        </linearGradient>
        <linearGradient id="prefix__d" gradientUnits="userSpaceOnUse" x1="10.832" y1="23.421" x2="10.258" y2="23.828">
            <stop offset="0" stop-color="#6899d1"></stop>
            <stop offset="0.722" stop-color="#b7d553"></stop>
        </linearGradient>
    </defs>
    <path d="M44.38 28.65l.04.12c.01.03.02.07.04.11l.17.3-.13.26.19-.17.24.19c.05.02.06.03.07.03l.06.02.4.03h.16c.06 0 .12-.01.17-.02.07-.01.13-.03.19-.06.12-.05.2-.12.28-.22L63.13 7.41l.47 2.48-.24.14.25-.05 2.04 13.5c.02.03.03.05.05.07l.06.06.06.06.1.04c.03.01.06.02.1.03.07.02.1.03.12.03h.4l.13-.04c.08-.02.15-.03.22-.06.28-.11.47-.29.53-.52.02-.06.03-.11.03-.16l.02-.09-.01-.27-.08-1.2.25-.1-.26.03-2.16-17.57c-.02-.03-.03-.05-.05-.07a.435.435 0 01-.06-.07l-.1-.1a.572.572 0 00-.08-.07l.11-.25-.16.2-.24-.16c-.04-.02-.07-.04-.11-.05-.04-.02-.07-.03-.11-.05-.04-.01-.07-.03-.1-.03L48.43 5.21l-.1-.25.03.26-3.17.58c-.27.06-.39.31-.44.46-.03.08-.05.14-.06.21v.16c0 .09-.01.12 0 .16v.07l.01.05c.01.07.02.12.03.16.01.04.02.08.04.12.01.03.02.07.04.1s.03.07.05.1c.02.03.04.05.06.08.02.03.04.05.06.07.02.02.05.04.07.05.03.02.06.03.09.04.04.02.07.03.1.03.04.01.08.01.13.01l.02.26.05-.25 1.53-.09.08.25.01-.26 7.59-.89.13.25-.03-.26 6.64-.65-16.7 21.59c-.08.11-.15.22-.21.34-.04.08-.07.16-.08.23a.88.88 0 00-.01.31c-.02.07-.01.11-.01.15z"
          fill="url(#prefix__a)"></path>
    <path fill="url(#prefix__b)" d="M63.67 12.14z"></path>
    <path d="M71.14 38.1l-.01-.17c0-.13-.01-.26-.01-.39v-.17c0-.07 0-.14-.01-.22 0-.07-.01-.14-.02-.21l-.02-.16-.03-.29-.02-.2c-.01-.08-.01-.16-.02-.24l-.05-.35c-.01-.1-.03-.19-.05-.29l-.03-.19-.03-.2c-.02-.07-.03-.14-.05-.2l-.03-.12c-.03-.1-.05-.21-.08-.31l-.04-.14c-.01-.06-.03-.12-.05-.18l-.06-.15-.05-.14c-.03-.1-.07-.19-.1-.29l-.04-.12a.865.865 0 00-.07-.17c-.02-.05-.05-.11-.08-.16l-.05-.1c-.04-.09-.08-.18-.13-.27l-.06-.12c-.02-.05-.05-.1-.07-.15-.03-.05-.05-.1-.08-.15l-.06-.11c-.05-.08-.09-.17-.14-.25l-.07-.12c-.03-.05-.05-.09-.08-.14l-.16-.24c-.05-.08-.1-.16-.16-.24l-.07-.11c-.03-.04-.06-.09-.09-.13l-.7-.89c-.05-.06-.1-.12-.15-.17l-.34-.39.12-.25-.19.17c-.05-.06-.11-.12-.17-.17l-.43-.42c-.04-.04-.08-.07-.12-.11l-.09-.08c-.07-.06-.14-.13-.21-.19l-.08-.07c-.04-.04-.09-.08-.13-.12l-.11-.1c-.03-.03-.07-.06-.1-.09-.04-.02-.12-.04-.21-.07-.1-.03-.19-.06-.29-.07l-.07-.02c-.02-.01-.04-.01-.06-.01-.06-.01-.09 0-.13 0-.22.01-.36.04-.48.09a.848.848 0 00-.47.47c-.05.11-.07.24-.07.4 0 .11.01.21.04.31.02.09.05.17.09.26.03.08.08.16.12.24.04.07.09.14.15.21a3.32 3.32 0 00.36.37c.06.05.1.09.13.13l.58.57c.05.04.09.09.13.13.04.04.08.09.12.14l.07.09c.07.07.13.15.19.23l.07.09c.04.05.08.09.12.14l.04.05c.05.06.1.12.14.18.04.05.07.1.11.15l.06.09c.06.08.12.16.17.25l.07.1c.04.05.07.1.1.15.03.06.07.11.1.17l.05.09c.04.07.07.13.11.2l.07.13c.04.07.08.14.11.21l.05.09c.03.06.07.13.09.19.03.06.05.12.08.18l.05.11.12.3.05.11c.03.06.05.12.07.18l.06.2.04.13c.03.09.05.19.08.28l.05.17.06.2c.02.07.03.15.04.22l.02.13c.02.09.03.18.05.27l.04.22c.01.07.03.15.03.23.01.09.02.19.02.29l.01.1c.01.1.01.2.02.31l.01.23c.01.08.01.17.01.26v.08c0 .07 0 .14-.01.22l-.01.12c-.01.18-.01.31-.02.43l-.03.36-.02.19a5.852 5.852 0 01-.11.78l-.02.09c-.04.21-.06.36-.1.52-.05.19-.1.39-.16.58-.07.22-.14.43-.22.64-.1.26-.21.51-.34.76-.2.39-.4.74-.63 1.05-.22.31-.44.58-.67.82-.35.38-.76.74-1.25 1.1a10.14 10.14 0 01-2.03 1.2c-.23.11-.48.21-.72.3-.25.1-.46.18-.67.25l-.09.03c-.04.02-.08.03-.12.05-.08.03-.16.04-.23.06-.05.01-.1.02-.15.04-.19.05-.37.1-.56.14-.07.02-.14.03-.21.05a3.589 3.589 0 01-.66.12l-.18.02c-.16.02-.32.05-.48.07l-.19.03c-.1.01-.19.03-.29.04-.09.01-.17.01-.26.02l-.8.05c-.08.01-.17.01-.25.01-.14.01-.28.01-.42.01l-20.53.01v.13l-21.32-.14c-.12 0-.23-.01-.35-.01l-.14-.02c-.08 0-.17 0-.25-.01l-.23-.03-.14-.02c-.13-.02-.25-.03-.37-.05-.12-.02-.24-.03-.36-.06-.08-.02-.17-.03-.25-.05l-.22-.05c-.07-.01-.15-.03-.22-.05-.1-.03-.2-.06-.3-.08l-.33-.1-.11-.03c-.07-.02-.15-.04-.22-.07-.06-.02-.13-.05-.19-.07l-.11-.03-.3-.12-.12-.05c-.06-.02-.12-.04-.18-.07s-.11-.05-.17-.08l-.49-.24-.18-.09c-.06-.03-.11-.06-.17-.09l-.1-.06c-.09-.05-.18-.1-.26-.15l-.09-.05c-.06-.03-.12-.06-.17-.1l-.25-.16c-.08-.05-.17-.11-.25-.16l-.09-.06c-.05-.03-.11-.07-.16-.1l-.08-.06c-.03-.02-.06-.05-.1-.08l-.06-.05-.15-.12-.09-.07a2.8 2.8 0 01-.2-.16l-.12-.1c-.05-.04-.1-.07-.14-.11l-.08-.05c-.05-.04-.1-.07-.14-.12-.04-.04-.08-.08-.13-.12l-.08-.08c-.05-.04-.09-.09-.13-.13l-.08-.08-.21-.21-.08-.08c-.04-.04-.08-.08-.12-.13l-.08-.08c-.04-.04-.08-.09-.12-.13-.04-.05-.08-.09-.11-.14l-.07-.09c-.05-.06-.09-.11-.13-.17l-.3-.39-.11-.14c-.04-.05-.07-.11-.1-.16l-.06-.09c-.04-.05-.07-.11-.1-.16l-.06-.1c-.05-.08-.1-.17-.16-.26l-.06-.1c-.03-.05-.06-.1-.09-.16l-.04-.08c-.03-.06-.07-.13-.1-.19s-.05-.11-.08-.17l-.23-.51c-.03-.06-.06-.12-.08-.18l-.05-.12c-.03-.06-.05-.12-.07-.18-.02-.06-.04-.13-.06-.19L4 40.16c-.03-.08-.05-.16-.08-.24l-.06-.17c-.02-.07-.05-.14-.07-.2l-.04-.12c-.02-.06-.04-.13-.06-.19-.02-.07-.03-.14-.05-.21l-.03-.13c-.02-.09-.04-.19-.07-.28l-.04-.17c-.02-.07-.03-.14-.05-.22l-.03-.13c-.02-.07-.03-.14-.04-.22l-.03-.22-.02-.15c-.02-.12-.03-.23-.05-.35l-.02-.15-.03-.23-.01-.08c-.01-.04-.01-.09-.02-.13 0-.03 0-.07-.01-.11-.01-.14-.01-.22-.01-.3L3.17 36c-.01-.13-.01-.26-.02-.4l-.01-.15c-.01-.08-.01-.16-.01-.24v-.12-.29c0-.09.01-.18.02-.27l.01-.17.03-.44.01-.17c.01-.09.01-.18.02-.27.01-.11.03-.23.05-.34l.03-.15c.02-.13.05-.25.07-.38l.06-.32c.02-.11.04-.22.07-.33.04-.17.09-.33.14-.5l.02-.08c.06-.2.13-.4.2-.61.03-.09.05-.16.08-.23.06-.12.09-.24.14-.35l.03-.06c.11-.27.24-.52.36-.77.15-.3.31-.6.5-.92.3-.5.59-.92.88-1.29.6-.76 1.32-1.48 2.14-2.14.51-.41.99-.76 1.46-1.05.31-.2.64-.38.97-.56l.09-.05c.15-.08.31-.15.47-.22l.44-.2c.18-.08.35-.17.53-.24.15-.06.31-.12.46-.17l.42-.15c.14-.05.29-.11.43-.16l.16.22-.09-.24c.56-.2.86-.51 1.01-1.05l.03-.09c.02-.06.04-.13.05-.2l.29-2.09.06-.33.06-.33c.02-.12.04-.23.06-.34.03-.13.07-.27.1-.4l.08-.32c.02-.1.05-.2.08-.29l.03-.09c.07-.2.12-.33.17-.47l.15-.4c.06-.17.12-.34.19-.5.1-.25.21-.5.33-.74.13-.28.27-.56.42-.83.17-.32.36-.64.61-1.02.39-.61.84-1.19 1.31-1.73.31-.35.65-.69 1-1 .51-.46 1.07-.88 1.67-1.25.36-.22.66-.41.99-.57.23-.12.47-.22.71-.32l.27-.12a4.94 4.94 0 01.87-.32c.08-.02.15-.04.23-.07.19-.06.39-.12.59-.18.08-.02.15-.05.23-.07a4.57 4.57 0 01.72-.17l.31-.06c.12-.02.24-.05.36-.07.11-.02.22-.03.33-.05l.29-.04c.11-.02.23-.03.34-.05l.31-.03.28-.02.32-.03c.11-.01.21-.01.32-.01h.11c.18-.01.37-.01.55-.01h.28c.13 0 .27.01.4.02l.14.01c.08 0 .17.01.25.01.08.01.16.02.24.02l.22.02.29.03c.12.01.24.03.36.05.09.01.19.03.28.05l.2.03c.07.01.15.02.22.04.07.01.14.03.21.05l.12.03c.11.03.22.05.33.08l.11.03.22.06.2.06.11.04c.14.04.23.07.31.1.13.04.22.07.31.11.06.02.12.05.19.07l.18.07c.07.03.15.06.22.09.13.05.21.09.29.13.06.03.13.06.19.09l.09.04c.13.06.2.1.28.14l.27.14c.05.03.11.06.16.09l.46.27c.05.03.11.06.16.1.05.03.1.06.15.1l.44.3c.05.03.1.07.15.1l.93.72c.05.04.09.08.14.12l.08.07.22.19.08.07c.05.04.09.08.14.12l.12.12.5.5.13-.12.11.34c.05.09.1.15.15.22a1.288 1.288 0 00.37.29c.09.04.16.07.24.09.1.02.18.04.27.04.18-.01.32-.04.45-.09.29-.12.53-.36.65-.65.05-.13.08-.27.09-.42 0-.11-.01-.2-.03-.29-.02-.09-.06-.17-.09-.25l-.07-.13c-.02-.02-.05-.04-.06-.07-.04-.06-.1-.11-.16-.17l-.08-.08-.55-.53-.51-.49c-.04-.03-.07-.07-.11-.1l.11-.25-.17.19-1.94-1.53-.12-.09c-.04-.03-.08-.05-.11-.08-.04-.03-.08-.05-.13-.08l-.75-.44c-.04-.03-.09-.05-.13-.08l-.26-.14c-.05-.02-.09-.05-.14-.07l-.8-.39c-.04-.02-.09-.05-.14-.07l-.15-.06-.14-.05a1.22 1.22 0 01-.17-.07l-.53-.19c-.05-.02-.1-.04-.16-.06l-.25-.08c-.1-.03-.16-.05-.22-.06l-.14-.04-.31-.09-.14-.04c-.06-.02-.11-.03-.17-.05l-.07-.02c-.09-.02-.17-.05-.25-.06-.06-.01-.12-.02-.19-.04l-.15-.03c-.11-.02-.22-.04-.34-.06l-.14-.03c-.06-.01-.13-.03-.19-.04l-.1-.02c-.08-.01-.17-.03-.25-.04-.07-.01-.13-.01-.2-.02l-.16-.01c-.12-.01-.24-.03-.36-.04l-.16-.02c-.07-.01-.13-.02-.2-.02l-1.88-.15h-.74l-1.46.23-.33.06-.32.06-.32.06-.13-.24.06.25c-.1.02-.19.05-.28.07l-.19.05c-.19.05-.37.09-.55.15-.2.06-.39.12-.58.18-.21.07-.42.15-.62.22-.23.09-.45.18-.68.28-.26.11-.5.22-.73.33-.3.15-.59.32-.88.48-.37.21-.74.45-1.1.7-1.17.81-2.26 1.78-3.23 2.88-.4.45-.78.94-1.2 1.55-.25.37-.5.74-.72 1.12-.17.29-.34.59-.49.89l-.03.06c-.12.24-.24.48-.35.72-.07.16-.14.33-.2.49l-.13.34c-.07.17-.13.33-.19.5-.05.14-.09.28-.14.42l-.12.36-.12.39c-.03.1-.05.21-.08.32l-.09.37-.09.38c-.03.13-.06.27-.08.41l-.02.09-.09.49-.04.21c-.02.09-.04.18-.05.28-.1.68-.52.93-.91 1.09l-.24.1c-.24.1-.47.2-.7.3-.26.12-.52.24-.77.37-.29.15-.58.3-.86.46a16.792 16.792 0 00-2.84 2.04l-1.25 1.25c-.52.58-.98 1.14-1.37 1.7-.02.02-.03.05-.04.07-.02.03-.04.07-.06.1-.19.28-.38.6-.6 1-.14.26-.27.53-.4.8-.11.23-.21.47-.31.7-.09.23-.17.43-.24.64-.04.12-.08.24-.11.37l-.12.41c-.04.12-.07.24-.11.36l-.12.52c-.02.1-.04.19-.05.29l-.06.34-.06.34c-.01.07-.03.15-.04.22-.03.09-.04.17-.05.25l-.15 1.08.12 3.09.09.6-.24.15.26-.04.05.23c.01.07.03.14.04.2l.03.13c.03.13.04.23.07.33l.03.16c.01.06.02.12.04.18.01.06.03.12.05.18l.13.44c.04.14.06.23.09.31l.04.15c.01.05.03.11.05.16.02.05.04.11.06.16l.32.83c.02.05.04.11.06.16l.13.27c.02.05.05.1.07.15l.06.12c.04.09.09.18.13.27l.06.13c.02.05.05.1.07.14l.14.26c.03.05.05.09.08.13l.44.72c.03.05.06.09.09.14.03.04.05.08.08.11l.51.69.09.12.18.21c.03.04.07.08.11.12l.08.09c.06.07.12.14.19.21l.38.42c.03.03.07.06.1.09l.62.58c.03.03.07.07.11.1l.76.62c.04.03.08.07.12.1l.23.16c.06.05.13.09.19.13l.77.5c.08.05.17.1.25.15l1.59.81 3.59 1.28c.05.02.15.01.25.01h1.04l17.66.01h.61l24.81-.06c.08 0 .15 0 .23-.01.08 0 .16-.01.24-.02l.19-.02.29-.03.22-.02c.12-.01.25-.02.37-.04.07-.01.13-.01.2-.02.08-.01.16-.01.24-.02.09-.01.18-.03.27-.05.07-.02.15-.03.22-.04.17-.03.33-.06.49-.09l.21-.04c.09-.02.19-.03.28-.05.12-.03.23-.06.35-.1l.2-.06.51-.15.07-.02c.08-.03.16-.05.25-.07.11-.03.22-.06.33-.1.21-.08.4-.15.59-.23l.08-.03c.24-.1.48-.21.72-.32.27-.13.54-.26.8-.4.36-.19.68-.38.97-.57 1.11-.71 2.02-1.53 2.81-2.5.27-.34.53-.7.77-1.07.17-.28.32-.57.46-.86.11-.23.21-.47.31-.7l.07-.18c.06-.16.13-.31.18-.47.04-.11.06-.23.09-.34l.09-.34c.04-.13.07-.26.1-.4l.06-.35.02-.13c.03-.15.05-.31.07-.47l.03-.18c.01-.09.03-.19.04-.28.01-.08.01-.16.01-.24l.01-.25c.01-.12.02-.23.02-.35l.01-.17c0-.08.01-.16.01-.24-.04-.06-.04-.14-.05-.21z"
          fill="url(#prefix__c)"></path>
    <path fill="url(#prefix__d)" d="M10.54 23.62z"></path>
</svg>