<?xml version="1.0" encoding="utf-8"?>
<!-- Generator: Adobe Illustrator 24.1.0, SVG Export Plug-In . SVG Version: 6.00 Build 0)  -->
<svg version="1.1" id="ID_Access" xmlns="http://www.w3.org/2000/svg" xmlns:xlink="http://www.w3.org/1999/xlink" x="0px" y="0px"
	 viewBox="0 0 161.9 162" enable-background="new 0 0 161.9 162" xml:space="preserve">
<g>
	<path fill="#ff0000" d="M60.3,38.6c0-7.5-6.1-13.7-13.7-13.7S33,31.1,33,38.6s6.1,13.7,13.7,13.7S60.3,46.1,60.3,38.6z M40,38.6
		c0-3.7,3-6.7,6.7-6.7s6.7,3,6.7,6.7s-3,6.7-6.7,6.7S40,42.3,40,38.6z"/>
	<path fill="#ff0000" d="M67.8,75.8v-1.6c0-10.7-8.7-19.3-19.3-19.3h-3.6c-10.7,0-19.3,8.7-19.3,19.3v1.6h7v-1.6
		c0-6.8,5.5-12.3,12.3-12.3h3.6c6.8,0,12.3,5.5,12.3,12.3v1.6H67.8z"/>
	<polygon fill="#ff0000" points="18.2,82.4 18.2,18.3 115.3,18.3 115.3,63.3 120.5,61.1 124.3,62.7 124.3,9.3 9.2,9.3 9.2,91.4
		83,91.4 83,82.4 	"/>
	<polygon fill="#ff0000" points="93.6,70.3 96.7,67.2 92,62.5 97,57.6 93.9,54.5 89,59.5 84.3,54.8 81.2,57.8 85.9,62.5 80.9,67.5
		84,70.6 89,65.6 	"/>
	<polygon fill="#ff0000" points="84.2,35.3 80.9,38.1 87.7,46.2 100.2,32.4 97,29.5 87.8,39.6 	"/>
	<path fill="#ff0000" d="M153,111.5v-30l-32.8-14.1L87.4,81.5l0.1,31.8l0.1,0.4c4.8,27.7,29.9,37.9,30.9,38.4l1.9,0.8l1.8-0.9
		C153,136.2,153,112.5,153,111.5z M144,111.6c0,0.7-0.3,16-19.4,28.6v-37.2h-9v37.3c-6.6-4.3-16.3-13-19-27.7l-0.1-25.1l19.1-8.2V95
		h9V79.1l19.4,8.3V111.6z"/>
</g>
</svg>
