<svg id="db" width="32px" height="32px" viewBox="0 0 32 32" xmlns="http://www.w3.org/2000/svg"
>
    <defs>
        <linearGradient x1="72.3889993%" y1="4.30816474%" x2="25.5%" y2="100%" id="db-lg">
            <stop stop-color="#53A0FD" offset="0%"></stop>
            <stop stop-color="#B4EC51" offset="100%"></stop>
        </linearGradient>
    </defs>
    <g id="db-symbols" stroke="none" stroke-width="1" fill="none" fill-rule="evenodd">
        <g id="icons-/-32-/-database" fill="url(#db-lg)" fill-rule="nonzero">
            <path d="M16.5,1 C11.4096,1 6,2.31464286 6,4.75 L6,27.25 C6,29.6853571 11.4096,31 16.5,31 C21.5904,31 27,29.6853571 27,27.25 L27,4.75 C27,2.31464286 21.5904,1 16.5,1 Z M26.0869565,19.8967917 C26.0869565,21.0099915 22.4396522,22.5625 16.5,22.5625 C10.5603478,22.5625 6.91304348,21.0099915 6.91304348,19.8967917 L6.91304348,14.125 C8.75480435,15.4578542 12.7099565,16.1648 16.5,16.1648 C20.2900435,16.1648 24.2451957,15.4578542 26.0869565,14.125 L26.0869565,19.8967917 Z M26.0869565,12.3967917 C26.0869565,13.5099915 22.4396522,15.0625 16.5,15.0625 C10.5603478,15.0625 6.91304348,13.5099915 6.91304348,12.3967917 L6.91304348,6.625 C8.75480435,7.95785416 12.7099565,8.66480001 16.5,8.66480001 C20.2900435,8.66480001 24.2451957,7.95785416 26.0869565,6.625 L26.0869565,12.3967917 Z M16.5,1.9375 C22.4396522,1.9375 26.0869565,3.5755 26.0869565,4.75 C26.0869565,5.9245 22.4396522,7.5625 16.5,7.5625 C10.5603478,7.5625 6.91304348,5.9245 6.91304348,4.75 C6.91304348,3.5755 10.5603478,1.9375 16.5,1.9375 Z M16.5,30.0625 C10.5603478,30.0625 6.91304348,28.5099915 6.91304348,27.3967917 L6.91304348,21.625 C8.75480435,22.9578542 12.7099565,23.6648 16.5,23.6648 C20.2900435,23.6648 24.2451957,22.9578542 26.0869565,21.625 L26.0869565,27.3967917 C26.0869565,28.5099915 22.4396522,30.0625 16.5,30.0625 Z"
                  id="db-shape"></path>
        </g>
    </g>
</svg>