<?xml version="1.0" encoding="UTF-8"?>
<svg width="32px" height="32px" viewBox="0 0 32 32" version="1.1" xmlns="http://www.w3.org/2000/svg">
    <!-- Generator: Sketch 51.3 (57544) - http://www.bohemiancoding.com/sketch -->
    <title>icons / 32 / compute</title>
    <desc>Created with Sketch.</desc>
    <defs>
        <linearGradient x1="95.6918353%" y1="4.30816474%" x2="0%" y2="100%" id="linearGradient-1">
            <stop stop-color="#53A0FD" offset="0%"></stop>
            <stop stop-color="#B4EC51" offset="100%"></stop>
        </linearGradient>
    </defs>
    <g id="icons-/-32-/-compute" stroke="none" stroke-width="1" fill="none" fill-rule="evenodd">
        <path d="M31.3333333,10.6666667 C31.7013333,10.6666667 32,10.368 32,10 C32,9.632 31.7013333,9.33333333 31.3333333,9.33333333 L29.3333333,9.33333333 L29.3333333,6.66666667 L31.3333333,6.66666667 C31.7013333,6.66666667 32,6.368 32,6 C32,5.632 31.7013333,5.33333333 31.3333333,5.33333333 L29.3333333,5.33333333 L29.3333333,4.66666667 C29.3333333,3.564 28.436,2.66666667 27.3333333,2.66666667 L26.6666667,2.66666667 L26.6666667,0.666666667 C26.6666667,0.298666667 26.368,0 26,0 C25.632,0 25.3333333,0.298666667 25.3333333,0.666666667 L25.3333333,2.66666667 L22.6666667,2.66666667 L22.6666667,0.666666667 C22.6666667,0.298666667 22.368,0 22,0 C21.632,0 21.3333333,0.298666667 21.3333333,0.666666667 L21.3333333,2.66666667 L18.6666667,2.66666667 L18.6666667,0.666666667 C18.6666667,0.298666667 18.368,0 18,0 C17.632,0 17.3333333,0.298666667 17.3333333,0.666666667 L17.3333333,2.66666667 L14.6666667,2.66666667 L14.6666667,0.666666667 C14.6666667,0.298666667 14.368,0 14,0 C13.632,0 13.3333333,0.298666667 13.3333333,0.666666667 L13.3333333,2.66666667 L10.6666667,2.66666667 L10.6666667,0.666666667 C10.6666667,0.298666667 10.368,0 10,0 C9.632,0 9.33333333,0.298666667 9.33333333,0.666666667 L9.33333333,2.66666667 L6.66666667,2.66666667 L6.66666667,0.666666667 C6.66666667,0.298666667 6.368,0 6,0 C5.632,0 5.33333333,0.298666667 5.33333333,0.666666667 L5.33333333,2.66666667 L4.66666667,2.66666667 C3.564,2.66666667 2.66666667,3.564 2.66666667,4.66666667 L2.66666667,5.33333333 L0.666666667,5.33333333 C0.298666667,5.33333333 0,5.632 0,6 C0,6.368 0.298666667,6.66666667 0.666666667,6.66666667 L2.66666667,6.66666667 L2.66666667,9.33333333 L0.666666667,9.33333333 C0.298666667,9.33333333 0,9.632 0,10 C0,10.368 0.298666667,10.6666667 0.666666667,10.6666667 L2.66666667,10.6666667 L2.66666667,13.3333333 L0.666666667,13.3333333 C0.298666667,13.3333333 0,13.632 0,14 C0,14.368 0.298666667,14.6666667 0.666666667,14.6666667 L2.66666667,14.6666667 L2.66666667,17.3333333 L0.666666667,17.3333333 C0.298666667,17.3333333 0,17.632 0,18 C0,18.368 0.298666667,18.6666667 0.666666667,18.6666667 L2.66666667,18.6666667 L2.66666667,21.3333333 L0.666666667,21.3333333 C0.298666667,21.3333333 0,21.632 0,22 C0,22.368 0.298666667,22.6666667 0.666666667,22.6666667 L2.66666667,22.6666667 L2.66666667,25.3333333 L0.666666667,25.3333333 C0.298666667,25.3333333 0,25.632 0,26 C0,26.368 0.298666667,26.6666667 0.666666667,26.6666667 L2.66666667,26.6666667 L2.66666667,27.3333333 C2.66666667,28.436 3.564,29.3333333 4.66666667,29.3333333 L5.33333333,29.3333333 L5.33333333,31.3333333 C5.33333333,31.7013333 5.632,32 6,32 C6.368,32 6.66666667,31.7013333 6.66666667,31.3333333 L6.66666667,29.3333333 L9.33333333,29.3333333 L9.33333333,31.3333333 C9.33333333,31.7013333 9.632,32 10,32 C10.368,32 10.6666667,31.7013333 10.6666667,31.3333333 L10.6666667,29.3333333 L13.3333333,29.3333333 L13.3333333,31.3333333 C13.3333333,31.7013333 13.632,32 14,32 C14.368,32 14.6666667,31.7013333 14.6666667,31.3333333 L14.6666667,29.3333333 L17.3333333,29.3333333 L17.3333333,31.3333333 C17.3333333,31.7013333 17.632,32 18,32 C18.368,32 18.6666667,31.7013333 18.6666667,31.3333333 L18.6666667,29.3333333 L21.3333333,29.3333333 L21.3333333,31.3333333 C21.3333333,31.7013333 21.632,32 22,32 C22.368,32 22.6666667,31.7013333 22.6666667,31.3333333 L22.6666667,29.3333333 L25.3333333,29.3333333 L25.3333333,31.3333333 C25.3333333,31.7013333 25.632,32 26,32 C26.368,32 26.6666667,31.7013333 26.6666667,31.3333333 L26.6666667,29.3333333 L27.3333333,29.3333333 C28.436,29.3333333 29.3333333,28.436 29.3333333,27.3333333 L29.3333333,26.6666667 L31.3333333,26.6666667 C31.7013333,26.6666667 32,26.368 32,26 C32,25.632 31.7013333,25.3333333 31.3333333,25.3333333 L29.3333333,25.3333333 L29.3333333,22.6666667 L31.3333333,22.6666667 C31.7013333,22.6666667 32,22.368 32,22 C32,21.632 31.7013333,21.3333333 31.3333333,21.3333333 L29.3333333,21.3333333 L29.3333333,18.6666667 L31.3333333,18.6666667 C31.7013333,18.6666667 32,18.368 32,18 C32,17.632 31.7013333,17.3333333 31.3333333,17.3333333 L29.3333333,17.3333333 L29.3333333,14.6666667 L31.3333333,14.6666667 C31.7013333,14.6666667 32,14.368 32,14 C32,13.632 31.7013333,13.3333333 31.3333333,13.3333333 L29.3333333,13.3333333 L29.3333333,10.6666667 L31.3333333,10.6666667 Z M28,27.3333333 C28,27.7013333 27.7,28 27.3333333,28 L4.66666667,28 C4.3,28 4,27.7013333 4,27.3333333 L4,4.66666667 C4,4.29866667 4.3,4 4.66666667,4 L27.3333333,4 C27.7,4 28,4.29866667 28,4.66666667 L28,27.3333333 Z M9.33333333,8 C9.33333333,7.264 8.736,6.66666667 8,6.66666667 C7.264,6.66666667 6.66666667,7.264 6.66666667,8 C6.66666667,8.736 7.264,9.33333333 8,9.33333333 C8.736,9.33333333 9.33333333,8.736 9.33333333,8 Z M20.6666667,10.6666667 L11.3333333,10.6666667 C10.9653333,10.6666667 10.6666667,10.9653333 10.6666667,11.3333333 L10.6666667,20.6666667 C10.6666667,21.0346667 10.9653333,21.3333333 11.3333333,21.3333333 L20.6666667,21.3333333 C21.0346667,21.3333333 21.3333333,21.0346667 21.3333333,20.6666667 L21.3333333,11.3333333 C21.3333333,10.9653333 21.0346667,10.6666667 20.6666667,10.6666667 Z M20,20 L12,20 L12,12 L20,12 L20,20 Z" id="Combined-Shape" fill="url(#linearGradient-1)" fill-rule="nonzero"></path>
    </g>
</svg>