<svg id="gov" width="32px" height="32px" viewBox="0 0 32 32" xmlns="http://www.w3.org/2000/svg"
     xmlns:xlink="http://www.w3.org/1999/xlink">
    <defs>
        <linearGradient x1="95.6918353%" y1="4.30816474%" x2="0%" y2="100%" id="gov-lg">
            <stop stop-color="#53A0FD" offset="0%"></stop>
            <stop stop-color="#B4EC51" offset="100%"></stop>
        </linearGradient>
    </defs>
    <g id="gov-g" stroke="none" stroke-width="1" fill="none" fill-rule="evenodd">
        <path d="M2.85714286,8.625 C2.54171429,8.625 2.28571429,8.373 2.28571429,8.0625 C2.28571429,7.752 2.54171429,7.5 2.85714286,7.5 L29.1428571,7.5 C29.4582857,7.5 29.7142857,7.752 29.7142857,8.0625 C29.7142857,8.373 29.4582857,8.625 29.1428571,8.625 L2.85714286,8.625 Z M3.42857143,5.8125 C3.42857143,6.123 3.17257143,6.375 2.85714286,6.375 C2.54171429,6.375 2.28571429,6.123 2.28571429,5.8125 C2.28571429,5.502 2.54171429,5.25 2.85714286,5.25 C3.17257143,5.25 3.42857143,5.502 3.42857143,5.8125 Z M5.71428571,5.8125 C5.71428571,6.123 5.45828571,6.375 5.14285714,6.375 C4.82742857,6.375 4.57142857,6.123 4.57142857,5.8125 C4.57142857,5.502 4.82742857,5.25 5.14285714,5.25 C5.45828571,5.25 5.71428571,5.502 5.71428571,5.8125 Z M8,5.8125 C8,6.123 7.744,6.375 7.42857143,6.375 C7.11314286,6.375 6.85714286,6.123 6.85714286,5.8125 C6.85714286,5.502 7.11314286,5.25 7.42857143,5.25 C7.744,5.25 8,5.502 8,5.8125 Z M30.8571429,3 C31.488,3 32,3.504 32,4.125 L32,13.6875 C32,13.998 31.744,14.25 31.4285714,14.25 C31.1131429,14.25 30.8571429,13.998 30.8571429,13.6875 L30.8571429,4.125 L1.14285714,4.125 L1.14285714,24.375 L15.4285714,24.375 C15.744,24.375 16,24.627 16,24.9375 C16,25.248 15.744,25.5 15.4285714,25.5 L1.14285714,25.5 C0.512,25.5 0,24.996 0,24.375 L0,4.125 C0,3.504 0.512,3 1.14285714,3 L30.8571429,3 Z M29.7142857,22.125 C30.3451429,22.125 30.8571429,22.629 30.8571429,23.25 L30.8571429,28.875 C30.8571429,29.496 30.3451429,30 29.7142857,30 L19.4285714,30 C18.7977143,30 18.2857143,29.496 18.2857143,28.875 L18.2857143,23.25 C18.2857143,22.629 18.7977143,22.125 19.4285714,22.125 L20.5714286,22.125 L20.5714286,19.3125 C20.5714286,17.137875 22.3622857,15.375 24.5714286,15.375 C26.7805714,15.375 28.5714286,17.137875 28.5714286,19.3125 L28.5714286,22.125 L29.7142857,22.125 Z M21.7142857,19.3125 L21.7142857,22.125 L27.4285714,22.125 L27.4285714,19.3125 C27.4285714,17.758875 26.1497143,16.5 24.5714286,16.5 C22.9931429,16.5 21.7142857,17.758875 21.7142857,19.3125 Z M29.7142857,28.875 L29.7142857,23.25 L19.4285714,23.25 L19.4285714,28.875 L29.7142857,28.875 Z M24.5714286,27.75 C24.256,27.75 24,27.498 24,27.1875 L24,24.9375 C24,24.627 24.256,24.375 24.5714286,24.375 C24.8868571,24.375 25.1428571,24.627 25.1428571,24.9375 L25.1428571,27.1875 C25.1428571,27.498 24.8868571,27.75 24.5714286,27.75 Z"
              id="gov-cs" fill="url(#gov-lg)" fill-rule="nonzero"></path>
    </g>
</svg>