<svg width="35px" height="35px" viewBox="0 0 35 35" xmlns="http://www.w3.org/2000/svg"
     focusable="false" aria-hidden="true">
    <defs>
        <linearGradient x1="95.6918353%" y1="4.30816474%" x2="0%" y2="100%" id="linearGradient-1">
            <stop stop-color="#53A0FD" offset="0%"></stop>
            <stop stop-color="#B4EC51" offset="100%"></stop>
        </linearGradient>
    </defs>
    <g id="vcn-symbols" stroke="none" stroke-width="1" fill="none" fill-rule="evenodd">
        <path d="M17.925,7 L17.9247729,8.92953097 C19.2174697,8.33437357 20.6726708,8 22.2115385,8 C27.5706477,8 31.9150641,12.0552219 31.9150641,17.0575916 C31.9150641,17.8150347 31.8154594,18.5507625 31.6278092,19.2539851 C33.5721896,19.7552082 35,21.4182972 35,23.3926702 L35,23.7068063 C35,26.0778717 32.9407968,28 30.400641,28 L7,28 L7.00043449,30.0500973 C8.14133817,30.2819003 9,31.2906746 9,32.5 C9,33.8807119 7.88071187,35 6.5,35 C5.11928813,35 4,33.8807119 4,32.5 C4,31.2903182 4.85916789,30.2813059 6.00057405,30.0498926 L6,28 L4.59935897,28 C2.05920315,28 0,26.0778717 0,23.7068063 L0,23.3926702 C0,21.1225304 1.88763183,19.2639227 4.27772549,19.1098105 C4.1578527,18.6182463 4.09455128,18.1065994 4.09455128,17.5811518 C4.09455128,13.7932303 7.38425388,10.7225131 11.4423077,10.7225131 C12.58548,10.7225131 13.6676779,10.9661974 14.6325356,11.4009524 C15.316601,10.6034121 16.1421486,9.91618874 17.0736651,9.37243176 L17.075,7 L17.925,7 Z M6.5,31 C5.67157288,31 5,31.6715729 5,32.5 C5,33.3284271 5.67157288,34 6.5,34 C7.32842712,34 8,33.3284271 8,32.5 C8,31.6715729 7.32842712,31 6.5,31 Z M15.3694431,12.0393988 L14.9040794,12.5782925 L14.2416434,12.2818225 C13.3832372,11.8976468 12.4392806,11.695288 11.4620879,11.695288 C7.93195986,11.695288 5.08118132,14.3383191 5.08118132,17.5853403 C5.08118132,18.0301343 5.13442149,18.4678743 5.23888465,18.8933536 L5.49234796,19.9257117 L4.38401805,19.9966935 C2.47894113,20.1187021 1,21.5819584 1,23.3387435 L1,23.6497382 C1,25.4940718 2.62429706,27 4.64148352,27 L6,27 L6,22 C6,21.4871642 6.38604019,21.0644928 6.88337887,21.0067277 L7,21 L11,21 L11,17.5 C11,17.2238576 11.2238576,17 11.5,17 C11.7761424,17 12,17.2238576 12,17.5 L12,21 L17.075,21 L17.0736766,10.5336559 C16.440574,10.9584068 15.866662,11.4636165 15.3694431,12.0393988 Z M22.1961538,9 C20.6669399,9 19.2039771,9.36531044 17.9236487,10.030194 L17.925,21 L24,21 L24,21.5 L24,21.5 L24,22 L22,22 L22,25.5 C22,25.7761424 21.7761424,26 21.5,26 C21.2238576,26 21,25.7761424 21,25.5 L21,22 L7,22 L7,27 L30.3585165,27 C32.3757029,27 34,25.4940718 34,23.6497382 L34,23.3387435 C34,21.8289767 32.9025553,20.5114552 31.3374089,20.1107173 L30.4367285,19.8801083 L30.668374,19.0178777 C30.8383322,18.3852592 30.9251374,17.7317834 30.9251374,17.0670157 C30.9251374,12.6176908 27.023089,9 22.1961538,9 Z M26.5,19 C27.8807119,19 29,20.1192881 29,21.5 C29,22.8807119 27.8807119,24 26.5,24 C25.1192881,24 24,22.8807119 24,21.5 C24,20.1192881 25.1192881,19 26.5,19 Z M26.5,20 C25.6715729,20 25,20.6715729 25,21.5 C25,22.3284271 25.6715729,23 26.5,23 C27.3284271,23 28,22.3284271 28,21.5 C28,20.6715729 27.3284271,20 26.5,20 Z M17.5,0 C19.4329966,0 21,1.56700338 21,3.5 C21,5.43299662 19.4329966,7 17.5,7 C15.5670034,7 14,5.43299662 14,3.5 C14,1.56700338 15.5670034,0 17.5,0 Z M17.5,1 C16.1192881,1 15,2.11928813 15,3.5 C15,4.88071187 16.1192881,6 17.5,6 C18.8807119,6 20,4.88071187 20,3.5 C20,2.11928813 18.8807119,1 17.5,1 Z"
              id="Combined-Shape" fill="url(#linearGradient-1)" fill-rule="nonzero"></path>
    </g>
</svg>