<?xml version="1.0" encoding="utf-8"?>
<!-- Generator: Adobe Illustrator 21.0.0, SVG Export Plug-In . SVG Version: 6.00 Build 0)  -->
<!DOCTYPE svg PUBLIC "-//W3C//DTD SVG 1.1//EN" "http://www.w3.org/Graphics/SVG/1.1/DTD/svg11.dtd">
<svg version="1.1" id="Icons" xmlns="http://www.w3.org/2000/svg" xmlns:xlink="http://www.w3.org/1999/xlink" x="0px" y="0px"
	 viewBox="0 0 288 288" style="enable-background:new 0 0 288 288;" xml:space="preserve">
<style type="text/css">
	.st0{fill:#F80000;}
</style>
<g>
	<g>
		<path class="st0" d="M144,79.6c5.9,0,10.6,4.7,10.6,10.6c0,0.5-0.1,1.1-0.1,1.6l15.4,0v16.8h-51.7V91.8h0c0,0,0,0,0,0l15.3,0
			c-0.1-0.5-0.1-1.1-0.1-1.6C133.4,84.3,138.1,79.6,144,79.6 M144,85.7c-2.5,0-4.5,2-4.5,4.5c0,2.5,2,4.5,4.5,4.5
			c2.5,0,4.5-2,4.5-4.5C148.5,87.7,146.5,85.7,144,85.7"/>
		<path class="st0" d="M105.7,208.4c-3.4,0-6.1-2.7-6.1-6.1V100.8c0-0.3,0.3-0.6,0.6-0.6h12.2c0.3,0,0.6,0.3,0.6,0.6v5.2
			c0,0.3-0.3,0.6-0.6,0.6h-5.8c-0.3,0-0.6,0.3-0.6,0.6v94.3c0.1,1.6-7,0,0.1,0.5l75.2,0c0.3,0,0.6-0.3,0.6-0.6v-94.2
			c0-0.3-0.3-0.6-0.6-0.6h-5.8c-0.3,0-0.6-0.3-0.6-0.6v-5.2c0-0.3,0.3-0.6,0.6-0.6h12.2c0.3,0,0.6,0.3,0.6,0.6v101.5
			c0,3.4-2.7,6.1-6.1,6.1H105.7z"/>
		<polygon class="st0" points="160.3,133.6 148.8,133.6 148.8,122.1 139.2,122.1 139.2,133.6 127.7,133.6 127.7,143.2 139.2,143.2 
			139.2,154.7 148.8,154.7 148.8,143.2 160.3,143.2 		"/>
		<rect x="119.8" y="168.2" class="st0" width="48" height="4"/>
		<rect x="119.8" y="181" class="st0" width="38.4" height="4"/>
	</g>
</g>
</svg>
