<?xml version="1.0" encoding="utf-8"?>
<!-- Generator: Adobe Illustrator 21.0.0, SVG Export Plug-In . SVG Version: 6.00 Build 0)  -->
<!DOCTYPE svg PUBLIC "-//W3C//DTD SVG 1.1//EN" "http://www.w3.org/Graphics/SVG/1.1/DTD/svg11.dtd">
<svg version="1.1" id="Icons" xmlns="http://www.w3.org/2000/svg" xmlns:xlink="http://www.w3.org/1999/xlink" x="0px" y="0px"
	 viewBox="0 0 288 288" style="enable-background:new 0 0 288 288;" xml:space="preserve">
<style type="text/css">
	.st0{fill:#F80000;}
</style>
<g>
	<circle class="st0" cx="173.7" cy="116.2" r="3.8"/>
	<circle class="st0" cx="173.7" cy="144.5" r="3.8"/>
	<path class="st0" d="M194.6,81.8H93.4c-3.5,0-6.3,2.8-6.3,6.3v111.8c0,3.5,2.8,6.3,6.3,6.3h101.1c3.5,0,6.3-2.8,6.3-6.3V88.1
		C200.9,84.7,198,81.8,194.6,81.8z M183.6,181c0,1.4-1.2,2.6-2.6,2.6h-72.6c-1.4,0-2.6-1.2-2.6-2.6v-20.5h77.8V181z M183.6,155.7
		h-77.8v-23.1h77.8V155.7z M183.6,127.4h-77.8v-20.6c0-1.4,1.2-2.6,2.6-2.6H181c1.4,0,2.6,1.2,2.6,2.6V127.4z"/>
	<circle class="st0" cx="173.7" cy="171.7" r="3.8"/>
</g>
</svg>
