<?xml version="1.0" encoding="utf-8"?>
<!-- Generator: Adobe Illustrator 22.0.1, SVG Export Plug-In . SVG Version: 6.00 Build 0)  -->
<svg version="1.1" id="Icons" xmlns="http://www.w3.org/2000/svg" xmlns:xlink="http://www.w3.org/1999/xlink" x="0px" y="0px"
	 viewBox="0 0 288 288" style="enable-background:new 0 0 288 288;" xml:space="preserve">
<style type="text/css">
	.st0{fill:#F80000;}
</style>
<path class="st0" d="M145.2,89.3c-30.2,0-54.8,24.5-54.8,54.7c0,30.2,24.5,54.7,54.8,54.7c30.2,0,54.7-24.5,54.7-54.7
	C199.9,113.8,175.4,89.3,145.2,89.3z M170.8,164.2h-23.5v-17.4l5.5,5.9l2.9-2.7l-10.5-11.3L134.6,150l2.9,2.7l5.5-5.9v17.4h-21.6
	c-9,0-16.2-6.6-16.2-15.5c0-9.8,6-17.2,16.2-18.9c0.1,0,0.3,0,0.4,0c1.7-7.2,8.1-12.5,15.8-12.5c5.6,0,10.5,2.8,13.4,7
	c1.5-0.5,3.1-0.8,4.7-0.8c6.4,0,11.9,4.2,13.7,10.1c0.4,0,0.8-0.1,1.3-0.1c8.6,1.1,14.4,7.3,14.4,14.8
	C185.1,156.2,178.7,164.2,170.8,164.2z"/>
</svg>
