<?xml version="1.0" encoding="utf-8"?>
<!-- Generator: Adobe Illustrator 22.0.1, SVG Export Plug-In . SVG Version: 6.00 Build 0)  -->
<svg version="1.1" id="Icons" xmlns="http://www.w3.org/2000/svg" xmlns:xlink="http://www.w3.org/1999/xlink" x="0px" y="0px"
	 viewBox="0 0 288 288" style="enable-background:new 0 0 288 288;" xml:space="preserve">
<style type="text/css">
	.st0{fill:#F80000;}
</style>
<path class="st0" d="M144.8,89.3c-30.2,0-54.7,24.5-54.7,54.7s24.5,54.7,54.7,54.7c30.2,0,54.7-24.5,54.7-54.7
	S175.1,89.3,144.8,89.3z M185.6,144.3h-39.4v-7.5h32.7C182,138.6,184.3,141.2,185.6,144.3z M154.2,126h9.4c2.9,1.7,5.2,4.3,6.4,7.5
	h-15.8V126z M137.6,117.6c4.7,0,8.9,2,12,5.1H125C128,119.4,132.4,117.6,137.6,117.6z M124.8,126h26.1v7.5h-26.1V126z M121.4,129.3
	v4.2h-9.5C114.6,131.4,117.8,129.9,121.4,129.3z M108.6,136.8h34.2v7.5h-37.9C105.6,141.6,106.9,139,108.6,136.8z M104.9,155.1
	c-0.5-1.6-0.9-3.2-0.9-5c0-0.8,0.1-1.6,0.2-2.4h22.3v7.5H104.9z M142.6,165.9h-23.9c-5.2-0.6-9.6-3.4-12.2-7.5h36.1V165.9z
	 M129.9,155.1v-7.5h30.1v7.5H129.9z M173.4,165.9h-27.4v-7.5h38.1C181.7,162.4,177.8,165.3,173.4,165.9z M163.3,155.1v-7.5h23.1
	c0.1,0.7,0.2,1.3,0.2,2c0,1.8-0.4,3.7-1,5.5H163.3z"/>
</svg>
