<?xml version="1.0" encoding="utf-8"?>
<!-- Generator: Adobe Illustrator 21.0.0, SVG Export Plug-In . SVG Version: 6.00 Build 0)  -->
<!DOCTYPE svg PUBLIC "-//W3C//DTD SVG 1.1//EN" "http://www.w3.org/Graphics/SVG/1.1/DTD/svg11.dtd">
<svg version="1.1" id="Icons" xmlns="http://www.w3.org/2000/svg" xmlns:xlink="http://www.w3.org/1999/xlink" x="0px" y="0px"
	 viewBox="0 0 288 288" style="enable-background:new 0 0 288 288;" xml:space="preserve">
<style type="text/css">
	.st0{fill:#F80000;}
</style>
<g>
	<g>
		<path class="st0" d="M198.4,153.7h-23.8v11.4h23.8V153.7z M193.6,157.4c1,0,1.9,0.8,1.9,1.9c0,1-0.8,1.9-1.9,1.9
			c-1,0-1.9-0.8-1.9-1.9C191.7,158.2,192.5,157.4,193.6,157.4"/>
		<path class="st0" d="M196.7,179.7c1,0,1.7-0.8,1.7-1.7v-9.6h-23.8v11.3H196.7z M193.6,172c1,0,1.9,0.8,1.9,1.9
			c0,1-0.8,1.9-1.9,1.9c-1,0-1.9-0.8-1.9-1.9C191.7,172.8,192.5,172,193.6,172"/>
		<path class="st0" d="M198.4,121.3v-9.6c0-0.9-0.8-1.7-1.7-1.7h-22v11.4H198.4z M193.6,113.9c1,0,1.9,0.8,1.9,1.9
			c0,1-0.8,1.9-1.9,1.9c-1,0-1.9-0.8-1.9-1.9C191.7,114.7,192.5,113.9,193.6,113.9"/>
		<path class="st0" d="M198.4,124.5h-23.8v11.4h23.8V124.5z M193.6,128.5c1,0,1.9,0.8,1.9,1.9c0,1-0.8,1.9-1.9,1.9
			c-1,0-1.9-0.8-1.9-1.9C191.7,129.4,192.5,128.5,193.6,128.5"/>
		<path class="st0" d="M198.4,139.1h-23.8v11.3h23.8V139.1z M193.6,143c1,0,1.9,0.8,1.9,1.9c0,1-0.8,1.9-1.9,1.9
			c-1,0-1.9-0.8-1.9-1.9C191.7,143.8,192.5,143,193.6,143"/>
		<path class="st0" d="M127.8,155.2v1.2l0,0c1,0.2,2.2,0.6,3.5,1c2.1,0.6,3.8,1.1,5.2,1.6l1.5,0.5c4,2.1,6.6,5.9,7.4,10.2h26.1
			v-14.4H127.8z M165.4,164.7c-1.3,0-2.4-1.1-2.4-2.4s1.1-2.4,2.4-2.4c1.3,0,2.4,1.1,2.4,2.4S166.7,164.7,165.4,164.7z"/>
		<path class="st0" d="M145.7,173.9v14.4h23.6c1.2,0,2.2-1,2.2-2.2v-12.2H145.7z M165.4,183.2c-1.3,0-2.4-1.1-2.4-2.4
			c0-1.3,1.1-2.4,2.4-2.4c1.3,0,2.4,1.1,2.4,2.4C167.7,182.2,166.7,183.2,165.4,183.2z"/>
		<path class="st0" d="M171.5,101.7c0-1.2-1-2.2-2.2-2.2H130c-1.2,0-2.2,1-2.2,2.2V114h43.7V101.7z M165.4,109.3
			c-1.3,0-2.4-1.1-2.4-2.4c0-1.3,1.1-2.4,2.4-2.4c1.3,0,2.4,1.1,2.4,2.4C167.7,108.3,166.7,109.3,165.4,109.3"/>
		<path class="st0" d="M131.2,136.7c-0.1,1.2-0.2,2.5-0.4,3.9c0.8,1.3,1.1,2.8,0.9,4.3l-0.5,3.6c-0.1,1-0.5,1.9-1,2.7h41.4v-14.4
			H131.2z M165.4,146.3c-1.3,0-2.4-1.1-2.4-2.4s1.1-2.4,2.4-2.4c1.3,0,2.4,1.1,2.4,2.4S166.7,146.3,165.4,146.3z"/>
		<path class="st0" d="M127.8,118.1v8.5c1.5,1.7,2.6,3.8,3.1,6h40.6v-14.4H127.8z M165.4,128c-1.3,0-2.4-1.1-2.4-2.4
			s1.1-2.4,2.4-2.4c1.3,0,2.4,1.1,2.4,2.4S166.7,128,165.4,128z"/>
		<path class="st0" d="M103.7,144.8l0.5,3.6c0.2,1.2,1.1,2,2.3,2.1v0c1.2,8.9,7.9,9.2,9,9.2h0h0h0.1h0h0h0.1h0h0h0
			c1,0,7.8-0.4,9-9.2v0c1.2,0,2.2-0.9,2.4-2.1l0.5-3.6c0.1-1-0.4-2-1.2-2.4c0.3-1.5,0.8-4.3,0.8-6.8c0-4.3-3.9-8.7-9-9.2l-1.7-2.3
			c-12.5,0.6-12.4,10.8-12.4,10.8v1.2c0.1,2.3,0.5,4.9,0.8,6.3C104,142.9,103.5,143.8,103.7,144.8"/>
		<path class="st0" d="M89.6,188.5v-16.1c0-4,2.2-7.5,5.5-9.2l0,0c1.7-0.6,3.9-1.3,6-1.9c1.3-0.4,2.4-0.7,3.3-0.9
			c1.4-0.3,2.4-0.6,2.4-0.6c1.7,2.4,5.3,3.6,8.8,3.6h0c3.6,0,7.1-1.2,8.8-3.6c0,0,1,0.2,2.4,0.6c0.9,0.2,2.1,0.6,3.3,0.9
			c2.1,0.6,4.3,1.3,6,1.9l0,0c3.2,1.7,5.5,5.2,5.5,9.2v16.1H89.6z"/>
	</g>
</g>
</svg>
