<?xml version="1.0" encoding="utf-8"?>
<!-- Generator: Adobe Illustrator 21.0.0, SVG Export Plug-In . SVG Version: 6.00 Build 0)  -->
<!DOCTYPE svg PUBLIC "-//W3C//DTD SVG 1.1//EN" "http://www.w3.org/Graphics/SVG/1.1/DTD/svg11.dtd">
<svg version="1.1" id="Icons" xmlns="http://www.w3.org/2000/svg" xmlns:xlink="http://www.w3.org/1999/xlink" x="0px" y="0px"
	 viewBox="0 0 288 288" style="enable-background:new 0 0 288 288;" xml:space="preserve">
<style type="text/css">
	.st0{fill:#F80000;}
</style>
<g>
	<rect x="94.6" y="118.7" class="st0" width="6" height="4.6"/>
	<rect x="140.5" y="118.7" class="st0" width="46.7" height="4.6"/>
	<rect x="106.4" y="118.7" class="st0" width="28.1" height="4.6"/>
	<path class="st0" d="M203.8,95.7H84.2c-1.3,0-2.3,1-2.3,2.3v94.4h4.6v-80.6h115.1v52.9h4.6V98C206.1,96.7,205.1,95.7,203.8,95.7z
		 M93.4,107.2h-6.9v-6.9h6.9V107.2z"/>
	<rect x="94.6" y="153.2" class="st0" width="5" height="4.6"/>
	<rect x="104.8" y="153.2" class="st0" width="5" height="4.6"/>
	<rect x="115" y="153.2" class="st0" width="5" height="4.6"/>
	<rect x="125.1" y="153.2" class="st0" width="42.9" height="4.6"/>
	<rect x="94.6" y="164.7" class="st0" width="35.7" height="4.6"/>
	<rect x="134.8" y="164.7" class="st0" width="5.7" height="4.6"/>
	<rect x="94.6" y="176.2" class="st0" width="23.8" height="4.6"/>
	<rect x="122.2" y="176.2" class="st0" width="23.8" height="4.6"/>
	<rect x="149.8" y="176.2" class="st0" width="5.5" height="4.6"/>
	<rect x="94.6" y="141.7" class="st0" width="25.5" height="4.6"/>
	<rect x="125.1" y="141.7" class="st0" width="25.5" height="4.6"/>
	<rect x="155.3" y="141.7" class="st0" width="25.5" height="4.6"/>
	<rect x="94.6" y="130.2" class="st0" width="28.7" height="4.6"/>
	<rect x="128.4" y="130.2" class="st0" width="6.3" height="4.6"/>
	<rect x="139.7" y="130.2" class="st0" width="6.3" height="4.6"/>
	<rect x="151.4" y="130.2" class="st0" width="6.3" height="4.6"/>
</g>
</svg>
