<?xml version="1.0" encoding="utf-8"?>
<!-- Generator: Adobe Illustrator 21.0.0, SVG Export Plug-In . SVG Version: 6.00 Build 0)  -->
<!DOCTYPE svg PUBLIC "-//W3C//DTD SVG 1.1//EN" "http://www.w3.org/Graphics/SVG/1.1/DTD/svg11.dtd">
<svg version="1.1" id="Icons" xmlns="http://www.w3.org/2000/svg" xmlns:xlink="http://www.w3.org/1999/xlink" x="0px" y="0px"
	 viewBox="0 0 288 288" style="enable-background:new 0 0 288 288;" xml:space="preserve">
<style type="text/css">
	.st0{fill:#F80000;}
</style>
<g>
	<g>
		<g>
			<path class="st0" d="M104.9,104.9c18.2-18.3,46.3-21.5,68.2-7.9l2.6-4.2c-23.9-14.8-54.5-11.2-74.4,8.7
				c-18.9,18.9-23,47.8-10.5,71.1l-6.1,4.5l18.3,7.9l-2.3-19.8l-5.9,4.4C83.8,148.2,87.7,122,104.9,104.9z"/>
			<path class="st0" d="M197.1,115.5l6.1-4.5l-18.3-7.9l2.3,19.8l5.9-4.4c11.1,21.3,7.2,47.4-10,64.6c-18.2,18.2-46.2,21.5-68.1,8
				l-2.6,4.3c9.8,6.1,20.8,9,31.7,9c15.6,0,30.9-6.1,42.6-17.7C205.6,167.7,209.7,138.9,197.1,115.5z"/>
		</g>
		<path class="st0" d="M144,98.5c-25.1,0-45.5,20.4-45.5,45.5s20.3,45.4,45.5,45.4c25.1,0,45.4-20.3,45.4-45.4S169.1,98.5,144,98.5z
			 M141.5,106.6c0-1.4,1.1-2.5,2.5-2.5s2.5,1.1,2.5,2.5v5.9c0,1.4-1.1,2.5-2.5,2.5s-2.5-1.1-2.5-2.5V106.6z M112.5,146.5h-5.9
			c-1.4,0-2.5-1.1-2.5-2.5s1.1-2.5,2.5-2.5h5.9c1.4,0,2.5,1.1,2.5,2.5S113.9,146.5,112.5,146.5z M146.5,181.4c0,1.4-1.1,2.5-2.5,2.5
			s-2.5-1.1-2.5-2.5v-5.9c0-1.4,1.1-2.5,2.5-2.5s2.5,1.1,2.5,2.5V181.4z M170.4,121.1l-23,23.7l11.9,12.9c0.9,1,0.9,2.6-0.1,3.5
			c-0.5,0.4-1.1,0.7-1.7,0.7c-0.7,0-1.3-0.3-1.8-0.8l-15.1-16.4l26.3-27.1c1-1,2.5-1,3.5-0.1C171.3,118.6,171.4,120.2,170.4,121.1z
			 M181,146.5h-5.9c-1.4,0-2.5-1.1-2.5-2.5s1.1-2.5,2.5-2.5h5.9c1.4,0,2.5,1.1,2.5,2.5S182.3,146.5,181,146.5z"/>
	</g>
</g>
</svg>
