<svg width="20" height="20" viewBox="0 0 20 20" fill="none" xmlns="http://www.w3.org/2000/svg">
<path fill-rule="evenodd" clip-rule="evenodd" d="M3.25008 10C3.25008 6.27208 6.27216 3.25 10.0001 3.25C13.728 3.25 16.7501 6.27208 16.7501 10C16.7501 13.7279 13.728 16.75 10.0001 16.75C9.26468 16.75 8.55777 16.6327 7.89636 16.4159C8.13566 15.843 8.25008 15.2172 8.25008 14.5833C8.25008 12.0981 6.23536 10.0833 3.75008 10.0833C3.58124 10.0833 3.41439 10.0927 3.25007 10.1109L3.25008 10ZM10.0001 1.75C5.44373 1.75 1.75008 5.44365 1.75008 10L1.75004 10.5865L1.75 11.0467V12.1073L2.74993 11.7538C3.06174 11.6436 3.39809 11.5833 3.75008 11.5833C5.40694 11.5833 6.75008 12.9265 6.75008 14.5833C6.75008 15.2718 6.56309 15.8875 6.22174 16.3583L5.68857 17.0936L6.51142 17.4781C7.57196 17.9736 8.75478 18.25 10.0001 18.25C14.5564 18.25 18.2501 14.5563 18.2501 10C18.2501 5.44365 14.5564 1.75 10.0001 1.75ZM8.33333 8.33333C9.25381 8.33333 10 7.58714 10 6.66667C10 5.74619 9.25381 5 8.33333 5C7.41286 5 6.66667 5.74619 6.66667 6.66667C6.66667 7.58714 7.41286 8.33333 8.33333 8.33333ZM15 8.33333C15 9.25381 14.2538 10 13.3333 10C12.4129 10 11.6667 9.25381 11.6667 8.33333C11.6667 7.41286 12.4129 6.66667 13.3333 6.66667C14.2538 6.66667 15 7.41286 15 8.33333ZM11.6667 15C12.5871 15 13.3333 14.2538 13.3333 13.3333C13.3333 12.4129 12.5871 11.6667 11.6667 11.6667C10.7462 11.6667 10 12.4129 10 13.3333C10 14.2538 10.7462 15 11.6667 15Z" fill="#161513"/>
</svg>
