<svg width="20" height="20" viewBox="0 0 20 20" fill="none" xmlns="http://www.w3.org/2000/svg">
<path fill-rule="evenodd" clip-rule="evenodd" d="M2.0001 10C2.0001 5.58172 5.58182 2 10.0001 2C14.4184 2 18.0001 5.58172 18.0001 10C18.0001 14.4183 14.4184 18 10.0001 18C9.1661 18 8.36315 17.8727 7.60883 17.6368C7.87367 16.9637 8.0001 16.2355 8.0001 15.5C8.0001 12.4624 5.53766 10 2.5001 10C2.3317 10 2.16491 10.0076 2.0001 10.0225L2.0001 10ZM10.0001 0C4.47725 0 9.88841e-05 4.47715 9.88841e-05 10L4.94123e-05 10.7038L0 11.2561V12.6701L1.33325 12.1989C1.69685 12.0704 2.08921 12 2.5001 12C4.4331 12 6.0001 13.567 6.0001 15.5C6.0001 16.3085 5.78053 17.0259 5.38513 17.5713L4.67424 18.5516L5.77138 19.0643C7.057 19.665 8.4908 20 10.0001 20C15.5229 20 20.0001 15.5228 20.0001 10C20.0001 4.47715 15.5229 0 10.0001 0ZM8 8C9.10457 8 10 7.10457 10 6C10 4.89543 9.10457 4 8 4C6.89543 4 6 4.89543 6 6C6 7.10457 6.89543 8 8 8ZM16 8C16 9.10457 15.1046 10 14 10C12.8954 10 12 9.10457 12 8C12 6.89543 12.8954 6 14 6C15.1046 6 16 6.89543 16 8ZM12 16C13.1046 16 14 15.1046 14 14C14 12.8954 13.1046 12 12 12C10.8954 12 10 12.8954 10 14C10 15.1046 10.8954 16 12 16Z" fill="#161513"/>
</svg>
