<svg id="edge" width="32px" height="32px" viewBox="0 0 32 32" xmlns="http://www.w3.org/2000/svg"
     xmlns:xlink="http://www.w3.org/1999/xlink">
    <defs>
        <linearGradient x1="95.6918353%" y1="4.30816474%" x2="0%" y2="100%" id="edge-lg">
            <stop stop-color="#53A0FD" offset="0%"></stop>
            <stop stop-color="#B4EC51" offset="100%"></stop>
        </linearGradient>
    </defs>
    <g id="edge-g" stroke="none" stroke-width="1" fill="none" fill-rule="evenodd">
        <path d="M8.41666667,17.1587747 C4.87933333,17.1587747 2,20.0398787 2,23.5793873 C2,27.118896 4.87933333,30 8.41666667,30 C11.954,30 14.8333333,27.118896 14.8333333,23.5793873 C14.8333333,20.0398787 11.954,17.1587747 8.41666667,17.1587747 Z M8.41666667,28.8326159 C5.52216667,28.8326159 3.16666667,26.4756673 3.16666667,23.5793873 C3.16666667,20.6831073 5.52216667,18.3261588 8.41666667,18.3261588 C11.3111667,18.3261588 13.6666667,20.6831073 13.6666667,23.5793873 C13.6666667,26.4756673 11.3111667,28.8326159 8.41666667,28.8326159 Z M29.4166667,17.1587747 C29.7386667,17.1587747 30,17.4202687 30,17.7424667 L30,29.4163079 C30,29.738506 29.7386667,30 29.4166667,30 L17.75,30 C17.428,30 17.1666667,29.738506 17.1666667,29.4163079 L17.1666667,17.7424667 C17.1666667,17.4202687 17.428,17.1587747 17.75,17.1587747 L29.4166667,17.1587747 Z M28.8333333,28.8326159 L28.8333333,18.3261588 L18.3333333,18.3261588 L18.3333333,28.8326159 L28.8333333,28.8326159 Z M8.41666667,14.8240064 C8.202,14.8240064 8.00366667,14.7061006 7.90216667,14.5181518 C7.80066667,14.3302029 7.80883333,14.1002283 7.92666667,13.9216185 L15.51,2.24777728 C15.7246667,1.91740757 16.273,1.91740757 16.4876667,2.24777728 L24.071,13.9216185 C24.1888333,14.1013956 24.197,14.3302029 24.0955,14.5181518 C23.994,14.7061006 23.798,14.8240064 23.5833333,14.8240064 L8.41666667,14.8240064 Z M16,3.63696438 L9.49116667,13.6566223 L22.5088333,13.6566223 L16,3.63696438 Z"
              id="edge-cs" fill="url(#edge-lg)" fill-rule="nonzero"></path>
    </g>
</svg>