<svg width="20" height="20" viewBox="0 0 20 20" fill="none" xmlns="http://www.w3.org/2000/svg">
<path d="M2.5 2.5V1.75H1.75V2.5H2.5ZM2.5 17.5H1.75V18.25H2.5V17.5ZM10.8333 2.5L11.3637 1.96967L11.144 1.75H10.8333V2.5ZM15.8333 7.5V8.25C16.1367 8.25 16.4102 8.06727 16.5262 7.78701C16.6423 7.50676 16.5782 7.18417 16.3637 6.96967L15.8333 7.5ZM10.8333 7.5H10.0833V8.25H10.8333V7.5ZM10.8333 15L10.303 14.4697L10.0833 14.6893V15H10.8333ZM10.8333 17.5H10.0833V18.25H10.8333V17.5ZM13.3333 17.5V18.25H13.644L13.8637 18.0303L13.3333 17.5ZM17.5 13.3333L18.0303 13.8637C18.3232 13.5708 18.3232 13.0959 18.0303 12.803L17.5 13.3333ZM15 10.8333L15.5303 10.303C15.2374 10.0101 14.7626 10.0101 14.4697 10.303L15 10.8333ZM1.75 2.5V17.5H3.25V2.5H1.75ZM2.5 18.25H8.33333V16.75H2.5V18.25ZM2.5 3.25H10.8333V1.75H2.5V3.25ZM10.303 3.03033L15.303 8.03033L16.3637 6.96967L11.3637 1.96967L10.303 3.03033ZM15.8333 6.75H10.8333V8.25H15.8333V6.75ZM11.5833 7.5V2.5H10.0833V7.5H11.5833ZM10.0833 15V17.5H11.5833V15H10.0833ZM10.8333 18.25H13.3333V16.75H10.8333V18.25ZM13.8637 18.0303L18.0303 13.8637L16.9697 12.803L12.803 16.9697L13.8637 18.0303ZM18.0303 12.803L15.5303 10.303L14.4697 11.3637L16.9697 13.8637L18.0303 12.803ZM14.4697 10.303L10.303 14.4697L11.3637 15.5303L15.5303 11.3637L14.4697 10.303Z" fill="#222222"/>
</svg>
