<svg width="32px" height="32px" viewBox="0 0 32 32" xmlns="http://www.w3.org/2000/svg"
>
    <defs>
        <linearGradient x1="95.6918353%" y1="4.30816474%" x2="0%" y2="100%" id="storage-lg">
            <stop stop-color="#53A0FD" offset="0%"></stop>
            <stop stop-color="#B4EC51" offset="100%"></stop>
        </linearGradient>
    </defs>
    <g id="storage-g" stroke="none" stroke-width="1" fill="none" fill-rule="evenodd">
        <path d="M29.6955,7.99346154 L16.8621667,1.07038462 C16.6953333,0.980384615 16.4935,0.976923077 16.322,1.06115385 L2.322,7.98423077 C2.12483333,8.08230769 2,8.28192308 2,8.5 L2,23.5 C2,23.7111538 2.11666667,23.9061538 2.3045,24.0065385 L15.1378333,30.9296154 C15.1448333,30.9330769 15.153,30.9319231 15.1611667,30.9353846 C15.2381667,30.9734615 15.3233333,31 15.4166667,31 C15.5053333,31 15.587,30.9769231 15.6616667,30.9434615 C15.6663333,30.9411538 15.6721667,30.9423077 15.678,30.94 L29.678,24.0169231 C29.8751667,23.9176923 30,23.7180769 30,23.5 L30,8.5 C30,8.28884615 29.8833333,8.09384615 29.6955,7.99346154 Z M15.4283333,14.7723077 L10.26,11.9834615 L22.9883333,5.68923077 L28.1566667,8.47807692 L15.4283333,14.7723077 Z M16.5716667,2.22769231 L21.74,5.01653846 L9.01166667,11.3107692 L3.84333333,8.52307692 L16.5716667,2.22769231 Z M3.16666667,9.47153846 L14.8333333,15.7657692 L14.8333333,29.4515385 L3.16666667,23.1573077 L3.16666667,9.47153846 Z M16,29.4896154 L16,15.7796154 L28.8333333,9.43346154 L28.8333333,23.1434615 L16,29.4896154 Z M11.0288333,17.0142308 C11.3111667,17.1676923 11.4161667,17.5173077 11.2598333,17.7965385 C11.156,17.9892308 10.9553333,18.0976923 10.7488333,18.0976923 C10.6543333,18.0976923 10.5586667,18.0757692 10.47,18.0273077 L6.97,16.1384615 C6.68766667,15.9861538 6.58266667,15.6353846 6.73783333,15.3561538 C6.89066667,15.0769231 7.2465,14.9730769 7.52883333,15.1253846 L11.0288333,17.0142308 Z"
              id="storage-path" fill="url(#storage-lg)" fill-rule="nonzero"></path>
    </g>
</svg>