<svg width="20" height="20" viewBox="0 0 20 20" fill="none" xmlns="http://www.w3.org/2000/svg">
<path fill-rule="evenodd" clip-rule="evenodd" d="M9.99998 15C10.9205 15 11.6666 15.7462 11.6666 16.6667C11.6666 17.5872 10.9205 18.3333 9.99998 18.3333C9.0795 18.3333 8.33331 17.5872 8.33331 16.6667C8.33331 15.7462 9.0795 15 9.99998 15ZM11.6666 10C11.6666 9.07954 10.9205 8.33334 9.99998 8.33334C9.0795 8.33334 8.33331 9.07954 8.33331 10C8.33331 10.9205 9.0795 11.6667 9.99998 11.6667C10.9205 11.6667 11.6666 10.9205 11.6666 10ZM11.6666 3.33334C11.6666 2.41287 10.9205 1.66668 9.99998 1.66668C9.0795 1.66668 8.33331 2.41287 8.33331 3.33334C8.33331 4.25382 9.0795 5.00001 9.99998 5.00001C10.9205 5.00001 11.6666 4.25382 11.6666 3.33334Z" fill="#222222"/>
</svg>
