<?xml version="1.0" encoding="utf-8"?>
<!-- Generator: Adobe Illustrator 21.0.0, SVG Export Plug-In . SVG Version: 6.00 Build 0)  -->
<!DOCTYPE svg PUBLIC "-//W3C//DTD SVG 1.1//EN" "http://www.w3.org/Graphics/SVG/1.1/DTD/svg11.dtd">
<svg version="1.1" id="Icons" xmlns="http://www.w3.org/2000/svg" xmlns:xlink="http://www.w3.org/1999/xlink" x="0px" y="0px"
	 viewBox="0 0 288 288" style="enable-background:new 0 0 288 288;" xml:space="preserve">
<style type="text/css">
	.st0{fill:#F80000;}
</style>
<g transform="translate(-140, -140) scale(2, 2)">
	<path class="st0" d="M164.6,152.2v-6.5h-9.8v6.5c0,1.4-1.2,2.6-2.6,2.6h-6.5v19.6h18.8v-6.5c0-1.4,1.2-2.6,2.6-2.6h6.5v-10.5h-6.5
		C165.8,154.8,164.6,153.7,164.6,152.2z"/>
	<path class="st0" d="M194.6,81.8H93.4c-3.5,0-6.3,2.8-6.3,6.3v111.8c0,3.5,2.8,6.3,6.3,6.3h101.1c3.5,0,6.3-2.8,6.3-6.3V88.1
		C200.9,84.7,198,81.8,194.6,81.8z M186.2,152.2c0,1.4-1.2,2.6-2.6,2.6h-6.5v10.5h6.5c1.4,0,2.6,1.2,2.6,2.6v16.5
		c0,1.4-1.2,2.6-2.6,2.6h-16.5c-1.4,0-2.6-1.2-2.6-2.6v-6.5h-22.3v-23.1h-6.5c-1.4,0-2.6-1.2-2.6-2.6v-6.5h-9.8v6.5
		c0,1.4-1.2,2.6-2.6,2.6h-6.5v10.5h6.5c1.4,0,2.6,1.2,2.6,2.6v16.5c0,1.4-1.2,2.6-2.6,2.6h-16.5c-1.4,0-2.6-1.2-2.6-2.6v-16.5
		c0-1.4,1.2-2.6,2.6-2.6h6.5v-10.5h-6.5c-1.4,0-2.6-1.2-2.6-2.6v-16.5c0-1.4,1.2-2.6,2.6-2.6h16.5c1.4,0,2.6,1.2,2.6,2.6v6.5h9.8
		v-6.5c0-1.4,1.2-2.6,2.6-2.6h6.5v-10.5h-6.5c-1.4,0-2.6-1.2-2.6-2.6v-16.5c0-1.4,1.2-2.6,2.6-2.6h16.5c1.4,0,2.6,1.2,2.6,2.6v16.5
		c0,1.4-1.2,2.6-2.6,2.6h-6.5v10.5h6.5c1.4,0,2.6,1.2,2.6,2.6v6.5h9.8v-6.5c0-1.4,1.2-2.6,2.6-2.6h16.5c1.4,0,2.6,1.2,2.6,2.6V152.2
		z"/>
</g>
</svg>
