<?xml version="1.0" encoding="utf-8"?>
<!-- Generator: Adobe Illustrator 24.1.0, SVG Export Plug-In . SVG Version: 6.00 Build 0)  -->
<svg version="1.1" id="Database_Service" xmlns="http://www.w3.org/2000/svg" xmlns:xlink="http://www.w3.org/1999/xlink" x="0px"
	 y="0px" viewBox="0 0 161.9 162" enable-background="new 0 0 161.9 162" xml:space="preserve">
	<g>
<path fill="#ff6600" d="M151.6,99.9V62.1h-37.8v14.2h-13.8V62.1H85.5V47.6H100V9.8H62.2v37.8h14.2v14.6H62.3v14.2H47.2V62.1H9.4
	v37.8h14.5v14.7H9.6v37.8h37.8v-37.8H32.9V99.9h14.3V85.3h15.1v14.6h14.2V136h37.3v16.4h37.8v-37.8h-14.4V99.9H151.6z M71.2,18.8H91
	v19.8H71.2V18.8z M38.4,143.4H18.6v-19.8h19.8V143.4z M38.2,90.9H18.4V71.1h19.8V90.9z M122.8,71.1h19.8v19.8h-19.8V71.1z
	 M71.3,71.1h19.8v19.8H71.3V71.1z M142.6,143.4h-19.8v-19.8h19.8V143.4z M128.2,114.6h-14.4V127H85.5V99.9h14.6V85.3h13.8v14.6h14.4
	V114.6z"/>
	</g>
</svg>
