<?xml version="1.0" encoding="utf-8"?>
<!DOCTYPE svg PUBLIC "-//W3C//DTD SVG 1.1//EN" "http://www.w3.org/Graphics/SVG/1.1/DTD/svg11.dtd">
<svg version="1.1" id="Icons" xmlns="http://www.w3.org/2000/svg" x="0px" y="0px" viewBox="0 0 288 288">
   <style type="text/css">
	.icon-colour-01{fill:#F80000;}
</style>
   <g transform="translate(-140, -140) scale(2, 2)">
      <path     class="icon-colour-01" d="M194.6,81.8 H93.4 c-3.5,0.0,-6.3,2.8,-6.3,6.3 v111.8 c0.0,3.5,2.8,6.3,6.3,6.3 h101.1 c3.5,0.0,6.3,-2.8,6.3,-6.3 V88.1 C200.9,84.7,198.0,81.8,194.6,81.8 z M105.1,114.4 v-0.8 V107.0 c0.0,-1.5,1.2,-2.7,2.7,-2.7 H139.0 c1.5,0.0,2.7,1.2,2.7,2.7 v6.6 v0.8 v10.7 c0.0,1.5,-1.2,2.7,-2.7,2.7 h-31.2 c-1.5,0.0,-2.7,-1.2,-2.7,-2.7 V114.4 z M105.1,142.4 v-0.8 V135.0 c0.0,-1.5,1.2,-2.7,2.7,-2.7 H139.0 c1.5,0.0,2.7,1.2,2.7,2.7 v6.6 v0.8 v10.7 c0.0,1.5,-1.2,2.7,-2.7,2.7 h-31.2 c-1.5,0.0,-2.7,-1.2,-2.7,-2.7 V142.4 z M182.9,180.1 c0.0,1.9,-1.6,3.5,-3.5,3.5 h-70.7 c-1.9,0.0,-3.5,-1.6,-3.5,-3.5 v-19.6 h77.8 V180.1 z M182.9,141.6 v0.8 v10.7 c0.0,1.5,-1.2,2.7,-2.7,2.7 H149.0 c-1.5,0.0,-2.7,-1.2,-2.7,-2.7 v-10.7 v-0.8 V135.0 c0.0,-1.5,1.2,-2.7,2.7,-2.7 h31.2 c1.5,0.0,2.7,1.2,2.7,2.7 V141.6 z M182.9,113.6 v0.8 v10.7 c0.0,1.5,-1.2,2.7,-2.7,2.7 H149.0 c-1.5,0.0,-2.7,-1.2,-2.7,-2.7 v-10.7 v-0.8 V107.0 c0.0,-1.5,1.2,-2.7,2.7,-2.7 h31.2 c1.5,0.0,2.7,1.2,2.7,2.7 V113.6 z"/>
      <circle   class="icon-colour-01" cx="173.0" cy="171.8" r="3.8"/>
      <rect     class="icon-colour-01" x="110.6" y="109.5" width="3.5" height="12.8"/>
      <rect     class="icon-colour-01" x="118.0" y="109.5" width="3.5" height="12.8"/>
      <rect     class="icon-colour-01" x="125.3" y="109.5" width="3.5" height="12.8"/>
      <rect     class="icon-colour-01" x="132.6" y="109.5" width="3.5" height="12.8"/>
      <rect     class="icon-colour-01" x="151.9" y="109.5" width="3.5" height="12.8"/>
      <rect     class="icon-colour-01" x="159.2" y="109.5" width="3.5" height="12.8"/>
      <rect     class="icon-colour-01" x="166.5" y="109.5" width="3.5" height="12.8"/>
      <rect     class="icon-colour-01" x="173.9" y="109.5" width="3.5" height="12.8"/>
      <rect     class="icon-colour-01" x="110.6" y="137.4" width="3.5" height="12.8"/>
      <rect     class="icon-colour-01" x="118.0" y="137.4" width="3.5" height="12.8"/>
      <rect     class="icon-colour-01" x="125.3" y="137.4" width="3.5" height="12.8"/>
      <rect     class="icon-colour-01" x="132.6" y="137.4" width="3.5" height="12.8"/>
      <rect     class="icon-colour-01" x="151.9" y="137.4" width="3.5" height="12.8"/>
      <rect     class="icon-colour-01" x="159.2" y="137.4" width="3.5" height="12.8"/>
      <rect     class="icon-colour-01" x="166.5" y="137.4" width="3.5" height="12.8"/>
      <rect     class="icon-colour-01" x="173.9" y="137.4" width="3.5" height="12.8"/>
   </g>
</svg>
