<?xml version="1.0" encoding="utf-8"?>
<!-- Generator: Adobe Illustrator 24.1.0, SVG Export Plug-In . SVG Version: 6.00 Build 0)  -->
<svg version="1.1" id="Instance_Pools" xmlns="http://www.w3.org/2000/svg" xmlns:xlink="http://www.w3.org/1999/xlink" x="0px"
	 y="0px" viewBox="0 0 161.9 162" enable-background="new 0 0 161.9 162" xml:space="preserve">
<g>
<path fill="#312D2A" d="M81.3,124.2c-43.2,0-53.7-11.8-54.8-13.1l-0.9-1.1V93.3h8v13.5c3.1,2.4,15.1,9.4,47.6,9.4
	c27.9,0,42.6-7.1,47.1-9.8V93.7h8v16.8l-1.5,1.2C134.2,112.2,118.5,124.2,81.3,124.2z M123.5,65.7v28.7H84.4h-6.6H38.7V65.7h20.8V44
	h45.7v21.7H123.5z M66.4,65.7h11.4h6.6h13.8V51H66.4V65.7z M77.4,72.7H59.4H45.7v14.7h31.7V72.7z M116.5,72.7h-11.4H84.8v14.7h31.7
	V72.7z M109,83.9c2.1,0,3.7-1.7,3.7-3.7c0-2.1-1.7-3.7-3.7-3.7c-2.1,0-3.7,1.7-3.7,3.7C105.3,82.2,106.9,83.9,109,83.9z M69.8,83.9
	c2.1,0,3.7-1.7,3.7-3.7c0-2.1-1.7-3.7-3.7-3.7s-3.7,1.7-3.7,3.7C66.1,82.2,67.8,83.9,69.8,83.9z M90.6,62.1c2.1,0,3.7-1.7,3.7-3.7
	s-1.7-3.7-3.7-3.7c-2.1,0-3.7,1.7-3.7,3.7S88.6,62.1,90.6,62.1z M152.8,9.2H9v143.6h143.8V9.2z M18,18.2h125.8v125.6H18V18.2z"/>
</g>
</svg>
