<?xml version="1.0" encoding="utf-8"?>
<!-- Generator: Adobe Illustrator 24.0.2, SVG Export Plug-In . SVG Version: 6.00 Build 0)  -->
<svg version="1.1" id="Layer_1" xmlns="http://www.w3.org/2000/svg" xmlns:xlink="http://www.w3.org/1999/xlink" x="0px" y="0px"
	 viewBox="0 0 38.4 42" style="enable-background:new 0 0 38.4 42;" xml:space="preserve">
<g>
	<path style="fill:#FFFFFF;" d="M19.3,41.5c-1.2,0-2.4-0.5-3.2-1.3c-1-1-1.4-2.3-1.3-3.7l-6.7-3.8c-0.8,0.7-1.9,1.2-3,1.2
		c-1.2,0-2.4-0.5-3.2-1.3c-0.9-0.9-1.3-2-1.3-3.2c0-1.2,0.5-2.4,1.3-3.2c0.5-0.5,1.1-0.8,1.7-1.1v-7.7c-0.6-0.2-1.2-0.6-1.7-1.1
		c-0.9-0.9-1.3-2-1.3-3.2S1,10.7,1.8,9.8C2.7,9,3.8,8.5,5,8.5c1.1,0,2.1,0.4,2.9,1l6.8-3.9c-0.2-1.4,0.3-2.7,1.3-3.7
		c0.9-0.9,2-1.3,3.2-1.3s2.4,0.5,3.2,1.3c1,1,1.5,2.5,1.3,3.9l6.6,3.8c0.8-0.7,1.9-1.1,2.9-1.1c1.2,0,2.4,0.5,3.2,1.3
		c0.9,0.9,1.3,2,1.3,3.2c0,1.2-0.5,2.4-1.3,3.2c-0.4,0.4-1.1,0.9-1.9,1.2V25c0.8,0.2,1.4,0.6,1.9,1c0.9,0.9,1.3,2,1.3,3.2
		c0,1.2-0.5,2.4-1.3,3.2c-0.9,0.9-2,1.3-3.2,1.3c-1.2,0-2.3-0.4-3.1-1.2l-6.5,3.7c0.2,1.4-0.3,2.8-1.3,3.8
		C21.6,41,20.5,41.5,19.3,41.5z"/>
	<path style="fill:#FFFFFF;" d="M19.3,1c1,0,2.1,0.4,2.9,1.2c1,1,1.4,2.4,1.1,3.8l7.3,4.2c0,0,0,0,0,0C31.3,9.4,32.3,9,33.3,9
		s2.1,0.4,2.9,1.2c0.8,0.8,1.2,1.8,1.2,2.9s-0.4,2.1-1.2,2.9c-0.6,0.6-1.3,1-2,1.2v8.4c0.8,0.2,1.4,0.4,2,1c0.8,0.8,1.2,1.8,1.2,2.9
		c0,1.1-0.4,2.1-1.2,2.9c-0.8,0.8-1.8,1.2-2.9,1.2c0,0,0,0,0,0c-1,0-2.1-0.4-2.9-1.2c-0.1-0.1-0.1-0.1-0.1-0.2l-7.1,4.1
		c0.3,1.3-0.1,2.8-1.1,3.7c-0.8,0.8-1.8,1.2-2.9,1.2s-2.1-0.4-2.9-1.2c-0.9-0.9-1.4-2.3-1.1-3.6L8,32c0,0-0.1,0.1-0.1,0.1
		c-0.8,0.8-1.8,1.2-2.9,1.2c0,0,0,0,0,0c-1,0-2.1-0.4-2.9-1.2C1.4,31.4,1,30.3,1,29.3c0-1.1,0.4-2.1,1.2-2.9c0.5-0.5,1.1-0.9,1.8-1
		v-8.4c-0.7-0.2-1.3-0.5-1.8-1C1.4,15.1,1,14.1,1,13s0.4-2.1,1.2-2.9C3,9.4,4,9,5,9c1,0,2,0.4,2.8,1.1l7.4-4.3
		c-0.3-1.3,0.1-2.7,1.1-3.6C17.2,1.4,18.2,1,19.3,1 M19.3,0c-1.3,0-2.6,0.5-3.6,1.5c-1,1-1.5,2.4-1.5,3.8L7.9,8.9C7.1,8.3,6.1,8,5,8
		C3.7,8,2.4,8.5,1.5,9.5c-1,1-1.5,2.2-1.5,3.6c0,1.3,0.5,2.6,1.5,3.6c0.4,0.4,1,0.8,1.5,1v7c-0.6,0.3-1.1,0.6-1.5,1
		c-1,1-1.5,2.2-1.5,3.6c0,1.3,0.5,2.6,1.5,3.6c1,1,2.2,1.5,3.6,1.5c1.1,0,2.2-0.4,3.1-1l6.1,3.5c0,1.4,0.5,2.7,1.5,3.7
		c1,1,2.2,1.5,3.6,1.5c1.3,0,2.6-0.5,3.6-1.5c1-1,1.6-2.5,1.5-3.9l5.9-3.4c0.9,0.7,2,1.1,3.2,1.1c1.3,0,2.6-0.5,3.6-1.5
		c1-1,1.5-2.2,1.5-3.6c0-1.3-0.5-2.6-1.5-3.6c-0.5-0.5-1-0.8-1.7-1.1v-6.9c0.6-0.3,1.2-0.7,1.7-1.2c1-1,1.5-2.2,1.5-3.6
		c0-1.3-0.5-2.6-1.5-3.6c-1-1-2.2-1.5-3.6-1.5c-1.1,0-2.1,0.3-3,1l-6.1-3.5c0.1-1.5-0.4-2.9-1.5-4C21.9,0.5,20.6,0,19.3,0L19.3,0z"
		/>
</g>
<path style="fill:#2C5967;" d="M34.2,25.4v-8.4c0.8-0.2,1.5-0.6,2-1.2c0.8-0.8,1.2-1.8,1.2-2.9s-0.4-2.1-1.2-2.9
	c-1.6-1.6-4.1-1.6-5.7,0c0,0,0,0,0,0L23.2,6c0.3-1.3-0.1-2.8-1.1-3.8c-1.6-1.6-4.1-1.6-5.7,0c-1,1-1.4,2.3-1.1,3.6l-7.4,4.3
	c-1.6-1.5-4.1-1.5-5.7,0.1C1.4,10.9,1,11.9,1,13s0.4,2.1,1.2,2.9c0.5,0.5,1.1,0.9,1.8,1v8.4c-0.7,0.2-1.3,0.5-1.8,1
	C1.4,27.2,1,28.2,1,29.3c0,1.1,0.4,2.1,1.2,2.9C3,32.9,4,33.3,5,33.3c1,0,2.1-0.4,2.9-1.2c0,0,0.1-0.1,0.1-0.1l7.3,4.2
	c-0.2,1.3,0.2,2.6,1.1,3.6c0.8,0.8,1.8,1.2,2.9,1.2c1,0,2.1-0.4,2.9-1.2c1-1,1.4-2.4,1.1-3.7l7.1-4.1c0,0.1,0.1,0.1,0.1,0.2
	c0.8,0.8,1.8,1.2,2.9,1.2c1,0,2.1-0.4,2.9-1.2c0.8-0.8,1.2-1.8,1.2-2.9c0-1.1-0.4-2.1-1.2-2.9C35.6,25.8,34.9,25.6,34.2,25.4
	 M22.4,34.4c-0.1-0.1-0.2-0.2-0.3-0.3c-0.5-0.5-1.2-0.9-1.9-1v-7c1.3-0.1,2.5-0.6,3.6-1.3l5.6,3.2c-0.2,0.7-0.3,1.5,0,2.3L22.4,34.4
	z M16.4,34.1c-0.1,0.1-0.3,0.3-0.4,0.4l-7.1-4.1c0.2-0.8,0.2-1.6,0-2.4l5.6-3.3c1.2,0.7,2.5,1.2,3.9,1.3V33
	C17.7,33.2,17,33.5,16.4,34.1 M5.9,17c0.8-0.2,1.5-0.5,2-1.1C8,15.8,8,15.8,8.1,15.7l4.9,2.8c-0.6,0.6-1.1,1.3-1.5,2.1L11.2,21
	l0.2,0.4c0.4,0.8,0.9,1.5,1.5,2.1c0,0,0,0,0,0l-5,2.9c0,0,0,0,0,0c-0.6-0.6-1.3-0.9-2-1.1V17z M16.1,7.5c0.1,0.1,0.2,0.3,0.3,0.4
	c0.6,0.6,1.3,0.9,2,1.1v6.9c-1.4,0.1-2.7,0.6-3.9,1.3L9,14c0.2-0.8,0.2-1.6-0.1-2.4L16.1,7.5z M22.1,7.9c0.1-0.1,0.2-0.2,0.2-0.3
	l7.1,4.1c-0.3,0.8-0.3,1.6-0.1,2.3L24,17.2c-1.1-0.7-2.4-1.2-3.7-1.3v-7C20.9,8.8,21.6,8.4,22.1,7.9 M24.3,22.2
	c-2.8,2.8-7.2,2.8-10,0c-0.4-0.4-0.7-0.8-1-1.2c0.3-0.4,0.6-0.8,1-1.2c2.8-2.8,7.2-2.8,10,0c0.4,0.4,0.7,0.8,1,1.2
	C24.9,21.4,24.6,21.8,24.3,22.2 M30.5,26.4C30.5,26.4,30.4,26.4,30.5,26.4l-5-2.8c0,0,0.1,0,0.1-0.1c0.6-0.6,1.1-1.3,1.5-2.1
	l0.2-0.4l-0.2-0.4c-0.4-0.8-0.9-1.5-1.5-2.1c0,0,0,0,0,0l4.8-2.8c0.1,0.1,0.1,0.1,0.2,0.2c0.5,0.5,1.2,0.9,1.9,1.1v8.4
	C31.6,25.5,31,25.9,30.5,26.4 M31.8,11.5c0.9-0.9,2.2-0.9,3.1,0c0.4,0.4,0.6,1,0.6,1.5c0,0.6-0.2,1.1-0.6,1.5
	c-0.4,0.4-1,0.7-1.6,0.6c-0.6,0-1.1-0.2-1.5-0.6c-0.7-0.7-0.9-1.8-0.3-2.7l0,0C31.6,11.7,31.7,11.6,31.8,11.5 M17.7,3.5
	c0.9-0.9,2.2-0.9,3.1,0c0.7,0.7,0.8,1.7,0.4,2.5v0c-0.1,0.2-0.3,0.4-0.4,0.6c-0.9,0.9-2.2,0.9-3.1,0c-0.2-0.2-0.4-0.4-0.5-0.7h0
	C16.9,5.1,17.1,4.1,17.7,3.5 M2.9,13c0-0.6,0.2-1.1,0.6-1.5c0.9-0.9,2.2-0.9,3.1,0c0.1,0.1,0.2,0.2,0.3,0.3h0c0.6,0.9,0.5,2-0.3,2.8
	c-0.4,0.4-1,0.7-1.6,0.6c-0.6,0-1.1-0.2-1.5-0.6C3.1,14.2,2.9,13.6,2.9,13 M3.5,30.8c-0.4-0.4-0.6-1-0.6-1.5c0-0.6,0.2-1.1,0.6-1.5
	c0.4-0.4,0.9-0.6,1.5-0.6c0.6,0,1.2,0.2,1.6,0.6c0.7,0.7,0.8,1.8,0.3,2.6h0c-0.1,0.2-0.2,0.3-0.3,0.5C5.7,31.7,4.4,31.7,3.5,30.8
	 M20.8,38.5c-0.9,0.9-2.2,0.9-3.1,0c-0.6-0.6-0.8-1.5-0.5-2.4c0.1-0.3,0.3-0.5,0.5-0.7c0.9-0.9,2.2-0.9,3.1,0
	c0.2,0.2,0.3,0.4,0.4,0.6l0,0C21.6,36.9,21.5,37.9,20.8,38.5 M34.9,30.8c-0.9,0.9-2.2,0.9-3.1,0c-0.1-0.2-0.3-0.3-0.4-0.5l0,0
	c-0.5-0.8-0.3-1.9,0.4-2.6c0.4-0.4,0.9-0.6,1.5-0.6c0.6,0,1.2,0.2,1.6,0.6c0.4,0.4,0.6,1,0.6,1.5C35.5,29.9,35.3,30.4,34.9,30.8
	 M21.7,21c0,1.3-1,2.3-2.3,2.3c-1.3,0-2.3-1-2.3-2.3c0-1.3,1-2.3,2.3-2.3C20.6,18.7,21.7,19.7,21.7,21"/>
</svg>
