<?xml version="1.0" encoding="utf-8"?>
<!-- Generator: Adobe Illustrator 24.0.2, SVG Export Plug-In . SVG Version: 6.00 Build 0)  -->
<svg version="1.1" id="Layer_1" xmlns="http://www.w3.org/2000/svg" xmlns:xlink="http://www.w3.org/1999/xlink" x="0px" y="0px"
	 viewBox="0 0 40.8 42" style="enable-background:new 0 0 40.8 42;" xml:space="preserve">
<style type="text/css">
	.st0{fill:#FFFFFF;}
	.st1{fill:#2C5967;}
</style>
<g>
	<g>
		<g>
			<path class="st0" d="M0.5,41.5V17.11h19.49V8.78l3.69-1.58c0-0.1-0.01-0.21-0.01-0.31c0-0.21,0.01-0.42,0.03-0.63
				c0.32-3.29,3.05-5.76,6.36-5.76c3.26,0,5.99,2.44,6.35,5.68c0.03,0.23,0.04,0.47,0.04,0.71c0,0.08,0,0.16,0,0.24l3.86,1.65
				l0,9.36c-0.19,3.38-1.8,6.52-4.65,9.15l4.27,4.27l-1.76,1.76l-1.02-1.02v9.2H0.5z"/>
			<path class="st0" d="M30.06,1c3.02,0,5.52,2.29,5.85,5.23c0.02,0.22,0.04,0.43,0.04,0.66c0,0.19-0.01,0.37-0.03,0.56l3.88,1.66
				l0,9.03c-0.19,3.39-1.92,6.56-4.88,9.13l4.29,4.29l-1.05,1.05l-1.52-1.52V41H1V17.61h19.49v-8.5l3.71-1.59
				c-0.02-0.21-0.03-0.42-0.03-0.63c0-0.19,0.01-0.39,0.03-0.58C24.49,3.33,27.01,1,30.06,1 M30.06,0c-3.56,0-6.51,2.67-6.86,6.21
				c-0.02,0.22-0.03,0.44-0.03,0.66L20.1,8.19l-0.61,0.26v0.66v7.5H1H0v1V41v1h1h35.65h1v-1v-7.49l0.52,0.52l0.71-0.71l1.05-1.05
				l0.71-0.71l-0.71-0.71l-3.55-3.55c2.72-2.64,4.24-5.77,4.43-9.1l0-0.03v-0.03l0-9.03l0-0.66L40.2,8.19L36.95,6.8
				c0-0.22-0.02-0.45-0.04-0.68C36.52,2.63,33.57,0,30.06,0L30.06,0z"/>
		</g>
		<g>
			<polygon class="st1" points="35.16,39.51 33.68,39.51 33.68,41 36.65,41 36.65,38.03 35.16,38.03 			"/>
			<polygon class="st1" points="2.49,38.03 1,38.03 1,41 3.97,41 3.97,39.51 2.49,39.51 			"/>
			<polygon class="st1" points="1,20.58 2.49,20.58 2.49,19.09 3.97,19.09 3.97,17.61 1,17.61 			"/>
			<rect x="21.42" y="39.51" class="st1" width="2.97" height="1.49"/>
			<rect x="25.51" y="39.51" class="st1" width="2.97" height="1.49"/>
			<rect x="29.59" y="39.51" class="st1" width="2.97" height="1.49"/>
			<rect x="17.34" y="39.51" class="st1" width="2.97" height="1.49"/>
			<rect x="13.25" y="39.51" class="st1" width="2.97" height="1.49"/>
			<rect x="9.17" y="39.51" class="st1" width="2.97" height="1.49"/>
			<rect x="5.08" y="39.51" class="st1" width="2.97" height="1.49"/>
			<rect x="1" y="29.86" class="st1" width="1.49" height="2.97"/>
			<rect x="1" y="33.95" class="st1" width="1.49" height="2.97"/>
			<rect x="35.16" y="33.95" class="st1" width="1.49" height="2.97"/>
			<rect x="1" y="25.78" class="st1" width="1.49" height="2.97"/>
			<rect x="1" y="21.69" class="st1" width="1.49" height="2.97"/>
			<rect x="13.25" y="17.61" class="st1" width="2.97" height="1.49"/>
			<path class="st1" d="M19.38,18.15V18.1v-0.01v-0.48h-2.04v1.49h2.13c-0.04-0.3-0.07-0.59-0.09-0.89L19.38,18.15z"/>
			<rect x="9.17" y="17.61" class="st1" width="2.97" height="1.49"/>
			<rect x="5.08" y="17.61" class="st1" width="2.97" height="1.49"/>
			<polygon class="st1" points="32.59,31.56 33.64,32.61 35.16,31.1 35.16,32.83 36.65,32.83 36.65,31.1 38.16,32.61 39.21,31.56 
				35.9,28.25 			"/>
			<path class="st1" d="M29.8,13.53c-0.84,0.09-1.53,0.76-1.65,1.59c-0.13,0.87,0.35,1.64,1.06,1.98l0.26,0.15l-0.5,3.7h2.06
				l-0.5-3.72l0.09-0.05c0.74-0.26,1.27-0.95,1.27-1.77C31.9,14.29,30.94,13.41,29.8,13.53z"/>
			<path class="st1" d="M24.21,7.52l-3.71,1.59v8.99l0,0.04c0.28,4.84,3.67,9.24,9.32,12.07l0.33,0.17l0.33-0.17
				c5.65-2.83,9.05-7.23,9.32-12.07l0-9.03l-3.88-1.66c0.02-0.19,0.03-0.37,0.03-0.56c0-0.22-0.01-0.44-0.04-0.66
				C35.58,3.29,33.08,1,30.06,1c-3.05,0-5.57,2.33-5.86,5.31c-0.02,0.19-0.03,0.38-0.03,0.58C24.17,7.1,24.18,7.31,24.21,7.52z
				 M38.32,18.08c-0.25,4.19-3.22,8.05-8.17,10.63c-4.95-2.58-7.92-6.44-8.17-10.63v-7.99l8.17-3.5l8.17,3.5V18.08z M30.06,2.49
				c1.95,0,3.61,1.27,4.18,3.03c0.14,0.41,0.21,0.85,0.22,1.31l-4.31-1.85L25.66,6.9c0,0,0-0.01,0-0.01c0-0.45,0.07-0.88,0.19-1.28
				C26.4,3.8,28.08,2.49,30.06,2.49z"/>
		</g>
	</g>
</g>
</svg>
