<?xml version="1.0" encoding="utf-8"?>
<!-- Generator: Adobe Illustrator 24.0.2, SVG Export Plug-In . SVG Version: 6.00 Build 0)  -->
<svg version="1.1" id="Layer_1" xmlns="http://www.w3.org/2000/svg" xmlns:xlink="http://www.w3.org/1999/xlink" x="0px" y="0px"
	 viewBox="0 0 42 42" style="enable-background:new 0 0 42 42;" xml:space="preserve">
<style type="text/css">
	.st0{fill:#FFFFFF;}
	.st1{fill:#2C5967;}
</style>
<g>
	<g>
		<g>
			<path class="st0" d="M2.67,41.5c-1.19,0-2.17-0.97-2.17-2.17V2.67c0-1.2,0.97-2.17,2.17-2.17h36.67c1.19,0,2.17,0.97,2.17,2.17
				v36.67c0,1.2-0.97,2.17-2.17,2.17H2.67z"/>
			<path class="st0" d="M39.33,1C40.25,1,41,1.75,41,2.67v36.67c0,0.92-0.75,1.67-1.67,1.67H2.67C1.75,41,1,40.25,1,39.33V2.67
				C1,1.75,1.75,1,2.67,1H39.33 M39.33,0H2.67C1.2,0,0,1.2,0,2.67v36.67C0,40.8,1.2,42,2.67,42h36.67C40.8,42,42,40.8,42,39.33V2.67
				C42,1.2,40.8,0,39.33,0L39.33,0z"/>
		</g>
		<g>
			<path class="st1" d="M39.33,1H2.67C1.75,1,1,1.75,1,2.67v36.67C1,40.25,1.75,41,2.67,41h5.93h4.07h6.39h4.07h6.39h4.07h5.74
				c0.92,0,1.67-0.75,1.67-1.67V2.67C41,1.75,40.25,1,39.33,1z M2.48,12.48h37.04v1.88l-8.31,6.38l-10.38-2.78l-10.31,8.1L2.48,22.4
				V12.48z M2.67,2.48h36.67c0.1,0,0.19,0.08,0.19,0.19V11H2.48V2.67C2.48,2.57,2.57,2.48,2.67,2.48z M10.07,39.52v-6.3h1.11v6.3
				H10.07z M20.54,39.52V25.07h1.11v14.44H20.54z M31,39.52V27.85h1.11v11.67H31z M39.33,39.52h-5.74V26.37h-4.07v13.15h-6.39V23.59
				h-4.07v15.93h-6.39v-7.78H8.59v7.78H2.67c-0.1,0-0.19-0.08-0.19-0.19v-15.3l8.25,3.76l10.43-8.2l10.37,2.78l7.99-6.13v23.1
				C39.52,39.43,39.43,39.52,39.33,39.52z"/>
			<path class="st1" d="M9.15,4.33H4.33v4.81h4.81V4.33z M7.67,7.67H5.81V5.81h1.85V7.67z"/>
		</g>
	</g>
</g>
</svg>
