<?xml version="1.0" encoding="utf-8"?>
<!-- Generator: Adobe Illustrator 24.0.2, SVG Export Plug-In . SVG Version: 6.00 Build 0)  -->
<svg version="1.1" id="Layer_1" xmlns="http://www.w3.org/2000/svg" xmlns:xlink="http://www.w3.org/1999/xlink" x="0px" y="0px"
	 viewBox="0 0 41.95 42" style="enable-background:new 0 0 41.95 42;" xml:space="preserve">
<style type="text/css">
	.st0{fill:#FFFFFF;}
	.st1{fill:#2C5967;}
</style>
<g>
	<g>
		<g>
			<g>
				<path class="st0" d="M0.5,41.5v-1.55l1.45-0.72v-4.6c0-1.36,1.1-2.46,2.46-2.46h13.12c1.36,0,2.46,1.1,2.46,2.46v4.6l1.24,0.75
					v1.52H0.5z"/>
				<path class="st0" d="M17.53,32.67c1.08,0,1.96,0.88,1.96,1.96v4.89h0.01l1.23,0.74V41H1v-0.74l1.45-0.72v-4.91
					c0-1.08,0.88-1.96,1.96-1.96H17.53 M17.53,31.67H4.41c-1.63,0-2.96,1.33-2.96,2.96v4.29l-0.9,0.45L0,39.64v0.62V41v1h1h19.73h1
					v-1v-0.74v-0.57l-0.49-0.29l-0.76-0.46v-4.32C20.49,32.99,19.16,31.67,17.53,31.67L17.53,31.67z"/>
			</g>
			<g>
				<path class="st0" d="M34.67,38.55l-10.81-10.8l-5.7-6.3l-2.25,2.25c0.4,0.82,0.25,1.82-0.41,2.48l-1.11,1.11
					c-0.41,0.41-0.95,0.63-1.53,0.63s-1.12-0.23-1.53-0.63l-8.87-8.87c-0.84-0.84-0.84-2.22,0-3.06l1.11-1.11
					c0.41-0.41,0.95-0.63,1.53-0.63c0.33,0,0.66,0.08,0.95,0.22l9.11-9.11c-0.4-0.82-0.25-1.82,0.41-2.48l1.11-1.11
					c0.41-0.41,0.95-0.63,1.53-0.63s1.12,0.23,1.53,0.63l8.87,8.87c0.84,0.84,0.84,2.22,0,3.06l-1.11,1.11
					c-0.41,0.41-0.95,0.63-1.53,0.63c-0.33,0-0.66-0.08-0.95-0.22l-2.23,2.23l6.45,5.55l10.77,10.77l1.36,1.79l-0.65,1.94
					l-2.41,2.41l-1.94,0.65L34.67,38.55z"/>
				<path class="st0" d="M18.21,1c0.43,0,0.85,0.16,1.18,0.49l8.87,8.87c0.65,0.65,0.65,1.71,0,2.36l0,0l-1.11,1.11
					c-0.32,0.32-0.75,0.49-1.18,0.49c-0.36,0-0.73-0.12-1.03-0.35l-2.89,2.89l6.86,5.9L39.65,33.5l1.16,1.53l-0.53,1.57l0,0l0,0
					l-2.24,2.24l0,0l-1.57,0.53l-1.49-1.2L24.22,27.39l-6.04-6.67l-2.9,2.9c0.51,0.65,0.47,1.6-0.13,2.2l0,0l-1.11,1.11
					c-0.32,0.32-0.75,0.49-1.18,0.49s-0.85-0.16-1.18-0.49l-8.87-8.87c-0.65-0.65-0.65-1.71,0-2.36l1.11-1.11
					c0.32-0.32,0.75-0.49,1.18-0.49c0.36,0,0.73,0.12,1.03,0.35l9.67-9.67c-0.51-0.65-0.47-1.6,0.13-2.2l1.11-1.11
					C17.35,1.16,17.78,1,18.21,1 M18.21,0c-0.71,0-1.38,0.28-1.89,0.78l-1.11,1.11c-0.73,0.73-0.95,1.79-0.65,2.72l-8.65,8.65
					c-0.27-0.09-0.55-0.13-0.83-0.13c-0.71,0-1.38,0.28-1.88,0.78L2.1,15c-1.04,1.04-1.04,2.73,0,3.77l8.87,8.87
					c0.5,0.5,1.17,0.78,1.89,0.78c0.71,0,1.38-0.28,1.89-0.78l1.11-1.11c0.73-0.73,0.95-1.79,0.65-2.72l1.65-1.65l5.33,5.89
					l10.8,10.81l0.04,0.04l0.04,0.03l1.49,1.2l0.43,0.34l0.52-0.17l1.57-0.53l0.22-0.07l0.17-0.17l2.24-2.24l0.17-0.17l0.07-0.22
					l0.53-1.57l0.17-0.5l-0.32-0.42l-1.16-1.53l-0.04-0.05l-0.05-0.05L29.62,22.04l-0.03-0.03l-0.03-0.02l-6.04-5.2l1.62-1.62
					c0.27,0.09,0.55,0.13,0.83,0.13c0.71,0,1.38-0.28,1.89-0.78l1.11-1.11c1.04-1.04,1.04-2.73,0-3.77L20.1,0.77
					C19.59,0.28,18.92,0,18.21,0L18.21,0z"/>
			</g>
		</g>
		<g>
			<polygon class="st1" points="19.49,39.52 19.67,39.52 19.23,39.52 2.48,39.52 2.51,39.52 1,40.26 1,41 20.71,41 20.71,40.26 			
				"/>
			<path class="st1" d="M19.49,34.63c0-1.08-0.88-1.96-1.96-1.96H4.41c-1.08,0-1.96,0.88-1.96,1.96v3.77l17.04,0.01
				C19.49,38.41,19.49,34.63,19.49,34.63z M18.01,36.93L3.93,36.92v-2.29c0-0.26,0.22-0.48,0.48-0.48h13.12
				c0.26,0,0.48,0.22,0.48,0.48C18.01,34.63,18.01,36.93,18.01,36.93z"/>
			<polygon class="st1" points="40.81,35.02 40.29,34.5 35.95,38.84 36.47,39.36 38.04,38.84 38.04,38.84 40.29,36.59 40.29,36.59 
				40.29,36.59 			"/>
			<path class="st1" d="M28.91,22.75l-6.86-5.9l2.89-2.89c0.3,0.24,0.66,0.35,1.03,0.35c0.43,0,0.85-0.16,1.18-0.49l1.11-1.11l0,0
				c0.65-0.65,0.65-1.71,0-2.36l-8.87-8.87c-0.65-0.65-1.71-0.65-2.36,0l-1.11,1.11c-0.6,0.6-0.64,1.55-0.13,2.2l-9.67,9.67
				c-0.65-0.51-1.6-0.47-2.2,0.13L2.81,15.7c-0.65,0.65-0.65,1.71,0,2.36l8.87,8.87c0.32,0.32,0.75,0.49,1.18,0.49
				s0.85-0.16,1.18-0.49l1.11-1.11l0,0c0.6-0.6,0.64-1.55,0.13-2.2l2.9-2.9l6.04,6.67l10.77,10.77l4.67-4.67L28.91,22.75z
				 M16.97,3.64l1.11-1.11c0.04-0.04,0.08-0.05,0.13-0.05s0.09,0.02,0.13,0.05l8.87,8.87c0.07,0.07,0.07,0.19,0,0.26l-1.11,1.11
				c-0.07,0.07-0.19,0.07-0.26,0L16.97,3.9C16.9,3.83,16.9,3.71,16.97,3.64z M14.09,24.78l-1.11,1.11c-0.07,0.07-0.19,0.07-0.26,0
				l-8.87-8.87c-0.07-0.07-0.07-0.19,0-0.26l1.11-1.11C5,15.61,5.04,15.6,5.09,15.6s0.09,0.02,0.13,0.05l8.87,8.87
				C14.17,24.59,14.17,24.71,14.09,24.78z M14.24,22.57l-7.06-7.06l9.65-9.65l7.06,7.06l-2.96,2.96l0,0l-3.75,3.75l0,0L14.24,22.57z
				 M25.3,26.39l-6.07-6.71l1.78-1.78l6.88,5.92l9.68,9.68l-2.58,2.58L25.3,26.39z"/>
		</g>
	</g>
</g>
</svg>
