<?xml version="1.0" encoding="utf-8"?>
<!-- Generator: Adobe Illustrator 24.0.2, SVG Export Plug-In . SVG Version: 6.00 Build 0)  -->
<svg version="1.1" id="Layer_1" xmlns="http://www.w3.org/2000/svg" xmlns:xlink="http://www.w3.org/1999/xlink" x="0px" y="0px"
	 viewBox="0 0 42.33 42" style="enable-background:new 0 0 42.33 42;" xml:space="preserve">
<style type="text/css">
	.st0{fill:#FFFFFF;}
	.st1{fill:#2C5967;}
</style>
<g>
	<g>
		<g>
			<path class="st0" d="M2.66,41.5c-1.11,0-2.03-0.83-2.15-1.93l0-37.09C0.63,1.33,1.55,0.5,2.66,0.5h30.19
				c1.19,0,2.17,0.97,2.17,2.17v2.32l1.68-1.68l4.93,4.93l-4.93,4.93l-1.68-1.68v6.49l1.68-1.68l4.93,4.93l-4.93,4.93l-1.68-1.68
				v6.42l1.68-1.68l4.93,4.93l-4.93,4.93l-1.68-1.68v1.92c0,1.2-0.97,2.17-2.17,2.17H2.66z M35.01,37.27l1.88-1.88h-1.88V37.27z
				 M36.86,32.91l-1.85-1.85v1.85H36.86z M35.01,24.34l1.91-1.91h-1.91V24.34z M36.83,19.94l-1.82-1.82v1.82H36.83z M35.01,11.34
				l1.88-1.88h-1.88V11.34z M36.86,6.98l-1.85-1.85v1.85H36.86z"/>
			<path class="st0" d="M32.84,1c0.92,0,1.67,0.75,1.67,1.67v4.81h3.56l-2.42-2.42l1.05-1.05l4.23,4.23l-4.23,4.23l-1.05-1.05
				l2.45-2.45h-3.59v11.48h3.53l-2.39-2.39L36.69,17l4.23,4.23l-4.23,4.23l-1.05-1.05l2.48-2.48h-3.62v11.48h3.56l-2.42-2.42
				l1.05-1.05l4.23,4.23l-4.23,4.23l-1.05-1.05l2.45-2.45h-3.59v4.44c0,0.92-0.75,1.67-1.67,1.67H2.66C1.8,41,1.09,40.35,1,39.52
				V2.48C1.09,1.65,1.8,1,2.66,1H32.84 M32.84,0H2.66C1.3,0,0.16,1.02,0.01,2.37L0,2.43v0.06v37.04v0.06l0.01,0.06
				C0.16,40.98,1.3,42,2.66,42h30.19c1.47,0,2.67-1.2,2.67-2.67v-0.71l0.47,0.47l0.71,0.71l0.71-0.71l4.23-4.23l0.71-0.71
				l-0.71-0.71l-4.23-4.23l-0.71-0.71l-0.71,0.71l-0.47,0.47v-4.01l0.47,0.47l0.71,0.71l0.71-0.71l4.23-4.23l0.71-0.71l-0.71-0.71
				L37.4,16.3l-0.71-0.71l-0.71,0.71l-0.47,0.47V12.7l0.47,0.47l0.71,0.71l0.71-0.71l4.23-4.23l0.71-0.71l-0.71-0.71L37.4,3.3
				L36.69,2.6L35.98,3.3l-0.47,0.47V2.67C35.51,1.2,34.31,0,32.84,0L32.84,0z M35.51,6.48V6.34l0.14,0.14H35.51L35.51,6.48z
				 M35.51,9.96h0.17l-0.17,0.17V9.96L35.51,9.96z M35.51,19.44v-0.11l0.11,0.11H35.51L35.51,19.44z M35.51,22.93h0.2l-0.2,0.2
				V22.93L35.51,22.93z M35.51,32.41v-0.14l0.14,0.14H35.51L35.51,32.41z M35.51,35.89h0.17l-0.17,0.17V35.89L35.51,35.89z"/>
		</g>
		<g>
			<path class="st1" d="M32.84,1H2.66C1.8,1,1.09,1.65,1,2.48h2.03v0h29.81c0.1,0,0.19,0.08,0.19,0.19v36.67
				c0,0.1-0.08,0.19-0.19,0.19H3.03v0H1C1.09,40.35,1.8,41,2.66,41h30.19c0.92,0,1.67-0.75,1.67-1.67V2.67
				C34.51,1.75,33.76,1,32.84,1z"/>
			<rect x="25.43" y="6.19" class="st1" width="4.26" height="4.26"/>
			<rect x="18.21" y="6.19" class="st1" width="4.26" height="4.26"/>
			<rect x="10.99" y="6.19" class="st1" width="4.26" height="4.26"/>
			<rect x="3.77" y="6.19" class="st1" width="4.26" height="4.26"/>
			<rect x="25.43" y="19.15" class="st1" width="4.26" height="4.26"/>
			<rect x="18.21" y="19.15" class="st1" width="4.26" height="4.26"/>
			<rect x="25.43" y="32.11" class="st1" width="4.26" height="4.26"/>
			<rect x="18.21" y="32.11" class="st1" width="4.26" height="4.26"/>
			<rect x="10.99" y="32.11" class="st1" width="4.26" height="4.26"/>
			<path class="st1" d="M35.64,18.05l2.39,2.39h-2.42v1.48h2.51l-2.48,2.48l1.05,1.05l4.23-4.23L36.69,17L35.64,18.05z M39.51,21.19
				L39.51,21.19L39.51,21.19z"/>
			<path class="st1" d="M35.64,11.42l1.05,1.05l4.23-4.23l-4.23-4.23l-1.05,1.05l2.42,2.42h-2.45v1.48h2.48L35.64,11.42z
				 M39.51,8.22L39.51,8.22L39.51,8.22z"/>
			<path class="st1" d="M35.64,30.98l2.42,2.42h-2.45v1.48h2.48l-2.45,2.45l1.05,1.05l4.23-4.23l-4.23-4.23L35.64,30.98z
				 M39.51,34.15L39.51,34.15L39.51,34.15z"/>
		</g>
	</g>
</g>
</svg>
