<svg id="Layer_1" data-name="Layer 1" xmlns="http://www.w3.org/2000/svg" viewBox="0 0 42.08 40">
   <title>Visual Builder</title>
   <g>
      <path
         d="M27.35,38.3l-.41,0a2.92,2.92,0,0,1-.51,0l-.59,1.06-1.74-.75.36-1.16a3.94,3.94,0,0,1-.64-.65l-1.16.33L22,35.34,23,34.78a4,4,0,0,1,0-.91L22,33.28l.75-1.75,1.17.37a3.94,3.94,0,0,1,.65-.64l-.34-1.17,1.77-.7.56,1.07.39,0a3,3,0,0,1,.52,0l.6-1.06,1.74.75-.36,1.16a3.52,3.52,0,0,1,.63.65l1.17-.33.71,1.77L30.86,34a4,4,0,0,1,0,.91l1.06.59-.75,1.75L30,36.86a4,4,0,0,1-.66.64l.34,1.17-1.77.7Z"
         fill="#fff" />
      <path
         d="M25.75,30l.19.36.33.63.2,0h0l.46,0a3.48,3.48,0,0,1,.79.09l.54-1,.92.4-.34,1.07a3.37,3.37,0,0,1,1,1l1.08-.31.37.93-1,.52c0,.07,0,.14,0,.21a3.23,3.23,0,0,1-.06,1.24l1,.55-.39.92-1.08-.34a1,1,0,0,1-.11.17,3.49,3.49,0,0,1-.92.84l.3,1.08-.93.37-.52-1-.2,0a2.59,2.59,0,0,1-.48,0,3.31,3.31,0,0,1-.77-.09l-.54,1-.92-.39L25,37.24l-.17-.12A3.49,3.49,0,0,1,24,36.2L23,36.5l-.37-.92,1-.52c0-.07,0-.14,0-.21a3.41,3.41,0,0,1,.06-1.24l-1-.55.39-.92,1.08.34a3.42,3.42,0,0,1,1-1L25,30.88l-.14-.49.2-.08.55-.22.18-.07m.47-1.26-.84.33-.18.07-.55.22-.2.08-.84.33.25.87.12.42a2.72,2.72,0,0,0-.24.24l-.43-.13-.86-.27-.35.83-.4.91-.36.83.79.44.38.22v.34l-.39.2-.8.42.34.84.36.93.34.83.87-.24.42-.12.24.24-.14.42-.27.86.83.36.92.39.83.36.44-.79.21-.38h.34l.21.38.41.8.84-.33.93-.37.84-.33L30,38.1l-.12-.42.25-.24.42.13.86.27.35-.83.4-.92.36-.82-.79-.44-.38-.22v-.34l.39-.2.8-.42-.34-.84-.36-.93L31.53,31l-.87.25-.42.12L30,31.17l.14-.42.27-.86-.83-.36-.92-.39-.83-.36-.44.79-.21.38h-.34l0,0-.19-.36-.41-.8Z"
         fill="#fff" />
      <path
         d="M8.65,34.91A2.32,2.32,0,0,1,7,34.25,2.4,2.4,0,0,1,7,30.89a2.32,2.32,0,0,1,1.69-.72h.21l.52-.53c1.06-1.08,3.21-3.25,4.75-4.86-.2-.34-.4-.7-.49-.9s-.12-.25-.17-.38L11,23.23V21.48H.54L.65,20A9.87,9.87,0,0,1,6,12,2.37,2.37,0,0,0,7.2,10.28a7.59,7.59,0,0,1,7.46-6.13,5.37,5.37,0,0,1,.7,0h.24a2.26,2.26,0,0,0,1.68-.72,9.37,9.37,0,0,1,6.83-3,9.26,9.26,0,0,1,8.33,5.15A2.42,2.42,0,0,0,34.12,7a9.55,9.55,0,0,1,6.32,13.82l-.38.71H31.29v1.75l-2.1.24,1.32,1.65-4.39,4.4-1.66-1.33-.23,2.11H18l-.28-2.51-.47-.23L17,27.43a7.29,7.29,0,0,1-.81-.49c-1.53,1.6-3.69,3.78-4.69,4.79l-.54.55a2.38,2.38,0,0,1-.64,1.91A2.32,2.32,0,0,1,8.65,34.91Z"
         fill="#fff" />
      <path
         d="M24.11,1A8.76,8.76,0,0,1,32,5.88a2.94,2.94,0,0,0,2,1.56,9.16,9.16,0,0,1,2.86,1.18A9,9,0,0,1,40,20.53l-.24.45h-9v1.81l-2.35.26-.08.18,1.48,1.86-3.76,3.76-1.85-1.49-.19.08-.26,2.36H18.46l-.26-2.36a6.29,6.29,0,0,1-.7-.32L17.25,27a8.65,8.65,0,0,1-1.1-.71c-1.56,1.63-4,4.09-5,5.14l-.56.57-.11.12,0,.15A1.86,1.86,0,0,1,10,33.84a1.84,1.84,0,0,1-2.61,0,1.9,1.9,0,0,1,0-2.65,1.81,1.81,0,0,1,1.33-.57h.23l.16,0,.12-.11L9.73,30c1.13-1.14,3.47-3.5,5-5.14-.25-.42-.56-.94-.66-1.18s-.2-.42-.29-.63l-2.36-.26V21H1.08l.07-.92a9.4,9.4,0,0,1,5-7.67,2.91,2.91,0,0,0,1.52-2,7.09,7.09,0,0,1,4.1-5.13,7.22,7.22,0,0,1,2.86-.6l.66,0,.29,0a2.8,2.8,0,0,0,2-.88A8.85,8.85,0,0,1,24.11,1m0-1a9.82,9.82,0,0,0-7.19,3.14,1.78,1.78,0,0,1-1.31.56h-.2a6.28,6.28,0,0,0-.75,0,8.12,8.12,0,0,0-7.95,6.54,1.91,1.91,0,0,1-1,1.32A10.4,10.4,0,0,0,.15,20l-.07.93L0,22H10.45v1.7l.89.1,1.79.2.08.15c.06.15.18.37.3.59C12,26.32,9.94,28.37,9,29.3l-.36.37h0a2.8,2.8,0,0,0-2.05.88,2.9,2.9,0,0,0,.07,4.06,2.83,2.83,0,0,0,2,.8,2.85,2.85,0,0,0,2.84-2.94l.34-.34c.93-.94,2.92-3,4.45-4.55q.25.17.51.3L17,28l.23.11.2,1.79.1.89h7.11l.1-.89.08-.76.6.48.69.56.64-.64,3.76-3.76.63-.63-.56-.7-.48-.59.76-.09.89-.1V22h8.57l.28-.52.24-.45A10,10,0,0,0,34.23,6.47a2,2,0,0,1-1.35-1A9.74,9.74,0,0,0,24.11,0Z"
         fill="#fff" />
      <path
         d="M28.36,17l1.48-1.85-3.76-3.76-1.85,1.48L24,12.82l-.26-2.36H18.46l-.26,2.36-.18.07-1.85-1.48-3.76,3.76L13.89,17c0,.06-.05.13-.08.19l-2.36.26v5.32l2.36.26c.09.21.18.43.29.63l.4-.42a4.26,4.26,0,0,0,.67-1.54l-.08-.26-1.92-.21V19l1.92-.21.17-.54a5.73,5.73,0,0,1,.4-1l.25-.5-1.2-1.5,1.58-1.58,1.51,1.2.5-.26a6.26,6.26,0,0,1,1-.4l.53-.17L20,12.18h2.24l.22,1.91.53.17a6.71,6.71,0,0,1,1,.4l.5.26,1.5-1.2,1.59,1.58-1.21,1.5.26.5a6.71,6.71,0,0,1,.4,1l.17.54,1.91.21v2.24l-1.91.21L27,22a6.82,6.82,0,0,1-.4,1l-.26.49L27.54,25,26,26.54l-1.5-1.2-.5.25a5.73,5.73,0,0,1-1,.4l-.53.17-.22,1.92H20l-.21-1.92L19.26,26a3.4,3.4,0,0,1-.34-.12,2.8,2.8,0,0,0-1.24.67l-.43.45.25.13a6.29,6.29,0,0,0,.7.32l.26,2.36h5.32L24,27.44l.19-.08,1.85,1.49,3.76-3.76-1.48-1.86.08-.18,2.35-.26V17.47l-2.35-.26C28.41,17.15,28.39,17.08,28.36,17Z"
         fill="#2c5967" />
      <path
         d="M16.2,26.22l.54-.56a5.37,5.37,0,0,1,3.56-1.28,3.36,3.36,0,0,0,3-2.95v0l-2,1.35a1.14,1.14,0,0,1-.66.2,1.19,1.19,0,0,1-.46-.1,2.91,2.91,0,0,1-1.14-1.24,3.21,3.21,0,0,1-.57-1.36,1.21,1.21,0,0,1,.54-1l2.14-1.43,0,0a3.2,3.2,0,0,0-1.06-.16,3.55,3.55,0,0,0-2.45.83,4.1,4.1,0,0,0-1,2.48,6,6,0,0,1-1.18,3.2l-.48.51-.13.14c-1.56,1.64-4,4.05-5.09,5.2l-.57.59L9,30.7l-.16,0H8.65a1.81,1.81,0,0,0-1.33.57,1.9,1.9,0,0,0,0,2.65,1.84,1.84,0,0,0,2.61,0,1.86,1.86,0,0,0,.49-1.58l0-.15.11-.12.56-.57C12.18,30.35,14.65,27.85,16.2,26.22ZM9.37,33.1l-.79.33-.69-.52L8,32.06l.8-.34.68.53Z"
         fill="#2c5967" />
      <polygon
         points="21.36 19.25 21.13 19.12 20.05 19.73 20.05 20.13 20.05 20.71 20.05 20.97 20.28 21.11 20.92 21.48 21.12 21.6 22.19 20.98 22.2 20.62 22.2 19.74 21.36 19.25"
         fill="#2c5967" />
      <path
         d="M25.57,30.09l-.55.22-.2.08.14.49.16.59a3.42,3.42,0,0,0-1,1L23,32.14l-.39.92,1,.55a3.41,3.41,0,0,0-.06,1.24c0,.07,0,.14,0,.21l-1,.52.37.93L24,36.2a3.49,3.49,0,0,0,.84.92l.17.12-.33,1.07.92.39.54-1a3.31,3.31,0,0,0,.77.09,2.59,2.59,0,0,0,.48,0l.2,0,.52,1,.93-.37-.3-1.08a3.49,3.49,0,0,0,.92-.84,1,1,0,0,0,.11-.17l1.08.34.39-.92-1-.55a3.23,3.23,0,0,0,.06-1.24c0-.07,0-.14,0-.21l1-.52-.37-.93-1.08.31a3.37,3.37,0,0,0-1-1l.34-1.07-.92-.4-.54,1A3.48,3.48,0,0,0,26.47,31h0l-.2,0-.33-.63L25.75,30Zm1.14,2.59a1.72,1.72,0,0,1,1.94,1.46,1.69,1.69,0,0,1-.34,1.27,1.65,1.65,0,0,1-1.13.67,1.72,1.72,0,1,1-.47-3.4Z"
         fill="#2c5967" />
      <polygon points="27.37 35.18 27.81 34.42 27.37 33.66 26.49 33.66 26.05 34.42 26.49 35.18 27.37 35.18"
         fill="#2c5967" />
      <path
         d="M36.87,8.62A9.16,9.16,0,0,0,34,7.44a2.94,2.94,0,0,1-2-1.56A8.76,8.76,0,0,0,24.11,1a8.85,8.85,0,0,0-6.46,2.82,2.78,2.78,0,0,1-2.33.86,7.21,7.21,0,0,0-3.52.57,7.09,7.09,0,0,0-4.1,5.13,2.91,2.91,0,0,1-1.52,2,9.4,9.4,0,0,0-5,7.67L1.08,21h9.09V19.26H3a7.7,7.7,0,0,1,4-5.34,4.6,4.6,0,0,0,2.4-3.21,5.37,5.37,0,0,1,3.11-3.88,5.42,5.42,0,0,1,2.66-.44A4.49,4.49,0,0,0,18.91,5a7.12,7.12,0,0,1,5.2-2.27,7,7,0,0,1,6.34,3.92,4.7,4.7,0,0,0,3.19,2.48,7.19,7.19,0,0,1,2.31,1,7.32,7.32,0,0,1,2.76,9.19H32.08V21h7.68l.24-.45A9,9,0,0,0,36.87,8.62Z"
         fill="#2c5967" />
   </g>
</svg>