<?xml version="1.0" encoding="utf-8"?>
<!-- Generator: Adobe Illustrator 24.1.0, SVG Export Plug-In . SVG Version: 6.00 Build 0)  -->
<svg version="1.1" id="Block_Storage" xmlns="http://www.w3.org/2000/svg" xmlns:xlink="http://www.w3.org/1999/xlink" x="0px"
	 y="0px" viewBox="0 0 161.9 162" enable-background="new 0 0 161.9 162" xml:space="preserve">
	<g>
<path fill="#312D2A" d="M153.1,152.5H9.4V26.8h143.8V152.5z M18.4,143.5h125.8V35.8H18.4V143.5z M152.6,9.1H8.9v9h143.8V9.1z
	 M78,87.6H46.4V56H78V87.6z M53.4,80.6H71V63H53.4V80.6z M115.6,87.6H84V56h31.6V87.6z M91,80.6h17.6V63H91V80.6z M78.4,124.7H46.9
	V93.2h31.6V124.7z M53.9,117.7h17.6v-17.6H53.9V117.7z M116,124.7H84.5V93.2H116V124.7z M91.5,117.7H109v-17.6H91.5V117.7z"/>
	</g>
</svg>
