<?xml version="1.0" encoding="utf-8"?>
<!DOCTYPE svg PUBLIC "-//W3C//DTD SVG 1.1//EN" "http://www.w3.org/Graphics/SVG/1.1/DTD/svg11.dtd">
<svg version="1.1" id="Icons" xmlns="http://www.w3.org/2000/svg" x="0px" y="0px" viewBox="0 0 288 288">
    <style type="text/css">
        .icon-colour-01{fill:#F80000;}
    </style>
   <g transform="translate(-140, -140) scale(2, 2)">
      <path     class="icon-colour-01" d="M172.5,88.4 c-13.7,-1.6,-27.9,-1.6,-28.5,-1.6 c-0.6,0.0,-14.8,0.0,-28.5,1.6 c-23.9,2.8,-24.2,7.8,-24.2,7.9 v95.5 c0.0,0.1,0.3,5.0,24.2,7.9 c13.7,1.6,27.9,1.6,28.5,1.6 c0.6,0.0,14.8,0.0,28.5,-1.6 c23.9,-2.8,24.2,-7.8,24.2,-7.9 V96.3 C196.8,96.2,196.5,91.2,172.5,88.4 z M169.6,178.9 c0.0,0.2,0.0,0.3,0.0,0.5 c-20.1,0.0,-40.2,0.0,-60.4,0.0 c0.0,-16.1,0.0,-26.4,0.0,-42.5 c0.2,0.0,0.3,0.0,0.5,0.0 c6.3,0.0,12.6,0.0,18.9,0.0 c0.3,0.0,0.5,0.1,0.7,0.4 c0.8,1.5,1.7,3.1,2.6,4.6 c0.2,0.3,0.4,0.4,0.8,0.4 c10.4,0.0,20.9,0.0,31.3,0.0 c2.9,0.0,5.7,2.2,5.7,5.7 C169.6,160.2,169.6,166.6,169.6,178.9 z M178.8,169.2 c-1.6,0.0,-3.1,0.0,-4.6,0.0 c0.0,-0.2,0.0,-0.4,0.0,-0.6 c0.0,-10.6,0.0,-15.3,0.0,-25.8 c0.0,-2.8,-2.1,-5.7,-5.7,-5.7 c-10.4,0.0,-20.8,0.0,-31.3,0.0 c-0.4,0.0,-0.7,-0.1,-0.9,-0.5 c-0.8,-1.5,-1.7,-3.0,-2.5,-4.5 c-0.2,-0.3,-0.3,-0.4,-0.6,-0.4 c-4.8,0.0,-9.5,0.0,-14.2,0.0 c-0.2,0.0,-0.3,0.0,-0.5,0.0 c0.0,-1.7,0.0,-3.4,0.0,-5.1 c0.2,0.0,0.3,0.0,0.5,0.0 c6.3,0.0,12.6,0.0,18.9,0.0 c0.3,0.0,0.5,0.1,0.7,0.4 c0.8,1.5,1.7,3.0,2.5,4.5 c0.2,0.3,0.4,0.5,0.8,0.5 c10.4,0.0,20.9,0.0,31.3,0.0 c2.9,0.0,5.1,1.9,5.6,4.7 c0.0,0.3,0.0,0.5,0.0,0.8 c0.0,12.3,0.0,18.8,0.0,31.2 C178.8,168.8,178.8,169.0,178.8,169.2 z M192.3,104.1 c-1.8,2.8,-18.9,7.5,-48.3,7.5 c-29.4,0.0,-46.4,-4.7,-48.3,-7.5 l0.0,0.0 c1.7,-2.8,18.8,-7.6,48.3,-7.6 C173.5,96.5,190.6,101.3,192.3,104.1 C192.3,104.1,192.3,104.1,192.3,104.1 z"/>
   </g>
</svg>
