<?xml version="1.0" encoding="utf-8"?>
<!-- Generator: Adobe Illustrator 24.0.2, SVG Export Plug-In . SVG Version: 6.00 Build 0)  -->
<svg version="1.1" id="Layer_1" xmlns="http://www.w3.org/2000/svg" xmlns:xlink="http://www.w3.org/1999/xlink" x="0px" y="0px"
	 viewBox="0 0 42 42" style="enable-background:new 0 0 42 42;" xml:space="preserve">
<style type="text/css">
	.st0{fill:#FFFFFF;}
	.st1{fill:#2C5967;}
</style>
<g>
	<g>
		<g>
			<path class="st0" d="M2.67,41.5c-1.19,0-2.17-0.97-2.17-2.17V2.67c0-1.2,0.97-2.17,2.17-2.17h36.67c1.19,0,2.17,0.97,2.17,2.17
				v36.67c0,1.2-0.97,2.17-2.17,2.17H2.67z"/>
			<path class="st0" d="M39.33,1C40.25,1,41,1.75,41,2.67v36.67c0,0.92-0.75,1.67-1.67,1.67H2.67C1.75,41,1,40.25,1,39.33V2.67
				C1,1.75,1.75,1,2.67,1H39.33 M39.33,0H2.67C1.2,0,0,1.2,0,2.67v36.67C0,40.8,1.2,42,2.67,42h36.67C40.8,42,42,40.8,42,39.33V2.67
				C42,1.2,40.8,0,39.33,0L39.33,0z"/>
		</g>
		<g>
			<path class="st1" d="M21.87,16.66v-4.04h11.41v9.86H27.6v1.48h6.1c0.58,0,1.05-0.47,1.05-1.04V11.14H20.38v5.52H21.87z"/>
			<path class="st1" d="M34.76,8.99c0-0.58-0.47-1.04-1.05-1.04H21.44c-0.58,0-1.05,0.47-1.05,1.04v0.89h14.37V8.99z"/>
			<path class="st1" d="M26.65,14.35h-2.33v2.31h1c0.11,0,0.21,0.01,0.31,0.02h1.02V14.35z"/>
			<rect x="28.61" y="14.35" class="st1" width="2.33" height="2.33"/>
			<rect x="28.61" y="18.54" class="st1" width="2.33" height="2.33"/>
			<path class="st1" d="M7.16,21v15.93c0,0.64,0.52,1.16,1.17,1.16h16.99c0.64,0,1.17-0.52,1.17-1.16V21H7.16z M25.01,36.61H8.65
				V22.39h16.37V36.61z"/>
			<path class="st1" d="M26.49,19.89v-0.95c0-0.64-0.52-1.16-1.17-1.16H8.33c-0.64,0-1.17,0.52-1.17,1.16v0.95H26.49z"/>
			<path class="st1" d="M10.87,29.09h5.46v-5.46h-5.46V29.09z M12.35,25.11h2.5v2.5h-2.5V25.11z"/>
			<path class="st1" d="M22.69,23.63h-5.46v5.46h5.46V23.63z M21.21,27.61h-2.5v-2.5h2.5V27.61z"/>
			<path class="st1" d="M10.87,35.29h5.46v-5.46h-5.46V35.29z M12.35,31.31h2.5v2.5h-2.5V31.31z"/>
			<path class="st1" d="M17.23,35.29h5.46v-5.46h-5.46V35.29z M18.72,31.31h2.5v2.5h-2.5V31.31z"/>
			<path class="st1" d="M29.64,25.07l-2.04,2l-0.13,0.13l0.13,0.14l0.9,0.92l1.06-1.04v3.25H27.6h-0.03v1.48h0.03h3.45v-4.73
				l1.06,1.04l1.04-1.06l-2.17-2.13l-0.67-0.65L29.64,25.07z M30.3,26.5L30.3,26.5h0.01H30.3z"/>
			<path class="st1" d="M1,39.33C1,40.25,1.75,41,2.67,41h36.67c0.92,0,1.67-0.75,1.67-1.67V4.99H1V39.33z M2.48,6.47h37.04v32.87
				c0,0.1-0.08,0.19-0.19,0.19H2.67c-0.1,0-0.19-0.08-0.19-0.19V6.47z"/>
			<path class="st1" d="M39.33,1H2.67C1.75,1,1,1.75,1,2.67v1.21h40V2.67C41,1.75,40.25,1,39.33,1z"/>
		</g>
	</g>
</g>
</svg>
