<?xml version="1.0" encoding="utf-8"?>
<!-- Generator: Adobe Illustrator 24.0.2, SVG Export Plug-In . SVG Version: 6.00 Build 0)  -->
<svg version="1.1" id="Layer_1" xmlns="http://www.w3.org/2000/svg" xmlns:xlink="http://www.w3.org/1999/xlink" x="0px" y="0px"
	 viewBox="0 0 60.33 42" style="enable-background:new 0 0 60.33 42;" xml:space="preserve">
<style type="text/css">
	.st0{fill:#FFFFFF;}
	.st1{fill:#2C5967;}
</style>
<g>
	<g>
		<g>
			<path class="st0" d="M30.08,41.5c-0.33,0-0.65-0.02-0.98-0.05c-2.59-0.26-4.98-1.57-6.6-3.6c-0.36,0.05-0.72,0.07-1.07,0.07
				c-0.27,0-0.54-0.01-0.81-0.04c-2.14-0.22-4.08-1.23-5.47-2.85H6.91v-2.77h6.66c-0.38-1.12-0.51-2.31-0.4-3.49
				c0-0.05,0.01-0.1,0.02-0.15H3.81v-2.77h7.67c-0.92-1.03-1.56-2.28-1.85-3.64H0.5v-2.77h9.03c0.18-1.24,0.64-2.4,1.35-3.42H3.81
				v-2.77h10.02c-0.15-0.8-0.18-1.62-0.1-2.44c0.04-0.4,0.11-0.8,0.21-1.2H6.91V6.85h8.26c0.48-0.71,1.05-1.34,1.7-1.88
				c1.57-1.28,3.46-1.95,5.46-1.95c0.3,0,0.59,0.02,0.89,0.05c0.56,0.06,1.11,0.17,1.64,0.33C27.1,1.53,29.9,0.5,32.8,0.5
				c0.41,0,0.83,0.02,1.25,0.06c4.02,0.41,7.57,2.75,9.54,6.29h9.62v2.77h-8.49c0.19,0.68,0.31,1.38,0.38,2.07
				c0.86,0.41,1.66,0.93,2.38,1.57h9.04v2.77h-6.85c0.57,1.06,0.95,2.22,1.11,3.42h9.05v2.77h-9.05c-0.19,1.31-0.61,2.54-1.25,3.64
				h6.99v2.77h-9.36c-0.1,0.08-0.21,0.17-0.31,0.25c0.1,0.66,0.12,1.32,0.05,1.97c-0.05,0.48-0.14,0.96-0.28,1.43h6.43l0.12,0.33
				c0.03,0.08,0.12,0.34,0.03,1.97l-0.03,0.47h-8C43.67,36.9,41.37,38,38.98,38c-0.27,0-0.54-0.01-0.81-0.04
				c-0.19-0.02-0.37-0.04-0.56-0.08C35.76,40.19,33.03,41.5,30.08,41.5z"/>
			<path class="st0" d="M32.8,1c0.4,0,0.8,0.02,1.2,0.06c4.07,0.41,7.49,2.87,9.29,6.29h9.41v1.77h-8.66
				c0.31,0.92,0.51,1.9,0.58,2.9c1,0.43,1.89,1.03,2.66,1.74h8.73v1.77h-7.23c0.86,1.31,1.4,2.82,1.55,4.42h8.99v1.77h-8.99
				c0,0.02,0,0.04,0,0.06c-0.17,1.69-0.77,3.25-1.72,4.58h7.41v1.77h-9.04c-0.22,0.18-0.44,0.36-0.68,0.53
				c0.14,0.71,0.17,1.43,0.1,2.14c-0.07,0.69-0.24,1.36-0.48,1.98h6.78c0.09,0.24,0,1.77,0,1.77h-7.77
				c-1.38,1.82-3.56,2.98-5.96,2.98c-0.25,0-0.5-0.01-0.76-0.04c-0.27-0.03-0.55-0.07-0.82-0.13C35.66,39.65,32.96,41,30.08,41
				c-0.31,0-0.62-0.02-0.93-0.05c-2.58-0.26-4.89-1.58-6.43-3.64c-0.43,0.07-0.86,0.11-1.29,0.11c-0.26,0-0.51-0.01-0.77-0.04
				c-2.08-0.21-3.95-1.22-5.27-2.83c-0.01-0.01-0.01-0.02-0.02-0.02H7.41v-1.77h6.89c-0.54-1.22-0.77-2.57-0.63-3.94
				c0.02-0.24,0.06-0.47,0.11-0.7H4.31v-1.77h8.42c-1.44-1.16-2.4-2.81-2.68-4.64H1v-1.77h8.98c0-0.04,0-0.08,0-0.12
				c0.17-1.65,0.87-3.14,1.94-4.3H4.31v-1.77H14.4c0.02-0.01,0.03-0.02,0.05-0.03c-0.24-0.94-0.32-1.89-0.22-2.86
				c0.06-0.6,0.19-1.19,0.38-1.75h-7.2V7.35h8.03c0.47-0.74,1.05-1.42,1.75-1.99c1.47-1.2,3.27-1.84,5.15-1.84
				c0.28,0,0.56,0.01,0.84,0.04c0.62,0.06,1.22,0.19,1.81,0.39C27.16,2.04,29.93,1,32.8,1 M32.8,0C32.8,0,32.8,0,32.8,0
				c-2.93,0-5.77,1-8.05,2.84c-0.48-0.13-0.98-0.22-1.48-0.27c-0.31-0.03-0.63-0.05-0.94-0.05c-2.13,0-4.13,0.71-5.78,2.07
				c-0.62,0.51-1.18,1.1-1.65,1.76h-7.5h-1v1v1.77v1h1h5.92c-0.04,0.22-0.07,0.43-0.09,0.65c-0.07,0.67-0.06,1.33,0.02,1.99H4.31h-1
				v1v1.77v1h1h5.67c-0.41,0.75-0.71,1.57-0.88,2.42H1H0v1v1.77v1h1h8.24c0.25,0.95,0.66,1.84,1.21,2.64H4.31h-1v1v1.77v1h1h8.33
				c-0.05,0.89,0.04,1.78,0.26,2.64H7.41h-1v1v1.77v1h1h7.5c1.46,1.62,3.45,2.63,5.65,2.85c0.29,0.03,0.58,0.04,0.87,0.04
				c0.28,0,0.57-0.01,0.86-0.04c1.7,2.01,4.13,3.3,6.76,3.57c0.34,0.03,0.69,0.05,1.04,0.05c3.01,0,5.8-1.3,7.74-3.58
				c0.1,0.01,0.21,0.03,0.31,0.04c0.28,0.03,0.57,0.04,0.86,0.04c2.46,0,4.83-1.1,6.43-2.98h7.29h0.94l0.05-0.94
				c0.1-1.74,0-2.02-0.06-2.17l-0.24-0.65h-0.7h-5.44c0.06-0.29,0.11-0.58,0.14-0.88c0.06-0.58,0.05-1.17-0.01-1.76h8.63h1v-1v-1.77
				v-1h-1h-5.66c0.4-0.84,0.69-1.73,0.85-2.64h8.12h1v-1v-1.77v-1h-1h-8.12c-0.15-0.83-0.4-1.65-0.74-2.42h5.55h1v-1v-1.77v-1h-1
				h-8.35c-0.65-0.55-1.35-1.02-2.1-1.4c-0.05-0.41-0.12-0.83-0.21-1.24h7.35h1v-1V7.35v-1h-1h-8.83c-2.08-3.54-5.69-5.87-9.78-6.28
				C33.67,0.02,33.23,0,32.8,0L32.8,0L32.8,0z"/>
		</g>
		<g>
			<path class="st1" d="M7.41,7.35v1.77h5.81c0.17-0.61,0.4-1.2,0.69-1.77H7.41z"/>
			<path class="st1" d="M52.7,9.12V7.35h-7.93c0.26,0.57,0.48,1.16,0.66,1.77H52.7z"/>
			<path class="st1" d="M11.87,13.76H4.31v1.77h5.91C10.69,14.86,11.24,14.27,11.87,13.76z"/>
			<path class="st1" d="M56.02,15.52v-1.77h-6.89c0.46,0.55,0.87,1.14,1.22,1.77H56.02z"/>
			<path class="st1" d="M51.67,21.71h7.66v-1.77h-7.66C51.72,20.53,51.72,21.12,51.67,21.71z"/>
			<path class="st1" d="M8.65,19.94H1v1.77h7.7C8.63,21.13,8.61,20.54,8.65,19.94z"/>
			<path class="st1" d="M10.81,26.35H4.31v1.77h8.11c0.02-0.1,0.03-0.19,0.05-0.29C11.85,27.41,11.29,26.91,10.81,26.35z"/>
			<path class="st1" d="M56.02,28.12v-1.77H50.2c-0.37,0.63-0.81,1.22-1.3,1.77H56.02z"/>
			<path class="st1" d="M52.7,34.53v-1.77h-5.37c-0.2,0.62-0.47,1.22-0.8,1.77H52.7z"/>
			<path class="st1" d="M7.41,32.76v1.77h6.33c-0.36-0.56-0.65-1.15-0.88-1.77H7.41z"/>
			<path class="st1" d="M50.34,21.77c0.42-4.17-1.91-8.1-5.71-9.75C44.23,6.3,39.76,1.64,34,1.06c-3.29-0.33-6.54,0.72-9.02,2.89
				c-0.58-0.2-1.19-0.33-1.81-0.39c-2.17-0.22-4.3,0.42-5.99,1.8c-1.69,1.38-2.74,3.34-2.96,5.51c-0.1,0.97-0.02,1.93,0.22,2.86
				c-2.47,1.07-4.19,3.38-4.46,6.1c-0.31,3.07,1.32,5.99,4.02,7.37c-0.17,0.53-0.29,1.07-0.34,1.62c-0.21,2.08,0.4,4.11,1.72,5.73
				c1.32,1.62,3.19,2.62,5.27,2.83c0.68,0.07,1.37,0.05,2.05-0.07c1.54,2.06,3.85,3.38,6.43,3.64c0.31,0.03,0.62,0.05,0.93,0.05
				c2.88,0,5.58-1.35,7.33-3.66c0.27,0.06,0.55,0.1,0.82,0.13c0.25,0.03,0.51,0.04,0.76,0.04c3.78,0,7.04-2.88,7.43-6.72
				c0.07-0.71,0.04-1.42-0.1-2.14C48.59,27.04,50.05,24.57,50.34,21.77z M44.45,28.49c0.2,0.71,0.27,1.42,0.2,2.12
				c-0.15,1.52-0.89,2.88-2.07,3.85c-1.18,0.96-2.66,1.41-4.18,1.26c-0.37-0.04-0.74-0.11-1.11-0.23l-0.64-0.2l-0.36,0.56
				c-1.52,2.35-4.2,3.63-6.97,3.35c-2.24-0.23-4.24-1.45-5.47-3.34l-0.34-0.53l-0.61,0.15c-0.69,0.17-1.38,0.22-2.05,0.15
				c-1.61-0.16-3.06-0.94-4.08-2.19c-1.02-1.25-1.5-2.83-1.33-4.43c0.07-0.65,0.24-1.29,0.52-1.9l0.39-0.86l-0.89-0.33
				c-1.89-0.7-3.22-2.31-3.61-4.2h12.39l-2.41,2.43l1.25,1.25l4.53-4.56l-4.53-4.56l-1.25,1.25l2.41,2.43H11.75
				c0.26-2.28,1.84-4.17,4.05-4.83l0.91-0.27l-0.34-0.89c-0.36-0.94-0.49-1.92-0.39-2.91c0.17-1.7,1-3.23,2.32-4.31
				C19.63,5.65,21.3,5.15,23,5.32c0.63,0.06,1.25,0.22,1.84,0.47l0.54,0.23l0.42-0.41c2.14-2.07,5.07-3.09,8.03-2.79
				c5.07,0.51,8.96,4.74,9.06,9.83l0.01,0.61l0.57,0.21c2.84,1.03,4.78,3.58,5.1,6.48H36.23l2.19-2.21l-1.25-1.25l-4.31,4.34
				l4.53,4.56l1.25-1.25l-2.41-2.43h12.33c-0.28,2.41-1.63,4.51-3.72,5.78l-0.57,0.35L44.45,28.49z"/>
		</g>
	</g>
</g>
</svg>
