<?xml version="1.0" encoding="utf-8"?>
<!-- Generator: Adobe Illustrator 24.0.2, SVG Export Plug-In . SVG Version: 6.00 Build 0)  -->
<svg version="1.1" id="Layer_1" xmlns="http://www.w3.org/2000/svg" xmlns:xlink="http://www.w3.org/1999/xlink" x="0px" y="0px"
	 viewBox="0 0 44 42" style="enable-background:new 0 0 44 42;" xml:space="preserve">
<g>
	<g>
		<g>
			<path style="fill:#FFFFFF;" d="M18.1,41.5c-3.2,0-6.1-1.6-7.8-4.4c-4.4-0.8-7.6-4.8-7.6-9.3c0-0.2,0-0.4,0-0.6
				c-1.4-1.7-2.2-3.9-2.2-6.2c0-2.3,0.8-4.5,2.2-6.2c0-0.2,0-0.4,0-0.6c0-4.6,3.3-8.6,7.7-9.4c1.1-1.7,2.7-3.1,4.6-3.8
				c1-0.4,2.1-0.6,3.2-0.6l0.2,0c1.9,0.1,3.4,1.6,3.4,3.6v33.9c0,1.9-1.5,3.5-3.3,3.6C18.3,41.5,18.2,41.5,18.1,41.5z"/>
			<path style="fill:#FFFFFF;" d="M18.1,1c0.1,0,0.1,0,0.2,0c1.6,0,2.9,1.4,2.9,3.1v33.9c0,1.7-1.2,3-2.8,3.1c-0.1,0-0.2,0-0.3,0
				c-3.1,0-5.9-1.6-7.5-4.3c-4.2-0.6-7.4-4.4-7.4-8.9c0-0.2,0-0.5,0-0.8C1.8,25.3,1,23.2,1,21c0-2.2,0.8-4.3,2.2-6
				c0-0.3,0-0.5,0-0.8c0-4.5,3.2-8.3,7.5-8.9c1-1.7,2.6-3,4.5-3.8C16.1,1.2,17.1,1,18.1,1 M18.1,0c-1.1,0-2.3,0.2-3.3,0.6
				c-1.9,0.7-3.6,2.1-4.7,3.8c-4.5,0.9-7.9,5-7.9,9.8c0,0.2,0,0.3,0,0.5C0.8,16.4,0,18.7,0,21c0,2.3,0.8,4.5,2.2,6.3
				c0,0.1,0,0.3,0,0.4c0,4.7,3.3,8.9,7.8,9.8c1.8,2.8,4.8,4.4,8.1,4.4c0.1,0,0.2,0,0.3,0c2.1-0.1,3.8-1.9,3.8-4.1V4.1
				c0-2.2-1.7-4-3.9-4.1C18.2,0,18.2,0,18.1,0L18.1,0z"/>
		</g>
		<g>
			<path style="fill:#FFFFFF;" d="M25.6,41.5c-1.9-0.1-3.3-1.6-3.3-3.6V4.1c0-1.9,1.5-3.5,3.4-3.6l0.2,0c1.1,0,2.1,0.2,3.1,0.6
				c1.9,0.7,3.5,2,4.6,3.8c4.4,0.8,7.7,4.7,7.7,9.4c0,0.2,0,0.4,0,0.6c1.4,1.7,2.2,3.9,2.2,6.2c0,2.3-0.8,4.5-2.2,6.2
				c0,0.2,0,0.4,0,0.6c0,4.6-3.3,8.6-7.6,9.3c-1.7,2.8-4.6,4.4-7.8,4.4C25.8,41.5,25.7,41.5,25.6,41.5z"/>
			<path style="fill:#FFFFFF;" d="M25.9,1c1,0,2,0.2,3,0.6c1.8,0.7,3.4,2,4.5,3.8c4.2,0.6,7.5,4.4,7.5,8.9c0,0.3,0,0.5,0,0.8
				c1.4,1.7,2.2,3.8,2.2,6c0,2.2-0.8,4.3-2.2,6c0,0.3,0,0.5,0,0.8c0,4.4-3.2,8.2-7.4,8.9C31.8,39.3,29,41,25.9,41
				c-0.1,0-0.2,0-0.3,0c-1.6-0.1-2.8-1.4-2.8-3.1V4.1c0-1.7,1.3-3,2.9-3.1C25.8,1,25.9,1,25.9,1 M25.9,0c-0.1,0-0.2,0-0.2,0
				c-2.2,0.1-3.9,1.8-3.9,4.1v33.9c0,2.2,1.7,4,3.8,4.1c0.1,0,0.2,0,0.3,0c3.3,0,6.3-1.7,8.1-4.4c4.5-0.9,7.8-5.1,7.8-9.8
				c0-0.1,0-0.3,0-0.4c1.4-1.8,2.2-4,2.2-6.3c0-2.3-0.8-4.6-2.2-6.3c0-0.2,0-0.3,0-0.5c0-4.8-3.3-8.9-7.9-9.8
				c-1.1-1.7-2.8-3.1-4.7-3.8C28.2,0.2,27,0,25.9,0L25.9,0z"/>
		</g>
	</g>
	<g>
		<path style="fill:#2C5967;" d="M18.3,1c-1.1,0-2.1,0.2-3.2,0.6c-1.8,0.7-3.4,2-4.5,3.8c-4.2,0.6-7.5,4.4-7.5,8.9
			c0,0.3,0,0.5,0,0.8C1.8,16.7,1,18.8,1,21c0,2.2,0.8,4.3,2.2,6c0,0.3,0,0.5,0,0.8c0,4.4,3.2,8.2,7.4,8.9c1.6,2.7,4.4,4.3,7.5,4.3
			c0.1,0,0.2,0,0.3,0c1.6-0.1,2.8-1.4,2.8-3.1V4.1C21.2,2.4,19.9,1,18.3,1z M18.3,38.7c-0.1,0-0.1,0-0.2,0c-2.4,0-4.7-1.4-5.8-3.7
			L12,34.5l-0.6,0c-3.4-0.3-6-3.2-6-6.7c0-0.3,0-0.6,0.1-1l0.1-0.6l-0.4-0.4c-1.3-1.3-2-3-2-4.8c0-1.8,0.7-3.5,2-4.8l0.4-0.4
			l-0.1-0.6c-0.1-0.4-0.1-0.7-0.1-1c0-3.5,2.7-6.5,6-6.7l0.6,0l0.3-0.5c0.8-1.5,2-2.6,3.6-3.2c0.7-0.3,1.5-0.4,2.2-0.4
			c0.1,0,0.1,0,0.2,0h0c0.4,0,0.8,0.4,0.8,0.8v10.6h-5.2l-0.4-0.4c0.2-0.4,0.3-0.9,0.3-1.3c0-1.7-1.4-3.2-3.1-3.2s-3.1,1.4-3.1,3.2
			s1.4,3.2,3.1,3.2c0.4,0,0.8-0.1,1.2-0.3l0.8,0.8c0.2,0.2,0.5,0.3,0.8,0.3H19v2.9h-7.6c-0.4-1.2-1.6-2-2.9-2
			c-1.7,0-3.1,1.4-3.1,3.2s1.4,3.2,3.1,3.2c1.3,0,2.4-0.8,2.9-2H19v2.8h-5.7c-0.3,0-0.6,0.1-0.8,0.3L11.8,26
			c-0.4-0.2-0.8-0.3-1.2-0.3c-1.7,0-3.1,1.4-3.1,3.2s1.4,3.2,3.1,3.2s3.1-1.4,3.1-3.2c0-0.5-0.1-0.9-0.3-1.3l0.4-0.4H19v10.8
			C19,38.4,18.7,38.7,18.3,38.7z M10.6,13.8c-0.5,0-0.9-0.4-0.9-0.9c0-0.5,0.4-0.9,0.9-0.9s0.9,0.4,0.9,0.9
			C11.5,13.4,11.1,13.8,10.6,13.8z M9.4,21c0,0.5-0.4,0.9-0.9,0.9c-0.5,0-0.9-0.4-0.9-0.9s0.4-0.9,0.9-0.9C9,20.1,9.4,20.5,9.4,21z
			 M11.5,28.9c0,0.5-0.4,0.9-0.9,0.9s-0.9-0.4-0.9-0.9s0.4-0.9,0.9-0.9S11.5,28.4,11.5,28.9z"/>
		<path style="fill:#2C5967;" d="M43,21c0-2.2-0.8-4.3-2.2-6c0-0.3,0-0.5,0-0.8c0-4.5-3.2-8.3-7.5-8.9c-1-1.7-2.6-3-4.5-3.8
			c-1-0.4-2.1-0.6-3.2-0.6c-1.6,0-2.9,1.4-2.9,3.1v33.9c0,1.7,1.2,3,2.8,3.1c0.1,0,0.2,0,0.3,0c3.1,0,5.9-1.6,7.5-4.3
			c4.2-0.6,7.4-4.4,7.4-8.9c0-0.2,0-0.5,0-0.8C42.2,25.3,43,23.2,43,21z M38.5,26.8c0.1,0.4,0.1,0.7,0.1,1c0,3.5-2.6,6.4-6,6.7
			l-0.6,0l-0.3,0.6c-1.1,2.3-3.4,3.7-5.8,3.7c-0.1,0-0.1,0-0.2,0c-0.4,0-0.7-0.4-0.7-0.8V27.2h5.2l0.4,0.4c-0.2,0.4-0.3,0.9-0.3,1.3
			c0,1.7,1.4,3.2,3.1,3.2c1.7,0,3.1-1.4,3.1-3.2s-1.4-3.2-3.1-3.2c-0.4,0-0.8,0.1-1.2,0.3l-0.8-0.8c-0.2-0.2-0.5-0.3-0.8-0.3H25
			v-2.8h7.6c0.4,1.2,1.6,2,2.9,2c1.7,0,3.1-1.4,3.1-3.2s-1.4-3.2-3.1-3.2c-1.3,0-2.4,0.8-2.9,2H25v-2.9h5.7c0.3,0,0.6-0.1,0.8-0.3
			l0.8-0.8c0.4,0.2,0.8,0.3,1.2,0.3c1.7,0,3.1-1.4,3.1-3.2s-1.4-3.2-3.1-3.2c-1.7,0-3.1,1.4-3.1,3.2c0,0.5,0.1,0.9,0.3,1.3l-0.4,0.4
			H25V4.1c0-0.4,0.3-0.8,0.8-0.8h0c0.1,0,0.1,0,0.2,0c0.7,0,1.5,0.1,2.2,0.4c1.5,0.6,2.8,1.7,3.6,3.2L32,7.4l0.6,0
			c3.4,0.3,6,3.2,6,6.7c0,0.3,0,0.6-0.1,1l-0.1,0.6l0.4,0.4c1.3,1.3,2,3,2,4.8c0,1.8-0.7,3.5-2,4.8l-0.4,0.4L38.5,26.8z M33.4,28
			c0.5,0,0.9,0.4,0.9,0.9s-0.4,0.9-0.9,0.9c-0.5,0-0.9-0.4-0.9-0.9S32.9,28,33.4,28z M34.6,21c0-0.5,0.4-0.9,0.9-0.9
			c0.5,0,0.9,0.4,0.9,0.9s-0.4,0.9-0.9,0.9C35,21.9,34.6,21.5,34.6,21z M32.5,12.9c0-0.5,0.4-0.9,0.9-0.9c0.5,0,0.9,0.4,0.9,0.9
			c0,0.5-0.4,0.9-0.9,0.9C32.9,13.8,32.5,13.4,32.5,12.9z"/>
	</g>
</g>
</svg>
