<?xml version="1.0" encoding="utf-8"?>
<!-- Generator: Adobe Illustrator 24.0.2, SVG Export Plug-In . SVG Version: 6.00 Build 0)  -->
<svg version="1.1" id="Layer_1" xmlns="http://www.w3.org/2000/svg" xmlns:xlink="http://www.w3.org/1999/xlink" x="0px" y="0px"
	 viewBox="0 0 36.8 41.5" style="enable-background:new 0 0 36.8 41.5;" xml:space="preserve">
<g>
	<g>
		<path style="fill:#FFFFFF;" d="M18.4,41.1c-1.4,0-2.6-1.2-2.6-2.6c0-1,0.6-1.9,1.5-2.4v-2.5c-3.8-0.3-7.3-2.4-9.5-5.5l-2.2,1.3
			c0,0.3,0,0.6-0.1,0.9c-0.2,0.7-0.6,1.2-1.2,1.6c-0.4,0.2-0.8,0.3-1.3,0.3c-0.9,0-1.8-0.5-2.3-1.3c-0.3-0.6-0.4-1.3-0.3-2
			c0.2-0.7,0.6-1.2,1.2-1.6C2.1,27.1,2.5,27,3,27c0.5,0,1.1,0.2,1.5,0.5l2.2-1.3c-0.8-1.7-1.2-3.5-1.2-5.4c0-1.9,0.4-3.7,1.2-5.4
			l-2.2-1.3c-0.4,0.3-1,0.5-1.5,0.5c-0.5,0-0.9-0.1-1.3-0.3c-0.6-0.3-1-0.9-1.2-1.6c-0.2-0.7-0.1-1.4,0.3-2C1.2,9.8,2.1,9.3,3,9.3
			c0.5,0,0.9,0.1,1.3,0.3c0.6,0.3,1,0.9,1.2,1.6c0.1,0.3,0.1,0.6,0.1,0.9l2.2,1.3c2.2-3.1,5.7-5.2,9.5-5.5V5.4
			C16.4,4.9,15.8,4,15.8,3c0-1.4,1.2-2.6,2.6-2.6S21,1.5,21,3c0,1-0.6,1.9-1.5,2.4v2.5c3.8,0.3,7.3,2.4,9.5,5.5l2.2-1.3
			c0-0.3,0-0.6,0.1-0.9c0.2-0.7,0.6-1.2,1.2-1.6c0.4-0.2,0.8-0.3,1.3-0.3c0.9,0,1.8,0.5,2.3,1.3c0.3,0.6,0.4,1.3,0.3,2
			c-0.2,0.7-0.6,1.2-1.2,1.6c-0.4,0.2-0.8,0.3-1.3,0.3c-0.5,0-1.1-0.2-1.5-0.5l-2.2,1.3c0.8,1.7,1.2,3.5,1.2,5.4
			c0,1.9-0.4,3.7-1.2,5.4l2.2,1.3c0.4-0.3,1-0.5,1.5-0.5c0.5,0,0.9,0.1,1.3,0.3c0.6,0.3,1,0.9,1.2,1.6c0.2,0.7,0.1,1.4-0.3,2
			c-0.5,0.8-1.3,1.3-2.3,1.3c-0.5,0-0.9-0.1-1.3-0.3c-0.6-0.3-1-0.9-1.2-1.6c-0.1-0.3-0.1-0.6-0.1-0.9L29,28.1
			c-2.2,3.1-5.7,5.2-9.5,5.5v2.5c0.9,0.4,1.5,1.3,1.5,2.4C21,40,19.8,41.1,18.4,41.1z"/>
		<path style="fill:#FFFFFF;" d="M18.4,0.8c1.2,0,2.2,1,2.2,2.2c0,1-0.6,1.8-1.5,2.1v3.1c4.1,0.2,7.6,2.4,9.7,5.6l2.7-1.6
			c-0.1-0.3,0-0.7,0-1c0.2-0.6,0.5-1.1,1-1.4c0.4-0.2,0.7-0.3,1.1-0.3c0.8,0,1.5,0.4,1.9,1.1c0.6,1.1,0.2,2.4-0.8,3.1
			c-0.4,0.2-0.7,0.3-1.1,0.3c-0.5,0-1.1-0.2-1.5-0.5l-2.7,1.6c0.8,1.7,1.3,3.6,1.3,5.6c0,2-0.5,3.9-1.3,5.6l2.7,1.6
			c0.4-0.4,0.9-0.5,1.5-0.5c0.4,0,0.8,0.1,1.1,0.3c1.1,0.6,1.4,2,0.8,3.1c-0.4,0.7-1.2,1.1-1.9,1.1c-0.4,0-0.8-0.1-1.1-0.3
			c-0.5-0.3-0.9-0.8-1-1.4c-0.1-0.3-0.1-0.7,0-1l-2.7-1.6c-2.1,3.2-5.7,5.4-9.7,5.6v3.1c0.9,0.3,1.5,1.1,1.5,2.1
			c0,1.2-1,2.2-2.2,2.2s-2.2-1-2.2-2.2c0-1,0.6-1.8,1.5-2.1v-3.1c-4.1-0.2-7.6-2.4-9.7-5.7l-2.7,1.6c0.1,0.3,0,0.7,0,1
			c-0.2,0.6-0.5,1.1-1,1.4c-0.4,0.2-0.7,0.3-1.1,0.3c-0.8,0-1.5-0.4-2-1.1c-0.6-1.1-0.2-2.4,0.8-3.1c0.3-0.2,0.7-0.3,1.1-0.3
			c0.5,0,1.1,0.2,1.5,0.5l2.7-1.6c-0.8-1.7-1.3-3.6-1.3-5.6c0-2,0.5-3.9,1.3-5.6l-2.7-1.6C4,14,3.5,14.2,3,14.2
			c-0.4,0-0.8-0.1-1.1-0.3c-1.1-0.6-1.4-2-0.8-3.1C1.5,10.1,2.2,9.7,3,9.7c0.4,0,0.8,0.1,1.1,0.3c0.5,0.3,0.9,0.8,1,1.4
			c0.1,0.3,0.1,0.7,0,1l2.7,1.6c2.1-3.2,5.7-5.4,9.7-5.6V5.1C16.8,4.8,16.2,4,16.2,3C16.2,1.8,17.2,0.8,18.4,0.8 M18.4,0
			c-1.7,0-3,1.3-3,3c0,1.1,0.6,2.1,1.5,2.6v2c-3.6,0.4-7,2.4-9.2,5.3l-1.7-1c0-0.3,0-0.5-0.1-0.8c-0.2-0.8-0.7-1.4-1.4-1.8
			C4,9.1,3.5,8.9,3,8.9c-1.1,0-2.1,0.6-2.6,1.5c-0.4,0.7-0.5,1.5-0.3,2.3c0.2,0.8,0.7,1.4,1.4,1.8c0.5,0.3,1,0.4,1.5,0.4
			c0.5,0,1-0.1,1.5-0.4l1.7,1c-0.7,1.7-1.1,3.4-1.1,5.3c0,1.8,0.4,3.6,1.1,5.2l-1.7,1c-0.5-0.3-1-0.4-1.5-0.4c-0.5,0-1,0.1-1.5,0.4
			c-0.7,0.4-1.2,1-1.4,1.8c-0.2,0.8-0.1,1.6,0.3,2.3C0.9,32,1.9,32.6,3,32.6c0.5,0,1-0.1,1.5-0.4c0.7-0.4,1.2-1,1.4-1.8
			C6,30.1,6,29.8,6,29.6l1.7-1c2.2,3,5.5,4.9,9.2,5.3v2c-0.9,0.5-1.5,1.5-1.5,2.6c0,1.7,1.3,3,3,3s3-1.3,3-3c0-1.1-0.6-2.1-1.5-2.6
			v-2c3.6-0.4,7-2.4,9.2-5.3l1.7,1c0,0.3,0,0.5,0.1,0.8c0.2,0.8,0.7,1.4,1.4,1.8c0.5,0.3,1,0.4,1.5,0.4c1.1,0,2.1-0.6,2.6-1.5
			c0.4-0.7,0.5-1.5,0.3-2.3C36.5,28,36,27.4,35.3,27c-0.5-0.3-1-0.4-1.5-0.4c-0.5,0-1.1,0.1-1.5,0.4l-1.7-1c0.7-1.7,1.1-3.4,1.1-5.3
			c0-1.8-0.4-3.6-1.1-5.3l1.7-1c0.5,0.3,1,0.4,1.5,0.4c0.5,0,1-0.1,1.5-0.4c0.7-0.4,1.2-1,1.4-1.8c0.2-0.8,0.1-1.6-0.3-2.3
			c-0.5-0.9-1.5-1.5-2.6-1.5c-0.5,0-1,0.1-1.5,0.4c-0.7,0.4-1.2,1-1.4,1.8c-0.1,0.3-0.1,0.5-0.1,0.8l-1.7,1c-2.2-3-5.5-4.9-9.2-5.3
			v-2c0.9-0.5,1.5-1.5,1.5-2.6C21.4,1.3,20.1,0,18.4,0L18.4,0z"/>
	</g>
	<g>
		<path style="fill:#2C5967;" d="M34.9,27.6c-0.8-0.5-1.9-0.4-2.6,0.2l-2.7-1.6c0.8-1.7,1.3-3.6,1.3-5.6s-0.5-3.9-1.3-5.6l2.7-1.6
			c0.4,0.4,0.9,0.5,1.5,0.5c0.4,0,0.8-0.1,1.1-0.3c1.1-0.6,1.4-2,0.8-3.1c-0.6-1.1-2-1.4-3.1-0.8c-0.5,0.3-0.9,0.8-1,1.4
			c-0.1,0.3-0.1,0.7,0,1l-2.7,1.6c-2.1-3.2-5.7-5.4-9.7-5.6V5.1C20,4.8,20.6,4,20.6,3c0-1.2-1-2.2-2.2-2.2s-2.2,1-2.2,2.2
			c0,1,0.6,1.8,1.5,2.1v3.1c-4.1,0.2-7.6,2.4-9.7,5.6l-2.7-1.6c0.1-0.3,0-0.7,0-1c-0.2-0.6-0.5-1.1-1-1.4C3,9.4,1.7,9.7,1,10.8
			c-0.6,1.1-0.2,2.4,0.8,3.1c0.4,0.2,0.7,0.3,1.1,0.3c0.5,0,1.1-0.2,1.5-0.5l2.7,1.6c-0.8,1.7-1.3,3.6-1.3,5.6c0,2,0.5,3.9,1.3,5.6
			l-2.7,1.6c-0.7-0.6-1.7-0.7-2.6-0.2c-1.1,0.6-1.4,2-0.8,3.1c0.4,0.7,1.2,1.1,2,1.1c0.4,0,0.8-0.1,1.1-0.3c0.5-0.3,0.9-0.8,1-1.4
			c0.1-0.3,0.1-0.7,0-1l2.7-1.6c2.1,3.2,5.7,5.4,9.7,5.7v3.1c-0.9,0.3-1.5,1.1-1.5,2.1c0,1.2,1,2.2,2.2,2.2s2.2-1,2.2-2.2
			c0-1-0.6-1.8-1.5-2.1v-3.1c4.1-0.2,7.6-2.4,9.7-5.6l2.7,1.6c-0.1,0.3,0,0.7,0,1c0.2,0.6,0.5,1.1,1,1.4c0.4,0.2,0.7,0.3,1.1,0.3
			c0.8,0,1.5-0.4,2-1.1C36.4,29.6,36,28.2,34.9,27.6z M9.2,26.8l2.6-1.5l0,0c0.5,0.6,1.2,1.1,1.9,1.3c0.9,0.3,2,0.1,2.9-0.4l2.6-1.5
			l-0.8-1.5l-2.1,1.2l-0.8-1.3l2.1-1.2l-0.8-1.3l-2.1,1.2L14,20.4l2.1-1.2l-0.8-1.3l-2.6,1.5c-1.6,0.9-2.1,2.9-1.6,4.6l-2.6,1.5
			c-0.7-1.5-1.1-3.1-1.1-4.8c0-6.1,4.9-11,11-11c3.8,0,7.2,2,9.2,4.9l-2.2,1.3l-0.1-0.1c-1.2-1.4-3.2-1.8-4.8-0.9l-2.3,1.3l0.8,1.3
			L17,18.7l0.8,1.5l1.9-1.1l0.8,1.3l-1.9,1.1l0.8,1.3l1.9-1.1l0.8,1.5l2.3-1.3c1.5-0.9,2.1-2.9,1.7-4.5l2.2-1.3
			c0.7,1.5,1.1,3.1,1.1,4.8c0,6.1-4.9,11-11,11C14.6,31.8,11.2,29.8,9.2,26.8z M25.4,16.8L25.4,16.8L25.4,16.8z M33.1,11.7
			c0.1-0.2,0.2-0.4,0.3-0.5c0.4-0.2,0.8-0.1,1,0.3c0.2,0.4,0.1,0.8-0.3,1c-0.4,0.2-0.8,0.1-1-0.3C33.1,12.1,33,11.9,33.1,11.7z
			 M18.4,2.2c0.4,0,0.7,0.3,0.7,0.7s-0.3,0.7-0.7,0.7c-0.4,0-0.7-0.3-0.7-0.7S18,2.2,18.4,2.2z M3.6,12.3c-0.2,0.4-0.7,0.5-1,0.3
			c-0.4-0.2-0.5-0.7-0.3-1c0.1-0.2,0.4-0.4,0.7-0.4c0.1,0,0.3,0,0.4,0.1c0.2,0.1,0.3,0.3,0.3,0.5C3.8,11.9,3.7,12.1,3.6,12.3z
			 M3.7,29.8c-0.1,0.2-0.2,0.4-0.3,0.5c-0.4,0.2-0.8,0.1-1-0.3c-0.2-0.4-0.1-0.8,0.3-1c0.4-0.2,0.8-0.1,1,0.3
			C3.7,29.4,3.8,29.6,3.7,29.8z M18.4,39.3c-0.4,0-0.7-0.3-0.7-0.7c0-0.4,0.3-0.7,0.7-0.7c0.4,0,0.7,0.3,0.7,0.7
			C19.1,38.9,18.8,39.3,18.4,39.3z M34.5,29.9c-0.2,0.4-0.7,0.5-1,0.3c-0.2-0.1-0.3-0.3-0.3-0.5c-0.1-0.2,0-0.4,0.1-0.6
			c0.1-0.2,0.4-0.4,0.7-0.4c0.1,0,0.3,0,0.4,0.1C34.5,29.1,34.7,29.6,34.5,29.9z"/>
	</g>
</g>
</svg>
