<?xml version="1.0" encoding="utf-8"?>
<!-- Generator: Adobe Illustrator 24.0.2, SVG Export Plug-In . SVG Version: 6.00 Build 0)  -->
<svg version="1.1" id="Layer_1" xmlns="http://www.w3.org/2000/svg" xmlns:xlink="http://www.w3.org/1999/xlink" x="0px" y="0px"
	 viewBox="0 0 48.04 42" style="enable-background:new 0 0 48.04 42;" xml:space="preserve">
<style type="text/css">
	.st0{fill:#FFFFFF;}
	.st1{fill:#2C5967;}
</style>
<g>
	<g>
		<g>
			<g>
				<path class="st0" d="M7.06,41.5c-1.38,0-2.34-0.76-2.34-1.84V25.44h38.64v14.22c0,1.08-0.96,1.84-2.35,1.84H7.06z"/>
				<path class="st0" d="M42.85,25.94v13.72c0,0.8-0.74,1.34-1.84,1.34H7.06c-1.1,0-1.84-0.54-1.84-1.34V25.94H42.85 M43.85,24.94
					h-1H5.22h-1v1v13.72c0,1.38,1.17,2.34,2.84,2.34h33.95c1.68,0,2.84-0.96,2.84-2.34V25.94V24.94L43.85,24.94z"/>
			</g>
			<g>
				<path class="st0" d="M0.54,24.46l0.12-1.6c0.29-3.93,2.55-7.38,6.05-9.21c0.78-0.41,1.32-1.13,1.48-1.97
					c0.55-2.78,2.42-5.12,5.01-6.25c1.09-0.48,2.29-0.73,3.48-0.73c0.27,0,0.54,0.01,0.81,0.04c0.1,0.01,0.19,0.01,0.28,0.01
					c0.77,0,1.48-0.3,1.98-0.85c2-2.16,4.84-3.4,7.79-3.4c4.05,0,7.69,2.25,9.5,5.88c0.39,0.78,1.11,1.34,1.98,1.54
					c1.22,0.27,2.38,0.75,3.44,1.42c4.82,3.04,6.48,9.34,3.78,14.35l-0.42,0.78H0.54z"/>
				<path class="st0" d="M27.54,1c3.86,0,7.33,2.15,9.06,5.6c0.46,0.92,1.31,1.58,2.32,1.8c1.16,0.26,2.27,0.71,3.28,1.35
					c4.6,2.9,6.18,8.91,3.6,13.69l-0.28,0.52H1.08l0.08-1.06c0.28-3.76,2.44-7.05,5.78-8.81c0.91-0.48,1.55-1.32,1.74-2.32
					c0.51-2.62,2.28-4.82,4.72-5.89c1.04-0.46,2.16-0.69,3.28-0.69c0.25,0,0.51,0.01,0.76,0.04c0.11,0.01,0.22,0.02,0.33,0.02
					c0.9,0,1.75-0.36,2.35-1.01C22.03,2.18,24.74,1,27.54,1 M27.54,0c-3.08,0-6.05,1.3-8.15,3.56C18.98,4,18.4,4.25,17.77,4.25
					c-0.08,0-0.16,0-0.23-0.01c-0.28-0.03-0.57-0.04-0.85-0.04c-1.26,0-2.53,0.27-3.68,0.77c-2.74,1.2-4.72,3.68-5.3,6.62
					c-0.14,0.69-0.58,1.28-1.23,1.62c-3.65,1.92-6.01,5.52-6.32,9.62l-0.08,1.06L0,24.96h1.08h44.45h0.6l0.28-0.53l0.28-0.52
					c2.83-5.24,1.09-11.83-3.95-15.01c-1.11-0.7-2.33-1.2-3.6-1.48c-0.72-0.16-1.32-0.62-1.64-1.27C35.6,2.36,31.78,0,27.54,0
					L27.54,0z"/>
			</g>
		</g>
		<g>
			<path class="st1" d="M5.22,39.66c0,0.8,0.74,1.34,1.84,1.34h33.95c1.1,0,1.84-0.54,1.84-1.34V25.94H5.22V39.66z M7.19,27.91
				h33.69v11.11H7.19V27.91z"/>
			<circle class="st1" cx="35.94" cy="33.35" r="1.73"/>
			<path class="st1" d="M42.21,9.76c-1.02-0.64-2.12-1.09-3.28-1.35c-1.02-0.22-1.86-0.88-2.32-1.8C34.87,3.15,31.4,1,27.54,1
				c-2.81,0-5.51,1.18-7.42,3.24c-0.68,0.73-1.66,1.09-2.68,1c-1.37-0.13-2.77,0.1-4.04,0.65c-2.44,1.07-4.2,3.28-4.72,5.89
				c-0.19,0.99-0.83,1.84-1.74,2.32c-3.34,1.76-5.51,5.05-5.78,8.81l-0.08,1.06h6.47v0h12.64c-0.76-0.54-1.43-1.21-1.96-1.98H7.3v0
				H3.27c0.51-2.63,2.18-4.87,4.59-6.14c1.44-0.76,2.45-2.1,2.76-3.68c0.39-1.98,1.73-3.65,3.57-4.47c0.96-0.42,2.02-0.59,3.06-0.5
				c1.64,0.16,3.22-0.43,4.32-1.62c1.54-1.66,3.71-2.61,5.97-2.61c3.11,0,5.9,1.73,7.29,4.51c0.73,1.46,2.06,2.49,3.66,2.85
				c0.94,0.21,1.83,0.58,2.66,1.09c3.56,2.24,4.89,6.79,3.17,10.56h-19.5c-2.55,0-4.63-2.1-4.63-4.69h-1.98
				c0,3.68,2.96,6.67,6.6,6.67h20.7l0.28-0.52C48.39,18.66,46.8,12.65,42.21,9.76z"/>
		</g>
	</g>
</g>
</svg>
